%TF.GenerationSoftware,KiCad,Pcbnew,9.0.6*%
%TF.CreationDate,2025-11-07T09:00:52+05:30*%
%TF.ProjectId,ESPNut-D1,4553504e-7574-42d4-9431-2e6b69636164,0.4*%
%TF.SameCoordinates,Original*%
%TF.FileFunction,Copper,L2,Bot*%
%TF.FilePolarity,Positive*%
%FSLAX46Y46*%
G04 Gerber Fmt 4.6, Leading zero omitted, Abs format (unit mm)*
G04 Created by KiCad (PCBNEW 9.0.6) date 2025-11-07 09:00:52*
%MOMM*%
%LPD*%
G01*
G04 APERTURE LIST*
G04 Aperture macros list*
%AMRoundRect*
0 Rectangle with rounded corners*
0 $1 Rounding radius*
0 $2 $3 $4 $5 $6 $7 $8 $9 X,Y pos of 4 corners*
0 Add a 4 corners polygon primitive as box body*
4,1,4,$2,$3,$4,$5,$6,$7,$8,$9,$2,$3,0*
0 Add four circle primitives for the rounded corners*
1,1,$1+$1,$2,$3*
1,1,$1+$1,$4,$5*
1,1,$1+$1,$6,$7*
1,1,$1+$1,$8,$9*
0 Add four rect primitives between the rounded corners*
20,1,$1+$1,$2,$3,$4,$5,0*
20,1,$1+$1,$4,$5,$6,$7,0*
20,1,$1+$1,$6,$7,$8,$9,0*
20,1,$1+$1,$8,$9,$2,$3,0*%
%AMOutline5P*
0 Free polygon, 5 corners , with rotation*
0 The origin of the aperture is its center*
0 number of corners: always 5*
0 $1 to $10 corner X, Y*
0 $11 Rotation angle, in degrees counterclockwise*
0 create outline with 5 corners*
4,1,5,$1,$2,$3,$4,$5,$6,$7,$8,$9,$10,$1,$2,$11*%
%AMOutline6P*
0 Free polygon, 6 corners , with rotation*
0 The origin of the aperture is its center*
0 number of corners: always 6*
0 $1 to $12 corner X, Y*
0 $13 Rotation angle, in degrees counterclockwise*
0 create outline with 6 corners*
4,1,6,$1,$2,$3,$4,$5,$6,$7,$8,$9,$10,$11,$12,$1,$2,$13*%
%AMOutline7P*
0 Free polygon, 7 corners , with rotation*
0 The origin of the aperture is its center*
0 number of corners: always 7*
0 $1 to $14 corner X, Y*
0 $15 Rotation angle, in degrees counterclockwise*
0 create outline with 7 corners*
4,1,7,$1,$2,$3,$4,$5,$6,$7,$8,$9,$10,$11,$12,$13,$14,$1,$2,$15*%
%AMOutline8P*
0 Free polygon, 8 corners , with rotation*
0 The origin of the aperture is its center*
0 number of corners: always 8*
0 $1 to $16 corner X, Y*
0 $17 Rotation angle, in degrees counterclockwise*
0 create outline with 8 corners*
4,1,8,$1,$2,$3,$4,$5,$6,$7,$8,$9,$10,$11,$12,$13,$14,$15,$16,$1,$2,$17*%
%AMFreePoly0*
4,1,15,-0.500000,0.200000,-0.480423,0.323607,-0.423607,0.435114,-0.335114,0.523607,-0.223607,0.580423,-0.100000,0.600000,0.500000,0.600000,0.500000,-0.600000,-0.100000,-0.600000,-0.223607,-0.580423,-0.335114,-0.523607,-0.423607,-0.435114,-0.480423,-0.323607,-0.500000,-0.200000,-0.500000,0.200000,-0.500000,0.200000,$1*%
%AMFreePoly1*
4,1,15,-0.500000,0.600000,0.100000,0.600000,0.223607,0.580423,0.335114,0.523607,0.423607,0.435114,0.480423,0.323607,0.500000,0.200000,0.500000,-0.200000,0.480423,-0.323607,0.423607,-0.435114,0.335114,-0.523607,0.223607,-0.580423,0.100000,-0.600000,-0.500000,-0.600000,-0.500000,0.600000,-0.500000,0.600000,$1*%
G04 Aperture macros list end*
%TA.AperFunction,ComponentPad*%
%ADD10R,1.000000X1.000000*%
%TD*%
%TA.AperFunction,ComponentPad*%
%ADD11O,1.000000X1.000000*%
%TD*%
%TA.AperFunction,SMDPad,CuDef*%
%ADD12RoundRect,0.375000X0.000010X0.000010X-0.000010X0.000010X-0.000010X-0.000010X0.000010X-0.000010X0*%
%TD*%
%TA.AperFunction,SMDPad,CuDef*%
%ADD13FreePoly0,180.000000*%
%TD*%
%TA.AperFunction,SMDPad,CuDef*%
%ADD14FreePoly1,180.000000*%
%TD*%
%TA.AperFunction,SMDPad,CuDef*%
%ADD15RoundRect,0.375000X-0.000010X-0.000010X0.000010X-0.000010X0.000010X0.000010X-0.000010X0.000010X0*%
%TD*%
%TA.AperFunction,SMDPad,CuDef*%
%ADD16Outline5P,-0.600000X0.500000X0.600000X0.500000X0.600000X-0.500000X-0.200000X-0.500000X-0.600000X-0.100000X0.000000*%
%TD*%
%TA.AperFunction,SMDPad,CuDef*%
%ADD17RoundRect,0.250000X-0.350000X-0.250000X0.350000X-0.250000X0.350000X0.250000X-0.350000X0.250000X0*%
%TD*%
%TA.AperFunction,SMDPad,CuDef*%
%ADD18R,2.500000X1.700000*%
%TD*%
%TA.AperFunction,SMDPad,CuDef*%
%ADD19RoundRect,0.400000X-0.850000X-0.450000X0.850000X-0.450000X0.850000X0.450000X-0.850000X0.450000X0*%
%TD*%
%TA.AperFunction,ViaPad*%
%ADD20C,0.600000*%
%TD*%
%TA.AperFunction,Conductor*%
%ADD21C,0.400000*%
%TD*%
%TA.AperFunction,Conductor*%
%ADD22C,0.500000*%
%TD*%
%TA.AperFunction,Conductor*%
%ADD23C,0.300000*%
%TD*%
%TA.AperFunction,Conductor*%
%ADD24C,0.200000*%
%TD*%
%TA.AperFunction,Conductor*%
%ADD25C,0.250000*%
%TD*%
G04 APERTURE END LIST*
D10*
X25859000Y10448000D03*
D11*
X24589000Y10448000D03*
X25859000Y11718000D03*
X24589000Y11718000D03*
X25859000Y12988000D03*
X24589000Y12988000D03*
D12*
X15700000Y12574000D03*
X15700000Y6224000D03*
D13*
X33100000Y15100000D03*
D14*
X31800002Y15100000D03*
D15*
X8599264Y17699264D03*
D12*
X15700000Y7494000D03*
X15700000Y8764000D03*
X15700000Y10034000D03*
D13*
X39374999Y1945000D03*
D14*
X38075001Y1945000D03*
D13*
X39374999Y18055000D03*
D14*
X38075001Y18055000D03*
D13*
X16025000Y18295000D03*
D14*
X14725000Y18295000D03*
D16*
X1375000Y7750000D03*
D17*
X1375000Y9250000D03*
X1375000Y10750000D03*
X1375000Y12250000D03*
D15*
X6999264Y17702208D03*
D18*
X42073000Y3716000D03*
D19*
X42073000Y6256000D03*
X42073000Y8795999D03*
X42073000Y11336001D03*
X42073000Y13876000D03*
X42073000Y16416000D03*
D15*
X32359264Y12662208D03*
D12*
X15700000Y4954000D03*
X15700000Y11304000D03*
D15*
X33959264Y12662208D03*
D20*
X10000000Y16700000D03*
X17400000Y6200000D03*
X40800000Y18200000D03*
X23600000Y16200000D03*
X26000000Y16200000D03*
X23800000Y1600000D03*
X23400000Y11000000D03*
X9700000Y15000000D03*
X4600000Y2000000D03*
X19000000Y19000000D03*
X36600000Y12400000D03*
X38800000Y14800000D03*
X28000000Y4000000D03*
X4600000Y1000000D03*
X12400000Y10000000D03*
X12400000Y8400000D03*
X37400000Y7400000D03*
X9700000Y15600000D03*
X10600000Y19000000D03*
X19000000Y17000000D03*
X23600000Y19000000D03*
X16000000Y17000000D03*
X12200000Y4400000D03*
X19200000Y4200000D03*
X39600000Y14800000D03*
X40800000Y19000000D03*
X5980000Y15110000D03*
X22200000Y4400000D03*
X25400000Y16200000D03*
X4600000Y19000000D03*
X31400000Y1200000D03*
X5400000Y19000000D03*
X18047500Y2494000D03*
X17400000Y6800000D03*
X40800000Y1800000D03*
X36600000Y16000000D03*
X32200000Y2000000D03*
X35200000Y16000000D03*
X13030000Y2640000D03*
X24800000Y4400000D03*
X15400000Y3000000D03*
X23400000Y11800000D03*
X19600000Y13800000D03*
X15400000Y1800000D03*
X21000000Y16200000D03*
X5980000Y4890000D03*
X15400000Y2400000D03*
X11000000Y15300000D03*
X36600000Y19200000D03*
X37400000Y8100000D03*
X21300000Y4400000D03*
X32200000Y1200000D03*
X25400000Y4400000D03*
X16600000Y14800000D03*
X2050000Y15110000D03*
X15200000Y17000000D03*
X40800000Y1000000D03*
X9700000Y16200000D03*
X11000000Y15900000D03*
X31400000Y2000000D03*
X31800000Y18200000D03*
X6600000Y7600000D03*
X8600000Y17705000D03*
X1799002Y12200000D03*
X6555000Y12400000D03*
X26400000Y17100000D03*
X34680193Y3867557D03*
X20800000Y17100000D03*
X29425000Y14025000D03*
X20300000Y2650000D03*
X7017500Y17705000D03*
X21300000Y15400000D03*
X38075001Y18055000D03*
X1400000Y10800000D03*
X5209855Y9613706D03*
X1400000Y9200000D03*
X7600000Y10400000D03*
X38300000Y1950000D03*
X41100000Y13050000D03*
X40408926Y5421287D03*
X40388489Y6461511D03*
X33250000Y16500000D03*
X7500000Y11262032D03*
X8475000Y14500000D03*
X21249998Y6680000D03*
X27000000Y6600000D03*
X15700000Y11304000D03*
X18800000Y14800000D03*
X21660000Y13030000D03*
X11900000Y12600000D03*
X15700000Y10034000D03*
X17600000Y13700000D03*
X27391575Y5764579D03*
X32400000Y12679000D03*
X15700000Y12574000D03*
X15700000Y4954000D03*
X15700000Y6224000D03*
X15700000Y7494000D03*
X15700000Y8764000D03*
X12000000Y11300000D03*
X22900000Y8800000D03*
X41350000Y10500000D03*
X22615000Y12585000D03*
X35000000Y10500000D03*
X35100000Y7400000D03*
X41300000Y9500000D03*
X28150000Y9850000D03*
X25800000Y8100000D03*
X19000000Y9200000D03*
X22540000Y7000000D03*
X31700000Y16500000D03*
X31150000Y8250000D03*
X25211000Y3400000D03*
X14750000Y18150000D03*
D21*
X6200000Y7600000D02*
X4400000Y9400000D01*
X6155000Y12000000D02*
X6555000Y12400000D01*
X4300000Y12000000D02*
X4400000Y11900000D01*
X1799002Y12200000D02*
X1999002Y12000000D01*
X4500000Y12000000D02*
X6155000Y12000000D01*
X6600000Y7600000D02*
X6200000Y7600000D01*
X4400000Y9400000D02*
X4400000Y11900000D01*
X1999002Y12000000D02*
X4300000Y12000000D01*
X4400000Y11900000D02*
X4500000Y12000000D01*
D22*
X29167557Y3867557D02*
X29550000Y3867557D01*
X29550000Y3867557D02*
X34680193Y3867557D01*
X20300000Y2650000D02*
X27950000Y2650000D01*
X27950000Y2650000D02*
X29167557Y3867557D01*
D23*
X29550000Y13900000D02*
X29550000Y3867557D01*
X20800000Y17100000D02*
X26400000Y17100000D01*
X29425000Y14025000D02*
X29550000Y13900000D01*
X27500000Y15100000D02*
X27700000Y15300000D01*
X38075001Y18055000D02*
X38075001Y17274999D01*
X28400000Y16000000D02*
X28400000Y17609496D01*
X29990504Y19200000D02*
X34700000Y19200000D01*
X27500000Y11900000D02*
X27500000Y15100000D01*
X36650000Y17250000D02*
X38075001Y17250000D01*
X38934000Y16416000D02*
X42073000Y16416000D01*
X27700000Y15300000D02*
X28400000Y16000000D01*
X38075001Y17274999D02*
X38934000Y16416000D01*
X26048000Y10448000D02*
X27500000Y11900000D01*
X27600000Y15200000D02*
X27700000Y15300000D01*
X21500000Y15200000D02*
X27600000Y15200000D01*
X28400000Y17609496D02*
X29990504Y19200000D01*
X21300000Y15400000D02*
X21500000Y15200000D01*
X38075001Y17250000D02*
X38075001Y18055000D01*
X25859000Y10448000D02*
X26048000Y10448000D01*
X34700000Y19200000D02*
X36650000Y17250000D01*
D24*
X5209855Y9613706D02*
X5896148Y10300000D01*
X5896148Y10300000D02*
X7500000Y10300000D01*
X7500000Y10300000D02*
X7600000Y10400000D01*
D23*
X41897000Y13700000D02*
X42073000Y13876000D01*
X38300000Y3312362D02*
X38300000Y1950000D01*
X41100000Y13050000D02*
X41750000Y13700000D01*
X41750000Y13700000D02*
X41897000Y13700000D01*
X40408926Y5421287D02*
X38300000Y3312362D01*
D22*
X40138489Y6461511D02*
X33959264Y12640736D01*
D21*
X32700000Y16500000D02*
X32000000Y17200000D01*
X28699000Y11486000D02*
X26760000Y9547000D01*
D22*
X33959264Y14240736D02*
X33100000Y15100000D01*
X40388489Y6461511D02*
X40138489Y6461511D01*
D21*
X25053000Y9547000D02*
X24589000Y10011000D01*
X33250000Y16500000D02*
X32700000Y16500000D01*
D22*
X33250000Y15535000D02*
X33100000Y15385000D01*
D21*
X28699000Y15299000D02*
X28699000Y11486000D01*
D22*
X33959264Y12662208D02*
X33959264Y14240736D01*
X33100000Y15385000D02*
X33100000Y15100000D01*
X33250000Y16500000D02*
X33250000Y15535000D01*
D21*
X32000000Y17200000D02*
X30600000Y17200000D01*
X24589000Y10011000D02*
X24589000Y10448000D01*
D22*
X41829000Y6500000D02*
X42073000Y6256000D01*
X40388489Y6461511D02*
X40426978Y6500000D01*
D21*
X26760000Y9547000D02*
X25053000Y9547000D01*
X30600000Y17200000D02*
X28699000Y15299000D01*
D22*
X33959264Y12640736D02*
X33959264Y12662208D01*
X40426978Y6500000D02*
X41829000Y6500000D01*
D25*
X8475000Y14500000D02*
X8400000Y14425000D01*
X8400000Y14425000D02*
X8400000Y12200000D01*
X8400000Y12200000D02*
X7500000Y11300000D01*
X7500000Y11300000D02*
X7500000Y11262032D01*
D23*
X27000000Y6600000D02*
X26700000Y6300000D01*
X26700000Y6300000D02*
X21629998Y6300000D01*
X21629998Y6300000D02*
X21249998Y6680000D01*
X16750000Y13850000D02*
X16750000Y12150000D01*
X17700000Y14800000D02*
X16750000Y13850000D01*
X16750000Y12150000D02*
X15904000Y11304000D01*
X18800000Y14800000D02*
X17700000Y14800000D01*
X15904000Y11304000D02*
X15700000Y11304000D01*
X15377000Y16077000D02*
X19323000Y16077000D01*
X19323000Y16077000D02*
X21660000Y13740000D01*
X21660000Y13740000D02*
X21660000Y13030000D01*
X11900000Y12600000D02*
X15377000Y16077000D01*
X18500000Y7400000D02*
X18500000Y8620654D01*
X27391575Y5764579D02*
X20135421Y5764579D01*
X17600000Y10034000D02*
X17600000Y13700000D01*
X18500000Y8620654D02*
X17600000Y9520654D01*
X17600000Y9520654D02*
X17600000Y10034000D01*
X20135421Y5764579D02*
X18500000Y7400000D01*
X15700000Y10034000D02*
X17600000Y10034000D01*
X20400000Y14214588D02*
X19038588Y15576000D01*
X19038588Y15576000D02*
X16276000Y15576000D01*
X16276000Y15576000D02*
X12000000Y11300000D01*
X22900000Y8800000D02*
X20400000Y11300000D01*
X20400000Y11300000D02*
X20400000Y14214588D01*
X23900000Y13900000D02*
X25600000Y13900000D01*
X25600000Y13900000D02*
X25859000Y13641000D01*
X35100000Y10400000D02*
X35000000Y10500000D01*
X22615000Y12615000D02*
X23900000Y13900000D01*
X22615000Y12585000D02*
X22615000Y12615000D01*
X25859000Y13641000D02*
X25859000Y12988000D01*
X35100000Y7400000D02*
X35100000Y10400000D01*
X25800000Y8100000D02*
X26400000Y8100000D01*
X26400000Y8100000D02*
X28150000Y9850000D01*
X19000000Y9200000D02*
X19313416Y8886584D01*
X19313416Y8886584D02*
X20653416Y8886584D01*
X20653416Y8886584D02*
X22540000Y7000000D01*
D22*
X31150000Y14734998D02*
X31515002Y15100000D01*
X31700000Y15284998D02*
X31800002Y15184996D01*
X31800002Y15184996D02*
X31800002Y15100000D01*
X31515002Y15100000D02*
X31800002Y15100000D01*
X31700000Y16500000D02*
X31700000Y15284998D01*
X31150000Y8250000D02*
X31150000Y14734998D01*
D23*
X11249000Y14549000D02*
X14750000Y18050000D01*
X14750000Y18050000D02*
X14750000Y18150000D01*
X16227280Y3400000D02*
X11249000Y8378280D01*
X25211000Y3400000D02*
X16227280Y3400000D01*
X11249000Y8378280D02*
X11249000Y14549000D01*
%TA.AperFunction,Conductor*%
G36*
X29691288Y19679815D02*
G01*
X29737043Y19627011D01*
X29746987Y19557853D01*
X29717962Y19494297D01*
X29711930Y19487819D01*
X28079522Y17855412D01*
X28079518Y17855406D01*
X28026792Y17764084D01*
X28018872Y17734522D01*
X28018872Y17734521D01*
X27999500Y17662223D01*
X27999500Y16217255D01*
X27979815Y16150216D01*
X27963181Y16129574D01*
X27470426Y15636819D01*
X27409103Y15603334D01*
X27382745Y15600500D01*
X21891495Y15600500D01*
X21824456Y15620185D01*
X21784108Y15662500D01*
X21761075Y15702393D01*
X21740509Y15738015D01*
X21638015Y15840509D01*
X21638013Y15840510D01*
X21638011Y15840512D01*
X21512488Y15912983D01*
X21512489Y15912983D01*
X21501006Y15916060D01*
X21372475Y15950500D01*
X21227525Y15950500D01*
X21098993Y15916060D01*
X21087511Y15912983D01*
X20961988Y15840512D01*
X20961982Y15840507D01*
X20859493Y15738018D01*
X20859488Y15738012D01*
X20787017Y15612489D01*
X20751077Y15478359D01*
X20714711Y15418699D01*
X20651864Y15388170D01*
X20582489Y15396465D01*
X20543621Y15422772D01*
X19568915Y16397478D01*
X19568913Y16397480D01*
X19516869Y16427528D01*
X19477589Y16450207D01*
X19426657Y16463854D01*
X19375727Y16477500D01*
X19375726Y16477500D01*
X15437339Y16477500D01*
X15437323Y16477501D01*
X15429727Y16477501D01*
X15324273Y16477501D01*
X15256366Y16459305D01*
X15222412Y16450207D01*
X15131084Y16397478D01*
X11920426Y13186819D01*
X11859103Y13153334D01*
X11853588Y13152264D01*
X11843243Y13150500D01*
X11827525Y13150500D01*
X11800020Y13143131D01*
X11794343Y13142162D01*
X11765136Y13145587D01*
X11735743Y13146286D01*
X11730835Y13149608D01*
X11724948Y13150298D01*
X11702228Y13168970D01*
X11677881Y13185449D01*
X11675548Y13190897D01*
X11670969Y13194660D01*
X11661951Y13222649D01*
X11650377Y13249677D01*
X11649726Y13260590D01*
X11649542Y13261163D01*
X11649665Y13261627D01*
X11649500Y13264398D01*
X11649500Y14331746D01*
X11669185Y14398785D01*
X11685819Y14419427D01*
X14438867Y17172475D01*
X20249500Y17172475D01*
X20249500Y17027525D01*
X20275761Y16929520D01*
X20287017Y16887512D01*
X20359488Y16761989D01*
X20359490Y16761987D01*
X20359491Y16761985D01*
X20461985Y16659491D01*
X20461986Y16659490D01*
X20461988Y16659489D01*
X20587511Y16587018D01*
X20587512Y16587018D01*
X20587515Y16587016D01*
X20727525Y16549500D01*
X20727528Y16549500D01*
X20872472Y16549500D01*
X20872475Y16549500D01*
X21012485Y16587016D01*
X21138015Y16659491D01*
X21141705Y16663181D01*
X21203028Y16696666D01*
X21229386Y16699500D01*
X25970614Y16699500D01*
X26037653Y16679815D01*
X26058295Y16663181D01*
X26061985Y16659491D01*
X26061986Y16659490D01*
X26061988Y16659489D01*
X26187511Y16587018D01*
X26187512Y16587018D01*
X26187515Y16587016D01*
X26327525Y16549500D01*
X26327528Y16549500D01*
X26472472Y16549500D01*
X26472475Y16549500D01*
X26612485Y16587016D01*
X26738015Y16659491D01*
X26840509Y16761985D01*
X26912984Y16887515D01*
X26950500Y17027525D01*
X26950500Y17172475D01*
X26912984Y17312485D01*
X26912774Y17312848D01*
X26840511Y17438012D01*
X26840506Y17438018D01*
X26738017Y17540507D01*
X26738011Y17540512D01*
X26612488Y17612983D01*
X26612489Y17612983D01*
X26587051Y17619799D01*
X26472475Y17650500D01*
X26327525Y17650500D01*
X26212949Y17619799D01*
X26187511Y17612983D01*
X26061988Y17540512D01*
X26061982Y17540507D01*
X26058295Y17536819D01*
X25996972Y17503334D01*
X25970614Y17500500D01*
X21229386Y17500500D01*
X21162347Y17520185D01*
X21141705Y17536819D01*
X21138017Y17540507D01*
X21138011Y17540512D01*
X21012488Y17612983D01*
X21012489Y17612983D01*
X20987051Y17619799D01*
X20872475Y17650500D01*
X20727525Y17650500D01*
X20612949Y17619799D01*
X20587511Y17612983D01*
X20461988Y17540512D01*
X20461982Y17540507D01*
X20359493Y17438018D01*
X20359488Y17438012D01*
X20287017Y17312489D01*
X20287016Y17312485D01*
X20249500Y17172475D01*
X14438867Y17172475D01*
X14674573Y17408181D01*
X14735896Y17441666D01*
X14762254Y17444500D01*
X15249673Y17444500D01*
X15249674Y17444500D01*
X15280137Y17450560D01*
X15349726Y17444334D01*
X15354415Y17442377D01*
X15455119Y17397912D01*
X15455124Y17397911D01*
X15480206Y17395001D01*
X15774999Y17395001D01*
X15775000Y17395002D01*
X15775000Y17408544D01*
X16275000Y17408544D01*
X16414395Y17451981D01*
X16559877Y17539928D01*
X16680072Y17660123D01*
X16768019Y17805605D01*
X16818590Y17967894D01*
X16825000Y18038428D01*
X16825000Y18045000D01*
X16275000Y18045000D01*
X16275000Y17408544D01*
X15775000Y17408544D01*
X15775000Y18545000D01*
X16275000Y18545000D01*
X16824999Y18545000D01*
X16824999Y18551583D01*
X16818591Y18622103D01*
X16818590Y18622108D01*
X16768018Y18784397D01*
X16680072Y18929878D01*
X16559877Y19050073D01*
X16414396Y19138019D01*
X16414395Y19138020D01*
X16275000Y19181458D01*
X16275000Y18545000D01*
X15775000Y18545000D01*
X15775000Y19195000D01*
X15480214Y19195000D01*
X15480191Y19194998D01*
X15455130Y19192092D01*
X15455126Y19192091D01*
X15354414Y19147623D01*
X15285135Y19138553D01*
X15280138Y19139441D01*
X15249677Y19145500D01*
X15249674Y19145500D01*
X14559306Y19145500D01*
X14559298Y19145500D01*
X14522432Y19142599D01*
X14522426Y19142598D01*
X14364606Y19096746D01*
X14364603Y19096745D01*
X14223137Y19013083D01*
X14223129Y19013077D01*
X14106923Y18896871D01*
X14106917Y18896863D01*
X14023255Y18755397D01*
X14023254Y18755394D01*
X13977402Y18597574D01*
X13977401Y18597568D01*
X13974500Y18560702D01*
X13974500Y18029299D01*
X13977401Y17992437D01*
X13977403Y17992428D01*
X13990404Y17947676D01*
X13990203Y17877807D01*
X13959008Y17825402D01*
X10928522Y14794916D01*
X10928520Y14794913D01*
X10875793Y14703590D01*
X10860205Y14645412D01*
X10848500Y14601731D01*
X10848500Y14601727D01*
X10848500Y8431007D01*
X10848500Y8325553D01*
X10856738Y8294809D01*
X10875793Y8223691D01*
X10885622Y8206668D01*
X10928520Y8132367D01*
X15981367Y3079520D01*
X16072692Y3026793D01*
X16174553Y2999500D01*
X16280007Y2999500D01*
X19662129Y2999500D01*
X19729168Y2979815D01*
X19774923Y2927011D01*
X19784867Y2857853D01*
X19781904Y2843411D01*
X19749500Y2722475D01*
X19749500Y2577525D01*
X19787016Y2437515D01*
X19787017Y2437512D01*
X19859488Y2311989D01*
X19859490Y2311987D01*
X19859491Y2311985D01*
X19961985Y2209491D01*
X19961986Y2209490D01*
X19961988Y2209489D01*
X20087511Y2137018D01*
X20087512Y2137018D01*
X20087515Y2137016D01*
X20227525Y2099500D01*
X20227528Y2099500D01*
X20372472Y2099500D01*
X20372475Y2099500D01*
X20512485Y2137016D01*
X20512488Y2137019D01*
X20519838Y2140062D01*
X20567289Y2149500D01*
X28015890Y2149500D01*
X28015892Y2149500D01*
X28143186Y2183608D01*
X28257314Y2249500D01*
X29338552Y3330738D01*
X29399875Y3364223D01*
X29426233Y3367057D01*
X29484108Y3367057D01*
X34412904Y3367057D01*
X34460355Y3357619D01*
X34467706Y3354574D01*
X34467708Y3354573D01*
X34607718Y3317057D01*
X34607721Y3317057D01*
X34752665Y3317057D01*
X34752668Y3317057D01*
X34892678Y3354573D01*
X35018208Y3427048D01*
X35120702Y3529542D01*
X35193177Y3655072D01*
X35230693Y3795082D01*
X35230693Y3940032D01*
X35193177Y4080042D01*
X35120702Y4205572D01*
X35018208Y4308066D01*
X35018206Y4308067D01*
X35018204Y4308069D01*
X34892681Y4380540D01*
X34892682Y4380540D01*
X34881199Y4383617D01*
X34752668Y4418057D01*
X34607718Y4418057D01*
X34523712Y4395548D01*
X34467706Y4380541D01*
X34460355Y4377495D01*
X34412904Y4368057D01*
X30074500Y4368057D01*
X30007461Y4387742D01*
X29961706Y4440546D01*
X29950500Y4492057D01*
X29950500Y13837293D01*
X29950501Y13842926D01*
X29950506Y13842944D01*
X29952437Y13857615D01*
X29952438Y13857621D01*
X29954726Y13874998D01*
X29957919Y13886913D01*
X29975500Y13952525D01*
X29975500Y14097475D01*
X29937984Y14237485D01*
X29931216Y14249207D01*
X29865511Y14363012D01*
X29865506Y14363018D01*
X29763017Y14465507D01*
X29763011Y14465512D01*
X29637488Y14537983D01*
X29637489Y14537983D01*
X29625479Y14541201D01*
X29497475Y14575500D01*
X29352525Y14575500D01*
X29352523Y14575500D01*
X29305592Y14562925D01*
X29235742Y14564588D01*
X29177880Y14603752D01*
X29150377Y14667980D01*
X29149500Y14682700D01*
X29149500Y15061035D01*
X29169185Y15128074D01*
X29185819Y15148716D01*
X30750284Y16713181D01*
X30777211Y16727885D01*
X30803030Y16744477D01*
X30809230Y16745369D01*
X30811607Y16746666D01*
X30837965Y16749500D01*
X31035334Y16749500D01*
X31102373Y16729815D01*
X31148128Y16677011D01*
X31158072Y16607853D01*
X31155109Y16593411D01*
X31149500Y16572475D01*
X31149500Y16427525D01*
X31173766Y16336965D01*
X31187017Y16287512D01*
X31190059Y16280169D01*
X31199500Y16232712D01*
X31199500Y15765513D01*
X31182232Y15702393D01*
X31098259Y15560401D01*
X31098256Y15560394D01*
X31052404Y15402574D01*
X31052402Y15402560D01*
X31051092Y15385917D01*
X31041833Y15361626D01*
X31036307Y15336223D01*
X31027838Y15324911D01*
X31026207Y15320630D01*
X31015156Y15307969D01*
X30842686Y15135498D01*
X30749502Y15042315D01*
X30749500Y15042312D01*
X30683608Y14928186D01*
X30649500Y14800890D01*
X30649500Y8517290D01*
X30640063Y8469841D01*
X30637016Y8462487D01*
X30626295Y8422475D01*
X30599500Y8322475D01*
X30599500Y8177525D01*
X30627610Y8072618D01*
X30637017Y8037512D01*
X30709488Y7911989D01*
X30709490Y7911987D01*
X30709491Y7911985D01*
X30811985Y7809491D01*
X30811986Y7809490D01*
X30811988Y7809489D01*
X30937511Y7737018D01*
X30937512Y7737018D01*
X30937515Y7737016D01*
X31077525Y7699500D01*
X31077528Y7699500D01*
X31222472Y7699500D01*
X31222475Y7699500D01*
X31362485Y7737016D01*
X31488015Y7809491D01*
X31590509Y7911985D01*
X31662984Y8037515D01*
X31700500Y8177525D01*
X31700500Y8322475D01*
X31662984Y8462485D01*
X31662983Y8462487D01*
X31659937Y8469841D01*
X31650500Y8517290D01*
X31650500Y12187019D01*
X31670185Y12254058D01*
X31722989Y12299813D01*
X31792147Y12309757D01*
X31855703Y12280732D01*
X31862181Y12274700D01*
X31972838Y12164043D01*
X31972847Y12164036D01*
X32021262Y12135404D01*
X32108874Y12083590D01*
X32260637Y12039499D01*
X32296101Y12036708D01*
X32422426Y12036709D01*
X32422437Y12036710D01*
X32422440Y12036710D01*
X32425702Y12036967D01*
X32457891Y12039499D01*
X32609654Y12083590D01*
X32745684Y12164038D01*
X32857434Y12275788D01*
X32937882Y12411818D01*
X32981973Y12563581D01*
X32984764Y12599045D01*
X32984763Y12725370D01*
X32981973Y12760835D01*
X32937882Y12912598D01*
X32871107Y13025509D01*
X32857436Y13048625D01*
X32857429Y13048634D01*
X32745689Y13160374D01*
X32745680Y13160381D01*
X32609654Y13240826D01*
X32609649Y13240828D01*
X32457897Y13284916D01*
X32457884Y13284918D01*
X32422427Y13287708D01*
X32296113Y13287708D01*
X32296087Y13287707D01*
X32260636Y13284917D01*
X32108878Y13240828D01*
X32108873Y13240826D01*
X31972847Y13160381D01*
X31972838Y13160374D01*
X31862181Y13049716D01*
X31800858Y13016231D01*
X31731166Y13021215D01*
X31675233Y13063087D01*
X31650816Y13128551D01*
X31650500Y13137397D01*
X31650500Y14125500D01*
X31670185Y14192539D01*
X31722989Y14238294D01*
X31774500Y14249500D01*
X32324678Y14249500D01*
X32324679Y14249501D01*
X32349250Y14254389D01*
X32397739Y14264033D01*
X32397740Y14264034D01*
X32397742Y14264034D01*
X32397742Y14264035D01*
X32402544Y14266023D01*
X32472013Y14273495D01*
X32497458Y14266023D01*
X32502262Y14264033D01*
X32575321Y14249501D01*
X32575324Y14249500D01*
X32575326Y14249500D01*
X33191324Y14249500D01*
X33220764Y14240856D01*
X33250751Y14234332D01*
X33255766Y14230578D01*
X33258363Y14229815D01*
X33279005Y14213181D01*
X33422445Y14069741D01*
X33455930Y14008418D01*
X33458764Y13982060D01*
X33458764Y13078612D01*
X33441496Y13015492D01*
X33380648Y12912603D01*
X33380644Y12912594D01*
X33336556Y12760842D01*
X33336554Y12760829D01*
X33333764Y12725379D01*
X33333764Y12599058D01*
X33333765Y12599032D01*
X33336555Y12563581D01*
X33380644Y12411823D01*
X33380646Y12411818D01*
X33461091Y12275792D01*
X33461098Y12275783D01*
X33572838Y12164043D01*
X33572847Y12164036D01*
X33621262Y12135404D01*
X33708874Y12083590D01*
X33818858Y12051637D01*
X33871944Y12020242D01*
X34731373Y11160813D01*
X34764858Y11099490D01*
X34759874Y11029798D01*
X34718002Y10973865D01*
X34705695Y10965746D01*
X34661985Y10940509D01*
X34661982Y10940507D01*
X34559493Y10838018D01*
X34559488Y10838012D01*
X34487017Y10712489D01*
X34487016Y10712485D01*
X34449500Y10572475D01*
X34449500Y10427525D01*
X34487016Y10287515D01*
X34487017Y10287512D01*
X34559488Y10161989D01*
X34559493Y10161983D01*
X34663181Y10058295D01*
X34696666Y9996972D01*
X34699500Y9970614D01*
X34699500Y7829386D01*
X34679815Y7762347D01*
X34663181Y7741705D01*
X34659493Y7738018D01*
X34659488Y7738012D01*
X34587017Y7612489D01*
X34587016Y7612485D01*
X34549500Y7472475D01*
X34549500Y7327525D01*
X34582275Y7205209D01*
X34587017Y7187512D01*
X34659488Y7061989D01*
X34659490Y7061987D01*
X34659491Y7061985D01*
X34761985Y6959491D01*
X34761986Y6959490D01*
X34761988Y6959489D01*
X34887511Y6887018D01*
X34887512Y6887018D01*
X34887515Y6887016D01*
X35027525Y6849500D01*
X35027528Y6849500D01*
X35172472Y6849500D01*
X35172475Y6849500D01*
X35312485Y6887016D01*
X35438015Y6959491D01*
X35540509Y7061985D01*
X35612984Y7187515D01*
X35650500Y7327525D01*
X35650500Y7472475D01*
X35612984Y7612485D01*
X35593471Y7646282D01*
X35540511Y7738012D01*
X35540506Y7738018D01*
X35536819Y7741705D01*
X35503334Y7803028D01*
X35500500Y7829386D01*
X35500500Y10092324D01*
X35520185Y10159363D01*
X35572989Y10205118D01*
X35642147Y10215062D01*
X35705703Y10186037D01*
X35712181Y10180005D01*
X39737989Y6154197D01*
X39831175Y6061011D01*
X39945303Y5995119D01*
X39952807Y5992011D01*
X39951955Y5989955D01*
X40001713Y5959632D01*
X40032247Y5896788D01*
X40023959Y5827412D01*
X39997648Y5788534D01*
X39968420Y5759306D01*
X39968414Y5759299D01*
X39895943Y5633776D01*
X39895942Y5633772D01*
X39858426Y5493762D01*
X39858426Y5493760D01*
X39858426Y5488543D01*
X39838741Y5421504D01*
X39822107Y5400862D01*
X37979522Y3558278D01*
X37979518Y3558272D01*
X37926792Y3466950D01*
X37926793Y3466949D01*
X37899500Y3365089D01*
X37899500Y2893564D01*
X37879815Y2826525D01*
X37827011Y2780770D01*
X37810095Y2774488D01*
X37714607Y2746747D01*
X37714604Y2746745D01*
X37573138Y2663083D01*
X37573130Y2663077D01*
X37456924Y2546871D01*
X37456918Y2546863D01*
X37373256Y2405397D01*
X37373255Y2405394D01*
X37327403Y2247574D01*
X37327402Y2247568D01*
X37324501Y2210702D01*
X37324501Y1679299D01*
X37327402Y1642433D01*
X37327403Y1642427D01*
X37373255Y1484607D01*
X37373256Y1484604D01*
X37373257Y1484602D01*
X37375041Y1481586D01*
X37456918Y1343138D01*
X37456924Y1343130D01*
X37573130Y1226924D01*
X37573134Y1226921D01*
X37573136Y1226919D01*
X37714603Y1143256D01*
X37756225Y1131164D01*
X37872427Y1097403D01*
X37872430Y1097403D01*
X37872432Y1097402D01*
X37909307Y1094500D01*
X37909315Y1094500D01*
X38599676Y1094500D01*
X38630135Y1100559D01*
X38699727Y1094332D01*
X38704413Y1092377D01*
X38805122Y1047911D01*
X38830205Y1045001D01*
X39124998Y1045001D01*
X39124999Y1045002D01*
X39124999Y1058544D01*
X39624999Y1058544D01*
X39764394Y1101981D01*
X39909876Y1189928D01*
X40030071Y1310123D01*
X40118018Y1455605D01*
X40168589Y1617894D01*
X40174999Y1688428D01*
X40174999Y1695000D01*
X39624999Y1695000D01*
X39624999Y1058544D01*
X39124999Y1058544D01*
X39124999Y2195000D01*
X39624999Y2195000D01*
X40174998Y2195000D01*
X40174998Y2201583D01*
X40168590Y2272103D01*
X40168589Y2272108D01*
X40118017Y2434397D01*
X40030071Y2579878D01*
X39909876Y2700073D01*
X39764395Y2788019D01*
X39764394Y2788020D01*
X39657869Y2821215D01*
X40523001Y2821215D01*
X40523002Y2821192D01*
X40525908Y2796131D01*
X40525909Y2796127D01*
X40571211Y2693526D01*
X40571214Y2693521D01*
X40650520Y2614215D01*
X40650525Y2614212D01*
X40753123Y2568911D01*
X40778206Y2566001D01*
X41822999Y2566001D01*
X41823000Y2566002D01*
X41823000Y3466000D01*
X40523001Y3466000D01*
X40523001Y2821215D01*
X39657869Y2821215D01*
X39624999Y2831458D01*
X39624999Y2195000D01*
X39124999Y2195000D01*
X39124999Y2845000D01*
X39124998Y2845000D01*
X38826626Y2844999D01*
X38826626Y2846238D01*
X38819328Y2847933D01*
X38806853Y2846139D01*
X38785939Y2855690D01*
X38763547Y2860892D01*
X38754761Y2869929D01*
X38743297Y2875164D01*
X38730867Y2894505D01*
X38714842Y2910988D01*
X38711433Y2924745D01*
X38705523Y2933942D01*
X38700500Y2968877D01*
X38700500Y3095107D01*
X38720185Y3162146D01*
X38736819Y3182788D01*
X39520031Y3966000D01*
X40322519Y4768488D01*
X40383840Y4801971D01*
X40453532Y4796987D01*
X40509465Y4755115D01*
X40533882Y4689651D01*
X40526200Y4645464D01*
X40528359Y4644876D01*
X40525910Y4635876D01*
X40523000Y4610795D01*
X40523000Y3966000D01*
X41823000Y3966000D01*
X41823000Y4866000D01*
X40931524Y4866000D01*
X40864485Y4885685D01*
X40818730Y4938489D01*
X40808786Y5007647D01*
X40828472Y5058966D01*
X40835235Y5069073D01*
X40849435Y5083272D01*
X40878948Y5134392D01*
X40881228Y5137797D01*
X40905031Y5157661D01*
X40927460Y5179046D01*
X40931619Y5179848D01*
X40934873Y5182563D01*
X40965632Y5186404D01*
X40996067Y5192270D01*
X41002601Y5191020D01*
X41004204Y5191220D01*
X41005962Y5190378D01*
X41018873Y5187908D01*
X41120431Y5158402D01*
X41157306Y5155500D01*
X41157314Y5155500D01*
X42988686Y5155500D01*
X42988694Y5155500D01*
X43025569Y5158402D01*
X43025571Y5158403D01*
X43025573Y5158403D01*
X43096625Y5179046D01*
X43183398Y5204256D01*
X43324865Y5287919D01*
X43441081Y5404135D01*
X43468768Y5450953D01*
X43519836Y5498635D01*
X43588578Y5511139D01*
X43653167Y5484494D01*
X43693098Y5427159D01*
X43699500Y5387831D01*
X43699500Y4913127D01*
X43679815Y4846088D01*
X43627011Y4800333D01*
X43557853Y4790389D01*
X43506650Y4813773D01*
X43504954Y4811295D01*
X43495474Y4817789D01*
X43392876Y4863090D01*
X43367794Y4866000D01*
X42323000Y4866000D01*
X42323000Y2566001D01*
X43367786Y2566001D01*
X43367808Y2566003D01*
X43392869Y2568909D01*
X43392873Y2568910D01*
X43495474Y2614212D01*
X43504954Y2620705D01*
X43507344Y2617216D01*
X43549142Y2640039D01*
X43618834Y2635055D01*
X43674767Y2593183D01*
X43699184Y2527719D01*
X43699500Y2518873D01*
X43699500Y2004428D01*
X43699184Y1995582D01*
X43682834Y1766983D01*
X43680316Y1749471D01*
X43632543Y1529863D01*
X43627559Y1512888D01*
X43549019Y1302312D01*
X43541669Y1286218D01*
X43433959Y1088964D01*
X43424394Y1074081D01*
X43289710Y894164D01*
X43278124Y880793D01*
X43119207Y721876D01*
X43105836Y710290D01*
X42925919Y575606D01*
X42911036Y566041D01*
X42713782Y458331D01*
X42697688Y450981D01*
X42487112Y372441D01*
X42470137Y367457D01*
X42250529Y319684D01*
X42233017Y317166D01*
X42004418Y300816D01*
X41995572Y300500D01*
X2004428Y300500D01*
X1995582Y300816D01*
X1766982Y317166D01*
X1749470Y319684D01*
X1529862Y367457D01*
X1512887Y372441D01*
X1302311Y450981D01*
X1286217Y458331D01*
X1088963Y566041D01*
X1074080Y575606D01*
X894163Y710290D01*
X880792Y721876D01*
X721875Y880793D01*
X710289Y894164D01*
X575605Y1074081D01*
X566040Y1088964D01*
X563017Y1094501D01*
X458327Y1286223D01*
X450983Y1302306D01*
X372437Y1512897D01*
X367458Y1529856D01*
X319683Y1749471D01*
X317165Y1766983D01*
X311171Y1850788D01*
X300816Y1995582D01*
X300500Y2004428D01*
X300500Y2106287D01*
X649500Y2106287D01*
X649500Y1893713D01*
X682754Y1683757D01*
X732757Y1529863D01*
X748444Y1481586D01*
X844951Y1292180D01*
X969890Y1120214D01*
X1120213Y969891D01*
X1292179Y844952D01*
X1292181Y844951D01*
X1292184Y844949D01*
X1481588Y748443D01*
X1683757Y682754D01*
X1893713Y649500D01*
X1893714Y649500D01*
X2106286Y649500D01*
X2106287Y649500D01*
X2316243Y682754D01*
X2518412Y748443D01*
X2707816Y844949D01*
X2729789Y860914D01*
X2879786Y969891D01*
X2879788Y969894D01*
X2879792Y969896D01*
X3030104Y1120208D01*
X3030106Y1120212D01*
X3030109Y1120214D01*
X3155048Y1292180D01*
X3155047Y1292180D01*
X3155051Y1292184D01*
X3251557Y1481588D01*
X3317246Y1683757D01*
X3321846Y1712797D01*
X29498499Y1712797D01*
X29525418Y1577470D01*
X29525421Y1577460D01*
X29578221Y1449988D01*
X29578228Y1449975D01*
X29654885Y1335251D01*
X29654888Y1335247D01*
X29752454Y1237681D01*
X29752458Y1237678D01*
X29867182Y1161021D01*
X29867195Y1161014D01*
X29994667Y1108214D01*
X29994672Y1108212D01*
X29994676Y1108212D01*
X29994677Y1108211D01*
X30130004Y1081292D01*
X30130007Y1081292D01*
X30267995Y1081292D01*
X30372003Y1101981D01*
X30403328Y1108212D01*
X30530811Y1161017D01*
X30645542Y1237678D01*
X30743114Y1335250D01*
X30819775Y1449981D01*
X30872580Y1577464D01*
X30885503Y1642433D01*
X30899500Y1712797D01*
X32498499Y1712797D01*
X32525418Y1577470D01*
X32525421Y1577460D01*
X32578221Y1449988D01*
X32578228Y1449975D01*
X32654885Y1335251D01*
X32654888Y1335247D01*
X32752454Y1237681D01*
X32752458Y1237678D01*
X32867182Y1161021D01*
X32867195Y1161014D01*
X32994667Y1108214D01*
X32994672Y1108212D01*
X32994676Y1108212D01*
X32994677Y1108211D01*
X33130004Y1081292D01*
X33130007Y1081292D01*
X33267995Y1081292D01*
X33372003Y1101981D01*
X33403328Y1108212D01*
X33530811Y1161017D01*
X33645542Y1237678D01*
X33743114Y1335250D01*
X33819775Y1449981D01*
X33872580Y1577464D01*
X33885503Y1642433D01*
X33899500Y1712797D01*
X33899500Y1850788D01*
X33872581Y1986115D01*
X33872580Y1986116D01*
X33872580Y1986120D01*
X33864997Y2004428D01*
X33819778Y2113597D01*
X33819771Y2113610D01*
X33743114Y2228334D01*
X33743111Y2228338D01*
X33645545Y2325904D01*
X33645541Y2325907D01*
X33530817Y2402564D01*
X33530804Y2402571D01*
X33403332Y2455371D01*
X33403322Y2455374D01*
X33267995Y2482292D01*
X33267993Y2482292D01*
X33130007Y2482292D01*
X33130005Y2482292D01*
X32994677Y2455374D01*
X32994667Y2455371D01*
X32867195Y2402571D01*
X32867182Y2402564D01*
X32752458Y2325907D01*
X32752454Y2325904D01*
X32654888Y2228338D01*
X32654885Y2228334D01*
X32578228Y2113610D01*
X32578221Y2113597D01*
X32525421Y1986125D01*
X32525418Y1986115D01*
X32498500Y1850788D01*
X32498500Y1850785D01*
X32498500Y1712799D01*
X32498500Y1712797D01*
X32498499Y1712797D01*
X30899500Y1712797D01*
X30899500Y1850788D01*
X30872581Y1986115D01*
X30872580Y1986116D01*
X30872580Y1986120D01*
X30864997Y2004428D01*
X30819778Y2113597D01*
X30819771Y2113610D01*
X30743114Y2228334D01*
X30743111Y2228338D01*
X30645545Y2325904D01*
X30645541Y2325907D01*
X30530817Y2402564D01*
X30530804Y2402571D01*
X30403332Y2455371D01*
X30403322Y2455374D01*
X30267995Y2482292D01*
X30267993Y2482292D01*
X30130007Y2482292D01*
X30130005Y2482292D01*
X29994677Y2455374D01*
X29994667Y2455371D01*
X29867195Y2402571D01*
X29867182Y2402564D01*
X29752458Y2325907D01*
X29752454Y2325904D01*
X29654888Y2228338D01*
X29654885Y2228334D01*
X29578228Y2113610D01*
X29578221Y2113597D01*
X29525421Y1986125D01*
X29525418Y1986115D01*
X29498500Y1850788D01*
X29498500Y1850785D01*
X29498500Y1712799D01*
X29498500Y1712797D01*
X29498499Y1712797D01*
X3321846Y1712797D01*
X3350500Y1893713D01*
X3350500Y2106287D01*
X3317246Y2316243D01*
X3251557Y2518412D01*
X3155051Y2707816D01*
X3155049Y2707819D01*
X3155048Y2707821D01*
X3030109Y2879787D01*
X2879786Y3030110D01*
X2707820Y3155049D01*
X2518414Y3251556D01*
X2518413Y3251557D01*
X2518412Y3251557D01*
X2316243Y3317246D01*
X2316241Y3317247D01*
X2316240Y3317247D01*
X2154957Y3342792D01*
X2106287Y3350500D01*
X1893713Y3350500D01*
X1845042Y3342792D01*
X1683760Y3317247D01*
X1481585Y3251556D01*
X1292179Y3155049D01*
X1120213Y3030110D01*
X969890Y2879787D01*
X844951Y2707821D01*
X748444Y2518415D01*
X682753Y2316240D01*
X656344Y2149501D01*
X649500Y2106287D01*
X300500Y2106287D01*
X300500Y6950001D01*
X1625000Y6950001D01*
X2019786Y6950001D01*
X2019808Y6950003D01*
X2044869Y6952909D01*
X2044873Y6952910D01*
X2147474Y6998212D01*
X2147479Y6998215D01*
X2226785Y7077521D01*
X2226788Y7077526D01*
X2272089Y7180123D01*
X2272089Y7180125D01*
X2274999Y7205206D01*
X2275000Y7205209D01*
X2275000Y7500000D01*
X1625000Y7500000D01*
X1625000Y6950001D01*
X300500Y6950001D01*
X300500Y7403413D01*
X320185Y7470452D01*
X372989Y7516207D01*
X442147Y7526151D01*
X505703Y7497126D01*
X520809Y7481519D01*
X527640Y7473096D01*
X998083Y7002654D01*
X998090Y7002648D01*
X1008384Y6994296D01*
X1112004Y6951376D01*
X1112007Y6951375D01*
X1124999Y6950020D01*
X1125000Y6950020D01*
X1125000Y7626000D01*
X1144685Y7693039D01*
X1197489Y7738794D01*
X1249000Y7750000D01*
X1375000Y7750000D01*
X1375000Y7876000D01*
X1394685Y7943039D01*
X1447489Y7988794D01*
X1499000Y8000000D01*
X2274999Y8000000D01*
X2274999Y8294786D01*
X2274997Y8294809D01*
X2272091Y8319870D01*
X2272090Y8319874D01*
X2226788Y8422475D01*
X2226785Y8422480D01*
X2147477Y8501788D01*
X2141635Y8505790D01*
X2097453Y8559917D01*
X2089548Y8629338D01*
X2112445Y8682395D01*
X2168796Y8757669D01*
X2219091Y8892517D01*
X2225500Y8952127D01*
X2225499Y9547872D01*
X2219091Y9607483D01*
X2216729Y9613815D01*
X2168797Y9742329D01*
X2168793Y9742336D01*
X2117123Y9811357D01*
X2082546Y9857546D01*
X2024854Y9900735D01*
X1982984Y9956667D01*
X1978000Y10026359D01*
X2011485Y10087682D01*
X2024854Y10099266D01*
X2082546Y10142454D01*
X2168796Y10257669D01*
X2219091Y10392517D01*
X2225500Y10452127D01*
X2225499Y11047872D01*
X2219091Y11107483D01*
X2215320Y11117593D01*
X2168797Y11242329D01*
X2168793Y11242336D01*
X2087305Y11351189D01*
X2062887Y11416653D01*
X2077738Y11484926D01*
X2127143Y11534332D01*
X2186571Y11549500D01*
X3825500Y11549500D01*
X3892539Y11529815D01*
X3938294Y11477011D01*
X3949500Y11425500D01*
X3949500Y9340692D01*
X3970261Y9263208D01*
X3980200Y9226115D01*
X3980201Y9226112D01*
X3991199Y9207064D01*
X4039511Y9123386D01*
X4039513Y9123384D01*
X5310067Y7852830D01*
X5343552Y7791507D01*
X5338568Y7721815D01*
X5296696Y7665882D01*
X5264930Y7650449D01*
X5265369Y7649389D01*
X5257865Y7646282D01*
X5126635Y7570515D01*
X5126632Y7570513D01*
X5019487Y7463368D01*
X5019485Y7463365D01*
X4943719Y7332137D01*
X4911660Y7212489D01*
X4904500Y7185766D01*
X4904500Y7034234D01*
X4915201Y6994296D01*
X4943719Y6887864D01*
X4967935Y6845921D01*
X5019485Y6756635D01*
X5126635Y6649485D01*
X5257865Y6573719D01*
X5404234Y6534500D01*
X5404236Y6534500D01*
X5555764Y6534500D01*
X5555766Y6534500D01*
X5702135Y6573719D01*
X5833365Y6649485D01*
X5940515Y6756635D01*
X6016281Y6887865D01*
X6055500Y7034234D01*
X6055500Y7034243D01*
X6056481Y7041687D01*
X6056791Y7042389D01*
X6056682Y7043147D01*
X6070896Y7074274D01*
X6084748Y7105583D01*
X6085388Y7106006D01*
X6085707Y7106703D01*
X6114509Y7125213D01*
X6143073Y7144053D01*
X6144053Y7144201D01*
X6144485Y7144477D01*
X6179420Y7149500D01*
X6246064Y7149500D01*
X6308063Y7132888D01*
X6387515Y7087016D01*
X6527525Y7049500D01*
X6527528Y7049500D01*
X6672472Y7049500D01*
X6672475Y7049500D01*
X6812485Y7087016D01*
X6938015Y7159491D01*
X7040509Y7261985D01*
X7112984Y7387515D01*
X7150500Y7527525D01*
X7150500Y7672475D01*
X7112984Y7812485D01*
X7104074Y7827917D01*
X7040511Y7938012D01*
X7040506Y7938018D01*
X6938017Y8040507D01*
X6938011Y8040512D01*
X6812488Y8112983D01*
X6812489Y8112983D01*
X6787126Y8119779D01*
X6672475Y8150500D01*
X6527525Y8150500D01*
X6406667Y8118116D01*
X6336817Y8119779D01*
X6286893Y8150210D01*
X5482112Y8954991D01*
X5448627Y9016314D01*
X5453611Y9086006D01*
X5495483Y9141939D01*
X5507782Y9150053D01*
X5547870Y9173197D01*
X5650364Y9275691D01*
X5722839Y9401221D01*
X5760355Y9541231D01*
X5760355Y9617163D01*
X5780040Y9684202D01*
X5796674Y9704844D01*
X6005011Y9913181D01*
X6066334Y9946666D01*
X6092692Y9949500D01*
X7246064Y9949500D01*
X7308063Y9932888D01*
X7387515Y9887016D01*
X7527525Y9849500D01*
X7527528Y9849500D01*
X7672472Y9849500D01*
X7672475Y9849500D01*
X7812485Y9887016D01*
X7938015Y9959491D01*
X8040509Y10061985D01*
X8112984Y10187515D01*
X8150500Y10327525D01*
X8150500Y10472475D01*
X8112984Y10612485D01*
X8112907Y10612618D01*
X8040511Y10738012D01*
X8040510Y10738013D01*
X8040509Y10738015D01*
X7976309Y10802215D01*
X7942825Y10863539D01*
X7947810Y10933230D01*
X7956602Y10951892D01*
X8012984Y11049547D01*
X8050500Y11189557D01*
X8050500Y11268101D01*
X8070185Y11335140D01*
X8086819Y11355782D01*
X8387963Y11656926D01*
X8700474Y11969437D01*
X8700475Y11969438D01*
X8749910Y12055062D01*
X8762705Y12102814D01*
X8775500Y12150564D01*
X8775500Y12249436D01*
X8775500Y13970614D01*
X8795185Y14037653D01*
X8811819Y14058295D01*
X8850999Y14097475D01*
X8915509Y14161985D01*
X8987984Y14287515D01*
X9025500Y14427525D01*
X9025500Y14572475D01*
X8987984Y14712485D01*
X8979597Y14727011D01*
X8915511Y14838012D01*
X8915506Y14838018D01*
X8813017Y14940507D01*
X8813011Y14940512D01*
X8687488Y15012983D01*
X8687489Y15012983D01*
X8676006Y15016060D01*
X8547475Y15050500D01*
X8402525Y15050500D01*
X8273993Y15016060D01*
X8262511Y15012983D01*
X8136988Y14940512D01*
X8136982Y14940507D01*
X8034493Y14838018D01*
X8034488Y14838012D01*
X7962017Y14712489D01*
X7962016Y14712485D01*
X7924500Y14572475D01*
X7924500Y14427525D01*
X7962016Y14287515D01*
X8007887Y14208064D01*
X8024500Y14146065D01*
X8024500Y12406899D01*
X8004815Y12339860D01*
X7988181Y12319218D01*
X7517814Y11848851D01*
X7456491Y11815366D01*
X7430133Y11812532D01*
X7427525Y11812532D01*
X7298993Y11778092D01*
X7287511Y11775015D01*
X7161988Y11702544D01*
X7161982Y11702539D01*
X7059493Y11600050D01*
X7059488Y11600044D01*
X6987017Y11474521D01*
X6987016Y11474517D01*
X6949500Y11334507D01*
X6949500Y11189557D01*
X6986001Y11053336D01*
X6987017Y11049544D01*
X7059488Y10924021D01*
X7059493Y10924015D01*
X7121327Y10862181D01*
X7154812Y10800858D01*
X7149828Y10731166D01*
X7107956Y10675233D01*
X7042492Y10650816D01*
X7033646Y10650500D01*
X5850004Y10650500D01*
X5760860Y10626614D01*
X5760857Y10626613D01*
X5680939Y10580473D01*
X5680934Y10580469D01*
X5300992Y10200525D01*
X5239669Y10167040D01*
X5233431Y10165849D01*
X5223439Y10164206D01*
X5137380Y10164206D01*
X5000675Y10127576D01*
X4994620Y10126580D01*
X4965785Y10130134D01*
X4936743Y10130825D01*
X4931526Y10134356D01*
X4925275Y10135126D01*
X4902939Y10153705D01*
X4878881Y10169988D01*
X4876401Y10175779D01*
X4871558Y10179807D01*
X4862811Y10207514D01*
X4851377Y10234216D01*
X4850677Y10245951D01*
X4850525Y10246435D01*
X4850626Y10246810D01*
X4850500Y10248937D01*
X4850500Y11425500D01*
X4870185Y11492539D01*
X4922989Y11538294D01*
X4974500Y11549500D01*
X6214308Y11549500D01*
X6214309Y11549500D01*
X6304673Y11573714D01*
X6328887Y11580201D01*
X6431614Y11639511D01*
X6623282Y11831181D01*
X6678864Y11863271D01*
X6767485Y11887016D01*
X6893015Y11959491D01*
X6995509Y12061985D01*
X7067984Y12187515D01*
X7105500Y12327525D01*
X7105500Y12472475D01*
X7067984Y12612485D01*
X7066079Y12615784D01*
X6995511Y12738012D01*
X6995506Y12738018D01*
X6893017Y12840507D01*
X6893011Y12840512D01*
X6767488Y12912983D01*
X6767489Y12912983D01*
X6756006Y12916060D01*
X6627475Y12950500D01*
X6482525Y12950500D01*
X6353993Y12916060D01*
X6342511Y12912983D01*
X6241500Y12854663D01*
X6173600Y12838190D01*
X6107573Y12861042D01*
X6064383Y12915963D01*
X6055500Y12962050D01*
X6055500Y12965764D01*
X6055500Y12965766D01*
X6016281Y13112135D01*
X5940515Y13243365D01*
X5833365Y13350515D01*
X5733757Y13408024D01*
X5702136Y13426281D01*
X5628950Y13445891D01*
X5555766Y13465500D01*
X5404234Y13465500D01*
X5257863Y13426281D01*
X5126635Y13350515D01*
X5126632Y13350513D01*
X5019487Y13243368D01*
X5019485Y13243365D01*
X4943719Y13112137D01*
X4907652Y12977528D01*
X4904500Y12965766D01*
X4904500Y12814234D01*
X4942441Y12672634D01*
X4943720Y12667863D01*
X4943720Y12667862D01*
X4961827Y12636500D01*
X4978300Y12568600D01*
X4955447Y12502573D01*
X4900526Y12459382D01*
X4854440Y12450500D01*
X4440689Y12450500D01*
X4432092Y12448196D01*
X4367908Y12448196D01*
X4359310Y12450500D01*
X4359309Y12450500D01*
X2361629Y12450500D01*
X2350111Y12453882D01*
X2338162Y12452741D01*
X2317207Y12463544D01*
X2294590Y12470185D01*
X2285177Y12480056D01*
X2276059Y12484757D01*
X2254242Y12512500D01*
X2236697Y12542889D01*
X2220794Y12591638D01*
X2219091Y12607483D01*
X2219090Y12607485D01*
X2216367Y12614785D01*
X2175119Y12725379D01*
X2168797Y12742329D01*
X2168793Y12742336D01*
X2082547Y12857545D01*
X2082544Y12857548D01*
X1967335Y12943794D01*
X1967328Y12943798D01*
X1832482Y12994092D01*
X1832483Y12994092D01*
X1772883Y13000499D01*
X1772881Y13000500D01*
X1772873Y13000500D01*
X1772864Y13000500D01*
X977129Y13000500D01*
X977123Y13000499D01*
X917516Y12994092D01*
X782671Y12943798D01*
X782664Y12943794D01*
X667455Y12857548D01*
X667452Y12857545D01*
X581206Y12742336D01*
X581202Y12742329D01*
X540682Y12633687D01*
X498811Y12577753D01*
X433347Y12553336D01*
X365074Y12568188D01*
X315668Y12617593D01*
X300500Y12677020D01*
X300500Y17995573D01*
X300816Y18004419D01*
X308102Y18106287D01*
X649500Y18106287D01*
X649500Y17893713D01*
X652752Y17873183D01*
X674713Y17734521D01*
X682754Y17683757D01*
X741377Y17503334D01*
X748444Y17481586D01*
X844951Y17292180D01*
X969890Y17120214D01*
X1120213Y16969891D01*
X1292179Y16844952D01*
X1292181Y16844951D01*
X1292184Y16844949D01*
X1481588Y16748443D01*
X1683757Y16682754D01*
X1893713Y16649500D01*
X1893714Y16649500D01*
X2106286Y16649500D01*
X2106287Y16649500D01*
X2316243Y16682754D01*
X2518412Y16748443D01*
X2707816Y16844949D01*
X2751649Y16876795D01*
X2879786Y16969891D01*
X2879788Y16969894D01*
X2879792Y16969896D01*
X3030104Y17120208D01*
X3030106Y17120212D01*
X3030109Y17120214D01*
X3142130Y17274399D01*
X3155051Y17292184D01*
X3251557Y17481588D01*
X3317246Y17683757D01*
X3330174Y17765379D01*
X6373764Y17765379D01*
X6373764Y17639058D01*
X6373765Y17639032D01*
X6376555Y17603581D01*
X6420644Y17451823D01*
X6420646Y17451818D01*
X6501091Y17315792D01*
X6501098Y17315783D01*
X6612838Y17204043D01*
X6612847Y17204036D01*
X6617822Y17201094D01*
X6748874Y17123590D01*
X6900637Y17079499D01*
X6936101Y17076708D01*
X7062426Y17076709D01*
X7062437Y17076710D01*
X7062440Y17076710D01*
X7065702Y17076967D01*
X7097891Y17079499D01*
X7249654Y17123590D01*
X7385684Y17204038D01*
X7497434Y17315788D01*
X7577882Y17451818D01*
X7621973Y17603581D01*
X7624764Y17639045D01*
X7624763Y17762435D01*
X7973764Y17762435D01*
X7973764Y17636114D01*
X7973765Y17636088D01*
X7976555Y17600637D01*
X8020644Y17448879D01*
X8020646Y17448874D01*
X8101091Y17312848D01*
X8101098Y17312839D01*
X8212838Y17201099D01*
X8212842Y17201096D01*
X8212844Y17201094D01*
X8348874Y17120646D01*
X8500637Y17076555D01*
X8536101Y17073764D01*
X8662426Y17073765D01*
X8662437Y17073766D01*
X8662440Y17073766D01*
X8665702Y17074023D01*
X8697891Y17076555D01*
X8849654Y17120646D01*
X8985684Y17201094D01*
X9097434Y17312844D01*
X9177882Y17448874D01*
X9221973Y17600637D01*
X9224764Y17636101D01*
X9224763Y17762426D01*
X9221973Y17797891D01*
X9177882Y17949654D01*
X9124711Y18039562D01*
X9097436Y18085681D01*
X9097429Y18085690D01*
X8985689Y18197430D01*
X8985680Y18197437D01*
X8849654Y18277882D01*
X8849649Y18277884D01*
X8697897Y18321972D01*
X8697884Y18321974D01*
X8662427Y18324764D01*
X8536113Y18324764D01*
X8536087Y18324763D01*
X8500636Y18321973D01*
X8348878Y18277884D01*
X8348873Y18277882D01*
X8212847Y18197437D01*
X8212838Y18197430D01*
X8101098Y18085690D01*
X8101091Y18085681D01*
X8020646Y17949655D01*
X8020644Y17949650D01*
X7976556Y17797898D01*
X7976554Y17797885D01*
X7973764Y17762435D01*
X7624763Y17762435D01*
X7624763Y17765370D01*
X7621973Y17800835D01*
X7577882Y17952598D01*
X7497434Y18088628D01*
X7497432Y18088630D01*
X7497429Y18088634D01*
X7385689Y18200374D01*
X7385680Y18200381D01*
X7249654Y18280826D01*
X7249649Y18280828D01*
X7097897Y18324916D01*
X7097884Y18324918D01*
X7062427Y18327708D01*
X6936113Y18327708D01*
X6936087Y18327707D01*
X6900636Y18324917D01*
X6748878Y18280828D01*
X6748873Y18280826D01*
X6612847Y18200381D01*
X6612838Y18200374D01*
X6501098Y18088634D01*
X6501091Y18088625D01*
X6420646Y17952599D01*
X6420644Y17952594D01*
X6376556Y17800842D01*
X6376554Y17800829D01*
X6373764Y17765379D01*
X3330174Y17765379D01*
X3350500Y17893713D01*
X3350500Y18106287D01*
X3317246Y18316243D01*
X3251557Y18518412D01*
X3155051Y18707816D01*
X3155049Y18707819D01*
X3155048Y18707821D01*
X3030109Y18879787D01*
X2879786Y19030110D01*
X2707820Y19155049D01*
X2518414Y19251556D01*
X2518413Y19251557D01*
X2518412Y19251557D01*
X2316243Y19317246D01*
X2316241Y19317247D01*
X2316240Y19317247D01*
X2154957Y19342792D01*
X2106287Y19350500D01*
X1893713Y19350500D01*
X1845042Y19342792D01*
X1683760Y19317247D01*
X1481585Y19251556D01*
X1292179Y19155049D01*
X1120213Y19030110D01*
X969890Y18879787D01*
X844951Y18707821D01*
X748444Y18518415D01*
X682753Y18316240D01*
X654706Y18139155D01*
X649500Y18106287D01*
X308102Y18106287D01*
X309083Y18120005D01*
X309083Y18120006D01*
X314620Y18197434D01*
X317165Y18233021D01*
X319683Y18250530D01*
X326274Y18280828D01*
X367459Y18470149D01*
X372436Y18487100D01*
X450985Y18697701D01*
X458325Y18713773D01*
X566044Y18911044D01*
X575600Y18925914D01*
X710294Y19105844D01*
X721868Y19119201D01*
X880799Y19278132D01*
X894156Y19289706D01*
X1074086Y19424400D01*
X1088956Y19433956D01*
X1286227Y19541675D01*
X1302299Y19549015D01*
X1512900Y19627564D01*
X1529851Y19632541D01*
X1749472Y19680318D01*
X1766977Y19682835D01*
X1995582Y19699184D01*
X2004428Y19699500D01*
X2047595Y19699500D01*
X29624249Y19699500D01*
X29691288Y19679815D01*
G37*
%TD.AperFunction*%
%TA.AperFunction,Conductor*%
G36*
X19470282Y14576673D02*
G01*
X19481312Y14566883D01*
X19963181Y14085014D01*
X19996666Y14023691D01*
X19999500Y13997333D01*
X19999500Y11352727D01*
X19999500Y11247273D01*
X20009652Y11209386D01*
X20026793Y11145411D01*
X20053156Y11099750D01*
X20079520Y11054087D01*
X20079522Y11054085D01*
X22313181Y8820426D01*
X22346666Y8759103D01*
X22349500Y8732745D01*
X22349500Y8727525D01*
X22379133Y8616936D01*
X22387017Y8587512D01*
X22459488Y8461989D01*
X22459490Y8461987D01*
X22459491Y8461985D01*
X22561985Y8359491D01*
X22561986Y8359490D01*
X22561988Y8359489D01*
X22687511Y8287018D01*
X22687512Y8287018D01*
X22687515Y8287016D01*
X22827525Y8249500D01*
X22827528Y8249500D01*
X22972472Y8249500D01*
X22972475Y8249500D01*
X23112485Y8287016D01*
X23238015Y8359491D01*
X23340509Y8461985D01*
X23412984Y8587515D01*
X23450500Y8727525D01*
X23450500Y8872475D01*
X23412984Y9012485D01*
X23411886Y9014386D01*
X23340511Y9138012D01*
X23340506Y9138018D01*
X23238017Y9240507D01*
X23238011Y9240512D01*
X23112488Y9312983D01*
X23112489Y9312983D01*
X23101006Y9316060D01*
X22972475Y9350500D01*
X22972472Y9350500D01*
X22967255Y9350500D01*
X22900216Y9370185D01*
X22879574Y9386819D01*
X20836819Y11429574D01*
X20803334Y11490897D01*
X20800500Y11517255D01*
X20800500Y13733745D01*
X20820185Y13800784D01*
X20872989Y13846539D01*
X20942147Y13856483D01*
X21005703Y13827458D01*
X21012181Y13821426D01*
X21223181Y13610426D01*
X21237884Y13583499D01*
X21254477Y13557680D01*
X21255368Y13551480D01*
X21256666Y13549103D01*
X21259500Y13522745D01*
X21259500Y13459386D01*
X21239815Y13392347D01*
X21223181Y13371705D01*
X21219493Y13368018D01*
X21219488Y13368012D01*
X21147017Y13242489D01*
X21147016Y13242485D01*
X21109500Y13102475D01*
X21109500Y12957525D01*
X21141476Y12838190D01*
X21147017Y12817512D01*
X21219488Y12691989D01*
X21219490Y12691987D01*
X21219491Y12691985D01*
X21321985Y12589491D01*
X21321986Y12589490D01*
X21321988Y12589489D01*
X21447511Y12517018D01*
X21447512Y12517018D01*
X21447515Y12517016D01*
X21587525Y12479500D01*
X21587528Y12479500D01*
X21732472Y12479500D01*
X21732475Y12479500D01*
X21872485Y12517016D01*
X21897781Y12531622D01*
X21965681Y12548095D01*
X22031708Y12525244D01*
X22074900Y12470323D01*
X22079557Y12456332D01*
X22093298Y12405049D01*
X22102017Y12372512D01*
X22174488Y12246989D01*
X22174490Y12246987D01*
X22174491Y12246985D01*
X22276985Y12144491D01*
X22276986Y12144490D01*
X22276988Y12144489D01*
X22402511Y12072018D01*
X22402512Y12072018D01*
X22402515Y12072016D01*
X22542525Y12034500D01*
X22542528Y12034500D01*
X22687472Y12034500D01*
X22687475Y12034500D01*
X22827485Y12072016D01*
X22953015Y12144491D01*
X23055509Y12246985D01*
X23127984Y12372515D01*
X23165500Y12512525D01*
X23165500Y12547746D01*
X23185185Y12614785D01*
X23201815Y12635423D01*
X23626819Y13060428D01*
X23688142Y13093912D01*
X23757834Y13088928D01*
X23813767Y13047056D01*
X23838184Y12981592D01*
X23838500Y12972746D01*
X23838500Y12914082D01*
X23838500Y12914080D01*
X23838499Y12914080D01*
X23867340Y12769093D01*
X23867343Y12769083D01*
X23923912Y12632512D01*
X23923919Y12632499D01*
X24006048Y12509585D01*
X24006051Y12509581D01*
X24039949Y12475683D01*
X24073434Y12414360D01*
X24068450Y12344668D01*
X24039949Y12300321D01*
X23967601Y12227974D01*
X23967598Y12227970D01*
X23880052Y12096949D01*
X23880047Y12096939D01*
X23826639Y11968001D01*
X23826639Y11968000D01*
X24379382Y11968000D01*
X24328936Y11917554D01*
X24286149Y11843445D01*
X24264000Y11760787D01*
X24264000Y11675213D01*
X24286149Y11592555D01*
X24328936Y11518446D01*
X24379382Y11468000D01*
X23826639Y11468000D01*
X23880047Y11339062D01*
X23880052Y11339052D01*
X23967598Y11208031D01*
X23967601Y11208027D01*
X24039949Y11135679D01*
X24073434Y11074356D01*
X24068450Y11004664D01*
X24039949Y10960317D01*
X24006051Y10926420D01*
X24006048Y10926416D01*
X23923919Y10803502D01*
X23923912Y10803489D01*
X23867343Y10666918D01*
X23867340Y10666908D01*
X23838500Y10521921D01*
X23838500Y10521918D01*
X23838500Y10374082D01*
X23838500Y10374080D01*
X23838499Y10374080D01*
X23867340Y10229093D01*
X23867343Y10229083D01*
X23923912Y10092512D01*
X23923919Y10092499D01*
X24006048Y9969585D01*
X24006051Y9969581D01*
X24110580Y9865052D01*
X24110588Y9865046D01*
X24155716Y9834892D01*
X24194212Y9793791D01*
X24228506Y9734393D01*
X24228509Y9734389D01*
X24228511Y9734386D01*
X24776386Y9186511D01*
X24879113Y9127201D01*
X24903321Y9120716D01*
X24903324Y9120714D01*
X24903325Y9120714D01*
X24933447Y9112643D01*
X24993691Y9096500D01*
X24993693Y9096500D01*
X26530744Y9096500D01*
X26597783Y9076815D01*
X26643538Y9024011D01*
X26653482Y8954853D01*
X26624457Y8891297D01*
X26618425Y8884819D01*
X26291579Y8557973D01*
X26230256Y8524488D01*
X26160564Y8529472D01*
X26141897Y8538267D01*
X26138016Y8540508D01*
X26138015Y8540509D01*
X26012485Y8612984D01*
X25872475Y8650500D01*
X25727525Y8650500D01*
X25602264Y8616936D01*
X25587511Y8612983D01*
X25461988Y8540512D01*
X25461982Y8540507D01*
X25359493Y8438018D01*
X25359488Y8438012D01*
X25287017Y8312489D01*
X25287016Y8312485D01*
X25249500Y8172475D01*
X25249500Y8027525D01*
X25280460Y7911983D01*
X25287017Y7887512D01*
X25359488Y7761989D01*
X25359490Y7761987D01*
X25359491Y7761985D01*
X25461985Y7659491D01*
X25461986Y7659490D01*
X25461988Y7659489D01*
X25587511Y7587018D01*
X25587512Y7587018D01*
X25587515Y7587016D01*
X25727525Y7549500D01*
X25727528Y7549500D01*
X25872472Y7549500D01*
X25872475Y7549500D01*
X26012485Y7587016D01*
X26138015Y7659491D01*
X26141705Y7663181D01*
X26203028Y7696666D01*
X26229386Y7699500D01*
X26452725Y7699500D01*
X26452727Y7699500D01*
X26554588Y7726793D01*
X26645913Y7779520D01*
X28129573Y9263182D01*
X28190896Y9296666D01*
X28217254Y9299500D01*
X28222472Y9299500D01*
X28222475Y9299500D01*
X28362485Y9337016D01*
X28488015Y9409491D01*
X28590509Y9511985D01*
X28662984Y9637515D01*
X28700500Y9777525D01*
X28700500Y9922475D01*
X28662984Y10062485D01*
X28656955Y10072927D01*
X28590511Y10188012D01*
X28590506Y10188018D01*
X28488017Y10290507D01*
X28488015Y10290509D01*
X28423902Y10327525D01*
X28407718Y10336869D01*
X28359503Y10387437D01*
X28346281Y10456044D01*
X28372249Y10520909D01*
X28382028Y10531927D01*
X28937820Y11087719D01*
X28999142Y11121202D01*
X29068834Y11116218D01*
X29124767Y11074346D01*
X29149184Y11008882D01*
X29149500Y11000036D01*
X29149500Y4476023D01*
X29129815Y4408984D01*
X29077011Y4363229D01*
X29057597Y4356250D01*
X28974371Y4333949D01*
X28974369Y4333949D01*
X28974369Y4333948D01*
X28860243Y4268057D01*
X28860240Y4268055D01*
X27779005Y3186819D01*
X27717682Y3153334D01*
X27691324Y3150500D01*
X25875666Y3150500D01*
X25808627Y3170185D01*
X25762872Y3222989D01*
X25752928Y3292147D01*
X25755891Y3306593D01*
X25761500Y3327525D01*
X25761500Y3472475D01*
X25723984Y3612485D01*
X25699396Y3655072D01*
X25651511Y3738012D01*
X25651506Y3738018D01*
X25549017Y3840507D01*
X25549011Y3840512D01*
X25423488Y3912983D01*
X25423489Y3912983D01*
X25412006Y3916060D01*
X25283475Y3950500D01*
X25138525Y3950500D01*
X25009993Y3916060D01*
X24998511Y3912983D01*
X24872988Y3840512D01*
X24872982Y3840507D01*
X24869295Y3836819D01*
X24807972Y3803334D01*
X24781614Y3800500D01*
X16444535Y3800500D01*
X16377496Y3820185D01*
X16356854Y3836819D01*
X15980419Y4213254D01*
X15946934Y4274577D01*
X15951918Y4344269D01*
X15993790Y4400202D01*
X16004959Y4407655D01*
X16086420Y4455830D01*
X16198170Y4567580D01*
X16278618Y4703610D01*
X16322709Y4855373D01*
X16325500Y4890837D01*
X16325499Y5017162D01*
X16322709Y5052627D01*
X16278618Y5204390D01*
X16207841Y5324068D01*
X16198172Y5340417D01*
X16198165Y5340426D01*
X16086425Y5452166D01*
X16086417Y5452172D01*
X16035527Y5482268D01*
X15987844Y5533337D01*
X15975340Y5602078D01*
X16001985Y5666668D01*
X16035527Y5695732D01*
X16048545Y5703431D01*
X16086420Y5725830D01*
X16198170Y5837580D01*
X16278618Y5973610D01*
X16322709Y6125373D01*
X16325500Y6160837D01*
X16325499Y6287162D01*
X16322709Y6322627D01*
X16278618Y6474390D01*
X16199882Y6607525D01*
X16198172Y6610417D01*
X16198165Y6610426D01*
X16086425Y6722166D01*
X16086417Y6722172D01*
X16035527Y6752268D01*
X15987844Y6803337D01*
X15975340Y6872078D01*
X16001985Y6936668D01*
X16035527Y6965732D01*
X16036653Y6966398D01*
X16086420Y6995830D01*
X16198170Y7107580D01*
X16278618Y7243610D01*
X16322709Y7395373D01*
X16325500Y7430837D01*
X16325499Y7557162D01*
X16322709Y7592627D01*
X16278618Y7744390D01*
X16198170Y7880420D01*
X16198168Y7880422D01*
X16198165Y7880426D01*
X16086425Y7992166D01*
X16086417Y7992172D01*
X16035527Y8022268D01*
X15987844Y8073337D01*
X15975340Y8142078D01*
X16001985Y8206668D01*
X16035527Y8235732D01*
X16048537Y8243426D01*
X16086420Y8265830D01*
X16198170Y8377580D01*
X16278618Y8513610D01*
X16322709Y8665373D01*
X16325500Y8700837D01*
X16325499Y8827162D01*
X16322709Y8862627D01*
X16278618Y9014390D01*
X16198170Y9150420D01*
X16198168Y9150422D01*
X16198165Y9150426D01*
X16086425Y9262166D01*
X16086417Y9262172D01*
X16035527Y9292268D01*
X15987844Y9343337D01*
X15975340Y9412078D01*
X16001985Y9476668D01*
X16020732Y9495463D01*
X16027754Y9501136D01*
X16086420Y9535830D01*
X16152423Y9601834D01*
X16157536Y9605963D01*
X16183966Y9616947D01*
X16209093Y9630666D01*
X16219738Y9631811D01*
X16222057Y9632774D01*
X16224547Y9632328D01*
X16235452Y9633500D01*
X17075500Y9633500D01*
X17142539Y9613815D01*
X17188294Y9561011D01*
X17199500Y9509500D01*
X17199500Y9467927D01*
X17203054Y9454662D01*
X17226793Y9366065D01*
X17240331Y9342618D01*
X17279520Y9274741D01*
X17279522Y9274739D01*
X18063181Y8491080D01*
X18096666Y8429757D01*
X18099500Y8403399D01*
X18099500Y7452727D01*
X18099500Y7347273D01*
X18110091Y7307746D01*
X18126793Y7245411D01*
X18150004Y7205209D01*
X18179520Y7154087D01*
X19814939Y5518669D01*
X19814941Y5518666D01*
X19889508Y5444099D01*
X19919880Y5426564D01*
X19980832Y5391373D01*
X19980833Y5391373D01*
X19980834Y5391372D01*
X20082694Y5364078D01*
X20082696Y5364078D01*
X20195744Y5364078D01*
X20195760Y5364079D01*
X26962189Y5364079D01*
X27029228Y5344394D01*
X27049870Y5327760D01*
X27053560Y5324070D01*
X27053561Y5324069D01*
X27053563Y5324068D01*
X27179086Y5251597D01*
X27179087Y5251597D01*
X27179090Y5251595D01*
X27319100Y5214079D01*
X27319103Y5214079D01*
X27464047Y5214079D01*
X27464050Y5214079D01*
X27604060Y5251595D01*
X27729590Y5324070D01*
X27832084Y5426564D01*
X27904559Y5552094D01*
X27942075Y5692104D01*
X27942075Y5837054D01*
X27904559Y5977064D01*
X27897116Y5989955D01*
X27832086Y6102591D01*
X27832081Y6102597D01*
X27729592Y6205086D01*
X27729586Y6205091D01*
X27604063Y6277562D01*
X27596554Y6280672D01*
X27597860Y6283828D01*
X27551667Y6312018D01*
X27521171Y6374881D01*
X27523689Y6427470D01*
X27550500Y6527525D01*
X27550500Y6672475D01*
X27512984Y6812485D01*
X27491613Y6849500D01*
X27440511Y6938012D01*
X27440506Y6938018D01*
X27338017Y7040507D01*
X27338011Y7040512D01*
X27212488Y7112983D01*
X27212489Y7112983D01*
X27184409Y7120507D01*
X27072475Y7150500D01*
X26927525Y7150500D01*
X26815591Y7120507D01*
X26787511Y7112983D01*
X26661988Y7040512D01*
X26661982Y7040507D01*
X26559493Y6938018D01*
X26559488Y6938012D01*
X26487017Y6812489D01*
X26487016Y6812488D01*
X26481636Y6792406D01*
X26445270Y6732746D01*
X26382423Y6702217D01*
X26361861Y6700500D01*
X23191268Y6700500D01*
X23124229Y6720185D01*
X23078474Y6772989D01*
X23068530Y6842147D01*
X23071490Y6856581D01*
X23090500Y6927525D01*
X23090500Y7072475D01*
X23052984Y7212485D01*
X23046291Y7224077D01*
X22980511Y7338012D01*
X22980506Y7338018D01*
X22878017Y7440507D01*
X22878011Y7440512D01*
X22752488Y7512983D01*
X22752489Y7512983D01*
X22740457Y7516207D01*
X22612475Y7550500D01*
X22612472Y7550500D01*
X22607254Y7550500D01*
X22540215Y7570185D01*
X22519573Y7586819D01*
X21725189Y8381203D01*
X20899329Y9207064D01*
X20853666Y9233428D01*
X20808005Y9259791D01*
X20752205Y9274742D01*
X20706143Y9287084D01*
X20706142Y9287084D01*
X19641733Y9287084D01*
X19574694Y9306769D01*
X19528939Y9359573D01*
X19521960Y9378984D01*
X19512984Y9412485D01*
X19488217Y9455382D01*
X19440511Y9538012D01*
X19440506Y9538018D01*
X19338017Y9640507D01*
X19338011Y9640512D01*
X19212488Y9712983D01*
X19212489Y9712983D01*
X19201006Y9716060D01*
X19072475Y9750500D01*
X18927525Y9750500D01*
X18798993Y9716060D01*
X18787511Y9712983D01*
X18661988Y9640512D01*
X18661982Y9640507D01*
X18559493Y9538018D01*
X18559486Y9538009D01*
X18490050Y9417744D01*
X18439483Y9369529D01*
X18370876Y9356307D01*
X18306011Y9382275D01*
X18294983Y9392064D01*
X18036819Y9650228D01*
X18003334Y9711551D01*
X18000500Y9737909D01*
X18000500Y13270614D01*
X18020185Y13337653D01*
X18036819Y13358295D01*
X18040509Y13361985D01*
X18112984Y13487515D01*
X18150500Y13627525D01*
X18150500Y13772475D01*
X18112984Y13912485D01*
X18070588Y13985916D01*
X18040511Y14038012D01*
X18040506Y14038018D01*
X17938017Y14140507D01*
X17938011Y14140512D01*
X17890204Y14168113D01*
X17841988Y14218680D01*
X17828766Y14287288D01*
X17854734Y14352152D01*
X17911648Y14392680D01*
X17952204Y14399500D01*
X18370614Y14399500D01*
X18437653Y14379815D01*
X18458295Y14363181D01*
X18461985Y14359491D01*
X18461986Y14359490D01*
X18461988Y14359489D01*
X18587511Y14287018D01*
X18587512Y14287018D01*
X18587515Y14287016D01*
X18727525Y14249500D01*
X18727528Y14249500D01*
X18872472Y14249500D01*
X18872475Y14249500D01*
X19012485Y14287016D01*
X19138015Y14359491D01*
X19240509Y14461985D01*
X19286246Y14541205D01*
X19336810Y14589417D01*
X19405417Y14602641D01*
X19470282Y14576673D01*
G37*
%TD.AperFunction*%
%TA.AperFunction,Conductor*%
G36*
X17276784Y15155815D02*
G01*
X17322539Y15103011D01*
X17332483Y15033853D01*
X17303458Y14970297D01*
X17297426Y14963819D01*
X16429522Y14095916D01*
X16429520Y14095913D01*
X16376792Y14004587D01*
X16357725Y13933424D01*
X16349500Y13902730D01*
X16349500Y13108453D01*
X16329815Y13041414D01*
X16277011Y12995659D01*
X16207853Y12985715D01*
X16144297Y13014740D01*
X16137819Y13020772D01*
X16086425Y13072166D01*
X16086416Y13072173D01*
X15950390Y13152618D01*
X15950385Y13152620D01*
X15798633Y13196708D01*
X15798620Y13196710D01*
X15763163Y13199500D01*
X15636849Y13199500D01*
X15636823Y13199499D01*
X15601372Y13196709D01*
X15449614Y13152620D01*
X15449609Y13152618D01*
X15313583Y13072173D01*
X15313574Y13072166D01*
X15201834Y12960426D01*
X15201827Y12960417D01*
X15121382Y12824391D01*
X15121380Y12824386D01*
X15077292Y12672634D01*
X15077290Y12672621D01*
X15074500Y12637171D01*
X15074500Y12510850D01*
X15074501Y12510824D01*
X15077291Y12475373D01*
X15121380Y12323615D01*
X15121382Y12323610D01*
X15201827Y12187584D01*
X15201834Y12187575D01*
X15313574Y12075835D01*
X15313577Y12075833D01*
X15313580Y12075830D01*
X15358102Y12049500D01*
X15364473Y12045732D01*
X15412156Y11994662D01*
X15424659Y11925921D01*
X15398013Y11861331D01*
X15364473Y11832269D01*
X15346245Y11821488D01*
X15313580Y11802170D01*
X15313574Y11802166D01*
X15201834Y11690426D01*
X15201827Y11690417D01*
X15121382Y11554391D01*
X15121380Y11554386D01*
X15077292Y11402634D01*
X15077290Y11402621D01*
X15074500Y11367171D01*
X15074500Y11240850D01*
X15074501Y11240824D01*
X15077291Y11205373D01*
X15121380Y11053615D01*
X15121382Y11053610D01*
X15201827Y10917584D01*
X15201834Y10917575D01*
X15313574Y10805835D01*
X15313577Y10805833D01*
X15313580Y10805830D01*
X15345393Y10787016D01*
X15364473Y10775732D01*
X15412156Y10724662D01*
X15424659Y10655921D01*
X15398013Y10591331D01*
X15364473Y10562268D01*
X15313580Y10532170D01*
X15313574Y10532166D01*
X15201834Y10420426D01*
X15201827Y10420417D01*
X15121382Y10284391D01*
X15121380Y10284386D01*
X15077292Y10132634D01*
X15077290Y10132621D01*
X15074500Y10097171D01*
X15074500Y9970850D01*
X15074501Y9970824D01*
X15077291Y9935373D01*
X15121380Y9783615D01*
X15121382Y9783610D01*
X15201827Y9647584D01*
X15201834Y9647575D01*
X15313574Y9535835D01*
X15313577Y9535833D01*
X15313580Y9535830D01*
X15363350Y9506396D01*
X15364473Y9505732D01*
X15412156Y9454662D01*
X15424659Y9385921D01*
X15398013Y9321331D01*
X15364473Y9292268D01*
X15313580Y9262170D01*
X15313574Y9262166D01*
X15201834Y9150426D01*
X15201827Y9150417D01*
X15121382Y9014391D01*
X15121380Y9014386D01*
X15077292Y8862634D01*
X15077290Y8862621D01*
X15074500Y8827171D01*
X15074500Y8700850D01*
X15074501Y8700824D01*
X15077291Y8665373D01*
X15121380Y8513615D01*
X15121382Y8513610D01*
X15201827Y8377584D01*
X15201834Y8377575D01*
X15313574Y8265835D01*
X15313577Y8265833D01*
X15313580Y8265830D01*
X15364473Y8235732D01*
X15412156Y8184662D01*
X15424659Y8115921D01*
X15398013Y8051331D01*
X15364473Y8022268D01*
X15313580Y7992170D01*
X15313574Y7992166D01*
X15201834Y7880426D01*
X15201827Y7880417D01*
X15121382Y7744391D01*
X15121380Y7744386D01*
X15077292Y7592634D01*
X15077290Y7592621D01*
X15074500Y7557171D01*
X15074500Y7430850D01*
X15074501Y7430824D01*
X15077291Y7395373D01*
X15121380Y7243615D01*
X15121382Y7243610D01*
X15201827Y7107584D01*
X15201834Y7107575D01*
X15313574Y6995835D01*
X15313577Y6995833D01*
X15313580Y6995830D01*
X15363347Y6966398D01*
X15364473Y6965732D01*
X15412156Y6914662D01*
X15424659Y6845921D01*
X15398013Y6781331D01*
X15364473Y6752268D01*
X15313580Y6722170D01*
X15313574Y6722166D01*
X15201834Y6610426D01*
X15201827Y6610417D01*
X15121382Y6474391D01*
X15121380Y6474386D01*
X15077292Y6322634D01*
X15077290Y6322621D01*
X15074500Y6287171D01*
X15074500Y6160850D01*
X15074501Y6160824D01*
X15077291Y6125373D01*
X15121380Y5973615D01*
X15121382Y5973610D01*
X15201827Y5837584D01*
X15201834Y5837575D01*
X15313574Y5725835D01*
X15313577Y5725833D01*
X15313580Y5725830D01*
X15351455Y5703431D01*
X15364473Y5695732D01*
X15412156Y5644662D01*
X15424659Y5575921D01*
X15398013Y5511331D01*
X15364473Y5482268D01*
X15313580Y5452170D01*
X15313574Y5452166D01*
X15201834Y5340426D01*
X15201827Y5340417D01*
X15153666Y5258980D01*
X15102597Y5211296D01*
X15033855Y5198793D01*
X14969266Y5225439D01*
X14959253Y5234420D01*
X11685819Y8507854D01*
X11652334Y8569177D01*
X11649500Y8595535D01*
X11649500Y10662398D01*
X11669185Y10729437D01*
X11721989Y10775192D01*
X11791147Y10785136D01*
X11805573Y10782178D01*
X11927525Y10749500D01*
X11927528Y10749500D01*
X12072472Y10749500D01*
X12072475Y10749500D01*
X12212485Y10787016D01*
X12338015Y10859491D01*
X12440509Y10961985D01*
X12512984Y11087515D01*
X12550500Y11227525D01*
X12550500Y11232745D01*
X12570185Y11299784D01*
X12586819Y11320426D01*
X16405574Y15139181D01*
X16466897Y15172666D01*
X16493255Y15175500D01*
X17209745Y15175500D01*
X17276784Y15155815D01*
G37*
%TD.AperFunction*%
%TA.AperFunction,Conductor*%
G36*
X32531511Y18796637D02*
G01*
X32541595Y18797903D01*
X32564471Y18786959D01*
X32588799Y18779815D01*
X32595452Y18772137D01*
X32604623Y18767749D01*
X32617952Y18746171D01*
X32634554Y18727011D01*
X32636000Y18716953D01*
X32641342Y18708305D01*
X32640889Y18682950D01*
X32644498Y18657853D01*
X32640243Y18646750D01*
X32640095Y18638447D01*
X32624862Y18606609D01*
X32578228Y18536818D01*
X32578221Y18536805D01*
X32525421Y18409333D01*
X32525418Y18409323D01*
X32498500Y18273996D01*
X32498500Y18273993D01*
X32498500Y18136007D01*
X32498500Y18136005D01*
X32498499Y18136005D01*
X32525418Y18000678D01*
X32525421Y18000668D01*
X32578221Y17873196D01*
X32578228Y17873183D01*
X32654885Y17758459D01*
X32654888Y17758455D01*
X32752454Y17660889D01*
X32752458Y17660886D01*
X32867182Y17584229D01*
X32867195Y17584222D01*
X32994667Y17531422D01*
X32994672Y17531420D01*
X32994676Y17531420D01*
X32994677Y17531419D01*
X33130004Y17504500D01*
X33130007Y17504500D01*
X33267995Y17504500D01*
X33380926Y17526964D01*
X33403328Y17531420D01*
X33530811Y17584225D01*
X33645542Y17660886D01*
X33743114Y17758458D01*
X33819775Y17873189D01*
X33872580Y18000672D01*
X33881397Y18045000D01*
X33899500Y18136005D01*
X33899500Y18273996D01*
X33872581Y18409323D01*
X33872580Y18409324D01*
X33872580Y18409328D01*
X33847392Y18470138D01*
X33819778Y18536805D01*
X33819771Y18536818D01*
X33773138Y18606609D01*
X33752260Y18673287D01*
X33770745Y18740667D01*
X33822723Y18787357D01*
X33876240Y18799500D01*
X34482745Y18799500D01*
X34549784Y18779815D01*
X34570426Y18763181D01*
X36329519Y17004088D01*
X36329520Y17004087D01*
X36404087Y16929520D01*
X36495413Y16876793D01*
X36597273Y16849500D01*
X37882745Y16849500D01*
X37949784Y16829815D01*
X37970426Y16813181D01*
X38688087Y16095520D01*
X38779412Y16042793D01*
X38881273Y16015500D01*
X38986727Y16015500D01*
X40448809Y16015500D01*
X40515848Y15995815D01*
X40561603Y15943011D01*
X40572427Y15901229D01*
X40575401Y15863433D01*
X40575402Y15863427D01*
X40621254Y15705607D01*
X40621255Y15705604D01*
X40621256Y15705602D01*
X40704918Y15564136D01*
X40704923Y15564130D01*
X40821129Y15447924D01*
X40821133Y15447921D01*
X40821135Y15447919D01*
X40962602Y15364256D01*
X41004224Y15352164D01*
X41120426Y15318403D01*
X41120429Y15318403D01*
X41120431Y15318402D01*
X41157306Y15315500D01*
X41157314Y15315500D01*
X42988686Y15315500D01*
X42988694Y15315500D01*
X43025569Y15318402D01*
X43025571Y15318403D01*
X43025573Y15318403D01*
X43067191Y15330495D01*
X43183398Y15364256D01*
X43324865Y15447919D01*
X43441081Y15564135D01*
X43468768Y15610953D01*
X43519836Y15658635D01*
X43588578Y15671139D01*
X43653167Y15644494D01*
X43693098Y15587159D01*
X43699500Y15547831D01*
X43699500Y14744170D01*
X43679815Y14677131D01*
X43627011Y14631376D01*
X43557853Y14621432D01*
X43494297Y14650457D01*
X43468768Y14681049D01*
X43441083Y14727862D01*
X43441076Y14727871D01*
X43324870Y14844077D01*
X43324862Y14844083D01*
X43183396Y14927745D01*
X43183393Y14927746D01*
X43025573Y14973598D01*
X43025567Y14973599D01*
X42988701Y14976500D01*
X42988694Y14976500D01*
X41157306Y14976500D01*
X41157298Y14976500D01*
X41120432Y14973599D01*
X41120426Y14973598D01*
X40962606Y14927746D01*
X40962603Y14927745D01*
X40821137Y14844083D01*
X40821129Y14844077D01*
X40704923Y14727871D01*
X40704917Y14727863D01*
X40621255Y14586397D01*
X40621254Y14586394D01*
X40575402Y14428574D01*
X40575401Y14428568D01*
X40572500Y14391702D01*
X40572500Y13360299D01*
X40575401Y13323433D01*
X40580280Y13306641D01*
X40580978Y13239954D01*
X40551128Y13128551D01*
X40549500Y13122475D01*
X40549500Y12977525D01*
X40580712Y12861042D01*
X40587017Y12837512D01*
X40659488Y12711989D01*
X40659490Y12711987D01*
X40659491Y12711985D01*
X40761985Y12609491D01*
X40761986Y12609490D01*
X40761988Y12609489D01*
X40869456Y12547442D01*
X40917672Y12496875D01*
X40930894Y12428268D01*
X40904926Y12363403D01*
X40870578Y12333324D01*
X40821140Y12304087D01*
X40821129Y12304078D01*
X40704923Y12187872D01*
X40704917Y12187864D01*
X40621255Y12046398D01*
X40621254Y12046395D01*
X40575402Y11888575D01*
X40575401Y11888569D01*
X40572500Y11851703D01*
X40572500Y10820300D01*
X40575401Y10783434D01*
X40575402Y10783428D01*
X40621254Y10625608D01*
X40621255Y10625605D01*
X40621256Y10625603D01*
X40647948Y10580469D01*
X40683171Y10520909D01*
X40704919Y10484136D01*
X40789904Y10399151D01*
X40821996Y10343566D01*
X40837015Y10287517D01*
X40837017Y10287512D01*
X40909488Y10161989D01*
X40909493Y10161983D01*
X40958794Y10112682D01*
X40992279Y10051359D01*
X40987295Y9981667D01*
X40958795Y9937320D01*
X40859491Y9838016D01*
X40819049Y9767971D01*
X40799346Y9742293D01*
X40704919Y9647864D01*
X40704915Y9647859D01*
X40621255Y9506396D01*
X40621254Y9506393D01*
X40575402Y9348573D01*
X40575401Y9348567D01*
X40572500Y9311701D01*
X40572500Y8280298D01*
X40575401Y8243432D01*
X40575402Y8243426D01*
X40621254Y8085606D01*
X40621255Y8085603D01*
X40621256Y8085601D01*
X40647923Y8040509D01*
X40676509Y7992172D01*
X40704918Y7944135D01*
X40704923Y7944129D01*
X40821129Y7827923D01*
X40821133Y7827920D01*
X40821135Y7827918D01*
X40962602Y7744255D01*
X40987512Y7737018D01*
X41120426Y7698402D01*
X41120429Y7698402D01*
X41120431Y7698401D01*
X41157306Y7695499D01*
X41157314Y7695499D01*
X42988686Y7695499D01*
X42988694Y7695499D01*
X43025569Y7698401D01*
X43025571Y7698402D01*
X43025573Y7698402D01*
X43067191Y7710494D01*
X43183398Y7744255D01*
X43324865Y7827918D01*
X43441081Y7944134D01*
X43468768Y7990952D01*
X43519836Y8038634D01*
X43588578Y8051138D01*
X43653167Y8024493D01*
X43693098Y7967158D01*
X43699500Y7927830D01*
X43699500Y7124170D01*
X43679815Y7057131D01*
X43627011Y7011376D01*
X43557853Y7001432D01*
X43494297Y7030457D01*
X43468768Y7061049D01*
X43441083Y7107862D01*
X43441076Y7107871D01*
X43324870Y7224077D01*
X43324862Y7224083D01*
X43183396Y7307745D01*
X43183393Y7307746D01*
X43025573Y7353598D01*
X43025567Y7353599D01*
X42988701Y7356500D01*
X42988694Y7356500D01*
X41157306Y7356500D01*
X41157298Y7356500D01*
X41120432Y7353599D01*
X41120426Y7353598D01*
X40962606Y7307746D01*
X40962603Y7307745D01*
X40821137Y7224083D01*
X40821129Y7224077D01*
X40704923Y7107871D01*
X40704916Y7107862D01*
X40677427Y7061379D01*
X40669126Y7053629D01*
X40664408Y7043297D01*
X40644048Y7030213D01*
X40626358Y7013695D01*
X40613663Y7010686D01*
X40605630Y7005523D01*
X40570695Y7000500D01*
X40520249Y7000500D01*
X40488157Y7004725D01*
X40460966Y7012011D01*
X40460964Y7012011D01*
X40347165Y7012011D01*
X40280126Y7031696D01*
X40259484Y7048330D01*
X34617143Y12690671D01*
X34583658Y12751994D01*
X34582840Y12756081D01*
X34581973Y12760829D01*
X34581973Y12760835D01*
X34577712Y12775500D01*
X34537883Y12912594D01*
X34537882Y12912598D01*
X34519432Y12943796D01*
X34477032Y13015492D01*
X34459764Y13078612D01*
X34459764Y14306626D01*
X34459764Y14306628D01*
X34425656Y14433922D01*
X34359764Y14548050D01*
X34266578Y14641236D01*
X33886819Y15020995D01*
X33853334Y15082318D01*
X33850500Y15108676D01*
X33850500Y15365687D01*
X33850499Y15365702D01*
X33847598Y15402568D01*
X33847597Y15402574D01*
X33801745Y15560394D01*
X33801744Y15560398D01*
X33776352Y15603334D01*
X33767768Y15617850D01*
X33750500Y15680970D01*
X33750500Y16232712D01*
X33759941Y16280169D01*
X33762982Y16287512D01*
X33762981Y16287512D01*
X33762984Y16287515D01*
X33800500Y16427525D01*
X33800500Y16572475D01*
X33762984Y16712485D01*
X33752978Y16729815D01*
X33690511Y16838012D01*
X33690506Y16838018D01*
X33588017Y16940507D01*
X33588011Y16940512D01*
X33462488Y17012983D01*
X33462489Y17012983D01*
X33451006Y17016060D01*
X33322475Y17050500D01*
X33177525Y17050500D01*
X33048993Y17016060D01*
X33037511Y17012983D01*
X32984628Y16982450D01*
X32916728Y16965977D01*
X32850701Y16988829D01*
X32834947Y17002156D01*
X32276616Y17560487D01*
X32276614Y17560489D01*
X32225250Y17590144D01*
X32173888Y17619799D01*
X32161780Y17623043D01*
X32149673Y17626287D01*
X32149670Y17626288D01*
X32102086Y17639038D01*
X32059309Y17650500D01*
X32059308Y17650500D01*
X30902967Y17650500D01*
X30835928Y17670185D01*
X30790173Y17722989D01*
X30780229Y17792147D01*
X30799865Y17843391D01*
X30807897Y17855412D01*
X30819775Y17873189D01*
X30872580Y18000672D01*
X30881397Y18045000D01*
X30899500Y18136005D01*
X30899500Y18273996D01*
X30872581Y18409323D01*
X30872580Y18409324D01*
X30872580Y18409328D01*
X30847392Y18470138D01*
X30819778Y18536805D01*
X30819771Y18536818D01*
X30773138Y18606609D01*
X30752260Y18673287D01*
X30770745Y18740667D01*
X30822723Y18787357D01*
X30876240Y18799500D01*
X32521760Y18799500D01*
X32531511Y18796637D01*
G37*
%TD.AperFunction*%
%TA.AperFunction,Conductor*%
G36*
X27042539Y14779815D02*
G01*
X27088294Y14727011D01*
X27099500Y14675500D01*
X27099500Y12117256D01*
X27079815Y12050217D01*
X27063181Y12029575D01*
X26809380Y11775775D01*
X26748057Y11742290D01*
X26678365Y11747274D01*
X26622432Y11789146D01*
X26600082Y11839265D01*
X26589489Y11892517D01*
X26580658Y11936913D01*
X26580656Y11936918D01*
X26524087Y12073489D01*
X26524080Y12073502D01*
X26441951Y12196416D01*
X26441948Y12196420D01*
X26373049Y12265319D01*
X26339564Y12326642D01*
X26344548Y12396334D01*
X26373049Y12440681D01*
X26441948Y12509581D01*
X26441951Y12509584D01*
X26524084Y12632505D01*
X26580658Y12769087D01*
X26598254Y12857546D01*
X26609500Y12914080D01*
X26609500Y13061921D01*
X26580659Y13206908D01*
X26580658Y13206909D01*
X26580658Y13206913D01*
X26562945Y13249677D01*
X26524087Y13343489D01*
X26524080Y13343502D01*
X26441951Y13466416D01*
X26441948Y13466420D01*
X26337419Y13570949D01*
X26337413Y13570954D01*
X26314608Y13586192D01*
X26269804Y13639804D01*
X26259500Y13689293D01*
X26259500Y13693725D01*
X26259500Y13693727D01*
X26232207Y13795587D01*
X26179480Y13886913D01*
X26104913Y13961480D01*
X25845913Y14220480D01*
X25770478Y14264033D01*
X25754589Y14273207D01*
X25701189Y14287515D01*
X25652727Y14300500D01*
X23847273Y14300500D01*
X23745413Y14273207D01*
X23745412Y14273207D01*
X23745410Y14273206D01*
X23745407Y14273205D01*
X23703845Y14249208D01*
X23703844Y14249207D01*
X23689380Y14240856D01*
X23654088Y14220481D01*
X23654085Y14220479D01*
X22602330Y13168724D01*
X22591128Y13161831D01*
X22585029Y13154313D01*
X22560517Y13142992D01*
X22553415Y13138621D01*
X22543932Y13135500D01*
X22542525Y13135500D01*
X22402515Y13097984D01*
X22366142Y13076985D01*
X22353982Y13072982D01*
X22331334Y13072249D01*
X22309314Y13066907D01*
X22297084Y13071140D01*
X22284149Y13070721D01*
X22264700Y13082349D01*
X22243287Y13089760D01*
X22235286Y13099934D01*
X22224180Y13106574D01*
X22214104Y13126871D01*
X22200098Y13144682D01*
X22195445Y13158659D01*
X22172984Y13242485D01*
X22172474Y13243368D01*
X22100511Y13368012D01*
X22100506Y13368018D01*
X22096819Y13371705D01*
X22063334Y13433028D01*
X22060500Y13459386D01*
X22060500Y13792724D01*
X22060500Y13792727D01*
X22043101Y13857662D01*
X22039685Y13870413D01*
X22039685Y13870414D01*
X22033207Y13894587D01*
X22033207Y13894588D01*
X22010786Y13933422D01*
X21980480Y13985913D01*
X21378575Y14587818D01*
X21367964Y14607251D01*
X21353462Y14623986D01*
X21351544Y14637320D01*
X21345090Y14649141D01*
X21346669Y14671227D01*
X21343518Y14693145D01*
X21349113Y14705398D01*
X21350074Y14718833D01*
X21363343Y14736559D01*
X21372542Y14756701D01*
X21383874Y14763985D01*
X21391946Y14774766D01*
X21412690Y14782504D01*
X21431320Y14794476D01*
X21453239Y14797628D01*
X21457410Y14799183D01*
X21466255Y14799499D01*
X21552727Y14799499D01*
X21552730Y14799500D01*
X21560338Y14799500D01*
X26975500Y14799500D01*
X27042539Y14779815D01*
G37*
%TD.AperFunction*%
%TA.AperFunction,Conductor*%
G36*
X42004418Y19699184D02*
G01*
X42233020Y19682835D01*
X42250529Y19680317D01*
X42470144Y19632542D01*
X42487103Y19627563D01*
X42697694Y19549017D01*
X42713777Y19541673D01*
X42911036Y19433960D01*
X42925919Y19424395D01*
X43105836Y19289711D01*
X43119207Y19278125D01*
X43278124Y19119208D01*
X43289710Y19105837D01*
X43424394Y18925920D01*
X43433959Y18911037D01*
X43541669Y18713783D01*
X43549019Y18697689D01*
X43627559Y18487113D01*
X43632543Y18470138D01*
X43680316Y18250530D01*
X43682834Y18233018D01*
X43699184Y18004419D01*
X43699500Y17995573D01*
X43699500Y17284170D01*
X43679815Y17217131D01*
X43627011Y17171376D01*
X43557853Y17161432D01*
X43494297Y17190457D01*
X43468768Y17221049D01*
X43441083Y17267862D01*
X43441076Y17267871D01*
X43324870Y17384077D01*
X43324862Y17384083D01*
X43222702Y17444500D01*
X43183398Y17467744D01*
X43183397Y17467745D01*
X43183396Y17467745D01*
X43183393Y17467746D01*
X43025573Y17513598D01*
X43025567Y17513599D01*
X42988701Y17516500D01*
X42988694Y17516500D01*
X41157306Y17516500D01*
X41157298Y17516500D01*
X41120432Y17513599D01*
X41120426Y17513598D01*
X40962606Y17467746D01*
X40962603Y17467745D01*
X40821137Y17384083D01*
X40821129Y17384077D01*
X40704923Y17267871D01*
X40704917Y17267863D01*
X40621255Y17126397D01*
X40621254Y17126394D01*
X40575402Y16968574D01*
X40575401Y16968568D01*
X40572427Y16930771D01*
X40547543Y16865482D01*
X40491312Y16824012D01*
X40448809Y16816500D01*
X39151255Y16816500D01*
X39121814Y16825145D01*
X39091828Y16831668D01*
X39086812Y16835423D01*
X39084216Y16836185D01*
X39063574Y16852819D01*
X38973073Y16943320D01*
X38939588Y17004643D01*
X38944572Y17074335D01*
X38986444Y17130268D01*
X39051908Y17154685D01*
X39060754Y17155001D01*
X39124998Y17155001D01*
X39124999Y17155002D01*
X39124999Y17168544D01*
X39624999Y17168544D01*
X39764394Y17211981D01*
X39909876Y17299928D01*
X40030071Y17420123D01*
X40118018Y17565605D01*
X40168589Y17727894D01*
X40174999Y17798428D01*
X40174999Y17805000D01*
X39624999Y17805000D01*
X39624999Y17168544D01*
X39124999Y17168544D01*
X39124999Y18305000D01*
X39624999Y18305000D01*
X40174998Y18305000D01*
X40174998Y18311583D01*
X40168590Y18382103D01*
X40168589Y18382108D01*
X40118017Y18544397D01*
X40030071Y18689878D01*
X39909876Y18810073D01*
X39764395Y18898019D01*
X39764394Y18898020D01*
X39624999Y18941458D01*
X39624999Y18305000D01*
X39124999Y18305000D01*
X39124999Y18955000D01*
X38830213Y18955000D01*
X38830190Y18954998D01*
X38805129Y18952092D01*
X38805126Y18952091D01*
X38704414Y18907623D01*
X38635135Y18898552D01*
X38630137Y18899441D01*
X38599677Y18905500D01*
X38599675Y18905500D01*
X37909307Y18905500D01*
X37909299Y18905500D01*
X37872433Y18902599D01*
X37872427Y18902598D01*
X37714607Y18856746D01*
X37714604Y18856745D01*
X37573138Y18773083D01*
X37573130Y18773077D01*
X37456924Y18656871D01*
X37456918Y18656863D01*
X37373256Y18515397D01*
X37373255Y18515394D01*
X37327403Y18357574D01*
X37327402Y18357568D01*
X37324501Y18320702D01*
X37324501Y17789290D01*
X37324900Y17784235D01*
X37310539Y17715857D01*
X37261490Y17666098D01*
X37201283Y17650500D01*
X36867255Y17650500D01*
X36800216Y17670185D01*
X36779574Y17686819D01*
X34978574Y19487819D01*
X34945089Y19549142D01*
X34950073Y19618834D01*
X34991945Y19674767D01*
X35057409Y19699184D01*
X35066255Y19699500D01*
X41952405Y19699500D01*
X41995572Y19699500D01*
X42004418Y19699184D01*
G37*
%TD.AperFunction*%
M02*
