%TF.GenerationSoftware,KiCad,Pcbnew,9.0.6*%
%TF.CreationDate,2025-11-07T09:00:52+05:30*%
%TF.ProjectId,ESPNut-D1,4553504e-7574-42d4-9431-2e6b69636164,0.4*%
%TF.SameCoordinates,Original*%
%TF.FileFunction,Copper,L1,Top*%
%TF.FilePolarity,Positive*%
%FSLAX46Y46*%
G04 Gerber Fmt 4.6, Leading zero omitted, Abs format (unit mm)*
G04 Created by KiCad (PCBNEW 9.0.6) date 2025-11-07 09:00:52*
%MOMM*%
%LPD*%
G01*
G04 APERTURE LIST*
G04 Aperture macros list*
%AMRoundRect*
0 Rectangle with rounded corners*
0 $1 Rounding radius*
0 $2 $3 $4 $5 $6 $7 $8 $9 X,Y pos of 4 corners*
0 Add a 4 corners polygon primitive as box body*
4,1,4,$2,$3,$4,$5,$6,$7,$8,$9,$2,$3,0*
0 Add four circle primitives for the rounded corners*
1,1,$1+$1,$2,$3*
1,1,$1+$1,$4,$5*
1,1,$1+$1,$6,$7*
1,1,$1+$1,$8,$9*
0 Add four rect primitives between the rounded corners*
20,1,$1+$1,$2,$3,$4,$5,0*
20,1,$1+$1,$4,$5,$6,$7,0*
20,1,$1+$1,$6,$7,$8,$9,0*
20,1,$1+$1,$8,$9,$2,$3,0*%
%AMOutline5P*
0 Free polygon, 5 corners , with rotation*
0 The origin of the aperture is its center*
0 number of corners: always 5*
0 $1 to $10 corner X, Y*
0 $11 Rotation angle, in degrees counterclockwise*
0 create outline with 5 corners*
4,1,5,$1,$2,$3,$4,$5,$6,$7,$8,$9,$10,$1,$2,$11*%
%AMOutline6P*
0 Free polygon, 6 corners , with rotation*
0 The origin of the aperture is its center*
0 number of corners: always 6*
0 $1 to $12 corner X, Y*
0 $13 Rotation angle, in degrees counterclockwise*
0 create outline with 6 corners*
4,1,6,$1,$2,$3,$4,$5,$6,$7,$8,$9,$10,$11,$12,$1,$2,$13*%
%AMOutline7P*
0 Free polygon, 7 corners , with rotation*
0 The origin of the aperture is its center*
0 number of corners: always 7*
0 $1 to $14 corner X, Y*
0 $15 Rotation angle, in degrees counterclockwise*
0 create outline with 7 corners*
4,1,7,$1,$2,$3,$4,$5,$6,$7,$8,$9,$10,$11,$12,$13,$14,$1,$2,$15*%
%AMOutline8P*
0 Free polygon, 8 corners , with rotation*
0 The origin of the aperture is its center*
0 number of corners: always 8*
0 $1 to $16 corner X, Y*
0 $17 Rotation angle, in degrees counterclockwise*
0 create outline with 8 corners*
4,1,8,$1,$2,$3,$4,$5,$6,$7,$8,$9,$10,$11,$12,$13,$14,$15,$16,$1,$2,$17*%
%AMFreePoly0*
4,1,15,-0.500000,0.200000,-0.480423,0.323607,-0.423607,0.435114,-0.335114,0.523607,-0.223607,0.580423,-0.100000,0.600000,0.500000,0.600000,0.500000,-0.600000,-0.100000,-0.600000,-0.223607,-0.580423,-0.335114,-0.523607,-0.423607,-0.435114,-0.480423,-0.323607,-0.500000,-0.200000,-0.500000,0.200000,-0.500000,0.200000,$1*%
%AMFreePoly1*
4,1,15,-0.500000,0.600000,0.100000,0.600000,0.223607,0.580423,0.335114,0.523607,0.423607,0.435114,0.480423,0.323607,0.500000,0.200000,0.500000,-0.200000,0.480423,-0.323607,0.423607,-0.435114,0.335114,-0.523607,0.223607,-0.580423,0.100000,-0.600000,-0.500000,-0.600000,-0.500000,0.600000,-0.500000,0.600000,$1*%
G04 Aperture macros list end*
%TA.AperFunction,SMDPad,CuDef*%
%ADD10R,1.000000X0.800000*%
%TD*%
%TA.AperFunction,SMDPad,CuDef*%
%ADD11R,0.700000X1.500000*%
%TD*%
%TA.AperFunction,SMDPad,CuDef*%
%ADD12RoundRect,0.135000X0.185000X-0.135000X0.185000X0.135000X-0.185000X0.135000X-0.185000X-0.135000X0*%
%TD*%
%TA.AperFunction,SMDPad,CuDef*%
%ADD13RoundRect,0.135000X-0.135000X-0.185000X0.135000X-0.185000X0.135000X0.185000X-0.135000X0.185000X0*%
%TD*%
%TA.AperFunction,SMDPad,CuDef*%
%ADD14RoundRect,0.150000X-0.825000X-0.150000X0.825000X-0.150000X0.825000X0.150000X-0.825000X0.150000X0*%
%TD*%
%TA.AperFunction,SMDPad,CuDef*%
%ADD15Outline6P,-0.290000X0.117000X-0.087000X0.320000X0.290000X0.320000X0.290000X-0.320000X-0.087000X-0.320000X-0.290000X-0.117000X0.000000*%
%TD*%
%TA.AperFunction,SMDPad,CuDef*%
%ADD16R,0.500000X0.640000*%
%TD*%
%TA.AperFunction,SMDPad,CuDef*%
%ADD17R,0.580000X0.640000*%
%TD*%
%TA.AperFunction,SMDPad,CuDef*%
%ADD18RoundRect,0.150000X-0.512500X-0.150000X0.512500X-0.150000X0.512500X0.150000X-0.512500X0.150000X0*%
%TD*%
%TA.AperFunction,SMDPad,CuDef*%
%ADD19FreePoly0,90.000000*%
%TD*%
%TA.AperFunction,SMDPad,CuDef*%
%ADD20FreePoly1,90.000000*%
%TD*%
%TA.AperFunction,SMDPad,CuDef*%
%ADD21RoundRect,0.250000X-0.250000X-0.475000X0.250000X-0.475000X0.250000X0.475000X-0.250000X0.475000X0*%
%TD*%
%TA.AperFunction,SMDPad,CuDef*%
%ADD22RoundRect,0.140000X0.140000X0.170000X-0.140000X0.170000X-0.140000X-0.170000X0.140000X-0.170000X0*%
%TD*%
%TA.AperFunction,SMDPad,CuDef*%
%ADD23R,0.400000X1.900000*%
%TD*%
%TA.AperFunction,SMDPad,CuDef*%
%ADD24RoundRect,0.135000X-0.185000X0.135000X-0.185000X-0.135000X0.185000X-0.135000X0.185000X0.135000X0*%
%TD*%
%TA.AperFunction,SMDPad,CuDef*%
%ADD25R,0.510000X0.400000*%
%TD*%
%TA.AperFunction,SMDPad,CuDef*%
%ADD26RoundRect,0.135000X0.135000X0.185000X-0.135000X0.185000X-0.135000X-0.185000X0.135000X-0.185000X0*%
%TD*%
%TA.AperFunction,SMDPad,CuDef*%
%ADD27RoundRect,0.140000X-0.140000X-0.170000X0.140000X-0.170000X0.140000X0.170000X-0.140000X0.170000X0*%
%TD*%
%TA.AperFunction,SMDPad,CuDef*%
%ADD28RoundRect,0.218750X-0.218750X-0.256250X0.218750X-0.256250X0.218750X0.256250X-0.218750X0.256250X0*%
%TD*%
%TA.AperFunction,SMDPad,CuDef*%
%ADD29R,1.000000X0.700000*%
%TD*%
%TA.AperFunction,SMDPad,CuDef*%
%ADD30R,0.600000X0.700000*%
%TD*%
%TA.AperFunction,SMDPad,CuDef*%
%ADD31RoundRect,0.250000X0.400000X0.275000X-0.400000X0.275000X-0.400000X-0.275000X0.400000X-0.275000X0*%
%TD*%
%TA.AperFunction,SMDPad,CuDef*%
%ADD32R,1.150000X1.700000*%
%TD*%
%TA.AperFunction,SMDPad,CuDef*%
%ADD33RoundRect,0.140000X0.170000X-0.140000X0.170000X0.140000X-0.170000X0.140000X-0.170000X-0.140000X0*%
%TD*%
%TA.AperFunction,SMDPad,CuDef*%
%ADD34RoundRect,0.150000X-0.425000X0.150000X-0.425000X-0.150000X0.425000X-0.150000X0.425000X0.150000X0*%
%TD*%
%TA.AperFunction,SMDPad,CuDef*%
%ADD35RoundRect,0.075000X-0.500000X0.075000X-0.500000X-0.075000X0.500000X-0.075000X0.500000X0.075000X0*%
%TD*%
%TA.AperFunction,SMDPad,CuDef*%
%ADD36RoundRect,0.250000X-0.750000X0.840000X-0.750000X-0.840000X0.750000X-0.840000X0.750000X0.840000X0*%
%TD*%
%TA.AperFunction,ComponentPad*%
%ADD37R,1.000000X1.000000*%
%TD*%
%TA.AperFunction,ComponentPad*%
%ADD38O,1.000000X1.000000*%
%TD*%
%TA.AperFunction,SMDPad,CuDef*%
%ADD39FreePoly0,180.000000*%
%TD*%
%TA.AperFunction,SMDPad,CuDef*%
%ADD40FreePoly1,180.000000*%
%TD*%
%TA.AperFunction,SMDPad,CuDef*%
%ADD41C,0.750000*%
%TD*%
%TA.AperFunction,SMDPad,CuDef*%
%ADD42RoundRect,0.150000X0.625000X-0.150000X0.625000X0.150000X-0.625000X0.150000X-0.625000X-0.150000X0*%
%TD*%
%TA.AperFunction,SMDPad,CuDef*%
%ADD43RoundRect,0.250000X0.650000X-0.350000X0.650000X0.350000X-0.650000X0.350000X-0.650000X-0.350000X0*%
%TD*%
%TA.AperFunction,SMDPad,CuDef*%
%ADD44Outline6P,-0.290000X0.117000X-0.087000X0.320000X0.290000X0.320000X0.290000X-0.320000X-0.087000X-0.320000X-0.290000X-0.117000X270.000000*%
%TD*%
%TA.AperFunction,SMDPad,CuDef*%
%ADD45R,0.640000X0.500000*%
%TD*%
%TA.AperFunction,SMDPad,CuDef*%
%ADD46R,0.640000X0.580000*%
%TD*%
%TA.AperFunction,SMDPad,CuDef*%
%ADD47RoundRect,0.150000X0.150000X0.200000X-0.150000X0.200000X-0.150000X-0.200000X0.150000X-0.200000X0*%
%TD*%
%TA.AperFunction,SMDPad,CuDef*%
%ADD48RoundRect,0.140000X-0.170000X0.140000X-0.170000X-0.140000X0.170000X-0.140000X0.170000X0.140000X0*%
%TD*%
%TA.AperFunction,ViaPad*%
%ADD49C,0.600000*%
%TD*%
%TA.AperFunction,Conductor*%
%ADD50C,0.450000*%
%TD*%
%TA.AperFunction,Conductor*%
%ADD51C,0.600000*%
%TD*%
%TA.AperFunction,Conductor*%
%ADD52C,0.300000*%
%TD*%
%TA.AperFunction,Conductor*%
%ADD53C,0.400000*%
%TD*%
%TA.AperFunction,Conductor*%
%ADD54C,0.500000*%
%TD*%
%TA.AperFunction,Conductor*%
%ADD55C,0.250000*%
%TD*%
%TA.AperFunction,Conductor*%
%ADD56C,0.200000*%
%TD*%
G04 APERTURE END LIST*
D10*
X35349000Y17095000D03*
X35349000Y19305000D03*
X28049000Y17095000D03*
X28049000Y19305000D03*
D11*
X33949000Y16445000D03*
X30949000Y16445000D03*
X29449000Y16445000D03*
D12*
X28405000Y4779002D03*
X28405000Y5799000D03*
D13*
X21245001Y11115000D03*
X22264999Y11115000D03*
D14*
X10750000Y13844000D03*
X10750000Y12574000D03*
X10750000Y11304000D03*
X10750000Y10034000D03*
X10750000Y8764000D03*
X10750000Y7494000D03*
X10750000Y6224000D03*
X10750000Y4954000D03*
X15700000Y4954000D03*
X15700000Y6224000D03*
X15700000Y7494000D03*
X15700000Y8764000D03*
X15700000Y10034000D03*
X15700000Y11304000D03*
X15700000Y12574000D03*
X15700000Y13844000D03*
D13*
X4625000Y17655000D03*
X5645000Y17655000D03*
D15*
X19070000Y6680000D03*
D16*
X19760000Y6680000D03*
D17*
X20450000Y6680000D03*
D12*
X27391575Y4744581D03*
X27391575Y5764579D03*
D18*
X23397500Y5269000D03*
X23397500Y4319000D03*
X23397500Y3369000D03*
X25672500Y3369000D03*
X25672500Y5269000D03*
D19*
X24750000Y17435001D03*
D20*
X24750000Y18734999D03*
D21*
X35075000Y5585000D03*
X36975000Y5585000D03*
D22*
X10955000Y17305000D03*
X9995000Y17305000D03*
D23*
X14230000Y2640000D03*
X13030000Y2640000D03*
X11830000Y2640000D03*
D24*
X17605000Y14684000D03*
X17605000Y13664000D03*
D25*
X24284999Y7760000D03*
X24284999Y8760000D03*
X22995000Y8260000D03*
D26*
X36534999Y7400000D03*
X35515001Y7400000D03*
D21*
X10275000Y15695000D03*
X12175000Y15695000D03*
D27*
X21655000Y1544000D03*
X22615000Y1544000D03*
D12*
X8475000Y15075000D03*
X8475000Y16095000D03*
D25*
X18820000Y13393000D03*
X18820000Y12393000D03*
X20110000Y12893000D03*
D28*
X18227500Y8415000D03*
X19802500Y8415000D03*
D29*
X8725000Y1305000D03*
D30*
X10425000Y1305000D03*
X10425000Y3305000D03*
X8525000Y3305000D03*
D31*
X20185000Y5125000D03*
X18235000Y5125000D03*
D10*
X28049000Y2891792D03*
X28049000Y681792D03*
X35349000Y2891792D03*
X35349000Y681792D03*
D11*
X29449000Y3541792D03*
X32449000Y3541792D03*
X33949000Y3541792D03*
D32*
X42199000Y1960000D03*
X37849000Y1960000D03*
D33*
X16365000Y1524000D03*
X16365000Y2484000D03*
D34*
X6555000Y13200000D03*
X6555000Y12400000D03*
D35*
X6555000Y11250000D03*
X6555000Y10250000D03*
X6555000Y9750000D03*
X6555000Y8750000D03*
D34*
X6555000Y7600000D03*
X6555000Y6800000D03*
X6555000Y6800000D03*
X6555000Y7600000D03*
D35*
X6555000Y8250000D03*
X6555000Y9250000D03*
X6555000Y10750000D03*
X6555000Y11750000D03*
D34*
X6555000Y12400000D03*
X6555000Y13200000D03*
D36*
X5980000Y15110000D03*
X2050000Y15110000D03*
X5980000Y4890000D03*
X2050000Y4890000D03*
D37*
X25859000Y10448000D03*
D38*
X24589000Y10448000D03*
X25859000Y11718000D03*
X24589000Y11718000D03*
X25859000Y12988000D03*
X24589000Y12988000D03*
D28*
X32286500Y12659000D03*
X33861500Y12659000D03*
D13*
X23245000Y6745000D03*
X24264998Y6745000D03*
D32*
X17565000Y18150000D03*
X13215000Y18150000D03*
D39*
X30859999Y7200000D03*
D40*
X29560001Y7200000D03*
D12*
X20745000Y17575001D03*
X20745000Y18594999D03*
D25*
X18820000Y15704000D03*
X18820000Y14704000D03*
X20110000Y15204000D03*
D32*
X42199000Y18040000D03*
X37849000Y18040000D03*
D28*
X7017500Y17705000D03*
X8592500Y17705000D03*
X18227500Y10205000D03*
X19802500Y10205000D03*
D41*
X36200000Y14000000D03*
D42*
X38896999Y7500000D03*
X38897000Y8500000D03*
X38897000Y9500000D03*
X38897000Y10500000D03*
X38897000Y11500000D03*
X38896999Y12500000D03*
D43*
X42772000Y6200000D03*
X42772000Y13800000D03*
D13*
X29369000Y12659000D03*
X30389000Y12659000D03*
D24*
X6725000Y2514000D03*
X6725000Y1494000D03*
D44*
X21719998Y8530000D03*
D45*
X21719998Y7840000D03*
D46*
X21719998Y7150000D03*
D19*
X22375000Y17435001D03*
D20*
X22375000Y18734999D03*
D12*
X17605000Y11465000D03*
X17605000Y12485000D03*
D22*
X9195000Y13174000D03*
X8235000Y13174000D03*
D47*
X21460000Y12930000D03*
X22860000Y12930000D03*
D48*
X21685000Y3464000D03*
X21685000Y2504000D03*
D18*
X18047500Y3444000D03*
X18047500Y2494000D03*
X18047500Y1544000D03*
X20322500Y1544000D03*
X20322500Y3444000D03*
D12*
X26385000Y17575001D03*
X26385000Y18594999D03*
D49*
X10000000Y16700000D03*
X17400000Y6200000D03*
X40800000Y18200000D03*
X23600000Y16200000D03*
X26000000Y16200000D03*
X23800000Y1600000D03*
X23400000Y11000000D03*
X9700000Y15000000D03*
X4600000Y2000000D03*
X19000000Y19000000D03*
X36600000Y12400000D03*
X38800000Y14800000D03*
X28000000Y4000000D03*
X4600000Y1000000D03*
X12400000Y10000000D03*
X12400000Y8400000D03*
X37400000Y7400000D03*
X9700000Y15600000D03*
X10600000Y19000000D03*
X19000000Y17000000D03*
X23600000Y19000000D03*
X16000000Y17000000D03*
X12200000Y4400000D03*
X19200000Y4200000D03*
X39600000Y14800000D03*
X40800000Y19000000D03*
X5980000Y15110000D03*
X22200000Y4400000D03*
X25400000Y16200000D03*
X4600000Y19000000D03*
X31400000Y1200000D03*
X5400000Y19000000D03*
X18047500Y2494000D03*
X17400000Y6800000D03*
X40800000Y1800000D03*
X36600000Y16000000D03*
X32200000Y2000000D03*
X35200000Y16000000D03*
X13030000Y2640000D03*
X24800000Y4400000D03*
X15400000Y3000000D03*
X23400000Y11800000D03*
X19600000Y13800000D03*
X15400000Y1800000D03*
X21000000Y16200000D03*
X5980000Y4890000D03*
X15400000Y2400000D03*
X11000000Y15300000D03*
X36600000Y19200000D03*
X37400000Y8100000D03*
X21300000Y4400000D03*
X32200000Y1200000D03*
X25400000Y4400000D03*
X16600000Y14800000D03*
X2050000Y15110000D03*
X15200000Y17000000D03*
X40800000Y1000000D03*
X9700000Y16200000D03*
X11000000Y15900000D03*
X31400000Y2000000D03*
X31800000Y18200000D03*
X6600000Y7600000D03*
X8600000Y17705000D03*
X1799002Y12200000D03*
X6555000Y12400000D03*
X26400000Y17100000D03*
X34680193Y3867557D03*
X20800000Y17100000D03*
X29425000Y14025000D03*
X20300000Y2650000D03*
X7017500Y17705000D03*
X21300000Y15400000D03*
X38075001Y18055000D03*
X1400000Y10800000D03*
X5209855Y9613706D03*
X1400000Y9200000D03*
X7600000Y10400000D03*
X38300000Y1950000D03*
X41100000Y13050000D03*
X40408926Y5421287D03*
X40388489Y6461511D03*
X33250000Y16500000D03*
X7500000Y11262032D03*
X8475000Y14500000D03*
X21249998Y6680000D03*
X27000000Y6600000D03*
X15700000Y11304000D03*
X18800000Y14800000D03*
X21660000Y13030000D03*
X11900000Y12600000D03*
X15700000Y10034000D03*
X17600000Y13700000D03*
X27391575Y5764579D03*
X32400000Y12679000D03*
X15700000Y12574000D03*
X15700000Y4954000D03*
X15700000Y6224000D03*
X15700000Y7494000D03*
X15700000Y8764000D03*
X12000000Y11300000D03*
X22900000Y8800000D03*
X41350000Y10500000D03*
X22615000Y12585000D03*
X35000000Y10500000D03*
X35100000Y7400000D03*
X41300000Y9500000D03*
X28150000Y9850000D03*
X25800000Y8100000D03*
X19000000Y9200000D03*
X22540000Y7000000D03*
X31700000Y16500000D03*
X31150000Y8250000D03*
X25211000Y3400000D03*
X14750000Y18150000D03*
D50*
X6555000Y13200000D02*
X6555000Y14535000D01*
D51*
X10275000Y15695000D02*
X9995000Y15975000D01*
D50*
X6555000Y14535000D02*
X5980000Y15110000D01*
X6555000Y6800000D02*
X6555000Y5465000D01*
X23928744Y4319000D02*
X24486000Y3761744D01*
D52*
X22384000Y3007322D02*
X22384000Y3967999D01*
X22384000Y3967999D02*
X22735001Y4319000D01*
D51*
X9875000Y16095000D02*
X8475000Y16095000D01*
D52*
X22735001Y4319000D02*
X23397500Y4319000D01*
X8235000Y13222260D02*
X8856740Y13844000D01*
D50*
X24486000Y3761744D02*
X24486000Y2186000D01*
D53*
X32401000Y16010999D02*
X32401000Y17599000D01*
X29369000Y12659000D02*
X29369000Y12978999D01*
D54*
X16365000Y3278100D02*
X18211900Y5125000D01*
D50*
X23844000Y1544000D02*
X22615000Y1544000D01*
D52*
X8235000Y13174000D02*
X8235000Y13222260D01*
D50*
X2080000Y15110000D02*
X4625000Y17655000D01*
D53*
X32401000Y17599000D02*
X31800000Y18200000D01*
D50*
X6725000Y1494000D02*
X8536000Y1494000D01*
D51*
X9995000Y15975000D02*
X9995000Y17305000D01*
D50*
X6555000Y5465000D02*
X5980000Y4890000D01*
D51*
X10275000Y15695000D02*
X9875000Y16095000D01*
D52*
X8856740Y13844000D02*
X10750000Y13844000D01*
D54*
X16365000Y2484000D02*
X16365000Y3278100D01*
D50*
X24486000Y2186000D02*
X23844000Y1544000D01*
X23397500Y4319000D02*
X23928744Y4319000D01*
D52*
X21685000Y2504000D02*
X21880678Y2504000D01*
D54*
X15494000Y2494000D02*
X15400000Y2400000D01*
D51*
X10275000Y14319000D02*
X10750000Y13844000D01*
X10275000Y15695000D02*
X10275000Y14319000D01*
D50*
X2050000Y15110000D02*
X2080000Y15110000D01*
D53*
X29369000Y12978999D02*
X32401000Y16010999D01*
D50*
X8536000Y1494000D02*
X8725000Y1305000D01*
D54*
X18047500Y2494000D02*
X15494000Y2494000D01*
D52*
X21880678Y2504000D02*
X22384000Y3007322D01*
D54*
X18211900Y5125000D02*
X18235000Y5125000D01*
D55*
X9200000Y12869000D02*
X9200000Y10700000D01*
X9866000Y10034000D02*
X10750000Y10034000D01*
X9195000Y13174000D02*
X9195000Y12874000D01*
X9195000Y12874000D02*
X9200000Y12869000D01*
X9200000Y10700000D02*
X9866000Y10034000D01*
D51*
X12175000Y16125000D02*
X12175000Y15695000D01*
D53*
X7531000Y12817612D02*
X7531000Y16643500D01*
X6555000Y12400000D02*
X7113388Y12400000D01*
X6600000Y7600000D02*
X7129999Y7600000D01*
D54*
X19094000Y1544000D02*
X19161000Y1611000D01*
D51*
X4929000Y16729000D02*
X7616500Y16729000D01*
D53*
X7113388Y12400000D02*
X7531000Y12817612D01*
X6555000Y7600000D02*
X6600000Y7600000D01*
D51*
X10995000Y17305000D02*
X12175000Y16125000D01*
D53*
X7531000Y16643500D02*
X7616500Y16729000D01*
D51*
X12175000Y15695000D02*
X12175000Y15325000D01*
D53*
X9430000Y2300000D02*
X10425000Y1305000D01*
D51*
X10453999Y18116000D02*
X10955000Y17614999D01*
D54*
X26480000Y670000D02*
X27490000Y1680000D01*
X19679900Y670000D02*
X26480000Y670000D01*
X19161000Y1611000D02*
X19161000Y2992999D01*
X19161000Y1188900D02*
X19679900Y670000D01*
D51*
X8592500Y17705000D02*
X9003500Y18116000D01*
X2600000Y12200000D02*
X4100000Y13700000D01*
X9003500Y18116000D02*
X10453999Y18116000D01*
D54*
X28410000Y1680000D02*
X29449000Y2719000D01*
D53*
X8300000Y2300000D02*
X9430000Y2300000D01*
D51*
X12175000Y15325000D02*
X13656000Y13844000D01*
D54*
X19161000Y1611000D02*
X19161000Y1188900D01*
D51*
X7616500Y16729000D02*
X8592500Y17705000D01*
D54*
X19161000Y2992999D02*
X18709999Y3444000D01*
X29449000Y2719000D02*
X29449000Y3541792D01*
D53*
X10700000Y1030000D02*
X15871000Y1030000D01*
D54*
X18709999Y3444000D02*
X18047500Y3444000D01*
X18047500Y1544000D02*
X19094000Y1544000D01*
D53*
X8592500Y17705000D02*
X8600000Y17705000D01*
D54*
X27490000Y1680000D02*
X28410000Y1680000D01*
D53*
X15871000Y1030000D02*
X16365000Y1524000D01*
X7574000Y7155999D02*
X7574000Y3026000D01*
D51*
X4100000Y13700000D02*
X4100000Y15900000D01*
X1799002Y12200000D02*
X2600000Y12200000D01*
X13656000Y13844000D02*
X15700000Y13844000D01*
D53*
X7129999Y7600000D02*
X7574000Y7155999D01*
D51*
X10955000Y17614999D02*
X10955000Y17305000D01*
X4100000Y15900000D02*
X4929000Y16729000D01*
X10955000Y17305000D02*
X10995000Y17305000D01*
D54*
X16365000Y1524000D02*
X18027500Y1524000D01*
D53*
X7574000Y3026000D02*
X8300000Y2300000D01*
X10425000Y1305000D02*
X10700000Y1030000D01*
D54*
X18027500Y1524000D02*
X18047500Y1544000D01*
D52*
X20322500Y1544000D02*
X21655000Y1544000D01*
X19070000Y6030000D02*
X19975000Y5125000D01*
D54*
X20322500Y3444000D02*
X20322500Y2672500D01*
D52*
X29325000Y14125000D02*
X29325000Y14175000D01*
X29325000Y14175000D02*
X26400000Y17100000D01*
X29425000Y14025000D02*
X29325000Y14125000D01*
D54*
X21665000Y3444000D02*
X21685000Y3464000D01*
X34274765Y3867557D02*
X33949000Y3541792D01*
X34680193Y3867557D02*
X34274765Y3867557D01*
D52*
X20700000Y17530001D02*
X20745000Y17575001D01*
D54*
X20322500Y2672500D02*
X20300000Y2650000D01*
X20185000Y3581500D02*
X20322500Y3444000D01*
D52*
X20700000Y17200000D02*
X20700000Y17530001D01*
D54*
X20322500Y3444000D02*
X21665000Y3444000D01*
D52*
X19070000Y6680000D02*
X19070000Y6030000D01*
X26385000Y17115000D02*
X26400000Y17100000D01*
D54*
X20185000Y5225000D02*
X20185000Y3581500D01*
D52*
X19975000Y5125000D02*
X20185000Y5125000D01*
X20800000Y17100000D02*
X20700000Y17200000D01*
X26385000Y17575001D02*
X26385000Y17115000D01*
X5645000Y17655000D02*
X6967500Y17655000D01*
X6967500Y17655000D02*
X7017500Y17705000D01*
X22375000Y16475000D02*
X22375000Y17435001D01*
X21292000Y15400000D02*
X21096000Y15204000D01*
X21096000Y15204000D02*
X20110000Y15204000D01*
X21104000Y15204000D02*
X22375000Y16475000D01*
X21300000Y15400000D02*
X21292000Y15400000D01*
X38896999Y12500000D02*
X37849000Y13547999D01*
X20110000Y15204000D02*
X21104000Y15204000D01*
X37849000Y13547999D02*
X37849000Y18040000D01*
D56*
X9734032Y4353000D02*
X9474000Y4613032D01*
X10750000Y7494000D02*
X10081000Y8163000D01*
X5679000Y10482824D02*
X5679000Y10017176D01*
X7442501Y9775000D02*
X7417501Y9750000D01*
X9902001Y4353000D02*
X9734032Y4353000D01*
X5946176Y9750000D02*
X6555000Y9750000D01*
X6555000Y10750000D02*
X1450000Y10750000D01*
X10425000Y3830001D02*
X9902001Y4353000D01*
X9474000Y8770000D02*
X8469000Y9775000D01*
X5679000Y10017176D02*
X5946176Y9750000D01*
X5946176Y10750000D02*
X5679000Y10482824D01*
X10081000Y8163000D02*
X9734032Y8163000D01*
X7417501Y9750000D02*
X6555000Y9750000D01*
X8469000Y9775000D02*
X7442501Y9775000D01*
X10425000Y3305000D02*
X10425000Y3830001D01*
X8525000Y7393198D02*
X8525000Y8843198D01*
X7442501Y9725000D02*
X7417501Y9750000D01*
X8525000Y8843198D02*
X7643198Y9725000D01*
X6555000Y10750000D02*
X5946176Y10750000D01*
X9474000Y6444198D02*
X8525000Y7393198D01*
X1450000Y10750000D02*
X1400000Y10800000D01*
X9734032Y8163000D02*
X9474000Y8423032D01*
X9474000Y8423032D02*
X9474000Y8770000D01*
X7643198Y9725000D02*
X7442501Y9725000D01*
X9474000Y4613032D02*
X9474000Y6444198D01*
X8075000Y7206802D02*
X8075000Y8656802D01*
X10116397Y8764000D02*
X8655397Y10225000D01*
X9024020Y6257782D02*
X8075000Y7206802D01*
X8075000Y8656802D02*
X7456802Y9275000D01*
X8525000Y3305000D02*
X8525000Y3830001D01*
X7442501Y10225000D02*
X7417501Y10250000D01*
X7456802Y9275000D02*
X7442501Y9275000D01*
X5209855Y9613706D02*
X5342918Y9613706D01*
X5209855Y9613706D02*
X4796148Y9200000D01*
X5342918Y9613706D02*
X5706624Y9250000D01*
X9024020Y4329021D02*
X9024020Y6257782D01*
X8655397Y10225000D02*
X7442501Y10225000D01*
X7417501Y9250000D02*
X6555000Y9250000D01*
X4796148Y9200000D02*
X1400000Y9200000D01*
X8525000Y3830001D02*
X9024020Y4329021D01*
X10750000Y8764000D02*
X10116397Y8764000D01*
X7417501Y10250000D02*
X6555000Y10250000D01*
X5706624Y9250000D02*
X6555000Y9250000D01*
X7442501Y9275000D02*
X7417501Y9250000D01*
D52*
X38290000Y1960000D02*
X38300000Y1950000D01*
X26400000Y13950000D02*
X24589000Y13950000D01*
X42000000Y7750000D02*
X41200000Y6950000D01*
X41270654Y11500000D02*
X42000000Y10770654D01*
X42000000Y10770654D02*
X42000000Y7750000D01*
X37849000Y1960000D02*
X38290000Y1960000D01*
X20110000Y12903000D02*
X20110000Y13210000D01*
X41100000Y11500000D02*
X41270654Y11500000D01*
X28850000Y11500000D02*
X26400000Y13950000D01*
X20850000Y13950000D02*
X24589000Y13950000D01*
X24589000Y17274001D02*
X24750000Y17435001D01*
X41200000Y6212361D02*
X40408926Y5421287D01*
X20110000Y13210000D02*
X20850000Y13950000D01*
X41100000Y11500000D02*
X38897000Y11500000D01*
X41200000Y6950000D02*
X41200000Y6212361D01*
X41100000Y13050000D02*
X41100000Y11500000D01*
X20120000Y12893000D02*
X20110000Y12903000D01*
X24589000Y13950000D02*
X24589000Y17274001D01*
X38897000Y11500000D02*
X28850000Y11500000D01*
X24589000Y12988000D02*
X24589000Y13950000D01*
D54*
X40350000Y8200000D02*
X40050000Y8500000D01*
X33949000Y12712500D02*
X34002500Y12659000D01*
X40388489Y6461511D02*
X40388489Y6711511D01*
D52*
X22900000Y10200000D02*
X24341000Y10200000D01*
X21719998Y8530000D02*
X21719998Y9019998D01*
X21719998Y9019998D02*
X22900000Y10200000D01*
D54*
X33894000Y16500000D02*
X33949000Y16445000D01*
D52*
X24341000Y10200000D02*
X24589000Y10448000D01*
D54*
X33949000Y16445000D02*
X33949000Y12712500D01*
X40050000Y8500000D02*
X38897000Y8500000D01*
X40388489Y6711511D02*
X40350000Y6750000D01*
X33250000Y16500000D02*
X33894000Y16500000D01*
X40350000Y6750000D02*
X40350000Y8200000D01*
D55*
X4500000Y7500000D02*
X5250000Y8250000D01*
X5250000Y8250000D02*
X6555000Y8250000D01*
X4500000Y3600000D02*
X4500000Y7500000D01*
X5586000Y2514000D02*
X4500000Y3600000D01*
X6725000Y2514000D02*
X5586000Y2514000D01*
X8475000Y14500000D02*
X8475000Y15075000D01*
X7500000Y11262032D02*
X6567032Y11262032D01*
X6567032Y11262032D02*
X6555000Y11250000D01*
D54*
X25672500Y5269000D02*
X27603500Y7200000D01*
X28500000Y7200000D02*
X29560001Y7200000D01*
X27603500Y7200000D02*
X28500000Y7200000D01*
D51*
X28619000Y5585000D02*
X28405000Y5799000D01*
D52*
X21534999Y6965001D02*
X21719998Y7150000D01*
D54*
X28405000Y7105000D02*
X28500000Y7200000D01*
D52*
X20450000Y6680000D02*
X21249998Y6680000D01*
X21249998Y6680000D02*
X21534999Y6965001D01*
D51*
X32449000Y5534000D02*
X32449000Y3541792D01*
X32500000Y5585000D02*
X28619000Y5585000D01*
X32500000Y5585000D02*
X32449000Y5534000D01*
X35075000Y5585000D02*
X32500000Y5585000D01*
D54*
X28405000Y5799000D02*
X28405000Y7105000D01*
D52*
X16424000Y11304000D02*
X17605000Y12485000D01*
X15700000Y11304000D02*
X16424000Y11304000D01*
X18800000Y14724000D02*
X18820000Y14704000D01*
X18800000Y14800000D02*
X18800000Y14724000D01*
X17605000Y14684000D02*
X17642000Y14684000D01*
X17642000Y14684000D02*
X18662000Y15704000D01*
X18662000Y15704000D02*
X18820000Y15704000D01*
X11874000Y12574000D02*
X10750000Y12574000D01*
X11900000Y12600000D02*
X11874000Y12574000D01*
X17605000Y13664000D02*
X17605000Y13556500D01*
X17605000Y13556500D02*
X18768500Y12393000D01*
X18768500Y12393000D02*
X18830000Y12393000D01*
D54*
X32407500Y12679000D02*
X32427500Y12659000D01*
X30625000Y12679000D02*
X32400000Y12679000D01*
X32400000Y12679000D02*
X32407500Y12679000D01*
D56*
X11830000Y2640000D02*
X11830000Y3874000D01*
X11830000Y3874000D02*
X10750000Y4954000D01*
X11396000Y6224000D02*
X10750000Y6224000D01*
X14230000Y2640000D02*
X14230000Y3390000D01*
X14230000Y3390000D02*
X11396000Y6224000D01*
D52*
X20745000Y18594999D02*
X22235000Y18594999D01*
X22235000Y18594999D02*
X22375000Y18734999D01*
X24750000Y18734999D02*
X26245000Y18734999D01*
X26245000Y18734999D02*
X26385000Y18594999D01*
X23000000Y8700000D02*
X23000000Y8265000D01*
X23000000Y8265000D02*
X22995000Y8260000D01*
X10750000Y11304000D02*
X11996000Y11304000D01*
X22900000Y8800000D02*
X23000000Y8700000D01*
X11996000Y11304000D02*
X12000000Y11300000D01*
X19802500Y8415000D02*
X19802500Y10205000D01*
X19760000Y7972500D02*
X19802500Y8015000D01*
X19802500Y8415000D02*
X19802500Y8115000D01*
X19802500Y8015000D02*
X19802500Y8415000D01*
X19702500Y8015000D02*
X19692500Y8015000D01*
X19802500Y8115000D02*
X19702500Y8015000D01*
X19760000Y6680000D02*
X19760000Y7972500D01*
X22214999Y12184999D02*
X22214999Y11165000D01*
X22615000Y12685000D02*
X22860000Y12930000D01*
X26162000Y12988000D02*
X25859000Y12988000D01*
X41350000Y10500000D02*
X38897000Y10500000D01*
X22214999Y11165000D02*
X22264999Y11115000D01*
X22615000Y12585000D02*
X22615000Y12685000D01*
X35515001Y7400000D02*
X35100000Y7400000D01*
X38897000Y10500000D02*
X28650000Y10500000D01*
X22214999Y12184999D02*
X22615000Y12585000D01*
X28650000Y10500000D02*
X26162000Y12988000D01*
X25090999Y8154000D02*
X24484999Y8760000D01*
X24264998Y6745000D02*
X24345000Y6745000D01*
X28100000Y9850000D02*
X26232000Y11718000D01*
X38897000Y9500000D02*
X38547000Y9850000D01*
X25090999Y8154000D02*
X25746000Y8154000D01*
X24345000Y6745000D02*
X25090999Y7490999D01*
X25746000Y8154000D02*
X25800000Y8100000D01*
X24484999Y8760000D02*
X24284999Y8760000D01*
X25090999Y7490999D02*
X25090999Y8154000D01*
X38547000Y9850000D02*
X28100000Y9850000D01*
X26232000Y11718000D02*
X25859000Y11718000D01*
X41300000Y9500000D02*
X38897000Y9500000D01*
X19242000Y11842000D02*
X19436000Y12036000D01*
X17605000Y11465000D02*
X18085000Y11465000D01*
X19436000Y12787000D02*
X18830000Y13393000D01*
X19436000Y12036000D02*
X19436000Y12787000D01*
X18085000Y11465000D02*
X18462000Y11842000D01*
X18462000Y11842000D02*
X19242000Y11842000D01*
X18815000Y11115000D02*
X21245001Y11115000D01*
X18227500Y10527500D02*
X18815000Y11115000D01*
X18227500Y10205000D02*
X18227500Y10527500D01*
X19000000Y9200000D02*
X18227500Y8427500D01*
X22990000Y7000000D02*
X23245000Y6745000D01*
X18227500Y8427500D02*
X18227500Y8415000D01*
X22540000Y7000000D02*
X22990000Y7000000D01*
X21719998Y7840000D02*
X22160000Y7840000D01*
X22160000Y7840000D02*
X22291000Y7709000D01*
X23600000Y7709000D02*
X23600000Y7708992D01*
X23600000Y7708992D02*
X23603050Y7705942D01*
X22291000Y7709000D02*
X23600000Y7709000D01*
X23600000Y7709000D02*
X24233999Y7709000D01*
X23603050Y9103050D02*
X24000000Y9500000D01*
X27400000Y9500000D02*
X27899000Y9001000D01*
X23603050Y7705942D02*
X23603050Y9103050D01*
X24233999Y7709000D02*
X24284999Y7760000D01*
X24000000Y9500000D02*
X27400000Y9500000D01*
X27899000Y9001000D02*
X34933999Y9001000D01*
X34933999Y9001000D02*
X36534999Y7400000D01*
D54*
X30950000Y8250000D02*
X30949000Y8251000D01*
X30859999Y7959999D02*
X31150000Y8250000D01*
X24069000Y5269000D02*
X23397500Y5269000D01*
X30859999Y7200000D02*
X30859999Y7959999D01*
X27051000Y8251000D02*
X24069000Y5269000D01*
X31150000Y8250000D02*
X30950000Y8250000D01*
X30949000Y8251000D02*
X27051000Y8251000D01*
X31700000Y16500000D02*
X31004000Y16500000D01*
X31004000Y16500000D02*
X30949000Y16445000D01*
D53*
X27425996Y4779002D02*
X28405000Y4779002D01*
X25211000Y3400000D02*
X25641500Y3400000D01*
X27391575Y4744581D02*
X27425996Y4779002D01*
X25641500Y3400000D02*
X25672500Y3369000D01*
X25915994Y3369000D02*
X27291575Y4744581D01*
X14750000Y18150000D02*
X13215000Y18150000D01*
X27291575Y4744581D02*
X27391575Y4744581D01*
X25672500Y3369000D02*
X25915994Y3369000D01*
%TA.AperFunction,Conductor*%
G36*
X22014786Y19679815D02*
G01*
X22060541Y19627011D01*
X22070485Y19557853D01*
X22041460Y19494297D01*
X21982682Y19456523D01*
X21982342Y19456424D01*
X21914606Y19436745D01*
X21914603Y19436744D01*
X21773137Y19353082D01*
X21773129Y19353076D01*
X21656923Y19236870D01*
X21656917Y19236862D01*
X21573256Y19095399D01*
X21573254Y19095394D01*
X21570207Y19084903D01*
X21555893Y19062491D01*
X21544844Y19038296D01*
X21537376Y19033497D01*
X21532600Y19026018D01*
X21508442Y19014903D01*
X21486066Y19000522D01*
X21473155Y18998666D01*
X21469127Y18996812D01*
X21451131Y18995499D01*
X21261041Y18995499D01*
X21194002Y19015184D01*
X21173360Y19031818D01*
X21157102Y19048076D01*
X21157099Y19048078D01*
X21041521Y19104580D01*
X21041519Y19104581D01*
X21041518Y19104581D01*
X20966582Y19115499D01*
X20523418Y19115499D01*
X20448482Y19104581D01*
X20448480Y19104581D01*
X20448478Y19104580D01*
X20332900Y19048078D01*
X20332897Y19048076D01*
X20241923Y18957102D01*
X20241921Y18957099D01*
X20185419Y18841521D01*
X20185418Y18841519D01*
X20185418Y18841517D01*
X20174500Y18766581D01*
X20174500Y18423417D01*
X20185418Y18348481D01*
X20185418Y18348480D01*
X20185419Y18348478D01*
X20241921Y18232900D01*
X20241923Y18232897D01*
X20302139Y18172681D01*
X20335624Y18111358D01*
X20330640Y18041666D01*
X20302139Y17997319D01*
X20241923Y17937104D01*
X20241921Y17937101D01*
X20185419Y17821523D01*
X20185418Y17821521D01*
X20185418Y17821519D01*
X20174500Y17746583D01*
X20174500Y17403419D01*
X20181047Y17358482D01*
X20185418Y17328481D01*
X20236900Y17223175D01*
X20249500Y17168714D01*
X20249500Y17027525D01*
X20286350Y16890002D01*
X20287017Y16887512D01*
X20359488Y16761989D01*
X20359490Y16761987D01*
X20359491Y16761985D01*
X20461985Y16659491D01*
X20461986Y16659490D01*
X20461988Y16659489D01*
X20587511Y16587018D01*
X20587512Y16587018D01*
X20587515Y16587016D01*
X20727525Y16549500D01*
X20727528Y16549500D01*
X20872472Y16549500D01*
X20872475Y16549500D01*
X21012485Y16587016D01*
X21138015Y16659491D01*
X21240509Y16761985D01*
X21312984Y16887515D01*
X21350500Y17027525D01*
X21350500Y17027531D01*
X21352289Y17034207D01*
X21388654Y17093868D01*
X21451501Y17124397D01*
X21520876Y17116102D01*
X21574754Y17071617D01*
X21578796Y17065235D01*
X21656916Y16933140D01*
X21656923Y16933131D01*
X21773129Y16816925D01*
X21773135Y16816920D01*
X21872683Y16758048D01*
X21920365Y16706981D01*
X21932869Y16638239D01*
X21906224Y16573650D01*
X21897242Y16563636D01*
X21320426Y15986819D01*
X21259103Y15953334D01*
X21232745Y15950500D01*
X21227525Y15950500D01*
X21104328Y15917489D01*
X21087511Y15912983D01*
X20961988Y15840512D01*
X20961982Y15840507D01*
X20859493Y15738018D01*
X20859491Y15738015D01*
X20820409Y15670322D01*
X20818202Y15666500D01*
X20809514Y15658217D01*
X20804528Y15647297D01*
X20784696Y15634553D01*
X20767635Y15618284D01*
X20754378Y15615069D01*
X20745750Y15609523D01*
X20710815Y15604500D01*
X20553434Y15604500D01*
X20486395Y15624185D01*
X20484574Y15625377D01*
X20462740Y15639966D01*
X20462739Y15639967D01*
X20462738Y15639967D01*
X20389676Y15654500D01*
X20389674Y15654500D01*
X19830326Y15654500D01*
X19830323Y15654500D01*
X19757264Y15639968D01*
X19757260Y15639967D01*
X19674399Y15584601D01*
X19619033Y15501740D01*
X19619032Y15501736D01*
X19604500Y15428679D01*
X19604500Y14979322D01*
X19619032Y14906265D01*
X19619033Y14906261D01*
X19619034Y14906260D01*
X19674399Y14823399D01*
X19735456Y14782603D01*
X19757260Y14768034D01*
X19757264Y14768033D01*
X19830321Y14753501D01*
X19830324Y14753500D01*
X19830326Y14753500D01*
X20389676Y14753500D01*
X20426207Y14760767D01*
X20462740Y14768034D01*
X20484545Y14782604D01*
X20551222Y14803480D01*
X20553434Y14803500D01*
X21156725Y14803500D01*
X21156727Y14803500D01*
X21258588Y14830793D01*
X21259640Y14831401D01*
X21262216Y14832887D01*
X21324216Y14849500D01*
X21372472Y14849500D01*
X21372475Y14849500D01*
X21512485Y14887016D01*
X21638015Y14959491D01*
X21740509Y15061985D01*
X21812984Y15187515D01*
X21850500Y15327525D01*
X21850500Y15332745D01*
X21870185Y15399784D01*
X21886819Y15420426D01*
X22220836Y15754443D01*
X22695480Y16229087D01*
X22729777Y16288491D01*
X22748207Y16320413D01*
X22775500Y16422273D01*
X22775500Y16627106D01*
X22795185Y16694145D01*
X22836380Y16733838D01*
X22861080Y16748445D01*
X22914697Y16780154D01*
X22976859Y16816916D01*
X22976863Y16816919D01*
X22976865Y16816920D01*
X23093081Y16933136D01*
X23176744Y17074603D01*
X23217784Y17215862D01*
X23222597Y17232428D01*
X23222598Y17232434D01*
X23223306Y17241430D01*
X23225500Y17269307D01*
X23225500Y17959675D01*
X23225500Y17959678D01*
X23225499Y17959680D01*
X23210967Y18032739D01*
X23208977Y18037543D01*
X23201505Y18107012D01*
X23208977Y18132457D01*
X23210967Y18137262D01*
X23225499Y18210321D01*
X23225500Y18210323D01*
X23225500Y18900686D01*
X23225499Y18900701D01*
X23225121Y18905500D01*
X23222598Y18937568D01*
X23220183Y18945880D01*
X23176745Y19095393D01*
X23176744Y19095396D01*
X23176744Y19095397D01*
X23093081Y19236864D01*
X23093079Y19236866D01*
X23093076Y19236870D01*
X22976870Y19353076D01*
X22976862Y19353082D01*
X22835396Y19436744D01*
X22835393Y19436745D01*
X22767658Y19456424D01*
X22708772Y19494030D01*
X22679566Y19557503D01*
X22689312Y19626689D01*
X22734916Y19679624D01*
X22801899Y19699499D01*
X22802253Y19699500D01*
X24322747Y19699500D01*
X24389786Y19679815D01*
X24435541Y19627011D01*
X24445485Y19557853D01*
X24416460Y19494297D01*
X24357682Y19456523D01*
X24357342Y19456424D01*
X24289606Y19436745D01*
X24289603Y19436744D01*
X24148137Y19353082D01*
X24148129Y19353076D01*
X24031923Y19236870D01*
X24031917Y19236862D01*
X23948255Y19095396D01*
X23948254Y19095393D01*
X23902402Y18937573D01*
X23902401Y18937567D01*
X23899500Y18900701D01*
X23899500Y18900693D01*
X23899500Y18210325D01*
X23899500Y18210323D01*
X23899499Y18210323D01*
X23914033Y18137261D01*
X23916026Y18132449D01*
X23923492Y18062979D01*
X23916026Y18037551D01*
X23914033Y18032740D01*
X23899500Y17959678D01*
X23899500Y17269300D01*
X23902401Y17232434D01*
X23902402Y17232428D01*
X23948254Y17074608D01*
X23948255Y17074605D01*
X23948256Y17074603D01*
X23963101Y17049501D01*
X24031916Y16933140D01*
X24031919Y16933136D01*
X24148135Y16816920D01*
X24148137Y16816919D01*
X24152181Y16812875D01*
X24185666Y16751552D01*
X24188500Y16725193D01*
X24188500Y14474500D01*
X24168815Y14407461D01*
X24116011Y14361706D01*
X24064500Y14350500D01*
X20797273Y14350500D01*
X20695410Y14323207D01*
X20604087Y14270480D01*
X20604084Y14270478D01*
X19789522Y13455916D01*
X19789520Y13455913D01*
X19736792Y13364588D01*
X19732781Y13349617D01*
X19718945Y13326921D01*
X19708416Y13302511D01*
X19698762Y13293810D01*
X19696414Y13289958D01*
X19682237Y13278839D01*
X19682089Y13278740D01*
X19674399Y13273601D01*
X19674354Y13273535D01*
X19664325Y13266785D01*
X19641891Y13259680D01*
X19621218Y13248443D01*
X19609202Y13249326D01*
X19597717Y13245688D01*
X19575002Y13251839D01*
X19551536Y13253563D01*
X19539131Y13261553D01*
X19530276Y13263950D01*
X19523120Y13271864D01*
X19507414Y13281979D01*
X19361819Y13427574D01*
X19328334Y13488897D01*
X19325500Y13515255D01*
X19325500Y13617677D01*
X19325499Y13617679D01*
X19310967Y13690736D01*
X19310966Y13690740D01*
X19255601Y13773601D01*
X19195326Y13813875D01*
X19172739Y13828967D01*
X19172735Y13828968D01*
X19099677Y13843500D01*
X19099674Y13843500D01*
X18540326Y13843500D01*
X18540323Y13843500D01*
X18467264Y13828968D01*
X18467260Y13828967D01*
X18418769Y13796566D01*
X18384399Y13773601D01*
X18384398Y13773600D01*
X18374244Y13766815D01*
X18373570Y13767824D01*
X18323371Y13740417D01*
X18253679Y13745406D01*
X18197748Y13787281D01*
X18174316Y13843705D01*
X18164582Y13910518D01*
X18156023Y13928025D01*
X18108078Y14026100D01*
X18108076Y14026103D01*
X18047860Y14086319D01*
X18047571Y14086849D01*
X18047043Y14087143D01*
X18030824Y14117518D01*
X18014375Y14147642D01*
X18014417Y14148244D01*
X18014133Y14148777D01*
X18016907Y14183056D01*
X18019359Y14217334D01*
X18019737Y14218020D01*
X18019770Y14218419D01*
X18021027Y14220356D01*
X18036974Y14249236D01*
X18042004Y14255827D01*
X18108076Y14321898D01*
X18135935Y14378886D01*
X18143379Y14388637D01*
X18162048Y14402343D01*
X18177672Y14419443D01*
X18189685Y14422630D01*
X18199702Y14429983D01*
X18222816Y14431419D01*
X18245205Y14437358D01*
X18257033Y14433545D01*
X18269437Y14434315D01*
X18289661Y14423025D01*
X18311704Y14415918D01*
X18323250Y14404274D01*
X18330444Y14400258D01*
X18334190Y14393242D01*
X18345048Y14382292D01*
X18366291Y14350500D01*
X18384399Y14323399D01*
X18438104Y14287515D01*
X18467260Y14268034D01*
X18467264Y14268033D01*
X18540321Y14253501D01*
X18540324Y14253500D01*
X18540326Y14253500D01*
X18712597Y14253500D01*
X18727525Y14249500D01*
X18872475Y14249500D01*
X18887403Y14253500D01*
X19099674Y14253500D01*
X19099676Y14253500D01*
X19099677Y14253501D01*
X19172740Y14268034D01*
X19255601Y14323399D01*
X19310966Y14406260D01*
X19325500Y14479326D01*
X19325500Y14617900D01*
X19329725Y14649994D01*
X19350500Y14727525D01*
X19350500Y14872475D01*
X19312984Y15012485D01*
X19293576Y15046100D01*
X19240511Y15138012D01*
X19235562Y15144461D01*
X19237129Y15145664D01*
X19208779Y15197583D01*
X19213763Y15267275D01*
X19248307Y15313421D01*
X19246965Y15314763D01*
X19255598Y15323397D01*
X19255597Y15323397D01*
X19255601Y15323399D01*
X19310966Y15406260D01*
X19325500Y15479326D01*
X19325500Y15928674D01*
X19325500Y15928677D01*
X19325499Y15928679D01*
X19310967Y16001736D01*
X19310966Y16001740D01*
X19294997Y16025640D01*
X19255601Y16084601D01*
X19172740Y16139966D01*
X19172739Y16139967D01*
X19172735Y16139968D01*
X19099677Y16154500D01*
X19099674Y16154500D01*
X18540326Y16154500D01*
X18540323Y16154500D01*
X18467264Y16139968D01*
X18467260Y16139967D01*
X18384399Y16084601D01*
X18329033Y16001740D01*
X18329032Y16001737D01*
X18320402Y15958349D01*
X18288017Y15896438D01*
X18286466Y15894860D01*
X17632426Y15240819D01*
X17571103Y15207334D01*
X17544745Y15204500D01*
X17383418Y15204500D01*
X17308482Y15193582D01*
X17308480Y15193582D01*
X17308478Y15193581D01*
X17192900Y15137079D01*
X17192897Y15137077D01*
X17101923Y15046103D01*
X17101921Y15046100D01*
X17045419Y14930522D01*
X17045418Y14930520D01*
X17045418Y14930518D01*
X17034500Y14855582D01*
X17034500Y14512418D01*
X17045418Y14437482D01*
X17045418Y14437481D01*
X17045419Y14437479D01*
X17101921Y14321901D01*
X17101923Y14321898D01*
X17162140Y14261681D01*
X17195625Y14200358D01*
X17190641Y14130666D01*
X17162139Y14086318D01*
X17121625Y14045805D01*
X17060302Y14012320D01*
X16990610Y14017306D01*
X16934677Y14059178D01*
X16911471Y14114093D01*
X16910646Y14119303D01*
X16910646Y14119304D01*
X16853050Y14232342D01*
X16853046Y14232346D01*
X16853045Y14232348D01*
X16763347Y14322046D01*
X16763344Y14322048D01*
X16763342Y14322050D01*
X16682938Y14363018D01*
X16650301Y14379648D01*
X16556524Y14394500D01*
X16556519Y14394500D01*
X15772476Y14394500D01*
X15772475Y14394500D01*
X13935387Y14394500D01*
X13868348Y14414185D01*
X13847706Y14430819D01*
X12961818Y15316707D01*
X12928333Y15378030D01*
X12925499Y15404388D01*
X12925499Y16217871D01*
X12925498Y16217877D01*
X12925162Y16221000D01*
X12919091Y16277483D01*
X12915350Y16287512D01*
X12868797Y16412329D01*
X12868793Y16412336D01*
X12782547Y16527545D01*
X12782544Y16527548D01*
X12667335Y16613794D01*
X12667328Y16613798D01*
X12532482Y16664092D01*
X12532483Y16664092D01*
X12472883Y16670499D01*
X12472881Y16670500D01*
X12472873Y16670500D01*
X12472865Y16670500D01*
X12459387Y16670500D01*
X12392348Y16690185D01*
X12371706Y16706819D01*
X11541819Y17536706D01*
X11508334Y17598029D01*
X11505500Y17624387D01*
X11505500Y17687472D01*
X11505500Y17687474D01*
X11467984Y17827484D01*
X11451809Y17855500D01*
X11395510Y17953014D01*
X10792014Y18556510D01*
X10666484Y18628984D01*
X10666485Y18628984D01*
X10631481Y18638363D01*
X10526474Y18666500D01*
X8931025Y18666500D01*
X8826017Y18638363D01*
X8791014Y18628984D01*
X8665486Y18556511D01*
X8665483Y18556509D01*
X8575794Y18466819D01*
X8514471Y18433334D01*
X8488113Y18430500D01*
X8328855Y18430500D01*
X8272975Y18424491D01*
X8146552Y18377338D01*
X8146549Y18377336D01*
X8038528Y18296472D01*
X7957664Y18188451D01*
X7957662Y18188448D01*
X7921182Y18090639D01*
X7879311Y18034705D01*
X7813846Y18010288D01*
X7745573Y18025140D01*
X7696168Y18074545D01*
X7688818Y18090639D01*
X7652337Y18188448D01*
X7652335Y18188451D01*
X7571472Y18296472D01*
X7463450Y18377336D01*
X7463447Y18377338D01*
X7337024Y18424491D01*
X7281144Y18430500D01*
X7281130Y18430500D01*
X6753870Y18430500D01*
X6753855Y18430500D01*
X6697975Y18424491D01*
X6571552Y18377338D01*
X6571549Y18377336D01*
X6463528Y18296472D01*
X6382664Y18188451D01*
X6382663Y18188450D01*
X6363163Y18136166D01*
X6349892Y18118440D01*
X6340694Y18098297D01*
X6329362Y18091015D01*
X6321291Y18080233D01*
X6300545Y18072496D01*
X6281916Y18060523D01*
X6259997Y18057372D01*
X6255827Y18055816D01*
X6246981Y18055500D01*
X6161041Y18055500D01*
X6094002Y18075185D01*
X6073360Y18091819D01*
X6007102Y18158077D01*
X6007099Y18158079D01*
X5891521Y18214581D01*
X5891519Y18214582D01*
X5891518Y18214582D01*
X5816582Y18225500D01*
X5473418Y18225500D01*
X5398482Y18214582D01*
X5398480Y18214582D01*
X5398478Y18214581D01*
X5282900Y18158079D01*
X5282899Y18158079D01*
X5259926Y18135105D01*
X5198602Y18101621D01*
X5128911Y18106607D01*
X5077920Y18144780D01*
X5077636Y18144495D01*
X5075659Y18146472D01*
X5072978Y18148479D01*
X5072478Y18149152D01*
X5071066Y18151065D01*
X4965559Y18228934D01*
X4965557Y18228935D01*
X4875000Y18260622D01*
X4875000Y17779000D01*
X4855315Y17711961D01*
X4802511Y17666206D01*
X4751000Y17655000D01*
X4625000Y17655000D01*
X4625000Y17529000D01*
X4605315Y17461961D01*
X4552511Y17416206D01*
X4501000Y17405000D01*
X4056182Y17405000D01*
X4057755Y17388215D01*
X4057755Y17388213D01*
X4101065Y17264443D01*
X4101066Y17264441D01*
X4178934Y17158935D01*
X4291918Y17075548D01*
X4290045Y17073011D01*
X4328662Y17035424D01*
X4344435Y16967358D01*
X4320906Y16901570D01*
X4308324Y16886850D01*
X3659489Y16238015D01*
X3645079Y16213054D01*
X3615595Y16161985D01*
X3587016Y16112485D01*
X3577107Y16075509D01*
X3572921Y16066259D01*
X3556481Y16047159D01*
X3543364Y16025640D01*
X3534077Y16021130D01*
X3527342Y16013304D01*
X3503185Y16006125D01*
X3480516Y15995113D01*
X3470263Y15996340D01*
X3460368Y15993398D01*
X3436166Y16000418D01*
X3411141Y16003410D01*
X3403179Y16009985D01*
X3393263Y16012860D01*
X3376697Y16031851D01*
X3363738Y16042551D01*
X3343203Y16049653D01*
X2226776Y14933224D01*
X1065001Y13771451D01*
X1065001Y13771450D01*
X1168555Y13730615D01*
X1256946Y13720000D01*
X2843054Y13720000D01*
X2931446Y13730615D01*
X3070860Y13785592D01*
X3140447Y13791874D01*
X3202383Y13759537D01*
X3237004Y13698848D01*
X3233319Y13629076D01*
X3204031Y13582557D01*
X2408294Y12786819D01*
X2346971Y12753334D01*
X2320613Y12750500D01*
X1871477Y12750500D01*
X1726527Y12750500D01*
X1597995Y12716060D01*
X1586513Y12712983D01*
X1460990Y12640512D01*
X1460984Y12640507D01*
X1358495Y12538018D01*
X1358490Y12538012D01*
X1286019Y12412489D01*
X1283196Y12401955D01*
X1248502Y12272475D01*
X1248502Y12127525D01*
X1286018Y11987515D01*
X1286019Y11987512D01*
X1358490Y11861989D01*
X1358492Y11861987D01*
X1358493Y11861985D01*
X1460987Y11759491D01*
X1460988Y11759490D01*
X1460990Y11759489D01*
X1586513Y11687018D01*
X1586514Y11687018D01*
X1586517Y11687016D01*
X1726527Y11649500D01*
X1726530Y11649500D01*
X2672472Y11649500D01*
X2672474Y11649500D01*
X2672475Y11649500D01*
X2812485Y11687016D01*
X2839375Y11702541D01*
X2938015Y11759490D01*
X4540510Y13361985D01*
X4612984Y13487515D01*
X4614298Y13492418D01*
X4650500Y13627525D01*
X4650500Y13769539D01*
X4670185Y13836578D01*
X4722989Y13882333D01*
X4792147Y13892277D01*
X4849426Y13868342D01*
X4957902Y13786081D01*
X5098556Y13730614D01*
X5186946Y13720000D01*
X5607953Y13720000D01*
X5674992Y13700315D01*
X5720747Y13647511D01*
X5730691Y13578353D01*
X5724993Y13555042D01*
X5719839Y13540314D01*
X5679116Y13483539D01*
X5614163Y13457794D01*
X5570709Y13461496D01*
X5555766Y13465500D01*
X5404234Y13465500D01*
X5257863Y13426281D01*
X5126635Y13350515D01*
X5126632Y13350513D01*
X5019487Y13243368D01*
X5019485Y13243365D01*
X4943719Y13112137D01*
X4907791Y12978050D01*
X4904500Y12965766D01*
X4904500Y12814234D01*
X4920233Y12755518D01*
X4943719Y12667864D01*
X4970999Y12620614D01*
X5019485Y12536635D01*
X5126635Y12429485D01*
X5230499Y12369519D01*
X5250699Y12357856D01*
X5257865Y12353719D01*
X5404234Y12314500D01*
X5404236Y12314500D01*
X5555763Y12314500D01*
X5555766Y12314500D01*
X5574818Y12319605D01*
X5583419Y12319401D01*
X5591307Y12322845D01*
X5617820Y12318582D01*
X5644665Y12317942D01*
X5651792Y12313118D01*
X5660291Y12311751D01*
X5680290Y12293831D01*
X5702527Y12278780D01*
X5707275Y12269650D01*
X5712326Y12265124D01*
X5719077Y12246959D01*
X5726451Y12232780D01*
X5729500Y12221715D01*
X5729501Y12218482D01*
X5744354Y12124696D01*
X5770253Y12073866D01*
X5773598Y12061731D01*
X5773217Y12038875D01*
X5777437Y12016406D01*
X5772547Y11998609D01*
X5772435Y11991871D01*
X5769476Y11987432D01*
X5766438Y11976377D01*
X5736283Y11911706D01*
X5735740Y11910542D01*
X5729500Y11863141D01*
X5729500Y11636869D01*
X5729501Y11636862D01*
X5735741Y11589455D01*
X5753018Y11552404D01*
X5763509Y11483327D01*
X5753018Y11447598D01*
X5735742Y11410549D01*
X5735740Y11410542D01*
X5729500Y11363141D01*
X5729500Y11363139D01*
X5729500Y11293418D01*
X5729501Y11224501D01*
X5709817Y11157461D01*
X5657013Y11111706D01*
X5605501Y11100500D01*
X1929386Y11100500D01*
X1862347Y11120185D01*
X1841705Y11136819D01*
X1738017Y11240507D01*
X1738011Y11240512D01*
X1612488Y11312983D01*
X1612489Y11312983D01*
X1601006Y11316060D01*
X1472475Y11350500D01*
X1327525Y11350500D01*
X1198993Y11316060D01*
X1187511Y11312983D01*
X1061988Y11240512D01*
X1061982Y11240507D01*
X959493Y11138018D01*
X959488Y11138012D01*
X887017Y11012489D01*
X887016Y11012485D01*
X849500Y10872475D01*
X849500Y10727525D01*
X883537Y10600500D01*
X887017Y10587512D01*
X959488Y10461989D01*
X959490Y10461987D01*
X959491Y10461985D01*
X1061985Y10359491D01*
X1061986Y10359490D01*
X1061988Y10359489D01*
X1187511Y10287018D01*
X1187512Y10287018D01*
X1187515Y10287016D01*
X1327525Y10249500D01*
X1327528Y10249500D01*
X1472472Y10249500D01*
X1472475Y10249500D01*
X1612485Y10287016D01*
X1738015Y10359491D01*
X1741705Y10363181D01*
X1803028Y10396666D01*
X1829386Y10399500D01*
X5073637Y10399500D01*
X5140676Y10379815D01*
X5186431Y10327011D01*
X5196375Y10257853D01*
X5167350Y10194297D01*
X5108572Y10156523D01*
X5105775Y10155738D01*
X5009341Y10129898D01*
X4997366Y10126689D01*
X4871843Y10054218D01*
X4871837Y10054213D01*
X4769348Y9951724D01*
X4769343Y9951718D01*
X4696872Y9826195D01*
X4696871Y9826191D01*
X4659355Y9686181D01*
X4659355Y9686179D01*
X4659355Y9674500D01*
X4639670Y9607461D01*
X4586866Y9561706D01*
X4535355Y9550500D01*
X1879386Y9550500D01*
X1812347Y9570185D01*
X1791705Y9586819D01*
X1738017Y9640507D01*
X1738011Y9640512D01*
X1612488Y9712983D01*
X1612489Y9712983D01*
X1601006Y9716060D01*
X1472475Y9750500D01*
X1327525Y9750500D01*
X1198993Y9716060D01*
X1187511Y9712983D01*
X1061988Y9640512D01*
X1061982Y9640507D01*
X959493Y9538018D01*
X959488Y9538012D01*
X887017Y9412489D01*
X887016Y9412485D01*
X849500Y9272475D01*
X849500Y9127525D01*
X883537Y9000500D01*
X887017Y8987512D01*
X959488Y8861989D01*
X959490Y8861987D01*
X959491Y8861985D01*
X1061985Y8759491D01*
X1061986Y8759490D01*
X1061988Y8759489D01*
X1187511Y8687018D01*
X1187512Y8687018D01*
X1187515Y8687016D01*
X1327525Y8649500D01*
X1327528Y8649500D01*
X1472472Y8649500D01*
X1472475Y8649500D01*
X1612485Y8687016D01*
X1738015Y8759491D01*
X1791705Y8813181D01*
X1853028Y8846666D01*
X1879386Y8849500D01*
X4842290Y8849500D01*
X4842292Y8849500D01*
X4931436Y8873386D01*
X4942060Y8879520D01*
X5011360Y8919530D01*
X5118717Y9026887D01*
X5141587Y9039376D01*
X5162358Y9055122D01*
X5174510Y9057353D01*
X5180040Y9060372D01*
X5196799Y9062834D01*
X5201590Y9063206D01*
X5282330Y9063206D01*
X5315268Y9072033D01*
X5326690Y9072919D01*
X5350111Y9067974D01*
X5374042Y9067404D01*
X5385299Y9060543D01*
X5395052Y9058483D01*
X5405319Y9048341D01*
X5423970Y9036972D01*
X5491412Y8969530D01*
X5491413Y8969529D01*
X5491415Y8969528D01*
X5513693Y8956666D01*
X5571336Y8923386D01*
X5637594Y8905633D01*
X5661371Y8891140D01*
X5686700Y8879573D01*
X5690791Y8873208D01*
X5697254Y8869268D01*
X5709421Y8844220D01*
X5724476Y8820796D01*
X5726021Y8810047D01*
X5727783Y8806421D01*
X5729500Y8785861D01*
X5729500Y8751500D01*
X5729501Y8749503D01*
X5709818Y8682463D01*
X5657016Y8636707D01*
X5605501Y8625500D01*
X5299436Y8625500D01*
X5200564Y8625500D01*
X5192007Y8623207D01*
X5105060Y8599910D01*
X5105059Y8599909D01*
X5019436Y8550474D01*
X4199526Y7730564D01*
X4150089Y7644937D01*
X4145897Y7629291D01*
X4145897Y7629289D01*
X4138183Y7600500D01*
X4125832Y7554405D01*
X4124500Y7549435D01*
X4124500Y3649436D01*
X4124500Y3550564D01*
X4125424Y3547117D01*
X4126718Y3542289D01*
X4126719Y3542285D01*
X4150090Y3455061D01*
X4150091Y3455060D01*
X4199525Y3369438D01*
X4199526Y3369437D01*
X5285525Y2283438D01*
X5355438Y2213525D01*
X5441062Y2164090D01*
X5441066Y2164089D01*
X5486561Y2151898D01*
X5486562Y2151898D01*
X5492814Y2150223D01*
X5536564Y2138500D01*
X5536565Y2138500D01*
X6129756Y2138500D01*
X6196795Y2118815D01*
X6242550Y2066011D01*
X6252494Y1996853D01*
X6229525Y1940865D01*
X6151067Y1834561D01*
X6151065Y1834558D01*
X6119378Y1744001D01*
X6119378Y1744000D01*
X7330622Y1744000D01*
X7330621Y1744001D01*
X7298934Y1834558D01*
X7298933Y1834560D01*
X7221064Y1940067D01*
X7219149Y1941480D01*
X7217566Y1943565D01*
X7214495Y1946636D01*
X7214915Y1947057D01*
X7176901Y1997129D01*
X7171445Y2066786D01*
X7204515Y2128334D01*
X7204959Y2128781D01*
X7228076Y2151898D01*
X7228076Y2151900D01*
X7228078Y2151901D01*
X7258205Y2213527D01*
X7284582Y2267482D01*
X7295500Y2342418D01*
X7295500Y2368035D01*
X7315185Y2435074D01*
X7367989Y2480829D01*
X7437147Y2490773D01*
X7500703Y2461748D01*
X7507181Y2455716D01*
X7966635Y1996262D01*
X8000120Y1934939D01*
X7995136Y1865247D01*
X7977793Y1838264D01*
X7979705Y1836954D01*
X7973211Y1827475D01*
X7927910Y1724878D01*
X7927910Y1724876D01*
X7925000Y1699795D01*
X7925000Y1555000D01*
X9486535Y1555000D01*
X9553574Y1535315D01*
X9574216Y1518681D01*
X9838181Y1254716D01*
X9871666Y1193393D01*
X9874500Y1167035D01*
X9874500Y930322D01*
X9889032Y857265D01*
X9889033Y857261D01*
X9897258Y844952D01*
X9944399Y774399D01*
X9983243Y748445D01*
X10027260Y719034D01*
X10027264Y719033D01*
X10100321Y704501D01*
X10100324Y704500D01*
X10100326Y704500D01*
X10337034Y704500D01*
X10395535Y689833D01*
X10411726Y681170D01*
X10423386Y669510D01*
X10526113Y610201D01*
X10548853Y604108D01*
X10640691Y579500D01*
X10640693Y579500D01*
X15930307Y579500D01*
X15930309Y579500D01*
X16022147Y604108D01*
X16044887Y610201D01*
X16147614Y669511D01*
X16435285Y957184D01*
X16496606Y990667D01*
X16504057Y992051D01*
X16513455Y993501D01*
X16565734Y993501D01*
X16657175Y1007983D01*
X16678829Y1019017D01*
X16698491Y1022050D01*
X16706765Y1020948D01*
X16717399Y1023500D01*
X17350201Y1023500D01*
X17406492Y1009987D01*
X17409696Y1008354D01*
X17409697Y1008354D01*
X17409699Y1008353D01*
X17503475Y993501D01*
X17503481Y993500D01*
X18591518Y993501D01*
X18591521Y993501D01*
X18602967Y995314D01*
X18672260Y986360D01*
X18725713Y941364D01*
X18729753Y934841D01*
X18732895Y929399D01*
X18760500Y881586D01*
X18760502Y881584D01*
X19129905Y512181D01*
X19163390Y450858D01*
X19158406Y381166D01*
X19116534Y325233D01*
X19051070Y300816D01*
X19042224Y300500D01*
X2004428Y300500D01*
X1995582Y300816D01*
X1766982Y317166D01*
X1749470Y319684D01*
X1529862Y367457D01*
X1512887Y372441D01*
X1302311Y450981D01*
X1286217Y458331D01*
X1088963Y566041D01*
X1074080Y575606D01*
X894163Y710290D01*
X880792Y721876D01*
X721875Y880793D01*
X710289Y894164D01*
X687068Y925183D01*
X575605Y1074081D01*
X566040Y1088964D01*
X556483Y1106466D01*
X458327Y1286223D01*
X450983Y1302306D01*
X372437Y1512897D01*
X367458Y1529856D01*
X319683Y1749471D01*
X317165Y1766983D01*
X315792Y1786175D01*
X300816Y1995582D01*
X300500Y2004428D01*
X300500Y2106287D01*
X649500Y2106287D01*
X649500Y1893713D01*
X652064Y1877525D01*
X680213Y1699795D01*
X682754Y1683757D01*
X747164Y1485523D01*
X748444Y1481586D01*
X844951Y1292180D01*
X969890Y1120214D01*
X1120213Y969891D01*
X1292179Y844952D01*
X1292181Y844951D01*
X1292184Y844949D01*
X1481588Y748443D01*
X1683757Y682754D01*
X1893713Y649500D01*
X1893714Y649500D01*
X2106286Y649500D01*
X2106287Y649500D01*
X2316243Y682754D01*
X2518412Y748443D01*
X2707816Y844949D01*
X2747848Y874034D01*
X2797648Y910215D01*
X7925001Y910215D01*
X7925002Y910192D01*
X7927908Y885131D01*
X7927909Y885127D01*
X7973211Y782526D01*
X7973214Y782521D01*
X8052520Y703215D01*
X8052525Y703212D01*
X8155123Y657911D01*
X8180206Y655001D01*
X8474999Y655001D01*
X8975000Y655001D01*
X9269786Y655001D01*
X9269808Y655003D01*
X9294869Y657909D01*
X9294873Y657910D01*
X9397474Y703212D01*
X9397479Y703215D01*
X9476785Y782521D01*
X9476788Y782526D01*
X9522089Y885123D01*
X9522089Y885125D01*
X9524999Y910206D01*
X9525000Y910209D01*
X9525000Y1055000D01*
X8975000Y1055000D01*
X8975000Y655001D01*
X8474999Y655001D01*
X8475000Y655002D01*
X8475000Y1055000D01*
X7925001Y1055000D01*
X7925001Y910215D01*
X2797648Y910215D01*
X2879786Y969891D01*
X2879788Y969894D01*
X2879792Y969896D01*
X3030104Y1120208D01*
X3030106Y1120212D01*
X3030109Y1120214D01*
X3120043Y1244000D01*
X6119378Y1244000D01*
X6151065Y1153443D01*
X6151066Y1153441D01*
X6228934Y1047935D01*
X6334438Y970069D01*
X6458219Y926756D01*
X6474999Y925183D01*
X6975000Y925183D01*
X6991780Y926756D01*
X7115561Y970069D01*
X7221065Y1047935D01*
X7298933Y1153441D01*
X7298934Y1153443D01*
X7330621Y1244000D01*
X6975000Y1244000D01*
X6975000Y925183D01*
X6474999Y925183D01*
X6475000Y925184D01*
X6475000Y1244000D01*
X6119378Y1244000D01*
X3120043Y1244000D01*
X3142839Y1275376D01*
X3155051Y1292184D01*
X3251557Y1481588D01*
X3317246Y1683757D01*
X3350500Y1893713D01*
X3350500Y2106287D01*
X3317246Y2316243D01*
X3251557Y2518412D01*
X3155051Y2707816D01*
X3155049Y2707819D01*
X3155048Y2707821D01*
X3030109Y2879787D01*
X2879786Y3030110D01*
X2707820Y3155049D01*
X2518414Y3251556D01*
X2518413Y3251557D01*
X2518412Y3251557D01*
X2498367Y3258070D01*
X2440694Y3297506D01*
X2413495Y3361865D01*
X2425410Y3430711D01*
X2472654Y3482187D01*
X2536687Y3500000D01*
X2843054Y3500000D01*
X2931446Y3510615D01*
X3034998Y3551450D01*
X2050000Y4536448D01*
X1065001Y3551451D01*
X1065001Y3551450D01*
X1168555Y3510615D01*
X1256946Y3500000D01*
X1463313Y3500000D01*
X1530352Y3480315D01*
X1576107Y3427511D01*
X1586051Y3358353D01*
X1557026Y3294797D01*
X1501632Y3258070D01*
X1481588Y3251557D01*
X1481585Y3251556D01*
X1292179Y3155049D01*
X1120213Y3030110D01*
X969890Y2879787D01*
X844951Y2707821D01*
X748444Y2518415D01*
X748443Y2518413D01*
X748443Y2518412D01*
X731776Y2467116D01*
X682753Y2316240D01*
X655852Y2146394D01*
X649500Y2106287D01*
X300500Y2106287D01*
X300500Y5773061D01*
X750000Y5773061D01*
X750000Y4006940D01*
X756795Y3950350D01*
X756796Y3950349D01*
X1696448Y4890000D01*
X1696448Y4890001D01*
X2403552Y4890001D01*
X2403552Y4890000D01*
X3343203Y3950349D01*
X3350000Y4006940D01*
X3350000Y5773062D01*
X3343203Y5829653D01*
X2403552Y4890001D01*
X1696448Y4890001D01*
X756796Y5829653D01*
X756795Y5829652D01*
X750000Y5773061D01*
X300500Y5773061D01*
X300500Y6228552D01*
X1065000Y6228552D01*
X2050000Y5243552D01*
X2050001Y5243552D01*
X3034998Y6228551D01*
X2931443Y6269387D01*
X2843054Y6280000D01*
X1256946Y6280000D01*
X1168555Y6269386D01*
X1168554Y6269386D01*
X1065000Y6228552D01*
X300500Y6228552D01*
X300500Y15993061D01*
X750000Y15993061D01*
X750000Y14226940D01*
X756795Y14170350D01*
X756796Y14170349D01*
X1696448Y15110000D01*
X1696448Y15110001D01*
X756796Y16049653D01*
X756795Y16049652D01*
X750000Y15993061D01*
X300500Y15993061D01*
X300500Y17995573D01*
X300816Y18004419D01*
X308102Y18106287D01*
X649500Y18106287D01*
X649500Y17893713D01*
X652213Y17876582D01*
X682165Y17687472D01*
X682754Y17683757D01*
X747394Y17484815D01*
X748444Y17481586D01*
X844951Y17292180D01*
X969890Y17120214D01*
X1120213Y16969891D01*
X1292179Y16844952D01*
X1292181Y16844951D01*
X1292184Y16844949D01*
X1481588Y16748443D01*
X1501632Y16741931D01*
X1559306Y16702494D01*
X1586505Y16638135D01*
X1574590Y16569289D01*
X1527346Y16517813D01*
X1463313Y16500000D01*
X1256946Y16500000D01*
X1168555Y16489386D01*
X1168554Y16489386D01*
X1065000Y16448552D01*
X2050000Y15463552D01*
X2050001Y15463552D01*
X3034998Y16448551D01*
X2931443Y16489387D01*
X2843054Y16500000D01*
X2536687Y16500000D01*
X2469648Y16519685D01*
X2423893Y16572489D01*
X2413949Y16641647D01*
X2442974Y16705203D01*
X2498367Y16741931D01*
X2518412Y16748443D01*
X2707816Y16844949D01*
X2765488Y16886850D01*
X2879786Y16969891D01*
X2879788Y16969894D01*
X2879792Y16969896D01*
X3030104Y17120208D01*
X3030106Y17120212D01*
X3030109Y17120214D01*
X3145836Y17279500D01*
X3155051Y17292184D01*
X3251557Y17481588D01*
X3317246Y17683757D01*
X3350500Y17893713D01*
X3350500Y17905001D01*
X4056181Y17905001D01*
X4056182Y17905000D01*
X4375000Y17905000D01*
X4375000Y18260622D01*
X4374999Y18260622D01*
X4284442Y18228935D01*
X4284440Y18228934D01*
X4178934Y18151066D01*
X4101066Y18045560D01*
X4101065Y18045558D01*
X4057755Y17921788D01*
X4057755Y17921786D01*
X4056181Y17905001D01*
X3350500Y17905001D01*
X3350500Y18106287D01*
X3317246Y18316243D01*
X3251557Y18518412D01*
X3155051Y18707816D01*
X3155049Y18707819D01*
X3155048Y18707821D01*
X3030109Y18879787D01*
X2885217Y19024679D01*
X12389500Y19024679D01*
X12389500Y17275322D01*
X12404032Y17202265D01*
X12404033Y17202261D01*
X12404034Y17202260D01*
X12459399Y17119399D01*
X12524925Y17075617D01*
X12542260Y17064034D01*
X12542264Y17064033D01*
X12615321Y17049501D01*
X12615324Y17049500D01*
X12615326Y17049500D01*
X13814676Y17049500D01*
X13814677Y17049501D01*
X13887740Y17064034D01*
X13970601Y17119399D01*
X14025966Y17202260D01*
X14036500Y17255215D01*
X16690001Y17255215D01*
X16690002Y17255192D01*
X16692908Y17230131D01*
X16692909Y17230127D01*
X16738211Y17127526D01*
X16738214Y17127521D01*
X16817520Y17048215D01*
X16817525Y17048212D01*
X16920123Y17002911D01*
X16945206Y17000001D01*
X17314999Y17000001D01*
X17815000Y17000001D01*
X18184786Y17000001D01*
X18184808Y17000003D01*
X18209869Y17002909D01*
X18209873Y17002910D01*
X18312474Y17048212D01*
X18312479Y17048215D01*
X18391785Y17127521D01*
X18391788Y17127526D01*
X18437089Y17230123D01*
X18437089Y17230125D01*
X18439999Y17255206D01*
X18440000Y17255209D01*
X18440000Y17900000D01*
X17815000Y17900000D01*
X17815000Y17000001D01*
X17314999Y17000001D01*
X17315000Y17000002D01*
X17315000Y17900000D01*
X16690001Y17900000D01*
X16690001Y17255215D01*
X14036500Y17255215D01*
X14040500Y17275326D01*
X14040500Y17575500D01*
X14043050Y17584186D01*
X14041762Y17593147D01*
X14052740Y17617188D01*
X14060185Y17642539D01*
X14067025Y17648467D01*
X14070787Y17656703D01*
X14093021Y17670993D01*
X14112989Y17688294D01*
X14123503Y17690582D01*
X14129565Y17694477D01*
X14164500Y17699500D01*
X14396064Y17699500D01*
X14458063Y17682888D01*
X14537515Y17637016D01*
X14677525Y17599500D01*
X14677528Y17599500D01*
X14822472Y17599500D01*
X14822475Y17599500D01*
X14962485Y17637016D01*
X15088015Y17709491D01*
X15190509Y17811985D01*
X15262984Y17937515D01*
X15300500Y18077525D01*
X15300500Y18222475D01*
X15262984Y18362485D01*
X15235936Y18409333D01*
X15190511Y18488012D01*
X15190506Y18488018D01*
X15088017Y18590507D01*
X15088011Y18590512D01*
X14962488Y18662983D01*
X14962489Y18662983D01*
X14925146Y18672989D01*
X14822475Y18700500D01*
X14677525Y18700500D01*
X14537515Y18662984D01*
X14458063Y18617113D01*
X14442575Y18612963D01*
X14430999Y18605523D01*
X14396064Y18600500D01*
X14164500Y18600500D01*
X14097461Y18620185D01*
X14051706Y18672989D01*
X14040500Y18724500D01*
X14040500Y19024677D01*
X14036498Y19044795D01*
X16690000Y19044795D01*
X16690000Y18400000D01*
X17315000Y18400000D01*
X17815000Y18400000D01*
X18439999Y18400000D01*
X18439999Y19044786D01*
X18439997Y19044809D01*
X18437091Y19069870D01*
X18437090Y19069874D01*
X18391788Y19172475D01*
X18391785Y19172480D01*
X18312479Y19251786D01*
X18312474Y19251789D01*
X18209876Y19297090D01*
X18184794Y19300000D01*
X17815000Y19300000D01*
X17815000Y18400000D01*
X17315000Y18400000D01*
X17315000Y19300000D01*
X16945214Y19300000D01*
X16945191Y19299998D01*
X16920130Y19297092D01*
X16920126Y19297091D01*
X16817525Y19251789D01*
X16817520Y19251786D01*
X16738214Y19172480D01*
X16738211Y19172475D01*
X16692910Y19069878D01*
X16692910Y19069876D01*
X16690000Y19044795D01*
X14036498Y19044795D01*
X14025967Y19097736D01*
X14025966Y19097740D01*
X14020556Y19105837D01*
X13970601Y19180601D01*
X13887740Y19235966D01*
X13887739Y19235967D01*
X13887735Y19235968D01*
X13814677Y19250500D01*
X13814674Y19250500D01*
X12615326Y19250500D01*
X12615323Y19250500D01*
X12542264Y19235968D01*
X12542260Y19235967D01*
X12459399Y19180601D01*
X12404033Y19097740D01*
X12404032Y19097736D01*
X12389500Y19024679D01*
X2885217Y19024679D01*
X2879786Y19030110D01*
X2707820Y19155049D01*
X2518414Y19251556D01*
X2518413Y19251557D01*
X2518412Y19251557D01*
X2316243Y19317246D01*
X2316241Y19317247D01*
X2316240Y19317247D01*
X2154957Y19342792D01*
X2106287Y19350500D01*
X1893713Y19350500D01*
X1845042Y19342792D01*
X1683760Y19317247D01*
X1481585Y19251556D01*
X1292179Y19155049D01*
X1120213Y19030110D01*
X969890Y18879787D01*
X844951Y18707821D01*
X748444Y18518415D01*
X682753Y18316240D01*
X654232Y18136166D01*
X649500Y18106287D01*
X308102Y18106287D01*
X309083Y18120005D01*
X309083Y18120006D01*
X316411Y18222475D01*
X317165Y18233021D01*
X319683Y18250530D01*
X367459Y18470149D01*
X372436Y18487100D01*
X450985Y18697701D01*
X458325Y18713773D01*
X566044Y18911044D01*
X575600Y18925914D01*
X710294Y19105844D01*
X721868Y19119201D01*
X880799Y19278132D01*
X894156Y19289706D01*
X1074086Y19424400D01*
X1088956Y19433956D01*
X1286227Y19541675D01*
X1302299Y19549015D01*
X1512900Y19627564D01*
X1529851Y19632541D01*
X1749472Y19680318D01*
X1766977Y19682835D01*
X1995582Y19699184D01*
X2004428Y19699500D01*
X2047595Y19699500D01*
X21947747Y19699500D01*
X22014786Y19679815D01*
G37*
%TD.AperFunction*%
%TA.AperFunction,Conductor*%
G36*
X37756186Y9446950D02*
G01*
X37765148Y9448238D01*
X37789188Y9437260D01*
X37814540Y9429815D01*
X37820467Y9422975D01*
X37828704Y9419213D01*
X37842993Y9396979D01*
X37860295Y9377011D01*
X37862582Y9366497D01*
X37866478Y9360435D01*
X37871501Y9325500D01*
X37871501Y9318482D01*
X37886354Y9224696D01*
X37943950Y9111658D01*
X37943952Y9111656D01*
X37943954Y9111653D01*
X37967926Y9087681D01*
X38001411Y9026358D01*
X37996427Y8956666D01*
X37967926Y8912319D01*
X37943954Y8888348D01*
X37943951Y8888343D01*
X37943950Y8888342D01*
X37927278Y8855621D01*
X37886352Y8775302D01*
X37871500Y8681525D01*
X37871500Y8318483D01*
X37879830Y8265892D01*
X37886354Y8224696D01*
X37943950Y8111658D01*
X37943951Y8111657D01*
X37943954Y8111652D01*
X37944895Y8110356D01*
X37945550Y8108518D01*
X37948381Y8102963D01*
X37947662Y8102597D01*
X37968369Y8044547D01*
X37952538Y7976495D01*
X37944341Y7963846D01*
X37869654Y7862649D01*
X37869652Y7862646D01*
X37830237Y7750000D01*
X38772999Y7750000D01*
X38840038Y7730315D01*
X38885793Y7677511D01*
X38896999Y7626000D01*
X38896999Y7500000D01*
X39022999Y7500000D01*
X39090038Y7480315D01*
X39135793Y7427511D01*
X39146999Y7376000D01*
X39146999Y6900001D01*
X39576195Y6900001D01*
X39606605Y6902852D01*
X39684546Y6930124D01*
X39710720Y6931460D01*
X39736419Y6936600D01*
X39745057Y6933213D01*
X39754325Y6933685D01*
X39777065Y6920659D01*
X39801465Y6911089D01*
X39806900Y6903569D01*
X39814952Y6898956D01*
X39827040Y6875703D01*
X39842392Y6854461D01*
X39844518Y6842080D01*
X39847179Y6836962D01*
X39849315Y6819852D01*
X39849500Y6816469D01*
X39849500Y6815892D01*
X39849500Y6684108D01*
X39858592Y6650173D01*
X39859297Y6637297D01*
X39855257Y6620120D01*
X39855257Y6598435D01*
X39837989Y6533988D01*
X39837989Y6533986D01*
X39837989Y6389036D01*
X39872238Y6261220D01*
X39875506Y6249023D01*
X39947977Y6123500D01*
X39947982Y6123494D01*
X40052614Y6018862D01*
X40086099Y5957539D01*
X40081115Y5887847D01*
X40052615Y5843500D01*
X39968414Y5759299D01*
X39895943Y5633776D01*
X39895942Y5633772D01*
X39858426Y5493762D01*
X39858426Y5348812D01*
X39890449Y5229303D01*
X39895943Y5208799D01*
X39968414Y5083276D01*
X39968416Y5083274D01*
X39968417Y5083272D01*
X40070911Y4980778D01*
X40070912Y4980777D01*
X40070914Y4980776D01*
X40196437Y4908305D01*
X40196438Y4908305D01*
X40196441Y4908303D01*
X40336451Y4870787D01*
X40336454Y4870787D01*
X40481398Y4870787D01*
X40481401Y4870787D01*
X40621411Y4908303D01*
X40746941Y4980778D01*
X40849435Y5083272D01*
X40921910Y5208802D01*
X40959426Y5348812D01*
X40959426Y5354034D01*
X40979111Y5421073D01*
X40995741Y5441711D01*
X41412478Y5858449D01*
X41473799Y5891932D01*
X41543490Y5886948D01*
X41599424Y5845077D01*
X41623447Y5784021D01*
X41627909Y5742517D01*
X41678202Y5607672D01*
X41678206Y5607665D01*
X41764452Y5492456D01*
X41764455Y5492453D01*
X41879664Y5406207D01*
X41879671Y5406203D01*
X42014517Y5355909D01*
X42014516Y5355909D01*
X42021444Y5355165D01*
X42074127Y5349500D01*
X43469872Y5349501D01*
X43529483Y5355909D01*
X43532165Y5356909D01*
X43534391Y5357069D01*
X43537031Y5357692D01*
X43537132Y5357265D01*
X43601857Y5361894D01*
X43663180Y5328410D01*
X43696666Y5267087D01*
X43699500Y5240728D01*
X43699500Y2004428D01*
X43699184Y1995582D01*
X43682834Y1766983D01*
X43680316Y1749471D01*
X43632543Y1529863D01*
X43627559Y1512888D01*
X43549019Y1302312D01*
X43541669Y1286218D01*
X43433959Y1088964D01*
X43424394Y1074081D01*
X43289710Y894164D01*
X43278124Y880793D01*
X43250476Y853145D01*
X43189153Y819660D01*
X43119461Y824644D01*
X43063528Y866516D01*
X43039111Y931980D01*
X43049361Y990912D01*
X43071088Y1040121D01*
X43071089Y1040125D01*
X43073999Y1065206D01*
X43074000Y1065209D01*
X43074000Y1710000D01*
X42449000Y1710000D01*
X42449000Y810001D01*
X42818786Y810001D01*
X42818808Y810003D01*
X42853141Y813984D01*
X42853301Y812604D01*
X42855708Y812556D01*
X42867181Y816834D01*
X42889986Y811873D01*
X42913321Y811408D01*
X42923488Y804585D01*
X42935454Y801981D01*
X42951957Y785478D01*
X42971336Y772471D01*
X42976200Y761234D01*
X42984858Y752575D01*
X42989818Y729770D01*
X42999090Y708350D01*
X42997106Y696267D01*
X42999709Y684302D01*
X42991552Y662436D01*
X42987772Y639403D01*
X42978969Y628701D01*
X42975291Y618838D01*
X42950334Y593882D01*
X42925918Y575605D01*
X42911036Y566041D01*
X42713782Y458331D01*
X42697688Y450981D01*
X42487112Y372441D01*
X42470137Y367457D01*
X42250529Y319684D01*
X42233017Y317166D01*
X42004418Y300816D01*
X41995572Y300500D01*
X36223500Y300500D01*
X36156461Y320185D01*
X36110706Y372989D01*
X36099500Y424500D01*
X36099500Y1106469D01*
X36099499Y1106471D01*
X36084967Y1179528D01*
X36084966Y1179532D01*
X36077848Y1190185D01*
X36029601Y1262393D01*
X35946740Y1317758D01*
X35946739Y1317759D01*
X35946735Y1317760D01*
X35873677Y1332292D01*
X35873674Y1332292D01*
X34824326Y1332292D01*
X34824323Y1332292D01*
X34751264Y1317760D01*
X34751260Y1317759D01*
X34668399Y1262393D01*
X34613033Y1179532D01*
X34613032Y1179528D01*
X34598500Y1106471D01*
X34598500Y424500D01*
X34578815Y357461D01*
X34526011Y311706D01*
X34474500Y300500D01*
X28923500Y300500D01*
X28856461Y320185D01*
X28810706Y372989D01*
X28799500Y424500D01*
X28799500Y1106469D01*
X28799499Y1106471D01*
X28784967Y1179528D01*
X28784966Y1179530D01*
X28784966Y1179532D01*
X28774363Y1195400D01*
X28753486Y1262077D01*
X28771971Y1329457D01*
X28789785Y1351971D01*
X29030355Y1592541D01*
X29286819Y1849007D01*
X29348142Y1882491D01*
X29417833Y1877507D01*
X29473767Y1835636D01*
X29498184Y1770171D01*
X29498500Y1761325D01*
X29498500Y1712799D01*
X29498500Y1712797D01*
X29498499Y1712797D01*
X29525418Y1577470D01*
X29525421Y1577460D01*
X29578221Y1449988D01*
X29578228Y1449975D01*
X29654885Y1335251D01*
X29654888Y1335247D01*
X29752454Y1237681D01*
X29752458Y1237678D01*
X29867182Y1161021D01*
X29867195Y1161014D01*
X29965711Y1120208D01*
X29994672Y1108212D01*
X29994676Y1108212D01*
X29994677Y1108211D01*
X30130004Y1081292D01*
X30130007Y1081292D01*
X30267995Y1081292D01*
X30394575Y1106471D01*
X30403328Y1108212D01*
X30530811Y1161017D01*
X30645542Y1237678D01*
X30743114Y1335250D01*
X30819775Y1449981D01*
X30872580Y1577464D01*
X30886055Y1645206D01*
X30899500Y1712797D01*
X30899500Y1850788D01*
X30872581Y1986115D01*
X30872580Y1986116D01*
X30872580Y1986120D01*
X30864997Y2004428D01*
X30819778Y2113597D01*
X30819771Y2113610D01*
X30743114Y2228334D01*
X30743111Y2228338D01*
X30645545Y2325904D01*
X30645541Y2325907D01*
X30530817Y2402564D01*
X30530804Y2402571D01*
X30403332Y2455371D01*
X30403322Y2455374D01*
X30267995Y2482292D01*
X30267993Y2482292D01*
X30130007Y2482292D01*
X30125460Y2482292D01*
X30058421Y2501977D01*
X30012666Y2554781D01*
X30002722Y2623939D01*
X30022358Y2675183D01*
X30034966Y2694052D01*
X30049500Y2767118D01*
X30049500Y4316466D01*
X30049500Y4316469D01*
X30049499Y4316471D01*
X30034967Y4389528D01*
X30034966Y4389532D01*
X30029848Y4397192D01*
X29979601Y4472393D01*
X29924235Y4509387D01*
X29896739Y4527759D01*
X29896735Y4527760D01*
X29823677Y4542292D01*
X29823674Y4542292D01*
X29099500Y4542292D01*
X29090814Y4544843D01*
X29081853Y4543554D01*
X29057812Y4554533D01*
X29032461Y4561977D01*
X29026533Y4568818D01*
X29018297Y4572579D01*
X29004007Y4594814D01*
X28986706Y4614781D01*
X28984418Y4625296D01*
X28980523Y4631357D01*
X28975500Y4666292D01*
X28975500Y4910500D01*
X28995185Y4977539D01*
X29047989Y5023294D01*
X29099500Y5034500D01*
X31774500Y5034500D01*
X31841539Y5014815D01*
X31887294Y4962011D01*
X31898500Y4910500D01*
X31898500Y4480226D01*
X31878815Y4413187D01*
X31877623Y4411367D01*
X31871117Y4401630D01*
X31863033Y4389531D01*
X31848500Y4316469D01*
X31848500Y2767114D01*
X31863032Y2694057D01*
X31863033Y2694053D01*
X31863034Y2694052D01*
X31918399Y2611191D01*
X32001260Y2555826D01*
X32001264Y2555825D01*
X32074321Y2541293D01*
X32074324Y2541292D01*
X32668481Y2541292D01*
X32735520Y2521607D01*
X32781275Y2468803D01*
X32791219Y2399645D01*
X32762194Y2336089D01*
X32756162Y2329611D01*
X32654888Y2228338D01*
X32654885Y2228334D01*
X32578228Y2113610D01*
X32578221Y2113597D01*
X32525421Y1986125D01*
X32525418Y1986115D01*
X32498500Y1850788D01*
X32498500Y1850785D01*
X32498500Y1712799D01*
X32498500Y1712797D01*
X32498499Y1712797D01*
X32525418Y1577470D01*
X32525421Y1577460D01*
X32578221Y1449988D01*
X32578228Y1449975D01*
X32654885Y1335251D01*
X32654888Y1335247D01*
X32752454Y1237681D01*
X32752458Y1237678D01*
X32867182Y1161021D01*
X32867195Y1161014D01*
X32965711Y1120208D01*
X32994672Y1108212D01*
X32994676Y1108212D01*
X32994677Y1108211D01*
X33130004Y1081292D01*
X33130007Y1081292D01*
X33267995Y1081292D01*
X33394575Y1106471D01*
X33403328Y1108212D01*
X33530811Y1161017D01*
X33645542Y1237678D01*
X33743114Y1335250D01*
X33819775Y1449981D01*
X33872580Y1577464D01*
X33886055Y1645206D01*
X33899500Y1712797D01*
X33899500Y1850788D01*
X33872581Y1986115D01*
X33872580Y1986116D01*
X33872580Y1986120D01*
X33864997Y2004428D01*
X33819778Y2113597D01*
X33819771Y2113610D01*
X33743114Y2228334D01*
X33743111Y2228338D01*
X33641838Y2329611D01*
X33608353Y2390934D01*
X33613337Y2460626D01*
X33655209Y2516559D01*
X33720673Y2540976D01*
X33729519Y2541292D01*
X34323676Y2541292D01*
X34323677Y2541293D01*
X34396740Y2555826D01*
X34405828Y2561899D01*
X34472503Y2582777D01*
X34539884Y2564294D01*
X34586575Y2512316D01*
X34598122Y2470955D01*
X34598500Y2467111D01*
X34613032Y2394057D01*
X34613033Y2394053D01*
X34630418Y2368035D01*
X34668399Y2311191D01*
X34733820Y2267479D01*
X34751260Y2255826D01*
X34751264Y2255825D01*
X34824321Y2241293D01*
X34824324Y2241292D01*
X34824326Y2241292D01*
X35873676Y2241292D01*
X35873677Y2241293D01*
X35946740Y2255826D01*
X36029601Y2311191D01*
X36084966Y2394052D01*
X36099500Y2467118D01*
X36099500Y2834679D01*
X37023500Y2834679D01*
X37023500Y1085322D01*
X37038032Y1012265D01*
X37038033Y1012261D01*
X37049089Y995714D01*
X37093399Y929399D01*
X37166144Y880793D01*
X37176260Y874034D01*
X37176264Y874033D01*
X37249321Y859501D01*
X37249324Y859500D01*
X37249326Y859500D01*
X38448676Y859500D01*
X38448677Y859501D01*
X38521740Y874034D01*
X38604601Y929399D01*
X38659966Y1012260D01*
X38670500Y1065215D01*
X41324001Y1065215D01*
X41324002Y1065192D01*
X41326908Y1040131D01*
X41326909Y1040127D01*
X41372211Y937526D01*
X41372214Y937521D01*
X41451520Y858215D01*
X41451525Y858212D01*
X41554123Y812911D01*
X41579206Y810001D01*
X41948999Y810001D01*
X41949000Y810002D01*
X41949000Y1710000D01*
X41324001Y1710000D01*
X41324001Y1065215D01*
X38670500Y1065215D01*
X38674500Y1085326D01*
X38674500Y1494614D01*
X38694185Y1561653D01*
X38710819Y1582295D01*
X38721065Y1592541D01*
X38740509Y1611985D01*
X38812984Y1737515D01*
X38850500Y1877525D01*
X38850500Y2022475D01*
X38812984Y2162485D01*
X38812057Y2164090D01*
X38740511Y2288012D01*
X38740506Y2288018D01*
X38710819Y2317705D01*
X38677334Y2379028D01*
X38674500Y2405386D01*
X38674500Y2834677D01*
X38670498Y2854795D01*
X41324000Y2854795D01*
X41324000Y2210000D01*
X41949000Y2210000D01*
X42449000Y2210000D01*
X43073999Y2210000D01*
X43073999Y2854786D01*
X43073997Y2854809D01*
X43071091Y2879870D01*
X43071090Y2879874D01*
X43025788Y2982475D01*
X43025785Y2982480D01*
X42946479Y3061786D01*
X42946474Y3061789D01*
X42843876Y3107090D01*
X42818794Y3110000D01*
X42449000Y3110000D01*
X42449000Y2210000D01*
X41949000Y2210000D01*
X41949000Y3110000D01*
X41579214Y3110000D01*
X41579191Y3109998D01*
X41554130Y3107092D01*
X41554126Y3107091D01*
X41451525Y3061789D01*
X41451520Y3061786D01*
X41372214Y2982480D01*
X41372211Y2982475D01*
X41326910Y2879878D01*
X41326910Y2879876D01*
X41324000Y2854795D01*
X38670498Y2854795D01*
X38659967Y2907736D01*
X38659966Y2907740D01*
X38647886Y2925819D01*
X38604601Y2990601D01*
X38545471Y3030110D01*
X38521739Y3045967D01*
X38521735Y3045968D01*
X38448677Y3060500D01*
X38448674Y3060500D01*
X37249326Y3060500D01*
X37249323Y3060500D01*
X37176264Y3045968D01*
X37176260Y3045967D01*
X37093399Y2990601D01*
X37038033Y2907740D01*
X37038032Y2907736D01*
X37023500Y2834679D01*
X36099500Y2834679D01*
X36099500Y3316466D01*
X36099500Y3316469D01*
X36099499Y3316471D01*
X36084967Y3389528D01*
X36084966Y3389532D01*
X36081830Y3394225D01*
X36029601Y3472393D01*
X35962778Y3517042D01*
X35946739Y3527759D01*
X35946735Y3527760D01*
X35873677Y3542292D01*
X35873674Y3542292D01*
X35324557Y3542292D01*
X35257518Y3561977D01*
X35211763Y3614781D01*
X35201819Y3683939D01*
X35204778Y3698369D01*
X35230693Y3795082D01*
X35230693Y3940032D01*
X35193177Y4080042D01*
X35187884Y4089209D01*
X35120704Y4205569D01*
X35120699Y4205575D01*
X35018210Y4308064D01*
X35018208Y4308066D01*
X34917725Y4366080D01*
X34896882Y4378114D01*
X34848667Y4428682D01*
X34835445Y4497289D01*
X34861413Y4562153D01*
X34918327Y4602681D01*
X34958878Y4609501D01*
X35372872Y4609501D01*
X35432483Y4615909D01*
X35567331Y4666204D01*
X35682546Y4752454D01*
X35768796Y4867669D01*
X35819091Y5002517D01*
X35825500Y5062127D01*
X35825500Y5066947D01*
X36175000Y5066947D01*
X36185613Y4978557D01*
X36241079Y4837905D01*
X36332435Y4717436D01*
X36452904Y4626080D01*
X36593556Y4570614D01*
X36681946Y4560000D01*
X36725000Y4560000D01*
X37225000Y4560000D01*
X37268054Y4560000D01*
X37356443Y4570614D01*
X37497095Y4626080D01*
X37617564Y4717436D01*
X37708920Y4837905D01*
X37764386Y4978557D01*
X37775000Y5066947D01*
X37775000Y5335000D01*
X37225000Y5335000D01*
X37225000Y4560000D01*
X36725000Y4560000D01*
X36725000Y5335000D01*
X36175000Y5335000D01*
X36175000Y5066947D01*
X35825500Y5066947D01*
X35825499Y5592997D01*
X35825499Y6107871D01*
X35825498Y6107877D01*
X35825133Y6111270D01*
X35819091Y6167483D01*
X35817241Y6172442D01*
X35768797Y6302329D01*
X35768793Y6302336D01*
X35682547Y6417545D01*
X35682544Y6417548D01*
X35567335Y6503794D01*
X35567328Y6503798D01*
X35432486Y6554090D01*
X35432485Y6554091D01*
X35432483Y6554091D01*
X35372873Y6560500D01*
X35372863Y6560500D01*
X34777129Y6560500D01*
X34777123Y6560499D01*
X34717516Y6554092D01*
X34582671Y6503798D01*
X34582664Y6503794D01*
X34467455Y6417548D01*
X34467452Y6417545D01*
X34381206Y6302336D01*
X34381203Y6302331D01*
X34349066Y6216166D01*
X34307194Y6160233D01*
X34241730Y6135816D01*
X34232884Y6135500D01*
X31187256Y6135500D01*
X31120217Y6155185D01*
X31074462Y6207989D01*
X31064518Y6277147D01*
X31093543Y6340703D01*
X31152321Y6378477D01*
X31152661Y6378576D01*
X31220392Y6398254D01*
X31220393Y6398255D01*
X31220397Y6398256D01*
X31361864Y6481919D01*
X31478080Y6598135D01*
X31561743Y6739602D01*
X31607597Y6897431D01*
X31610499Y6934306D01*
X31610499Y7465694D01*
X31607597Y7502569D01*
X31603985Y7515000D01*
X31570781Y7629289D01*
X31561743Y7660398D01*
X31527898Y7717626D01*
X31510716Y7785349D01*
X31532876Y7851612D01*
X31546945Y7868422D01*
X31590509Y7911985D01*
X31662984Y8037515D01*
X31700500Y8177525D01*
X31700500Y8322475D01*
X31667828Y8444408D01*
X31669491Y8514256D01*
X31708653Y8572119D01*
X31772882Y8599623D01*
X31787603Y8600500D01*
X34716744Y8600500D01*
X34783783Y8580815D01*
X34804425Y8564181D01*
X35206425Y8162181D01*
X35239910Y8100858D01*
X35234926Y8031166D01*
X35193054Y7975233D01*
X35127590Y7950816D01*
X35118744Y7950500D01*
X35027525Y7950500D01*
X34898993Y7916060D01*
X34887511Y7912983D01*
X34761988Y7840512D01*
X34761982Y7840507D01*
X34659493Y7738018D01*
X34659488Y7738012D01*
X34587017Y7612489D01*
X34587016Y7612485D01*
X34549500Y7472475D01*
X34549500Y7327525D01*
X34584766Y7195913D01*
X34587017Y7187512D01*
X34659488Y7061989D01*
X34659490Y7061987D01*
X34659491Y7061985D01*
X34761985Y6959491D01*
X34761986Y6959490D01*
X34761988Y6959489D01*
X34887511Y6887018D01*
X34887512Y6887018D01*
X34887515Y6887016D01*
X35027525Y6849500D01*
X35027528Y6849500D01*
X35172472Y6849500D01*
X35172475Y6849500D01*
X35177639Y6850884D01*
X35247485Y6849228D01*
X35264196Y6842514D01*
X35268483Y6840418D01*
X35343419Y6829500D01*
X35343424Y6829500D01*
X35686578Y6829500D01*
X35686583Y6829500D01*
X35761519Y6840418D01*
X35833695Y6875703D01*
X35877100Y6896922D01*
X35877103Y6896924D01*
X35937319Y6957139D01*
X35998642Y6990624D01*
X36068334Y6985640D01*
X36112681Y6957139D01*
X36172896Y6896924D01*
X36172899Y6896922D01*
X36270460Y6849228D01*
X36288481Y6840418D01*
X36363417Y6829500D01*
X36363422Y6829500D01*
X36524633Y6829500D01*
X36591672Y6809815D01*
X36637427Y6757011D01*
X36647371Y6687853D01*
X36618346Y6624297D01*
X36570123Y6590145D01*
X36452904Y6543921D01*
X36332435Y6452565D01*
X36241079Y6332096D01*
X36185613Y6191444D01*
X36175000Y6103054D01*
X36175000Y5835000D01*
X36725000Y5835000D01*
X37225000Y5835000D01*
X37775000Y5835000D01*
X37775000Y6103054D01*
X37764386Y6191444D01*
X37708920Y6332096D01*
X37617564Y6452565D01*
X37497095Y6543921D01*
X37356443Y6599387D01*
X37268054Y6610000D01*
X37225000Y6610000D01*
X37225000Y5835000D01*
X36725000Y5835000D01*
X36725000Y6610000D01*
X36705825Y6629175D01*
X36672340Y6690498D01*
X36677324Y6760190D01*
X36719196Y6816123D01*
X36775628Y6839561D01*
X36781517Y6840418D01*
X36781518Y6840419D01*
X36781520Y6840419D01*
X36897098Y6896922D01*
X36897101Y6896924D01*
X36988075Y6987898D01*
X36988077Y6987901D01*
X37039082Y7092234D01*
X37044581Y7103482D01*
X37055499Y7178418D01*
X37055499Y7250000D01*
X37830237Y7250000D01*
X37869652Y7137355D01*
X37950206Y7028208D01*
X38059353Y6947654D01*
X38187396Y6902851D01*
X38217791Y6900001D01*
X38646998Y6900001D01*
X38646999Y6900002D01*
X38646999Y7250000D01*
X37830237Y7250000D01*
X37055499Y7250000D01*
X37055499Y7621582D01*
X37044581Y7696518D01*
X37034262Y7717625D01*
X36988077Y7812100D01*
X36988075Y7812103D01*
X36897101Y7903077D01*
X36897098Y7903079D01*
X36781520Y7959581D01*
X36781518Y7959582D01*
X36781517Y7959582D01*
X36706581Y7970500D01*
X36706576Y7970500D01*
X36582254Y7970500D01*
X36515215Y7990185D01*
X36494573Y8006819D01*
X35263573Y9237819D01*
X35230088Y9299142D01*
X35235072Y9368834D01*
X35276944Y9424767D01*
X35342408Y9449184D01*
X35351254Y9449500D01*
X37747501Y9449500D01*
X37756186Y9446950D01*
G37*
%TD.AperFunction*%
%TA.AperFunction,Conductor*%
G36*
X22117777Y6607002D02*
G01*
X22142074Y6604828D01*
X22153683Y6597220D01*
X22161656Y6595048D01*
X22168380Y6587589D01*
X22184358Y6577118D01*
X22201985Y6559491D01*
X22201986Y6559490D01*
X22201988Y6559489D01*
X22327511Y6487018D01*
X22327512Y6487018D01*
X22327515Y6487016D01*
X22467525Y6449500D01*
X22467528Y6449500D01*
X22612474Y6449500D01*
X22612475Y6449500D01*
X22622092Y6452077D01*
X22691939Y6450418D01*
X22749804Y6411258D01*
X22765589Y6386765D01*
X22791923Y6332899D01*
X22791923Y6332898D01*
X22882897Y6241924D01*
X22882900Y6241922D01*
X22974353Y6197214D01*
X22998482Y6185418D01*
X23073418Y6174500D01*
X23073423Y6174500D01*
X23416577Y6174500D01*
X23416582Y6174500D01*
X23491518Y6185418D01*
X23557459Y6217655D01*
X23607099Y6241922D01*
X23607102Y6241924D01*
X23667318Y6302139D01*
X23728641Y6335624D01*
X23798333Y6330640D01*
X23842680Y6302139D01*
X23902895Y6241924D01*
X23902898Y6241922D01*
X24018471Y6185422D01*
X24018473Y6185422D01*
X24018480Y6185418D01*
X24018487Y6185417D01*
X24019923Y6184973D01*
X24021425Y6183978D01*
X24023638Y6182896D01*
X24026653Y6182680D01*
X24051890Y6163788D01*
X24078164Y6146376D01*
X24079643Y6143013D01*
X24082587Y6140809D01*
X24093604Y6111270D01*
X24106294Y6082419D01*
X24105719Y6078789D01*
X24107004Y6075345D01*
X24100305Y6044555D01*
X24095380Y6013407D01*
X24092704Y6009611D01*
X24092152Y6007072D01*
X24071002Y5978817D01*
X23948003Y5855818D01*
X23886682Y5822334D01*
X23860323Y5819500D01*
X22853482Y5819500D01*
X22772519Y5806677D01*
X22759696Y5804646D01*
X22646658Y5747050D01*
X22646657Y5747049D01*
X22646652Y5747046D01*
X22556954Y5657348D01*
X22556951Y5657343D01*
X22556950Y5657342D01*
X22537751Y5619663D01*
X22499352Y5544302D01*
X22484500Y5450525D01*
X22484500Y5087483D01*
X22495292Y5019343D01*
X22499354Y4993696D01*
X22542863Y4908305D01*
X22551806Y4890754D01*
X22564702Y4822084D01*
X22541091Y4760825D01*
X22482653Y4681646D01*
X22443238Y4569000D01*
X24351761Y4569000D01*
X24312346Y4681646D01*
X24308005Y4689859D01*
X24311172Y4691533D01*
X24293187Y4740697D01*
X24308468Y4808875D01*
X24354922Y4856150D01*
X24376314Y4868500D01*
X24564965Y5057152D01*
X24626287Y5090636D01*
X24695978Y5085652D01*
X24751912Y5043781D01*
X24769418Y5002358D01*
X24771337Y5002981D01*
X24774352Y4993700D01*
X24774353Y4993697D01*
X24774354Y4993696D01*
X24831950Y4880658D01*
X24831952Y4880656D01*
X24831954Y4880653D01*
X24921652Y4790955D01*
X24921654Y4790954D01*
X24921658Y4790950D01*
X25009518Y4746183D01*
X25034698Y4733353D01*
X25128475Y4718501D01*
X25128481Y4718500D01*
X26216518Y4718501D01*
X26310304Y4733354D01*
X26310312Y4733359D01*
X26312260Y4733991D01*
X26314779Y4734064D01*
X26319943Y4734881D01*
X26320048Y4734215D01*
X26382101Y4735994D01*
X26441938Y4699919D01*
X26472773Y4637222D01*
X26464815Y4567807D01*
X26438272Y4528383D01*
X25865709Y3955819D01*
X25804386Y3922334D01*
X25778028Y3919500D01*
X25415495Y3919500D01*
X25383402Y3923725D01*
X25357602Y3930638D01*
X25283475Y3950500D01*
X25138525Y3950500D01*
X25025229Y3920142D01*
X24998511Y3912983D01*
X24872988Y3840512D01*
X24872982Y3840507D01*
X24770493Y3738018D01*
X24770488Y3738012D01*
X24698017Y3612489D01*
X24698016Y3612485D01*
X24660500Y3472475D01*
X24660500Y3327525D01*
X24694182Y3201825D01*
X24698017Y3187512D01*
X24770488Y3061989D01*
X24770493Y3061983D01*
X24797421Y3035055D01*
X24820223Y3003672D01*
X24831948Y2980661D01*
X24831954Y2980653D01*
X24921652Y2890955D01*
X24921654Y2890954D01*
X24921658Y2890950D01*
X25032105Y2834674D01*
X25034698Y2833353D01*
X25128475Y2818501D01*
X25128481Y2818500D01*
X26216518Y2818501D01*
X26310304Y2833354D01*
X26423342Y2890950D01*
X26513050Y2980658D01*
X26570646Y3093696D01*
X26570646Y3093698D01*
X26570647Y3093699D01*
X26585499Y3187476D01*
X26585500Y3187481D01*
X26585499Y3350042D01*
X26605183Y3417081D01*
X26621813Y3437718D01*
X27371859Y4187762D01*
X27433182Y4221247D01*
X27459540Y4224081D01*
X27613152Y4224081D01*
X27613157Y4224081D01*
X27688093Y4234999D01*
X27760024Y4270164D01*
X27803674Y4291503D01*
X27803677Y4291505D01*
X27804356Y4292183D01*
X27805510Y4292814D01*
X27812038Y4297474D01*
X27812601Y4296686D01*
X27831283Y4306887D01*
X27857102Y4323479D01*
X27863302Y4324371D01*
X27865679Y4325668D01*
X27892037Y4328502D01*
X27958940Y4328502D01*
X28013400Y4315902D01*
X28104804Y4271218D01*
X28108482Y4269420D01*
X28183418Y4258502D01*
X28183423Y4258502D01*
X28626583Y4258502D01*
X28649682Y4261868D01*
X28701518Y4269420D01*
X28701518Y4269421D01*
X28706622Y4270164D01*
X28775799Y4260351D01*
X28828689Y4214696D01*
X28848500Y4147694D01*
X28848500Y3624935D01*
X28828815Y3557896D01*
X28776011Y3512141D01*
X28706853Y3502197D01*
X28655613Y3521830D01*
X28646741Y3527758D01*
X28646735Y3527760D01*
X28573677Y3542292D01*
X28573674Y3542292D01*
X27524326Y3542292D01*
X27524323Y3542292D01*
X27451264Y3527760D01*
X27451260Y3527759D01*
X27368399Y3472393D01*
X27313033Y3389532D01*
X27313032Y3389528D01*
X27298500Y3316471D01*
X27298500Y2467114D01*
X27313032Y2394057D01*
X27313035Y2394049D01*
X27355183Y2330970D01*
X27376061Y2264293D01*
X27357576Y2196913D01*
X27305597Y2150223D01*
X27299534Y2147519D01*
X27296816Y2146394D01*
X27182686Y2080500D01*
X27182683Y2080498D01*
X26309005Y1206819D01*
X26247682Y1173334D01*
X26221324Y1170500D01*
X23317062Y1170500D01*
X23250023Y1190185D01*
X23204268Y1242989D01*
X23196374Y1289711D01*
X23192469Y1294000D01*
X22739000Y1294000D01*
X22671961Y1313685D01*
X22626206Y1366489D01*
X22615000Y1418000D01*
X22615000Y1544000D01*
X22489000Y1544000D01*
X22421961Y1563685D01*
X22376206Y1616489D01*
X22365000Y1668000D01*
X22365000Y1794000D01*
X22865000Y1794000D01*
X23192467Y1794000D01*
X23192212Y1796730D01*
X23148405Y1921920D01*
X23069641Y2028642D01*
X22962920Y2107406D01*
X22865000Y2141670D01*
X22865000Y1794000D01*
X22365000Y1794000D01*
X22365000Y2141670D01*
X22343663Y2156809D01*
X22300379Y2211657D01*
X22298421Y2231800D01*
X22282669Y2254000D01*
X21087330Y2254000D01*
X21090826Y2244010D01*
X21090858Y2243377D01*
X21091223Y2242857D01*
X21092636Y2208526D01*
X21094387Y2174231D01*
X21094071Y2173681D01*
X21094098Y2173046D01*
X21076724Y2143399D01*
X21059657Y2113604D01*
X21059093Y2113312D01*
X21058773Y2112764D01*
X21028174Y2097239D01*
X20997664Y2081378D01*
X20996841Y2081341D01*
X20996465Y2081149D01*
X20991148Y2081078D01*
X20961201Y2079697D01*
X20957776Y2080047D01*
X20866519Y2094500D01*
X20816076Y2094500D01*
X20809802Y2095140D01*
X20783054Y2106049D01*
X20755346Y2114185D01*
X20751105Y2119080D01*
X20745106Y2121526D01*
X20728501Y2145166D01*
X20709591Y2166989D01*
X20708669Y2173400D01*
X20704946Y2178700D01*
X20703757Y2207560D01*
X20699647Y2236147D01*
X20702337Y2242039D01*
X20702071Y2248511D01*
X20716673Y2273431D01*
X20728672Y2299703D01*
X20734694Y2306171D01*
X20740509Y2311985D01*
X20812984Y2437515D01*
X20850500Y2577525D01*
X20850500Y2698737D01*
X20870185Y2765776D01*
X20922989Y2811531D01*
X20992147Y2821475D01*
X21055703Y2792450D01*
X21075630Y2770492D01*
X21087332Y2754000D01*
X22282668Y2754000D01*
X22248403Y2851923D01*
X22177508Y2947982D01*
X22153537Y3013611D01*
X22162379Y3068244D01*
X22169813Y3086564D01*
X22174859Y3091609D01*
X22231017Y3201825D01*
X22240253Y3260141D01*
X22245601Y3273318D01*
X22258836Y3289986D01*
X22267954Y3309221D01*
X22280130Y3316803D01*
X22289049Y3328035D01*
X22309196Y3334903D01*
X22327265Y3346153D01*
X22341606Y3345949D01*
X22355183Y3350576D01*
X22375844Y3345461D01*
X22397128Y3345157D01*
X22409082Y3337232D01*
X22423005Y3333784D01*
X22437621Y3318310D01*
X22455361Y3306548D01*
X22461132Y3293418D01*
X22470982Y3282990D01*
X22474912Y3262071D01*
X22483477Y3242585D01*
X22484500Y3226693D01*
X22484500Y3187484D01*
X22494649Y3123404D01*
X22499354Y3093696D01*
X22556950Y2980658D01*
X22556952Y2980656D01*
X22556954Y2980653D01*
X22646652Y2890955D01*
X22646654Y2890954D01*
X22646658Y2890950D01*
X22757105Y2834674D01*
X22759698Y2833353D01*
X22853475Y2818501D01*
X22853481Y2818500D01*
X23941518Y2818501D01*
X24035304Y2833354D01*
X24148342Y2890950D01*
X24238050Y2980658D01*
X24295646Y3093696D01*
X24295646Y3093698D01*
X24295647Y3093699D01*
X24310499Y3187476D01*
X24310500Y3187481D01*
X24310499Y3550518D01*
X24295646Y3644304D01*
X24243192Y3747250D01*
X24230297Y3815915D01*
X24253908Y3877175D01*
X24312346Y3956356D01*
X24351762Y4069000D01*
X22443238Y4069000D01*
X22482653Y3956355D01*
X22541091Y3877176D01*
X22544280Y3868445D01*
X22550783Y3861801D01*
X22556076Y3836149D01*
X22565062Y3811547D01*
X22563399Y3800660D01*
X22564903Y3793373D01*
X22559241Y3773433D01*
X22557032Y3758967D01*
X22554720Y3752966D01*
X22499354Y3644304D01*
X22489922Y3584759D01*
X22485210Y3572524D01*
X22471620Y3554770D01*
X22462043Y3534566D01*
X22450795Y3527563D01*
X22442743Y3517042D01*
X22421710Y3509453D01*
X22402731Y3497635D01*
X22389484Y3497825D01*
X22377021Y3493327D01*
X22355223Y3498314D01*
X22332869Y3498633D01*
X22321827Y3505955D01*
X22308911Y3508909D01*
X22293270Y3524888D01*
X22274636Y3537243D01*
X22269305Y3549372D01*
X22260037Y3558840D01*
X22255518Y3580740D01*
X22246522Y3601207D01*
X22245499Y3617099D01*
X22245499Y3634740D01*
X22231018Y3726171D01*
X22231018Y3726172D01*
X22231017Y3726174D01*
X22231017Y3726175D01*
X22174859Y3836391D01*
X22174857Y3836393D01*
X22174854Y3836397D01*
X22087396Y3923855D01*
X22087393Y3923857D01*
X22087391Y3923859D01*
X21977175Y3980017D01*
X21977174Y3980018D01*
X21977171Y3980019D01*
X21885735Y3994500D01*
X21484260Y3994500D01*
X21484260Y3994499D01*
X21392829Y3980019D01*
X21392825Y3980017D01*
X21349643Y3958015D01*
X21336640Y3954894D01*
X21328284Y3949523D01*
X21293349Y3944500D01*
X21059052Y3944500D01*
X21002758Y3958015D01*
X20960301Y3979648D01*
X20866524Y3994500D01*
X20866519Y3994500D01*
X20809500Y3994500D01*
X20800814Y3997051D01*
X20791853Y3995762D01*
X20767812Y4006741D01*
X20742461Y4014185D01*
X20736533Y4021026D01*
X20728297Y4024787D01*
X20714007Y4047022D01*
X20696706Y4066989D01*
X20694418Y4077504D01*
X20690523Y4083565D01*
X20685500Y4118500D01*
X20685500Y4267210D01*
X20705185Y4334249D01*
X20757989Y4380004D01*
X20766146Y4383384D01*
X20827331Y4406204D01*
X20942546Y4492454D01*
X21028796Y4607669D01*
X21079091Y4742517D01*
X21085500Y4802127D01*
X21085499Y5447872D01*
X21079091Y5507483D01*
X21072001Y5526491D01*
X21028797Y5642329D01*
X21028793Y5642336D01*
X20942547Y5757545D01*
X20942544Y5757548D01*
X20827335Y5843794D01*
X20827330Y5843797D01*
X20750086Y5872607D01*
X20694153Y5914479D01*
X20669736Y5979943D01*
X20684588Y6048216D01*
X20733993Y6097621D01*
X20745277Y6103062D01*
X20760558Y6109500D01*
X20764674Y6109500D01*
X20837740Y6124034D01*
X20910584Y6172706D01*
X20921486Y6177299D01*
X20944915Y6179961D01*
X20967416Y6187006D01*
X20979482Y6183888D01*
X20990909Y6185186D01*
X21009029Y6176253D01*
X21031632Y6170411D01*
X21037509Y6167018D01*
X21037510Y6167018D01*
X21037513Y6167016D01*
X21177523Y6129500D01*
X21177526Y6129500D01*
X21322470Y6129500D01*
X21322473Y6129500D01*
X21462483Y6167016D01*
X21588013Y6239491D01*
X21690507Y6341985D01*
X21762982Y6467515D01*
X21776401Y6517597D01*
X21790284Y6540373D01*
X21800886Y6564847D01*
X21808187Y6569745D01*
X21812765Y6577254D01*
X21836760Y6588911D01*
X21858911Y6603768D01*
X21871255Y6605667D01*
X21875612Y6607783D01*
X21893741Y6609476D01*
X21894963Y6609500D01*
X22064672Y6609500D01*
X22083259Y6613198D01*
X22094243Y6613413D01*
X22117777Y6607002D01*
G37*
%TD.AperFunction*%
%TA.AperFunction,Conductor*%
G36*
X12180701Y4943172D02*
G01*
X12187180Y4937139D01*
X13193681Y3930638D01*
X13227166Y3869315D01*
X13230000Y3842957D01*
X13230000Y2840000D01*
X13529999Y2840000D01*
X13529999Y3294958D01*
X13536237Y3316204D01*
X13537817Y3338292D01*
X13545889Y3349076D01*
X13549684Y3361997D01*
X13566417Y3376497D01*
X13579689Y3394225D01*
X13592309Y3398933D01*
X13602488Y3407752D01*
X13624405Y3410904D01*
X13645153Y3418642D01*
X13658313Y3415780D01*
X13671646Y3417696D01*
X13691789Y3408497D01*
X13713426Y3403790D01*
X13731151Y3390522D01*
X13735202Y3388671D01*
X13741680Y3382639D01*
X13743181Y3381138D01*
X13776666Y3319815D01*
X13779500Y3293457D01*
X13779500Y1665325D01*
X13786787Y1628693D01*
X13784909Y1607709D01*
X13787908Y1586853D01*
X13781857Y1573605D01*
X13780560Y1559101D01*
X13767635Y1542464D01*
X13758883Y1523297D01*
X13746631Y1515424D01*
X13737698Y1503923D01*
X13717828Y1496914D01*
X13700105Y1485523D01*
X13675524Y1481989D01*
X13671809Y1480678D01*
X13665170Y1480500D01*
X13650109Y1480500D01*
X13583070Y1500185D01*
X13537315Y1552989D01*
X13526935Y1618792D01*
X13529999Y1645206D01*
X13530000Y1645209D01*
X13530000Y2440000D01*
X12530001Y2440000D01*
X12530001Y1645215D01*
X12530002Y1645195D01*
X12533065Y1618786D01*
X12530328Y1602855D01*
X12532629Y1586853D01*
X12524533Y1569127D01*
X12521235Y1549925D01*
X12510319Y1538003D01*
X12503604Y1523297D01*
X12487211Y1512763D01*
X12474054Y1498391D01*
X12457794Y1493858D01*
X12444826Y1485523D01*
X12409891Y1480500D01*
X12394830Y1480500D01*
X12327791Y1500185D01*
X12282036Y1552989D01*
X12272092Y1622147D01*
X12273213Y1628693D01*
X12280500Y1665325D01*
X12280500Y3614677D01*
X12276498Y3634795D01*
X12530000Y3634795D01*
X12530000Y2840000D01*
X12830000Y2840000D01*
X12830000Y3890000D01*
X12785203Y3890000D01*
X12760130Y3887092D01*
X12760126Y3887091D01*
X12657525Y3841789D01*
X12657520Y3841786D01*
X12578214Y3762480D01*
X12578211Y3762475D01*
X12532910Y3659878D01*
X12532910Y3659876D01*
X12530000Y3634795D01*
X12276498Y3634795D01*
X12265967Y3687736D01*
X12265966Y3687737D01*
X12265966Y3687740D01*
X12210601Y3770601D01*
X12203816Y3780756D01*
X12206793Y3782746D01*
X12183334Y3825707D01*
X12180500Y3852065D01*
X12180500Y3920142D01*
X12180500Y3920144D01*
X12156614Y4009288D01*
X12129914Y4055534D01*
X12110472Y4089209D01*
X12110468Y4089214D01*
X11856218Y4343464D01*
X11822733Y4404787D01*
X11827717Y4474479D01*
X11856219Y4518827D01*
X11903046Y4565654D01*
X11903050Y4565658D01*
X11960646Y4678696D01*
X11960646Y4678698D01*
X11960647Y4678699D01*
X11975499Y4772476D01*
X11975500Y4772481D01*
X11975499Y4849459D01*
X11995183Y4916496D01*
X12047986Y4962252D01*
X12117145Y4972196D01*
X12180701Y4943172D01*
G37*
%TD.AperFunction*%
%TA.AperFunction,Conductor*%
G36*
X9378680Y17187363D02*
G01*
X9412166Y17126040D01*
X9415000Y17099687D01*
X9415000Y17082002D01*
X9417786Y17052280D01*
X9461596Y16927078D01*
X9540358Y16820359D01*
X9625942Y16757195D01*
X9668193Y16701547D01*
X9673651Y16631891D01*
X9640583Y16570342D01*
X9637531Y16567663D01*
X9632439Y16562571D01*
X9541079Y16442096D01*
X9485613Y16301444D01*
X9475000Y16213054D01*
X9475000Y15945000D01*
X11075000Y15945000D01*
X11075000Y16147113D01*
X11081238Y16168359D01*
X11082818Y16190447D01*
X11090890Y16201231D01*
X11094685Y16214152D01*
X11111418Y16228652D01*
X11124690Y16246380D01*
X11137310Y16251088D01*
X11147489Y16259907D01*
X11169406Y16263059D01*
X11190154Y16270797D01*
X11203314Y16267935D01*
X11216647Y16269851D01*
X11236790Y16260652D01*
X11258427Y16255945D01*
X11276152Y16242677D01*
X11280203Y16240826D01*
X11286681Y16234794D01*
X11388181Y16133294D01*
X11421666Y16071971D01*
X11424500Y16045613D01*
X11424500Y15172130D01*
X11424501Y15172124D01*
X11430908Y15112517D01*
X11481202Y14977672D01*
X11481206Y14977665D01*
X11567452Y14862456D01*
X11567455Y14862453D01*
X11682664Y14776207D01*
X11682671Y14776203D01*
X11817516Y14725909D01*
X11843419Y14723125D01*
X11877127Y14719500D01*
X11950611Y14719501D01*
X12017650Y14699817D01*
X12038293Y14683182D01*
X13317985Y13403490D01*
X13317986Y13403489D01*
X13317988Y13403488D01*
X13335444Y13393410D01*
X13425590Y13341365D01*
X13425591Y13341364D01*
X13425592Y13341364D01*
X13443515Y13331016D01*
X13583525Y13293500D01*
X13583528Y13293500D01*
X14594034Y13293500D01*
X14661073Y13273815D01*
X14706828Y13221011D01*
X14716772Y13151853D01*
X14687747Y13088297D01*
X14650331Y13059018D01*
X14636992Y13052221D01*
X14636656Y13052049D01*
X14636652Y13052046D01*
X14546954Y12962348D01*
X14546951Y12962343D01*
X14546950Y12962342D01*
X14534586Y12938076D01*
X14489352Y12849302D01*
X14474500Y12755525D01*
X14474500Y12392483D01*
X14484527Y12329173D01*
X14489354Y12298696D01*
X14546950Y12185658D01*
X14546952Y12185656D01*
X14546954Y12185653D01*
X14636652Y12095955D01*
X14636654Y12095954D01*
X14636658Y12095950D01*
X14727851Y12049485D01*
X14778647Y12001510D01*
X14795442Y11933689D01*
X14772904Y11867554D01*
X14727852Y11828516D01*
X14636658Y11782050D01*
X14636657Y11782049D01*
X14636652Y11782046D01*
X14546954Y11692348D01*
X14546951Y11692343D01*
X14546950Y11692342D01*
X14529017Y11657147D01*
X14489352Y11579302D01*
X14474500Y11485525D01*
X14474500Y11122483D01*
X14482123Y11074356D01*
X14489354Y11028696D01*
X14546950Y10915658D01*
X14546952Y10915656D01*
X14546954Y10915653D01*
X14636652Y10825955D01*
X14636654Y10825954D01*
X14636658Y10825950D01*
X14727851Y10779485D01*
X14778647Y10731510D01*
X14795442Y10663689D01*
X14772904Y10597554D01*
X14727852Y10558516D01*
X14636658Y10512050D01*
X14636657Y10512049D01*
X14636652Y10512046D01*
X14546954Y10422348D01*
X14546951Y10422343D01*
X14546950Y10422342D01*
X14527751Y10384663D01*
X14489352Y10309302D01*
X14474500Y10215525D01*
X14474500Y9852483D01*
X14485292Y9784343D01*
X14489354Y9758696D01*
X14546950Y9645658D01*
X14546952Y9645656D01*
X14546954Y9645653D01*
X14636652Y9555955D01*
X14636654Y9555954D01*
X14636658Y9555950D01*
X14727851Y9509485D01*
X14778647Y9461510D01*
X14795442Y9393689D01*
X14772904Y9327554D01*
X14727852Y9288516D01*
X14636658Y9242050D01*
X14636657Y9242049D01*
X14636652Y9242046D01*
X14546954Y9152348D01*
X14546951Y9152343D01*
X14546950Y9152342D01*
X14534307Y9127528D01*
X14489352Y9039302D01*
X14474500Y8945525D01*
X14474500Y8582483D01*
X14484923Y8516674D01*
X14489354Y8488696D01*
X14546950Y8375658D01*
X14546952Y8375656D01*
X14546954Y8375653D01*
X14636652Y8285955D01*
X14636654Y8285954D01*
X14636658Y8285950D01*
X14727851Y8239485D01*
X14778647Y8191510D01*
X14795442Y8123689D01*
X14772904Y8057554D01*
X14727852Y8018516D01*
X14636658Y7972050D01*
X14636657Y7972049D01*
X14636652Y7972046D01*
X14546954Y7882348D01*
X14546951Y7882343D01*
X14546950Y7882342D01*
X14532653Y7854283D01*
X14489352Y7769302D01*
X14474500Y7675525D01*
X14474500Y7312483D01*
X14482467Y7262181D01*
X14489354Y7218696D01*
X14546950Y7105658D01*
X14546952Y7105656D01*
X14546954Y7105653D01*
X14636652Y7015955D01*
X14636654Y7015954D01*
X14636658Y7015950D01*
X14727851Y6969485D01*
X14778647Y6921510D01*
X14795442Y6853689D01*
X14772904Y6787554D01*
X14727852Y6748516D01*
X14636658Y6702050D01*
X14636657Y6702049D01*
X14636652Y6702046D01*
X14546954Y6612348D01*
X14546951Y6612343D01*
X14546950Y6612342D01*
X14530415Y6579890D01*
X14489352Y6499302D01*
X14474500Y6405525D01*
X14474500Y6042483D01*
X14484253Y5980905D01*
X14489354Y5948696D01*
X14546950Y5835658D01*
X14546952Y5835656D01*
X14546954Y5835653D01*
X14636652Y5745955D01*
X14636654Y5745954D01*
X14636658Y5745950D01*
X14727851Y5699485D01*
X14778647Y5651510D01*
X14795442Y5583689D01*
X14772904Y5517554D01*
X14727852Y5478516D01*
X14636658Y5432050D01*
X14636657Y5432049D01*
X14636652Y5432046D01*
X14546954Y5342348D01*
X14546951Y5342343D01*
X14546950Y5342342D01*
X14531237Y5311503D01*
X14489352Y5229302D01*
X14474500Y5135525D01*
X14474500Y4772483D01*
X14480698Y4733353D01*
X14489354Y4678696D01*
X14546950Y4565658D01*
X14546952Y4565656D01*
X14546954Y4565653D01*
X14636652Y4475955D01*
X14636654Y4475954D01*
X14636658Y4475950D01*
X14749694Y4418355D01*
X14749698Y4418353D01*
X14843475Y4403501D01*
X14843481Y4403500D01*
X15627523Y4403501D01*
X15627525Y4403500D01*
X15772475Y4403500D01*
X15772477Y4403501D01*
X16556518Y4403501D01*
X16650304Y4418354D01*
X16763342Y4475950D01*
X16853050Y4565658D01*
X16910646Y4678696D01*
X16910646Y4678698D01*
X16910647Y4678699D01*
X16925500Y4772476D01*
X16925500Y4806947D01*
X17285000Y4806947D01*
X17295613Y4718557D01*
X17351079Y4577905D01*
X17442435Y4457436D01*
X17562904Y4366080D01*
X17703556Y4310614D01*
X17791946Y4300000D01*
X17985000Y4300000D01*
X17985000Y4875000D01*
X17285000Y4875000D01*
X17285000Y4806947D01*
X16925500Y4806947D01*
X16925500Y4926362D01*
X16925499Y5135518D01*
X16920529Y5166899D01*
X16910646Y5229304D01*
X16853050Y5342342D01*
X16853046Y5342346D01*
X16853045Y5342348D01*
X16763347Y5432046D01*
X16763343Y5432049D01*
X16763342Y5432050D01*
X16760599Y5433448D01*
X16741746Y5443054D01*
X17285000Y5443054D01*
X17285000Y5375000D01*
X17985000Y5375000D01*
X17985000Y5950000D01*
X17791946Y5950000D01*
X17703556Y5939387D01*
X17562904Y5883921D01*
X17442435Y5792565D01*
X17351079Y5672096D01*
X17295613Y5531444D01*
X17285000Y5443054D01*
X16741746Y5443054D01*
X16672147Y5478517D01*
X16621352Y5526491D01*
X16604557Y5594313D01*
X16627095Y5660447D01*
X16672145Y5699483D01*
X16763342Y5745950D01*
X16853050Y5835658D01*
X16910646Y5948696D01*
X16910646Y5948698D01*
X16910647Y5948699D01*
X16925499Y6042476D01*
X16925500Y6042481D01*
X16925499Y6405518D01*
X16910646Y6499304D01*
X16853050Y6612342D01*
X16853046Y6612346D01*
X16853045Y6612348D01*
X16763347Y6702046D01*
X16763343Y6702049D01*
X16763342Y6702050D01*
X16720271Y6723996D01*
X16672147Y6748517D01*
X16621352Y6796491D01*
X16604557Y6864313D01*
X16627095Y6930447D01*
X16672145Y6969483D01*
X16763342Y7015950D01*
X16853050Y7105658D01*
X16910646Y7218696D01*
X16910646Y7218698D01*
X16910647Y7218699D01*
X16925499Y7312476D01*
X16925500Y7312481D01*
X16925499Y7675518D01*
X16910646Y7769304D01*
X16853050Y7882342D01*
X16853046Y7882346D01*
X16853045Y7882348D01*
X16763347Y7972046D01*
X16763343Y7972049D01*
X16763342Y7972050D01*
X16754618Y7976495D01*
X16672147Y8018517D01*
X16621352Y8066491D01*
X16604557Y8134313D01*
X16627095Y8200447D01*
X16672145Y8239483D01*
X16763342Y8285950D01*
X16853050Y8375658D01*
X16910646Y8488696D01*
X16910646Y8488698D01*
X16910647Y8488699D01*
X16925499Y8582476D01*
X16925500Y8582481D01*
X16925499Y8945518D01*
X16910646Y9039304D01*
X16853050Y9152342D01*
X16853046Y9152346D01*
X16853045Y9152348D01*
X16763347Y9242046D01*
X16763343Y9242049D01*
X16763342Y9242050D01*
X16732749Y9257638D01*
X16672147Y9288517D01*
X16621352Y9336491D01*
X16604557Y9404313D01*
X16627095Y9470447D01*
X16672145Y9509483D01*
X16763342Y9555950D01*
X16853050Y9645658D01*
X16910646Y9758696D01*
X16910646Y9758698D01*
X16910647Y9758699D01*
X16925499Y9852476D01*
X16925500Y9852481D01*
X16925499Y10215518D01*
X16910646Y10309304D01*
X16853050Y10422342D01*
X16853046Y10422346D01*
X16853045Y10422348D01*
X16763347Y10512046D01*
X16763343Y10512049D01*
X16763342Y10512050D01*
X16746797Y10520480D01*
X16672147Y10558517D01*
X16621352Y10606491D01*
X16604557Y10674313D01*
X16627095Y10740447D01*
X16672145Y10779483D01*
X16763342Y10825950D01*
X16853050Y10915658D01*
X16910646Y11028696D01*
X16910647Y11028704D01*
X16913222Y11036625D01*
X16952660Y11094300D01*
X17017019Y11121498D01*
X17085865Y11109583D01*
X17118834Y11085987D01*
X17192897Y11011924D01*
X17192900Y11011922D01*
X17295041Y10961989D01*
X17308482Y10955418D01*
X17383418Y10944500D01*
X17383423Y10944500D01*
X17536620Y10944500D01*
X17603659Y10924815D01*
X17649414Y10872011D01*
X17659358Y10802853D01*
X17635887Y10746190D01*
X17629768Y10738015D01*
X17592664Y10688451D01*
X17592662Y10688448D01*
X17545509Y10562025D01*
X17539500Y10506145D01*
X17539500Y9903856D01*
X17545509Y9847976D01*
X17592662Y9721553D01*
X17592664Y9721550D01*
X17673528Y9613528D01*
X17757724Y9550500D01*
X17781549Y9532665D01*
X17781552Y9532663D01*
X17907975Y9485510D01*
X17907978Y9485509D01*
X17937318Y9482355D01*
X17963855Y9479501D01*
X17963870Y9479500D01*
X18343373Y9479500D01*
X18363789Y9473505D01*
X18385033Y9472292D01*
X18396643Y9463858D01*
X18410412Y9459815D01*
X18424344Y9443736D01*
X18441562Y9431229D01*
X18446770Y9417856D01*
X18456167Y9407011D01*
X18459195Y9385950D01*
X18466917Y9366122D01*
X18465064Y9345130D01*
X18466111Y9337853D01*
X18464905Y9330885D01*
X18464143Y9327123D01*
X18449500Y9272475D01*
X18449500Y9254826D01*
X18447032Y9242640D01*
X18436296Y9222290D01*
X18429815Y9200216D01*
X18414866Y9181666D01*
X18414432Y9180842D01*
X18414011Y9180605D01*
X18413181Y9179574D01*
X18410426Y9176819D01*
X18349103Y9143334D01*
X18322745Y9140500D01*
X17963855Y9140500D01*
X17907975Y9134491D01*
X17781552Y9087338D01*
X17781549Y9087336D01*
X17673528Y9006472D01*
X17592664Y8898451D01*
X17592662Y8898448D01*
X17545509Y8772025D01*
X17539500Y8716145D01*
X17539500Y8113856D01*
X17545509Y8057976D01*
X17592662Y7931553D01*
X17592664Y7931550D01*
X17673528Y7823528D01*
X17781546Y7742667D01*
X17781549Y7742665D01*
X17781552Y7742663D01*
X17907975Y7695510D01*
X17907978Y7695509D01*
X17937318Y7692355D01*
X17963855Y7689501D01*
X17963870Y7689500D01*
X18491130Y7689500D01*
X18491144Y7689501D01*
X18513023Y7691854D01*
X18547022Y7695509D01*
X18673450Y7742664D01*
X18781472Y7823528D01*
X18862336Y7931550D01*
X18884206Y7990185D01*
X18898818Y8029362D01*
X18940689Y8085296D01*
X19006153Y8109713D01*
X19074426Y8094861D01*
X19123832Y8045456D01*
X19131182Y8029362D01*
X19167662Y7931553D01*
X19167664Y7931550D01*
X19248527Y7823529D01*
X19248529Y7823527D01*
X19309810Y7777653D01*
X19351682Y7721720D01*
X19359500Y7678386D01*
X19359500Y7374500D01*
X19339815Y7307461D01*
X19287011Y7261706D01*
X19235500Y7250500D01*
X18958324Y7250500D01*
X18958322Y7250499D01*
X18885260Y7235966D01*
X18885259Y7235966D01*
X18823315Y7194576D01*
X18823311Y7194573D01*
X18585423Y6956685D01*
X18544033Y6894739D01*
X18544032Y6894736D01*
X18529500Y6821679D01*
X18529500Y6538325D01*
X18529501Y6538323D01*
X18544034Y6465261D01*
X18544034Y6465260D01*
X18585424Y6403316D01*
X18585427Y6403312D01*
X18633180Y6355560D01*
X18647884Y6328632D01*
X18664477Y6302813D01*
X18665368Y6296614D01*
X18666666Y6294237D01*
X18669500Y6267878D01*
X18669500Y6074000D01*
X18649815Y6006961D01*
X18597011Y5961206D01*
X18545500Y5950000D01*
X18485000Y5950000D01*
X18485000Y4300000D01*
X18678054Y4300000D01*
X18766443Y4310614D01*
X18907095Y4366080D01*
X19027564Y4457436D01*
X19118920Y4577905D01*
X19121805Y4585221D01*
X19164709Y4640367D01*
X19230615Y4663564D01*
X19298600Y4647446D01*
X19336429Y4614048D01*
X19341203Y4607670D01*
X19341204Y4607669D01*
X19427454Y4492454D01*
X19451834Y4474203D01*
X19542664Y4406207D01*
X19542669Y4406204D01*
X19603833Y4383392D01*
X19621558Y4370123D01*
X19641703Y4360923D01*
X19648984Y4349593D01*
X19659766Y4341522D01*
X19667504Y4320774D01*
X19679477Y4302145D01*
X19682628Y4280230D01*
X19684184Y4276058D01*
X19684500Y4267210D01*
X19684500Y4055534D01*
X19664815Y3988495D01*
X19616796Y3945050D01*
X19571656Y3922050D01*
X19481954Y3832348D01*
X19481951Y3832343D01*
X19481950Y3832342D01*
X19455666Y3780756D01*
X19424353Y3719303D01*
X19423887Y3716358D01*
X19422328Y3713070D01*
X19421337Y3710020D01*
X19420942Y3710149D01*
X19393955Y3653225D01*
X19334641Y3616296D01*
X19264779Y3617296D01*
X19213733Y3648080D01*
X19017315Y3844498D01*
X19017313Y3844500D01*
X18960249Y3877446D01*
X18903186Y3910392D01*
X18810129Y3935326D01*
X18775891Y3944500D01*
X18775890Y3944500D01*
X18775886Y3944501D01*
X18767869Y3945557D01*
X18727770Y3958009D01*
X18685300Y3979648D01*
X18591524Y3994500D01*
X17503482Y3994500D01*
X17422519Y3981677D01*
X17409696Y3979646D01*
X17296658Y3922050D01*
X17296657Y3922049D01*
X17296652Y3922046D01*
X17206954Y3832348D01*
X17206951Y3832343D01*
X17206950Y3832342D01*
X17193436Y3805820D01*
X17149352Y3719302D01*
X17134500Y3625525D01*
X17134500Y3262483D01*
X17136231Y3251556D01*
X17149354Y3168696D01*
X17180744Y3107090D01*
X17201806Y3065754D01*
X17204548Y3051153D01*
X17211930Y3038260D01*
X17210866Y3017507D01*
X17214702Y2997084D01*
X17209054Y2982134D01*
X17208355Y2968482D01*
X17192740Y2938946D01*
X17192070Y2937170D01*
X17123140Y2841103D01*
X17101993Y2824597D01*
X17083282Y2805372D01*
X17074869Y2803423D01*
X17068064Y2798110D01*
X17041350Y2795656D01*
X17015216Y2789600D01*
X17007085Y2792508D01*
X16998487Y2791718D01*
X16974689Y2804095D01*
X16949428Y2813130D01*
X16940757Y2821743D01*
X16936500Y2823957D01*
X16933824Y2828629D01*
X16922621Y2839758D01*
X16849641Y2938642D01*
X16742919Y3017406D01*
X16617727Y3061213D01*
X16617725Y3061214D01*
X16615000Y3061470D01*
X16615000Y2734000D01*
X16967647Y2734000D01*
X16967767Y2734081D01*
X16977608Y2738273D01*
X16978885Y2738424D01*
X16979896Y2739221D01*
X17013482Y2742494D01*
X17016362Y2742832D01*
X17016362Y2744000D01*
X17023230Y2744000D01*
X17023230Y2743640D01*
X17046999Y2746436D01*
X17048155Y2745872D01*
X17049436Y2745996D01*
X17053326Y2744000D01*
X17923500Y2744000D01*
X17990539Y2724315D01*
X18036294Y2671511D01*
X18047500Y2620000D01*
X18047500Y2368000D01*
X18027815Y2300961D01*
X17975011Y2255206D01*
X17923500Y2244000D01*
X17087290Y2244000D01*
X17079351Y2239254D01*
X17065416Y2235063D01*
X17043638Y2234921D01*
X17043638Y2234000D01*
X17032677Y2234000D01*
X17032677Y2234561D01*
X17006437Y2232011D01*
X17002563Y2234000D01*
X15767332Y2234000D01*
X15801596Y2136078D01*
X15872491Y2040019D01*
X15896462Y1974390D01*
X15881147Y1906220D01*
X15876170Y1898411D01*
X15818981Y1786173D01*
X15818981Y1786172D01*
X15804500Y1694736D01*
X15804500Y1651967D01*
X15795856Y1622531D01*
X15789333Y1592541D01*
X15785577Y1587525D01*
X15784815Y1584928D01*
X15768182Y1564287D01*
X15720716Y1516820D01*
X15659393Y1483334D01*
X15633034Y1480500D01*
X14794830Y1480500D01*
X14727791Y1500185D01*
X14682036Y1552989D01*
X14672092Y1622147D01*
X14673213Y1628693D01*
X14680500Y1665325D01*
X14680500Y2734000D01*
X15767332Y2734000D01*
X16115000Y2734000D01*
X16115000Y3061469D01*
X16114999Y3061470D01*
X16112274Y3061214D01*
X16112272Y3061213D01*
X15987080Y3017406D01*
X15880358Y2938642D01*
X15801596Y2831923D01*
X15767332Y2734000D01*
X14680500Y2734000D01*
X14680500Y3614677D01*
X14680499Y3614679D01*
X14665967Y3687736D01*
X14665966Y3687740D01*
X14658429Y3699020D01*
X14610601Y3770601D01*
X14527740Y3825966D01*
X14527739Y3825967D01*
X14527735Y3825968D01*
X14454677Y3840500D01*
X14454674Y3840500D01*
X14326543Y3840500D01*
X14259504Y3860185D01*
X14238862Y3876819D01*
X12011818Y6103864D01*
X11978333Y6165187D01*
X11975499Y6191545D01*
X11975499Y6405518D01*
X11969253Y6444955D01*
X11960646Y6499304D01*
X11903050Y6612342D01*
X11903046Y6612346D01*
X11903045Y6612348D01*
X11813347Y6702046D01*
X11813343Y6702049D01*
X11813342Y6702050D01*
X11770271Y6723996D01*
X11722147Y6748517D01*
X11671352Y6796491D01*
X11654557Y6864313D01*
X11677095Y6930447D01*
X11722145Y6969483D01*
X11813342Y7015950D01*
X11903050Y7105658D01*
X11960646Y7218696D01*
X11960646Y7218698D01*
X11960647Y7218699D01*
X11975499Y7312476D01*
X11975500Y7312481D01*
X11975499Y7675518D01*
X11960646Y7769304D01*
X11903050Y7882342D01*
X11903046Y7882346D01*
X11903045Y7882348D01*
X11813347Y7972046D01*
X11813343Y7972049D01*
X11813342Y7972050D01*
X11804618Y7976495D01*
X11722147Y8018517D01*
X11671352Y8066491D01*
X11654557Y8134313D01*
X11677095Y8200447D01*
X11722145Y8239483D01*
X11813342Y8285950D01*
X11903050Y8375658D01*
X11960646Y8488696D01*
X11960646Y8488698D01*
X11960647Y8488699D01*
X11975499Y8582476D01*
X11975500Y8582481D01*
X11975499Y8945518D01*
X11960646Y9039304D01*
X11903050Y9152342D01*
X11903046Y9152346D01*
X11903045Y9152348D01*
X11813347Y9242046D01*
X11813343Y9242049D01*
X11813342Y9242050D01*
X11782749Y9257638D01*
X11722147Y9288517D01*
X11671352Y9336491D01*
X11654557Y9404313D01*
X11677095Y9470447D01*
X11722145Y9509483D01*
X11813342Y9555950D01*
X11903050Y9645658D01*
X11960646Y9758696D01*
X11960646Y9758698D01*
X11960647Y9758699D01*
X11975499Y9852476D01*
X11975500Y9852481D01*
X11975499Y10215518D01*
X11960646Y10309304D01*
X11903050Y10422342D01*
X11903046Y10422346D01*
X11903045Y10422348D01*
X11813347Y10512046D01*
X11813343Y10512049D01*
X11813342Y10512050D01*
X11796797Y10520480D01*
X11754963Y10541796D01*
X11704168Y10589770D01*
X11687373Y10657591D01*
X11709911Y10723726D01*
X11764626Y10767177D01*
X11834147Y10774149D01*
X11843330Y10772061D01*
X11927525Y10749500D01*
X11927528Y10749500D01*
X12072472Y10749500D01*
X12072475Y10749500D01*
X12212485Y10787016D01*
X12338015Y10859491D01*
X12440509Y10961985D01*
X12512984Y11087515D01*
X12550500Y11227525D01*
X12550500Y11372475D01*
X12512984Y11512485D01*
X12511243Y11515500D01*
X12440511Y11638012D01*
X12440506Y11638018D01*
X12338017Y11740507D01*
X12338011Y11740512D01*
X12212488Y11812983D01*
X12212489Y11812983D01*
X12154523Y11828515D01*
X12098138Y11843624D01*
X12038479Y11879989D01*
X12007950Y11942836D01*
X12016245Y12012211D01*
X12060731Y12066089D01*
X12098138Y12083172D01*
X12112485Y12087016D01*
X12238015Y12159491D01*
X12340509Y12261985D01*
X12412984Y12387515D01*
X12450500Y12527525D01*
X12450500Y12672475D01*
X12412984Y12812485D01*
X12412505Y12813314D01*
X12340511Y12938012D01*
X12340506Y12938018D01*
X12238017Y13040507D01*
X12238011Y13040512D01*
X12112488Y13112983D01*
X12112489Y13112983D01*
X11997136Y13143892D01*
X11972475Y13150500D01*
X11972471Y13150501D01*
X11964415Y13151561D01*
X11964608Y13153029D01*
X11906181Y13170185D01*
X11860426Y13222989D01*
X11850482Y13292147D01*
X11879507Y13355703D01*
X11890235Y13365624D01*
X11890222Y13365637D01*
X11896790Y13372206D01*
X11977346Y13481355D01*
X12016762Y13594000D01*
X9688612Y13594000D01*
X9621573Y13613685D01*
X9600930Y13630320D01*
X9567395Y13663856D01*
X9567393Y13663857D01*
X9567391Y13663859D01*
X9457175Y13720017D01*
X9457174Y13720018D01*
X9457171Y13720019D01*
X9365735Y13734500D01*
X9024260Y13734500D01*
X9024260Y13734499D01*
X8932829Y13720019D01*
X8932828Y13720019D01*
X8883496Y13694883D01*
X8822609Y13663859D01*
X8822607Y13663858D01*
X8813914Y13659428D01*
X8812881Y13661455D01*
X8802284Y13657676D01*
X8780856Y13645538D01*
X8769961Y13646147D01*
X8759681Y13642480D01*
X8735688Y13648063D01*
X8711096Y13649437D01*
X8696552Y13657169D01*
X8691629Y13658314D01*
X8679859Y13665868D01*
X8569218Y13746037D01*
X8552981Y13767037D01*
X8533958Y13785552D01*
X8531941Y13794251D01*
X8526482Y13801312D01*
X8524176Y13827755D01*
X8518182Y13853617D01*
X8521188Y13862024D01*
X8520413Y13870917D01*
X8532770Y13894411D01*
X8541710Y13919406D01*
X8548783Y13924853D01*
X8552940Y13932754D01*
X8576036Y13945836D01*
X8597071Y13962032D01*
X8609866Y13966219D01*
X8687485Y13987016D01*
X8813015Y14059491D01*
X8915509Y14161985D01*
X8987984Y14287515D01*
X9025500Y14427525D01*
X9025500Y14572475D01*
X8996420Y14681002D01*
X8998083Y14750849D01*
X9004790Y14767544D01*
X9034582Y14828482D01*
X9045500Y14903418D01*
X9045500Y15176947D01*
X9475000Y15176947D01*
X9485613Y15088557D01*
X9541079Y14947905D01*
X9632435Y14827436D01*
X9752905Y14736079D01*
X9891194Y14681546D01*
X9946339Y14638640D01*
X9969532Y14572733D01*
X9953412Y14504748D01*
X9903095Y14456271D01*
X9857284Y14442733D01*
X9840399Y14441150D01*
X9840394Y14441149D01*
X9712354Y14396347D01*
X9603207Y14315793D01*
X9522653Y14206646D01*
X9483238Y14094000D01*
X10500000Y14094000D01*
X11000000Y14094000D01*
X12016761Y14094000D01*
X11977346Y14206646D01*
X11896792Y14315793D01*
X11787645Y14396347D01*
X11659602Y14441150D01*
X11629207Y14444000D01*
X11000000Y14444000D01*
X11000000Y14094000D01*
X10500000Y14094000D01*
X10500000Y14444001D01*
X10485590Y14458411D01*
X10461989Y14501634D01*
X10452106Y14519733D01*
X10457090Y14589425D01*
X10498962Y14645358D01*
X10498962Y14645359D01*
X10498963Y14645359D01*
X10544146Y14662211D01*
X10564426Y14669775D01*
X10565878Y14669870D01*
X10568052Y14670000D01*
X10656443Y14680614D01*
X10797095Y14736080D01*
X10917564Y14827436D01*
X11008920Y14947905D01*
X11064386Y15088557D01*
X11075000Y15176947D01*
X11075000Y15445000D01*
X9475000Y15445000D01*
X9475000Y15176947D01*
X9045500Y15176947D01*
X9045500Y15246582D01*
X9034582Y15321518D01*
X8996320Y15399784D01*
X8978078Y15437100D01*
X8978076Y15437103D01*
X8955106Y15460073D01*
X8921621Y15521396D01*
X8926605Y15591088D01*
X8964778Y15642081D01*
X8964495Y15642364D01*
X8966466Y15644336D01*
X8968477Y15647021D01*
X8969156Y15647526D01*
X8971065Y15648936D01*
X9048933Y15754441D01*
X9048934Y15754443D01*
X9080621Y15845000D01*
X8599000Y15845000D01*
X8531961Y15864685D01*
X8486206Y15917489D01*
X8475000Y15969000D01*
X8475000Y16221000D01*
X8494685Y16288039D01*
X8547489Y16333794D01*
X8599000Y16345000D01*
X9080622Y16345000D01*
X9080621Y16345001D01*
X9048934Y16435558D01*
X9048933Y16435560D01*
X8971065Y16541066D01*
X8865559Y16618934D01*
X8865557Y16618935D01*
X8741792Y16662243D01*
X8741780Y16662245D01*
X8712398Y16665000D01*
X8630387Y16665000D01*
X8609141Y16671239D01*
X8587053Y16672818D01*
X8576269Y16680891D01*
X8563348Y16684685D01*
X8548848Y16701419D01*
X8531120Y16714690D01*
X8526412Y16727311D01*
X8517593Y16737489D01*
X8514441Y16759407D01*
X8506703Y16780154D01*
X8509565Y16793315D01*
X8507649Y16806647D01*
X8516848Y16826791D01*
X8521555Y16848427D01*
X8534823Y16866153D01*
X8536674Y16870203D01*
X8542706Y16876681D01*
X8609206Y16943181D01*
X8670529Y16976666D01*
X8696887Y16979500D01*
X8856130Y16979500D01*
X8856144Y16979501D01*
X8878023Y16981854D01*
X8912022Y16985509D01*
X9038450Y17032664D01*
X9146472Y17113528D01*
X9191734Y17173992D01*
X9247665Y17215862D01*
X9317357Y17220847D01*
X9378680Y17187363D01*
G37*
%TD.AperFunction*%
%TA.AperFunction,Conductor*%
G36*
X6572177Y7029816D02*
G01*
X6617932Y6977012D01*
X6627876Y6907854D01*
X6598851Y6844298D01*
X6592820Y6837820D01*
X6555000Y6800000D01*
X6644095Y6710905D01*
X6677580Y6649582D01*
X6672596Y6579890D01*
X6644095Y6535543D01*
X6089457Y5980905D01*
X6028134Y5947420D01*
X5958442Y5952404D01*
X5914095Y5980905D01*
X5735905Y6159095D01*
X5731573Y6167028D01*
X5724337Y6172442D01*
X5715090Y6197214D01*
X5702420Y6220418D01*
X5703064Y6229433D01*
X5699904Y6237900D01*
X5704970Y6261220D01*
X5704431Y6264218D01*
X5705785Y6267485D01*
X5707404Y6290110D01*
X5713212Y6299150D01*
X5714739Y6306177D01*
X5730650Y6327435D01*
X5731199Y6328757D01*
X5733840Y6331698D01*
X5735841Y6334370D01*
X5735884Y6334436D01*
X5735912Y6334465D01*
X5735915Y6334468D01*
X5737270Y6335824D01*
X5740015Y6338569D01*
X5740034Y6338589D01*
X6201447Y6800001D01*
X6163628Y6837820D01*
X6130143Y6899143D01*
X6135127Y6968835D01*
X6176999Y7024768D01*
X6242463Y7049185D01*
X6251290Y7049501D01*
X6505138Y7049501D01*
X6572177Y7029816D01*
G37*
%TD.AperFunction*%
%TA.AperFunction,Conductor*%
G36*
X41816356Y13049233D02*
G01*
X41841854Y13034512D01*
X41851890Y13026999D01*
X41879668Y13006205D01*
X41879671Y13006203D01*
X42014517Y12955909D01*
X42014516Y12955909D01*
X42021444Y12955165D01*
X42074127Y12949500D01*
X43469872Y12949501D01*
X43529483Y12955909D01*
X43532165Y12956909D01*
X43534391Y12957069D01*
X43537031Y12957692D01*
X43537132Y12957265D01*
X43601857Y12961894D01*
X43663180Y12928410D01*
X43696666Y12867087D01*
X43699500Y12840728D01*
X43699500Y7159273D01*
X43679815Y7092234D01*
X43627011Y7046479D01*
X43557853Y7036535D01*
X43532176Y7043088D01*
X43529489Y7044090D01*
X43529483Y7044092D01*
X43469883Y7050499D01*
X43469881Y7050500D01*
X43469873Y7050500D01*
X43469865Y7050500D01*
X42166254Y7050500D01*
X42099215Y7070185D01*
X42053460Y7122989D01*
X42043516Y7192147D01*
X42072541Y7255703D01*
X42078559Y7262167D01*
X42320480Y7504087D01*
X42373207Y7595412D01*
X42400500Y7697273D01*
X42400500Y7802727D01*
X42400500Y10823381D01*
X42393909Y10847980D01*
X42373207Y10925242D01*
X42320480Y11016567D01*
X41536819Y11800228D01*
X41503334Y11861551D01*
X41500500Y11887909D01*
X41500500Y12620614D01*
X41520185Y12687653D01*
X41536819Y12708295D01*
X41540509Y12711985D01*
X41612984Y12837515D01*
X41647771Y12967343D01*
X41684134Y13026999D01*
X41746981Y13057528D01*
X41816356Y13049233D01*
G37*
%TD.AperFunction*%
%TA.AperFunction,Conductor*%
G36*
X8167498Y14041874D02*
G01*
X8262515Y13987016D01*
X8393096Y13952027D01*
X8452754Y13915663D01*
X8483283Y13852816D01*
X8485000Y13832253D01*
X8485000Y12576333D01*
X8582922Y12610597D01*
X8626865Y12643028D01*
X8692494Y12667000D01*
X8760664Y12651685D01*
X8809733Y12601946D01*
X8824500Y12543259D01*
X8824500Y10699500D01*
X8804815Y10632461D01*
X8752011Y10586706D01*
X8700500Y10575500D01*
X8205929Y10575500D01*
X8201425Y10576823D01*
X8196837Y10575834D01*
X8168216Y10586574D01*
X8138890Y10595185D01*
X8134597Y10599189D01*
X8131421Y10600381D01*
X8122386Y10610581D01*
X8106514Y10625387D01*
X8102173Y10631210D01*
X8040509Y10738015D01*
X7969950Y10808574D01*
X7964576Y10815783D01*
X7955431Y10840452D01*
X7942825Y10863539D01*
X7943479Y10872692D01*
X7940290Y10881296D01*
X7945933Y10906993D01*
X7947810Y10933230D01*
X7955087Y10948677D01*
X7955277Y10949539D01*
X7955685Y10949947D01*
X7956602Y10951892D01*
X8012984Y11049547D01*
X8050500Y11189557D01*
X8050500Y11334507D01*
X8012984Y11474517D01*
X7998798Y11499087D01*
X7940511Y11600044D01*
X7940506Y11600050D01*
X7838017Y11702539D01*
X7838011Y11702544D01*
X7712488Y11775015D01*
X7712489Y11775015D01*
X7686249Y11782046D01*
X7572475Y11812532D01*
X7495844Y11812532D01*
X7472984Y11819245D01*
X7449275Y11821609D01*
X7440072Y11828909D01*
X7428805Y11832217D01*
X7413204Y11850221D01*
X7394535Y11865030D01*
X7387219Y11880209D01*
X7383050Y11885021D01*
X7378495Y11896468D01*
X7374616Y11907829D01*
X7374259Y11910545D01*
X7372131Y11915108D01*
X7369979Y11921412D01*
X7368740Y11949924D01*
X7364453Y11978141D01*
X7367243Y11984384D01*
X7366947Y11991216D01*
X7381321Y12015875D01*
X7392969Y12041927D01*
X7399634Y12049144D01*
X7886808Y12536317D01*
X7948131Y12569802D01*
X7973598Y12568242D01*
X7985000Y12576332D01*
X7985000Y13813875D01*
X7981500Y13838217D01*
X7981500Y13934486D01*
X8001185Y14001525D01*
X8053989Y14047280D01*
X8123147Y14057224D01*
X8167498Y14041874D01*
G37*
%TD.AperFunction*%
%TA.AperFunction,Conductor*%
G36*
X23896615Y13529815D02*
G01*
X23942370Y13477011D01*
X23952314Y13407853D01*
X23932678Y13356609D01*
X23923919Y13343501D01*
X23923912Y13343489D01*
X23867343Y13206918D01*
X23867340Y13206908D01*
X23838500Y13061921D01*
X23838500Y13061918D01*
X23838500Y12914082D01*
X23838500Y12914080D01*
X23838499Y12914080D01*
X23867340Y12769093D01*
X23867343Y12769083D01*
X23923912Y12632512D01*
X23923919Y12632499D01*
X24006048Y12509585D01*
X24006051Y12509581D01*
X24039949Y12475683D01*
X24073434Y12414360D01*
X24068450Y12344668D01*
X24039949Y12300321D01*
X23967601Y12227974D01*
X23967598Y12227970D01*
X23880052Y12096949D01*
X23880047Y12096939D01*
X23826639Y11968001D01*
X23826639Y11968000D01*
X24379382Y11968000D01*
X24328936Y11917554D01*
X24286149Y11843445D01*
X24264000Y11760787D01*
X24264000Y11675213D01*
X24286149Y11592555D01*
X24328936Y11518446D01*
X24379382Y11468000D01*
X23826639Y11468000D01*
X23880047Y11339062D01*
X23880052Y11339052D01*
X23967598Y11208031D01*
X23967601Y11208027D01*
X24039949Y11135679D01*
X24073434Y11074356D01*
X24068450Y11004664D01*
X24039949Y10960317D01*
X24006051Y10926420D01*
X24006048Y10926416D01*
X23923919Y10803502D01*
X23923912Y10803489D01*
X23871540Y10677048D01*
X23827699Y10622644D01*
X23761405Y10600579D01*
X23756979Y10600500D01*
X22866661Y10600500D01*
X22799622Y10620185D01*
X22753867Y10672989D01*
X22743923Y10742147D01*
X22755260Y10778960D01*
X22767254Y10803495D01*
X22774581Y10818482D01*
X22785499Y10893418D01*
X22785499Y11336582D01*
X22774581Y11411518D01*
X22772221Y11416344D01*
X22718077Y11527100D01*
X22718075Y11527103D01*
X22651818Y11593360D01*
X22637114Y11620288D01*
X22620522Y11646106D01*
X22619630Y11652307D01*
X22618333Y11654683D01*
X22615499Y11681041D01*
X22615499Y11920066D01*
X22635184Y11987105D01*
X22687988Y12032860D01*
X22707397Y12039839D01*
X22827485Y12072016D01*
X22953015Y12144491D01*
X23055509Y12246985D01*
X23068595Y12269650D01*
X23083533Y12295523D01*
X23134099Y12343739D01*
X23134625Y12344009D01*
X23135301Y12344354D01*
X23135304Y12344354D01*
X23248342Y12401950D01*
X23338050Y12491658D01*
X23395646Y12604696D01*
X23395646Y12604698D01*
X23395647Y12604699D01*
X23410499Y12698476D01*
X23410500Y12698481D01*
X23410499Y13161518D01*
X23395646Y13255304D01*
X23338050Y13368342D01*
X23338049Y13368343D01*
X23337610Y13369205D01*
X23324714Y13437875D01*
X23350991Y13502615D01*
X23408097Y13542872D01*
X23448095Y13549500D01*
X23829576Y13549500D01*
X23896615Y13529815D01*
G37*
%TD.AperFunction*%
%TA.AperFunction,Conductor*%
G36*
X27241539Y19679815D02*
G01*
X27287294Y19627011D01*
X27298500Y19575500D01*
X27298500Y18880322D01*
X27313032Y18807265D01*
X27313033Y18807261D01*
X27313034Y18807260D01*
X27368399Y18724399D01*
X27445341Y18672989D01*
X27451260Y18669034D01*
X27451264Y18669033D01*
X27524321Y18654501D01*
X27524324Y18654500D01*
X27524326Y18654500D01*
X28573676Y18654500D01*
X28573677Y18654501D01*
X28646740Y18669034D01*
X28729601Y18724399D01*
X28784966Y18807260D01*
X28799500Y18880326D01*
X28799500Y19575500D01*
X28819185Y19642539D01*
X28871989Y19688294D01*
X28923500Y19699500D01*
X34474500Y19699500D01*
X34541539Y19679815D01*
X34587294Y19627011D01*
X34598500Y19575500D01*
X34598500Y18880322D01*
X34613032Y18807265D01*
X34613033Y18807261D01*
X34613034Y18807260D01*
X34668399Y18724399D01*
X34745341Y18672989D01*
X34751260Y18669034D01*
X34751264Y18669033D01*
X34824321Y18654501D01*
X34824324Y18654500D01*
X34824326Y18654500D01*
X35873676Y18654500D01*
X35873677Y18654501D01*
X35946740Y18669034D01*
X36029601Y18724399D01*
X36084966Y18807260D01*
X36099500Y18880326D01*
X36099500Y19575500D01*
X36119185Y19642539D01*
X36171989Y19688294D01*
X36223500Y19699500D01*
X41952405Y19699500D01*
X41995572Y19699500D01*
X42004418Y19699184D01*
X42233020Y19682835D01*
X42250529Y19680317D01*
X42470144Y19632542D01*
X42487103Y19627563D01*
X42697694Y19549017D01*
X42713777Y19541673D01*
X42905939Y19436743D01*
X42911036Y19433960D01*
X42925913Y19424400D01*
X42950335Y19406117D01*
X42992206Y19350184D01*
X42997190Y19280492D01*
X42963705Y19219169D01*
X42902382Y19185685D01*
X42853246Y19186949D01*
X42853138Y19186015D01*
X42818794Y19190000D01*
X42449000Y19190000D01*
X42449000Y18290000D01*
X43073999Y18290000D01*
X43073999Y18934786D01*
X43073997Y18934809D01*
X43071091Y18959870D01*
X43071090Y18959873D01*
X43049359Y19009091D01*
X43047710Y19021679D01*
X43041628Y19032818D01*
X43043261Y19055660D01*
X43040288Y19078369D01*
X43045706Y19089849D01*
X43046612Y19102510D01*
X43060336Y19120843D01*
X43070112Y19141554D01*
X43080877Y19148283D01*
X43088484Y19158443D01*
X43109940Y19166446D01*
X43129362Y19178584D01*
X43142054Y19178424D01*
X43153948Y19182860D01*
X43176326Y19177992D01*
X43199226Y19177703D01*
X43211435Y19170355D01*
X43222221Y19168008D01*
X43250475Y19146857D01*
X43278124Y19119208D01*
X43289710Y19105837D01*
X43424394Y18925920D01*
X43433959Y18911037D01*
X43541669Y18713783D01*
X43549019Y18697689D01*
X43601675Y18556510D01*
X43627559Y18487113D01*
X43632543Y18470138D01*
X43680316Y18250530D01*
X43682834Y18233018D01*
X43699184Y18004419D01*
X43699500Y17995573D01*
X43699500Y14759273D01*
X43679815Y14692234D01*
X43627011Y14646479D01*
X43557853Y14636535D01*
X43532176Y14643088D01*
X43529489Y14644090D01*
X43529483Y14644092D01*
X43469883Y14650499D01*
X43469881Y14650500D01*
X43469873Y14650500D01*
X43469864Y14650500D01*
X42074129Y14650500D01*
X42074123Y14650499D01*
X42014516Y14644092D01*
X41879671Y14593798D01*
X41879664Y14593794D01*
X41764455Y14507548D01*
X41764452Y14507545D01*
X41678206Y14392336D01*
X41678202Y14392329D01*
X41627908Y14257483D01*
X41621501Y14197884D01*
X41621500Y14197865D01*
X41621500Y13599348D01*
X41601815Y13532309D01*
X41549011Y13486554D01*
X41479853Y13476610D01*
X41435501Y13491961D01*
X41312485Y13562984D01*
X41172475Y13600500D01*
X41027525Y13600500D01*
X40908832Y13568696D01*
X40887511Y13562983D01*
X40761988Y13490512D01*
X40761982Y13490507D01*
X40659493Y13388018D01*
X40659488Y13388012D01*
X40587017Y13262489D01*
X40587016Y13262485D01*
X40549500Y13122475D01*
X40549500Y12977525D01*
X40582281Y12855186D01*
X40587017Y12837512D01*
X40659488Y12711989D01*
X40659493Y12711983D01*
X40663181Y12708295D01*
X40696666Y12646972D01*
X40699500Y12620614D01*
X40699500Y12024500D01*
X40679815Y11957461D01*
X40627011Y11911706D01*
X40575500Y11900500D01*
X39938254Y11900500D01*
X39871215Y11920185D01*
X39825460Y11972989D01*
X39815516Y12042147D01*
X39844541Y12105703D01*
X39849915Y12111475D01*
X39850041Y12111651D01*
X39850049Y12111658D01*
X39907645Y12224696D01*
X39907645Y12224698D01*
X39907646Y12224699D01*
X39919623Y12300321D01*
X39922499Y12318481D01*
X39922498Y12681518D01*
X39907645Y12775304D01*
X39850049Y12888342D01*
X39850045Y12888346D01*
X39850044Y12888348D01*
X39760346Y12978046D01*
X39760343Y12978048D01*
X39760341Y12978050D01*
X39664274Y13026999D01*
X39647300Y13035648D01*
X39553523Y13050500D01*
X39553518Y13050500D01*
X38964254Y13050500D01*
X38897215Y13070185D01*
X38876573Y13086819D01*
X38285819Y13677573D01*
X38252334Y13738896D01*
X38249500Y13765254D01*
X38249500Y16815500D01*
X38269185Y16882539D01*
X38321989Y16928294D01*
X38373500Y16939500D01*
X38448676Y16939500D01*
X38448677Y16939501D01*
X38521740Y16954034D01*
X38604601Y17009399D01*
X38659966Y17092260D01*
X38670500Y17145215D01*
X41324001Y17145215D01*
X41324002Y17145192D01*
X41326908Y17120131D01*
X41326909Y17120127D01*
X41372211Y17017526D01*
X41372214Y17017521D01*
X41451520Y16938215D01*
X41451525Y16938212D01*
X41554123Y16892911D01*
X41579206Y16890001D01*
X41948999Y16890001D01*
X42449000Y16890001D01*
X42818786Y16890001D01*
X42818808Y16890003D01*
X42843869Y16892909D01*
X42843873Y16892910D01*
X42946474Y16938212D01*
X42946479Y16938215D01*
X43025785Y17017521D01*
X43025788Y17017526D01*
X43071089Y17120123D01*
X43071089Y17120125D01*
X43073999Y17145206D01*
X43074000Y17145209D01*
X43074000Y17790000D01*
X42449000Y17790000D01*
X42449000Y16890001D01*
X41948999Y16890001D01*
X41949000Y16890002D01*
X41949000Y17790000D01*
X41324001Y17790000D01*
X41324001Y17145215D01*
X38670500Y17145215D01*
X38674500Y17165326D01*
X38674500Y18914674D01*
X38674500Y18914677D01*
X38670498Y18934795D01*
X41324000Y18934795D01*
X41324000Y18290000D01*
X41949000Y18290000D01*
X41949000Y19190000D01*
X41579214Y19190000D01*
X41579191Y19189998D01*
X41554130Y19187092D01*
X41554126Y19187091D01*
X41451525Y19141789D01*
X41451520Y19141786D01*
X41372214Y19062480D01*
X41372211Y19062475D01*
X41326910Y18959878D01*
X41326910Y18959876D01*
X41324000Y18934795D01*
X38670498Y18934795D01*
X38659967Y18987736D01*
X38659966Y18987740D01*
X38653904Y18996812D01*
X38604601Y19070601D01*
X38537405Y19115499D01*
X38521739Y19125967D01*
X38521735Y19125968D01*
X38448677Y19140500D01*
X38448674Y19140500D01*
X37249326Y19140500D01*
X37249323Y19140500D01*
X37176264Y19125968D01*
X37176260Y19125967D01*
X37093399Y19070601D01*
X37038033Y18987740D01*
X37038032Y18987736D01*
X37023500Y18914679D01*
X37023500Y17165322D01*
X37038032Y17092265D01*
X37038033Y17092261D01*
X37056091Y17065235D01*
X37093399Y17009399D01*
X37152528Y16969891D01*
X37176260Y16954034D01*
X37176264Y16954033D01*
X37249321Y16939501D01*
X37249324Y16939500D01*
X37249326Y16939500D01*
X37324500Y16939500D01*
X37391539Y16919815D01*
X37437294Y16867011D01*
X37448500Y16815500D01*
X37448500Y13600726D01*
X37448500Y13495272D01*
X37454066Y13474500D01*
X37475793Y13393410D01*
X37497041Y13356609D01*
X37528520Y13302086D01*
X37528522Y13302084D01*
X37879675Y12950931D01*
X37913160Y12889608D01*
X37908176Y12819916D01*
X37902481Y12806959D01*
X37886351Y12775301D01*
X37871499Y12681525D01*
X37871499Y12318483D01*
X37879757Y12266342D01*
X37886353Y12224696D01*
X37943949Y12111658D01*
X37943952Y12111655D01*
X37949688Y12103759D01*
X37948496Y12102894D01*
X37976910Y12050858D01*
X37971926Y11981166D01*
X37930054Y11925233D01*
X37864590Y11900816D01*
X37855744Y11900500D01*
X34538157Y11900500D01*
X34471118Y11920185D01*
X34425363Y11972989D01*
X34415419Y12042147D01*
X34438890Y12098810D01*
X34473084Y12144489D01*
X34496336Y12175550D01*
X34543491Y12301978D01*
X34548081Y12344668D01*
X34549499Y12357856D01*
X34549500Y12357871D01*
X34549500Y12960130D01*
X34549499Y12960145D01*
X34544622Y13005500D01*
X34543491Y13016022D01*
X34543490Y13016025D01*
X34496337Y13142448D01*
X34496336Y13142450D01*
X34474232Y13171978D01*
X34449816Y13237442D01*
X34449500Y13246287D01*
X34449500Y13926080D01*
X35449499Y13926080D01*
X35478340Y13781093D01*
X35478343Y13781083D01*
X35534912Y13644512D01*
X35534919Y13644499D01*
X35617048Y13521585D01*
X35617051Y13521581D01*
X35721580Y13417052D01*
X35721584Y13417049D01*
X35844498Y13334920D01*
X35844511Y13334913D01*
X35953043Y13289958D01*
X35981087Y13278342D01*
X35981091Y13278342D01*
X35981092Y13278341D01*
X36126079Y13249500D01*
X36126082Y13249500D01*
X36273920Y13249500D01*
X36372718Y13269153D01*
X36418913Y13278342D01*
X36546080Y13331016D01*
X36555488Y13334913D01*
X36555488Y13334914D01*
X36555495Y13334916D01*
X36678416Y13417049D01*
X36782951Y13521584D01*
X36865084Y13644505D01*
X36921658Y13781087D01*
X36935926Y13852816D01*
X36950500Y13926080D01*
X36950500Y14073921D01*
X36921659Y14218908D01*
X36921658Y14218909D01*
X36921658Y14218913D01*
X36909098Y14249236D01*
X36865087Y14355489D01*
X36865080Y14355502D01*
X36782951Y14478416D01*
X36782948Y14478420D01*
X36678419Y14582949D01*
X36678415Y14582952D01*
X36555501Y14665081D01*
X36555488Y14665088D01*
X36418917Y14721657D01*
X36418907Y14721660D01*
X36273920Y14750500D01*
X36273918Y14750500D01*
X36126082Y14750500D01*
X36126080Y14750500D01*
X35981092Y14721660D01*
X35981082Y14721657D01*
X35844511Y14665088D01*
X35844498Y14665081D01*
X35721584Y14582952D01*
X35721580Y14582949D01*
X35617051Y14478420D01*
X35617048Y14478416D01*
X35534919Y14355502D01*
X35534912Y14355489D01*
X35478343Y14218918D01*
X35478340Y14218908D01*
X35449500Y14073921D01*
X35449500Y14073918D01*
X35449500Y13926082D01*
X35449500Y13926080D01*
X35449499Y13926080D01*
X34449500Y13926080D01*
X34449500Y15432936D01*
X34469185Y15499975D01*
X34473736Y15505624D01*
X34479597Y15514397D01*
X34479601Y15514399D01*
X34534966Y15597260D01*
X34549500Y15670326D01*
X34549500Y16361858D01*
X34569185Y16428897D01*
X34621989Y16474652D01*
X34691147Y16484596D01*
X34742390Y16464960D01*
X34751256Y16459036D01*
X34751258Y16459036D01*
X34751260Y16459034D01*
X34751262Y16459034D01*
X34751264Y16459033D01*
X34824321Y16444501D01*
X34824324Y16444500D01*
X34824326Y16444500D01*
X35873676Y16444500D01*
X35873677Y16444501D01*
X35946740Y16459034D01*
X36029601Y16514399D01*
X36084966Y16597260D01*
X36099500Y16670326D01*
X36099500Y17519674D01*
X36099500Y17519677D01*
X36099499Y17519679D01*
X36084967Y17592736D01*
X36084966Y17592740D01*
X36080449Y17599500D01*
X36029601Y17675601D01*
X35946740Y17730966D01*
X35946739Y17730967D01*
X35946735Y17730968D01*
X35873677Y17745500D01*
X35873674Y17745500D01*
X34824326Y17745500D01*
X34824323Y17745500D01*
X34751264Y17730968D01*
X34751260Y17730967D01*
X34668399Y17675601D01*
X34613033Y17592740D01*
X34613032Y17592736D01*
X34598498Y17519672D01*
X34598121Y17515837D01*
X34597362Y17513959D01*
X34597311Y17513700D01*
X34597261Y17513710D01*
X34571958Y17451050D01*
X34514922Y17410694D01*
X34445121Y17407580D01*
X34405830Y17424893D01*
X34396742Y17430965D01*
X34396735Y17430968D01*
X34323677Y17445500D01*
X34323674Y17445500D01*
X33729519Y17445500D01*
X33662480Y17465185D01*
X33616725Y17517989D01*
X33606781Y17587147D01*
X33635806Y17650703D01*
X33641838Y17657181D01*
X33743111Y17758455D01*
X33743114Y17758458D01*
X33819775Y17873189D01*
X33821181Y17876582D01*
X33831740Y17902076D01*
X33872580Y18000672D01*
X33890476Y18090639D01*
X33899500Y18136005D01*
X33899500Y18273996D01*
X33872581Y18409323D01*
X33872580Y18409324D01*
X33872580Y18409328D01*
X33863810Y18430500D01*
X33819778Y18536805D01*
X33819771Y18536818D01*
X33743114Y18651542D01*
X33743111Y18651546D01*
X33645545Y18749112D01*
X33645541Y18749115D01*
X33530817Y18825772D01*
X33530804Y18825779D01*
X33403332Y18878579D01*
X33403322Y18878582D01*
X33267995Y18905500D01*
X33267993Y18905500D01*
X33130007Y18905500D01*
X33130005Y18905500D01*
X32994677Y18878582D01*
X32994667Y18878579D01*
X32867195Y18825779D01*
X32867182Y18825772D01*
X32752458Y18749115D01*
X32752454Y18749112D01*
X32654888Y18651546D01*
X32654885Y18651542D01*
X32578228Y18536818D01*
X32578221Y18536805D01*
X32525421Y18409333D01*
X32525418Y18409323D01*
X32498500Y18273996D01*
X32498500Y18273993D01*
X32498500Y18136007D01*
X32498500Y18136005D01*
X32498499Y18136005D01*
X32525418Y18000678D01*
X32525421Y18000668D01*
X32578221Y17873196D01*
X32578228Y17873183D01*
X32654885Y17758459D01*
X32654888Y17758455D01*
X32752454Y17660889D01*
X32752458Y17660886D01*
X32867182Y17584229D01*
X32867195Y17584222D01*
X32981910Y17536706D01*
X32994672Y17531420D01*
X32994676Y17531420D01*
X32994677Y17531419D01*
X33130004Y17504500D01*
X33272540Y17504500D01*
X33339579Y17484815D01*
X33385334Y17432011D01*
X33395278Y17362853D01*
X33393300Y17352338D01*
X33388176Y17330370D01*
X33363034Y17292740D01*
X33348500Y17219674D01*
X33348500Y17160232D01*
X33345260Y17146338D01*
X33334799Y17127844D01*
X33328815Y17107461D01*
X33317945Y17098043D01*
X33310864Y17085521D01*
X33292064Y17075617D01*
X33276011Y17061706D01*
X33258381Y17057871D01*
X33249049Y17052954D01*
X33239556Y17053776D01*
X33224500Y17050500D01*
X33177525Y17050500D01*
X33054466Y17017526D01*
X33037511Y17012983D01*
X32911988Y16940512D01*
X32911982Y16940507D01*
X32809493Y16838018D01*
X32809488Y16838012D01*
X32737017Y16712489D01*
X32737016Y16712485D01*
X32699500Y16572475D01*
X32699500Y16427525D01*
X32736876Y16288039D01*
X32737017Y16287512D01*
X32809488Y16161989D01*
X32809490Y16161986D01*
X32809491Y16161985D01*
X32911985Y16059491D01*
X32911986Y16059490D01*
X32911988Y16059489D01*
X33037511Y15987018D01*
X33037512Y15987018D01*
X33037515Y15987016D01*
X33177525Y15949500D01*
X33177528Y15949500D01*
X33224500Y15949500D01*
X33291539Y15929815D01*
X33337294Y15877011D01*
X33348500Y15825500D01*
X33348500Y15670322D01*
X33363032Y15597265D01*
X33363033Y15597261D01*
X33363034Y15597260D01*
X33418399Y15514399D01*
X33418400Y15514399D01*
X33425185Y15504244D01*
X33422207Y15502255D01*
X33445666Y15459294D01*
X33448500Y15432936D01*
X33448500Y13418073D01*
X33428815Y13351034D01*
X33398811Y13318806D01*
X33307528Y13250472D01*
X33226664Y13142451D01*
X33226662Y13142448D01*
X33190182Y13044639D01*
X33148311Y12988705D01*
X33082846Y12964288D01*
X33014573Y12979140D01*
X32965168Y13028545D01*
X32957818Y13044639D01*
X32921337Y13142448D01*
X32921335Y13142451D01*
X32920366Y13143746D01*
X32840472Y13250472D01*
X32732450Y13331336D01*
X32732447Y13331338D01*
X32606024Y13378491D01*
X32550144Y13384500D01*
X32550130Y13384500D01*
X32022870Y13384500D01*
X32022855Y13384500D01*
X31966975Y13378491D01*
X31840552Y13331338D01*
X31840549Y13331336D01*
X31766957Y13276245D01*
X31738982Y13255303D01*
X31732527Y13250471D01*
X31716595Y13229188D01*
X31660661Y13187318D01*
X31617329Y13179500D01*
X30744149Y13179500D01*
X30689688Y13192100D01*
X30635520Y13218582D01*
X30605270Y13222989D01*
X30560582Y13229500D01*
X30217418Y13229500D01*
X30142482Y13218582D01*
X30142480Y13218582D01*
X30142478Y13218581D01*
X30026900Y13162079D01*
X30026899Y13162079D01*
X30003926Y13139105D01*
X29942602Y13105621D01*
X29872911Y13110607D01*
X29821920Y13148780D01*
X29821636Y13148495D01*
X29819659Y13150472D01*
X29816978Y13152479D01*
X29816478Y13153152D01*
X29815066Y13155065D01*
X29709559Y13232934D01*
X29709557Y13232935D01*
X29606053Y13269153D01*
X29549277Y13309875D01*
X29523530Y13374828D01*
X29536987Y13443389D01*
X29585374Y13493792D01*
X29614910Y13505968D01*
X29637485Y13512016D01*
X29763015Y13584491D01*
X29865509Y13686985D01*
X29937984Y13812515D01*
X29975500Y13952525D01*
X29975500Y14097475D01*
X29937984Y14237485D01*
X29924014Y14261681D01*
X29865511Y14363012D01*
X29865506Y14363018D01*
X29763017Y14465507D01*
X29763011Y14465512D01*
X29637488Y14537983D01*
X29637489Y14537983D01*
X29615036Y14543999D01*
X29520574Y14569311D01*
X29464988Y14601404D01*
X27833574Y16232819D01*
X27800089Y16294142D01*
X27805073Y16363834D01*
X27846945Y16419767D01*
X27912409Y16444184D01*
X27921255Y16444500D01*
X28573676Y16444500D01*
X28573677Y16444501D01*
X28646740Y16459034D01*
X28646743Y16459036D01*
X28655610Y16464960D01*
X28722287Y16485838D01*
X28789667Y16467353D01*
X28836357Y16415374D01*
X28848500Y16361858D01*
X28848500Y15670322D01*
X28863032Y15597265D01*
X28863033Y15597261D01*
X28863034Y15597260D01*
X28918399Y15514399D01*
X28994498Y15463552D01*
X29001260Y15459034D01*
X29001264Y15459033D01*
X29074321Y15444501D01*
X29074324Y15444500D01*
X29074326Y15444500D01*
X29823676Y15444500D01*
X29823677Y15444501D01*
X29896740Y15459034D01*
X29979601Y15514399D01*
X30034966Y15597260D01*
X30049500Y15670326D01*
X30049500Y17219674D01*
X30049500Y17219677D01*
X30049499Y17219679D01*
X30034967Y17292736D01*
X30034966Y17292738D01*
X30034966Y17292740D01*
X30022357Y17311610D01*
X30019320Y17321310D01*
X30012666Y17328989D01*
X30009057Y17354087D01*
X30001480Y17378286D01*
X30004168Y17388087D01*
X30002722Y17398147D01*
X30013255Y17421213D01*
X30019964Y17445667D01*
X30027525Y17452460D01*
X30031747Y17461703D01*
X30053077Y17475412D01*
X30071943Y17492357D01*
X30083540Y17494989D01*
X30090525Y17499477D01*
X30125460Y17504500D01*
X30272540Y17504500D01*
X30339579Y17484815D01*
X30385334Y17432011D01*
X30395278Y17362853D01*
X30375642Y17311609D01*
X30363034Y17292741D01*
X30363032Y17292736D01*
X30348500Y17219679D01*
X30348500Y15670322D01*
X30363032Y15597265D01*
X30363033Y15597261D01*
X30363034Y15597260D01*
X30418399Y15514399D01*
X30494498Y15463552D01*
X30501260Y15459034D01*
X30501264Y15459033D01*
X30574321Y15444501D01*
X30574324Y15444500D01*
X30574326Y15444500D01*
X31323676Y15444500D01*
X31323677Y15444501D01*
X31396740Y15459034D01*
X31479601Y15514399D01*
X31534966Y15597260D01*
X31549500Y15670326D01*
X31549500Y15825500D01*
X31569185Y15892539D01*
X31621989Y15938294D01*
X31673500Y15949500D01*
X31772472Y15949500D01*
X31772475Y15949500D01*
X31912485Y15987016D01*
X32038015Y16059491D01*
X32140509Y16161985D01*
X32212984Y16287515D01*
X32250500Y16427525D01*
X32250500Y16572475D01*
X32212984Y16712485D01*
X32211038Y16715855D01*
X32140511Y16838012D01*
X32140506Y16838018D01*
X32038017Y16940507D01*
X32038011Y16940512D01*
X31912488Y17012983D01*
X31912489Y17012983D01*
X31895534Y17017526D01*
X31772475Y17050500D01*
X31673500Y17050500D01*
X31606461Y17070185D01*
X31560706Y17122989D01*
X31549500Y17174500D01*
X31549500Y17219677D01*
X31549499Y17219679D01*
X31534967Y17292736D01*
X31534966Y17292740D01*
X31511085Y17328481D01*
X31479601Y17375601D01*
X31405829Y17424893D01*
X31396739Y17430967D01*
X31396735Y17430968D01*
X31323677Y17445500D01*
X31323674Y17445500D01*
X30729519Y17445500D01*
X30662480Y17465185D01*
X30616725Y17517989D01*
X30606781Y17587147D01*
X30635806Y17650703D01*
X30641838Y17657181D01*
X30743111Y17758455D01*
X30743114Y17758458D01*
X30819775Y17873189D01*
X30821181Y17876582D01*
X30831740Y17902076D01*
X30872580Y18000672D01*
X30890476Y18090639D01*
X30899500Y18136005D01*
X30899500Y18273996D01*
X30872581Y18409323D01*
X30872580Y18409324D01*
X30872580Y18409328D01*
X30863810Y18430500D01*
X30819778Y18536805D01*
X30819771Y18536818D01*
X30743114Y18651542D01*
X30743111Y18651546D01*
X30645545Y18749112D01*
X30645541Y18749115D01*
X30530817Y18825772D01*
X30530804Y18825779D01*
X30403332Y18878579D01*
X30403322Y18878582D01*
X30267995Y18905500D01*
X30267993Y18905500D01*
X30130007Y18905500D01*
X30130005Y18905500D01*
X29994677Y18878582D01*
X29994667Y18878579D01*
X29867195Y18825779D01*
X29867182Y18825772D01*
X29752458Y18749115D01*
X29752454Y18749112D01*
X29654888Y18651546D01*
X29654885Y18651542D01*
X29578228Y18536818D01*
X29578221Y18536805D01*
X29525421Y18409333D01*
X29525418Y18409323D01*
X29498500Y18273996D01*
X29498500Y18273993D01*
X29498500Y18136007D01*
X29498500Y18136005D01*
X29498499Y18136005D01*
X29525418Y18000678D01*
X29525421Y18000668D01*
X29578221Y17873196D01*
X29578228Y17873183D01*
X29654885Y17758459D01*
X29654888Y17758455D01*
X29756162Y17657181D01*
X29789647Y17595858D01*
X29784663Y17526166D01*
X29742791Y17470233D01*
X29677327Y17445816D01*
X29668481Y17445500D01*
X29074323Y17445500D01*
X29001264Y17430968D01*
X29001258Y17430966D01*
X28992167Y17424891D01*
X28925488Y17404016D01*
X28858109Y17422503D01*
X28811421Y17474484D01*
X28799876Y17515849D01*
X28799500Y17519666D01*
X28799500Y17519674D01*
X28790384Y17565500D01*
X28784967Y17592736D01*
X28784966Y17592740D01*
X28780449Y17599500D01*
X28729601Y17675601D01*
X28646740Y17730966D01*
X28646739Y17730967D01*
X28646735Y17730968D01*
X28573677Y17745500D01*
X28573674Y17745500D01*
X27524326Y17745500D01*
X27524323Y17745500D01*
X27451264Y17730968D01*
X27451260Y17730967D01*
X27368399Y17675601D01*
X27313033Y17592740D01*
X27313032Y17592736D01*
X27298500Y17519679D01*
X27298500Y17067255D01*
X27292261Y17046010D01*
X27290682Y17023921D01*
X27282609Y17013138D01*
X27278815Y17000216D01*
X27262081Y16985717D01*
X27248810Y16967988D01*
X27236189Y16963281D01*
X27226011Y16954461D01*
X27204093Y16951310D01*
X27183346Y16943571D01*
X27170185Y16946434D01*
X27156853Y16944517D01*
X27136709Y16953717D01*
X27115073Y16958423D01*
X27097347Y16971692D01*
X27093297Y16973542D01*
X27086819Y16979574D01*
X26986819Y17079574D01*
X26953334Y17140897D01*
X26950500Y17167255D01*
X26950500Y17172473D01*
X26950500Y17172475D01*
X26933418Y17236226D01*
X26935081Y17306073D01*
X26941795Y17322782D01*
X26944581Y17328481D01*
X26944580Y17328481D01*
X26944582Y17328483D01*
X26955500Y17403419D01*
X26955500Y17746583D01*
X26944582Y17821519D01*
X26934099Y17842962D01*
X26888078Y17937101D01*
X26888076Y17937104D01*
X26827861Y17997319D01*
X26794376Y18058642D01*
X26799360Y18128334D01*
X26827861Y18172681D01*
X26888076Y18232897D01*
X26888078Y18232900D01*
X26928820Y18316240D01*
X26944582Y18348481D01*
X26955500Y18423417D01*
X26955500Y18766581D01*
X26944582Y18841517D01*
X26942222Y18846343D01*
X26888078Y18957099D01*
X26888076Y18957102D01*
X26797102Y19048076D01*
X26797099Y19048078D01*
X26681521Y19104580D01*
X26681519Y19104581D01*
X26681518Y19104581D01*
X26606582Y19115499D01*
X26606577Y19115499D01*
X26388694Y19115499D01*
X26356602Y19119724D01*
X26297728Y19135499D01*
X26297727Y19135499D01*
X25598756Y19135499D01*
X25531717Y19155184D01*
X25492024Y19196378D01*
X25468081Y19236864D01*
X25468076Y19236870D01*
X25351870Y19353076D01*
X25351862Y19353082D01*
X25210396Y19436744D01*
X25210393Y19436745D01*
X25142658Y19456424D01*
X25083772Y19494030D01*
X25054566Y19557503D01*
X25064312Y19626689D01*
X25109916Y19679624D01*
X25176899Y19699499D01*
X25177253Y19699500D01*
X27174500Y19699500D01*
X27241539Y19679815D01*
G37*
%TD.AperFunction*%
%TA.AperFunction,Conductor*%
G36*
X25811999Y17341279D02*
G01*
X25835095Y17308687D01*
X25847584Y17283142D01*
X25859345Y17214269D01*
X25855961Y17196589D01*
X25849500Y17172475D01*
X25849500Y17027525D01*
X25886350Y16890002D01*
X25887017Y16887512D01*
X25959488Y16761989D01*
X25959490Y16761987D01*
X25959491Y16761985D01*
X26061985Y16659491D01*
X26061986Y16659490D01*
X26061988Y16659489D01*
X26187511Y16587018D01*
X26187512Y16587018D01*
X26187515Y16587016D01*
X26327525Y16549500D01*
X26332745Y16549500D01*
X26399784Y16529815D01*
X26420426Y16513181D01*
X28838181Y14095427D01*
X28871666Y14034104D01*
X28874500Y14007746D01*
X28874500Y13952525D01*
X28911652Y13813875D01*
X28912017Y13812512D01*
X28984488Y13686989D01*
X28984490Y13686987D01*
X28984491Y13686985D01*
X29086985Y13584491D01*
X29195941Y13521585D01*
X29218475Y13508575D01*
X29266691Y13458008D01*
X29279914Y13389401D01*
X29253945Y13324536D01*
X29197031Y13284008D01*
X29168055Y13277730D01*
X29152218Y13276245D01*
X29152207Y13276243D01*
X29028442Y13232935D01*
X29028440Y13232934D01*
X28922934Y13155066D01*
X28845066Y13049560D01*
X28845065Y13049558D01*
X28801755Y12925788D01*
X28801755Y12925786D01*
X28800181Y12909001D01*
X28800182Y12909000D01*
X29245000Y12909000D01*
X29312039Y12889315D01*
X29357794Y12836511D01*
X29369000Y12785000D01*
X29369000Y12533000D01*
X29349315Y12465961D01*
X29296511Y12420206D01*
X29245000Y12409000D01*
X28800182Y12409000D01*
X28793059Y12401178D01*
X28785019Y12359845D01*
X28736717Y12309361D01*
X28668789Y12293005D01*
X28602801Y12315970D01*
X28587220Y12329173D01*
X26645915Y14270478D01*
X26645913Y14270480D01*
X26600250Y14296844D01*
X26554589Y14323207D01*
X26503657Y14336854D01*
X26452727Y14350500D01*
X26452726Y14350500D01*
X25113500Y14350500D01*
X25046461Y14370185D01*
X25000706Y14422989D01*
X24989500Y14474500D01*
X24989500Y16575978D01*
X25009185Y16643017D01*
X25061989Y16688772D01*
X25078905Y16695054D01*
X25139607Y16712691D01*
X25210398Y16733257D01*
X25351865Y16816920D01*
X25468081Y16933136D01*
X25551744Y17074603D01*
X25592784Y17215862D01*
X25597597Y17232428D01*
X25597598Y17232435D01*
X25598306Y17241430D01*
X25600078Y17263952D01*
X25624960Y17329239D01*
X25681191Y17370711D01*
X25750916Y17375200D01*
X25811999Y17341279D01*
G37*
%TD.AperFunction*%
%TA.AperFunction,Conductor*%
G36*
X6045110Y14047596D02*
G01*
X6089457Y14019095D01*
X6644095Y13464457D01*
X6677580Y13403134D01*
X6672596Y13333442D01*
X6644095Y13289095D01*
X6555000Y13200000D01*
X6592819Y13162181D01*
X6626304Y13100858D01*
X6621320Y13031166D01*
X6579448Y12975233D01*
X6513984Y12950816D01*
X6505138Y12950500D01*
X6251310Y12950500D01*
X6184271Y12970185D01*
X6138516Y13022989D01*
X6128572Y13092147D01*
X6157597Y13155703D01*
X6163629Y13162182D01*
X6201447Y13200001D01*
X5740034Y13661414D01*
X5740023Y13661424D01*
X5735894Y13665554D01*
X5716919Y13700315D01*
X5702420Y13726867D01*
X5702420Y13726876D01*
X5702417Y13726882D01*
X5705145Y13764965D01*
X5707404Y13796559D01*
X5707408Y13796566D01*
X5707409Y13796573D01*
X5707437Y13796611D01*
X5735905Y13840907D01*
X5914095Y14019095D01*
X5975418Y14052580D01*
X6045110Y14047596D01*
G37*
%TD.AperFunction*%
M02*
