%TF.GenerationSoftware,KiCad,Pcbnew,9.0.5*%
%TF.CreationDate,2025-10-25T22:32:09+05:30*%
%TF.ProjectId,ESPNut-D1,4553504e-7574-42d4-9431-2e6b69636164,0.3*%
%TF.SameCoordinates,Original*%
%TF.FileFunction,Soldermask,Top*%
%TF.FilePolarity,Negative*%
%FSLAX46Y46*%
G04 Gerber Fmt 4.6, Leading zero omitted, Abs format (unit mm)*
G04 Created by KiCad (PCBNEW 9.0.5) date 2025-10-25 22:32:09*
%MOMM*%
%LPD*%
G01*
G04 APERTURE LIST*
G04 Aperture macros list*
%AMRoundRect*
0 Rectangle with rounded corners*
0 $1 Rounding radius*
0 $2 $3 $4 $5 $6 $7 $8 $9 X,Y pos of 4 corners*
0 Add a 4 corners polygon primitive as box body*
4,1,4,$2,$3,$4,$5,$6,$7,$8,$9,$2,$3,0*
0 Add four circle primitives for the rounded corners*
1,1,$1+$1,$2,$3*
1,1,$1+$1,$4,$5*
1,1,$1+$1,$6,$7*
1,1,$1+$1,$8,$9*
0 Add four rect primitives between the rounded corners*
20,1,$1+$1,$2,$3,$4,$5,0*
20,1,$1+$1,$4,$5,$6,$7,0*
20,1,$1+$1,$6,$7,$8,$9,0*
20,1,$1+$1,$8,$9,$2,$3,0*%
%AMFreePoly0*
4,1,15,-0.500000,0.200000,-0.480423,0.323607,-0.423607,0.435114,-0.335114,0.523607,-0.223607,0.580423,-0.100000,0.600000,0.500000,0.600000,0.500000,-0.600000,-0.100000,-0.600000,-0.223607,-0.580423,-0.335114,-0.523607,-0.423607,-0.435114,-0.480423,-0.323607,-0.500000,-0.200000,-0.500000,0.200000,-0.500000,0.200000,$1*%
%AMFreePoly1*
4,1,15,-0.500000,0.600000,0.100000,0.600000,0.223607,0.580423,0.335114,0.523607,0.423607,0.435114,0.480423,0.323607,0.500000,0.200000,0.500000,-0.200000,0.480423,-0.323607,0.423607,-0.435114,0.335114,-0.523607,0.223607,-0.580423,0.100000,-0.600000,-0.500000,-0.600000,-0.500000,0.600000,-0.500000,0.600000,$1*%
G04 Aperture macros list end*
%ADD10R,1.000000X0.800000*%
%ADD11C,0.900000*%
%ADD12R,0.700000X1.500000*%
%ADD13R,0.510000X0.400000*%
%ADD14RoundRect,0.135000X0.185000X-0.135000X0.185000X0.135000X-0.185000X0.135000X-0.185000X-0.135000X0*%
%ADD15RoundRect,0.135000X-0.135000X-0.185000X0.135000X-0.185000X0.135000X0.185000X-0.135000X0.185000X0*%
%ADD16RoundRect,0.135000X0.135000X0.185000X-0.135000X0.185000X-0.135000X-0.185000X0.135000X-0.185000X0*%
%ADD17RoundRect,0.150000X-0.825000X-0.150000X0.825000X-0.150000X0.825000X0.150000X-0.825000X0.150000X0*%
%ADD18C,2.200000*%
%ADD19RoundRect,0.150000X-0.512500X-0.150000X0.512500X-0.150000X0.512500X0.150000X-0.512500X0.150000X0*%
%ADD20FreePoly0,90.000000*%
%ADD21FreePoly1,90.000000*%
%ADD22RoundRect,0.140000X0.140000X0.170000X-0.140000X0.170000X-0.140000X-0.170000X0.140000X-0.170000X0*%
%ADD23R,0.400000X1.900000*%
%ADD24RoundRect,0.135000X-0.185000X0.135000X-0.185000X-0.135000X0.185000X-0.135000X0.185000X0.135000X0*%
%ADD25RoundRect,0.140000X-0.140000X-0.170000X0.140000X-0.170000X0.140000X0.170000X-0.140000X0.170000X0*%
%ADD26RoundRect,0.218750X-0.218750X-0.256250X0.218750X-0.256250X0.218750X0.256250X-0.218750X0.256250X0*%
%ADD27R,1.000000X0.700000*%
%ADD28R,0.600000X0.700000*%
%ADD29RoundRect,0.250000X0.400000X0.275000X-0.400000X0.275000X-0.400000X-0.275000X0.400000X-0.275000X0*%
%ADD30R,1.150000X1.700000*%
%ADD31RoundRect,0.140000X0.170000X-0.140000X0.170000X0.140000X-0.170000X0.140000X-0.170000X-0.140000X0*%
%ADD32C,0.650000*%
%ADD33RoundRect,0.150000X-0.425000X0.150000X-0.425000X-0.150000X0.425000X-0.150000X0.425000X0.150000X0*%
%ADD34RoundRect,0.075000X-0.500000X0.075000X-0.500000X-0.075000X0.500000X-0.075000X0.500000X0.075000X0*%
%ADD35RoundRect,0.250000X-0.750000X0.840000X-0.750000X-0.840000X0.750000X-0.840000X0.750000X0.840000X0*%
%ADD36R,1.000000X1.000000*%
%ADD37O,1.000000X1.000000*%
%ADD38FreePoly0,180.000000*%
%ADD39FreePoly1,180.000000*%
%ADD40C,1.500000*%
%ADD41RoundRect,0.150000X0.625000X-0.150000X0.625000X0.150000X-0.625000X0.150000X-0.625000X-0.150000X0*%
%ADD42RoundRect,0.250000X0.650000X-0.350000X0.650000X0.350000X-0.650000X0.350000X-0.650000X-0.350000X0*%
%ADD43RoundRect,0.140000X-0.170000X0.140000X-0.170000X-0.140000X0.170000X-0.140000X0.170000X0.140000X0*%
G04 APERTURE END LIST*
D10*
X35349000Y17095000D03*
X35349000Y19305000D03*
D11*
X33199000Y18205000D03*
X30199000Y18205000D03*
D10*
X28049000Y17095000D03*
X28049000Y19305000D03*
D12*
X33949000Y16445000D03*
X30949000Y16445000D03*
X29449000Y16445000D03*
D13*
X21040000Y7775000D03*
X21040000Y6775000D03*
X22330000Y7275000D03*
D14*
X22214999Y12035001D03*
X22214999Y13054999D03*
X28405000Y4779002D03*
X28405000Y5799000D03*
D15*
X21245001Y11115000D03*
X22264999Y11115000D03*
X18955000Y11115000D03*
X19975000Y11115000D03*
D16*
X24220000Y8015000D03*
X23200000Y8015000D03*
D17*
X10750000Y13844000D03*
X10750000Y12574000D03*
X10750000Y11304000D03*
X10750000Y10034000D03*
X10750000Y8764000D03*
X10750000Y7494000D03*
X10750000Y6224000D03*
X10750000Y4954000D03*
X15700000Y4954000D03*
X15700000Y6224000D03*
X15700000Y7494000D03*
X15700000Y8764000D03*
X15700000Y10034000D03*
X15700000Y11304000D03*
X15700000Y12574000D03*
X15700000Y13844000D03*
D16*
X9245000Y11904000D03*
X8225000Y11904000D03*
D13*
X21040000Y10025000D03*
X21040000Y9025000D03*
X22330000Y9525000D03*
D15*
X4625000Y17655000D03*
X5645000Y17655000D03*
D14*
X27391575Y4744581D03*
X27391575Y5764579D03*
D18*
X2000000Y2000000D03*
D19*
X23397500Y5269000D03*
X23397500Y4319000D03*
X23397500Y3369000D03*
X25672500Y3369000D03*
X25672500Y5269000D03*
D20*
X24750000Y17435001D03*
D21*
X24750000Y18734999D03*
D18*
X2000000Y18000000D03*
D22*
X12555000Y15305000D03*
X11595000Y15305000D03*
D23*
X14230000Y2640000D03*
X13030000Y2640000D03*
X11830000Y2640000D03*
D24*
X17605000Y14684000D03*
X17605000Y13664000D03*
D25*
X21655000Y1544000D03*
X22615000Y1544000D03*
D14*
X8475000Y15075000D03*
X8475000Y16095000D03*
D13*
X18820000Y13393000D03*
X18820000Y12393000D03*
X20110000Y12893000D03*
D26*
X18227500Y8015000D03*
X19802500Y8015000D03*
D27*
X8725000Y1305000D03*
D28*
X10425000Y1305000D03*
X10425000Y3305000D03*
X8525000Y3305000D03*
D29*
X20185000Y5125000D03*
X18235000Y5125000D03*
D10*
X28049000Y2891792D03*
X28049000Y681792D03*
D11*
X30199000Y1781792D03*
X33199000Y1781792D03*
D10*
X35349000Y2891792D03*
X35349000Y681792D03*
D12*
X29449000Y3541792D03*
X32449000Y3541792D03*
X33949000Y3541792D03*
D30*
X42199000Y1960000D03*
X37849000Y1960000D03*
D31*
X16365000Y1524000D03*
X16365000Y2484000D03*
D32*
X5480000Y12890000D03*
X5480000Y7110000D03*
D33*
X6555000Y13200000D03*
X6555000Y12400000D03*
D34*
X6555000Y11250000D03*
X6555000Y10250000D03*
X6555000Y9750000D03*
X6555000Y8750000D03*
D33*
X6555000Y7600000D03*
X6555000Y6800000D03*
X6555000Y6800000D03*
X6555000Y7600000D03*
D34*
X6555000Y8250000D03*
X6555000Y9250000D03*
X6555000Y10750000D03*
X6555000Y11750000D03*
D33*
X6555000Y12400000D03*
X6555000Y13200000D03*
D35*
X5980000Y15110000D03*
X2050000Y15110000D03*
X5980000Y4890000D03*
X2050000Y4890000D03*
D36*
X25859000Y10448000D03*
D37*
X24589000Y10448000D03*
X25859000Y11718000D03*
X24589000Y11718000D03*
X25859000Y12988000D03*
X24589000Y12988000D03*
D26*
X32286500Y12659000D03*
X33861500Y12659000D03*
D15*
X23245000Y6745000D03*
X24264998Y6745000D03*
D30*
X17565000Y18150000D03*
X13215000Y18150000D03*
D38*
X30859999Y7200000D03*
D39*
X29560001Y7200000D03*
D14*
X20745000Y17575001D03*
X20745000Y18594999D03*
D13*
X18820000Y15704000D03*
X18820000Y14704000D03*
X20110000Y15204000D03*
D30*
X42199000Y18040000D03*
X37849000Y18040000D03*
D26*
X7017500Y17705000D03*
X8592500Y17705000D03*
D15*
X18955000Y6745000D03*
X19975000Y6745000D03*
D26*
X18227500Y9805000D03*
X19802500Y9805000D03*
D40*
X36200000Y14000000D03*
D41*
X38896999Y7500000D03*
X38897000Y8500000D03*
X38897000Y9500000D03*
X38897000Y10500000D03*
X38897000Y11500000D03*
X38896999Y12500000D03*
D42*
X42772000Y6200000D03*
X42772000Y13800000D03*
D15*
X29369000Y12659000D03*
X30389000Y12659000D03*
D24*
X6725000Y2514000D03*
X6725000Y1494000D03*
D20*
X22375000Y17435001D03*
D21*
X22375000Y18734999D03*
D14*
X17605000Y11065000D03*
X17605000Y12085000D03*
D22*
X9195000Y13174000D03*
X8235000Y13174000D03*
D43*
X21685000Y3464000D03*
X21685000Y2504000D03*
D19*
X18047500Y3444000D03*
X18047500Y2494000D03*
X18047500Y1544000D03*
X20322500Y1544000D03*
X20322500Y3444000D03*
D14*
X26385000Y17575001D03*
X26385000Y18594999D03*
M02*
