M48
; DRILL file {KiCad 9.0.5} date 2025-10-25T22:32:09+0530
; FORMAT={-:-/ absolute / metric / decimal}
; #@! TF.CreationDate,2025-10-25T22:32:09+05:30
; #@! TF.GenerationSoftware,Kicad,Pcbnew,9.0.5
; #@! TF.FileFunction,Plated,1,2,PTH
FMAT,2
METRIC
; #@! TA.AperFunction,Plated,PTH,ViaDrill
T1C0.200
; #@! TA.AperFunction,Plated,PTH,ViaDrill
T2C0.300
; #@! TA.AperFunction,Plated,PTH,ViaDrill
T3C0.400
; #@! TA.AperFunction,Plated,PTH,ComponentDrill
T4C0.650
%
G90
G05
T1
X5.276Y9.68
X6.555Y12.4
X6.6Y7.6
X7.018Y17.705
X7.5Y11.262
X7.516Y10.3
X8.4Y14.3
X8.6Y17.705
X11.9Y12.6
X12.0Y11.3
X15.7Y12.574
X15.7Y11.304
X15.7Y10.034
X15.7Y8.764
X15.7Y7.494
X15.7Y6.224
X15.7Y4.954
X17.6Y13.7
X18.8Y15.0
X20.8Y17.1
X21.1Y15.2
X21.8Y13.05
X23.1Y12.7
X23.15Y8.525
X25.3Y7.9
X25.672Y3.369
X26.4Y17.1
X27.392Y5.765
X28.15Y9.85
X28.85Y14.6
X32.4Y12.679
X38.3Y1.95
X40.409Y5.421
T2
X1.4Y10.8
X1.4Y9.2
X2.05Y15.11
X4.6Y19.0
X4.6Y2.0
X4.6Y1.0
X5.4Y19.0
X5.98Y15.11
X5.98Y4.89
X10.0Y16.6
X10.0Y15.8
X10.0Y15.0
X10.6Y19.0
X12.2Y4.4
X12.4Y10.0
X12.4Y8.4
X13.03Y2.64
X14.75Y18.15
X15.2Y17.0
X15.4Y3.0
X15.4Y2.4
X15.4Y1.8
X16.0Y17.0
X16.6Y14.8
X17.4Y8.8
X17.4Y6.8
X17.4Y6.2
X18.047Y2.494
X18.235Y8.0
X19.0Y19.0
X19.0Y17.0
X19.2Y4.2
X19.6Y13.8
X21.0Y16.2
X21.3Y4.4
X22.2Y4.4
X23.4Y11.8
X23.4Y11.0
X23.6Y19.0
X23.6Y16.2
X23.8Y1.6
X24.8Y4.4
X25.4Y4.4
X26.0Y16.2
X28.0Y4.0
X29.0Y18.2
X31.4Y2.0
X31.4Y1.2
X31.8Y19.2
X31.8Y18.2
X32.2Y2.0
X32.2Y1.2
X34.8Y6.8
X34.8Y6.0
X34.8Y5.2
X35.2Y16.0
X35.8Y5.2
X36.6Y19.2
X36.6Y16.0
X36.6Y12.4
X36.8Y5.2
X38.075Y18.055
X38.8Y14.8
X39.6Y14.8
X40.8Y19.0
X40.8Y18.2
X40.8Y1.8
X40.8Y1.0
X41.1Y13.05
X41.3Y9.5
X41.35Y10.5
T3
X1.4Y12.2
X20.3Y2.65
X31.15Y8.25
X31.7Y16.5
X33.25Y16.5
X34.68Y3.868
X40.388Y6.462
T4
X24.589Y12.988
X24.589Y11.718
X24.589Y10.448
X25.859Y12.988
X25.859Y11.718
X25.859Y10.448
M30
