M48
; DRILL file {KiCad 9.0.1} date 2025-04-09T10:04:17+0530
; FORMAT={-:-/ absolute / metric / decimal}
; #@! TF.CreationDate,2025-04-09T10:04:17+05:30
; #@! TF.GenerationSoftware,Kicad,Pcbnew,9.0.1
; #@! TF.FileFunction,Plated,1,2,PTH
FMAT,2
METRIC
; #@! TA.AperFunction,Plated,PTH,ViaDrill
T1C0.300
; #@! TA.AperFunction,Plated,PTH,ComponentDrill
T2C0.650
; #@! TA.AperFunction,Plated,PTH,ComponentDrill
T3C1.000
%
G90
G05
T1
X1.4Y12.2
X2.5Y13.25
X3.5Y13.25
X4.0Y6.25
X4.0Y4.25
X4.25Y2.25
X4.25Y1.25
X4.75Y19.0
X5.35Y11.25
X5.485Y10.097
X5.75Y19.0
X6.2Y2.5
X6.5Y17.655
X7.6Y14.5
X7.9Y10.375
X7.9Y9.175
X8.1Y7.9
X8.25Y11.25
X9.397Y16.9
X10.0Y16.0
X10.75Y18.0
X11.0Y16.0
X11.1Y12.704
X11.61Y17.6
X12.5Y5.0
X13.0Y12.0
X14.0Y14.25
X14.0Y11.0
X15.25Y13.644
X15.296Y12.374
X15.4Y9.834
X15.4Y8.564
X15.4Y7.294
X15.45Y11.104
X15.5Y3.0
X15.5Y2.25
X16.1Y17.55
X16.5Y15.5
X16.685Y6.024
X17.192Y3.594
X17.5Y12.5
X17.75Y0.75
X19.325Y13.1
X20.8Y9.9
X22.0Y6.25
X22.0Y5.5
X22.2Y12.3
X23.25Y3.25
X23.25Y2.5
X23.8Y5.8
X24.13Y8.0
X24.25Y5.0
X25.5Y15.0
X25.5Y14.0
X25.75Y11.75
X25.75Y10.75
X25.9Y3.1
X26.5Y19.0
X26.5Y18.25
X26.5Y16.5
X26.9Y6.0
X27.6Y1.4
X27.8Y16.5
X28.98Y11.48
X30.0Y13.5
X30.75Y13.5
X31.5Y13.5
X31.75Y7.5
X32.5Y16.75
X32.75Y7.5
X33.25Y16.75
X33.75Y7.5
X34.0Y16.75
X34.15Y4.35
X35.0Y18.725
X36.5Y16.0
X36.6Y14.1
X36.6Y2.0
X37.2Y17.95
X37.25Y16.0
X38.0Y16.0
X38.0Y4.25
X38.8Y6.5
X39.0Y11.5
X39.0Y4.25
X39.25Y18.75
X39.75Y11.5
X40.0Y18.75
X40.0Y1.25
X40.75Y1.25
X41.5Y1.25
T2
X29.455Y5.175
X29.455Y3.905
X29.455Y2.635
X30.725Y5.175
X30.725Y3.905
X30.725Y2.635
T3
X42.255Y16.35
X42.255Y13.81
X42.255Y11.27
X42.255Y8.73
X42.255Y6.19
X42.255Y3.65
M30
