%TF.GenerationSoftware,KiCad,Pcbnew,9.0.1*%
%TF.CreationDate,2025-04-09T10:04:16+05:30*%
%TF.ProjectId,ESPNut-D1,4553504e-7574-42d4-9431-2e6b69636164,0.1*%
%TF.SameCoordinates,Original*%
%TF.FileFunction,OtherDrawing,Comment*%
%FSLAX46Y46*%
G04 Gerber Fmt 4.6, Leading zero omitted, Abs format (unit mm)*
G04 Created by KiCad (PCBNEW 9.0.1) date 2025-04-09 10:04:16*
%MOMM*%
%LPD*%
G01*
G04 APERTURE LIST*
%ADD10C,0.100000*%
%ADD11C,0.200000*%
G04 APERTURE END LIST*
D10*
X0Y2000000D02*
X0Y0D01*
X0Y0D02*
X2000000Y0D01*
D11*
X48532488Y-2045379D02*
X48199155Y-1569188D01*
X47961060Y-2045379D02*
X47961060Y-1045379D01*
X47961060Y-1045379D02*
X48342012Y-1045379D01*
X48342012Y-1045379D02*
X48437250Y-1092998D01*
X48437250Y-1092998D02*
X48484869Y-1140617D01*
X48484869Y-1140617D02*
X48532488Y-1235855D01*
X48532488Y-1235855D02*
X48532488Y-1378712D01*
X48532488Y-1378712D02*
X48484869Y-1473950D01*
X48484869Y-1473950D02*
X48437250Y-1521569D01*
X48437250Y-1521569D02*
X48342012Y-1569188D01*
X48342012Y-1569188D02*
X47961060Y-1569188D01*
X49675346Y-1140617D02*
X49722965Y-1092998D01*
X49722965Y-1092998D02*
X49818203Y-1045379D01*
X49818203Y-1045379D02*
X50056298Y-1045379D01*
X50056298Y-1045379D02*
X50151536Y-1092998D01*
X50151536Y-1092998D02*
X50199155Y-1140617D01*
X50199155Y-1140617D02*
X50246774Y-1235855D01*
X50246774Y-1235855D02*
X50246774Y-1331093D01*
X50246774Y-1331093D02*
X50199155Y-1473950D01*
X50199155Y-1473950D02*
X49627727Y-2045379D01*
X49627727Y-2045379D02*
X50246774Y-2045379D01*
X50675346Y-1950140D02*
X50722965Y-1997760D01*
X50722965Y-1997760D02*
X50675346Y-2045379D01*
X50675346Y-2045379D02*
X50627727Y-1997760D01*
X50627727Y-1997760D02*
X50675346Y-1950140D01*
X50675346Y-1950140D02*
X50675346Y-2045379D01*
X51342012Y-1045379D02*
X51437250Y-1045379D01*
X51437250Y-1045379D02*
X51532488Y-1092998D01*
X51532488Y-1092998D02*
X51580107Y-1140617D01*
X51580107Y-1140617D02*
X51627726Y-1235855D01*
X51627726Y-1235855D02*
X51675345Y-1426331D01*
X51675345Y-1426331D02*
X51675345Y-1664426D01*
X51675345Y-1664426D02*
X51627726Y-1854902D01*
X51627726Y-1854902D02*
X51580107Y-1950140D01*
X51580107Y-1950140D02*
X51532488Y-1997760D01*
X51532488Y-1997760D02*
X51437250Y-2045379D01*
X51437250Y-2045379D02*
X51342012Y-2045379D01*
X51342012Y-2045379D02*
X51246774Y-1997760D01*
X51246774Y-1997760D02*
X51199155Y-1950140D01*
X51199155Y-1950140D02*
X51151536Y-1854902D01*
X51151536Y-1854902D02*
X51103917Y-1664426D01*
X51103917Y-1664426D02*
X51103917Y-1426331D01*
X51103917Y-1426331D02*
X51151536Y-1235855D01*
X51151536Y-1235855D02*
X51199155Y-1140617D01*
X51199155Y-1140617D02*
X51246774Y-1092998D01*
X51246774Y-1092998D02*
X51342012Y-1045379D01*
X52294393Y-1045379D02*
X52389631Y-1045379D01*
X52389631Y-1045379D02*
X52484869Y-1092998D01*
X52484869Y-1092998D02*
X52532488Y-1140617D01*
X52532488Y-1140617D02*
X52580107Y-1235855D01*
X52580107Y-1235855D02*
X52627726Y-1426331D01*
X52627726Y-1426331D02*
X52627726Y-1664426D01*
X52627726Y-1664426D02*
X52580107Y-1854902D01*
X52580107Y-1854902D02*
X52532488Y-1950140D01*
X52532488Y-1950140D02*
X52484869Y-1997760D01*
X52484869Y-1997760D02*
X52389631Y-2045379D01*
X52389631Y-2045379D02*
X52294393Y-2045379D01*
X52294393Y-2045379D02*
X52199155Y-1997760D01*
X52199155Y-1997760D02*
X52151536Y-1950140D01*
X52151536Y-1950140D02*
X52103917Y-1854902D01*
X52103917Y-1854902D02*
X52056298Y-1664426D01*
X52056298Y-1664426D02*
X52056298Y-1426331D01*
X52056298Y-1426331D02*
X52103917Y-1235855D01*
X52103917Y-1235855D02*
X52151536Y-1140617D01*
X52151536Y-1140617D02*
X52199155Y-1092998D01*
X52199155Y-1092998D02*
X52294393Y-1045379D01*
X53818203Y-2045379D02*
X53818203Y-1378712D01*
X53818203Y-1473950D02*
X53865822Y-1426331D01*
X53865822Y-1426331D02*
X53961060Y-1378712D01*
X53961060Y-1378712D02*
X54103917Y-1378712D01*
X54103917Y-1378712D02*
X54199155Y-1426331D01*
X54199155Y-1426331D02*
X54246774Y-1521569D01*
X54246774Y-1521569D02*
X54246774Y-2045379D01*
X54246774Y-1521569D02*
X54294393Y-1426331D01*
X54294393Y-1426331D02*
X54389631Y-1378712D01*
X54389631Y-1378712D02*
X54532488Y-1378712D01*
X54532488Y-1378712D02*
X54627727Y-1426331D01*
X54627727Y-1426331D02*
X54675346Y-1521569D01*
X54675346Y-1521569D02*
X54675346Y-2045379D01*
X55151536Y-2045379D02*
X55151536Y-1378712D01*
X55151536Y-1473950D02*
X55199155Y-1426331D01*
X55199155Y-1426331D02*
X55294393Y-1378712D01*
X55294393Y-1378712D02*
X55437250Y-1378712D01*
X55437250Y-1378712D02*
X55532488Y-1426331D01*
X55532488Y-1426331D02*
X55580107Y-1521569D01*
X55580107Y-1521569D02*
X55580107Y-2045379D01*
X55580107Y-1521569D02*
X55627726Y-1426331D01*
X55627726Y-1426331D02*
X55722964Y-1378712D01*
X55722964Y-1378712D02*
X55865821Y-1378712D01*
X55865821Y-1378712D02*
X55961060Y-1426331D01*
X55961060Y-1426331D02*
X56008679Y-1521569D01*
X56008679Y-1521569D02*
X56008679Y-2045379D01*
D10*
X42000000Y3270000D02*
X42000000Y730000D01*
X43270000Y2000000D02*
X40730000Y2000000D01*
X43414214Y585786D02*
X45593160Y-1593160D01*
X45593160Y-1593160D02*
X47022965Y-1593160D01*
X43414214Y585786D02*
X44625435Y203890D01*
X43414214Y585786D02*
X43796110Y-625435D01*
D11*
X-14090764Y-2584679D02*
X-14424097Y-2108488D01*
X-14662192Y-2584679D02*
X-14662192Y-1584679D01*
X-14662192Y-1584679D02*
X-14281240Y-1584679D01*
X-14281240Y-1584679D02*
X-14186002Y-1632298D01*
X-14186002Y-1632298D02*
X-14138383Y-1679917D01*
X-14138383Y-1679917D02*
X-14090764Y-1775155D01*
X-14090764Y-1775155D02*
X-14090764Y-1918012D01*
X-14090764Y-1918012D02*
X-14138383Y-2013250D01*
X-14138383Y-2013250D02*
X-14186002Y-2060869D01*
X-14186002Y-2060869D02*
X-14281240Y-2108488D01*
X-14281240Y-2108488D02*
X-14662192Y-2108488D01*
X-12376478Y-2584679D02*
X-12947906Y-2584679D01*
X-12662192Y-2584679D02*
X-12662192Y-1584679D01*
X-12662192Y-1584679D02*
X-12757430Y-1727536D01*
X-12757430Y-1727536D02*
X-12852668Y-1822774D01*
X-12852668Y-1822774D02*
X-12947906Y-1870393D01*
X-11947906Y-2489440D02*
X-11900287Y-2537060D01*
X-11900287Y-2537060D02*
X-11947906Y-2584679D01*
X-11947906Y-2584679D02*
X-11995525Y-2537060D01*
X-11995525Y-2537060D02*
X-11947906Y-2489440D01*
X-11947906Y-2489440D02*
X-11947906Y-2584679D01*
X-10947907Y-2584679D02*
X-11519335Y-2584679D01*
X-11233621Y-2584679D02*
X-11233621Y-1584679D01*
X-11233621Y-1584679D02*
X-11328859Y-1727536D01*
X-11328859Y-1727536D02*
X-11424097Y-1822774D01*
X-11424097Y-1822774D02*
X-11519335Y-1870393D01*
X-10614573Y-1584679D02*
X-9995526Y-1584679D01*
X-9995526Y-1584679D02*
X-10328859Y-1965631D01*
X-10328859Y-1965631D02*
X-10186002Y-1965631D01*
X-10186002Y-1965631D02*
X-10090764Y-2013250D01*
X-10090764Y-2013250D02*
X-10043145Y-2060869D01*
X-10043145Y-2060869D02*
X-9995526Y-2156107D01*
X-9995526Y-2156107D02*
X-9995526Y-2394202D01*
X-9995526Y-2394202D02*
X-10043145Y-2489440D01*
X-10043145Y-2489440D02*
X-10090764Y-2537060D01*
X-10090764Y-2537060D02*
X-10186002Y-2584679D01*
X-10186002Y-2584679D02*
X-10471716Y-2584679D01*
X-10471716Y-2584679D02*
X-10566954Y-2537060D01*
X-10566954Y-2537060D02*
X-10614573Y-2489440D01*
X-8805049Y-2584679D02*
X-8805049Y-1918012D01*
X-8805049Y-2013250D02*
X-8757430Y-1965631D01*
X-8757430Y-1965631D02*
X-8662192Y-1918012D01*
X-8662192Y-1918012D02*
X-8519335Y-1918012D01*
X-8519335Y-1918012D02*
X-8424097Y-1965631D01*
X-8424097Y-1965631D02*
X-8376478Y-2060869D01*
X-8376478Y-2060869D02*
X-8376478Y-2584679D01*
X-8376478Y-2060869D02*
X-8328859Y-1965631D01*
X-8328859Y-1965631D02*
X-8233621Y-1918012D01*
X-8233621Y-1918012D02*
X-8090764Y-1918012D01*
X-8090764Y-1918012D02*
X-7995525Y-1965631D01*
X-7995525Y-1965631D02*
X-7947906Y-2060869D01*
X-7947906Y-2060869D02*
X-7947906Y-2584679D01*
X-7471716Y-2584679D02*
X-7471716Y-1918012D01*
X-7471716Y-2013250D02*
X-7424097Y-1965631D01*
X-7424097Y-1965631D02*
X-7328859Y-1918012D01*
X-7328859Y-1918012D02*
X-7186002Y-1918012D01*
X-7186002Y-1918012D02*
X-7090764Y-1965631D01*
X-7090764Y-1965631D02*
X-7043145Y-2060869D01*
X-7043145Y-2060869D02*
X-7043145Y-2584679D01*
X-7043145Y-2060869D02*
X-6995526Y-1965631D01*
X-6995526Y-1965631D02*
X-6900288Y-1918012D01*
X-6900288Y-1918012D02*
X-6757431Y-1918012D01*
X-6757431Y-1918012D02*
X-6662192Y-1965631D01*
X-6662192Y-1965631D02*
X-6614573Y-2060869D01*
X-6614573Y-2060869D02*
X-6614573Y-2584679D01*
D10*
X2000000Y3270000D02*
X2000000Y730000D01*
X3270000Y2000000D02*
X730000Y2000000D01*
X1200000Y1200000D02*
X-2132460Y-2132460D01*
X-2132460Y-2132460D02*
X-5676478Y-2132460D01*
X1200000Y1200000D02*
X818104Y-11221D01*
X1200000Y1200000D02*
X-11221Y818104D01*
D11*
X-10652543Y6333335D02*
X-10700162Y6380954D01*
X-10700162Y6380954D02*
X-10747781Y6476192D01*
X-10747781Y6476192D02*
X-10747781Y6714287D01*
X-10747781Y6714287D02*
X-10700162Y6809525D01*
X-10700162Y6809525D02*
X-10652543Y6857144D01*
X-10652543Y6857144D02*
X-10557305Y6904763D01*
X-10557305Y6904763D02*
X-10462067Y6904763D01*
X-10462067Y6904763D02*
X-10319210Y6857144D01*
X-10319210Y6857144D02*
X-9747781Y6285716D01*
X-9747781Y6285716D02*
X-9747781Y6904763D01*
X-10747781Y7523811D02*
X-10747781Y7619049D01*
X-10747781Y7619049D02*
X-10700162Y7714287D01*
X-10700162Y7714287D02*
X-10652543Y7761906D01*
X-10652543Y7761906D02*
X-10557305Y7809525D01*
X-10557305Y7809525D02*
X-10366829Y7857144D01*
X-10366829Y7857144D02*
X-10128734Y7857144D01*
X-10128734Y7857144D02*
X-9938258Y7809525D01*
X-9938258Y7809525D02*
X-9843020Y7761906D01*
X-9843020Y7761906D02*
X-9795400Y7714287D01*
X-9795400Y7714287D02*
X-9747781Y7619049D01*
X-9747781Y7619049D02*
X-9747781Y7523811D01*
X-9747781Y7523811D02*
X-9795400Y7428573D01*
X-9795400Y7428573D02*
X-9843020Y7380954D01*
X-9843020Y7380954D02*
X-9938258Y7333335D01*
X-9938258Y7333335D02*
X-10128734Y7285716D01*
X-10128734Y7285716D02*
X-10366829Y7285716D01*
X-10366829Y7285716D02*
X-10557305Y7333335D01*
X-10557305Y7333335D02*
X-10652543Y7380954D01*
X-10652543Y7380954D02*
X-10700162Y7428573D01*
X-10700162Y7428573D02*
X-10747781Y7523811D01*
X-9843020Y8285716D02*
X-9795400Y8333335D01*
X-9795400Y8333335D02*
X-9747781Y8285716D01*
X-9747781Y8285716D02*
X-9795400Y8238097D01*
X-9795400Y8238097D02*
X-9843020Y8285716D01*
X-9843020Y8285716D02*
X-9747781Y8285716D01*
X-10747781Y8952382D02*
X-10747781Y9047620D01*
X-10747781Y9047620D02*
X-10700162Y9142858D01*
X-10700162Y9142858D02*
X-10652543Y9190477D01*
X-10652543Y9190477D02*
X-10557305Y9238096D01*
X-10557305Y9238096D02*
X-10366829Y9285715D01*
X-10366829Y9285715D02*
X-10128734Y9285715D01*
X-10128734Y9285715D02*
X-9938258Y9238096D01*
X-9938258Y9238096D02*
X-9843020Y9190477D01*
X-9843020Y9190477D02*
X-9795400Y9142858D01*
X-9795400Y9142858D02*
X-9747781Y9047620D01*
X-9747781Y9047620D02*
X-9747781Y8952382D01*
X-9747781Y8952382D02*
X-9795400Y8857144D01*
X-9795400Y8857144D02*
X-9843020Y8809525D01*
X-9843020Y8809525D02*
X-9938258Y8761906D01*
X-9938258Y8761906D02*
X-10128734Y8714287D01*
X-10128734Y8714287D02*
X-10366829Y8714287D01*
X-10366829Y8714287D02*
X-10557305Y8761906D01*
X-10557305Y8761906D02*
X-10652543Y8809525D01*
X-10652543Y8809525D02*
X-10700162Y8857144D01*
X-10700162Y8857144D02*
X-10747781Y8952382D01*
X-10747781Y9904763D02*
X-10747781Y10000001D01*
X-10747781Y10000001D02*
X-10700162Y10095239D01*
X-10700162Y10095239D02*
X-10652543Y10142858D01*
X-10652543Y10142858D02*
X-10557305Y10190477D01*
X-10557305Y10190477D02*
X-10366829Y10238096D01*
X-10366829Y10238096D02*
X-10128734Y10238096D01*
X-10128734Y10238096D02*
X-9938258Y10190477D01*
X-9938258Y10190477D02*
X-9843020Y10142858D01*
X-9843020Y10142858D02*
X-9795400Y10095239D01*
X-9795400Y10095239D02*
X-9747781Y10000001D01*
X-9747781Y10000001D02*
X-9747781Y9904763D01*
X-9747781Y9904763D02*
X-9795400Y9809525D01*
X-9795400Y9809525D02*
X-9843020Y9761906D01*
X-9843020Y9761906D02*
X-9938258Y9714287D01*
X-9938258Y9714287D02*
X-10128734Y9666668D01*
X-10128734Y9666668D02*
X-10366829Y9666668D01*
X-10366829Y9666668D02*
X-10557305Y9714287D01*
X-10557305Y9714287D02*
X-10652543Y9761906D01*
X-10652543Y9761906D02*
X-10700162Y9809525D01*
X-10700162Y9809525D02*
X-10747781Y9904763D01*
X-9747781Y11428573D02*
X-10414448Y11428573D01*
X-10319210Y11428573D02*
X-10366829Y11476192D01*
X-10366829Y11476192D02*
X-10414448Y11571430D01*
X-10414448Y11571430D02*
X-10414448Y11714287D01*
X-10414448Y11714287D02*
X-10366829Y11809525D01*
X-10366829Y11809525D02*
X-10271591Y11857144D01*
X-10271591Y11857144D02*
X-9747781Y11857144D01*
X-10271591Y11857144D02*
X-10366829Y11904763D01*
X-10366829Y11904763D02*
X-10414448Y12000001D01*
X-10414448Y12000001D02*
X-10414448Y12142858D01*
X-10414448Y12142858D02*
X-10366829Y12238097D01*
X-10366829Y12238097D02*
X-10271591Y12285716D01*
X-10271591Y12285716D02*
X-9747781Y12285716D01*
X-9747781Y12761906D02*
X-10414448Y12761906D01*
X-10319210Y12761906D02*
X-10366829Y12809525D01*
X-10366829Y12809525D02*
X-10414448Y12904763D01*
X-10414448Y12904763D02*
X-10414448Y13047620D01*
X-10414448Y13047620D02*
X-10366829Y13142858D01*
X-10366829Y13142858D02*
X-10271591Y13190477D01*
X-10271591Y13190477D02*
X-9747781Y13190477D01*
X-10271591Y13190477D02*
X-10366829Y13238096D01*
X-10366829Y13238096D02*
X-10414448Y13333334D01*
X-10414448Y13333334D02*
X-10414448Y13476191D01*
X-10414448Y13476191D02*
X-10366829Y13571430D01*
X-10366829Y13571430D02*
X-10271591Y13619049D01*
X-10271591Y13619049D02*
X-9747781Y13619049D01*
D10*
X2500000Y20000000D02*
X-9586420Y20000000D01*
X-9586420Y0D02*
X2500000Y0D01*
X-9000000Y20000000D02*
X-9000000Y0D01*
X-9000000Y20000000D02*
X-8413579Y18873496D01*
X-9000000Y20000000D02*
X-9586421Y18873496D01*
X-9000000Y0D02*
X-9586421Y1126504D01*
X-9000000Y0D02*
X-8413579Y1126504D01*
D11*
X18809524Y24414448D02*
X18809524Y23747781D01*
X18571429Y24795400D02*
X18333334Y24081115D01*
X18333334Y24081115D02*
X18952381Y24081115D01*
X19761905Y24414448D02*
X19761905Y23747781D01*
X19523810Y24795400D02*
X19285715Y24081115D01*
X19285715Y24081115D02*
X19904762Y24081115D01*
X20285715Y23843020D02*
X20333334Y23795400D01*
X20333334Y23795400D02*
X20285715Y23747781D01*
X20285715Y23747781D02*
X20238096Y23795400D01*
X20238096Y23795400D02*
X20285715Y23843020D01*
X20285715Y23843020D02*
X20285715Y23747781D01*
X20952381Y24747781D02*
X21047619Y24747781D01*
X21047619Y24747781D02*
X21142857Y24700162D01*
X21142857Y24700162D02*
X21190476Y24652543D01*
X21190476Y24652543D02*
X21238095Y24557305D01*
X21238095Y24557305D02*
X21285714Y24366829D01*
X21285714Y24366829D02*
X21285714Y24128734D01*
X21285714Y24128734D02*
X21238095Y23938258D01*
X21238095Y23938258D02*
X21190476Y23843020D01*
X21190476Y23843020D02*
X21142857Y23795400D01*
X21142857Y23795400D02*
X21047619Y23747781D01*
X21047619Y23747781D02*
X20952381Y23747781D01*
X20952381Y23747781D02*
X20857143Y23795400D01*
X20857143Y23795400D02*
X20809524Y23843020D01*
X20809524Y23843020D02*
X20761905Y23938258D01*
X20761905Y23938258D02*
X20714286Y24128734D01*
X20714286Y24128734D02*
X20714286Y24366829D01*
X20714286Y24366829D02*
X20761905Y24557305D01*
X20761905Y24557305D02*
X20809524Y24652543D01*
X20809524Y24652543D02*
X20857143Y24700162D01*
X20857143Y24700162D02*
X20952381Y24747781D01*
X21904762Y24747781D02*
X22000000Y24747781D01*
X22000000Y24747781D02*
X22095238Y24700162D01*
X22095238Y24700162D02*
X22142857Y24652543D01*
X22142857Y24652543D02*
X22190476Y24557305D01*
X22190476Y24557305D02*
X22238095Y24366829D01*
X22238095Y24366829D02*
X22238095Y24128734D01*
X22238095Y24128734D02*
X22190476Y23938258D01*
X22190476Y23938258D02*
X22142857Y23843020D01*
X22142857Y23843020D02*
X22095238Y23795400D01*
X22095238Y23795400D02*
X22000000Y23747781D01*
X22000000Y23747781D02*
X21904762Y23747781D01*
X21904762Y23747781D02*
X21809524Y23795400D01*
X21809524Y23795400D02*
X21761905Y23843020D01*
X21761905Y23843020D02*
X21714286Y23938258D01*
X21714286Y23938258D02*
X21666667Y24128734D01*
X21666667Y24128734D02*
X21666667Y24366829D01*
X21666667Y24366829D02*
X21714286Y24557305D01*
X21714286Y24557305D02*
X21761905Y24652543D01*
X21761905Y24652543D02*
X21809524Y24700162D01*
X21809524Y24700162D02*
X21904762Y24747781D01*
X23428572Y23747781D02*
X23428572Y24414448D01*
X23428572Y24319210D02*
X23476191Y24366829D01*
X23476191Y24366829D02*
X23571429Y24414448D01*
X23571429Y24414448D02*
X23714286Y24414448D01*
X23714286Y24414448D02*
X23809524Y24366829D01*
X23809524Y24366829D02*
X23857143Y24271591D01*
X23857143Y24271591D02*
X23857143Y23747781D01*
X23857143Y24271591D02*
X23904762Y24366829D01*
X23904762Y24366829D02*
X24000000Y24414448D01*
X24000000Y24414448D02*
X24142857Y24414448D01*
X24142857Y24414448D02*
X24238096Y24366829D01*
X24238096Y24366829D02*
X24285715Y24271591D01*
X24285715Y24271591D02*
X24285715Y23747781D01*
X24761905Y23747781D02*
X24761905Y24414448D01*
X24761905Y24319210D02*
X24809524Y24366829D01*
X24809524Y24366829D02*
X24904762Y24414448D01*
X24904762Y24414448D02*
X25047619Y24414448D01*
X25047619Y24414448D02*
X25142857Y24366829D01*
X25142857Y24366829D02*
X25190476Y24271591D01*
X25190476Y24271591D02*
X25190476Y23747781D01*
X25190476Y24271591D02*
X25238095Y24366829D01*
X25238095Y24366829D02*
X25333333Y24414448D01*
X25333333Y24414448D02*
X25476190Y24414448D01*
X25476190Y24414448D02*
X25571429Y24366829D01*
X25571429Y24366829D02*
X25619048Y24271591D01*
X25619048Y24271591D02*
X25619048Y23747781D01*
D10*
X0Y18500000D02*
X0Y23586420D01*
X44000000Y23586420D02*
X44000000Y18500000D01*
X0Y23000000D02*
X44000000Y23000000D01*
X0Y23000000D02*
X1126504Y23586421D01*
X0Y23000000D02*
X1126504Y22413579D01*
X44000000Y23000000D02*
X42873496Y22413579D01*
X44000000Y23000000D02*
X42873496Y23586421D01*
D11*
X-4747781Y6904763D02*
X-4747781Y6333335D01*
X-4747781Y6619049D02*
X-5747781Y6619049D01*
X-5747781Y6619049D02*
X-5604924Y6523811D01*
X-5604924Y6523811D02*
X-5509686Y6428573D01*
X-5509686Y6428573D02*
X-5462067Y6333335D01*
X-5747781Y7761906D02*
X-5747781Y7571430D01*
X-5747781Y7571430D02*
X-5700162Y7476192D01*
X-5700162Y7476192D02*
X-5652543Y7428573D01*
X-5652543Y7428573D02*
X-5509686Y7333335D01*
X-5509686Y7333335D02*
X-5319210Y7285716D01*
X-5319210Y7285716D02*
X-4938258Y7285716D01*
X-4938258Y7285716D02*
X-4843020Y7333335D01*
X-4843020Y7333335D02*
X-4795400Y7380954D01*
X-4795400Y7380954D02*
X-4747781Y7476192D01*
X-4747781Y7476192D02*
X-4747781Y7666668D01*
X-4747781Y7666668D02*
X-4795400Y7761906D01*
X-4795400Y7761906D02*
X-4843020Y7809525D01*
X-4843020Y7809525D02*
X-4938258Y7857144D01*
X-4938258Y7857144D02*
X-5176353Y7857144D01*
X-5176353Y7857144D02*
X-5271591Y7809525D01*
X-5271591Y7809525D02*
X-5319210Y7761906D01*
X-5319210Y7761906D02*
X-5366829Y7666668D01*
X-5366829Y7666668D02*
X-5366829Y7476192D01*
X-5366829Y7476192D02*
X-5319210Y7380954D01*
X-5319210Y7380954D02*
X-5271591Y7333335D01*
X-5271591Y7333335D02*
X-5176353Y7285716D01*
X-4843020Y8285716D02*
X-4795400Y8333335D01*
X-4795400Y8333335D02*
X-4747781Y8285716D01*
X-4747781Y8285716D02*
X-4795400Y8238097D01*
X-4795400Y8238097D02*
X-4843020Y8285716D01*
X-4843020Y8285716D02*
X-4747781Y8285716D01*
X-5747781Y8952382D02*
X-5747781Y9047620D01*
X-5747781Y9047620D02*
X-5700162Y9142858D01*
X-5700162Y9142858D02*
X-5652543Y9190477D01*
X-5652543Y9190477D02*
X-5557305Y9238096D01*
X-5557305Y9238096D02*
X-5366829Y9285715D01*
X-5366829Y9285715D02*
X-5128734Y9285715D01*
X-5128734Y9285715D02*
X-4938258Y9238096D01*
X-4938258Y9238096D02*
X-4843020Y9190477D01*
X-4843020Y9190477D02*
X-4795400Y9142858D01*
X-4795400Y9142858D02*
X-4747781Y9047620D01*
X-4747781Y9047620D02*
X-4747781Y8952382D01*
X-4747781Y8952382D02*
X-4795400Y8857144D01*
X-4795400Y8857144D02*
X-4843020Y8809525D01*
X-4843020Y8809525D02*
X-4938258Y8761906D01*
X-4938258Y8761906D02*
X-5128734Y8714287D01*
X-5128734Y8714287D02*
X-5366829Y8714287D01*
X-5366829Y8714287D02*
X-5557305Y8761906D01*
X-5557305Y8761906D02*
X-5652543Y8809525D01*
X-5652543Y8809525D02*
X-5700162Y8857144D01*
X-5700162Y8857144D02*
X-5747781Y8952382D01*
X-5747781Y9904763D02*
X-5747781Y10000001D01*
X-5747781Y10000001D02*
X-5700162Y10095239D01*
X-5700162Y10095239D02*
X-5652543Y10142858D01*
X-5652543Y10142858D02*
X-5557305Y10190477D01*
X-5557305Y10190477D02*
X-5366829Y10238096D01*
X-5366829Y10238096D02*
X-5128734Y10238096D01*
X-5128734Y10238096D02*
X-4938258Y10190477D01*
X-4938258Y10190477D02*
X-4843020Y10142858D01*
X-4843020Y10142858D02*
X-4795400Y10095239D01*
X-4795400Y10095239D02*
X-4747781Y10000001D01*
X-4747781Y10000001D02*
X-4747781Y9904763D01*
X-4747781Y9904763D02*
X-4795400Y9809525D01*
X-4795400Y9809525D02*
X-4843020Y9761906D01*
X-4843020Y9761906D02*
X-4938258Y9714287D01*
X-4938258Y9714287D02*
X-5128734Y9666668D01*
X-5128734Y9666668D02*
X-5366829Y9666668D01*
X-5366829Y9666668D02*
X-5557305Y9714287D01*
X-5557305Y9714287D02*
X-5652543Y9761906D01*
X-5652543Y9761906D02*
X-5700162Y9809525D01*
X-5700162Y9809525D02*
X-5747781Y9904763D01*
X-4747781Y11428573D02*
X-5414448Y11428573D01*
X-5319210Y11428573D02*
X-5366829Y11476192D01*
X-5366829Y11476192D02*
X-5414448Y11571430D01*
X-5414448Y11571430D02*
X-5414448Y11714287D01*
X-5414448Y11714287D02*
X-5366829Y11809525D01*
X-5366829Y11809525D02*
X-5271591Y11857144D01*
X-5271591Y11857144D02*
X-4747781Y11857144D01*
X-5271591Y11857144D02*
X-5366829Y11904763D01*
X-5366829Y11904763D02*
X-5414448Y12000001D01*
X-5414448Y12000001D02*
X-5414448Y12142858D01*
X-5414448Y12142858D02*
X-5366829Y12238097D01*
X-5366829Y12238097D02*
X-5271591Y12285716D01*
X-5271591Y12285716D02*
X-4747781Y12285716D01*
X-4747781Y12761906D02*
X-5414448Y12761906D01*
X-5319210Y12761906D02*
X-5366829Y12809525D01*
X-5366829Y12809525D02*
X-5414448Y12904763D01*
X-5414448Y12904763D02*
X-5414448Y13047620D01*
X-5414448Y13047620D02*
X-5366829Y13142858D01*
X-5366829Y13142858D02*
X-5271591Y13190477D01*
X-5271591Y13190477D02*
X-4747781Y13190477D01*
X-5271591Y13190477D02*
X-5366829Y13238096D01*
X-5366829Y13238096D02*
X-5414448Y13333334D01*
X-5414448Y13333334D02*
X-5414448Y13476191D01*
X-5414448Y13476191D02*
X-5366829Y13571430D01*
X-5366829Y13571430D02*
X-5271591Y13619049D01*
X-5271591Y13619049D02*
X-4747781Y13619049D01*
D10*
X1500000Y18000000D02*
X-4586420Y18000000D01*
X-4586420Y2000000D02*
X1500000Y2000000D01*
X-4000000Y18000000D02*
X-4000000Y2000000D01*
X-4000000Y18000000D02*
X-3413579Y16873496D01*
X-4000000Y18000000D02*
X-4586421Y16873496D01*
X-4000000Y2000000D02*
X-4586421Y3126504D01*
X-4000000Y2000000D02*
X-3413579Y3126504D01*
X-379848Y11371429D02*
X20152Y11371429D01*
X20152Y11371429D02*
X20152Y11219048D01*
X20152Y11219048D02*
X1104Y11180953D01*
X1104Y11180953D02*
X-17943Y11161906D01*
X-17943Y11161906D02*
X-56039Y11142858D01*
X-56039Y11142858D02*
X-113181Y11142858D01*
X-113181Y11142858D02*
X-151277Y11161906D01*
X-151277Y11161906D02*
X-170324Y11180953D01*
X-170324Y11180953D02*
X-189372Y11219048D01*
X-189372Y11219048D02*
X-189372Y11371429D01*
X-341753Y10742858D02*
X-360800Y10761906D01*
X-360800Y10761906D02*
X-379848Y10819048D01*
X-379848Y10819048D02*
X-379848Y10857144D01*
X-379848Y10857144D02*
X-360800Y10914287D01*
X-360800Y10914287D02*
X-322705Y10952382D01*
X-322705Y10952382D02*
X-284610Y10971429D01*
X-284610Y10971429D02*
X-208420Y10990477D01*
X-208420Y10990477D02*
X-151277Y10990477D01*
X-151277Y10990477D02*
X-75086Y10971429D01*
X-75086Y10971429D02*
X-36991Y10952382D01*
X-36991Y10952382D02*
X1104Y10914287D01*
X1104Y10914287D02*
X20152Y10857144D01*
X20152Y10857144D02*
X20152Y10819048D01*
X20152Y10819048D02*
X1104Y10761906D01*
X1104Y10761906D02*
X-17943Y10742858D01*
X-170324Y10438096D02*
X-189372Y10380953D01*
X-189372Y10380953D02*
X-208420Y10361906D01*
X-208420Y10361906D02*
X-246515Y10342858D01*
X-246515Y10342858D02*
X-303658Y10342858D01*
X-303658Y10342858D02*
X-341753Y10361906D01*
X-341753Y10361906D02*
X-360800Y10380953D01*
X-360800Y10380953D02*
X-379848Y10419048D01*
X-379848Y10419048D02*
X-379848Y10571429D01*
X-379848Y10571429D02*
X20152Y10571429D01*
X20152Y10571429D02*
X20152Y10438096D01*
X20152Y10438096D02*
X1104Y10400001D01*
X1104Y10400001D02*
X-17943Y10380953D01*
X-17943Y10380953D02*
X-56039Y10361906D01*
X-56039Y10361906D02*
X-94134Y10361906D01*
X-94134Y10361906D02*
X-132229Y10380953D01*
X-132229Y10380953D02*
X-151277Y10400001D01*
X-151277Y10400001D02*
X-170324Y10438096D01*
X-170324Y10438096D02*
X-170324Y10571429D01*
X-170324Y9866667D02*
X-170324Y9733334D01*
X-379848Y9676191D02*
X-379848Y9866667D01*
X-379848Y9866667D02*
X20152Y9866667D01*
X20152Y9866667D02*
X20152Y9676191D01*
X-379848Y9333334D02*
X20152Y9333334D01*
X-360800Y9333334D02*
X-379848Y9371429D01*
X-379848Y9371429D02*
X-379848Y9447620D01*
X-379848Y9447620D02*
X-360800Y9485715D01*
X-360800Y9485715D02*
X-341753Y9504762D01*
X-341753Y9504762D02*
X-303658Y9523810D01*
X-303658Y9523810D02*
X-189372Y9523810D01*
X-189372Y9523810D02*
X-151277Y9504762D01*
X-151277Y9504762D02*
X-132229Y9485715D01*
X-132229Y9485715D02*
X-113181Y9447620D01*
X-113181Y9447620D02*
X-113181Y9371429D01*
X-113181Y9371429D02*
X-132229Y9333334D01*
X-113181Y8971429D02*
X-436991Y8971429D01*
X-436991Y8971429D02*
X-475086Y8990476D01*
X-475086Y8990476D02*
X-494134Y9009524D01*
X-494134Y9009524D02*
X-513181Y9047619D01*
X-513181Y9047619D02*
X-513181Y9104762D01*
X-513181Y9104762D02*
X-494134Y9142857D01*
X-360800Y8971429D02*
X-379848Y9009524D01*
X-379848Y9009524D02*
X-379848Y9085715D01*
X-379848Y9085715D02*
X-360800Y9123810D01*
X-360800Y9123810D02*
X-341753Y9142857D01*
X-341753Y9142857D02*
X-303658Y9161905D01*
X-303658Y9161905D02*
X-189372Y9161905D01*
X-189372Y9161905D02*
X-151277Y9142857D01*
X-151277Y9142857D02*
X-132229Y9123810D01*
X-132229Y9123810D02*
X-113181Y9085715D01*
X-113181Y9085715D02*
X-113181Y9009524D01*
X-113181Y9009524D02*
X-132229Y8971429D01*
X-360800Y8628571D02*
X-379848Y8666667D01*
X-379848Y8666667D02*
X-379848Y8742857D01*
X-379848Y8742857D02*
X-360800Y8780952D01*
X-360800Y8780952D02*
X-322705Y8800000D01*
X-322705Y8800000D02*
X-170324Y8800000D01*
X-170324Y8800000D02*
X-132229Y8780952D01*
X-132229Y8780952D02*
X-113181Y8742857D01*
X-113181Y8742857D02*
X-113181Y8666667D01*
X-113181Y8666667D02*
X-132229Y8628571D01*
X-132229Y8628571D02*
X-170324Y8609524D01*
X-170324Y8609524D02*
X-208420Y8609524D01*
X-208420Y8609524D02*
X-246515Y8800000D01*
X-800000Y15000000D02*
X-800000Y5000000D01*
M02*
