%TF.GenerationSoftware,KiCad,Pcbnew,9.0.1*%
%TF.CreationDate,2025-04-09T10:04:17+05:30*%
%TF.ProjectId,ESPNut-D1,4553504e-7574-42d4-9431-2e6b69636164,0.1*%
%TF.SameCoordinates,Original*%
%TF.FileFunction,Other,User*%
%FSLAX46Y46*%
G04 Gerber Fmt 4.6, Leading zero omitted, Abs format (unit mm)*
G04 Created by KiCad (PCBNEW 9.0.1) date 2025-04-09 10:04:17*
%MOMM*%
%LPD*%
G01*
G04 APERTURE LIST*
%ADD10C,0.050000*%
G04 APERTURE END LIST*
D10*
X16424264Y13174000D02*
G75*
G02*
X15575736Y13174000I-424264J0D01*
G01*
X15575736Y13174000D02*
G75*
G02*
X16424264Y13174000I424264J0D01*
G01*
X16424264Y6824000D02*
G75*
G02*
X15575736Y6824000I-424264J0D01*
G01*
X15575736Y6824000D02*
G75*
G02*
X16424264Y6824000I424264J0D01*
G01*
X9023528Y17699264D02*
G75*
G02*
X8175000Y17699264I-424264J0D01*
G01*
X8175000Y17699264D02*
G75*
G02*
X9023528Y17699264I424264J0D01*
G01*
X16424264Y8094000D02*
G75*
G02*
X15575736Y8094000I-424264J0D01*
G01*
X15575736Y8094000D02*
G75*
G02*
X16424264Y8094000I424264J0D01*
G01*
X16424264Y9364000D02*
G75*
G02*
X15575736Y9364000I-424264J0D01*
G01*
X15575736Y9364000D02*
G75*
G02*
X16424264Y9364000I424264J0D01*
G01*
X37673528Y18653680D02*
G75*
G02*
X36825000Y18653680I-424264J0D01*
G01*
X36825000Y18653680D02*
G75*
G02*
X37673528Y18653680I424264J0D01*
G01*
X16424264Y10634000D02*
G75*
G02*
X15575736Y10634000I-424264J0D01*
G01*
X15575736Y10634000D02*
G75*
G02*
X16424264Y10634000I424264J0D01*
G01*
X34525000Y1155000D02*
X34525000Y2955000D01*
X34525000Y1155000D02*
X37425000Y1155000D01*
X37425000Y2955000D02*
X34525000Y2955000D01*
X37425000Y2955000D02*
X37425000Y1155000D01*
X34525000Y13145000D02*
X34525000Y14945000D01*
X34525000Y13145000D02*
X37425000Y13145000D01*
X37425000Y14945000D02*
X34525000Y14945000D01*
X37425000Y14945000D02*
X37425000Y13145000D01*
X36073528Y18655152D02*
G75*
G02*
X35225000Y18655152I-424264J0D01*
G01*
X35225000Y18655152D02*
G75*
G02*
X36073528Y18655152I424264J0D01*
G01*
X25725000Y15575000D02*
X25725000Y17375000D01*
X25725000Y15575000D02*
X28625000Y15575000D01*
X28625000Y17375000D02*
X25725000Y17375000D01*
X28625000Y17375000D02*
X28625000Y15575000D01*
X15625000Y17295000D02*
X15625000Y19095000D01*
X15625000Y17295000D02*
X18525000Y17295000D01*
X18525000Y19095000D02*
X15625000Y19095000D01*
X18525000Y19095000D02*
X18525000Y17295000D01*
X625000Y7000000D02*
X2125000Y7000000D01*
X2125000Y13000000D01*
X625000Y13000000D01*
X625000Y7000000D01*
X7423528Y17702208D02*
G75*
G02*
X6575000Y17702208I-424264J0D01*
G01*
X6575000Y17702208D02*
G75*
G02*
X7423528Y17702208I424264J0D01*
G01*
X16424264Y5554000D02*
G75*
G02*
X15575736Y5554000I-424264J0D01*
G01*
X15575736Y5554000D02*
G75*
G02*
X16424264Y5554000I424264J0D01*
G01*
X16424264Y11904000D02*
G75*
G02*
X15575736Y11904000I-424264J0D01*
G01*
X15575736Y11904000D02*
G75*
G02*
X16424264Y11904000I424264J0D01*
G01*
M02*
