%TF.GenerationSoftware,KiCad,Pcbnew,9.0.3*%
%TF.CreationDate,2025-07-25T19:16:10+05:30*%
%TF.ProjectId,ESPNut-D1,4553504e-7574-42d4-9431-2e6b69636164,0.2*%
%TF.SameCoordinates,Original*%
%TF.FileFunction,Copper,L2,Bot*%
%TF.FilePolarity,Positive*%
%FSLAX46Y46*%
G04 Gerber Fmt 4.6, Leading zero omitted, Abs format (unit mm)*
G04 Created by KiCad (PCBNEW 9.0.3) date 2025-07-25 19:16:10*
%MOMM*%
%LPD*%
G01*
G04 APERTURE LIST*
G04 Aperture macros list*
%AMRoundRect*
0 Rectangle with rounded corners*
0 $1 Rounding radius*
0 $2 $3 $4 $5 $6 $7 $8 $9 X,Y pos of 4 corners*
0 Add a 4 corners polygon primitive as box body*
4,1,4,$2,$3,$4,$5,$6,$7,$8,$9,$2,$3,0*
0 Add four circle primitives for the rounded corners*
1,1,$1+$1,$2,$3*
1,1,$1+$1,$4,$5*
1,1,$1+$1,$6,$7*
1,1,$1+$1,$8,$9*
0 Add four rect primitives between the rounded corners*
20,1,$1+$1,$2,$3,$4,$5,0*
20,1,$1+$1,$4,$5,$6,$7,0*
20,1,$1+$1,$6,$7,$8,$9,0*
20,1,$1+$1,$8,$9,$2,$3,0*%
%AMOutline5P*
0 Free polygon, 5 corners , with rotation*
0 The origin of the aperture is its center*
0 number of corners: always 5*
0 $1 to $10 corner X, Y*
0 $11 Rotation angle, in degrees counterclockwise*
0 create outline with 5 corners*
4,1,5,$1,$2,$3,$4,$5,$6,$7,$8,$9,$10,$1,$2,$11*%
%AMOutline6P*
0 Free polygon, 6 corners , with rotation*
0 The origin of the aperture is its center*
0 number of corners: always 6*
0 $1 to $12 corner X, Y*
0 $13 Rotation angle, in degrees counterclockwise*
0 create outline with 6 corners*
4,1,6,$1,$2,$3,$4,$5,$6,$7,$8,$9,$10,$11,$12,$1,$2,$13*%
%AMOutline7P*
0 Free polygon, 7 corners , with rotation*
0 The origin of the aperture is its center*
0 number of corners: always 7*
0 $1 to $14 corner X, Y*
0 $15 Rotation angle, in degrees counterclockwise*
0 create outline with 7 corners*
4,1,7,$1,$2,$3,$4,$5,$6,$7,$8,$9,$10,$11,$12,$13,$14,$1,$2,$15*%
%AMOutline8P*
0 Free polygon, 8 corners , with rotation*
0 The origin of the aperture is its center*
0 number of corners: always 8*
0 $1 to $16 corner X, Y*
0 $17 Rotation angle, in degrees counterclockwise*
0 create outline with 8 corners*
4,1,8,$1,$2,$3,$4,$5,$6,$7,$8,$9,$10,$11,$12,$13,$14,$15,$16,$1,$2,$17*%
%AMFreePoly0*
4,1,15,-0.500000,0.200000,-0.480423,0.323607,-0.423607,0.435114,-0.335114,0.523607,-0.223607,0.580423,-0.100000,0.600000,0.500000,0.600000,0.500000,-0.600000,-0.100000,-0.600000,-0.223607,-0.580423,-0.335114,-0.523607,-0.423607,-0.435114,-0.480423,-0.323607,-0.500000,-0.200000,-0.500000,0.200000,-0.500000,0.200000,$1*%
%AMFreePoly1*
4,1,15,-0.500000,0.600000,0.100000,0.600000,0.223607,0.580423,0.335114,0.523607,0.423607,0.435114,0.480423,0.323607,0.500000,0.200000,0.500000,-0.200000,0.480423,-0.323607,0.423607,-0.435114,0.335114,-0.523607,0.223607,-0.580423,0.100000,-0.600000,-0.500000,-0.600000,-0.500000,0.600000,-0.500000,0.600000,$1*%
G04 Aperture macros list end*
%TA.AperFunction,ComponentPad*%
%ADD10R,1.000000X1.000000*%
%TD*%
%TA.AperFunction,ComponentPad*%
%ADD11O,1.000000X1.000000*%
%TD*%
%TA.AperFunction,SMDPad,CuDef*%
%ADD12RoundRect,0.375000X0.000010X0.000010X-0.000010X0.000010X-0.000010X-0.000010X0.000010X-0.000010X0*%
%TD*%
%TA.AperFunction,SMDPad,CuDef*%
%ADD13FreePoly0,180.000000*%
%TD*%
%TA.AperFunction,SMDPad,CuDef*%
%ADD14FreePoly1,180.000000*%
%TD*%
%TA.AperFunction,SMDPad,CuDef*%
%ADD15RoundRect,0.375000X-0.000010X-0.000010X0.000010X-0.000010X0.000010X0.000010X-0.000010X0.000010X0*%
%TD*%
%TA.AperFunction,SMDPad,CuDef*%
%ADD16Outline5P,-0.600000X0.500000X0.600000X0.500000X0.600000X-0.500000X-0.200000X-0.500000X-0.600000X-0.100000X0.000000*%
%TD*%
%TA.AperFunction,SMDPad,CuDef*%
%ADD17RoundRect,0.250000X-0.350000X-0.250000X0.350000X-0.250000X0.350000X0.250000X-0.350000X0.250000X0*%
%TD*%
%TA.AperFunction,SMDPad,CuDef*%
%ADD18R,2.500000X1.700000*%
%TD*%
%TA.AperFunction,SMDPad,CuDef*%
%ADD19RoundRect,0.400000X-0.850000X-0.450000X0.850000X-0.450000X0.850000X0.450000X-0.850000X0.450000X0*%
%TD*%
%TA.AperFunction,ViaPad*%
%ADD20C,0.600000*%
%TD*%
%TA.AperFunction,ViaPad*%
%ADD21C,0.450000*%
%TD*%
%TA.AperFunction,Conductor*%
%ADD22C,0.500000*%
%TD*%
%TA.AperFunction,Conductor*%
%ADD23C,0.300000*%
%TD*%
%TA.AperFunction,Conductor*%
%ADD24C,0.200000*%
%TD*%
G04 APERTURE END LIST*
D10*
X25659000Y11448000D03*
D11*
X24389000Y11448000D03*
X25659000Y12718000D03*
X24389000Y12718000D03*
X25659000Y13988000D03*
X24389000Y13988000D03*
D12*
X16000000Y13174000D03*
X16000000Y6824000D03*
D13*
X32815000Y15100000D03*
D14*
X31515002Y15100000D03*
D15*
X8599264Y17699264D03*
D12*
X16000000Y8094000D03*
X16000000Y9364000D03*
X16000000Y10634000D03*
D13*
X39374999Y1945000D03*
D14*
X38075001Y1945000D03*
D13*
X39374999Y18055000D03*
D14*
X38075001Y18055000D03*
D13*
X17425000Y18295000D03*
D14*
X16125000Y18295000D03*
D16*
X1375000Y7750000D03*
D17*
X1375000Y9250000D03*
X1375000Y10750000D03*
X1375000Y12250000D03*
D15*
X6999264Y17702208D03*
D18*
X42073000Y3716000D03*
D19*
X42073000Y6256000D03*
X42073000Y8795999D03*
X42073000Y11336001D03*
X42073000Y13876000D03*
X42073000Y16416000D03*
D15*
X32259264Y13262208D03*
D12*
X16000000Y5554000D03*
X16000000Y11904000D03*
D15*
X33859264Y13262208D03*
D20*
X35400000Y6000000D03*
X1600000Y4300000D03*
X2500000Y15700000D03*
X4200000Y13600000D03*
X13030000Y2339000D03*
X1600000Y15700000D03*
X18347500Y2894000D03*
X5500000Y15700000D03*
X5500000Y5500000D03*
X31800000Y18800000D03*
X6400000Y15700000D03*
X5500000Y14500000D03*
X10100000Y16500000D03*
X8725000Y1705000D03*
X1600000Y5500000D03*
X15500000Y2900000D03*
X18900000Y11000000D03*
X13800000Y12600000D03*
X1600000Y14500000D03*
X10800000Y19000000D03*
X5000000Y19000000D03*
X35400000Y7000000D03*
X2500000Y4300000D03*
X36400000Y7000000D03*
X2600000Y6700000D03*
X29800000Y13600000D03*
X13800000Y11400000D03*
X6400000Y5500000D03*
X42199000Y18040000D03*
X2500000Y14500000D03*
X17600000Y6900000D03*
X31800000Y17900000D03*
X3500000Y13600000D03*
X2500000Y5500000D03*
X42199000Y1960000D03*
X20000000Y11000000D03*
X18965000Y18150000D03*
X36400000Y6000000D03*
X4600000Y1400000D03*
X11600000Y19000000D03*
X4600000Y2200000D03*
X16665000Y2904000D03*
X12400000Y19000000D03*
X18335000Y5725000D03*
X29000000Y18200000D03*
X20800000Y2900000D03*
X3300000Y6700000D03*
X17600000Y7700000D03*
X6400000Y14500000D03*
X10900000Y16500000D03*
X22800000Y6700000D03*
X5800000Y19000000D03*
X22105281Y6705281D03*
X12600000Y4600000D03*
X1400000Y12200000D03*
X6500000Y12400000D03*
X6555000Y7600000D03*
D21*
X8600000Y17705000D03*
D20*
X26400000Y16900000D03*
X19800000Y6700000D03*
X20800000Y16800000D03*
D21*
X7017500Y17705000D03*
X27725000Y10461893D03*
X38075001Y18055000D03*
X37900000Y12500000D03*
X1400000Y10800000D03*
X1400000Y9200000D03*
X7320519Y10251071D03*
X5616557Y9226066D03*
X38800000Y11500000D03*
X37849000Y1960000D03*
D20*
X27100000Y14839000D03*
D21*
X22100000Y9400000D03*
X36800000Y12400000D03*
X14700000Y18300000D03*
X25700000Y3774000D03*
D20*
X33949000Y16400000D03*
X23401000Y15851000D03*
D21*
X33859264Y13262208D03*
D20*
X38900000Y8500000D03*
D21*
X7600000Y11200000D03*
X8500000Y15100000D03*
X21375000Y15100000D03*
X38900000Y10500000D03*
X19000000Y15100000D03*
X36200000Y11700000D03*
X12300000Y13100000D03*
X38900000Y9500000D03*
X16705000Y4299000D03*
X16000000Y11904000D03*
X18000000Y13100000D03*
X16000000Y10634000D03*
X17100000Y10400000D03*
X19600000Y7900000D03*
X16000000Y13174000D03*
X16000000Y5554000D03*
X16000000Y6824000D03*
X16000000Y8094000D03*
X16000000Y9364000D03*
X32259264Y13262208D03*
D20*
X28902000Y13998000D03*
D22*
X4900000Y8890274D02*
X4900000Y10800000D01*
X4900000Y10800000D02*
X6500000Y12400000D01*
X6555000Y7600000D02*
X6190274Y7600000D01*
X6190274Y7600000D02*
X4900000Y8890274D01*
D23*
X20800000Y7700000D02*
X20800000Y16800000D01*
X19800000Y6700000D02*
X20800000Y7700000D01*
X26300000Y16800000D02*
X26400000Y16900000D01*
X20800000Y16800000D02*
X26300000Y16800000D01*
X38075001Y16624999D02*
X38075001Y18055000D01*
X40050000Y14650000D02*
X38075001Y16624999D01*
X35800000Y10400000D02*
X37900000Y12500000D01*
X27725000Y10461893D02*
X27786893Y10400000D01*
X41816000Y16416000D02*
X42073000Y16416000D01*
X27786893Y10400000D02*
X35800000Y10400000D01*
X37900000Y12500000D02*
X41816000Y16416000D01*
X41816000Y16416000D02*
X40050000Y14650000D01*
D24*
X6651071Y10251071D02*
X7320519Y10251071D01*
X5626066Y9226066D02*
X6651071Y10251071D01*
X5616557Y9226066D02*
X5626066Y9226066D01*
D23*
X27100000Y14839000D02*
X27100000Y14800000D01*
X29500000Y12400000D02*
X36800000Y12400000D01*
X22100000Y12000000D02*
X24088000Y13988000D01*
X41176000Y13876000D02*
X38800000Y11500000D01*
X24088000Y13988000D02*
X24389000Y13988000D01*
X22100000Y9400000D02*
X22100000Y12000000D01*
X27100000Y14800000D02*
X29500000Y12400000D01*
X42073000Y13876000D02*
X41176000Y13876000D01*
X14705000Y18295000D02*
X14700000Y18300000D01*
X11724000Y15324000D02*
X14700000Y18300000D01*
X16125000Y18295000D02*
X14705000Y18295000D01*
X25625000Y3774000D02*
X25575000Y3724000D01*
X25575000Y3724000D02*
X15176000Y3724000D01*
X25700000Y3774000D02*
X25625000Y3774000D01*
X15176000Y3724000D02*
X11724000Y7176000D01*
X11724000Y7176000D02*
X11724000Y15324000D01*
D22*
X41144000Y6256000D02*
X38900000Y8500000D01*
X42073000Y6256000D02*
X41144000Y6256000D01*
X32800000Y16400000D02*
X32815000Y16385000D01*
X26413075Y15851000D02*
X26962075Y16400000D01*
X32815000Y16385000D02*
X32815000Y15100000D01*
X26962075Y16400000D02*
X32800000Y16400000D01*
X32800000Y16400000D02*
X33949000Y16400000D01*
X23401000Y15851000D02*
X26413075Y15851000D01*
D23*
X7600000Y11200000D02*
X7600000Y14200000D01*
X7600000Y14200000D02*
X8500000Y15100000D01*
X19000000Y15100000D02*
X14300000Y15100000D01*
X14300000Y15100000D02*
X12300000Y13100000D01*
X24700000Y15100000D02*
X25659000Y14141000D01*
X25659000Y14141000D02*
X25659000Y13988000D01*
X42073000Y11336001D02*
X41236999Y10500000D01*
X41236999Y10500000D02*
X38900000Y10500000D01*
X28200000Y11700000D02*
X25912000Y13988000D01*
X21375000Y15100000D02*
X24700000Y15100000D01*
X36200000Y11700000D02*
X28200000Y11700000D01*
X25912000Y13988000D02*
X25659000Y13988000D01*
X25982000Y12718000D02*
X25659000Y12718000D01*
X38700000Y9300000D02*
X26800000Y9300000D01*
X26800000Y11900000D02*
X25982000Y12718000D01*
X26800000Y9300000D02*
X26800000Y11900000D01*
X42073000Y8795999D02*
X41368999Y9500000D01*
X21800000Y4300000D02*
X26800000Y9300000D01*
X38900000Y9500000D02*
X38700000Y9300000D01*
X41368999Y9500000D02*
X38900000Y9500000D01*
X16706000Y4300000D02*
X21800000Y4300000D01*
X16705000Y4299000D02*
X16706000Y4300000D01*
X17100000Y10400000D02*
X17100000Y12200000D01*
X17100000Y12200000D02*
X18000000Y13100000D01*
X17100000Y10400000D02*
X19600000Y7900000D01*
D22*
X28902000Y13998000D02*
X29904000Y15000000D01*
X29904000Y15000000D02*
X31415002Y15000000D01*
X31415002Y15000000D02*
X31515002Y15100000D01*
%TA.AperFunction,Conductor*%
G36*
X42004418Y19699184D02*
G01*
X42233020Y19682835D01*
X42250529Y19680317D01*
X42470144Y19632542D01*
X42487103Y19627563D01*
X42697694Y19549017D01*
X42713777Y19541673D01*
X42911036Y19433960D01*
X42925919Y19424395D01*
X43105836Y19289711D01*
X43119207Y19278125D01*
X43278124Y19119208D01*
X43289710Y19105837D01*
X43424394Y18925920D01*
X43433959Y18911037D01*
X43541669Y18713783D01*
X43549019Y18697689D01*
X43627559Y18487113D01*
X43632543Y18470138D01*
X43680316Y18250530D01*
X43682834Y18233018D01*
X43699184Y18004419D01*
X43699500Y17995573D01*
X43699500Y17284170D01*
X43679815Y17217131D01*
X43627011Y17171376D01*
X43557853Y17161432D01*
X43494297Y17190457D01*
X43468768Y17221049D01*
X43441083Y17267862D01*
X43441076Y17267871D01*
X43324870Y17384077D01*
X43324862Y17384083D01*
X43222700Y17444501D01*
X43183398Y17467744D01*
X43183397Y17467745D01*
X43183396Y17467745D01*
X43183393Y17467746D01*
X43025573Y17513598D01*
X43025567Y17513599D01*
X42988701Y17516500D01*
X42988694Y17516500D01*
X41157306Y17516500D01*
X41157298Y17516500D01*
X41120432Y17513599D01*
X41120426Y17513598D01*
X40962606Y17467746D01*
X40962603Y17467745D01*
X40821137Y17384083D01*
X40821129Y17384077D01*
X40704923Y17267871D01*
X40704917Y17267863D01*
X40621255Y17126397D01*
X40621254Y17126394D01*
X40575402Y16968574D01*
X40575401Y16968568D01*
X40572500Y16931702D01*
X40572500Y15900299D01*
X40575401Y15863433D01*
X40575402Y15863430D01*
X40582325Y15839602D01*
X40582126Y15769732D01*
X40550930Y15717325D01*
X40137680Y15304075D01*
X40076357Y15270590D01*
X40006665Y15275574D01*
X39962318Y15304075D01*
X38511820Y16754573D01*
X38497116Y16781501D01*
X38480524Y16807319D01*
X38479632Y16813520D01*
X38478335Y16815896D01*
X38475501Y16842254D01*
X38475501Y17080500D01*
X38495186Y17147539D01*
X38547990Y17193294D01*
X38593680Y17203234D01*
X38593615Y17203903D01*
X38599355Y17204469D01*
X38599501Y17204500D01*
X38599676Y17204500D01*
X38630135Y17210559D01*
X38699727Y17204332D01*
X38704413Y17202377D01*
X38805122Y17157911D01*
X38830205Y17155001D01*
X39124998Y17155001D01*
X39124999Y17155002D01*
X39124999Y17168544D01*
X39624999Y17168544D01*
X39764394Y17211981D01*
X39909876Y17299928D01*
X40030071Y17420123D01*
X40118018Y17565605D01*
X40168589Y17727894D01*
X40174999Y17798428D01*
X40174999Y17805000D01*
X39624999Y17805000D01*
X39624999Y17168544D01*
X39124999Y17168544D01*
X39124999Y18305000D01*
X39624999Y18305000D01*
X40174998Y18305000D01*
X40174998Y18311583D01*
X40168590Y18382103D01*
X40168589Y18382108D01*
X40118017Y18544397D01*
X40030071Y18689878D01*
X39909876Y18810073D01*
X39764395Y18898019D01*
X39764394Y18898020D01*
X39624999Y18941458D01*
X39624999Y18305000D01*
X39124999Y18305000D01*
X39124999Y18955000D01*
X38830213Y18955000D01*
X38830190Y18954998D01*
X38805129Y18952092D01*
X38805126Y18952091D01*
X38704414Y18907623D01*
X38635135Y18898552D01*
X38630137Y18899441D01*
X38599677Y18905500D01*
X38599675Y18905500D01*
X37909307Y18905500D01*
X37909299Y18905500D01*
X37872433Y18902599D01*
X37872427Y18902598D01*
X37714607Y18856746D01*
X37714604Y18856745D01*
X37573138Y18773083D01*
X37573130Y18773077D01*
X37456924Y18656871D01*
X37456918Y18656863D01*
X37373256Y18515397D01*
X37373255Y18515394D01*
X37327403Y18357574D01*
X37327402Y18357568D01*
X37324501Y18320702D01*
X37324501Y17789299D01*
X37327402Y17752433D01*
X37327403Y17752427D01*
X37373255Y17594607D01*
X37373256Y17594604D01*
X37456918Y17453138D01*
X37456924Y17453130D01*
X37573130Y17336924D01*
X37573136Y17336919D01*
X37613621Y17312977D01*
X37661305Y17261908D01*
X37674501Y17206244D01*
X37674501Y16572273D01*
X37701794Y16470410D01*
X37708789Y16458295D01*
X37754521Y16379086D01*
X37754523Y16379084D01*
X39395925Y14737682D01*
X39429410Y14676359D01*
X39424426Y14606667D01*
X39395925Y14562320D01*
X37822244Y12988639D01*
X37766659Y12956546D01*
X37716468Y12943097D01*
X37716463Y12943095D01*
X37608037Y12880496D01*
X37608034Y12880494D01*
X37519506Y12791966D01*
X37519504Y12791963D01*
X37456905Y12683537D01*
X37456904Y12683533D01*
X37448308Y12651455D01*
X37411942Y12591796D01*
X37349094Y12561268D01*
X37279719Y12569565D01*
X37225842Y12614052D01*
X37221146Y12621553D01*
X37216577Y12629467D01*
X37180495Y12691964D01*
X37091964Y12780495D01*
X36983536Y12843095D01*
X36983537Y12843095D01*
X36930493Y12857308D01*
X36862601Y12875500D01*
X36737399Y12875500D01*
X36669507Y12857308D01*
X36616463Y12843095D01*
X36611981Y12840507D01*
X36571458Y12817112D01*
X36509461Y12800500D01*
X34530304Y12800500D01*
X34463265Y12820185D01*
X34417510Y12872989D01*
X34407566Y12942147D01*
X34423572Y12987620D01*
X34435524Y13007831D01*
X34437882Y13011818D01*
X34481973Y13163581D01*
X34484764Y13199045D01*
X34484763Y13325370D01*
X34481973Y13360835D01*
X34437882Y13512598D01*
X34357434Y13648628D01*
X34357432Y13648630D01*
X34357429Y13648634D01*
X34245689Y13760374D01*
X34245680Y13760381D01*
X34109654Y13840826D01*
X34109649Y13840828D01*
X33957897Y13884916D01*
X33957884Y13884918D01*
X33922427Y13887708D01*
X33796113Y13887708D01*
X33796087Y13887707D01*
X33760636Y13884917D01*
X33608878Y13840828D01*
X33608873Y13840826D01*
X33472847Y13760381D01*
X33472838Y13760374D01*
X33361098Y13648634D01*
X33361091Y13648625D01*
X33280646Y13512599D01*
X33280644Y13512594D01*
X33236556Y13360842D01*
X33236554Y13360829D01*
X33233764Y13325379D01*
X33233764Y13199058D01*
X33233765Y13199032D01*
X33236555Y13163581D01*
X33280644Y13011823D01*
X33280648Y13011814D01*
X33294956Y12987620D01*
X33312139Y12919896D01*
X33289979Y12853634D01*
X33235512Y12809871D01*
X33188224Y12800500D01*
X32930304Y12800500D01*
X32863265Y12820185D01*
X32817510Y12872989D01*
X32807566Y12942147D01*
X32823572Y12987620D01*
X32835524Y13007831D01*
X32837882Y13011818D01*
X32881973Y13163581D01*
X32884764Y13199045D01*
X32884763Y13325370D01*
X32881973Y13360835D01*
X32837882Y13512598D01*
X32757434Y13648628D01*
X32757432Y13648630D01*
X32757429Y13648634D01*
X32645689Y13760374D01*
X32645680Y13760381D01*
X32509654Y13840826D01*
X32509649Y13840828D01*
X32357897Y13884916D01*
X32357884Y13884918D01*
X32322427Y13887708D01*
X32196113Y13887708D01*
X32196087Y13887707D01*
X32160636Y13884917D01*
X32008878Y13840828D01*
X32008873Y13840826D01*
X31872847Y13760381D01*
X31872838Y13760374D01*
X31761098Y13648634D01*
X31761091Y13648625D01*
X31680646Y13512599D01*
X31680644Y13512594D01*
X31636556Y13360842D01*
X31636554Y13360829D01*
X31633764Y13325379D01*
X31633764Y13199058D01*
X31633765Y13199032D01*
X31636555Y13163581D01*
X31680644Y13011823D01*
X31680648Y13011814D01*
X31694956Y12987620D01*
X31712139Y12919896D01*
X31689979Y12853634D01*
X31635512Y12809871D01*
X31588224Y12800500D01*
X29717254Y12800500D01*
X29650215Y12820185D01*
X29629573Y12836819D01*
X29144365Y13322027D01*
X29110880Y13383350D01*
X29115864Y13453042D01*
X29157736Y13508975D01*
X29170032Y13517087D01*
X29240015Y13557491D01*
X29342509Y13659985D01*
X29414984Y13785515D01*
X29414985Y13785522D01*
X29418029Y13792867D01*
X29444907Y13833095D01*
X30074995Y14463181D01*
X30136318Y14496666D01*
X30162676Y14499500D01*
X30844193Y14499500D01*
X30911232Y14479815D01*
X30931874Y14463181D01*
X31013131Y14381924D01*
X31013135Y14381921D01*
X31013137Y14381919D01*
X31154604Y14298256D01*
X31180732Y14290665D01*
X31312428Y14252403D01*
X31312431Y14252403D01*
X31312433Y14252402D01*
X31349308Y14249500D01*
X31349316Y14249500D01*
X32039678Y14249500D01*
X32039679Y14249501D01*
X32064250Y14254389D01*
X32112739Y14264033D01*
X32112740Y14264034D01*
X32112742Y14264034D01*
X32112742Y14264035D01*
X32117544Y14266023D01*
X32187013Y14273495D01*
X32212458Y14266023D01*
X32217262Y14264033D01*
X32290321Y14249501D01*
X32290324Y14249500D01*
X32290326Y14249500D01*
X32980686Y14249500D01*
X32980694Y14249500D01*
X33017569Y14252402D01*
X33017571Y14252403D01*
X33017573Y14252403D01*
X33064452Y14266023D01*
X33175398Y14298256D01*
X33316865Y14381919D01*
X33433081Y14498135D01*
X33516744Y14639602D01*
X33562598Y14797431D01*
X33565500Y14834306D01*
X33565500Y15365694D01*
X33562598Y15402569D01*
X33557394Y15420480D01*
X33516745Y15560394D01*
X33516744Y15560397D01*
X33516744Y15560398D01*
X33433081Y15701865D01*
X33429110Y15708580D01*
X33430928Y15709656D01*
X33429609Y15713016D01*
X33420101Y15723989D01*
X33417096Y15744882D01*
X33409381Y15764532D01*
X33412223Y15778773D01*
X33410157Y15793147D01*
X33418926Y15812351D01*
X33423059Y15833050D01*
X33433148Y15843493D01*
X33439182Y15856703D01*
X33456941Y15868117D01*
X33471609Y15883296D01*
X33486819Y15887318D01*
X33497960Y15894477D01*
X33532895Y15899500D01*
X33681711Y15899500D01*
X33729162Y15890062D01*
X33736513Y15887017D01*
X33736515Y15887016D01*
X33876525Y15849500D01*
X33876528Y15849500D01*
X34021472Y15849500D01*
X34021475Y15849500D01*
X34161485Y15887016D01*
X34287015Y15959491D01*
X34389509Y16061985D01*
X34461984Y16187515D01*
X34499500Y16327525D01*
X34499500Y16472475D01*
X34461984Y16612485D01*
X34440613Y16649500D01*
X34389511Y16738012D01*
X34389506Y16738018D01*
X34287017Y16840507D01*
X34287011Y16840512D01*
X34161488Y16912983D01*
X34161489Y16912983D01*
X34150006Y16916060D01*
X34021475Y16950500D01*
X33876525Y16950500D01*
X33806371Y16931702D01*
X33736513Y16912984D01*
X33729162Y16909938D01*
X33681711Y16900500D01*
X27064934Y16900500D01*
X26997895Y16920185D01*
X26952140Y16972989D01*
X26945159Y16992406D01*
X26923359Y17073764D01*
X26912984Y17112485D01*
X26908272Y17120646D01*
X26840511Y17238012D01*
X26840506Y17238018D01*
X26738017Y17340507D01*
X26738011Y17340512D01*
X26612488Y17412983D01*
X26612489Y17412983D01*
X26585842Y17420123D01*
X26472475Y17450500D01*
X26327525Y17450500D01*
X26214158Y17420123D01*
X26187511Y17412983D01*
X26061988Y17340512D01*
X26061982Y17340507D01*
X25958295Y17236819D01*
X25896972Y17203334D01*
X25870614Y17200500D01*
X21229386Y17200500D01*
X21162347Y17220185D01*
X21141705Y17236819D01*
X21138017Y17240507D01*
X21138011Y17240512D01*
X21012488Y17312983D01*
X21012489Y17312983D01*
X21001006Y17316060D01*
X20872475Y17350500D01*
X20727525Y17350500D01*
X20598993Y17316060D01*
X20587511Y17312983D01*
X20461988Y17240512D01*
X20461982Y17240507D01*
X20359493Y17138018D01*
X20359488Y17138012D01*
X20287017Y17012489D01*
X20287016Y17012485D01*
X20249500Y16872475D01*
X20249500Y16727525D01*
X20287016Y16587515D01*
X20287017Y16587512D01*
X20359488Y16461989D01*
X20359493Y16461983D01*
X20363181Y16458295D01*
X20396666Y16396972D01*
X20399500Y16370614D01*
X20399500Y7917255D01*
X20390855Y7887815D01*
X20384332Y7857828D01*
X20380577Y7852813D01*
X20379815Y7850216D01*
X20363181Y7829574D01*
X20287181Y7753574D01*
X20225858Y7720089D01*
X20156166Y7725073D01*
X20100233Y7766945D01*
X20075816Y7832409D01*
X20075500Y7841255D01*
X20075500Y7962600D01*
X20068958Y7987016D01*
X20043095Y8083536D01*
X19980495Y8191964D01*
X19891964Y8280495D01*
X19783536Y8343095D01*
X19783529Y8343098D01*
X19733340Y8356546D01*
X19677754Y8388639D01*
X17588638Y10477755D01*
X17584006Y10484687D01*
X17579767Y10487630D01*
X17572557Y10501822D01*
X17561758Y10517984D01*
X17558647Y10525493D01*
X17543095Y10583536D01*
X17513051Y10635575D01*
X17509939Y10643088D01*
X17507743Y10663506D01*
X17500500Y10690540D01*
X17500500Y11982746D01*
X17520185Y12049785D01*
X17536815Y12070423D01*
X18077755Y12611364D01*
X18133338Y12643455D01*
X18183536Y12656905D01*
X18291964Y12719505D01*
X18380495Y12808036D01*
X18443095Y12916464D01*
X18475500Y13037399D01*
X18475500Y13162601D01*
X18443095Y13283536D01*
X18380495Y13391964D01*
X18291964Y13480495D01*
X18183536Y13543095D01*
X18183537Y13543095D01*
X18129810Y13557491D01*
X18062601Y13575500D01*
X17937399Y13575500D01*
X17870190Y13557491D01*
X17816463Y13543095D01*
X17708037Y13480496D01*
X17708034Y13480494D01*
X17619506Y13391966D01*
X17619504Y13391963D01*
X17556905Y13283537D01*
X17556903Y13283532D01*
X17543454Y13233341D01*
X17511361Y13177756D01*
X16779522Y12445916D01*
X16779520Y12445913D01*
X16726792Y12354588D01*
X16719966Y12329112D01*
X16683600Y12269452D01*
X16620752Y12238924D01*
X16551377Y12247221D01*
X16502209Y12285212D01*
X16498165Y12290426D01*
X16386425Y12402166D01*
X16386417Y12402172D01*
X16335527Y12432268D01*
X16287844Y12483337D01*
X16275340Y12552078D01*
X16301985Y12616668D01*
X16335527Y12645732D01*
X16350779Y12654752D01*
X16386420Y12675830D01*
X16498170Y12787580D01*
X16578618Y12923610D01*
X16622709Y13075373D01*
X16625500Y13110837D01*
X16625499Y13237162D01*
X16625472Y13237500D01*
X16622709Y13272621D01*
X16622709Y13272627D01*
X16578618Y13424390D01*
X16499902Y13557492D01*
X16498172Y13560417D01*
X16498165Y13560426D01*
X16386425Y13672166D01*
X16386416Y13672173D01*
X16250390Y13752618D01*
X16250385Y13752620D01*
X16098633Y13796708D01*
X16098620Y13796710D01*
X16063163Y13799500D01*
X15936849Y13799500D01*
X15936823Y13799499D01*
X15901372Y13796709D01*
X15749614Y13752620D01*
X15749609Y13752618D01*
X15613583Y13672173D01*
X15613574Y13672166D01*
X15501834Y13560426D01*
X15501827Y13560417D01*
X15421382Y13424391D01*
X15421380Y13424386D01*
X15377292Y13272634D01*
X15377290Y13272621D01*
X15374500Y13237171D01*
X15374500Y13110850D01*
X15374501Y13110824D01*
X15377291Y13075373D01*
X15421380Y12923615D01*
X15421382Y12923610D01*
X15501827Y12787584D01*
X15501834Y12787575D01*
X15613574Y12675835D01*
X15613577Y12675833D01*
X15613580Y12675830D01*
X15654796Y12651455D01*
X15664473Y12645732D01*
X15712156Y12594662D01*
X15724659Y12525921D01*
X15698013Y12461331D01*
X15664473Y12432268D01*
X15613580Y12402170D01*
X15613574Y12402166D01*
X15501834Y12290426D01*
X15501827Y12290417D01*
X15421382Y12154391D01*
X15421380Y12154386D01*
X15377292Y12002634D01*
X15377290Y12002621D01*
X15374500Y11967171D01*
X15374500Y11840850D01*
X15374501Y11840824D01*
X15377291Y11805373D01*
X15421380Y11653615D01*
X15421382Y11653610D01*
X15501827Y11517584D01*
X15501834Y11517575D01*
X15613574Y11405835D01*
X15613577Y11405833D01*
X15613580Y11405830D01*
X15658068Y11379520D01*
X15664473Y11375732D01*
X15712156Y11324662D01*
X15724659Y11255921D01*
X15698013Y11191331D01*
X15664473Y11162268D01*
X15613580Y11132170D01*
X15613574Y11132166D01*
X15501834Y11020426D01*
X15501827Y11020417D01*
X15421382Y10884391D01*
X15421380Y10884386D01*
X15377292Y10732634D01*
X15377290Y10732621D01*
X15374500Y10697171D01*
X15374500Y10570850D01*
X15374501Y10570824D01*
X15377291Y10535373D01*
X15421380Y10383615D01*
X15421382Y10383610D01*
X15501827Y10247584D01*
X15501834Y10247575D01*
X15613574Y10135835D01*
X15613577Y10135833D01*
X15613580Y10135830D01*
X15664473Y10105732D01*
X15712156Y10054662D01*
X15724659Y9985921D01*
X15698013Y9921331D01*
X15664473Y9892268D01*
X15613580Y9862170D01*
X15613574Y9862166D01*
X15501834Y9750426D01*
X15501827Y9750417D01*
X15421382Y9614391D01*
X15421380Y9614386D01*
X15377292Y9462634D01*
X15377290Y9462621D01*
X15374500Y9427171D01*
X15374500Y9300850D01*
X15374501Y9300824D01*
X15377291Y9265373D01*
X15421380Y9113615D01*
X15421382Y9113610D01*
X15501827Y8977584D01*
X15501834Y8977575D01*
X15613574Y8865835D01*
X15613577Y8865833D01*
X15613580Y8865830D01*
X15660613Y8838015D01*
X15664473Y8835732D01*
X15712156Y8784662D01*
X15724659Y8715921D01*
X15698013Y8651331D01*
X15664473Y8622268D01*
X15613580Y8592170D01*
X15613574Y8592166D01*
X15501834Y8480426D01*
X15501827Y8480417D01*
X15421382Y8344391D01*
X15421380Y8344386D01*
X15377292Y8192634D01*
X15377290Y8192621D01*
X15374500Y8157171D01*
X15374500Y8030850D01*
X15374501Y8030824D01*
X15377291Y7995373D01*
X15421380Y7843615D01*
X15421382Y7843610D01*
X15501827Y7707584D01*
X15501834Y7707575D01*
X15613574Y7595835D01*
X15613577Y7595833D01*
X15613580Y7595830D01*
X15656389Y7570513D01*
X15664473Y7565732D01*
X15712156Y7514662D01*
X15724659Y7445921D01*
X15698013Y7381331D01*
X15664473Y7352268D01*
X15613580Y7322170D01*
X15613574Y7322166D01*
X15501834Y7210426D01*
X15501827Y7210417D01*
X15421382Y7074391D01*
X15421380Y7074386D01*
X15377292Y6922634D01*
X15377290Y6922621D01*
X15374500Y6887171D01*
X15374500Y6760850D01*
X15374501Y6760824D01*
X15377291Y6725373D01*
X15421380Y6573615D01*
X15421382Y6573610D01*
X15501827Y6437584D01*
X15501834Y6437575D01*
X15613574Y6325835D01*
X15613577Y6325833D01*
X15613580Y6325830D01*
X15664473Y6295732D01*
X15712156Y6244662D01*
X15724659Y6175921D01*
X15698013Y6111331D01*
X15664473Y6082268D01*
X15613580Y6052170D01*
X15613574Y6052166D01*
X15501834Y5940426D01*
X15501827Y5940417D01*
X15421382Y5804391D01*
X15421380Y5804386D01*
X15377292Y5652634D01*
X15377290Y5652621D01*
X15374500Y5617171D01*
X15374500Y5490850D01*
X15374501Y5490824D01*
X15377291Y5455373D01*
X15421380Y5303615D01*
X15421382Y5303610D01*
X15501827Y5167584D01*
X15501834Y5167575D01*
X15613574Y5055835D01*
X15613578Y5055832D01*
X15613580Y5055830D01*
X15749610Y4975382D01*
X15901373Y4931291D01*
X15936837Y4928500D01*
X16063162Y4928501D01*
X16063173Y4928502D01*
X16063176Y4928502D01*
X16066438Y4928759D01*
X16098627Y4931291D01*
X16250390Y4975382D01*
X16386420Y5055830D01*
X16498170Y5167580D01*
X16578618Y5303610D01*
X16622709Y5455373D01*
X16625500Y5490837D01*
X16625499Y5617162D01*
X16622709Y5652627D01*
X16578618Y5804390D01*
X16498170Y5940420D01*
X16498168Y5940422D01*
X16498165Y5940426D01*
X16386425Y6052166D01*
X16386417Y6052172D01*
X16335527Y6082268D01*
X16287844Y6133337D01*
X16275340Y6202078D01*
X16301985Y6266668D01*
X16335527Y6295732D01*
X16386420Y6325830D01*
X16498170Y6437580D01*
X16578618Y6573610D01*
X16622709Y6725373D01*
X16625500Y6760837D01*
X16625499Y6887162D01*
X16622709Y6922627D01*
X16578618Y7074390D01*
X16516088Y7180123D01*
X16498172Y7210417D01*
X16498165Y7210426D01*
X16386425Y7322166D01*
X16386417Y7322172D01*
X16335527Y7352268D01*
X16287844Y7403337D01*
X16275340Y7472078D01*
X16301985Y7536668D01*
X16335527Y7565732D01*
X16343611Y7570513D01*
X16386420Y7595830D01*
X16498170Y7707580D01*
X16578618Y7843610D01*
X16622709Y7995373D01*
X16625500Y8030837D01*
X16625499Y8157162D01*
X16622709Y8192627D01*
X16578618Y8344390D01*
X16518118Y8446690D01*
X16498172Y8480417D01*
X16498165Y8480426D01*
X16386425Y8592166D01*
X16386417Y8592172D01*
X16335527Y8622268D01*
X16287844Y8673337D01*
X16275340Y8742078D01*
X16301985Y8806668D01*
X16335527Y8835732D01*
X16339387Y8838015D01*
X16386420Y8865830D01*
X16498170Y8977580D01*
X16578618Y9113610D01*
X16622709Y9265373D01*
X16625500Y9300837D01*
X16625499Y9427162D01*
X16622709Y9462627D01*
X16578618Y9614390D01*
X16502951Y9742336D01*
X16498172Y9750417D01*
X16498165Y9750426D01*
X16386425Y9862166D01*
X16386417Y9862172D01*
X16335527Y9892268D01*
X16287844Y9943337D01*
X16275340Y10012078D01*
X16301985Y10076668D01*
X16319014Y10094050D01*
X16326790Y10100566D01*
X16386420Y10135830D01*
X16477012Y10226423D01*
X16481193Y10229925D01*
X16508404Y10241809D01*
X16534468Y10256041D01*
X16540073Y10255641D01*
X16545223Y10257889D01*
X16574537Y10253176D01*
X16604160Y10251057D01*
X16608659Y10247689D01*
X16614206Y10246797D01*
X16636315Y10226986D01*
X16660094Y10209186D01*
X16665747Y10200615D01*
X16666242Y10200171D01*
X16666387Y10199644D01*
X16668214Y10196874D01*
X16719500Y10108043D01*
X16719504Y10108038D01*
X16719505Y10108036D01*
X16808036Y10019505D01*
X16916464Y9956905D01*
X16966659Y9943455D01*
X17022245Y9911362D01*
X19111361Y7822246D01*
X19143454Y7766660D01*
X19156902Y7716471D01*
X19156905Y7716464D01*
X19219505Y7608036D01*
X19308036Y7519505D01*
X19416464Y7456905D01*
X19532695Y7425761D01*
X19592353Y7389397D01*
X19622882Y7326550D01*
X19614587Y7257174D01*
X19570102Y7203296D01*
X19562600Y7198601D01*
X19461991Y7140513D01*
X19461982Y7140507D01*
X19359493Y7038018D01*
X19359488Y7038012D01*
X19287017Y6912489D01*
X19287016Y6912485D01*
X19249500Y6772475D01*
X19249500Y6627525D01*
X19287016Y6487515D01*
X19287017Y6487512D01*
X19359488Y6361989D01*
X19359490Y6361987D01*
X19359491Y6361985D01*
X19461985Y6259491D01*
X19461986Y6259490D01*
X19461988Y6259489D01*
X19587511Y6187018D01*
X19587512Y6187018D01*
X19587515Y6187016D01*
X19727525Y6149500D01*
X19727528Y6149500D01*
X19872472Y6149500D01*
X19872475Y6149500D01*
X20012485Y6187016D01*
X20138015Y6259491D01*
X20240509Y6361985D01*
X20312984Y6487515D01*
X20350500Y6627525D01*
X20350500Y6632747D01*
X20370185Y6699786D01*
X20386815Y6720424D01*
X21035703Y7369313D01*
X21035708Y7369316D01*
X21045911Y7379520D01*
X21045913Y7379520D01*
X21120480Y7454087D01*
X21173207Y7545413D01*
X21179933Y7570515D01*
X21200501Y7647273D01*
X21200501Y7752727D01*
X21200500Y7752731D01*
X21200500Y14500500D01*
X21220185Y14567539D01*
X21272989Y14613294D01*
X21324500Y14624500D01*
X21437599Y14624500D01*
X21437601Y14624500D01*
X21558536Y14656905D01*
X21603541Y14682889D01*
X21665539Y14699500D01*
X23739770Y14699500D01*
X23806809Y14679815D01*
X23852564Y14627011D01*
X23862508Y14557853D01*
X23833483Y14494297D01*
X23827451Y14487819D01*
X23806051Y14466420D01*
X23806048Y14466416D01*
X23723919Y14343502D01*
X23723912Y14343489D01*
X23667342Y14206916D01*
X23667341Y14206911D01*
X23656508Y14152454D01*
X23624121Y14090544D01*
X23622572Y14088967D01*
X21779522Y12245916D01*
X21779520Y12245913D01*
X21726791Y12154586D01*
X21701982Y12061991D01*
X21701981Y12061987D01*
X21699500Y12052729D01*
X21699500Y9690540D01*
X21682888Y9628542D01*
X21656907Y9583541D01*
X21656905Y9583538D01*
X21647348Y9547871D01*
X21624500Y9462601D01*
X21624500Y9337399D01*
X21656905Y9216464D01*
X21719505Y9108036D01*
X21808036Y9019505D01*
X21916464Y8956905D01*
X22037399Y8924500D01*
X22037401Y8924500D01*
X22162599Y8924500D01*
X22162601Y8924500D01*
X22283536Y8956905D01*
X22391964Y9019505D01*
X22480495Y9108036D01*
X22543095Y9216464D01*
X22575500Y9337399D01*
X22575500Y9462601D01*
X22543095Y9583536D01*
X22532985Y9601048D01*
X22517112Y9628542D01*
X22500500Y9690540D01*
X22500500Y11782747D01*
X22520185Y11849786D01*
X22536814Y11870423D01*
X23598072Y12931682D01*
X23659395Y12965166D01*
X23685753Y12968000D01*
X24179382Y12968000D01*
X24128936Y12917554D01*
X24086149Y12843445D01*
X24064000Y12760787D01*
X24064000Y12675213D01*
X24086149Y12592555D01*
X24128936Y12518446D01*
X24179382Y12468000D01*
X23626639Y12468000D01*
X23680047Y12339062D01*
X23680052Y12339052D01*
X23767598Y12208031D01*
X23767601Y12208027D01*
X23839949Y12135679D01*
X23873434Y12074356D01*
X23868450Y12004664D01*
X23839949Y11960317D01*
X23806051Y11926420D01*
X23806048Y11926416D01*
X23723919Y11803502D01*
X23723912Y11803489D01*
X23667343Y11666918D01*
X23667340Y11666908D01*
X23638500Y11521921D01*
X23638500Y11521918D01*
X23638500Y11374082D01*
X23638500Y11374080D01*
X23638499Y11374080D01*
X23667340Y11229093D01*
X23667343Y11229083D01*
X23723912Y11092512D01*
X23723919Y11092499D01*
X23806048Y10969585D01*
X23806051Y10969581D01*
X23910580Y10865052D01*
X23910584Y10865049D01*
X24033498Y10782920D01*
X24033511Y10782913D01*
X24154928Y10732621D01*
X24170087Y10726342D01*
X24170091Y10726342D01*
X24170092Y10726341D01*
X24315079Y10697500D01*
X24315082Y10697500D01*
X24462920Y10697500D01*
X24584687Y10721722D01*
X24607913Y10726342D01*
X24744495Y10782916D01*
X24795932Y10817285D01*
X24862609Y10838163D01*
X24929989Y10819679D01*
X24967924Y10783075D01*
X24978397Y10767401D01*
X24978398Y10767401D01*
X24978399Y10767399D01*
X25039843Y10726344D01*
X25061260Y10712034D01*
X25061264Y10712033D01*
X25134321Y10697501D01*
X25134324Y10697500D01*
X25134326Y10697500D01*
X26183676Y10697500D01*
X26251308Y10710953D01*
X26320900Y10704726D01*
X26376077Y10661863D01*
X26399322Y10595973D01*
X26399500Y10589336D01*
X26399500Y9517255D01*
X26379815Y9450216D01*
X26363181Y9429574D01*
X21670426Y4736819D01*
X21609103Y4703334D01*
X21582745Y4700500D01*
X16993807Y4700500D01*
X16931809Y4717112D01*
X16888536Y4742095D01*
X16888537Y4742095D01*
X16848224Y4752897D01*
X16767601Y4774500D01*
X16642399Y4774500D01*
X16561775Y4752897D01*
X16521463Y4742095D01*
X16413037Y4679496D01*
X16413034Y4679494D01*
X16324506Y4590966D01*
X16324504Y4590963D01*
X16261905Y4482537D01*
X16229500Y4361600D01*
X16229500Y4248500D01*
X16209815Y4181461D01*
X16157011Y4135706D01*
X16105500Y4124500D01*
X15393255Y4124500D01*
X15326216Y4144185D01*
X15305574Y4160819D01*
X12160819Y7305574D01*
X12127334Y7366897D01*
X12124500Y7393255D01*
X12124500Y12500500D01*
X12144185Y12567539D01*
X12196989Y12613294D01*
X12248500Y12624500D01*
X12362599Y12624500D01*
X12362601Y12624500D01*
X12483536Y12656905D01*
X12591964Y12719505D01*
X12680495Y12808036D01*
X12743095Y12916464D01*
X12756545Y12966662D01*
X12788636Y13022245D01*
X14429574Y14663181D01*
X14490897Y14696666D01*
X14517255Y14699500D01*
X18709461Y14699500D01*
X18771458Y14682889D01*
X18816464Y14656905D01*
X18937399Y14624500D01*
X18937401Y14624500D01*
X19062599Y14624500D01*
X19062601Y14624500D01*
X19183536Y14656905D01*
X19291964Y14719505D01*
X19380495Y14808036D01*
X19443095Y14916464D01*
X19475500Y15037399D01*
X19475500Y15162601D01*
X19443095Y15283536D01*
X19380495Y15391964D01*
X19291964Y15480495D01*
X19183536Y15543095D01*
X19183537Y15543095D01*
X19115300Y15561379D01*
X19062601Y15575500D01*
X18937399Y15575500D01*
X18884700Y15561379D01*
X18816463Y15543095D01*
X18791844Y15528881D01*
X18771458Y15517112D01*
X18709461Y15500500D01*
X14247273Y15500500D01*
X14145410Y15473207D01*
X14054087Y15420480D01*
X14054084Y15420478D01*
X12336181Y13702575D01*
X12274858Y13669090D01*
X12205166Y13674074D01*
X12149233Y13715946D01*
X12124816Y13781410D01*
X12124500Y13790256D01*
X12124500Y15106747D01*
X12144185Y15173786D01*
X12160814Y15194423D01*
X14777754Y17811364D01*
X14785315Y17816360D01*
X14788636Y17821037D01*
X14804238Y17828862D01*
X14819175Y17838730D01*
X14826106Y17841518D01*
X14883536Y17856905D01*
X14927481Y17882277D01*
X14935620Y17885549D01*
X14955764Y17887503D01*
X14981878Y17894500D01*
X15317104Y17894500D01*
X15384143Y17874815D01*
X15423836Y17833621D01*
X15506916Y17693139D01*
X15506923Y17693130D01*
X15623129Y17576924D01*
X15623133Y17576921D01*
X15623135Y17576919D01*
X15764602Y17493256D01*
X15804763Y17481588D01*
X15922426Y17447403D01*
X15922429Y17447403D01*
X15922431Y17447402D01*
X15959306Y17444500D01*
X15959314Y17444500D01*
X16649673Y17444500D01*
X16649674Y17444500D01*
X16680137Y17450560D01*
X16749726Y17444334D01*
X16754415Y17442377D01*
X16855119Y17397912D01*
X16855124Y17397911D01*
X16880206Y17395001D01*
X17174999Y17395001D01*
X17175000Y17395002D01*
X17175000Y17408544D01*
X17675000Y17408544D01*
X17814395Y17451981D01*
X17959877Y17539928D01*
X18080072Y17660123D01*
X18168019Y17805605D01*
X18218590Y17967894D01*
X18225000Y18038428D01*
X18225000Y18045000D01*
X17675000Y18045000D01*
X17675000Y17408544D01*
X17175000Y17408544D01*
X17175000Y18136005D01*
X29498499Y18136005D01*
X29525418Y18000678D01*
X29525421Y18000668D01*
X29578221Y17873196D01*
X29578228Y17873183D01*
X29654885Y17758459D01*
X29654888Y17758455D01*
X29752454Y17660889D01*
X29752458Y17660886D01*
X29867182Y17584229D01*
X29867195Y17584222D01*
X29994667Y17531422D01*
X29994672Y17531420D01*
X29994676Y17531420D01*
X29994677Y17531419D01*
X30130004Y17504500D01*
X30130007Y17504500D01*
X30267995Y17504500D01*
X30359041Y17522611D01*
X30403328Y17531420D01*
X30530811Y17584225D01*
X30645542Y17660886D01*
X30743114Y17758458D01*
X30819775Y17873189D01*
X30872580Y18000672D01*
X30881397Y18045000D01*
X30899500Y18136005D01*
X32498499Y18136005D01*
X32525418Y18000678D01*
X32525421Y18000668D01*
X32578221Y17873196D01*
X32578228Y17873183D01*
X32654885Y17758459D01*
X32654888Y17758455D01*
X32752454Y17660889D01*
X32752458Y17660886D01*
X32867182Y17584229D01*
X32867195Y17584222D01*
X32994667Y17531422D01*
X32994672Y17531420D01*
X32994676Y17531420D01*
X32994677Y17531419D01*
X33130004Y17504500D01*
X33130007Y17504500D01*
X33267995Y17504500D01*
X33359041Y17522611D01*
X33403328Y17531420D01*
X33530811Y17584225D01*
X33645542Y17660886D01*
X33743114Y17758458D01*
X33819775Y17873189D01*
X33872580Y18000672D01*
X33881397Y18045000D01*
X33899500Y18136005D01*
X33899500Y18273996D01*
X33872581Y18409323D01*
X33872580Y18409324D01*
X33872580Y18409328D01*
X33847392Y18470138D01*
X33819778Y18536805D01*
X33819771Y18536818D01*
X33743114Y18651542D01*
X33743111Y18651546D01*
X33645545Y18749112D01*
X33645541Y18749115D01*
X33530817Y18825772D01*
X33530804Y18825779D01*
X33403332Y18878579D01*
X33403322Y18878582D01*
X33267995Y18905500D01*
X33267993Y18905500D01*
X33130007Y18905500D01*
X33130005Y18905500D01*
X32994677Y18878582D01*
X32994667Y18878579D01*
X32867195Y18825779D01*
X32867182Y18825772D01*
X32752458Y18749115D01*
X32752454Y18749112D01*
X32654888Y18651546D01*
X32654885Y18651542D01*
X32578228Y18536818D01*
X32578221Y18536805D01*
X32525421Y18409333D01*
X32525418Y18409323D01*
X32498500Y18273996D01*
X32498500Y18273993D01*
X32498500Y18136007D01*
X32498500Y18136005D01*
X32498499Y18136005D01*
X30899500Y18136005D01*
X30899500Y18273996D01*
X30872581Y18409323D01*
X30872580Y18409324D01*
X30872580Y18409328D01*
X30847392Y18470138D01*
X30819778Y18536805D01*
X30819771Y18536818D01*
X30743114Y18651542D01*
X30743111Y18651546D01*
X30645545Y18749112D01*
X30645541Y18749115D01*
X30530817Y18825772D01*
X30530804Y18825779D01*
X30403332Y18878579D01*
X30403322Y18878582D01*
X30267995Y18905500D01*
X30267993Y18905500D01*
X30130007Y18905500D01*
X30130005Y18905500D01*
X29994677Y18878582D01*
X29994667Y18878579D01*
X29867195Y18825779D01*
X29867182Y18825772D01*
X29752458Y18749115D01*
X29752454Y18749112D01*
X29654888Y18651546D01*
X29654885Y18651542D01*
X29578228Y18536818D01*
X29578221Y18536805D01*
X29525421Y18409333D01*
X29525418Y18409323D01*
X29498500Y18273996D01*
X29498500Y18273993D01*
X29498500Y18136007D01*
X29498500Y18136005D01*
X29498499Y18136005D01*
X17175000Y18136005D01*
X17175000Y18545000D01*
X17675000Y18545000D01*
X18224999Y18545000D01*
X18224999Y18551583D01*
X18218591Y18622103D01*
X18218590Y18622108D01*
X18168018Y18784397D01*
X18080072Y18929878D01*
X17959877Y19050073D01*
X17814396Y19138019D01*
X17814395Y19138020D01*
X17675000Y19181458D01*
X17675000Y18545000D01*
X17175000Y18545000D01*
X17175000Y19195000D01*
X16880214Y19195000D01*
X16880191Y19194998D01*
X16855130Y19192092D01*
X16855126Y19192091D01*
X16754414Y19147623D01*
X16685135Y19138553D01*
X16680138Y19139441D01*
X16649677Y19145500D01*
X16649674Y19145500D01*
X15959306Y19145500D01*
X15959298Y19145500D01*
X15922432Y19142599D01*
X15922426Y19142598D01*
X15764606Y19096746D01*
X15764603Y19096745D01*
X15623137Y19013083D01*
X15623129Y19013077D01*
X15506923Y18896871D01*
X15506916Y18896862D01*
X15423836Y18756379D01*
X15372767Y18708696D01*
X15317104Y18695500D01*
X14999198Y18695500D01*
X14937200Y18712113D01*
X14883538Y18743094D01*
X14883537Y18743095D01*
X14833960Y18756379D01*
X14762601Y18775500D01*
X14637399Y18775500D01*
X14566040Y18756379D01*
X14516463Y18743095D01*
X14408037Y18680496D01*
X14408034Y18680494D01*
X14319506Y18591966D01*
X14319504Y18591963D01*
X14256905Y18483537D01*
X14256902Y18483530D01*
X14243454Y18433341D01*
X14211361Y18377755D01*
X11403522Y15569916D01*
X11403520Y15569913D01*
X11350793Y15478589D01*
X11336867Y15426614D01*
X11323500Y15376729D01*
X11323500Y15376727D01*
X11323500Y7228727D01*
X11323500Y7123273D01*
X11331216Y7094477D01*
X11350793Y7021411D01*
X11377156Y6975750D01*
X11403520Y6930087D01*
X14930087Y3403520D01*
X15021412Y3350793D01*
X15123273Y3323500D01*
X25522273Y3323500D01*
X25527773Y3323500D01*
X25559866Y3319275D01*
X25567435Y3317247D01*
X25637399Y3298500D01*
X25637401Y3298500D01*
X25762599Y3298500D01*
X25762601Y3298500D01*
X25883536Y3330905D01*
X25991964Y3393505D01*
X26080495Y3482036D01*
X26143095Y3590464D01*
X26175500Y3711399D01*
X26175500Y3836601D01*
X26143095Y3957536D01*
X26080495Y4065964D01*
X25991964Y4154495D01*
X25883536Y4217095D01*
X25883537Y4217095D01*
X25843224Y4227897D01*
X25762601Y4249500D01*
X25637399Y4249500D01*
X25556775Y4227897D01*
X25516463Y4217095D01*
X25408037Y4154496D01*
X25402343Y4150126D01*
X25337175Y4124930D01*
X25326854Y4124500D01*
X22490255Y4124500D01*
X22423216Y4144185D01*
X22377461Y4196989D01*
X22367517Y4266147D01*
X22396542Y4329703D01*
X22402574Y4336181D01*
X22677188Y4610795D01*
X40523000Y4610795D01*
X40523000Y3966000D01*
X41823000Y3966000D01*
X41823000Y4866000D01*
X40778214Y4866000D01*
X40778191Y4865998D01*
X40753130Y4863092D01*
X40753126Y4863091D01*
X40650525Y4817789D01*
X40650520Y4817786D01*
X40571214Y4738480D01*
X40571211Y4738475D01*
X40525910Y4635878D01*
X40525910Y4635876D01*
X40523000Y4610795D01*
X22677188Y4610795D01*
X26929574Y8863181D01*
X26990897Y8896666D01*
X27017255Y8899500D01*
X38280214Y8899500D01*
X38347253Y8879815D01*
X38393008Y8827011D01*
X38402952Y8757853D01*
X38389885Y8720100D01*
X38390128Y8719999D01*
X38388442Y8715929D01*
X38387603Y8713504D01*
X38387018Y8712493D01*
X38387017Y8712490D01*
X38374267Y8664906D01*
X38349500Y8572475D01*
X38349500Y8427525D01*
X38385062Y8294809D01*
X38387017Y8287512D01*
X38459488Y8161989D01*
X38459490Y8161987D01*
X38459491Y8161985D01*
X38561985Y8059491D01*
X38687515Y7987016D01*
X38687519Y7987015D01*
X38694860Y7983974D01*
X38735094Y7957092D01*
X40536181Y6156006D01*
X40569666Y6094683D01*
X40572500Y6068325D01*
X40572500Y5740299D01*
X40575401Y5703433D01*
X40575402Y5703427D01*
X40621254Y5545607D01*
X40621255Y5545604D01*
X40621256Y5545602D01*
X40704918Y5404136D01*
X40704923Y5404130D01*
X40821129Y5287924D01*
X40821133Y5287921D01*
X40821135Y5287919D01*
X40962602Y5204256D01*
X41004224Y5192164D01*
X41120426Y5158403D01*
X41120429Y5158403D01*
X41120431Y5158402D01*
X41157306Y5155500D01*
X41157314Y5155500D01*
X42988686Y5155500D01*
X42988694Y5155500D01*
X43025569Y5158402D01*
X43025571Y5158403D01*
X43025573Y5158403D01*
X43067191Y5170495D01*
X43183398Y5204256D01*
X43324865Y5287919D01*
X43441081Y5404135D01*
X43468768Y5450953D01*
X43519836Y5498635D01*
X43588578Y5511139D01*
X43653167Y5484494D01*
X43693098Y5427159D01*
X43699500Y5387831D01*
X43699500Y4913127D01*
X43679815Y4846088D01*
X43627011Y4800333D01*
X43557853Y4790389D01*
X43506650Y4813773D01*
X43504954Y4811295D01*
X43495474Y4817789D01*
X43392876Y4863090D01*
X43367794Y4866000D01*
X42323000Y4866000D01*
X42323000Y2566001D01*
X43367786Y2566001D01*
X43367808Y2566003D01*
X43392869Y2568909D01*
X43392873Y2568910D01*
X43495474Y2614212D01*
X43504954Y2620705D01*
X43507344Y2617216D01*
X43549142Y2640039D01*
X43618834Y2635055D01*
X43674767Y2593183D01*
X43699184Y2527719D01*
X43699500Y2518873D01*
X43699500Y2004428D01*
X43699184Y1995582D01*
X43682834Y1766983D01*
X43680316Y1749471D01*
X43632543Y1529863D01*
X43627559Y1512888D01*
X43549019Y1302312D01*
X43541669Y1286218D01*
X43433959Y1088964D01*
X43424394Y1074081D01*
X43289710Y894164D01*
X43278124Y880793D01*
X43119207Y721876D01*
X43105836Y710290D01*
X42925919Y575606D01*
X42911036Y566041D01*
X42713782Y458331D01*
X42697688Y450981D01*
X42487112Y372441D01*
X42470137Y367457D01*
X42250529Y319684D01*
X42233017Y317166D01*
X42004418Y300816D01*
X41995572Y300500D01*
X2004428Y300500D01*
X1995582Y300816D01*
X1766982Y317166D01*
X1749470Y319684D01*
X1529862Y367457D01*
X1512887Y372441D01*
X1302311Y450981D01*
X1286217Y458331D01*
X1088963Y566041D01*
X1074080Y575606D01*
X894163Y710290D01*
X880792Y721876D01*
X721875Y880793D01*
X710289Y894164D01*
X575605Y1074081D01*
X566040Y1088964D01*
X563017Y1094501D01*
X458327Y1286223D01*
X450983Y1302306D01*
X372437Y1512897D01*
X367458Y1529856D01*
X319683Y1749471D01*
X317165Y1766983D01*
X311171Y1850788D01*
X300816Y1995582D01*
X300500Y2004428D01*
X300500Y2106287D01*
X649500Y2106287D01*
X649500Y1893713D01*
X682754Y1683757D01*
X732757Y1529863D01*
X748444Y1481586D01*
X844951Y1292180D01*
X969890Y1120214D01*
X1120213Y969891D01*
X1292179Y844952D01*
X1292181Y844951D01*
X1292184Y844949D01*
X1481588Y748443D01*
X1683757Y682754D01*
X1893713Y649500D01*
X1893714Y649500D01*
X2106286Y649500D01*
X2106287Y649500D01*
X2316243Y682754D01*
X2518412Y748443D01*
X2707816Y844949D01*
X2729789Y860914D01*
X2879786Y969891D01*
X2879788Y969894D01*
X2879792Y969896D01*
X3030104Y1120208D01*
X3030106Y1120212D01*
X3030109Y1120214D01*
X3155048Y1292180D01*
X3155047Y1292180D01*
X3155051Y1292184D01*
X3251557Y1481588D01*
X3317246Y1683757D01*
X3321846Y1712797D01*
X29498499Y1712797D01*
X29525418Y1577470D01*
X29525421Y1577460D01*
X29578221Y1449988D01*
X29578228Y1449975D01*
X29654885Y1335251D01*
X29654888Y1335247D01*
X29752454Y1237681D01*
X29752458Y1237678D01*
X29867182Y1161021D01*
X29867195Y1161014D01*
X29994667Y1108214D01*
X29994672Y1108212D01*
X29994676Y1108212D01*
X29994677Y1108211D01*
X30130004Y1081292D01*
X30130007Y1081292D01*
X30267995Y1081292D01*
X30372003Y1101981D01*
X30403328Y1108212D01*
X30530811Y1161017D01*
X30645542Y1237678D01*
X30743114Y1335250D01*
X30819775Y1449981D01*
X30872580Y1577464D01*
X30885503Y1642433D01*
X30899500Y1712797D01*
X32498499Y1712797D01*
X32525418Y1577470D01*
X32525421Y1577460D01*
X32578221Y1449988D01*
X32578228Y1449975D01*
X32654885Y1335251D01*
X32654888Y1335247D01*
X32752454Y1237681D01*
X32752458Y1237678D01*
X32867182Y1161021D01*
X32867195Y1161014D01*
X32994667Y1108214D01*
X32994672Y1108212D01*
X32994676Y1108212D01*
X32994677Y1108211D01*
X33130004Y1081292D01*
X33130007Y1081292D01*
X33267995Y1081292D01*
X33372003Y1101981D01*
X33403328Y1108212D01*
X33530811Y1161017D01*
X33645542Y1237678D01*
X33743114Y1335250D01*
X33819775Y1449981D01*
X33872580Y1577464D01*
X33885503Y1642433D01*
X33899500Y1712797D01*
X33899500Y1850788D01*
X33872581Y1986115D01*
X33872580Y1986116D01*
X33872580Y1986120D01*
X33864997Y2004428D01*
X33819778Y2113597D01*
X33819771Y2113610D01*
X33799306Y2144238D01*
X33754896Y2210702D01*
X37324501Y2210702D01*
X37324501Y1679299D01*
X37327402Y1642433D01*
X37327403Y1642427D01*
X37373255Y1484607D01*
X37373256Y1484604D01*
X37373257Y1484602D01*
X37375041Y1481586D01*
X37456918Y1343138D01*
X37456924Y1343130D01*
X37573130Y1226924D01*
X37573134Y1226921D01*
X37573136Y1226919D01*
X37714603Y1143256D01*
X37756225Y1131164D01*
X37872427Y1097403D01*
X37872430Y1097403D01*
X37872432Y1097402D01*
X37909307Y1094500D01*
X37909315Y1094500D01*
X38599676Y1094500D01*
X38630135Y1100559D01*
X38699727Y1094332D01*
X38704413Y1092377D01*
X38805122Y1047911D01*
X38830205Y1045001D01*
X39124998Y1045001D01*
X39124999Y1045002D01*
X39124999Y1058544D01*
X39624999Y1058544D01*
X39764394Y1101981D01*
X39909876Y1189928D01*
X40030071Y1310123D01*
X40118018Y1455605D01*
X40168589Y1617894D01*
X40174999Y1688428D01*
X40174999Y1695000D01*
X39624999Y1695000D01*
X39624999Y1058544D01*
X39124999Y1058544D01*
X39124999Y2195000D01*
X39624999Y2195000D01*
X40174998Y2195000D01*
X40174998Y2201583D01*
X40168590Y2272103D01*
X40168589Y2272108D01*
X40118017Y2434397D01*
X40030071Y2579878D01*
X39909876Y2700073D01*
X39764395Y2788019D01*
X39764394Y2788020D01*
X39657869Y2821215D01*
X40523001Y2821215D01*
X40523002Y2821192D01*
X40525908Y2796131D01*
X40525909Y2796127D01*
X40571211Y2693526D01*
X40571214Y2693521D01*
X40650520Y2614215D01*
X40650525Y2614212D01*
X40753123Y2568911D01*
X40778206Y2566001D01*
X41822999Y2566001D01*
X41823000Y2566002D01*
X41823000Y3466000D01*
X40523001Y3466000D01*
X40523001Y2821215D01*
X39657869Y2821215D01*
X39624999Y2831458D01*
X39624999Y2195000D01*
X39124999Y2195000D01*
X39124999Y2845000D01*
X38830213Y2845000D01*
X38830190Y2844998D01*
X38805129Y2842092D01*
X38805126Y2842091D01*
X38704414Y2797623D01*
X38635135Y2788552D01*
X38630137Y2789441D01*
X38599677Y2795500D01*
X38599675Y2795500D01*
X37909307Y2795500D01*
X37909299Y2795500D01*
X37872433Y2792599D01*
X37872427Y2792598D01*
X37714607Y2746746D01*
X37714604Y2746745D01*
X37573138Y2663083D01*
X37573130Y2663077D01*
X37456924Y2546871D01*
X37456918Y2546863D01*
X37373256Y2405397D01*
X37373255Y2405394D01*
X37327403Y2247574D01*
X37327402Y2247568D01*
X37324501Y2210702D01*
X33754896Y2210702D01*
X33743114Y2228334D01*
X33743111Y2228338D01*
X33645545Y2325904D01*
X33645541Y2325907D01*
X33530817Y2402564D01*
X33530804Y2402571D01*
X33403332Y2455371D01*
X33403322Y2455374D01*
X33267995Y2482292D01*
X33267993Y2482292D01*
X33130007Y2482292D01*
X33130005Y2482292D01*
X32994677Y2455374D01*
X32994667Y2455371D01*
X32867195Y2402571D01*
X32867182Y2402564D01*
X32752458Y2325907D01*
X32752454Y2325904D01*
X32654888Y2228338D01*
X32654885Y2228334D01*
X32578228Y2113610D01*
X32578221Y2113597D01*
X32525421Y1986125D01*
X32525418Y1986115D01*
X32498500Y1850788D01*
X32498500Y1850785D01*
X32498500Y1712799D01*
X32498500Y1712797D01*
X32498499Y1712797D01*
X30899500Y1712797D01*
X30899500Y1850788D01*
X30872581Y1986115D01*
X30872580Y1986116D01*
X30872580Y1986120D01*
X30864997Y2004428D01*
X30819778Y2113597D01*
X30819771Y2113610D01*
X30743114Y2228334D01*
X30743111Y2228338D01*
X30645545Y2325904D01*
X30645541Y2325907D01*
X30530817Y2402564D01*
X30530804Y2402571D01*
X30403332Y2455371D01*
X30403322Y2455374D01*
X30267995Y2482292D01*
X30267993Y2482292D01*
X30130007Y2482292D01*
X30130005Y2482292D01*
X29994677Y2455374D01*
X29994667Y2455371D01*
X29867195Y2402571D01*
X29867182Y2402564D01*
X29752458Y2325907D01*
X29752454Y2325904D01*
X29654888Y2228338D01*
X29654885Y2228334D01*
X29578228Y2113610D01*
X29578221Y2113597D01*
X29525421Y1986125D01*
X29525418Y1986115D01*
X29498500Y1850788D01*
X29498500Y1850785D01*
X29498500Y1712799D01*
X29498500Y1712797D01*
X29498499Y1712797D01*
X3321846Y1712797D01*
X3350500Y1893713D01*
X3350500Y2106287D01*
X3317246Y2316243D01*
X3251557Y2518412D01*
X3155051Y2707816D01*
X3155049Y2707819D01*
X3155048Y2707821D01*
X3030109Y2879787D01*
X2879786Y3030110D01*
X2707820Y3155049D01*
X2518414Y3251556D01*
X2518413Y3251557D01*
X2518412Y3251557D01*
X2316243Y3317246D01*
X2316241Y3317247D01*
X2316240Y3317247D01*
X2154957Y3342792D01*
X2106287Y3350500D01*
X1893713Y3350500D01*
X1845042Y3342792D01*
X1683760Y3317247D01*
X1481585Y3251556D01*
X1292179Y3155049D01*
X1120213Y3030110D01*
X969890Y2879787D01*
X844951Y2707821D01*
X748444Y2518415D01*
X682753Y2316240D01*
X663551Y2195000D01*
X649500Y2106287D01*
X300500Y2106287D01*
X300500Y6950001D01*
X1625000Y6950001D01*
X2019786Y6950001D01*
X2019808Y6950003D01*
X2044869Y6952909D01*
X2044873Y6952910D01*
X2147474Y6998212D01*
X2147479Y6998215D01*
X2226785Y7077521D01*
X2226788Y7077526D01*
X2272089Y7180123D01*
X2272089Y7180125D01*
X2274999Y7205206D01*
X2275000Y7205209D01*
X2275000Y7500000D01*
X1625000Y7500000D01*
X1625000Y6950001D01*
X300500Y6950001D01*
X300500Y7403413D01*
X320185Y7470452D01*
X372989Y7516207D01*
X442147Y7526151D01*
X505703Y7497126D01*
X520809Y7481519D01*
X527640Y7473096D01*
X998083Y7002654D01*
X998090Y7002648D01*
X1008384Y6994296D01*
X1112004Y6951376D01*
X1112007Y6951375D01*
X1124999Y6950020D01*
X1125000Y6950020D01*
X1125000Y7626000D01*
X1144685Y7693039D01*
X1197489Y7738794D01*
X1249000Y7750000D01*
X1375000Y7750000D01*
X1375000Y7876000D01*
X1394685Y7943039D01*
X1447489Y7988794D01*
X1499000Y8000000D01*
X2274999Y8000000D01*
X2274999Y8294786D01*
X2274997Y8294809D01*
X2272091Y8319870D01*
X2272090Y8319874D01*
X2226788Y8422475D01*
X2226785Y8422480D01*
X2147477Y8501788D01*
X2141635Y8505790D01*
X2097453Y8559917D01*
X2089548Y8629338D01*
X2112445Y8682395D01*
X2168796Y8757669D01*
X2219091Y8892517D01*
X2225500Y8952127D01*
X2225499Y9547872D01*
X2219091Y9607483D01*
X2216516Y9614386D01*
X2168797Y9742329D01*
X2168793Y9742336D01*
X2107284Y9824500D01*
X2082546Y9857546D01*
X2024854Y9900735D01*
X1982984Y9956667D01*
X1978000Y10026359D01*
X2011485Y10087682D01*
X2024854Y10099266D01*
X2082546Y10142454D01*
X2168796Y10257669D01*
X2219091Y10392517D01*
X2225500Y10452127D01*
X2225499Y10865892D01*
X4399500Y10865892D01*
X4399500Y8956166D01*
X4399500Y8824382D01*
X4409950Y8785382D01*
X4433608Y8697087D01*
X4452188Y8664906D01*
X4499500Y8582960D01*
X4499502Y8582958D01*
X5256643Y7825817D01*
X5290128Y7764494D01*
X5285144Y7694802D01*
X5243272Y7638869D01*
X5230963Y7630750D01*
X5191623Y7608036D01*
X5126635Y7570515D01*
X5126632Y7570513D01*
X5019487Y7463368D01*
X5019485Y7463365D01*
X4943719Y7332137D01*
X4911106Y7210420D01*
X4904500Y7185766D01*
X4904500Y7034234D01*
X4912962Y7002654D01*
X4943719Y6887864D01*
X4944131Y6887151D01*
X5019485Y6756635D01*
X5126635Y6649485D01*
X5257865Y6573719D01*
X5404234Y6534500D01*
X5404236Y6534500D01*
X5555764Y6534500D01*
X5555766Y6534500D01*
X5702135Y6573719D01*
X5833365Y6649485D01*
X5940515Y6756635D01*
X6016281Y6887865D01*
X6048362Y7007595D01*
X6062854Y7031371D01*
X6074423Y7056703D01*
X6080788Y7060794D01*
X6084726Y7067254D01*
X6109775Y7079423D01*
X6133201Y7094477D01*
X6143947Y7096023D01*
X6147572Y7097783D01*
X6168136Y7099500D01*
X6287711Y7099500D01*
X6335162Y7090062D01*
X6342513Y7087017D01*
X6342515Y7087016D01*
X6482525Y7049500D01*
X6482528Y7049500D01*
X6627472Y7049500D01*
X6627475Y7049500D01*
X6767485Y7087016D01*
X6893015Y7159491D01*
X6995509Y7261985D01*
X7067984Y7387515D01*
X7105500Y7527525D01*
X7105500Y7672475D01*
X7067984Y7812485D01*
X7062348Y7822246D01*
X6995511Y7938012D01*
X6995506Y7938018D01*
X6893017Y8040507D01*
X6893011Y8040512D01*
X6767488Y8112983D01*
X6767489Y8112983D01*
X6733893Y8121985D01*
X6627475Y8150500D01*
X6482525Y8150500D01*
X6445252Y8140513D01*
X6375402Y8142178D01*
X6325480Y8172608D01*
X5860489Y8637599D01*
X5827004Y8698922D01*
X5831988Y8768614D01*
X5873860Y8824547D01*
X5886172Y8832668D01*
X5895433Y8838015D01*
X5908521Y8845571D01*
X5997052Y8934102D01*
X6059652Y9042530D01*
X6092057Y9163465D01*
X6092057Y9163467D01*
X6094160Y9171315D01*
X6096450Y9170702D01*
X6119809Y9223519D01*
X6126798Y9231117D01*
X6759934Y9864252D01*
X6786861Y9878956D01*
X6812680Y9895548D01*
X6818880Y9896440D01*
X6821257Y9897737D01*
X6847615Y9900571D01*
X6947373Y9900571D01*
X7014412Y9880886D01*
X7022862Y9874945D01*
X7028551Y9870580D01*
X7028555Y9870576D01*
X7136983Y9807976D01*
X7257918Y9775571D01*
X7257920Y9775571D01*
X7383118Y9775571D01*
X7383120Y9775571D01*
X7504055Y9807976D01*
X7612483Y9870576D01*
X7701014Y9959107D01*
X7763614Y10067535D01*
X7796019Y10188470D01*
X7796019Y10313672D01*
X7763614Y10434607D01*
X7701014Y10543035D01*
X7701010Y10543039D01*
X7696068Y10549480D01*
X7697275Y10550407D01*
X7668162Y10603725D01*
X7673146Y10673417D01*
X7715018Y10729350D01*
X7757230Y10749857D01*
X7783536Y10756905D01*
X7891964Y10819505D01*
X7980495Y10908036D01*
X8043095Y11016464D01*
X8075500Y11137399D01*
X8075500Y11262601D01*
X8043095Y11383536D01*
X8034310Y11398752D01*
X8017112Y11428542D01*
X8000500Y11490540D01*
X8000500Y13982746D01*
X8020185Y14049785D01*
X8036815Y14070423D01*
X8577755Y14611364D01*
X8633338Y14643455D01*
X8683536Y14656905D01*
X8791964Y14719505D01*
X8880495Y14808036D01*
X8943095Y14916464D01*
X8975500Y15037399D01*
X8975500Y15162601D01*
X8943095Y15283536D01*
X8880495Y15391964D01*
X8791964Y15480495D01*
X8683536Y15543095D01*
X8683537Y15543095D01*
X8615300Y15561379D01*
X8562601Y15575500D01*
X8437399Y15575500D01*
X8384700Y15561379D01*
X8316463Y15543095D01*
X8208037Y15480496D01*
X8208034Y15480494D01*
X8119506Y15391966D01*
X8119504Y15391963D01*
X8056905Y15283537D01*
X8056903Y15283532D01*
X8043454Y15233341D01*
X8011361Y15177756D01*
X7279522Y14445916D01*
X7279520Y14445913D01*
X7242576Y14381924D01*
X7226793Y14354588D01*
X7217118Y14318480D01*
X7217118Y14318479D01*
X7217117Y14318480D01*
X7199500Y14252729D01*
X7199500Y12752205D01*
X7179815Y12685166D01*
X7127011Y12639411D01*
X7057853Y12629467D01*
X6994297Y12658492D01*
X6968114Y12690204D01*
X6940513Y12738009D01*
X6940510Y12738012D01*
X6940509Y12738015D01*
X6838015Y12840509D01*
X6838013Y12840510D01*
X6838011Y12840512D01*
X6712488Y12912983D01*
X6712489Y12912983D01*
X6686689Y12919896D01*
X6572475Y12950500D01*
X6427525Y12950500D01*
X6313311Y12919896D01*
X6287511Y12912983D01*
X6238781Y12884848D01*
X6170881Y12868375D01*
X6104854Y12891228D01*
X6061663Y12946149D01*
X6057006Y12960142D01*
X6055500Y12965763D01*
X6055500Y12965766D01*
X6016281Y13112135D01*
X5940515Y13243365D01*
X5833365Y13350515D01*
X5738910Y13405049D01*
X5702136Y13426281D01*
X5602260Y13453042D01*
X5555766Y13465500D01*
X5404234Y13465500D01*
X5257863Y13426281D01*
X5126635Y13350515D01*
X5126632Y13350513D01*
X5019487Y13243368D01*
X5019485Y13243365D01*
X4943719Y13112137D01*
X4910629Y12988639D01*
X4904500Y12965766D01*
X4904500Y12814234D01*
X4911641Y12787584D01*
X4943719Y12667864D01*
X4965888Y12629467D01*
X5019485Y12536635D01*
X5126635Y12429485D01*
X5257865Y12353719D01*
X5404234Y12314500D01*
X5404236Y12314500D01*
X5407323Y12314500D01*
X5409832Y12313764D01*
X5412294Y12313439D01*
X5412243Y12313056D01*
X5474362Y12294815D01*
X5520117Y12242011D01*
X5530061Y12172853D01*
X5501036Y12109297D01*
X5495004Y12102819D01*
X4592686Y11200500D01*
X4499502Y11107317D01*
X4499500Y11107314D01*
X4433608Y10993188D01*
X4409710Y10903997D01*
X4399500Y10865892D01*
X2225499Y10865892D01*
X2225499Y11047872D01*
X2219091Y11107483D01*
X2218963Y11107825D01*
X2168797Y11242329D01*
X2168793Y11242336D01*
X2105565Y11326796D01*
X2082546Y11357546D01*
X2024854Y11400735D01*
X1982984Y11456667D01*
X1978000Y11526359D01*
X2011485Y11587682D01*
X2024854Y11599266D01*
X2082546Y11642454D01*
X2168796Y11757669D01*
X2219091Y11892517D01*
X2225500Y11952127D01*
X2225499Y12547872D01*
X2219091Y12607483D01*
X2217644Y12611362D01*
X2168797Y12742329D01*
X2168793Y12742336D01*
X2082547Y12857545D01*
X2082544Y12857548D01*
X1967335Y12943794D01*
X1967328Y12943798D01*
X1832482Y12994092D01*
X1832483Y12994092D01*
X1772883Y13000499D01*
X1772881Y13000500D01*
X1772873Y13000500D01*
X1772864Y13000500D01*
X977129Y13000500D01*
X977123Y13000499D01*
X917516Y12994092D01*
X782671Y12943798D01*
X782664Y12943794D01*
X667455Y12857548D01*
X667452Y12857545D01*
X581206Y12742336D01*
X581202Y12742329D01*
X540682Y12633687D01*
X498811Y12577753D01*
X433347Y12553336D01*
X365074Y12568188D01*
X315668Y12617593D01*
X300500Y12677020D01*
X300500Y17995573D01*
X300816Y18004419D01*
X308102Y18106287D01*
X649500Y18106287D01*
X649500Y17893714D01*
X681268Y17693135D01*
X682754Y17683757D01*
X740998Y17504500D01*
X748444Y17481586D01*
X844951Y17292180D01*
X969890Y17120214D01*
X1120213Y16969891D01*
X1292179Y16844952D01*
X1292181Y16844951D01*
X1292184Y16844949D01*
X1481588Y16748443D01*
X1683757Y16682754D01*
X1893713Y16649500D01*
X1893714Y16649500D01*
X2106286Y16649500D01*
X2106287Y16649500D01*
X2316243Y16682754D01*
X2518412Y16748443D01*
X2707816Y16844949D01*
X2784276Y16900500D01*
X2879786Y16969891D01*
X2879788Y16969894D01*
X2879792Y16969896D01*
X3030104Y17120208D01*
X3030106Y17120212D01*
X3030109Y17120214D01*
X3144000Y17276973D01*
X3155051Y17292184D01*
X3251557Y17481588D01*
X3317246Y17683757D01*
X3318732Y17693135D01*
X3329077Y17758455D01*
X3330174Y17765379D01*
X6373764Y17765379D01*
X6373764Y17639058D01*
X6373765Y17639032D01*
X6376555Y17603581D01*
X6420644Y17451823D01*
X6420646Y17451818D01*
X6501091Y17315792D01*
X6501098Y17315783D01*
X6612838Y17204043D01*
X6612847Y17204036D01*
X6617822Y17201094D01*
X6748874Y17123590D01*
X6760515Y17120208D01*
X6897191Y17080500D01*
X6900637Y17079499D01*
X6936101Y17076708D01*
X7062426Y17076709D01*
X7062437Y17076710D01*
X7062440Y17076710D01*
X7065702Y17076967D01*
X7097891Y17079499D01*
X7249654Y17123590D01*
X7385684Y17204038D01*
X7497434Y17315788D01*
X7577882Y17451818D01*
X7621973Y17603581D01*
X7624764Y17639045D01*
X7624763Y17762435D01*
X7973764Y17762435D01*
X7973764Y17636114D01*
X7973765Y17636088D01*
X7976555Y17600637D01*
X8020644Y17448879D01*
X8020646Y17448874D01*
X8101091Y17312848D01*
X8101098Y17312839D01*
X8212838Y17201099D01*
X8212842Y17201096D01*
X8212844Y17201094D01*
X8348874Y17120646D01*
X8500637Y17076555D01*
X8536101Y17073764D01*
X8662426Y17073765D01*
X8662437Y17073766D01*
X8662440Y17073766D01*
X8665702Y17074023D01*
X8697891Y17076555D01*
X8849654Y17120646D01*
X8985684Y17201094D01*
X9097434Y17312844D01*
X9177882Y17448874D01*
X9221973Y17600637D01*
X9224764Y17636101D01*
X9224763Y17762426D01*
X9221973Y17797891D01*
X9177882Y17949654D01*
X9124711Y18039562D01*
X9097436Y18085681D01*
X9097429Y18085690D01*
X8985689Y18197430D01*
X8985680Y18197437D01*
X8849654Y18277882D01*
X8849649Y18277884D01*
X8697897Y18321972D01*
X8697884Y18321974D01*
X8662427Y18324764D01*
X8536113Y18324764D01*
X8536087Y18324763D01*
X8500636Y18321973D01*
X8348878Y18277884D01*
X8348873Y18277882D01*
X8212847Y18197437D01*
X8212838Y18197430D01*
X8101098Y18085690D01*
X8101091Y18085681D01*
X8020646Y17949655D01*
X8020644Y17949650D01*
X7976556Y17797898D01*
X7976554Y17797885D01*
X7973764Y17762435D01*
X7624763Y17762435D01*
X7624763Y17765370D01*
X7621973Y17800835D01*
X7577882Y17952598D01*
X7497434Y18088628D01*
X7497432Y18088630D01*
X7497429Y18088634D01*
X7385689Y18200374D01*
X7385680Y18200381D01*
X7249654Y18280826D01*
X7249649Y18280828D01*
X7097897Y18324916D01*
X7097884Y18324918D01*
X7062427Y18327708D01*
X6936113Y18327708D01*
X6936087Y18327707D01*
X6900636Y18324917D01*
X6748878Y18280828D01*
X6748873Y18280826D01*
X6612847Y18200381D01*
X6612838Y18200374D01*
X6501098Y18088634D01*
X6501091Y18088625D01*
X6420646Y17952599D01*
X6420644Y17952594D01*
X6376556Y17800842D01*
X6376554Y17800829D01*
X6373764Y17765379D01*
X3330174Y17765379D01*
X3350500Y17893713D01*
X3350500Y18106287D01*
X3317246Y18316243D01*
X3251557Y18518412D01*
X3155051Y18707816D01*
X3155049Y18707819D01*
X3155048Y18707821D01*
X3030109Y18879787D01*
X2879786Y19030110D01*
X2707820Y19155049D01*
X2518414Y19251556D01*
X2518413Y19251557D01*
X2518412Y19251557D01*
X2316243Y19317246D01*
X2316241Y19317247D01*
X2316240Y19317247D01*
X2154957Y19342792D01*
X2106287Y19350500D01*
X1893713Y19350500D01*
X1845042Y19342792D01*
X1683760Y19317247D01*
X1481585Y19251556D01*
X1292179Y19155049D01*
X1120213Y19030110D01*
X969890Y18879787D01*
X844951Y18707821D01*
X748444Y18518415D01*
X682753Y18316240D01*
X649500Y18106287D01*
X308102Y18106287D01*
X309083Y18120005D01*
X309083Y18120006D01*
X314620Y18197434D01*
X317165Y18233021D01*
X319683Y18250530D01*
X326274Y18280828D01*
X367459Y18470149D01*
X372436Y18487100D01*
X450985Y18697701D01*
X458325Y18713773D01*
X566044Y18911044D01*
X575600Y18925914D01*
X710294Y19105844D01*
X721868Y19119201D01*
X880799Y19278132D01*
X894156Y19289706D01*
X1074086Y19424400D01*
X1088956Y19433956D01*
X1286227Y19541675D01*
X1302299Y19549015D01*
X1512900Y19627564D01*
X1529851Y19632541D01*
X1749472Y19680318D01*
X1766977Y19682835D01*
X1995582Y19699184D01*
X2004428Y19699500D01*
X2047595Y19699500D01*
X41952405Y19699500D01*
X41995572Y19699500D01*
X42004418Y19699184D01*
G37*
%TD.AperFunction*%
%TA.AperFunction,Conductor*%
G36*
X40491834Y14422928D02*
G01*
X40547767Y14381056D01*
X40572184Y14315592D01*
X40572500Y14306746D01*
X40572500Y13890256D01*
X40552815Y13823217D01*
X40536181Y13802575D01*
X38722244Y11988639D01*
X38666659Y11956546D01*
X38616468Y11943097D01*
X38616463Y11943095D01*
X38508037Y11880496D01*
X38508034Y11880494D01*
X38419506Y11791966D01*
X38419504Y11791963D01*
X38356905Y11683537D01*
X38348886Y11653610D01*
X38324500Y11562601D01*
X38324500Y11437399D01*
X38356905Y11316464D01*
X38419505Y11208036D01*
X38508036Y11119505D01*
X38562919Y11087819D01*
X38583009Y11076220D01*
X38631225Y11025653D01*
X38644449Y10957046D01*
X38618481Y10892181D01*
X38608692Y10881151D01*
X38519503Y10791963D01*
X38456905Y10683537D01*
X38449879Y10657314D01*
X38424500Y10562601D01*
X38424500Y10437399D01*
X38456905Y10316464D01*
X38508564Y10226986D01*
X38519504Y10208038D01*
X38519506Y10208035D01*
X38608036Y10119505D01*
X38629025Y10107387D01*
X38677240Y10056820D01*
X38690462Y9988212D01*
X38664494Y9923348D01*
X38655605Y9913228D01*
X38643723Y9901099D01*
X38608036Y9880495D01*
X38519505Y9791964D01*
X38494657Y9748926D01*
X38483688Y9737728D01*
X38466326Y9728015D01*
X38451928Y9714285D01*
X38434026Y9709943D01*
X38422713Y9703612D01*
X38410910Y9704334D01*
X38395107Y9700500D01*
X27324500Y9700500D01*
X27257461Y9720185D01*
X27211706Y9772989D01*
X27200500Y9824500D01*
X27200500Y10014572D01*
X27220185Y10081611D01*
X27272989Y10127366D01*
X27342147Y10137310D01*
X27405703Y10108285D01*
X27412181Y10102253D01*
X27433036Y10081398D01*
X27541464Y10018798D01*
X27662399Y9986393D01*
X27662401Y9986393D01*
X27787600Y9986393D01*
X27787601Y9986393D01*
X27816330Y9994091D01*
X27820749Y9995275D01*
X27852842Y9999500D01*
X35852725Y9999500D01*
X35852727Y9999500D01*
X35954588Y10026793D01*
X36045913Y10079520D01*
X37977755Y12011364D01*
X38033338Y12043455D01*
X38083536Y12056905D01*
X38191964Y12119505D01*
X38280495Y12208036D01*
X38343095Y12316464D01*
X38356545Y12366662D01*
X38388636Y12422245D01*
X40360820Y14394428D01*
X40422142Y14427912D01*
X40491834Y14422928D01*
G37*
%TD.AperFunction*%
M02*
