%TF.GenerationSoftware,KiCad,Pcbnew,9.0.3*%
%TF.CreationDate,2025-07-25T19:16:10+05:30*%
%TF.ProjectId,ESPNut-D1,4553504e-7574-42d4-9431-2e6b69636164,0.2*%
%TF.SameCoordinates,Original*%
%TF.FileFunction,Copper,L1,Top*%
%TF.FilePolarity,Positive*%
%FSLAX46Y46*%
G04 Gerber Fmt 4.6, Leading zero omitted, Abs format (unit mm)*
G04 Created by KiCad (PCBNEW 9.0.3) date 2025-07-25 19:16:10*
%MOMM*%
%LPD*%
G01*
G04 APERTURE LIST*
G04 Aperture macros list*
%AMRoundRect*
0 Rectangle with rounded corners*
0 $1 Rounding radius*
0 $2 $3 $4 $5 $6 $7 $8 $9 X,Y pos of 4 corners*
0 Add a 4 corners polygon primitive as box body*
4,1,4,$2,$3,$4,$5,$6,$7,$8,$9,$2,$3,0*
0 Add four circle primitives for the rounded corners*
1,1,$1+$1,$2,$3*
1,1,$1+$1,$4,$5*
1,1,$1+$1,$6,$7*
1,1,$1+$1,$8,$9*
0 Add four rect primitives between the rounded corners*
20,1,$1+$1,$2,$3,$4,$5,0*
20,1,$1+$1,$4,$5,$6,$7,0*
20,1,$1+$1,$6,$7,$8,$9,0*
20,1,$1+$1,$8,$9,$2,$3,0*%
%AMFreePoly0*
4,1,15,-0.500000,0.200000,-0.480423,0.323607,-0.423607,0.435114,-0.335114,0.523607,-0.223607,0.580423,-0.100000,0.600000,0.500000,0.600000,0.500000,-0.600000,-0.100000,-0.600000,-0.223607,-0.580423,-0.335114,-0.523607,-0.423607,-0.435114,-0.480423,-0.323607,-0.500000,-0.200000,-0.500000,0.200000,-0.500000,0.200000,$1*%
%AMFreePoly1*
4,1,15,-0.500000,0.600000,0.100000,0.600000,0.223607,0.580423,0.335114,0.523607,0.423607,0.435114,0.480423,0.323607,0.500000,0.200000,0.500000,-0.200000,0.480423,-0.323607,0.423607,-0.435114,0.335114,-0.523607,0.223607,-0.580423,0.100000,-0.600000,-0.500000,-0.600000,-0.500000,0.600000,-0.500000,0.600000,$1*%
G04 Aperture macros list end*
%TA.AperFunction,SMDPad,CuDef*%
%ADD10R,1.000000X0.800000*%
%TD*%
%TA.AperFunction,SMDPad,CuDef*%
%ADD11R,0.700000X1.500000*%
%TD*%
%TA.AperFunction,SMDPad,CuDef*%
%ADD12RoundRect,0.135000X0.185000X-0.135000X0.185000X0.135000X-0.185000X0.135000X-0.185000X-0.135000X0*%
%TD*%
%TA.AperFunction,SMDPad,CuDef*%
%ADD13RoundRect,0.135000X0.135000X0.185000X-0.135000X0.185000X-0.135000X-0.185000X0.135000X-0.185000X0*%
%TD*%
%TA.AperFunction,SMDPad,CuDef*%
%ADD14RoundRect,0.150000X-0.825000X-0.150000X0.825000X-0.150000X0.825000X0.150000X-0.825000X0.150000X0*%
%TD*%
%TA.AperFunction,SMDPad,CuDef*%
%ADD15RoundRect,0.135000X-0.135000X-0.185000X0.135000X-0.185000X0.135000X0.185000X-0.135000X0.185000X0*%
%TD*%
%TA.AperFunction,SMDPad,CuDef*%
%ADD16RoundRect,0.150000X-0.512500X-0.150000X0.512500X-0.150000X0.512500X0.150000X-0.512500X0.150000X0*%
%TD*%
%TA.AperFunction,SMDPad,CuDef*%
%ADD17FreePoly0,90.000000*%
%TD*%
%TA.AperFunction,SMDPad,CuDef*%
%ADD18FreePoly1,90.000000*%
%TD*%
%TA.AperFunction,SMDPad,CuDef*%
%ADD19RoundRect,0.140000X0.140000X0.170000X-0.140000X0.170000X-0.140000X-0.170000X0.140000X-0.170000X0*%
%TD*%
%TA.AperFunction,SMDPad,CuDef*%
%ADD20R,0.400000X1.900000*%
%TD*%
%TA.AperFunction,SMDPad,CuDef*%
%ADD21RoundRect,0.135000X-0.185000X0.135000X-0.185000X-0.135000X0.185000X-0.135000X0.185000X0.135000X0*%
%TD*%
%TA.AperFunction,SMDPad,CuDef*%
%ADD22RoundRect,0.140000X-0.140000X-0.170000X0.140000X-0.170000X0.140000X0.170000X-0.140000X0.170000X0*%
%TD*%
%TA.AperFunction,SMDPad,CuDef*%
%ADD23RoundRect,0.150000X-0.587500X-0.150000X0.587500X-0.150000X0.587500X0.150000X-0.587500X0.150000X0*%
%TD*%
%TA.AperFunction,SMDPad,CuDef*%
%ADD24R,1.000000X0.700000*%
%TD*%
%TA.AperFunction,SMDPad,CuDef*%
%ADD25R,0.600000X0.700000*%
%TD*%
%TA.AperFunction,SMDPad,CuDef*%
%ADD26RoundRect,0.250000X0.400000X0.275000X-0.400000X0.275000X-0.400000X-0.275000X0.400000X-0.275000X0*%
%TD*%
%TA.AperFunction,SMDPad,CuDef*%
%ADD27R,1.150000X1.700000*%
%TD*%
%TA.AperFunction,SMDPad,CuDef*%
%ADD28RoundRect,0.140000X0.170000X-0.140000X0.170000X0.140000X-0.170000X0.140000X-0.170000X-0.140000X0*%
%TD*%
%TA.AperFunction,SMDPad,CuDef*%
%ADD29RoundRect,0.150000X-0.425000X0.150000X-0.425000X-0.150000X0.425000X-0.150000X0.425000X0.150000X0*%
%TD*%
%TA.AperFunction,SMDPad,CuDef*%
%ADD30RoundRect,0.075000X-0.500000X0.075000X-0.500000X-0.075000X0.500000X-0.075000X0.500000X0.075000X0*%
%TD*%
%TA.AperFunction,SMDPad,CuDef*%
%ADD31RoundRect,0.250000X-0.750000X0.840000X-0.750000X-0.840000X0.750000X-0.840000X0.750000X0.840000X0*%
%TD*%
%TA.AperFunction,ComponentPad*%
%ADD32R,1.000000X1.000000*%
%TD*%
%TA.AperFunction,ComponentPad*%
%ADD33O,1.000000X1.000000*%
%TD*%
%TA.AperFunction,SMDPad,CuDef*%
%ADD34RoundRect,0.218750X-0.218750X-0.256250X0.218750X-0.256250X0.218750X0.256250X-0.218750X0.256250X0*%
%TD*%
%TA.AperFunction,SMDPad,CuDef*%
%ADD35FreePoly0,180.000000*%
%TD*%
%TA.AperFunction,SMDPad,CuDef*%
%ADD36FreePoly1,180.000000*%
%TD*%
%TA.AperFunction,SMDPad,CuDef*%
%ADD37C,0.750000*%
%TD*%
%TA.AperFunction,SMDPad,CuDef*%
%ADD38RoundRect,0.150000X0.625000X-0.150000X0.625000X0.150000X-0.625000X0.150000X-0.625000X-0.150000X0*%
%TD*%
%TA.AperFunction,SMDPad,CuDef*%
%ADD39RoundRect,0.250000X0.650000X-0.350000X0.650000X0.350000X-0.650000X0.350000X-0.650000X-0.350000X0*%
%TD*%
%TA.AperFunction,SMDPad,CuDef*%
%ADD40RoundRect,0.140000X-0.170000X0.140000X-0.170000X-0.140000X0.170000X-0.140000X0.170000X0.140000X0*%
%TD*%
%TA.AperFunction,ViaPad*%
%ADD41C,0.600000*%
%TD*%
%TA.AperFunction,ViaPad*%
%ADD42C,0.450000*%
%TD*%
%TA.AperFunction,Conductor*%
%ADD43C,0.400000*%
%TD*%
%TA.AperFunction,Conductor*%
%ADD44C,0.300000*%
%TD*%
%TA.AperFunction,Conductor*%
%ADD45C,0.500000*%
%TD*%
%TA.AperFunction,Conductor*%
%ADD46C,0.600000*%
%TD*%
%TA.AperFunction,Conductor*%
%ADD47C,0.200000*%
%TD*%
G04 APERTURE END LIST*
D10*
X35349000Y17095000D03*
X35349000Y19305000D03*
X28049000Y17095000D03*
X28049000Y19305000D03*
D11*
X33949000Y16445000D03*
X30949000Y16445000D03*
X29449000Y16445000D03*
D12*
X27805000Y6279002D03*
X27805000Y7299000D03*
D13*
X16705000Y3844000D03*
X15685000Y3844000D03*
D14*
X11050000Y14444000D03*
X11050000Y13174000D03*
X11050000Y11904000D03*
X11050000Y10634000D03*
X11050000Y9364000D03*
X11050000Y8094000D03*
X11050000Y6824000D03*
X11050000Y5554000D03*
X16000000Y5554000D03*
X16000000Y6824000D03*
X16000000Y8094000D03*
X16000000Y9364000D03*
X16000000Y10634000D03*
X16000000Y11904000D03*
X16000000Y13174000D03*
X16000000Y14444000D03*
D13*
X9445000Y11904000D03*
X8425000Y11904000D03*
D15*
X4625000Y17655000D03*
X5645000Y17655000D03*
D13*
X25665000Y3870000D03*
X24645002Y3870000D03*
D16*
X23897500Y7269000D03*
X23897500Y6319000D03*
X23897500Y5369000D03*
X26172500Y5369000D03*
X26172500Y7269000D03*
D17*
X24750000Y17435001D03*
D18*
X24750000Y18734999D03*
D19*
X13155000Y16005000D03*
X12195000Y16005000D03*
D20*
X14230000Y3040000D03*
X13030000Y3040000D03*
X11830000Y3040000D03*
D21*
X18005000Y14084000D03*
X18005000Y13064000D03*
D22*
X22215000Y1944000D03*
X23175000Y1944000D03*
D12*
X8475000Y15075000D03*
X8475000Y16095000D03*
D23*
X19637500Y9743000D03*
X19637500Y7843000D03*
X21512500Y8793000D03*
D24*
X8725000Y1705000D03*
D25*
X10425000Y1705000D03*
X10425000Y3705000D03*
X8525000Y3705000D03*
D26*
X20285000Y5725000D03*
X18335000Y5725000D03*
D10*
X28049000Y2891792D03*
X28049000Y681792D03*
X35349000Y2891792D03*
X35349000Y681792D03*
D11*
X29449000Y3541792D03*
X32449000Y3541792D03*
X33949000Y3541792D03*
D27*
X42199000Y1960000D03*
X37849000Y1960000D03*
D28*
X16665000Y1944000D03*
X16665000Y2904000D03*
D29*
X6555000Y13200000D03*
X6555000Y12400000D03*
D30*
X6555000Y11250000D03*
X6555000Y10250000D03*
X6555000Y9750000D03*
X6555000Y8750000D03*
D29*
X6555000Y7600000D03*
X6555000Y6800000D03*
X6555000Y6800000D03*
X6555000Y7600000D03*
D30*
X6555000Y8250000D03*
X6555000Y9250000D03*
X6555000Y10750000D03*
X6555000Y11750000D03*
D29*
X6555000Y12400000D03*
X6555000Y13200000D03*
D31*
X5980000Y15110000D03*
X2050000Y15110000D03*
X5980000Y4890000D03*
X2050000Y4890000D03*
D32*
X25659000Y11448000D03*
D33*
X24389000Y11448000D03*
X25659000Y12718000D03*
X24389000Y12718000D03*
X25659000Y13988000D03*
X24389000Y13988000D03*
D34*
X32327500Y12859000D03*
X33902500Y12859000D03*
D27*
X18965000Y18150000D03*
X14615000Y18150000D03*
D35*
X30859999Y7100000D03*
D36*
X29560001Y7100000D03*
D12*
X20745000Y17575001D03*
X20745000Y18594999D03*
D23*
X19627500Y14054000D03*
X19627500Y12154000D03*
X21502500Y13104000D03*
D27*
X42199000Y18040000D03*
X37849000Y18040000D03*
D34*
X7017500Y17705000D03*
X8592500Y17705000D03*
D15*
X24645000Y8585000D03*
X25665000Y8585000D03*
D37*
X36200000Y14000000D03*
D38*
X38896999Y7500000D03*
X38897000Y8500000D03*
X38897000Y9500000D03*
X38897000Y10500000D03*
X38897000Y11500000D03*
X38896999Y12500000D03*
D39*
X42772000Y6200000D03*
X42772000Y13800000D03*
D15*
X29505000Y12879000D03*
X30525000Y12879000D03*
D21*
X6725000Y2645000D03*
X6725000Y1625000D03*
D17*
X22375000Y17435001D03*
D18*
X22375000Y18734999D03*
D12*
X18005000Y8753000D03*
X18005000Y9773000D03*
D19*
X9395000Y13174000D03*
X8435000Y13174000D03*
D40*
X22245000Y3864000D03*
X22245000Y2904000D03*
D16*
X18347500Y3844000D03*
X18347500Y2894000D03*
X18347500Y1944000D03*
X20622500Y1944000D03*
X20622500Y3844000D03*
D12*
X26385000Y17575001D03*
X26385000Y18594999D03*
D41*
X35400000Y6000000D03*
X1600000Y4300000D03*
X2500000Y15700000D03*
X4200000Y13600000D03*
X13030000Y2339000D03*
X1600000Y15700000D03*
X18347500Y2894000D03*
X5500000Y15700000D03*
X5500000Y5500000D03*
X31800000Y18800000D03*
X6400000Y15700000D03*
X5500000Y14500000D03*
X10100000Y16500000D03*
X8725000Y1705000D03*
X1600000Y5500000D03*
X15500000Y2900000D03*
X18900000Y11000000D03*
X13800000Y12600000D03*
X1600000Y14500000D03*
X10800000Y19000000D03*
X5000000Y19000000D03*
X35400000Y7000000D03*
X2500000Y4300000D03*
X36400000Y7000000D03*
X2600000Y6700000D03*
X29800000Y13600000D03*
X13800000Y11400000D03*
X6400000Y5500000D03*
X42199000Y18040000D03*
X2500000Y14500000D03*
X17600000Y6900000D03*
X31800000Y17900000D03*
X3500000Y13600000D03*
X2500000Y5500000D03*
X42199000Y1960000D03*
X20000000Y11000000D03*
X18965000Y18150000D03*
X36400000Y6000000D03*
X4600000Y1400000D03*
X11600000Y19000000D03*
X4600000Y2200000D03*
X16665000Y2904000D03*
X12400000Y19000000D03*
X18335000Y5725000D03*
X29000000Y18200000D03*
X20800000Y2900000D03*
X3300000Y6700000D03*
X17600000Y7700000D03*
X6400000Y14500000D03*
X10900000Y16500000D03*
X22800000Y6700000D03*
X5800000Y19000000D03*
X22105281Y6705281D03*
X12600000Y4600000D03*
X1400000Y12200000D03*
X6500000Y12400000D03*
X6555000Y7600000D03*
D42*
X8600000Y17705000D03*
D41*
X26400000Y16900000D03*
X19800000Y6700000D03*
X20800000Y16800000D03*
D42*
X7017500Y17705000D03*
X27725000Y10461893D03*
X38075001Y18055000D03*
X37900000Y12500000D03*
X1400000Y10800000D03*
X1400000Y9200000D03*
X7320519Y10251071D03*
X5616557Y9226066D03*
X38800000Y11500000D03*
X37849000Y1960000D03*
D41*
X27100000Y14839000D03*
D42*
X22100000Y9400000D03*
X36800000Y12400000D03*
X14700000Y18300000D03*
X25700000Y3774000D03*
D41*
X33949000Y16400000D03*
X23401000Y15851000D03*
D42*
X33859264Y13262208D03*
D41*
X38900000Y8500000D03*
D42*
X7600000Y11200000D03*
X8500000Y15100000D03*
X21375000Y15100000D03*
X38900000Y10500000D03*
X19000000Y15100000D03*
X36200000Y11700000D03*
X12300000Y13100000D03*
X38900000Y9500000D03*
X16705000Y4299000D03*
X16000000Y11904000D03*
X18000000Y13100000D03*
X16000000Y10634000D03*
X17100000Y10400000D03*
X19600000Y7900000D03*
X16000000Y13174000D03*
X16000000Y5554000D03*
X16000000Y6824000D03*
X16000000Y8094000D03*
X16000000Y9364000D03*
X32259264Y13262208D03*
D41*
X28902000Y13998000D03*
D43*
X8435000Y13483999D02*
X9395001Y14444000D01*
X23175000Y2283999D02*
X23175000Y1944000D01*
X5980000Y4890000D02*
X5980000Y6225000D01*
X29505000Y12879000D02*
X29505000Y13305000D01*
X22800000Y6700000D02*
X22854001Y6700000D01*
X18347500Y2894000D02*
X15506000Y2894000D01*
X23235001Y6319000D02*
X23897500Y6319000D01*
X5980000Y13775000D02*
X5980000Y15110000D01*
X22245000Y2904000D02*
X22554999Y2904000D01*
X15506000Y2894000D02*
X15500000Y2900000D01*
D44*
X14963322Y4903000D02*
X18038000Y4903000D01*
D43*
X6089000Y13666000D02*
X5980000Y13775000D01*
X29505000Y13305000D02*
X29800000Y13600000D01*
X9395001Y14444000D02*
X11050000Y14444000D01*
X6089000Y13666000D02*
X4266000Y13666000D01*
D44*
X13800000Y11400000D02*
X13800000Y6066322D01*
D43*
X13030000Y4170000D02*
X12600000Y4600000D01*
D44*
X18335000Y5200000D02*
X18335000Y5725000D01*
D43*
X20804000Y2904000D02*
X20800000Y2900000D01*
X6555000Y13200000D02*
X6089000Y13666000D01*
X22245000Y2904000D02*
X20804000Y2904000D01*
D44*
X13800000Y6066322D02*
X14963322Y4903000D01*
D43*
X4266000Y13666000D02*
X4200000Y13600000D01*
X13030000Y2339000D02*
X13030000Y4170000D01*
X22554999Y2904000D02*
X23175000Y2283999D01*
X5980000Y6225000D02*
X6555000Y6800000D01*
X8435000Y13174000D02*
X8435000Y13483999D01*
D44*
X18038000Y4903000D02*
X18335000Y5200000D01*
D43*
X22854001Y6700000D02*
X23235001Y6319000D01*
D44*
X8425000Y11904000D02*
X9695000Y10634000D01*
X9695000Y10634000D02*
X11050000Y10634000D01*
X9395000Y12874000D02*
X8425000Y11904000D01*
X9395000Y13174000D02*
X9395000Y12874000D01*
D45*
X19796190Y1183000D02*
X26240208Y1183000D01*
X18347500Y3844000D02*
X18984810Y3844000D01*
X19511000Y2419810D02*
X19035190Y1944000D01*
D46*
X8592500Y17705000D02*
X8600000Y17705000D01*
D45*
X18984810Y3844000D02*
X19511000Y3317810D01*
D46*
X8600000Y17705000D02*
X12295000Y17705000D01*
D44*
X6555000Y12400000D02*
X6016719Y12400000D01*
D45*
X26240208Y1183000D02*
X26857208Y1800000D01*
D46*
X13155000Y16845000D02*
X13155000Y16005000D01*
D44*
X6016719Y12400000D02*
X5780719Y12164000D01*
X1436000Y12164000D02*
X1400000Y12200000D01*
D45*
X19035190Y1944000D02*
X19796190Y1183000D01*
X7704000Y12919900D02*
X7704000Y16816500D01*
D46*
X12295000Y17705000D02*
X13155000Y16845000D01*
X13155000Y15545000D02*
X14256000Y14444000D01*
D45*
X16665000Y1944000D02*
X18347500Y1944000D01*
X7184100Y12400000D02*
X7704000Y12919900D01*
D46*
X13155000Y16005000D02*
X13155000Y15545000D01*
D45*
X10925000Y1705000D02*
X11041000Y1589000D01*
X29449000Y2649000D02*
X29449000Y3541792D01*
X16310000Y1589000D02*
X16665000Y1944000D01*
D46*
X14256000Y14444000D02*
X16000000Y14444000D01*
D45*
X9900000Y2700000D02*
X10425000Y2175000D01*
X7184100Y7600000D02*
X7581000Y7203100D01*
X7704000Y16816500D02*
X8592500Y17705000D01*
X26857208Y1800000D02*
X28600000Y1800000D01*
X6555000Y12400000D02*
X7184100Y12400000D01*
X7581000Y7203100D02*
X7581000Y3219000D01*
D44*
X5780719Y12164000D02*
X1436000Y12164000D01*
D45*
X7581000Y3219000D02*
X8100000Y2700000D01*
X28600000Y1800000D02*
X29449000Y2649000D01*
X10425000Y1705000D02*
X10925000Y1705000D01*
X19511000Y3317810D02*
X19511000Y2419810D01*
X10425000Y2175000D02*
X10425000Y1705000D01*
X19035190Y1944000D02*
X18347500Y1944000D01*
X6555000Y7600000D02*
X7184100Y7600000D01*
X8100000Y2700000D02*
X9900000Y2700000D01*
X11041000Y1589000D02*
X16310000Y1589000D01*
D44*
X20622500Y1944000D02*
X22215000Y1944000D01*
X20285000Y5725000D02*
X20285000Y6215000D01*
X26400000Y17560001D02*
X26385000Y17575001D01*
X26400000Y16900000D02*
X26400000Y17560001D01*
D46*
X20285000Y5725000D02*
X20285000Y4181500D01*
D44*
X20800000Y16800000D02*
X20800000Y17520001D01*
D45*
X23429000Y3099000D02*
X26599000Y3099000D01*
X29900000Y5000000D02*
X31400000Y3500000D01*
X22664000Y3864000D02*
X23429000Y3099000D01*
D44*
X20800000Y17520001D02*
X20745000Y17575001D01*
D45*
X34300000Y3190792D02*
X33949000Y3541792D01*
X26599000Y3099000D02*
X28500000Y5000000D01*
X22245000Y3864000D02*
X22664000Y3864000D01*
D44*
X20285000Y6215000D02*
X19800000Y6700000D01*
D45*
X34300000Y1200000D02*
X34300000Y3190792D01*
D46*
X22225000Y3844000D02*
X22245000Y3864000D01*
D45*
X28500000Y5000000D02*
X29900000Y5000000D01*
X31400000Y1700000D02*
X32300000Y800000D01*
X32300000Y800000D02*
X33900000Y800000D01*
D46*
X20285000Y4181500D02*
X20622500Y3844000D01*
D45*
X33900000Y800000D02*
X34300000Y1200000D01*
X31400000Y3500000D02*
X31400000Y1700000D01*
D46*
X20622500Y3844000D02*
X22225000Y3844000D01*
D44*
X5645000Y17655000D02*
X6967500Y17655000D01*
X6967500Y17655000D02*
X7017500Y17705000D01*
X22400000Y13000000D02*
X21606500Y13000000D01*
X25700000Y11407000D02*
X25700000Y10300000D01*
X37900000Y12500000D02*
X38896999Y12500000D01*
X27725000Y10461893D02*
X27563107Y10300000D01*
X27563107Y10300000D02*
X23700000Y10300000D01*
X21606500Y13000000D02*
X21502500Y13104000D01*
X22400000Y13000000D02*
X22400000Y17410001D01*
X23700000Y10300000D02*
X22400000Y11600000D01*
X22400000Y17410001D02*
X22375000Y17435001D01*
X22400000Y11600000D02*
X22400000Y13000000D01*
X25659000Y11448000D02*
X25700000Y11407000D01*
D47*
X7538396Y9725071D02*
X7102642Y9725071D01*
X10375000Y8094000D02*
X9965000Y8504000D01*
X7102642Y9725071D02*
X7077713Y9750000D01*
X6604000Y9701000D02*
X6555000Y9750000D01*
X9000000Y8050192D02*
X7349192Y9701000D01*
X5650000Y9750000D02*
X5200000Y10200000D01*
X6555000Y9750000D02*
X5650000Y9750000D01*
X10310000Y3705000D02*
X9000000Y5015000D01*
X7077713Y9750000D02*
X6555000Y9750000D01*
X7588325Y9775000D02*
X7538396Y9725071D01*
X6555000Y10750000D02*
X5200000Y10750000D01*
X5200000Y10750000D02*
X1450000Y10750000D01*
X8506802Y9775000D02*
X7588325Y9775000D01*
X9000000Y5015000D02*
X9000000Y8050192D01*
X1450000Y10750000D02*
X1400000Y10800000D01*
X9777802Y8504000D02*
X8506802Y9775000D01*
X10425000Y3705000D02*
X10310000Y3705000D01*
X9965000Y8504000D02*
X9777802Y8504000D01*
X7349192Y9701000D02*
X6604000Y9701000D01*
X5200000Y10200000D02*
X5200000Y10750000D01*
X11050000Y8094000D02*
X10375000Y8094000D01*
X9965000Y8954000D02*
X9964198Y8954000D01*
X8525000Y3705000D02*
X8500000Y3730000D01*
X8693198Y10225000D02*
X7442501Y10225000D01*
X6555000Y9201000D02*
X6555000Y9250000D01*
X7212824Y9201000D02*
X6555000Y9201000D01*
X6555000Y9250000D02*
X5200000Y9250000D01*
X5496283Y9250000D02*
X5200000Y9250000D01*
X8500000Y7913824D02*
X7212824Y9201000D01*
X11050000Y9364000D02*
X10375000Y9364000D01*
X5616557Y9226066D02*
X5520217Y9226066D01*
X5200000Y9250000D02*
X1450000Y9250000D01*
X7442501Y10225000D02*
X7417501Y10250000D01*
X10375000Y9364000D02*
X9965000Y8954000D01*
X7417501Y10250000D02*
X6555000Y10250000D01*
X8500000Y3730000D02*
X8500000Y7913824D01*
X5520217Y9226066D02*
X5496283Y9250000D01*
X1450000Y9250000D02*
X1400000Y9200000D01*
X9964198Y8954000D02*
X8693198Y10225000D01*
D44*
X40500000Y10671999D02*
X39671999Y11500000D01*
X24750000Y17435001D02*
X24400000Y17085001D01*
X27039000Y14900000D02*
X24389000Y14900000D01*
X39671999Y11500000D02*
X38800000Y11500000D01*
X21512500Y8793000D02*
X21512500Y8812500D01*
X24400000Y13999000D02*
X24389000Y13988000D01*
X24389000Y14900000D02*
X24389000Y13988000D01*
X27100000Y14839000D02*
X27039000Y14900000D01*
X37700000Y11500000D02*
X38800000Y11500000D01*
X24400000Y17085001D02*
X24400000Y13999000D01*
X36800000Y12400000D02*
X37700000Y11500000D01*
X40500000Y4611000D02*
X40500000Y10671999D01*
X21512500Y8812500D02*
X22100000Y9400000D01*
X37849000Y1960000D02*
X40500000Y4611000D01*
X27679002Y6279002D02*
X27805000Y6279002D01*
X25665000Y4861500D02*
X26172500Y5369000D01*
X26769000Y5369000D02*
X27679002Y6279002D01*
X25665000Y3870000D02*
X25665000Y4861500D01*
X26172500Y5369000D02*
X26769000Y5369000D01*
D45*
X33902500Y16398500D02*
X33949000Y16445000D01*
X23401000Y15851000D02*
X23400000Y15850000D01*
X23400000Y15850000D02*
X23400000Y12300000D01*
X33902500Y12697500D02*
X33902500Y12859000D01*
X23400000Y12300000D02*
X24252000Y11448000D01*
X33902500Y12859000D02*
X33902500Y16398500D01*
X24252000Y11448000D02*
X24389000Y11448000D01*
X38897000Y8500000D02*
X38100000Y8500000D01*
X38100000Y8500000D02*
X33902500Y12697500D01*
D44*
X6555000Y8250000D02*
X5250000Y8250000D01*
X4300000Y7300000D02*
X4300000Y3600000D01*
X4300000Y3600000D02*
X5255000Y2645000D01*
X5250000Y8250000D02*
X4300000Y7300000D01*
X5255000Y2645000D02*
X6725000Y2645000D01*
X7550000Y11250000D02*
X7600000Y11200000D01*
X6555000Y11250000D02*
X7550000Y11250000D01*
X12226000Y13174000D02*
X12300000Y13100000D01*
X36200000Y11700000D02*
X37400000Y10500000D01*
X11050000Y13174000D02*
X12226000Y13174000D01*
X37400000Y10500000D02*
X38897000Y10500000D01*
X19000000Y15100000D02*
X21375000Y15100000D01*
X16705000Y4299000D02*
X16705000Y3844000D01*
D45*
X29560001Y7100000D02*
X28004000Y7100000D01*
X26202500Y7299000D02*
X26172500Y7269000D01*
X28004000Y7100000D02*
X27805000Y7299000D01*
X26172500Y8077500D02*
X26172500Y7269000D01*
X29560001Y6430791D02*
X29560001Y7100000D01*
X25665000Y8585000D02*
X26172500Y8077500D01*
X27805000Y7299000D02*
X26202500Y7299000D01*
X32449000Y3541792D02*
X29560001Y6430791D01*
D44*
X18005000Y11904000D02*
X16000000Y11904000D01*
X18255000Y12154000D02*
X19627500Y12154000D01*
X18005000Y11904000D02*
X18255000Y12154000D01*
X18005000Y9773000D02*
X18005000Y11904000D01*
X19597500Y14084000D02*
X19627500Y14054000D01*
X18005000Y14084000D02*
X19597500Y14084000D01*
X18005000Y8753000D02*
X18647500Y8753000D01*
X18647500Y8753000D02*
X19637500Y9743000D01*
X20048322Y7843000D02*
X24021322Y3870000D01*
X17066000Y10634000D02*
X16000000Y10634000D01*
X17100000Y10400000D02*
X17100000Y10600000D01*
X17100000Y10600000D02*
X17066000Y10634000D01*
X19637500Y7843000D02*
X20048322Y7843000D01*
X24021322Y3870000D02*
X24645002Y3870000D01*
X12376000Y11552999D02*
X12024999Y11904000D01*
X12024999Y11904000D02*
X11050000Y11904000D01*
X9445000Y11904000D02*
X11050000Y11904000D01*
X15685000Y3844000D02*
X15313802Y3844000D01*
X12376000Y6781802D02*
X12376000Y11552999D01*
X15313802Y3844000D02*
X12376000Y6781802D01*
X11830000Y3040000D02*
X11830000Y4774000D01*
X11830000Y4774000D02*
X11050000Y5554000D01*
X11576000Y6824000D02*
X11050000Y6824000D01*
X14230000Y3040000D02*
X14230000Y4170000D01*
X14230000Y4170000D02*
X11576000Y6824000D01*
X30525000Y12879000D02*
X32307500Y12879000D01*
X32307500Y12879000D02*
X32327500Y12859000D01*
X20745000Y18594999D02*
X22235000Y18594999D01*
X22235000Y18594999D02*
X22375000Y18734999D01*
X24750000Y18734999D02*
X24890000Y18594999D01*
X24890000Y18594999D02*
X26385000Y18594999D01*
D45*
X28400000Y9800000D02*
X28400000Y13496000D01*
X28200000Y9600000D02*
X28400000Y9800000D01*
X23897500Y7269000D02*
X23800000Y7366500D01*
X24400000Y9600000D02*
X27700000Y9600000D01*
X27700000Y9600000D02*
X29800000Y9600000D01*
X27700000Y9600000D02*
X28200000Y9600000D01*
X30949000Y16045000D02*
X30949000Y16445000D01*
X29800000Y9600000D02*
X30859999Y8540001D01*
X30859999Y8540001D02*
X30859999Y7100000D01*
X23800000Y7366500D02*
X23800000Y9000000D01*
X28400000Y13496000D02*
X30949000Y16045000D01*
X23800000Y9000000D02*
X24400000Y9600000D01*
D44*
X25000000Y8040000D02*
X24645000Y8395000D01*
X23897500Y5369000D02*
X24569000Y5369000D01*
X24645000Y8395000D02*
X24645000Y8585000D01*
X25000000Y5800000D02*
X25000000Y8040000D01*
X24569000Y5369000D02*
X25000000Y5800000D01*
%TA.AperFunction,Conductor*%
G36*
X22014786Y19679815D02*
G01*
X22060541Y19627011D01*
X22070485Y19557853D01*
X22041460Y19494297D01*
X21982682Y19456523D01*
X21982342Y19456424D01*
X21914606Y19436745D01*
X21914603Y19436744D01*
X21773137Y19353082D01*
X21773129Y19353076D01*
X21656923Y19236870D01*
X21656917Y19236862D01*
X21573256Y19095399D01*
X21573254Y19095394D01*
X21570207Y19084903D01*
X21555893Y19062491D01*
X21544844Y19038296D01*
X21537376Y19033497D01*
X21532600Y19026018D01*
X21508442Y19014903D01*
X21486066Y19000522D01*
X21473155Y18998666D01*
X21469127Y18996812D01*
X21451131Y18995499D01*
X21261041Y18995499D01*
X21194002Y19015184D01*
X21173360Y19031818D01*
X21157102Y19048076D01*
X21157099Y19048078D01*
X21041521Y19104580D01*
X21041519Y19104581D01*
X21041518Y19104581D01*
X20966582Y19115499D01*
X20523418Y19115499D01*
X20448482Y19104581D01*
X20448480Y19104581D01*
X20448478Y19104580D01*
X20332900Y19048078D01*
X20332897Y19048076D01*
X20241923Y18957102D01*
X20241921Y18957099D01*
X20185419Y18841521D01*
X20185418Y18841519D01*
X20185418Y18841517D01*
X20174500Y18766581D01*
X20174500Y18423417D01*
X20185418Y18348481D01*
X20185418Y18348480D01*
X20185419Y18348478D01*
X20241921Y18232900D01*
X20241923Y18232897D01*
X20302139Y18172681D01*
X20335624Y18111358D01*
X20330640Y18041666D01*
X20302139Y17997319D01*
X20241923Y17937104D01*
X20241921Y17937101D01*
X20185419Y17821523D01*
X20185418Y17821521D01*
X20185418Y17821519D01*
X20174500Y17746583D01*
X20174500Y17403419D01*
X20185418Y17328483D01*
X20185418Y17328482D01*
X20185419Y17328480D01*
X20241921Y17212902D01*
X20241923Y17212899D01*
X20276586Y17178237D01*
X20310072Y17116915D01*
X20305088Y17047223D01*
X20296295Y17028558D01*
X20287017Y17012488D01*
X20287016Y17012487D01*
X20275755Y16970459D01*
X20249500Y16872475D01*
X20249500Y16727525D01*
X20284405Y16597261D01*
X20287017Y16587512D01*
X20359488Y16461989D01*
X20359490Y16461987D01*
X20359491Y16461985D01*
X20461985Y16359491D01*
X20461986Y16359490D01*
X20461988Y16359489D01*
X20587511Y16287018D01*
X20587512Y16287018D01*
X20587515Y16287016D01*
X20727525Y16249500D01*
X20727528Y16249500D01*
X20872472Y16249500D01*
X20872475Y16249500D01*
X21012485Y16287016D01*
X21138015Y16359491D01*
X21240509Y16461985D01*
X21312984Y16587515D01*
X21350500Y16727525D01*
X21350500Y16872475D01*
X21312984Y17012485D01*
X21257784Y17108094D01*
X21241312Y17175991D01*
X21253770Y17224548D01*
X21290597Y17299878D01*
X21337724Y17351458D01*
X21405259Y17369372D01*
X21471757Y17347930D01*
X21516107Y17293941D01*
X21525614Y17255146D01*
X21527401Y17232433D01*
X21527402Y17232428D01*
X21573254Y17074608D01*
X21573255Y17074605D01*
X21573256Y17074603D01*
X21593538Y17040308D01*
X21656917Y16933139D01*
X21656923Y16933131D01*
X21773129Y16816925D01*
X21773133Y16816922D01*
X21773135Y16816920D01*
X21773137Y16816919D01*
X21914600Y16733258D01*
X21921764Y16730158D01*
X21920729Y16727768D01*
X21968957Y16696988D01*
X21998182Y16633524D01*
X21999500Y16615491D01*
X21999500Y15432110D01*
X21979815Y15365071D01*
X21927011Y15319316D01*
X21857853Y15309372D01*
X21794297Y15338397D01*
X21768113Y15370109D01*
X21755495Y15391964D01*
X21666965Y15480494D01*
X21666964Y15480495D01*
X21558536Y15543095D01*
X21558537Y15543095D01*
X21518224Y15553897D01*
X21437601Y15575500D01*
X21312399Y15575500D01*
X21231775Y15553897D01*
X21191463Y15543095D01*
X21184272Y15538943D01*
X21146458Y15517112D01*
X21084461Y15500500D01*
X19290539Y15500500D01*
X19228541Y15517112D01*
X19183536Y15543095D01*
X19183537Y15543095D01*
X19143224Y15553897D01*
X19062601Y15575500D01*
X18937399Y15575500D01*
X18856775Y15553897D01*
X18816463Y15543095D01*
X18708037Y15480496D01*
X18708034Y15480494D01*
X18619506Y15391966D01*
X18619504Y15391963D01*
X18556905Y15283537D01*
X18556905Y15283536D01*
X18524500Y15162601D01*
X18524500Y15037399D01*
X18556905Y14916464D01*
X18619505Y14808036D01*
X18708036Y14719505D01*
X18708037Y14719504D01*
X18708039Y14719503D01*
X18714302Y14715887D01*
X18716410Y14713676D01*
X18719341Y14712815D01*
X18740354Y14688565D01*
X18762517Y14665321D01*
X18763095Y14662320D01*
X18765096Y14660011D01*
X18769663Y14628243D01*
X18775741Y14596714D01*
X18774605Y14593877D01*
X18775040Y14590853D01*
X18761703Y14561651D01*
X18749773Y14531849D01*
X18747284Y14530077D01*
X18746015Y14527297D01*
X18719005Y14509940D01*
X18692859Y14491320D01*
X18689031Y14490677D01*
X18687237Y14489523D01*
X18652302Y14484500D01*
X18521041Y14484500D01*
X18454002Y14504185D01*
X18433360Y14520819D01*
X18417102Y14537077D01*
X18417099Y14537079D01*
X18301521Y14593581D01*
X18301519Y14593582D01*
X18301518Y14593582D01*
X18226582Y14604500D01*
X17783418Y14604500D01*
X17708482Y14593582D01*
X17708480Y14593582D01*
X17708478Y14593581D01*
X17592900Y14537079D01*
X17592897Y14537077D01*
X17501923Y14446103D01*
X17501923Y14446102D01*
X17460899Y14362187D01*
X17413771Y14310605D01*
X17346237Y14292691D01*
X17279738Y14314132D01*
X17235388Y14368122D01*
X17225499Y14416646D01*
X17225499Y14625518D01*
X17210646Y14719304D01*
X17153050Y14832342D01*
X17153046Y14832346D01*
X17153045Y14832348D01*
X17063347Y14922046D01*
X17063344Y14922048D01*
X17063342Y14922050D01*
X16986517Y14961195D01*
X16950301Y14979648D01*
X16856524Y14994500D01*
X16856519Y14994500D01*
X16072476Y14994500D01*
X16072475Y14994500D01*
X14535387Y14994500D01*
X14468348Y15014185D01*
X14447706Y15030819D01*
X13741819Y15736706D01*
X13708334Y15798029D01*
X13705500Y15824387D01*
X13705500Y16917473D01*
X13705499Y16917477D01*
X13691302Y16970462D01*
X13692963Y17040308D01*
X13732125Y17098172D01*
X13796353Y17125677D01*
X13865255Y17114091D01*
X13879966Y17105657D01*
X13942260Y17064034D01*
X13942264Y17064033D01*
X14015321Y17049501D01*
X14015324Y17049500D01*
X14015326Y17049500D01*
X15214676Y17049500D01*
X15214677Y17049501D01*
X15287740Y17064034D01*
X15370601Y17119399D01*
X15425966Y17202260D01*
X15436500Y17255215D01*
X18090001Y17255215D01*
X18090002Y17255192D01*
X18092908Y17230131D01*
X18092909Y17230127D01*
X18138211Y17127526D01*
X18138214Y17127521D01*
X18217520Y17048215D01*
X18217525Y17048212D01*
X18320123Y17002911D01*
X18345206Y17000001D01*
X18714999Y17000001D01*
X19215000Y17000001D01*
X19584786Y17000001D01*
X19584808Y17000003D01*
X19609869Y17002909D01*
X19609873Y17002910D01*
X19712474Y17048212D01*
X19712479Y17048215D01*
X19791785Y17127521D01*
X19791788Y17127526D01*
X19837089Y17230123D01*
X19837089Y17230125D01*
X19839999Y17255206D01*
X19840000Y17255209D01*
X19840000Y17900000D01*
X19215000Y17900000D01*
X19215000Y17000001D01*
X18714999Y17000001D01*
X18715000Y17000002D01*
X18715000Y17900000D01*
X18090001Y17900000D01*
X18090001Y17255215D01*
X15436500Y17255215D01*
X15440500Y17275326D01*
X15440500Y19024674D01*
X15440500Y19024677D01*
X15436498Y19044795D01*
X18090000Y19044795D01*
X18090000Y18400000D01*
X18715000Y18400000D01*
X19215000Y18400000D01*
X19839999Y18400000D01*
X19839999Y19044786D01*
X19839997Y19044809D01*
X19837091Y19069870D01*
X19837090Y19069874D01*
X19791788Y19172475D01*
X19791785Y19172480D01*
X19712479Y19251786D01*
X19712474Y19251789D01*
X19609876Y19297090D01*
X19584794Y19300000D01*
X19215000Y19300000D01*
X19215000Y18400000D01*
X18715000Y18400000D01*
X18715000Y19300000D01*
X18345214Y19300000D01*
X18345191Y19299998D01*
X18320130Y19297092D01*
X18320126Y19297091D01*
X18217525Y19251789D01*
X18217520Y19251786D01*
X18138214Y19172480D01*
X18138211Y19172475D01*
X18092910Y19069878D01*
X18092910Y19069876D01*
X18090000Y19044795D01*
X15436498Y19044795D01*
X15425967Y19097736D01*
X15425966Y19097740D01*
X15420556Y19105837D01*
X15370601Y19180601D01*
X15287740Y19235966D01*
X15287739Y19235967D01*
X15287735Y19235968D01*
X15214677Y19250500D01*
X15214674Y19250500D01*
X14015326Y19250500D01*
X14015323Y19250500D01*
X13942264Y19235968D01*
X13942260Y19235967D01*
X13859399Y19180601D01*
X13804033Y19097740D01*
X13804032Y19097736D01*
X13789500Y19024679D01*
X13789500Y17288387D01*
X13769815Y17221348D01*
X13717011Y17175593D01*
X13647853Y17165649D01*
X13584297Y17194674D01*
X13577819Y17200706D01*
X12633016Y18145509D01*
X12633015Y18145510D01*
X12507485Y18217984D01*
X12507486Y18217984D01*
X12472482Y18227363D01*
X12367475Y18255500D01*
X12367472Y18255500D01*
X9238807Y18255500D01*
X9171768Y18275185D01*
X9151130Y18291815D01*
X9146477Y18296468D01*
X9038450Y18377336D01*
X9038447Y18377338D01*
X8912024Y18424491D01*
X8856144Y18430500D01*
X8856130Y18430500D01*
X8328870Y18430500D01*
X8328855Y18430500D01*
X8272975Y18424491D01*
X8146552Y18377338D01*
X8146549Y18377336D01*
X8038528Y18296472D01*
X7957664Y18188451D01*
X7957662Y18188448D01*
X7921182Y18090639D01*
X7879311Y18034705D01*
X7813846Y18010288D01*
X7745573Y18025140D01*
X7696168Y18074545D01*
X7688818Y18090639D01*
X7652337Y18188448D01*
X7652335Y18188451D01*
X7571472Y18296472D01*
X7463450Y18377336D01*
X7463447Y18377338D01*
X7337024Y18424491D01*
X7281144Y18430500D01*
X7281130Y18430500D01*
X6753870Y18430500D01*
X6753855Y18430500D01*
X6697975Y18424491D01*
X6571552Y18377338D01*
X6571549Y18377336D01*
X6463528Y18296472D01*
X6382664Y18188451D01*
X6382663Y18188450D01*
X6363163Y18136166D01*
X6349892Y18118440D01*
X6340694Y18098297D01*
X6329362Y18091015D01*
X6321291Y18080233D01*
X6300545Y18072496D01*
X6281916Y18060523D01*
X6259997Y18057372D01*
X6255827Y18055816D01*
X6246981Y18055500D01*
X6161041Y18055500D01*
X6094002Y18075185D01*
X6073360Y18091819D01*
X6007102Y18158077D01*
X6007099Y18158079D01*
X5891521Y18214581D01*
X5891519Y18214582D01*
X5891518Y18214582D01*
X5816582Y18225500D01*
X5473418Y18225500D01*
X5398482Y18214582D01*
X5398480Y18214582D01*
X5398478Y18214581D01*
X5282900Y18158079D01*
X5282899Y18158079D01*
X5259926Y18135105D01*
X5198602Y18101621D01*
X5128911Y18106607D01*
X5077920Y18144780D01*
X5077636Y18144495D01*
X5075659Y18146472D01*
X5072978Y18148479D01*
X5072478Y18149152D01*
X5071066Y18151065D01*
X4965559Y18228934D01*
X4965557Y18228935D01*
X4875000Y18260622D01*
X4875000Y17049380D01*
X4965557Y17081066D01*
X5071064Y17158935D01*
X5072474Y17160844D01*
X5074555Y17162425D01*
X5077636Y17165505D01*
X5078057Y17165084D01*
X5128120Y17203096D01*
X5197776Y17208556D01*
X5259327Y17175491D01*
X5259927Y17174894D01*
X5282897Y17151924D01*
X5282900Y17151922D01*
X5363571Y17112485D01*
X5398482Y17095418D01*
X5473418Y17084500D01*
X5473423Y17084500D01*
X5816577Y17084500D01*
X5816582Y17084500D01*
X5891518Y17095418D01*
X5957185Y17127521D01*
X6007099Y17151922D01*
X6007102Y17151924D01*
X6073360Y17218181D01*
X6100287Y17232885D01*
X6126106Y17249477D01*
X6132306Y17250369D01*
X6134683Y17251666D01*
X6161041Y17254500D01*
X6295928Y17254500D01*
X6362967Y17234815D01*
X6395193Y17204813D01*
X6463528Y17113528D01*
X6561339Y17040308D01*
X6571549Y17032665D01*
X6571552Y17032663D01*
X6697975Y16985510D01*
X6697978Y16985509D01*
X6727318Y16982355D01*
X6753855Y16979501D01*
X6753870Y16979500D01*
X7079500Y16979500D01*
X7146539Y16959815D01*
X7192294Y16907011D01*
X7203500Y16855500D01*
X7203500Y16530845D01*
X7183815Y16463806D01*
X7131011Y16418051D01*
X7061853Y16408107D01*
X7009591Y16429944D01*
X7009490Y16429763D01*
X7007944Y16430632D01*
X7004577Y16432039D01*
X7002096Y16433920D01*
X6861443Y16489387D01*
X6773054Y16500000D01*
X5186946Y16500000D01*
X5098555Y16489386D01*
X5098554Y16489386D01*
X4995000Y16448552D01*
X6069095Y15374457D01*
X6102580Y15313134D01*
X6097596Y15243442D01*
X6069095Y15199095D01*
X5980000Y15110000D01*
X6069094Y15020906D01*
X6102579Y14959583D01*
X6097595Y14889891D01*
X6069094Y14845544D01*
X4995001Y13771451D01*
X4995001Y13771450D01*
X5098555Y13730615D01*
X5186946Y13720000D01*
X5607953Y13720000D01*
X5674992Y13700315D01*
X5720747Y13647511D01*
X5730691Y13578353D01*
X5724993Y13555042D01*
X5719839Y13540314D01*
X5679116Y13483539D01*
X5614163Y13457794D01*
X5570709Y13461496D01*
X5555766Y13465500D01*
X5404234Y13465500D01*
X5257863Y13426281D01*
X5126635Y13350515D01*
X5126632Y13350513D01*
X5019487Y13243368D01*
X5019485Y13243365D01*
X4943719Y13112137D01*
X4919260Y13020851D01*
X4904500Y12965766D01*
X4904500Y12814234D01*
X4923770Y12742318D01*
X4929591Y12720593D01*
X4927928Y12650743D01*
X4888765Y12592881D01*
X4824537Y12565377D01*
X4809816Y12564500D01*
X1865386Y12564500D01*
X1798347Y12584185D01*
X1777705Y12600819D01*
X1738017Y12640507D01*
X1738011Y12640512D01*
X1612488Y12712983D01*
X1612489Y12712983D01*
X1596325Y12717314D01*
X1472475Y12750500D01*
X1327525Y12750500D01*
X1203675Y12717314D01*
X1187511Y12712983D01*
X1061988Y12640512D01*
X1061982Y12640507D01*
X959493Y12538018D01*
X959488Y12538012D01*
X887017Y12412489D01*
X887016Y12412485D01*
X849500Y12272475D01*
X849500Y12127525D01*
X885824Y11991964D01*
X887017Y11987512D01*
X959488Y11861989D01*
X959490Y11861987D01*
X959491Y11861985D01*
X1061985Y11759491D01*
X1061986Y11759490D01*
X1061988Y11759489D01*
X1187511Y11687018D01*
X1187512Y11687018D01*
X1187515Y11687016D01*
X1327525Y11649500D01*
X1327528Y11649500D01*
X1472472Y11649500D01*
X1472475Y11649500D01*
X1612485Y11687016D01*
X1716185Y11746888D01*
X1778184Y11763500D01*
X5605501Y11763500D01*
X5672540Y11743815D01*
X5718295Y11691011D01*
X5725746Y11669785D01*
X5729500Y11654877D01*
X5729501Y11636862D01*
X5735741Y11589455D01*
X5758000Y11541719D01*
X5760880Y11530286D01*
X5759962Y11506682D01*
X5763509Y11483327D01*
X5758373Y11465839D01*
X5758165Y11460469D01*
X5755806Y11457096D01*
X5753018Y11447598D01*
X5735742Y11410549D01*
X5735740Y11410542D01*
X5729669Y11364426D01*
X5729500Y11363139D01*
X5729500Y11259841D01*
X5729501Y11224501D01*
X5709817Y11157461D01*
X5657013Y11111706D01*
X5605501Y11100500D01*
X1823321Y11100500D01*
X1756282Y11120185D01*
X1735640Y11136819D01*
X1691965Y11180494D01*
X1691964Y11180495D01*
X1583536Y11243095D01*
X1583537Y11243095D01*
X1521040Y11259841D01*
X1462601Y11275500D01*
X1337399Y11275500D01*
X1278960Y11259841D01*
X1216463Y11243095D01*
X1108037Y11180496D01*
X1108034Y11180494D01*
X1019506Y11091966D01*
X1019504Y11091963D01*
X956905Y10983537D01*
X950935Y10961255D01*
X924500Y10862601D01*
X924500Y10737399D01*
X956905Y10616464D01*
X1019505Y10508036D01*
X1108036Y10419505D01*
X1216464Y10356905D01*
X1337399Y10324500D01*
X1337401Y10324500D01*
X1462599Y10324500D01*
X1462601Y10324500D01*
X1583536Y10356905D01*
X1628541Y10382889D01*
X1690539Y10399500D01*
X4725500Y10399500D01*
X4792539Y10379815D01*
X4838294Y10327011D01*
X4849500Y10275500D01*
X4849500Y10153855D01*
X4866755Y10089457D01*
X4873385Y10064715D01*
X4873387Y10064710D01*
X4919527Y9984792D01*
X4919531Y9984787D01*
X5092137Y9812181D01*
X5125622Y9750858D01*
X5120638Y9681166D01*
X5078766Y9625233D01*
X5013302Y9600816D01*
X5004456Y9600500D01*
X1690539Y9600500D01*
X1628541Y9617112D01*
X1583536Y9643095D01*
X1583537Y9643095D01*
X1543224Y9653897D01*
X1462601Y9675500D01*
X1337399Y9675500D01*
X1256775Y9653897D01*
X1216463Y9643095D01*
X1108037Y9580496D01*
X1108034Y9580494D01*
X1019506Y9491966D01*
X1019504Y9491963D01*
X956905Y9383537D01*
X946177Y9343500D01*
X924500Y9262601D01*
X924500Y9137399D01*
X956905Y9016464D01*
X1019505Y8908036D01*
X1108036Y8819505D01*
X1216464Y8756905D01*
X1337399Y8724500D01*
X1337401Y8724500D01*
X1462599Y8724500D01*
X1462601Y8724500D01*
X1583536Y8756905D01*
X1691964Y8819505D01*
X1735640Y8863181D01*
X1796963Y8896666D01*
X1823321Y8899500D01*
X5153856Y8899500D01*
X5219302Y8899500D01*
X5248742Y8890856D01*
X5278729Y8884332D01*
X5283744Y8880578D01*
X5286341Y8879815D01*
X5306983Y8863181D01*
X5307983Y8862181D01*
X5341468Y8800858D01*
X5336484Y8731166D01*
X5294612Y8675233D01*
X5229148Y8650816D01*
X5220302Y8650500D01*
X5197273Y8650500D01*
X5095410Y8623207D01*
X5004087Y8570480D01*
X5004084Y8570478D01*
X3979522Y7545916D01*
X3979518Y7545910D01*
X3926792Y7454587D01*
X3926791Y7454587D01*
X3914127Y7407317D01*
X3914127Y7407316D01*
X3902776Y7364952D01*
X3899500Y7352727D01*
X3899500Y3652727D01*
X3899500Y3547273D01*
X3912251Y3499684D01*
X3926793Y3445411D01*
X3953156Y3399750D01*
X3979520Y3354087D01*
X5009087Y2324520D01*
X5079910Y2283630D01*
X5090357Y2277598D01*
X5100412Y2271793D01*
X5202273Y2244500D01*
X6111305Y2244500D01*
X6178344Y2224815D01*
X6224099Y2172011D01*
X6234043Y2102853D01*
X6211074Y2046865D01*
X6151067Y1965561D01*
X6151065Y1965558D01*
X6119378Y1875001D01*
X6119378Y1875000D01*
X7330622Y1875000D01*
X7330621Y1875001D01*
X7298934Y1965558D01*
X7298933Y1965560D01*
X7221064Y2071067D01*
X7219149Y2072480D01*
X7217566Y2074565D01*
X7214495Y2077636D01*
X7214915Y2078057D01*
X7176901Y2128129D01*
X7171445Y2197786D01*
X7204515Y2259334D01*
X7204959Y2259781D01*
X7228076Y2282898D01*
X7228076Y2282900D01*
X7228078Y2282901D01*
X7269771Y2368186D01*
X7284582Y2398482D01*
X7295500Y2473418D01*
X7295500Y2497324D01*
X7315185Y2564363D01*
X7367989Y2610118D01*
X7437147Y2620062D01*
X7500703Y2591037D01*
X7507181Y2585005D01*
X7699500Y2392686D01*
X7792686Y2299500D01*
X7867883Y2256085D01*
X7916099Y2205518D01*
X7929322Y2136911D01*
X7928824Y2134157D01*
X7928985Y2134138D01*
X7925000Y2099795D01*
X7925000Y1955000D01*
X9524999Y1955000D01*
X9524999Y2067825D01*
X9531237Y2089071D01*
X9532817Y2111159D01*
X9540889Y2121943D01*
X9544684Y2134864D01*
X9561417Y2149364D01*
X9574689Y2167092D01*
X9587309Y2171800D01*
X9597488Y2180619D01*
X9619405Y2183771D01*
X9640153Y2191509D01*
X9653313Y2188647D01*
X9666646Y2190563D01*
X9686789Y2181364D01*
X9708426Y2176657D01*
X9726151Y2163389D01*
X9730202Y2161538D01*
X9736680Y2155506D01*
X9838181Y2054005D01*
X9871666Y1992682D01*
X9874500Y1966324D01*
X9874500Y1330322D01*
X9889032Y1257265D01*
X9889033Y1257261D01*
X9889034Y1257260D01*
X9944399Y1174399D01*
X10012767Y1128718D01*
X10027260Y1119034D01*
X10027264Y1119033D01*
X10100321Y1104501D01*
X10100324Y1104500D01*
X10100326Y1104500D01*
X10749675Y1104500D01*
X10768345Y1108214D01*
X10816430Y1117779D01*
X10872710Y1115938D01*
X10975108Y1088500D01*
X10975110Y1088500D01*
X16375890Y1088500D01*
X16375892Y1088500D01*
X16503186Y1122608D01*
X16617314Y1188500D01*
X16809419Y1380607D01*
X16824962Y1389127D01*
X16837319Y1401563D01*
X16864870Y1411002D01*
X16870348Y1414004D01*
X16873989Y1414809D01*
X16957175Y1427983D01*
X16975202Y1437169D01*
X16990650Y1440581D01*
X17002009Y1439806D01*
X17017399Y1443500D01*
X17610948Y1443500D01*
X17667242Y1429985D01*
X17709698Y1408353D01*
X17803475Y1393501D01*
X17803481Y1393500D01*
X18826513Y1393501D01*
X18893552Y1373817D01*
X18914194Y1357182D01*
X19395690Y875686D01*
X19488876Y782500D01*
X19580207Y729770D01*
X19593879Y721876D01*
X19603004Y716608D01*
X19730298Y682500D01*
X19730300Y682500D01*
X26306098Y682500D01*
X26306100Y682500D01*
X26433394Y716608D01*
X26547522Y782500D01*
X27028203Y1263181D01*
X27055130Y1277885D01*
X27080949Y1294477D01*
X27087149Y1295369D01*
X27089526Y1296666D01*
X27115884Y1299500D01*
X27185802Y1299500D01*
X27252841Y1279815D01*
X27298596Y1227011D01*
X27308540Y1157853D01*
X27307419Y1151309D01*
X27298500Y1106471D01*
X27298500Y424500D01*
X27278815Y357461D01*
X27226011Y311706D01*
X27174500Y300500D01*
X2004428Y300500D01*
X1995582Y300816D01*
X1766982Y317166D01*
X1749470Y319684D01*
X1529862Y367457D01*
X1512887Y372441D01*
X1489491Y381167D01*
X1302311Y450981D01*
X1286217Y458331D01*
X1088963Y566041D01*
X1074080Y575606D01*
X894163Y710290D01*
X880792Y721876D01*
X721875Y880793D01*
X710289Y894164D01*
X575605Y1074081D01*
X566040Y1088964D01*
X556483Y1106466D01*
X458327Y1286223D01*
X450983Y1302306D01*
X372437Y1512897D01*
X367458Y1529856D01*
X319683Y1749471D01*
X317165Y1766983D01*
X317151Y1767172D01*
X300816Y1995582D01*
X300500Y2004428D01*
X300500Y2106287D01*
X649500Y2106287D01*
X649500Y1893714D01*
X682753Y1683761D01*
X682753Y1683759D01*
X682754Y1683757D01*
X743054Y1498173D01*
X748444Y1481586D01*
X844951Y1292180D01*
X969890Y1120214D01*
X1120213Y969891D01*
X1292179Y844952D01*
X1292181Y844951D01*
X1292184Y844949D01*
X1481588Y748443D01*
X1683757Y682754D01*
X1893713Y649500D01*
X1893714Y649500D01*
X2106286Y649500D01*
X2106287Y649500D01*
X2316243Y682754D01*
X2518412Y748443D01*
X2707816Y844949D01*
X2750122Y875686D01*
X2879786Y969891D01*
X2879788Y969894D01*
X2879792Y969896D01*
X3030104Y1120208D01*
X3030106Y1120212D01*
X3030109Y1120214D01*
X3155048Y1292180D01*
X3155047Y1292180D01*
X3155051Y1292184D01*
X3197248Y1375000D01*
X6119378Y1375000D01*
X6151065Y1284443D01*
X6151066Y1284441D01*
X6228934Y1178935D01*
X6334438Y1101069D01*
X6458219Y1057756D01*
X6474999Y1056183D01*
X6975000Y1056183D01*
X6991780Y1057756D01*
X7115561Y1101069D01*
X7221065Y1178935D01*
X7298933Y1284441D01*
X7298934Y1284443D01*
X7307952Y1310215D01*
X7925001Y1310215D01*
X7925002Y1310192D01*
X7927908Y1285131D01*
X7927909Y1285127D01*
X7973211Y1182526D01*
X7973214Y1182521D01*
X8052520Y1103215D01*
X8052525Y1103212D01*
X8155123Y1057911D01*
X8180206Y1055001D01*
X8474999Y1055001D01*
X8975000Y1055001D01*
X9269786Y1055001D01*
X9269808Y1055003D01*
X9294869Y1057909D01*
X9294873Y1057910D01*
X9397474Y1103212D01*
X9397479Y1103215D01*
X9476785Y1182521D01*
X9476788Y1182526D01*
X9522089Y1285123D01*
X9522089Y1285125D01*
X9524999Y1310206D01*
X9525000Y1310209D01*
X9525000Y1455000D01*
X8975000Y1455000D01*
X8975000Y1055001D01*
X8474999Y1055001D01*
X8475000Y1055002D01*
X8475000Y1455000D01*
X7925001Y1455000D01*
X7925001Y1310215D01*
X7307952Y1310215D01*
X7330621Y1375000D01*
X6975000Y1375000D01*
X6975000Y1056183D01*
X6474999Y1056183D01*
X6475000Y1056184D01*
X6475000Y1375000D01*
X6119378Y1375000D01*
X3197248Y1375000D01*
X3251557Y1481588D01*
X3317246Y1683757D01*
X3350500Y1893713D01*
X3350500Y2106287D01*
X3317246Y2316243D01*
X3251557Y2518412D01*
X3155051Y2707816D01*
X3155049Y2707819D01*
X3155048Y2707821D01*
X3030109Y2879787D01*
X2879786Y3030110D01*
X2707820Y3155049D01*
X2518414Y3251556D01*
X2518413Y3251557D01*
X2518412Y3251557D01*
X2498367Y3258070D01*
X2440694Y3297506D01*
X2413495Y3361865D01*
X2425410Y3430711D01*
X2472654Y3482187D01*
X2536687Y3500000D01*
X2843054Y3500000D01*
X2931446Y3510615D01*
X3034998Y3551450D01*
X2050000Y4536448D01*
X1065001Y3551451D01*
X1065001Y3551450D01*
X1168555Y3510615D01*
X1256946Y3500000D01*
X1463313Y3500000D01*
X1530352Y3480315D01*
X1576107Y3427511D01*
X1586051Y3358353D01*
X1557026Y3294797D01*
X1501632Y3258070D01*
X1481588Y3251557D01*
X1481585Y3251556D01*
X1292179Y3155049D01*
X1120213Y3030110D01*
X969890Y2879787D01*
X844951Y2707821D01*
X748444Y2518415D01*
X748443Y2518413D01*
X748443Y2518412D01*
X731776Y2467117D01*
X682753Y2316240D01*
X649500Y2106287D01*
X300500Y2106287D01*
X300500Y5773061D01*
X750000Y5773061D01*
X750000Y4006940D01*
X756795Y3950350D01*
X756796Y3950349D01*
X1696448Y4890000D01*
X1696448Y4890001D01*
X2403552Y4890001D01*
X2403552Y4890000D01*
X3343203Y3950349D01*
X3350000Y4006940D01*
X3350000Y5773062D01*
X3343203Y5829653D01*
X2403552Y4890001D01*
X1696448Y4890001D01*
X756796Y5829653D01*
X756795Y5829652D01*
X750000Y5773061D01*
X300500Y5773061D01*
X300500Y6228552D01*
X1065000Y6228552D01*
X2050000Y5243552D01*
X2050001Y5243552D01*
X3034998Y6228551D01*
X2931443Y6269387D01*
X2843054Y6280000D01*
X1256946Y6280000D01*
X1168555Y6269386D01*
X1168554Y6269386D01*
X1065000Y6228552D01*
X300500Y6228552D01*
X300500Y13771451D01*
X1065001Y13771451D01*
X1065001Y13771450D01*
X1168555Y13730615D01*
X1256946Y13720000D01*
X2843054Y13720000D01*
X2931446Y13730615D01*
X3034998Y13771450D01*
X2050000Y14756448D01*
X1065001Y13771451D01*
X300500Y13771451D01*
X300500Y15993061D01*
X750000Y15993061D01*
X750000Y14226940D01*
X756795Y14170350D01*
X756796Y14170349D01*
X1696448Y15110000D01*
X1696448Y15110001D01*
X2403552Y15110001D01*
X2403552Y15110000D01*
X3343203Y14170349D01*
X3350000Y14226940D01*
X3350000Y15993061D01*
X4680000Y15993061D01*
X4680000Y14226940D01*
X4686795Y14170350D01*
X4686796Y14170349D01*
X5626448Y15110000D01*
X5626448Y15110001D01*
X4686796Y16049653D01*
X4686795Y16049652D01*
X4680000Y15993061D01*
X3350000Y15993061D01*
X3350000Y15993062D01*
X3343203Y16049653D01*
X2403552Y15110001D01*
X1696448Y15110001D01*
X756796Y16049653D01*
X756795Y16049652D01*
X750000Y15993061D01*
X300500Y15993061D01*
X300500Y17995573D01*
X300816Y18004419D01*
X308102Y18106287D01*
X649500Y18106287D01*
X649500Y17893714D01*
X682753Y17683761D01*
X682753Y17683759D01*
X682754Y17683757D01*
X747394Y17484815D01*
X748444Y17481586D01*
X844951Y17292180D01*
X969890Y17120214D01*
X1120213Y16969891D01*
X1292179Y16844952D01*
X1292181Y16844951D01*
X1292184Y16844949D01*
X1481588Y16748443D01*
X1501632Y16741931D01*
X1559306Y16702494D01*
X1586505Y16638135D01*
X1574590Y16569289D01*
X1527346Y16517813D01*
X1463313Y16500000D01*
X1256946Y16500000D01*
X1168555Y16489386D01*
X1168554Y16489386D01*
X1065000Y16448552D01*
X2050000Y15463552D01*
X2050001Y15463552D01*
X3034998Y16448551D01*
X2931443Y16489387D01*
X2843054Y16500000D01*
X2536687Y16500000D01*
X2469648Y16519685D01*
X2423893Y16572489D01*
X2413949Y16641647D01*
X2442974Y16705203D01*
X2498367Y16741931D01*
X2518412Y16748443D01*
X2707816Y16844949D01*
X2773829Y16892910D01*
X2879786Y16969891D01*
X2879788Y16969894D01*
X2879792Y16969896D01*
X3030104Y17120208D01*
X3030106Y17120212D01*
X3030109Y17120214D01*
X3155048Y17292180D01*
X3155047Y17292180D01*
X3155051Y17292184D01*
X3212534Y17405000D01*
X4056182Y17405000D01*
X4057755Y17388215D01*
X4057755Y17388213D01*
X4101065Y17264443D01*
X4101066Y17264441D01*
X4178934Y17158935D01*
X4284443Y17081066D01*
X4284442Y17081066D01*
X4374999Y17049380D01*
X4375000Y17049380D01*
X4375000Y17405000D01*
X4056182Y17405000D01*
X3212534Y17405000D01*
X3251557Y17481588D01*
X3317246Y17683757D01*
X3350500Y17893713D01*
X3350500Y17905001D01*
X4056181Y17905001D01*
X4056182Y17905000D01*
X4375000Y17905000D01*
X4375000Y18260622D01*
X4374999Y18260622D01*
X4284442Y18228935D01*
X4284440Y18228934D01*
X4178934Y18151066D01*
X4101066Y18045560D01*
X4101065Y18045558D01*
X4057755Y17921788D01*
X4057755Y17921786D01*
X4056181Y17905001D01*
X3350500Y17905001D01*
X3350500Y18106287D01*
X3317246Y18316243D01*
X3251557Y18518412D01*
X3155051Y18707816D01*
X3155049Y18707819D01*
X3155048Y18707821D01*
X3030109Y18879787D01*
X2879786Y19030110D01*
X2707820Y19155049D01*
X2518414Y19251556D01*
X2518413Y19251557D01*
X2518412Y19251557D01*
X2316243Y19317246D01*
X2316241Y19317247D01*
X2316240Y19317247D01*
X2154957Y19342792D01*
X2106287Y19350500D01*
X1893713Y19350500D01*
X1845042Y19342792D01*
X1683760Y19317247D01*
X1481585Y19251556D01*
X1292179Y19155049D01*
X1120213Y19030110D01*
X969890Y18879787D01*
X844951Y18707821D01*
X748444Y18518415D01*
X682753Y18316240D01*
X649500Y18106287D01*
X308102Y18106287D01*
X309083Y18120005D01*
X309083Y18120006D01*
X316090Y18217984D01*
X317165Y18233021D01*
X319683Y18250530D01*
X320764Y18255500D01*
X367459Y18470149D01*
X372436Y18487100D01*
X450985Y18697701D01*
X458325Y18713773D01*
X566044Y18911044D01*
X575600Y18925914D01*
X710294Y19105844D01*
X721868Y19119201D01*
X880799Y19278132D01*
X894156Y19289706D01*
X1074086Y19424400D01*
X1088956Y19433956D01*
X1286227Y19541675D01*
X1302299Y19549015D01*
X1512900Y19627564D01*
X1529851Y19632541D01*
X1749472Y19680318D01*
X1766977Y19682835D01*
X1995582Y19699184D01*
X2004428Y19699500D01*
X2047595Y19699500D01*
X21947747Y19699500D01*
X22014786Y19679815D01*
G37*
%TD.AperFunction*%
%TA.AperFunction,Conductor*%
G36*
X27241539Y19679815D02*
G01*
X27287294Y19627011D01*
X27298500Y19575500D01*
X27298500Y18880322D01*
X27313032Y18807265D01*
X27313033Y18807261D01*
X27313034Y18807260D01*
X27368399Y18724399D01*
X27451260Y18669034D01*
X27451264Y18669033D01*
X27524321Y18654501D01*
X27524324Y18654500D01*
X27524326Y18654500D01*
X28573676Y18654500D01*
X28573677Y18654501D01*
X28646740Y18669034D01*
X28729601Y18724399D01*
X28784966Y18807260D01*
X28799500Y18880326D01*
X28799500Y19575500D01*
X28819185Y19642539D01*
X28871989Y19688294D01*
X28923500Y19699500D01*
X34474500Y19699500D01*
X34541539Y19679815D01*
X34587294Y19627011D01*
X34598500Y19575500D01*
X34598500Y18880322D01*
X34613032Y18807265D01*
X34613033Y18807261D01*
X34613034Y18807260D01*
X34668399Y18724399D01*
X34751260Y18669034D01*
X34751264Y18669033D01*
X34824321Y18654501D01*
X34824324Y18654500D01*
X34824326Y18654500D01*
X35873676Y18654500D01*
X35873677Y18654501D01*
X35946740Y18669034D01*
X36029601Y18724399D01*
X36084966Y18807260D01*
X36099500Y18880326D01*
X36099500Y18914679D01*
X37023500Y18914679D01*
X37023500Y17165322D01*
X37038032Y17092265D01*
X37038033Y17092261D01*
X37038034Y17092260D01*
X37093399Y17009399D01*
X37152528Y16969891D01*
X37176260Y16954034D01*
X37176264Y16954033D01*
X37249321Y16939501D01*
X37249324Y16939500D01*
X37249326Y16939500D01*
X38448676Y16939500D01*
X38448677Y16939501D01*
X38521740Y16954034D01*
X38604601Y17009399D01*
X38659966Y17092260D01*
X38670500Y17145215D01*
X41324001Y17145215D01*
X41324002Y17145192D01*
X41326908Y17120131D01*
X41326909Y17120127D01*
X41372211Y17017526D01*
X41372214Y17017521D01*
X41451520Y16938215D01*
X41451525Y16938212D01*
X41554123Y16892911D01*
X41579206Y16890001D01*
X41948999Y16890001D01*
X42449000Y16890001D01*
X42818786Y16890001D01*
X42818808Y16890003D01*
X42843869Y16892909D01*
X42843873Y16892910D01*
X42946474Y16938212D01*
X42946479Y16938215D01*
X43025785Y17017521D01*
X43025788Y17017526D01*
X43071089Y17120123D01*
X43071089Y17120125D01*
X43073999Y17145206D01*
X43074000Y17145209D01*
X43074000Y17790000D01*
X42449000Y17790000D01*
X42449000Y16890001D01*
X41948999Y16890001D01*
X41949000Y16890002D01*
X41949000Y17790000D01*
X41324001Y17790000D01*
X41324001Y17145215D01*
X38670500Y17145215D01*
X38674500Y17165326D01*
X38674500Y18914674D01*
X38674500Y18914677D01*
X38670498Y18934795D01*
X41324000Y18934795D01*
X41324000Y18290000D01*
X41949000Y18290000D01*
X41949000Y19190000D01*
X41579214Y19190000D01*
X41579191Y19189998D01*
X41554130Y19187092D01*
X41554126Y19187091D01*
X41451525Y19141789D01*
X41451520Y19141786D01*
X41372214Y19062480D01*
X41372211Y19062475D01*
X41326910Y18959878D01*
X41326910Y18959876D01*
X41324000Y18934795D01*
X38670498Y18934795D01*
X38659967Y18987736D01*
X38659966Y18987740D01*
X38652888Y18998333D01*
X38604601Y19070601D01*
X38537405Y19115499D01*
X38521739Y19125967D01*
X38521735Y19125968D01*
X38448677Y19140500D01*
X38448674Y19140500D01*
X37249326Y19140500D01*
X37249323Y19140500D01*
X37176264Y19125968D01*
X37176260Y19125967D01*
X37093399Y19070601D01*
X37038033Y18987740D01*
X37038032Y18987736D01*
X37023500Y18914679D01*
X36099500Y18914679D01*
X36099500Y19575500D01*
X36119185Y19642539D01*
X36171989Y19688294D01*
X36223500Y19699500D01*
X41952405Y19699500D01*
X41995572Y19699500D01*
X42004418Y19699184D01*
X42233020Y19682835D01*
X42250529Y19680317D01*
X42470144Y19632542D01*
X42487103Y19627563D01*
X42697694Y19549017D01*
X42713777Y19541673D01*
X42905939Y19436743D01*
X42911036Y19433960D01*
X42925913Y19424400D01*
X42950335Y19406117D01*
X42992206Y19350184D01*
X42997190Y19280492D01*
X42963705Y19219169D01*
X42902382Y19185685D01*
X42853246Y19186949D01*
X42853138Y19186015D01*
X42818794Y19190000D01*
X42449000Y19190000D01*
X42449000Y18290000D01*
X43073999Y18290000D01*
X43073999Y18934786D01*
X43073997Y18934809D01*
X43071091Y18959870D01*
X43071090Y18959873D01*
X43049359Y19009091D01*
X43047710Y19021679D01*
X43041628Y19032818D01*
X43043261Y19055660D01*
X43040288Y19078369D01*
X43045706Y19089849D01*
X43046612Y19102510D01*
X43060336Y19120843D01*
X43070112Y19141554D01*
X43080877Y19148283D01*
X43088484Y19158443D01*
X43109940Y19166446D01*
X43129362Y19178584D01*
X43142054Y19178424D01*
X43153948Y19182860D01*
X43176326Y19177992D01*
X43199226Y19177703D01*
X43211435Y19170355D01*
X43222221Y19168008D01*
X43250475Y19146857D01*
X43278124Y19119208D01*
X43289710Y19105837D01*
X43424394Y18925920D01*
X43433959Y18911037D01*
X43541669Y18713783D01*
X43549019Y18697689D01*
X43627559Y18487113D01*
X43632543Y18470138D01*
X43680316Y18250530D01*
X43682834Y18233018D01*
X43699184Y18004419D01*
X43699500Y17995573D01*
X43699500Y14759273D01*
X43679815Y14692234D01*
X43627011Y14646479D01*
X43557853Y14636535D01*
X43532176Y14643088D01*
X43529489Y14644090D01*
X43529483Y14644092D01*
X43469883Y14650499D01*
X43469881Y14650500D01*
X43469873Y14650500D01*
X43469864Y14650500D01*
X42074129Y14650500D01*
X42074123Y14650499D01*
X42014516Y14644092D01*
X41879671Y14593798D01*
X41879664Y14593794D01*
X41764455Y14507548D01*
X41764452Y14507545D01*
X41678206Y14392336D01*
X41678202Y14392329D01*
X41627908Y14257483D01*
X41621501Y14197884D01*
X41621500Y14197865D01*
X41621500Y13402130D01*
X41621501Y13402124D01*
X41627908Y13342517D01*
X41678202Y13207672D01*
X41678206Y13207665D01*
X41764452Y13092456D01*
X41764455Y13092453D01*
X41879664Y13006207D01*
X41879671Y13006203D01*
X42014517Y12955909D01*
X42014516Y12955909D01*
X42021444Y12955165D01*
X42074127Y12949500D01*
X43469872Y12949501D01*
X43529483Y12955909D01*
X43532165Y12956909D01*
X43534391Y12957069D01*
X43537031Y12957692D01*
X43537132Y12957265D01*
X43601857Y12961894D01*
X43663180Y12928410D01*
X43696666Y12867087D01*
X43699500Y12840728D01*
X43699500Y7159273D01*
X43679815Y7092234D01*
X43627011Y7046479D01*
X43557853Y7036535D01*
X43532176Y7043088D01*
X43529489Y7044090D01*
X43529483Y7044092D01*
X43469883Y7050499D01*
X43469881Y7050500D01*
X43469873Y7050500D01*
X43469864Y7050500D01*
X42074129Y7050500D01*
X42074123Y7050499D01*
X42014516Y7044092D01*
X41879671Y6993798D01*
X41879664Y6993794D01*
X41764455Y6907548D01*
X41764452Y6907545D01*
X41678206Y6792336D01*
X41678202Y6792329D01*
X41627908Y6657483D01*
X41621501Y6597884D01*
X41621500Y6597865D01*
X41621500Y5802130D01*
X41621501Y5802124D01*
X41627908Y5742517D01*
X41678202Y5607672D01*
X41678206Y5607665D01*
X41764452Y5492456D01*
X41764455Y5492453D01*
X41879664Y5406207D01*
X41879671Y5406203D01*
X42014517Y5355909D01*
X42014516Y5355909D01*
X42021444Y5355165D01*
X42074127Y5349500D01*
X43469872Y5349501D01*
X43529483Y5355909D01*
X43532165Y5356909D01*
X43534391Y5357069D01*
X43537031Y5357692D01*
X43537132Y5357265D01*
X43601857Y5361894D01*
X43663180Y5328410D01*
X43696666Y5267087D01*
X43699500Y5240728D01*
X43699500Y2004428D01*
X43699184Y1995582D01*
X43682834Y1766983D01*
X43680316Y1749471D01*
X43632543Y1529863D01*
X43627559Y1512888D01*
X43549019Y1302312D01*
X43541669Y1286218D01*
X43433959Y1088964D01*
X43424394Y1074081D01*
X43289710Y894164D01*
X43278124Y880793D01*
X43250476Y853145D01*
X43189153Y819660D01*
X43119461Y824644D01*
X43063528Y866516D01*
X43039111Y931980D01*
X43049361Y990912D01*
X43071088Y1040121D01*
X43071089Y1040125D01*
X43073999Y1065206D01*
X43074000Y1065209D01*
X43074000Y1710000D01*
X42449000Y1710000D01*
X42449000Y810001D01*
X42818786Y810001D01*
X42818808Y810003D01*
X42853141Y813984D01*
X42853301Y812604D01*
X42855708Y812556D01*
X42867181Y816834D01*
X42889986Y811873D01*
X42913321Y811408D01*
X42923488Y804585D01*
X42935454Y801981D01*
X42951957Y785478D01*
X42971336Y772471D01*
X42976200Y761234D01*
X42984858Y752575D01*
X42989818Y729770D01*
X42999090Y708350D01*
X42997106Y696267D01*
X42999709Y684302D01*
X42991552Y662436D01*
X42987772Y639403D01*
X42978969Y628701D01*
X42975291Y618838D01*
X42950334Y593882D01*
X42925918Y575605D01*
X42911036Y566041D01*
X42713782Y458331D01*
X42697688Y450981D01*
X42487112Y372441D01*
X42470137Y367457D01*
X42250529Y319684D01*
X42233017Y317166D01*
X42004418Y300816D01*
X41995572Y300500D01*
X36223500Y300500D01*
X36156461Y320185D01*
X36110706Y372989D01*
X36099500Y424500D01*
X36099500Y1106469D01*
X36099499Y1106471D01*
X36084967Y1179528D01*
X36084966Y1179532D01*
X36082969Y1182521D01*
X36029601Y1262393D01*
X35974235Y1299387D01*
X35946739Y1317759D01*
X35946735Y1317760D01*
X35873677Y1332292D01*
X35873674Y1332292D01*
X34924500Y1332292D01*
X34857461Y1351977D01*
X34811706Y1404781D01*
X34800500Y1456292D01*
X34800500Y2117292D01*
X34820185Y2184331D01*
X34872989Y2230086D01*
X34924500Y2241292D01*
X35873676Y2241292D01*
X35873677Y2241293D01*
X35946740Y2255826D01*
X36029601Y2311191D01*
X36084966Y2394052D01*
X36099500Y2467118D01*
X36099500Y3316466D01*
X36099500Y3316469D01*
X36099499Y3316471D01*
X36084967Y3389528D01*
X36084966Y3389532D01*
X36029601Y3472393D01*
X35970113Y3512141D01*
X35946739Y3527759D01*
X35946735Y3527760D01*
X35873677Y3542292D01*
X35873674Y3542292D01*
X34824326Y3542292D01*
X34824321Y3542292D01*
X34749194Y3527348D01*
X34741287Y3528056D01*
X34733849Y3525281D01*
X34706985Y3531125D01*
X34679603Y3533575D01*
X34671593Y3538824D01*
X34665576Y3540133D01*
X34637322Y3561284D01*
X34585819Y3612787D01*
X34552334Y3674110D01*
X34549500Y3700468D01*
X34549500Y4316469D01*
X34549499Y4316471D01*
X34534967Y4389528D01*
X34534966Y4389532D01*
X34531647Y4394499D01*
X34479601Y4472393D01*
X34410596Y4518500D01*
X34396739Y4527759D01*
X34396735Y4527760D01*
X34323677Y4542292D01*
X34323674Y4542292D01*
X33574326Y4542292D01*
X33574323Y4542292D01*
X33501264Y4527760D01*
X33501260Y4527759D01*
X33418399Y4472393D01*
X33363033Y4389532D01*
X33363032Y4389528D01*
X33348500Y4316471D01*
X33348500Y2767114D01*
X33363032Y2694057D01*
X33363034Y2694052D01*
X33375642Y2675183D01*
X33378679Y2665483D01*
X33385334Y2657803D01*
X33388942Y2632706D01*
X33396520Y2608506D01*
X33393831Y2598706D01*
X33395278Y2588645D01*
X33384744Y2565580D01*
X33378036Y2541125D01*
X33370474Y2534333D01*
X33366253Y2525089D01*
X33344922Y2511381D01*
X33326057Y2494435D01*
X33314459Y2491804D01*
X33307475Y2487315D01*
X33272540Y2482292D01*
X33125460Y2482292D01*
X33058421Y2501977D01*
X33012666Y2554781D01*
X33002722Y2623939D01*
X33022358Y2675183D01*
X33034966Y2694052D01*
X33049500Y2767118D01*
X33049500Y4316466D01*
X33049500Y4316469D01*
X33049499Y4316471D01*
X33034967Y4389528D01*
X33034966Y4389532D01*
X33031647Y4394499D01*
X32979601Y4472393D01*
X32910596Y4518500D01*
X32896739Y4527759D01*
X32896735Y4527760D01*
X32823677Y4542292D01*
X32823674Y4542292D01*
X32207676Y4542292D01*
X32140637Y4561977D01*
X32119995Y4578611D01*
X30660787Y6037819D01*
X30627302Y6099142D01*
X30632286Y6168834D01*
X30674158Y6224767D01*
X30739622Y6249184D01*
X30748468Y6249500D01*
X31025685Y6249500D01*
X31025693Y6249500D01*
X31062568Y6252402D01*
X31062570Y6252403D01*
X31062572Y6252403D01*
X31104190Y6264495D01*
X31220397Y6298256D01*
X31361864Y6381919D01*
X31478080Y6498135D01*
X31561743Y6639602D01*
X31607597Y6797431D01*
X31610499Y6834306D01*
X31610499Y7250000D01*
X37830237Y7250000D01*
X37869652Y7137355D01*
X37950206Y7028208D01*
X38059353Y6947654D01*
X38187396Y6902851D01*
X38217791Y6900001D01*
X38646998Y6900001D01*
X38646999Y6900002D01*
X38646999Y7250000D01*
X37830237Y7250000D01*
X31610499Y7250000D01*
X31610499Y7365694D01*
X31607597Y7402569D01*
X31606218Y7407315D01*
X31561744Y7560394D01*
X31561743Y7560397D01*
X31561743Y7560398D01*
X31478080Y7701865D01*
X31478078Y7701867D01*
X31478075Y7701871D01*
X31396818Y7783128D01*
X31363333Y7844451D01*
X31360499Y7870809D01*
X31360499Y8605891D01*
X31360499Y8605893D01*
X31326391Y8733187D01*
X31260499Y8847315D01*
X31167313Y8940501D01*
X30107314Y10000500D01*
X30025061Y10047989D01*
X29993187Y10066392D01*
X29907105Y10089457D01*
X29865892Y10100500D01*
X29865891Y10100500D01*
X29024500Y10100500D01*
X28957461Y10120185D01*
X28911706Y10172989D01*
X28900500Y10224500D01*
X28900500Y12254235D01*
X28920185Y12321274D01*
X28972989Y12367029D01*
X29042147Y12376973D01*
X29098135Y12354004D01*
X29164442Y12305066D01*
X29254999Y12273380D01*
X29255000Y12273380D01*
X29255000Y13484622D01*
X29755000Y13484622D01*
X29755000Y12273380D01*
X29845557Y12305066D01*
X29951064Y12382935D01*
X29952474Y12384844D01*
X29954555Y12386425D01*
X29957636Y12389505D01*
X29958057Y12389084D01*
X30008120Y12427096D01*
X30077776Y12432556D01*
X30139327Y12399491D01*
X30139927Y12398894D01*
X30162897Y12375924D01*
X30162900Y12375922D01*
X30265628Y12325702D01*
X30278482Y12319418D01*
X30353418Y12308500D01*
X30353423Y12308500D01*
X30696577Y12308500D01*
X30696582Y12308500D01*
X30771518Y12319418D01*
X30829310Y12347671D01*
X30887099Y12375922D01*
X30887102Y12375924D01*
X30953360Y12442181D01*
X31014683Y12475666D01*
X31041041Y12478500D01*
X31568171Y12478500D01*
X31635210Y12458815D01*
X31680965Y12406011D01*
X31684347Y12397849D01*
X31692664Y12375550D01*
X31773528Y12267528D01*
X31865739Y12198500D01*
X31881549Y12186665D01*
X31881552Y12186663D01*
X32007975Y12139510D01*
X32007978Y12139509D01*
X32037318Y12136355D01*
X32063855Y12133501D01*
X32063870Y12133500D01*
X32591130Y12133500D01*
X32591144Y12133501D01*
X32613023Y12135854D01*
X32647022Y12139509D01*
X32773450Y12186664D01*
X32881472Y12267528D01*
X32962336Y12375550D01*
X32986100Y12439264D01*
X32998818Y12473362D01*
X33040689Y12529296D01*
X33106153Y12553713D01*
X33174426Y12538861D01*
X33223832Y12489456D01*
X33231182Y12473362D01*
X33267662Y12375553D01*
X33267664Y12375550D01*
X33348528Y12267528D01*
X33440739Y12198500D01*
X33456549Y12186665D01*
X33456552Y12186663D01*
X33582975Y12139510D01*
X33582978Y12139509D01*
X33612318Y12136355D01*
X33638855Y12133501D01*
X33638870Y12133500D01*
X33707324Y12133500D01*
X33774363Y12113815D01*
X33795005Y12097181D01*
X37699500Y8192686D01*
X37792686Y8099500D01*
X37849066Y8066949D01*
X37897282Y8016382D01*
X37910505Y7947775D01*
X37886836Y7885929D01*
X37869654Y7862649D01*
X37869652Y7862646D01*
X37830237Y7750000D01*
X38772999Y7750000D01*
X38840038Y7730315D01*
X38885793Y7677511D01*
X38896999Y7626000D01*
X38896999Y7500000D01*
X39022999Y7500000D01*
X39090038Y7480315D01*
X39135793Y7427511D01*
X39146999Y7376000D01*
X39146999Y6900001D01*
X39576195Y6900001D01*
X39606605Y6902852D01*
X39734644Y6947654D01*
X39843790Y7028208D01*
X39875729Y7071483D01*
X39931377Y7113734D01*
X40001033Y7119193D01*
X40062583Y7086126D01*
X40096484Y7025032D01*
X40099500Y6997850D01*
X40099500Y4828255D01*
X40079815Y4761216D01*
X40063181Y4740574D01*
X38419426Y3096819D01*
X38358103Y3063334D01*
X38331745Y3060500D01*
X37249323Y3060500D01*
X37176264Y3045968D01*
X37176260Y3045967D01*
X37093399Y2990601D01*
X37038033Y2907740D01*
X37038032Y2907736D01*
X37023500Y2834679D01*
X37023500Y1085322D01*
X37038032Y1012265D01*
X37038033Y1012261D01*
X37038034Y1012260D01*
X37093399Y929399D01*
X37146133Y894164D01*
X37176260Y874034D01*
X37176264Y874033D01*
X37249321Y859501D01*
X37249324Y859500D01*
X37249326Y859500D01*
X38448676Y859500D01*
X38448677Y859501D01*
X38521740Y874034D01*
X38604601Y929399D01*
X38659966Y1012260D01*
X38670500Y1065215D01*
X41324001Y1065215D01*
X41324002Y1065192D01*
X41326908Y1040131D01*
X41326909Y1040127D01*
X41372211Y937526D01*
X41372214Y937521D01*
X41451520Y858215D01*
X41451525Y858212D01*
X41554123Y812911D01*
X41579206Y810001D01*
X41948999Y810001D01*
X41949000Y810002D01*
X41949000Y1710000D01*
X41324001Y1710000D01*
X41324001Y1065215D01*
X38670500Y1065215D01*
X38674500Y1085326D01*
X38674500Y2167745D01*
X38694185Y2234784D01*
X38710819Y2255426D01*
X39310188Y2854795D01*
X41324000Y2854795D01*
X41324000Y2210000D01*
X41949000Y2210000D01*
X42449000Y2210000D01*
X43073999Y2210000D01*
X43073999Y2854786D01*
X43073997Y2854809D01*
X43071091Y2879870D01*
X43071090Y2879874D01*
X43025788Y2982475D01*
X43025785Y2982480D01*
X42946479Y3061786D01*
X42946474Y3061789D01*
X42843876Y3107090D01*
X42818794Y3110000D01*
X42449000Y3110000D01*
X42449000Y2210000D01*
X41949000Y2210000D01*
X41949000Y3110000D01*
X41579214Y3110000D01*
X41579191Y3109998D01*
X41554130Y3107092D01*
X41554126Y3107091D01*
X41451525Y3061789D01*
X41451520Y3061786D01*
X41372214Y2982480D01*
X41372211Y2982475D01*
X41326910Y2879878D01*
X41326910Y2879876D01*
X41324000Y2854795D01*
X39310188Y2854795D01*
X39401449Y2946056D01*
X40108120Y3652727D01*
X40820480Y4365087D01*
X40873207Y4456412D01*
X40900500Y4558273D01*
X40900500Y4663727D01*
X40900500Y10724726D01*
X40892695Y10753856D01*
X40873207Y10826587D01*
X40820480Y10917912D01*
X39917912Y11820480D01*
X39917909Y11820482D01*
X39917905Y11820485D01*
X39902561Y11829344D01*
X39867880Y11859088D01*
X39859878Y11869053D01*
X39850050Y11888342D01*
X39821302Y11917090D01*
X39817070Y11922360D01*
X39806226Y11948666D01*
X39792587Y11973645D01*
X39793081Y11980554D01*
X39790442Y11986956D01*
X39795542Y12014952D01*
X39797573Y12043336D01*
X39801955Y12050156D01*
X39802965Y12055695D01*
X39811138Y12064444D01*
X39826072Y12087682D01*
X39850049Y12111658D01*
X39907645Y12224696D01*
X39907645Y12224698D01*
X39907646Y12224699D01*
X39922122Y12316102D01*
X39922499Y12318481D01*
X39922498Y12681518D01*
X39907645Y12775304D01*
X39850049Y12888342D01*
X39850045Y12888346D01*
X39850044Y12888348D01*
X39760346Y12978046D01*
X39760343Y12978048D01*
X39760341Y12978050D01*
X39672144Y13022989D01*
X39647300Y13035648D01*
X39553523Y13050500D01*
X38240481Y13050500D01*
X38146694Y13035646D01*
X38048298Y12985511D01*
X37979629Y12972615D01*
X37967073Y12974911D01*
X37962603Y12975500D01*
X37962601Y12975500D01*
X37837399Y12975500D01*
X37768615Y12957069D01*
X37716463Y12943095D01*
X37608037Y12880496D01*
X37608034Y12880494D01*
X37519506Y12791966D01*
X37519504Y12791963D01*
X37456905Y12683537D01*
X37456904Y12683535D01*
X37448308Y12651454D01*
X37411942Y12591795D01*
X37349094Y12561267D01*
X37279719Y12569564D01*
X37225842Y12614051D01*
X37221156Y12621536D01*
X37180495Y12691964D01*
X37091964Y12780495D01*
X36983536Y12843095D01*
X36983537Y12843095D01*
X36942809Y12854008D01*
X36862601Y12875500D01*
X36737399Y12875500D01*
X36657191Y12854008D01*
X36616463Y12843095D01*
X36508037Y12780496D01*
X36508034Y12780494D01*
X36419506Y12691966D01*
X36419504Y12691963D01*
X36356905Y12583537D01*
X36350431Y12559375D01*
X36325652Y12466898D01*
X36324500Y12462600D01*
X36324500Y12337397D01*
X36326055Y12331595D01*
X36324393Y12261745D01*
X36285232Y12203882D01*
X36221003Y12176377D01*
X36206281Y12175500D01*
X36137399Y12175500D01*
X36056775Y12153897D01*
X36016463Y12143095D01*
X35908037Y12080496D01*
X35908034Y12080494D01*
X35819506Y11991966D01*
X35819504Y11991963D01*
X35756905Y11883537D01*
X35756903Y11883532D01*
X35742199Y11828656D01*
X35705834Y11768996D01*
X35642986Y11738468D01*
X35573611Y11746763D01*
X35534744Y11773070D01*
X34626819Y12680995D01*
X34593334Y12742318D01*
X34590500Y12768676D01*
X34590500Y13160130D01*
X34590499Y13160145D01*
X34586598Y13196420D01*
X34584491Y13216022D01*
X34578919Y13230961D01*
X34537337Y13342448D01*
X34537333Y13342455D01*
X34456477Y13450467D01*
X34456473Y13450471D01*
X34456472Y13450472D01*
X34456469Y13450475D01*
X34456466Y13450477D01*
X34452685Y13453308D01*
X34410816Y13509243D01*
X34403000Y13552571D01*
X34403000Y13926080D01*
X35449499Y13926080D01*
X35478340Y13781093D01*
X35478343Y13781083D01*
X35534912Y13644512D01*
X35534919Y13644499D01*
X35617048Y13521585D01*
X35617051Y13521581D01*
X35721580Y13417052D01*
X35721584Y13417049D01*
X35844498Y13334920D01*
X35844511Y13334913D01*
X35970013Y13282929D01*
X35981087Y13278342D01*
X35981091Y13278342D01*
X35981092Y13278341D01*
X36126079Y13249500D01*
X36126082Y13249500D01*
X36273920Y13249500D01*
X36385180Y13271632D01*
X36418913Y13278342D01*
X36545092Y13330607D01*
X36555488Y13334913D01*
X36555488Y13334914D01*
X36555495Y13334916D01*
X36678416Y13417049D01*
X36782951Y13521584D01*
X36865084Y13644505D01*
X36866193Y13647181D01*
X36897142Y13721901D01*
X36921658Y13781087D01*
X36940103Y13873815D01*
X36950500Y13926080D01*
X36950500Y14073921D01*
X36921659Y14218908D01*
X36921658Y14218909D01*
X36921658Y14218913D01*
X36892834Y14288500D01*
X36865087Y14355489D01*
X36865080Y14355502D01*
X36782951Y14478416D01*
X36782948Y14478420D01*
X36678419Y14582949D01*
X36678415Y14582952D01*
X36555501Y14665081D01*
X36555488Y14665088D01*
X36418917Y14721657D01*
X36418907Y14721660D01*
X36273920Y14750500D01*
X36273918Y14750500D01*
X36126082Y14750500D01*
X36126080Y14750500D01*
X35981092Y14721660D01*
X35981082Y14721657D01*
X35844511Y14665088D01*
X35844498Y14665081D01*
X35721584Y14582952D01*
X35721580Y14582949D01*
X35617051Y14478420D01*
X35617048Y14478416D01*
X35534919Y14355502D01*
X35534912Y14355489D01*
X35478343Y14218918D01*
X35478340Y14218908D01*
X35449500Y14073921D01*
X35449500Y14073918D01*
X35449500Y13926082D01*
X35449500Y13926080D01*
X35449499Y13926080D01*
X34403000Y13926080D01*
X34403000Y15396937D01*
X34422685Y15463976D01*
X34458112Y15500041D01*
X34460040Y15501329D01*
X34479601Y15514399D01*
X34534966Y15597260D01*
X34549500Y15670326D01*
X34549500Y16361858D01*
X34569185Y16428897D01*
X34621989Y16474652D01*
X34691147Y16484596D01*
X34742390Y16464960D01*
X34751256Y16459036D01*
X34751258Y16459036D01*
X34751260Y16459034D01*
X34751262Y16459034D01*
X34751264Y16459033D01*
X34824321Y16444501D01*
X34824324Y16444500D01*
X34824326Y16444500D01*
X35873676Y16444500D01*
X35873677Y16444501D01*
X35946740Y16459034D01*
X36029601Y16514399D01*
X36084966Y16597260D01*
X36099500Y16670326D01*
X36099500Y17519674D01*
X36099500Y17519677D01*
X36099499Y17519679D01*
X36084967Y17592736D01*
X36084966Y17592740D01*
X36082883Y17595858D01*
X36029601Y17675601D01*
X35974235Y17712595D01*
X35946739Y17730967D01*
X35946735Y17730968D01*
X35873677Y17745500D01*
X35873674Y17745500D01*
X34824326Y17745500D01*
X34824323Y17745500D01*
X34751264Y17730968D01*
X34751260Y17730967D01*
X34668399Y17675601D01*
X34613033Y17592740D01*
X34613032Y17592736D01*
X34598498Y17519672D01*
X34598121Y17515837D01*
X34597362Y17513959D01*
X34597311Y17513700D01*
X34597261Y17513710D01*
X34571958Y17451050D01*
X34514922Y17410694D01*
X34445121Y17407580D01*
X34405830Y17424893D01*
X34396742Y17430965D01*
X34396735Y17430968D01*
X34323677Y17445500D01*
X34323674Y17445500D01*
X33729519Y17445500D01*
X33662480Y17465185D01*
X33616725Y17517989D01*
X33606781Y17587147D01*
X33635806Y17650703D01*
X33641838Y17657181D01*
X33743111Y17758455D01*
X33743114Y17758458D01*
X33819775Y17873189D01*
X33821181Y17876582D01*
X33831740Y17902076D01*
X33872580Y18000672D01*
X33890476Y18090639D01*
X33899500Y18136005D01*
X33899500Y18273996D01*
X33872581Y18409323D01*
X33872580Y18409324D01*
X33872580Y18409328D01*
X33847392Y18470138D01*
X33819778Y18536805D01*
X33819771Y18536818D01*
X33743114Y18651542D01*
X33743111Y18651546D01*
X33645545Y18749112D01*
X33645541Y18749115D01*
X33530817Y18825772D01*
X33530804Y18825779D01*
X33403332Y18878579D01*
X33403322Y18878582D01*
X33267995Y18905500D01*
X33267993Y18905500D01*
X33130007Y18905500D01*
X33130005Y18905500D01*
X32994677Y18878582D01*
X32994667Y18878579D01*
X32867195Y18825779D01*
X32867182Y18825772D01*
X32752458Y18749115D01*
X32752454Y18749112D01*
X32654888Y18651546D01*
X32654885Y18651542D01*
X32578228Y18536818D01*
X32578221Y18536805D01*
X32525421Y18409333D01*
X32525418Y18409323D01*
X32498500Y18273996D01*
X32498500Y18273993D01*
X32498500Y18136007D01*
X32498500Y18136005D01*
X32498499Y18136005D01*
X32525418Y18000678D01*
X32525421Y18000668D01*
X32578221Y17873196D01*
X32578228Y17873183D01*
X32654885Y17758459D01*
X32654888Y17758455D01*
X32752454Y17660889D01*
X32752458Y17660886D01*
X32867182Y17584229D01*
X32867195Y17584222D01*
X32994667Y17531422D01*
X32994672Y17531420D01*
X32994676Y17531420D01*
X32994677Y17531419D01*
X33130004Y17504500D01*
X33272540Y17504500D01*
X33339579Y17484815D01*
X33385334Y17432011D01*
X33395278Y17362853D01*
X33375642Y17311609D01*
X33363034Y17292741D01*
X33363032Y17292736D01*
X33348500Y17219679D01*
X33348500Y15670322D01*
X33363032Y15597265D01*
X33363033Y15597262D01*
X33363034Y15597260D01*
X33381102Y15570219D01*
X33401980Y15503542D01*
X33402000Y15501329D01*
X33402000Y13552571D01*
X33382315Y13485532D01*
X33352315Y13453308D01*
X33348533Y13450477D01*
X33348522Y13450467D01*
X33267666Y13342455D01*
X33267662Y13342448D01*
X33231182Y13244639D01*
X33189311Y13188705D01*
X33123846Y13164288D01*
X33055573Y13179140D01*
X33006168Y13228545D01*
X32998818Y13244639D01*
X32962337Y13342448D01*
X32962335Y13342451D01*
X32956300Y13350513D01*
X32881472Y13450472D01*
X32773450Y13531336D01*
X32773447Y13531338D01*
X32684622Y13564467D01*
X32647022Y13578491D01*
X32647020Y13578492D01*
X32639926Y13580168D01*
X32580769Y13613162D01*
X32551229Y13642702D01*
X32551228Y13642703D01*
X32442800Y13705303D01*
X32442801Y13705303D01*
X32387951Y13720000D01*
X32321865Y13737708D01*
X32196663Y13737708D01*
X32130577Y13720000D01*
X32075727Y13705303D01*
X31967301Y13642705D01*
X31878767Y13554171D01*
X31866145Y13532310D01*
X31833073Y13495049D01*
X31773526Y13450472D01*
X31687349Y13335351D01*
X31685906Y13336431D01*
X31644147Y13294669D01*
X31584718Y13279500D01*
X31041041Y13279500D01*
X30974002Y13299185D01*
X30953360Y13315819D01*
X30887102Y13382077D01*
X30887099Y13382079D01*
X30771521Y13438581D01*
X30771519Y13438582D01*
X30771518Y13438582D01*
X30696582Y13449500D01*
X30353418Y13449500D01*
X30278482Y13438582D01*
X30278480Y13438582D01*
X30278478Y13438581D01*
X30162900Y13382079D01*
X30162899Y13382079D01*
X30139926Y13359105D01*
X30078602Y13325621D01*
X30008911Y13330607D01*
X29957920Y13368780D01*
X29957636Y13368495D01*
X29955659Y13370472D01*
X29952978Y13372479D01*
X29952478Y13373152D01*
X29951066Y13375065D01*
X29845559Y13452934D01*
X29845557Y13452935D01*
X29755000Y13484622D01*
X29255000Y13484622D01*
X29255000Y13521114D01*
X29263644Y13550555D01*
X29270168Y13580541D01*
X29273922Y13585557D01*
X29274685Y13588153D01*
X29291319Y13608795D01*
X29318887Y13636363D01*
X29330035Y13647511D01*
X29342509Y13659985D01*
X29414984Y13785515D01*
X29414985Y13785522D01*
X29418029Y13792867D01*
X29444907Y13833095D01*
X31019995Y15408181D01*
X31081318Y15441666D01*
X31107676Y15444500D01*
X31323676Y15444500D01*
X31323677Y15444501D01*
X31396740Y15459034D01*
X31479601Y15514399D01*
X31534966Y15597260D01*
X31549500Y15670326D01*
X31549500Y17219674D01*
X31549500Y17219677D01*
X31549499Y17219679D01*
X31534967Y17292736D01*
X31534966Y17292740D01*
X31522358Y17311609D01*
X31479601Y17375601D01*
X31405829Y17424893D01*
X31396739Y17430967D01*
X31396735Y17430968D01*
X31323677Y17445500D01*
X31323674Y17445500D01*
X30729519Y17445500D01*
X30662480Y17465185D01*
X30616725Y17517989D01*
X30606781Y17587147D01*
X30635806Y17650703D01*
X30641838Y17657181D01*
X30743111Y17758455D01*
X30743114Y17758458D01*
X30819775Y17873189D01*
X30821181Y17876582D01*
X30831740Y17902076D01*
X30872580Y18000672D01*
X30890476Y18090639D01*
X30899500Y18136005D01*
X30899500Y18273996D01*
X30872581Y18409323D01*
X30872580Y18409324D01*
X30872580Y18409328D01*
X30847392Y18470138D01*
X30819778Y18536805D01*
X30819771Y18536818D01*
X30743114Y18651542D01*
X30743111Y18651546D01*
X30645545Y18749112D01*
X30645541Y18749115D01*
X30530817Y18825772D01*
X30530804Y18825779D01*
X30403332Y18878579D01*
X30403322Y18878582D01*
X30267995Y18905500D01*
X30267993Y18905500D01*
X30130007Y18905500D01*
X30130005Y18905500D01*
X29994677Y18878582D01*
X29994667Y18878579D01*
X29867195Y18825779D01*
X29867182Y18825772D01*
X29752458Y18749115D01*
X29752454Y18749112D01*
X29654888Y18651546D01*
X29654885Y18651542D01*
X29578228Y18536818D01*
X29578221Y18536805D01*
X29525421Y18409333D01*
X29525418Y18409323D01*
X29498500Y18273996D01*
X29498500Y18273993D01*
X29498500Y18136007D01*
X29498500Y18136005D01*
X29498499Y18136005D01*
X29525418Y18000678D01*
X29525421Y18000668D01*
X29578221Y17873196D01*
X29578228Y17873183D01*
X29654885Y17758459D01*
X29654888Y17758455D01*
X29756162Y17657181D01*
X29789647Y17595858D01*
X29784663Y17526166D01*
X29742791Y17470233D01*
X29677327Y17445816D01*
X29668481Y17445500D01*
X29074323Y17445500D01*
X29001264Y17430968D01*
X29001258Y17430966D01*
X28992167Y17424891D01*
X28925488Y17404016D01*
X28858109Y17422503D01*
X28811421Y17474484D01*
X28799876Y17515849D01*
X28799500Y17519666D01*
X28799500Y17519674D01*
X28786660Y17584222D01*
X28784967Y17592736D01*
X28784966Y17592740D01*
X28782883Y17595858D01*
X28729601Y17675601D01*
X28674235Y17712595D01*
X28646739Y17730967D01*
X28646735Y17730968D01*
X28573677Y17745500D01*
X28573674Y17745500D01*
X27524326Y17745500D01*
X27524323Y17745500D01*
X27451264Y17730968D01*
X27451260Y17730967D01*
X27368399Y17675601D01*
X27313033Y17592740D01*
X27313032Y17592736D01*
X27298500Y17519679D01*
X27298500Y16670322D01*
X27313032Y16597265D01*
X27313033Y16597261D01*
X27313034Y16597260D01*
X27368399Y16514399D01*
X27450572Y16459494D01*
X27451260Y16459034D01*
X27451264Y16459033D01*
X27524321Y16444501D01*
X27524324Y16444500D01*
X27524326Y16444500D01*
X28573676Y16444500D01*
X28573677Y16444501D01*
X28646740Y16459034D01*
X28647424Y16459491D01*
X28655610Y16464960D01*
X28722287Y16485838D01*
X28789667Y16467353D01*
X28836357Y16415374D01*
X28848500Y16361858D01*
X28848500Y15670322D01*
X28863032Y15597265D01*
X28863033Y15597261D01*
X28863034Y15597260D01*
X28918399Y15514399D01*
X28981069Y15472525D01*
X29001260Y15459034D01*
X29001264Y15459033D01*
X29074321Y15444501D01*
X29074324Y15444500D01*
X29074326Y15444500D01*
X29341324Y15444500D01*
X29408363Y15424815D01*
X29454118Y15372011D01*
X29464062Y15302853D01*
X29435037Y15239297D01*
X29429005Y15232819D01*
X28737093Y14540909D01*
X28696873Y14514032D01*
X28689515Y14510984D01*
X28563988Y14438511D01*
X28563982Y14438507D01*
X28461493Y14336018D01*
X28461489Y14336012D01*
X28389016Y14210485D01*
X28385968Y14203127D01*
X28359091Y14162907D01*
X28092686Y13896500D01*
X27999502Y13803317D01*
X27999500Y13803314D01*
X27933608Y13689188D01*
X27899500Y13561892D01*
X27899500Y11061393D01*
X27879815Y10994354D01*
X27827011Y10948599D01*
X27775500Y10937393D01*
X27662399Y10937393D01*
X27589696Y10917912D01*
X27541463Y10904988D01*
X27433037Y10842389D01*
X27433034Y10842387D01*
X27344504Y10753857D01*
X27340788Y10749013D01*
X27284360Y10707811D01*
X27242413Y10700500D01*
X26516272Y10700500D01*
X26449233Y10720185D01*
X26403478Y10772989D01*
X26393534Y10842147D01*
X26394655Y10848691D01*
X26409499Y10923322D01*
X26409500Y10923324D01*
X26409500Y11972677D01*
X26409499Y11972679D01*
X26394967Y12045736D01*
X26394966Y12045740D01*
X26387506Y12056905D01*
X26339601Y12128601D01*
X26339599Y12128602D01*
X26339599Y12128603D01*
X26323925Y12139076D01*
X26279120Y12192689D01*
X26270414Y12262014D01*
X26289715Y12311068D01*
X26299493Y12325702D01*
X26324084Y12362505D01*
X26329642Y12375922D01*
X26351753Y12429304D01*
X26380658Y12499087D01*
X26395852Y12575471D01*
X26409500Y12644080D01*
X26409500Y12791921D01*
X26380659Y12936908D01*
X26380658Y12936909D01*
X26380658Y12936913D01*
X26375444Y12949501D01*
X26324087Y13073489D01*
X26324080Y13073502D01*
X26241951Y13196416D01*
X26241948Y13196420D01*
X26173049Y13265319D01*
X26139564Y13326642D01*
X26144548Y13396334D01*
X26173049Y13440681D01*
X26241948Y13509581D01*
X26241951Y13509584D01*
X26324084Y13632505D01*
X26329058Y13644512D01*
X26356037Y13709646D01*
X26380658Y13769087D01*
X26393574Y13834020D01*
X26409500Y13914080D01*
X26409500Y14061921D01*
X26380659Y14206908D01*
X26380658Y14206909D01*
X26380658Y14206913D01*
X26380656Y14206918D01*
X26330483Y14328048D01*
X26326975Y14360674D01*
X26322306Y14393147D01*
X26323259Y14395235D01*
X26323014Y14397517D01*
X26337702Y14426861D01*
X26351331Y14456703D01*
X26353261Y14457944D01*
X26354289Y14459996D01*
X26382504Y14476737D01*
X26410109Y14494477D01*
X26413138Y14494913D01*
X26414378Y14495648D01*
X26445044Y14499500D01*
X26609614Y14499500D01*
X26676653Y14479815D01*
X26697295Y14463181D01*
X26761985Y14398491D01*
X26761986Y14398490D01*
X26761988Y14398489D01*
X26887511Y14326018D01*
X26887512Y14326018D01*
X26887515Y14326016D01*
X27027525Y14288500D01*
X27027528Y14288500D01*
X27172472Y14288500D01*
X27172475Y14288500D01*
X27312485Y14326016D01*
X27438015Y14398491D01*
X27540509Y14500985D01*
X27612984Y14626515D01*
X27650500Y14766525D01*
X27650500Y14911475D01*
X27612984Y15051485D01*
X27579200Y15110000D01*
X27540511Y15177012D01*
X27540506Y15177018D01*
X27438017Y15279507D01*
X27438011Y15279512D01*
X27312488Y15351983D01*
X27312489Y15351983D01*
X27301006Y15355060D01*
X27172475Y15389500D01*
X27027525Y15389500D01*
X26898993Y15355060D01*
X26887511Y15351983D01*
X26827116Y15317113D01*
X26765116Y15300500D01*
X24924500Y15300500D01*
X24857461Y15320185D01*
X24811706Y15372989D01*
X24800500Y15424500D01*
X24800500Y16560501D01*
X24820185Y16627540D01*
X24872989Y16673295D01*
X24924500Y16684501D01*
X25015686Y16684501D01*
X25015694Y16684501D01*
X25052569Y16687403D01*
X25052571Y16687404D01*
X25052573Y16687404D01*
X25126661Y16708929D01*
X25210398Y16733257D01*
X25351865Y16816920D01*
X25468081Y16933136D01*
X25551744Y17074603D01*
X25593458Y17218181D01*
X25597597Y17232428D01*
X25597598Y17232435D01*
X25600078Y17263952D01*
X25600946Y17266231D01*
X25600536Y17268637D01*
X25613324Y17298708D01*
X25624960Y17329239D01*
X25626924Y17330689D01*
X25627880Y17332934D01*
X25654897Y17351319D01*
X25681191Y17370711D01*
X25683625Y17370868D01*
X25685644Y17372241D01*
X25718305Y17373101D01*
X25750916Y17375200D01*
X25753050Y17374015D01*
X25755490Y17374079D01*
X25783430Y17357144D01*
X25811999Y17341279D01*
X25813801Y17338736D01*
X25815241Y17337863D01*
X25835097Y17308684D01*
X25882633Y17211447D01*
X25894392Y17142574D01*
X25888639Y17120464D01*
X25889120Y17120335D01*
X25887017Y17112487D01*
X25887016Y17112485D01*
X25849500Y16972475D01*
X25849500Y16827525D01*
X25884478Y16696988D01*
X25887017Y16687512D01*
X25959488Y16561989D01*
X25959490Y16561987D01*
X25959491Y16561985D01*
X26061985Y16459491D01*
X26061986Y16459490D01*
X26061988Y16459489D01*
X26187511Y16387018D01*
X26187512Y16387018D01*
X26187515Y16387016D01*
X26327525Y16349500D01*
X26327528Y16349500D01*
X26472472Y16349500D01*
X26472475Y16349500D01*
X26612485Y16387016D01*
X26738015Y16459491D01*
X26840509Y16561985D01*
X26912984Y16687515D01*
X26950500Y16827525D01*
X26950500Y16972475D01*
X26912984Y17112485D01*
X26905915Y17124728D01*
X26889444Y17192626D01*
X26901902Y17241182D01*
X26944582Y17328483D01*
X26955500Y17403419D01*
X26955500Y17746583D01*
X26944582Y17821519D01*
X26919322Y17873189D01*
X26888078Y17937101D01*
X26888076Y17937104D01*
X26827861Y17997319D01*
X26794376Y18058642D01*
X26799360Y18128334D01*
X26827861Y18172681D01*
X26888076Y18232897D01*
X26888078Y18232900D01*
X26928820Y18316240D01*
X26944582Y18348481D01*
X26955500Y18423417D01*
X26955500Y18766581D01*
X26944582Y18841517D01*
X26942222Y18846343D01*
X26888078Y18957099D01*
X26888076Y18957102D01*
X26797102Y19048076D01*
X26797099Y19048078D01*
X26681521Y19104580D01*
X26681519Y19104581D01*
X26681518Y19104581D01*
X26606582Y19115499D01*
X26163418Y19115499D01*
X26088482Y19104581D01*
X26088480Y19104581D01*
X26088478Y19104580D01*
X25972900Y19048078D01*
X25972897Y19048076D01*
X25956640Y19031818D01*
X25929712Y19017115D01*
X25903894Y19000522D01*
X25897693Y18999631D01*
X25895317Y18998333D01*
X25868959Y18995499D01*
X25673869Y18995499D01*
X25606830Y19015184D01*
X25561075Y19067988D01*
X25554793Y19084903D01*
X25551745Y19095394D01*
X25551743Y19095399D01*
X25498153Y19186015D01*
X25468081Y19236864D01*
X25468079Y19236866D01*
X25468076Y19236870D01*
X25351870Y19353076D01*
X25351862Y19353082D01*
X25210396Y19436744D01*
X25210393Y19436745D01*
X25142658Y19456424D01*
X25083772Y19494030D01*
X25054566Y19557503D01*
X25064312Y19626689D01*
X25109916Y19679624D01*
X25176899Y19699499D01*
X25177253Y19699500D01*
X27174500Y19699500D01*
X27241539Y19679815D01*
G37*
%TD.AperFunction*%
%TA.AperFunction,Conductor*%
G36*
X27217834Y2907506D02*
G01*
X27273767Y2865634D01*
X27298184Y2800170D01*
X27298500Y2791324D01*
X27298500Y2467117D01*
X27302165Y2448693D01*
X27295938Y2379101D01*
X27253076Y2323923D01*
X27187187Y2300678D01*
X27180548Y2300500D01*
X26791316Y2300500D01*
X26664020Y2266392D01*
X26549894Y2200500D01*
X26549891Y2200498D01*
X26069213Y1719819D01*
X26007890Y1686334D01*
X25981532Y1683500D01*
X23816827Y1683500D01*
X23781068Y1694000D01*
X23299000Y1694000D01*
X23231961Y1713685D01*
X23186206Y1766489D01*
X23175000Y1818000D01*
X23175000Y2070000D01*
X23194685Y2137039D01*
X23247489Y2182794D01*
X23299000Y2194000D01*
X23752467Y2194000D01*
X23752212Y2196730D01*
X23708405Y2321920D01*
X23650140Y2400866D01*
X23626169Y2466495D01*
X23641484Y2534665D01*
X23691224Y2583733D01*
X23749910Y2598500D01*
X26664890Y2598500D01*
X26664892Y2598500D01*
X26792186Y2632608D01*
X26906314Y2698500D01*
X27086819Y2879005D01*
X27148142Y2912490D01*
X27217834Y2907506D01*
G37*
%TD.AperFunction*%
%TA.AperFunction,Conductor*%
G36*
X12421909Y5391429D02*
G01*
X12472964Y5360643D01*
X13331926Y4501681D01*
X13365411Y4440358D01*
X13360427Y4370666D01*
X13318555Y4314733D01*
X13253091Y4290316D01*
X13244245Y4290000D01*
X13230000Y4290000D01*
X13230000Y3240000D01*
X13529999Y3240000D01*
X13529999Y4004246D01*
X13536237Y4025492D01*
X13537817Y4047580D01*
X13545889Y4058364D01*
X13549684Y4071285D01*
X13566417Y4085785D01*
X13579689Y4103513D01*
X13592309Y4108221D01*
X13602488Y4117040D01*
X13624405Y4120192D01*
X13645153Y4127930D01*
X13658313Y4125068D01*
X13671646Y4126984D01*
X13691789Y4117785D01*
X13713426Y4113078D01*
X13731151Y4099810D01*
X13735202Y4097959D01*
X13741680Y4091927D01*
X13743181Y4090426D01*
X13776666Y4029103D01*
X13779500Y4002745D01*
X13779500Y2213500D01*
X13759815Y2146461D01*
X13707011Y2100706D01*
X13655500Y2089500D01*
X13654000Y2089500D01*
X13586961Y2109185D01*
X13541206Y2161989D01*
X13530000Y2213500D01*
X13530000Y2840000D01*
X12530001Y2840000D01*
X12530001Y2213500D01*
X12527450Y2204815D01*
X12528739Y2195853D01*
X12517760Y2171813D01*
X12510316Y2146461D01*
X12503475Y2140534D01*
X12499714Y2132297D01*
X12477479Y2118008D01*
X12457512Y2100706D01*
X12446997Y2098419D01*
X12440936Y2094523D01*
X12406001Y2089500D01*
X12404500Y2089500D01*
X12337461Y2109185D01*
X12291706Y2161989D01*
X12280500Y2213500D01*
X12280500Y4014676D01*
X12276498Y4034795D01*
X12530000Y4034795D01*
X12530000Y3240000D01*
X12830000Y3240000D01*
X12830000Y4290000D01*
X12785203Y4290000D01*
X12760130Y4287092D01*
X12760126Y4287091D01*
X12657525Y4241789D01*
X12657520Y4241786D01*
X12578214Y4162480D01*
X12578211Y4162475D01*
X12532910Y4059878D01*
X12532910Y4059876D01*
X12530000Y4034795D01*
X12276498Y4034795D01*
X12270374Y4065582D01*
X12265966Y4087740D01*
X12251396Y4109546D01*
X12230520Y4176222D01*
X12230500Y4178434D01*
X12230500Y4711271D01*
X12230501Y4711284D01*
X12230501Y4826726D01*
X12230092Y4828255D01*
X12203207Y4928587D01*
X12191132Y4949501D01*
X12173147Y4980653D01*
X12163949Y4996585D01*
X12147478Y5064486D01*
X12170331Y5130512D01*
X12183651Y5146260D01*
X12203050Y5165658D01*
X12260646Y5278696D01*
X12262809Y5292358D01*
X12292736Y5355491D01*
X12352046Y5392425D01*
X12421909Y5391429D01*
G37*
%TD.AperFunction*%
%TA.AperFunction,Conductor*%
G36*
X14885703Y3705260D02*
G01*
X14892181Y3699228D01*
X14993321Y3598088D01*
X14993322Y3598087D01*
X15067889Y3523520D01*
X15159215Y3470793D01*
X15187049Y3463336D01*
X15199596Y3456640D01*
X15211486Y3444976D01*
X15228901Y3434922D01*
X15231923Y3431900D01*
X15231924Y3431898D01*
X15297872Y3365950D01*
X15322900Y3340922D01*
X15430502Y3288319D01*
X15438482Y3284418D01*
X15513418Y3273500D01*
X15513423Y3273500D01*
X15856581Y3273500D01*
X15856582Y3273500D01*
X15920204Y3282770D01*
X15989379Y3272958D01*
X16042270Y3227302D01*
X16061523Y3162185D01*
X16067331Y3154000D01*
X17326729Y3154000D01*
X17326729Y3153442D01*
X17352956Y3155992D01*
X17365424Y3152935D01*
X17379359Y3148743D01*
X17386633Y3144000D01*
X18223500Y3144000D01*
X18290539Y3124315D01*
X18336294Y3071511D01*
X18347500Y3020000D01*
X18347500Y2768000D01*
X18327815Y2700961D01*
X18275011Y2655206D01*
X18223500Y2644000D01*
X17329178Y2644000D01*
X17329178Y2644563D01*
X17302917Y2642015D01*
X17277617Y2649724D01*
X17267776Y2653915D01*
X17267673Y2654000D01*
X16067332Y2654000D01*
X16101596Y2556078D01*
X16172491Y2460019D01*
X16196462Y2394390D01*
X16185719Y2335323D01*
X16178831Y2320082D01*
X16175141Y2316391D01*
X16118983Y2206175D01*
X16114462Y2177637D01*
X16107595Y2162438D01*
X16095251Y2148078D01*
X16087140Y2130967D01*
X16072948Y2122131D01*
X16062051Y2109452D01*
X16043903Y2104045D01*
X16027829Y2094036D01*
X15995500Y2089624D01*
X15995090Y2089501D01*
X15994934Y2089547D01*
X15994597Y2089500D01*
X14804500Y2089500D01*
X14737461Y2109185D01*
X14691706Y2161989D01*
X14680500Y2213500D01*
X14680500Y3611547D01*
X14700185Y3678586D01*
X14752989Y3724341D01*
X14822147Y3734285D01*
X14885703Y3705260D01*
G37*
%TD.AperFunction*%
%TA.AperFunction,Conductor*%
G36*
X20535592Y3293500D02*
G01*
X21521383Y3293500D01*
X21588422Y3273815D01*
X21634177Y3221011D01*
X21642917Y3160220D01*
X21647331Y3154000D01*
X22121000Y3154000D01*
X22188039Y3134315D01*
X22233794Y3081511D01*
X22245000Y3030000D01*
X22245000Y2778000D01*
X22225315Y2710961D01*
X22172511Y2665206D01*
X22121000Y2654000D01*
X21647332Y2654000D01*
X21681597Y2556076D01*
X21691887Y2542133D01*
X21696364Y2529875D01*
X21704911Y2520011D01*
X21708120Y2497688D01*
X21715858Y2476504D01*
X21712997Y2463772D01*
X21714855Y2450853D01*
X21705485Y2430337D01*
X21700542Y2408334D01*
X21691251Y2399170D01*
X21685830Y2387297D01*
X21666856Y2375104D01*
X21650802Y2359266D01*
X21636685Y2355715D01*
X21627052Y2349523D01*
X21592117Y2344500D01*
X21502254Y2344500D01*
X21435215Y2364185D01*
X21414572Y2380820D01*
X21373346Y2422047D01*
X21373344Y2422048D01*
X21373342Y2422050D01*
X21286114Y2466495D01*
X21260301Y2479648D01*
X21166524Y2494500D01*
X20135500Y2494500D01*
X20068461Y2514185D01*
X20022706Y2566989D01*
X20011500Y2618500D01*
X20011500Y3169501D01*
X20031185Y3236540D01*
X20083989Y3282295D01*
X20135495Y3293501D01*
X20535582Y3293501D01*
X20535592Y3293500D01*
G37*
%TD.AperFunction*%
%TA.AperFunction,Conductor*%
G36*
X17364437Y9562702D02*
G01*
X17367146Y9563091D01*
X17396619Y9549631D01*
X17426637Y9537439D01*
X17429154Y9534773D01*
X17430701Y9534066D01*
X17434576Y9529029D01*
X17450865Y9511774D01*
X17456559Y9503693D01*
X17501924Y9410898D01*
X17569681Y9343141D01*
X17575825Y9334421D01*
X17598347Y9268280D01*
X17581535Y9200464D01*
X17562140Y9175319D01*
X17501923Y9115103D01*
X17501921Y9115100D01*
X17445419Y8999522D01*
X17445418Y8999520D01*
X17445418Y8999518D01*
X17434500Y8924582D01*
X17434500Y8581418D01*
X17445418Y8506482D01*
X17445418Y8506481D01*
X17445419Y8506479D01*
X17501921Y8390901D01*
X17501923Y8390898D01*
X17592897Y8299924D01*
X17592900Y8299922D01*
X17703656Y8245778D01*
X17708482Y8243418D01*
X17783418Y8232500D01*
X17783423Y8232500D01*
X18226577Y8232500D01*
X18226582Y8232500D01*
X18301518Y8243418D01*
X18367181Y8275519D01*
X18417099Y8299922D01*
X18417102Y8299924D01*
X18433360Y8316181D01*
X18460287Y8330885D01*
X18486106Y8347477D01*
X18492306Y8348369D01*
X18494683Y8349666D01*
X18521041Y8352500D01*
X18581334Y8352500D01*
X18648373Y8332815D01*
X18694128Y8280011D01*
X18704072Y8210853D01*
X18691818Y8172204D01*
X18664353Y8118304D01*
X18664352Y8118302D01*
X18649500Y8024525D01*
X18649500Y7661483D01*
X18656712Y7615950D01*
X18664354Y7567696D01*
X18721950Y7454658D01*
X18721952Y7454656D01*
X18721954Y7454653D01*
X18811652Y7364955D01*
X18811654Y7364954D01*
X18811658Y7364950D01*
X18924696Y7307354D01*
X18924698Y7307353D01*
X19018475Y7292501D01*
X19018481Y7292500D01*
X19314616Y7292501D01*
X19381653Y7272817D01*
X19427408Y7220013D01*
X19437352Y7150854D01*
X19408327Y7087299D01*
X19402296Y7080821D01*
X19359494Y7038019D01*
X19359488Y7038012D01*
X19287017Y6912489D01*
X19287016Y6912485D01*
X19249500Y6772475D01*
X19249500Y6627525D01*
X19256780Y6600355D01*
X19265938Y6566177D01*
X19264275Y6496327D01*
X19225112Y6438465D01*
X19160883Y6410961D01*
X19091981Y6422548D01*
X19071238Y6435280D01*
X19007097Y6483920D01*
X18866443Y6539387D01*
X18778054Y6550000D01*
X18585000Y6550000D01*
X18585000Y4900000D01*
X18778054Y4900000D01*
X18866443Y4910614D01*
X19007095Y4966080D01*
X19127564Y5057436D01*
X19218920Y5177905D01*
X19221805Y5185221D01*
X19264709Y5240367D01*
X19330615Y5263564D01*
X19398600Y5247446D01*
X19436429Y5214048D01*
X19441203Y5207670D01*
X19441204Y5207669D01*
X19527454Y5092454D01*
X19558022Y5069571D01*
X19642665Y5006206D01*
X19642667Y5006206D01*
X19642669Y5006204D01*
X19653830Y5002042D01*
X19709764Y4960174D01*
X19734184Y4894711D01*
X19734500Y4885859D01*
X19734500Y4168988D01*
X19731399Y4141431D01*
X19727975Y4126413D01*
X19724354Y4119304D01*
X19719796Y4090527D01*
X19718869Y4086459D01*
X19703769Y4059447D01*
X19690512Y4031482D01*
X19686870Y4029215D01*
X19684778Y4025471D01*
X19657469Y4010909D01*
X19631200Y3994552D01*
X19626911Y3994614D01*
X19623127Y3992595D01*
X19592285Y3995108D01*
X19561338Y3995550D01*
X19557351Y3997955D01*
X19553488Y3998269D01*
X19540982Y4007826D01*
X19510289Y4026335D01*
X19292126Y4244498D01*
X19292124Y4244500D01*
X19226231Y4282544D01*
X19177995Y4310393D01*
X19070836Y4339107D01*
X19046637Y4348396D01*
X18985301Y4379648D01*
X18891524Y4394500D01*
X17803482Y4394500D01*
X17722519Y4381677D01*
X17709696Y4379646D01*
X17596658Y4322050D01*
X17596657Y4322049D01*
X17596652Y4322046D01*
X17506954Y4232348D01*
X17506949Y4232341D01*
X17446027Y4112776D01*
X17435150Y4101261D01*
X17428424Y4086919D01*
X17411652Y4076381D01*
X17398053Y4061981D01*
X17382677Y4058174D01*
X17369264Y4049745D01*
X17349457Y4049947D01*
X17330232Y4045186D01*
X17315238Y4050296D01*
X17299398Y4050457D01*
X17282844Y4061336D01*
X17264097Y4067724D01*
X17253519Y4080607D01*
X17241008Y4088828D01*
X17229414Y4109963D01*
X17222230Y4118712D01*
X17215578Y4133679D01*
X17214582Y4140518D01*
X17192105Y4186496D01*
X17191187Y4188561D01*
X17189873Y4198405D01*
X17180500Y4238921D01*
X17180500Y4361600D01*
X17179723Y4364500D01*
X17148095Y4482536D01*
X17085495Y4590964D01*
X16996964Y4679495D01*
X16888536Y4742095D01*
X16888537Y4742095D01*
X16868943Y4747346D01*
X16822733Y4759728D01*
X16763075Y4796091D01*
X16732546Y4858939D01*
X16740841Y4928314D01*
X16785326Y4982192D01*
X16851879Y5003466D01*
X16854828Y5003501D01*
X16856518Y5003501D01*
X16950304Y5018354D01*
X17063342Y5075950D01*
X17153050Y5165658D01*
X17198869Y5255584D01*
X17246842Y5306379D01*
X17314663Y5323174D01*
X17380798Y5300637D01*
X17424250Y5245922D01*
X17424707Y5244778D01*
X17451077Y5177909D01*
X17451078Y5177907D01*
X17542435Y5057436D01*
X17662904Y4966080D01*
X17803556Y4910614D01*
X17891946Y4900000D01*
X18085000Y4900000D01*
X18085000Y6550000D01*
X17891946Y6550000D01*
X17803556Y6539387D01*
X17662904Y6483921D01*
X17542435Y6392565D01*
X17451079Y6272096D01*
X17395613Y6131444D01*
X17385000Y6043054D01*
X17385000Y6003611D01*
X17365315Y5936572D01*
X17312511Y5890817D01*
X17243353Y5880873D01*
X17179797Y5909898D01*
X17159930Y5935284D01*
X17158783Y5934450D01*
X17153051Y5942340D01*
X17153050Y5942342D01*
X17153047Y5942345D01*
X17153045Y5942348D01*
X17063347Y6032046D01*
X17063343Y6032049D01*
X17063342Y6032050D01*
X17032288Y6047873D01*
X16972147Y6078517D01*
X16921352Y6126491D01*
X16904557Y6194313D01*
X16927095Y6260447D01*
X16972145Y6299483D01*
X17063342Y6345950D01*
X17153050Y6435658D01*
X17210646Y6548696D01*
X17210646Y6548698D01*
X17210647Y6548699D01*
X17225499Y6642476D01*
X17225500Y6642481D01*
X17225499Y7005518D01*
X17210646Y7099304D01*
X17153050Y7212342D01*
X17153046Y7212346D01*
X17153045Y7212348D01*
X17063347Y7302046D01*
X17063343Y7302049D01*
X17063342Y7302050D01*
X17052932Y7307354D01*
X16972147Y7348517D01*
X16921352Y7396491D01*
X16904557Y7464313D01*
X16927095Y7530447D01*
X16972145Y7569483D01*
X17063342Y7615950D01*
X17153050Y7705658D01*
X17210646Y7818696D01*
X17210646Y7818698D01*
X17210647Y7818699D01*
X17223689Y7901049D01*
X17225500Y7912481D01*
X17225499Y8275518D01*
X17210646Y8369304D01*
X17153050Y8482342D01*
X17153046Y8482346D01*
X17153045Y8482348D01*
X17063347Y8572046D01*
X17063343Y8572049D01*
X17063342Y8572050D01*
X17060599Y8573448D01*
X16972147Y8618517D01*
X16921352Y8666491D01*
X16904557Y8734313D01*
X16927095Y8800447D01*
X16972145Y8839483D01*
X17063342Y8885950D01*
X17153050Y8975658D01*
X17210646Y9088696D01*
X17210646Y9088698D01*
X17210647Y9088699D01*
X17224366Y9175319D01*
X17225500Y9182481D01*
X17225499Y9440354D01*
X17234625Y9471437D01*
X17242423Y9502889D01*
X17244412Y9504767D01*
X17245183Y9507392D01*
X17269674Y9528615D01*
X17293231Y9550851D01*
X17295919Y9551356D01*
X17297987Y9553147D01*
X17330060Y9557759D01*
X17361903Y9563731D01*
X17364437Y9562702D01*
G37*
%TD.AperFunction*%
%TA.AperFunction,Conductor*%
G36*
X15040397Y5021310D02*
G01*
X15040417Y5021369D01*
X15040932Y5021202D01*
X15046204Y5020134D01*
X15049696Y5018354D01*
X15049697Y5018354D01*
X15049698Y5018353D01*
X15143475Y5003501D01*
X15143481Y5003500D01*
X16555169Y5003501D01*
X16622208Y4983816D01*
X16667963Y4931013D01*
X16677907Y4861854D01*
X16648882Y4798298D01*
X16590104Y4760524D01*
X16587264Y4759727D01*
X16521468Y4742097D01*
X16521463Y4742095D01*
X16413037Y4679496D01*
X16413034Y4679494D01*
X16324506Y4590966D01*
X16324504Y4590963D01*
X16261905Y4482537D01*
X16261904Y4482534D01*
X16243226Y4412830D01*
X16206860Y4353171D01*
X16144013Y4322642D01*
X16074637Y4330939D01*
X16051397Y4344010D01*
X16047099Y4347079D01*
X15931521Y4403581D01*
X15931519Y4403582D01*
X15931518Y4403582D01*
X15856582Y4414500D01*
X15513418Y4414500D01*
X15450971Y4405402D01*
X15438481Y4403582D01*
X15429283Y4400739D01*
X15428875Y4402060D01*
X15369976Y4392005D01*
X15305680Y4419350D01*
X15296712Y4427483D01*
X14902226Y4821969D01*
X14868741Y4883292D01*
X14873725Y4952984D01*
X14915597Y5008917D01*
X14981061Y5033334D01*
X15040397Y5021310D01*
G37*
%TD.AperFunction*%
%TA.AperFunction,Conductor*%
G36*
X12082652Y17134815D02*
G01*
X12103294Y17118181D01*
X12442832Y16778643D01*
X12476317Y16717320D01*
X12471333Y16647628D01*
X12445000Y16612453D01*
X12445000Y15407333D01*
X12480656Y15419809D01*
X12550435Y15423372D01*
X12611063Y15388643D01*
X12638560Y15339879D01*
X12638907Y15340022D01*
X12640090Y15337165D01*
X12641385Y15334869D01*
X12642016Y15332515D01*
X12714490Y15206985D01*
X13917985Y14003490D01*
X13989170Y13962392D01*
X14043515Y13931016D01*
X14183525Y13893500D01*
X14183526Y13893500D01*
X14183528Y13893500D01*
X14894034Y13893500D01*
X14961073Y13873815D01*
X15006828Y13821011D01*
X15016772Y13751853D01*
X14987747Y13688297D01*
X14950331Y13659018D01*
X14936992Y13652221D01*
X14936656Y13652049D01*
X14936652Y13652046D01*
X14846954Y13562348D01*
X14846951Y13562343D01*
X14846950Y13562342D01*
X14837143Y13543095D01*
X14789352Y13449302D01*
X14774500Y13355525D01*
X14774500Y12992483D01*
X14783302Y12936908D01*
X14789354Y12898696D01*
X14846950Y12785658D01*
X14846952Y12785656D01*
X14846954Y12785653D01*
X14936652Y12695955D01*
X14936654Y12695954D01*
X14936658Y12695950D01*
X15027851Y12649485D01*
X15078647Y12601510D01*
X15095442Y12533689D01*
X15072904Y12467554D01*
X15027852Y12428516D01*
X14936658Y12382050D01*
X14936657Y12382049D01*
X14936652Y12382046D01*
X14846954Y12292348D01*
X14846951Y12292343D01*
X14846950Y12292342D01*
X14836827Y12272475D01*
X14789352Y12179302D01*
X14774500Y12085525D01*
X14774500Y11722483D01*
X14784477Y11659489D01*
X14789354Y11628696D01*
X14846950Y11515658D01*
X14846952Y11515656D01*
X14846954Y11515653D01*
X14936652Y11425955D01*
X14936654Y11425954D01*
X14936658Y11425950D01*
X15027851Y11379485D01*
X15078647Y11331510D01*
X15095442Y11263689D01*
X15072904Y11197554D01*
X15027852Y11158516D01*
X14936658Y11112050D01*
X14936657Y11112049D01*
X14936652Y11112046D01*
X14846954Y11022348D01*
X14846951Y11022343D01*
X14846950Y11022342D01*
X14835566Y11000000D01*
X14789352Y10909302D01*
X14774500Y10815525D01*
X14774500Y10452483D01*
X14782892Y10399500D01*
X14789354Y10358696D01*
X14846950Y10245658D01*
X14846952Y10245656D01*
X14846954Y10245653D01*
X14936652Y10155955D01*
X14936654Y10155954D01*
X14936658Y10155950D01*
X15027851Y10109485D01*
X15078647Y10061510D01*
X15095442Y9993689D01*
X15072904Y9927554D01*
X15027852Y9888516D01*
X14936658Y9842050D01*
X14936657Y9842049D01*
X14936652Y9842046D01*
X14846954Y9752348D01*
X14846951Y9752343D01*
X14846950Y9752342D01*
X14842936Y9744464D01*
X14789352Y9639302D01*
X14774500Y9545525D01*
X14774500Y9182483D01*
X14781641Y9137399D01*
X14789354Y9088696D01*
X14846950Y8975658D01*
X14846952Y8975656D01*
X14846954Y8975653D01*
X14936652Y8885955D01*
X14936654Y8885954D01*
X14936658Y8885950D01*
X15027851Y8839485D01*
X15078647Y8791510D01*
X15095442Y8723689D01*
X15072904Y8657554D01*
X15027852Y8618516D01*
X14936658Y8572050D01*
X14936657Y8572049D01*
X14936652Y8572046D01*
X14846954Y8482348D01*
X14846951Y8482343D01*
X14846950Y8482342D01*
X14827751Y8444663D01*
X14789352Y8369302D01*
X14774500Y8275525D01*
X14774500Y7912483D01*
X14785275Y7844451D01*
X14789354Y7818696D01*
X14846950Y7705658D01*
X14846952Y7705656D01*
X14846954Y7705653D01*
X14936652Y7615955D01*
X14936654Y7615954D01*
X14936658Y7615950D01*
X15027851Y7569485D01*
X15078647Y7521510D01*
X15095442Y7453689D01*
X15072904Y7387554D01*
X15027852Y7348516D01*
X14936658Y7302050D01*
X14936657Y7302049D01*
X14936652Y7302046D01*
X14846954Y7212348D01*
X14846951Y7212343D01*
X14789352Y7099302D01*
X14774500Y7005525D01*
X14774500Y6642483D01*
X14781567Y6597865D01*
X14789354Y6548696D01*
X14846950Y6435658D01*
X14846952Y6435656D01*
X14846954Y6435653D01*
X14936652Y6345955D01*
X14936654Y6345954D01*
X14936658Y6345950D01*
X15027851Y6299485D01*
X15078647Y6251510D01*
X15095442Y6183689D01*
X15072904Y6117554D01*
X15027852Y6078516D01*
X14936658Y6032050D01*
X14936657Y6032049D01*
X14936652Y6032046D01*
X14846954Y5942348D01*
X14846951Y5942343D01*
X14846950Y5942342D01*
X14835311Y5919499D01*
X14789352Y5829302D01*
X14774500Y5735525D01*
X14774500Y5372483D01*
X14789354Y5278696D01*
X14791135Y5275201D01*
X14792018Y5270497D01*
X14792369Y5269418D01*
X14792229Y5269373D01*
X14804031Y5206532D01*
X14777754Y5141791D01*
X14720647Y5101535D01*
X14650842Y5098543D01*
X14592969Y5131226D01*
X12812819Y6911376D01*
X12779334Y6972699D01*
X12776500Y6999057D01*
X12776500Y11605724D01*
X12776500Y11605726D01*
X12749207Y11707586D01*
X12696480Y11798912D01*
X12621913Y11873479D01*
X12270912Y12224480D01*
X12270909Y12224482D01*
X12270905Y12224485D01*
X12255561Y12233344D01*
X12207347Y12283912D01*
X12207079Y12284435D01*
X12203052Y12292339D01*
X12203051Y12292340D01*
X12203050Y12292342D01*
X12113342Y12382050D01*
X12111032Y12383227D01*
X12023313Y12427923D01*
X11972518Y12475898D01*
X11955723Y12543719D01*
X11978261Y12609853D01*
X12032976Y12653304D01*
X12102497Y12660276D01*
X12111704Y12658181D01*
X12116462Y12656906D01*
X12116464Y12656905D01*
X12237399Y12624500D01*
X12237400Y12624500D01*
X12362599Y12624500D01*
X12362601Y12624500D01*
X12483536Y12656905D01*
X12591964Y12719505D01*
X12680495Y12808036D01*
X12743095Y12916464D01*
X12775500Y13037399D01*
X12775500Y13162601D01*
X12743095Y13283536D01*
X12680495Y13391964D01*
X12591964Y13480495D01*
X12483536Y13543095D01*
X12483537Y13543095D01*
X12443224Y13553897D01*
X12362601Y13575500D01*
X12241254Y13575500D01*
X12219292Y13581949D01*
X12196482Y13583865D01*
X12183119Y13592571D01*
X12174215Y13595185D01*
X12165717Y13601163D01*
X12159299Y13606093D01*
X12113342Y13652050D01*
X12072140Y13673044D01*
X12063080Y13680003D01*
X12048953Y13699371D01*
X12031526Y13715830D01*
X12028739Y13727084D01*
X12021906Y13736452D01*
X12020492Y13760385D01*
X12014731Y13783651D01*
X12018470Y13794625D01*
X12017787Y13806200D01*
X12029536Y13827098D01*
X12037269Y13849786D01*
X12047212Y13858533D01*
X12052031Y13867103D01*
X12064418Y13873669D01*
X12080676Y13887970D01*
X12087643Y13891653D01*
X12196792Y13972208D01*
X12277346Y14081355D01*
X12316762Y14194000D01*
X9783238Y14194000D01*
X9822653Y14081355D01*
X9903207Y13972208D01*
X10012355Y13891654D01*
X10019326Y13887969D01*
X10021519Y13885835D01*
X10024486Y13885082D01*
X10046394Y13861626D01*
X10069397Y13839239D01*
X10070088Y13836258D01*
X10072178Y13834020D01*
X10077926Y13802445D01*
X10085175Y13771174D01*
X10084143Y13768291D01*
X10084692Y13765280D01*
X10072457Y13735611D01*
X10061649Y13705384D01*
X10058872Y13702664D01*
X10058057Y13700687D01*
X10050984Y13694937D01*
X10032263Y13676596D01*
X10025268Y13671723D01*
X9986658Y13652050D01*
X9962838Y13628231D01*
X9953809Y13621940D01*
X9930684Y13614203D01*
X9909283Y13602517D01*
X9898142Y13603315D01*
X9887550Y13599770D01*
X9863914Y13605763D01*
X9839592Y13607503D01*
X9828215Y13614815D01*
X9819824Y13616942D01*
X9812193Y13625112D01*
X9795247Y13636003D01*
X9767391Y13663859D01*
X9657175Y13720017D01*
X9657174Y13720018D01*
X9657171Y13720019D01*
X9565735Y13734500D01*
X9224260Y13734500D01*
X9224260Y13734499D01*
X9132829Y13720019D01*
X9132828Y13720019D01*
X9098768Y13702664D01*
X9022609Y13663859D01*
X9022607Y13663858D01*
X9013914Y13659428D01*
X9012881Y13661455D01*
X8959681Y13642480D01*
X8891629Y13658314D01*
X8878982Y13666509D01*
X8782920Y13737406D01*
X8685000Y13771670D01*
X8685000Y13298000D01*
X8682449Y13289315D01*
X8683738Y13280353D01*
X8672759Y13256313D01*
X8665315Y13230961D01*
X8658474Y13225034D01*
X8654713Y13216797D01*
X8632478Y13202508D01*
X8612511Y13185206D01*
X8601996Y13182919D01*
X8595935Y13179023D01*
X8561000Y13174000D01*
X8328500Y13174000D01*
X8261461Y13193685D01*
X8215706Y13246489D01*
X8204500Y13298000D01*
X8204500Y14430500D01*
X8224185Y14497539D01*
X8276989Y14543294D01*
X8328500Y14554500D01*
X8696577Y14554500D01*
X8696582Y14554500D01*
X8771518Y14565418D01*
X8851461Y14604500D01*
X8887099Y14621922D01*
X8887102Y14621924D01*
X8959178Y14694000D01*
X9783238Y14694000D01*
X10800000Y14694000D01*
X11300000Y14694000D01*
X12316761Y14694000D01*
X12277346Y14806646D01*
X12196792Y14915793D01*
X12087645Y14996347D01*
X11959602Y15041150D01*
X11929207Y15044000D01*
X11300000Y15044000D01*
X11300000Y14694000D01*
X10800000Y14694000D01*
X10800000Y15044000D01*
X10170803Y15044000D01*
X10140393Y15041149D01*
X10012354Y14996347D01*
X9903207Y14915793D01*
X9822653Y14806646D01*
X9783238Y14694000D01*
X8959178Y14694000D01*
X8978075Y14712897D01*
X8978076Y14712898D01*
X8985923Y14728949D01*
X8985925Y14728952D01*
X9024788Y14808449D01*
X9034582Y14828482D01*
X9045500Y14903418D01*
X9045500Y15246582D01*
X9034582Y15321518D01*
X9025536Y15340022D01*
X8978078Y15437100D01*
X8978076Y15437103D01*
X8955106Y15460073D01*
X8921621Y15521396D01*
X8926605Y15591088D01*
X8964778Y15642081D01*
X8964495Y15642364D01*
X8966466Y15644336D01*
X8968477Y15647021D01*
X8969156Y15647526D01*
X8971065Y15648936D01*
X9048931Y15754439D01*
X9049127Y15755000D01*
X11617532Y15755000D01*
X11617787Y15752271D01*
X11661594Y15627081D01*
X11740358Y15520359D01*
X11847077Y15441597D01*
X11945000Y15407332D01*
X11945000Y15755000D01*
X11617532Y15755000D01*
X9049127Y15755000D01*
X9078503Y15838948D01*
X9078504Y15838950D01*
X9080621Y15845000D01*
X8599000Y15845000D01*
X8531961Y15864685D01*
X8486206Y15917489D01*
X8475000Y15969000D01*
X8475000Y16090154D01*
X8344321Y16095088D01*
X8313308Y16105481D01*
X8281961Y16114685D01*
X8280373Y16116517D01*
X8278072Y16117288D01*
X8257595Y16142805D01*
X8236206Y16167489D01*
X8235618Y16170191D01*
X8234342Y16171781D01*
X8233466Y16180080D01*
X8225000Y16219000D01*
X8225000Y16255001D01*
X11617530Y16255001D01*
X11617531Y16255000D01*
X11945000Y16255000D01*
X11945000Y16602670D01*
X11944999Y16602670D01*
X11847079Y16568406D01*
X11740358Y16489642D01*
X11661594Y16382920D01*
X11617787Y16257728D01*
X11617786Y16257726D01*
X11617530Y16255001D01*
X8225000Y16255001D01*
X8225000Y16345000D01*
X8725000Y16345000D01*
X9080622Y16345000D01*
X9080621Y16345001D01*
X9048934Y16435558D01*
X9048933Y16435560D01*
X8971065Y16541066D01*
X8865559Y16618934D01*
X8865557Y16618935D01*
X8741786Y16662245D01*
X8725000Y16663819D01*
X8725000Y16345000D01*
X8225000Y16345000D01*
X8225000Y16578324D01*
X8244685Y16645363D01*
X8261319Y16666005D01*
X8538495Y16943181D01*
X8599818Y16976666D01*
X8626176Y16979500D01*
X8856130Y16979500D01*
X8856144Y16979501D01*
X8878023Y16981854D01*
X8912022Y16985509D01*
X9038450Y17032664D01*
X9146472Y17113528D01*
X9146474Y17113531D01*
X9146477Y17113533D01*
X9151130Y17118185D01*
X9212454Y17151667D01*
X9238807Y17154500D01*
X12015613Y17154500D01*
X12082652Y17134815D01*
G37*
%TD.AperFunction*%
%TA.AperFunction,Conductor*%
G36*
X20767698Y12579208D02*
G01*
X20775708Y12575481D01*
X20789696Y12568354D01*
X20789698Y12568354D01*
X20789700Y12568353D01*
X20789698Y12568353D01*
X20883475Y12553501D01*
X20883481Y12553500D01*
X21875500Y12553501D01*
X21942539Y12533817D01*
X21988294Y12481013D01*
X21999500Y12429501D01*
X21999500Y11652727D01*
X21999500Y11547273D01*
X22013146Y11496343D01*
X22026793Y11445411D01*
X22038027Y11425954D01*
X22079520Y11354087D01*
X23379518Y10054090D01*
X23379520Y10054087D01*
X23454087Y9979520D01*
X23514690Y9944531D01*
X23523107Y9939671D01*
X23523109Y9939670D01*
X23545407Y9926796D01*
X23545410Y9926794D01*
X23545412Y9926794D01*
X23545413Y9926793D01*
X23647273Y9899499D01*
X23647275Y9899499D01*
X23692323Y9899499D01*
X23759362Y9879814D01*
X23805117Y9827010D01*
X23815061Y9757852D01*
X23786036Y9694296D01*
X23780004Y9687818D01*
X23399502Y9307317D01*
X23399500Y9307314D01*
X23333608Y9193188D01*
X23299500Y9065892D01*
X23299500Y7900914D01*
X23279815Y7833875D01*
X23231796Y7790431D01*
X23146658Y7747050D01*
X23146657Y7747049D01*
X23146652Y7747046D01*
X23056954Y7657348D01*
X23056951Y7657343D01*
X22999352Y7544302D01*
X22984500Y7450525D01*
X22984500Y7087483D01*
X22993634Y7029815D01*
X22999354Y6993696D01*
X23049698Y6894891D01*
X23051806Y6890754D01*
X23064702Y6822084D01*
X23041091Y6760825D01*
X22982653Y6681646D01*
X22943238Y6569000D01*
X23773500Y6569000D01*
X23840539Y6549315D01*
X23886294Y6496511D01*
X23897500Y6445000D01*
X23897500Y6193000D01*
X23877815Y6125961D01*
X23825011Y6080206D01*
X23773500Y6069000D01*
X22943238Y6069000D01*
X22982653Y5956355D01*
X23041091Y5877176D01*
X23046468Y5862453D01*
X23056218Y5850176D01*
X23058211Y5830304D01*
X23065062Y5811547D01*
X23061718Y5795332D01*
X23063191Y5780655D01*
X23051806Y5747248D01*
X23014074Y5673194D01*
X22966100Y5622397D01*
X22898279Y5605602D01*
X22832144Y5628139D01*
X22815908Y5641807D01*
X20661818Y7795897D01*
X20628333Y7857220D01*
X20625499Y7883578D01*
X20625499Y8024518D01*
X20614125Y8096336D01*
X20610646Y8118304D01*
X20610645Y8118306D01*
X20609119Y8127943D01*
X20611142Y8128264D01*
X20609506Y8185506D01*
X20645584Y8245340D01*
X20708284Y8276170D01*
X20777698Y8268208D01*
X20785708Y8264481D01*
X20799696Y8257354D01*
X20799698Y8257354D01*
X20799700Y8257353D01*
X20799698Y8257353D01*
X20893475Y8242501D01*
X20893481Y8242500D01*
X22131518Y8242501D01*
X22225304Y8257354D01*
X22338342Y8314950D01*
X22428050Y8404658D01*
X22485646Y8517696D01*
X22485646Y8517698D01*
X22485647Y8517699D01*
X22499502Y8605181D01*
X22500500Y8611481D01*
X22500499Y8974518D01*
X22500499Y8974519D01*
X22500499Y8974524D01*
X22486468Y9063116D01*
X22495423Y9132409D01*
X22501549Y9144504D01*
X22543095Y9216464D01*
X22575500Y9337399D01*
X22575500Y9462601D01*
X22543095Y9583536D01*
X22480495Y9691964D01*
X22391964Y9780495D01*
X22283536Y9843095D01*
X22283537Y9843095D01*
X22243224Y9853897D01*
X22162601Y9875500D01*
X22037399Y9875500D01*
X21956775Y9853897D01*
X21916463Y9843095D01*
X21808037Y9780496D01*
X21808034Y9780494D01*
X21719506Y9691966D01*
X21719504Y9691963D01*
X21656905Y9583537D01*
X21656903Y9583532D01*
X21643454Y9533341D01*
X21635436Y9519456D01*
X21632512Y9506010D01*
X21611361Y9477756D01*
X21513424Y9379819D01*
X21452101Y9346334D01*
X21425743Y9343500D01*
X20893482Y9343500D01*
X20799696Y9328646D01*
X20785724Y9321527D01*
X20717055Y9308633D01*
X20652315Y9334912D01*
X20612060Y9392019D01*
X20609232Y9458040D01*
X20609120Y9458057D01*
X20609207Y9458611D01*
X20609070Y9461825D01*
X20610519Y9466895D01*
X20610646Y9467696D01*
X20625500Y9561481D01*
X20625499Y9924518D01*
X20610646Y10018304D01*
X20553050Y10131342D01*
X20553046Y10131346D01*
X20553045Y10131348D01*
X20463347Y10221046D01*
X20463344Y10221048D01*
X20463342Y10221050D01*
X20381633Y10262683D01*
X20350301Y10278648D01*
X20256524Y10293500D01*
X19018482Y10293500D01*
X18937519Y10280677D01*
X18924696Y10278646D01*
X18811658Y10221050D01*
X18811657Y10221049D01*
X18811652Y10221046D01*
X18721949Y10131343D01*
X18716376Y10123671D01*
X18661047Y10081005D01*
X18591433Y10075026D01*
X18529638Y10107631D01*
X18525524Y10111824D01*
X18512820Y10125398D01*
X18508076Y10135102D01*
X18440382Y10202796D01*
X18438966Y10204309D01*
X18424130Y10233754D01*
X18408334Y10262683D01*
X18408002Y10265764D01*
X18407528Y10266706D01*
X18407712Y10268465D01*
X18405500Y10289041D01*
X18405500Y11629500D01*
X18425185Y11696539D01*
X18477989Y11742294D01*
X18529500Y11753500D01*
X18672746Y11753500D01*
X18739785Y11733815D01*
X18760428Y11717180D01*
X18801653Y11675954D01*
X18801655Y11675953D01*
X18801658Y11675950D01*
X18892821Y11629500D01*
X18914698Y11618353D01*
X19008475Y11603501D01*
X19008481Y11603500D01*
X20246518Y11603501D01*
X20340304Y11618354D01*
X20453342Y11675950D01*
X20543050Y11765658D01*
X20600646Y11878696D01*
X20600646Y11878698D01*
X20600647Y11878699D01*
X20615499Y11972476D01*
X20615500Y11972481D01*
X20615499Y12335518D01*
X20600646Y12429304D01*
X20600645Y12429306D01*
X20599119Y12438943D01*
X20601142Y12439264D01*
X20599506Y12496506D01*
X20635584Y12556340D01*
X20698284Y12587170D01*
X20767698Y12579208D01*
G37*
%TD.AperFunction*%
%TA.AperFunction,Conductor*%
G36*
X6468092Y7049500D02*
G01*
X6505138Y7049500D01*
X6572177Y7029815D01*
X6617932Y6977011D01*
X6627876Y6907853D01*
X6598851Y6844297D01*
X6592819Y6837819D01*
X6555000Y6800000D01*
X6644095Y6710905D01*
X6677580Y6649582D01*
X6672596Y6579890D01*
X6644095Y6535543D01*
X6089457Y5980905D01*
X6028134Y5947420D01*
X5958442Y5952404D01*
X5914095Y5980905D01*
X5735905Y6159095D01*
X5731573Y6167028D01*
X5724337Y6172442D01*
X5715090Y6197214D01*
X5702420Y6220418D01*
X5703064Y6229433D01*
X5699904Y6237900D01*
X5704970Y6261220D01*
X5704431Y6264218D01*
X5705785Y6267485D01*
X5707404Y6290110D01*
X5713212Y6299150D01*
X5714739Y6306177D01*
X5730650Y6327435D01*
X5731199Y6328757D01*
X5733840Y6331698D01*
X5735841Y6334370D01*
X5735884Y6334436D01*
X5735912Y6334465D01*
X5735915Y6334468D01*
X5737270Y6335824D01*
X5740015Y6338569D01*
X5740034Y6338589D01*
X6201447Y6800001D01*
X6163628Y6837820D01*
X6153015Y6857257D01*
X6138515Y6873990D01*
X6136598Y6887322D01*
X6130143Y6899143D01*
X6131722Y6921230D01*
X6128571Y6943148D01*
X6134166Y6955400D01*
X6135127Y6968835D01*
X6148397Y6986562D01*
X6157596Y7006704D01*
X6168927Y7013987D01*
X6176999Y7024768D01*
X6197744Y7032506D01*
X6216374Y7044478D01*
X6238292Y7047630D01*
X6242463Y7049185D01*
X6251292Y7049501D01*
X6468082Y7049501D01*
X6468092Y7049500D01*
G37*
%TD.AperFunction*%
%TA.AperFunction,Conductor*%
G36*
X6045110Y14047596D02*
G01*
X6089457Y14019095D01*
X6644095Y13464457D01*
X6677580Y13403134D01*
X6672596Y13333442D01*
X6644095Y13289095D01*
X6555000Y13200000D01*
X6592819Y13162181D01*
X6626304Y13100858D01*
X6621320Y13031166D01*
X6579448Y12975233D01*
X6513984Y12950816D01*
X6505138Y12950500D01*
X6251310Y12950500D01*
X6184271Y12970185D01*
X6138516Y13022989D01*
X6128572Y13092147D01*
X6157597Y13155703D01*
X6163629Y13162182D01*
X6201447Y13200001D01*
X5740034Y13661414D01*
X5740023Y13661424D01*
X5735894Y13665554D01*
X5718520Y13697383D01*
X5702420Y13726867D01*
X5702420Y13726876D01*
X5702417Y13726882D01*
X5705167Y13765280D01*
X5707404Y13796559D01*
X5707408Y13796566D01*
X5707409Y13796573D01*
X5707437Y13796611D01*
X5735905Y13840907D01*
X5914095Y14019095D01*
X5975418Y14052580D01*
X6045110Y14047596D01*
G37*
%TD.AperFunction*%
M02*
