%TF.GenerationSoftware,KiCad,Pcbnew,9.0.3*%
%TF.CreationDate,2025-07-25T19:16:11+05:30*%
%TF.ProjectId,ESPNut-D1,4553504e-7574-42d4-9431-2e6b69636164,0.2*%
%TF.SameCoordinates,Original*%
%TF.FileFunction,AssemblyDrawing,Top*%
%FSLAX46Y46*%
G04 Gerber Fmt 4.6, Leading zero omitted, Abs format (unit mm)*
G04 Created by KiCad (PCBNEW 9.0.3) date 2025-07-25 19:16:11*
%MOMM*%
%LPD*%
G01*
G04 APERTURE LIST*
%ADD10C,0.060000*%
%ADD11C,0.067500*%
%ADD12C,0.100000*%
G04 APERTURE END LIST*
D10*
X30292429Y17276478D02*
X30392429Y17276478D01*
X30435286Y17119335D02*
X30292429Y17119335D01*
X30292429Y17119335D02*
X30292429Y17419335D01*
X30292429Y17419335D02*
X30435286Y17419335D01*
X30549572Y17133620D02*
X30592430Y17119335D01*
X30592430Y17119335D02*
X30663858Y17119335D01*
X30663858Y17119335D02*
X30692430Y17133620D01*
X30692430Y17133620D02*
X30706715Y17147906D01*
X30706715Y17147906D02*
X30721001Y17176478D01*
X30721001Y17176478D02*
X30721001Y17205049D01*
X30721001Y17205049D02*
X30706715Y17233620D01*
X30706715Y17233620D02*
X30692430Y17247906D01*
X30692430Y17247906D02*
X30663858Y17262192D01*
X30663858Y17262192D02*
X30606715Y17276478D01*
X30606715Y17276478D02*
X30578144Y17290763D01*
X30578144Y17290763D02*
X30563858Y17305049D01*
X30563858Y17305049D02*
X30549572Y17333620D01*
X30549572Y17333620D02*
X30549572Y17362192D01*
X30549572Y17362192D02*
X30563858Y17390763D01*
X30563858Y17390763D02*
X30578144Y17405049D01*
X30578144Y17405049D02*
X30606715Y17419335D01*
X30606715Y17419335D02*
X30678144Y17419335D01*
X30678144Y17419335D02*
X30721001Y17405049D01*
X30849572Y17119335D02*
X30849572Y17419335D01*
X30849572Y17419335D02*
X30963858Y17419335D01*
X30963858Y17419335D02*
X30992429Y17405049D01*
X30992429Y17405049D02*
X31006715Y17390763D01*
X31006715Y17390763D02*
X31021001Y17362192D01*
X31021001Y17362192D02*
X31021001Y17319335D01*
X31021001Y17319335D02*
X31006715Y17290763D01*
X31006715Y17290763D02*
X30992429Y17276478D01*
X30992429Y17276478D02*
X30963858Y17262192D01*
X30963858Y17262192D02*
X30849572Y17262192D01*
X31078144Y17090763D02*
X31306715Y17090763D01*
X31335286Y17419335D02*
X31435286Y17119335D01*
X31435286Y17119335D02*
X31535286Y17419335D01*
X31635286Y17119335D02*
X31635286Y17419335D01*
X31635286Y17419335D02*
X31706715Y17419335D01*
X31706715Y17419335D02*
X31749572Y17405049D01*
X31749572Y17405049D02*
X31778143Y17376478D01*
X31778143Y17376478D02*
X31792429Y17347906D01*
X31792429Y17347906D02*
X31806715Y17290763D01*
X31806715Y17290763D02*
X31806715Y17247906D01*
X31806715Y17247906D02*
X31792429Y17190763D01*
X31792429Y17190763D02*
X31778143Y17162192D01*
X31778143Y17162192D02*
X31749572Y17133620D01*
X31749572Y17133620D02*
X31706715Y17119335D01*
X31706715Y17119335D02*
X31635286Y17119335D01*
X31935286Y17119335D02*
X31935286Y17419335D01*
X31935286Y17419335D02*
X32006715Y17419335D01*
X32006715Y17419335D02*
X32049572Y17405049D01*
X32049572Y17405049D02*
X32078143Y17376478D01*
X32078143Y17376478D02*
X32092429Y17347906D01*
X32092429Y17347906D02*
X32106715Y17290763D01*
X32106715Y17290763D02*
X32106715Y17247906D01*
X32106715Y17247906D02*
X32092429Y17190763D01*
X32092429Y17190763D02*
X32078143Y17162192D01*
X32078143Y17162192D02*
X32049572Y17133620D01*
X32049572Y17133620D02*
X32006715Y17119335D01*
X32006715Y17119335D02*
X31935286Y17119335D01*
X32163858Y17090763D02*
X32392429Y17090763D01*
X32449571Y17133620D02*
X32492429Y17119335D01*
X32492429Y17119335D02*
X32563857Y17119335D01*
X32563857Y17119335D02*
X32592429Y17133620D01*
X32592429Y17133620D02*
X32606714Y17147906D01*
X32606714Y17147906D02*
X32621000Y17176478D01*
X32621000Y17176478D02*
X32621000Y17205049D01*
X32621000Y17205049D02*
X32606714Y17233620D01*
X32606714Y17233620D02*
X32592429Y17247906D01*
X32592429Y17247906D02*
X32563857Y17262192D01*
X32563857Y17262192D02*
X32506714Y17276478D01*
X32506714Y17276478D02*
X32478143Y17290763D01*
X32478143Y17290763D02*
X32463857Y17305049D01*
X32463857Y17305049D02*
X32449571Y17333620D01*
X32449571Y17333620D02*
X32449571Y17362192D01*
X32449571Y17362192D02*
X32463857Y17390763D01*
X32463857Y17390763D02*
X32478143Y17405049D01*
X32478143Y17405049D02*
X32506714Y17419335D01*
X32506714Y17419335D02*
X32578143Y17419335D01*
X32578143Y17419335D02*
X32621000Y17405049D01*
X32721000Y17419335D02*
X32792428Y17119335D01*
X32792428Y17119335D02*
X32849571Y17333620D01*
X32849571Y17333620D02*
X32906714Y17119335D01*
X32906714Y17119335D02*
X32978143Y17419335D01*
X31161000Y17803620D02*
X31203858Y17789335D01*
X31203858Y17789335D02*
X31275286Y17789335D01*
X31275286Y17789335D02*
X31303858Y17803620D01*
X31303858Y17803620D02*
X31318143Y17817906D01*
X31318143Y17817906D02*
X31332429Y17846478D01*
X31332429Y17846478D02*
X31332429Y17875049D01*
X31332429Y17875049D02*
X31318143Y17903620D01*
X31318143Y17903620D02*
X31303858Y17917906D01*
X31303858Y17917906D02*
X31275286Y17932192D01*
X31275286Y17932192D02*
X31218143Y17946478D01*
X31218143Y17946478D02*
X31189572Y17960763D01*
X31189572Y17960763D02*
X31175286Y17975049D01*
X31175286Y17975049D02*
X31161000Y18003620D01*
X31161000Y18003620D02*
X31161000Y18032192D01*
X31161000Y18032192D02*
X31175286Y18060763D01*
X31175286Y18060763D02*
X31189572Y18075049D01*
X31189572Y18075049D02*
X31218143Y18089335D01*
X31218143Y18089335D02*
X31289572Y18089335D01*
X31289572Y18089335D02*
X31332429Y18075049D01*
X31432429Y18089335D02*
X31503857Y17789335D01*
X31503857Y17789335D02*
X31561000Y18003620D01*
X31561000Y18003620D02*
X31618143Y17789335D01*
X31618143Y17789335D02*
X31689572Y18089335D01*
X31775286Y18089335D02*
X31961000Y18089335D01*
X31961000Y18089335D02*
X31861000Y17975049D01*
X31861000Y17975049D02*
X31903857Y17975049D01*
X31903857Y17975049D02*
X31932429Y17960763D01*
X31932429Y17960763D02*
X31946714Y17946478D01*
X31946714Y17946478D02*
X31961000Y17917906D01*
X31961000Y17917906D02*
X31961000Y17846478D01*
X31961000Y17846478D02*
X31946714Y17817906D01*
X31946714Y17817906D02*
X31932429Y17803620D01*
X31932429Y17803620D02*
X31903857Y17789335D01*
X31903857Y17789335D02*
X31818143Y17789335D01*
X31818143Y17789335D02*
X31789571Y17803620D01*
X31789571Y17803620D02*
X31775286Y17817906D01*
X27591858Y5779335D02*
X27420429Y5779335D01*
X27506144Y5779335D02*
X27506144Y6079335D01*
X27506144Y6079335D02*
X27477572Y6036478D01*
X27477572Y6036478D02*
X27449001Y6007906D01*
X27449001Y6007906D02*
X27420429Y5993620D01*
X27777572Y6079335D02*
X27806143Y6079335D01*
X27806143Y6079335D02*
X27834715Y6065049D01*
X27834715Y6065049D02*
X27849001Y6050763D01*
X27849001Y6050763D02*
X27863286Y6022192D01*
X27863286Y6022192D02*
X27877572Y5965049D01*
X27877572Y5965049D02*
X27877572Y5893620D01*
X27877572Y5893620D02*
X27863286Y5836478D01*
X27863286Y5836478D02*
X27849001Y5807906D01*
X27849001Y5807906D02*
X27834715Y5793620D01*
X27834715Y5793620D02*
X27806143Y5779335D01*
X27806143Y5779335D02*
X27777572Y5779335D01*
X27777572Y5779335D02*
X27749001Y5793620D01*
X27749001Y5793620D02*
X27734715Y5807906D01*
X27734715Y5807906D02*
X27720429Y5836478D01*
X27720429Y5836478D02*
X27706143Y5893620D01*
X27706143Y5893620D02*
X27706143Y5965049D01*
X27706143Y5965049D02*
X27720429Y6022192D01*
X27720429Y6022192D02*
X27734715Y6050763D01*
X27734715Y6050763D02*
X27749001Y6065049D01*
X27749001Y6065049D02*
X27777572Y6079335D01*
X28006143Y5779335D02*
X28006143Y6079335D01*
X28177572Y5779335D02*
X28049000Y5950763D01*
X28177572Y6079335D02*
X28006143Y5907906D01*
X27940665Y6596145D02*
X27797808Y6496145D01*
X27940665Y6424716D02*
X27640665Y6424716D01*
X27640665Y6424716D02*
X27640665Y6539002D01*
X27640665Y6539002D02*
X27654951Y6567573D01*
X27654951Y6567573D02*
X27669237Y6581859D01*
X27669237Y6581859D02*
X27697808Y6596145D01*
X27697808Y6596145D02*
X27740665Y6596145D01*
X27740665Y6596145D02*
X27769237Y6581859D01*
X27769237Y6581859D02*
X27783522Y6567573D01*
X27783522Y6567573D02*
X27797808Y6539002D01*
X27797808Y6539002D02*
X27797808Y6424716D01*
X27940665Y6881859D02*
X27940665Y6710430D01*
X27940665Y6796145D02*
X27640665Y6796145D01*
X27640665Y6796145D02*
X27683522Y6767573D01*
X27683522Y6767573D02*
X27712094Y6739002D01*
X27712094Y6739002D02*
X27726380Y6710430D01*
X27640665Y7067573D02*
X27640665Y7096144D01*
X27640665Y7096144D02*
X27654951Y7124716D01*
X27654951Y7124716D02*
X27669237Y7139001D01*
X27669237Y7139001D02*
X27697808Y7153287D01*
X27697808Y7153287D02*
X27754951Y7167573D01*
X27754951Y7167573D02*
X27826380Y7167573D01*
X27826380Y7167573D02*
X27883522Y7153287D01*
X27883522Y7153287D02*
X27912094Y7139001D01*
X27912094Y7139001D02*
X27926380Y7124716D01*
X27926380Y7124716D02*
X27940665Y7096144D01*
X27940665Y7096144D02*
X27940665Y7067573D01*
X27940665Y7067573D02*
X27926380Y7039001D01*
X27926380Y7039001D02*
X27912094Y7024716D01*
X27912094Y7024716D02*
X27883522Y7010430D01*
X27883522Y7010430D02*
X27826380Y6996144D01*
X27826380Y6996144D02*
X27754951Y6996144D01*
X27754951Y6996144D02*
X27697808Y7010430D01*
X27697808Y7010430D02*
X27669237Y7024716D01*
X27669237Y7024716D02*
X27654951Y7039001D01*
X27654951Y7039001D02*
X27640665Y7067573D01*
D11*
X15685714Y4556889D02*
X15698571Y4569746D01*
X15698571Y4569746D02*
X15724286Y4582603D01*
X15724286Y4582603D02*
X15788571Y4582603D01*
X15788571Y4582603D02*
X15814286Y4569746D01*
X15814286Y4569746D02*
X15827143Y4556889D01*
X15827143Y4556889D02*
X15840000Y4531175D01*
X15840000Y4531175D02*
X15840000Y4505460D01*
X15840000Y4505460D02*
X15827143Y4466889D01*
X15827143Y4466889D02*
X15672857Y4312603D01*
X15672857Y4312603D02*
X15840000Y4312603D01*
X15942857Y4556889D02*
X15955714Y4569746D01*
X15955714Y4569746D02*
X15981429Y4582603D01*
X15981429Y4582603D02*
X16045714Y4582603D01*
X16045714Y4582603D02*
X16071429Y4569746D01*
X16071429Y4569746D02*
X16084286Y4556889D01*
X16084286Y4556889D02*
X16097143Y4531175D01*
X16097143Y4531175D02*
X16097143Y4505460D01*
X16097143Y4505460D02*
X16084286Y4466889D01*
X16084286Y4466889D02*
X15930000Y4312603D01*
X15930000Y4312603D02*
X16097143Y4312603D01*
X16264286Y4582603D02*
X16290000Y4582603D01*
X16290000Y4582603D02*
X16315714Y4569746D01*
X16315714Y4569746D02*
X16328572Y4556889D01*
X16328572Y4556889D02*
X16341429Y4531175D01*
X16341429Y4531175D02*
X16354286Y4479746D01*
X16354286Y4479746D02*
X16354286Y4415460D01*
X16354286Y4415460D02*
X16341429Y4364032D01*
X16341429Y4364032D02*
X16328572Y4338318D01*
X16328572Y4338318D02*
X16315714Y4325460D01*
X16315714Y4325460D02*
X16290000Y4312603D01*
X16290000Y4312603D02*
X16264286Y4312603D01*
X16264286Y4312603D02*
X16238572Y4325460D01*
X16238572Y4325460D02*
X16225714Y4338318D01*
X16225714Y4338318D02*
X16212857Y4364032D01*
X16212857Y4364032D02*
X16200000Y4415460D01*
X16200000Y4415460D02*
X16200000Y4479746D01*
X16200000Y4479746D02*
X16212857Y4531175D01*
X16212857Y4531175D02*
X16225714Y4556889D01*
X16225714Y4556889D02*
X16238572Y4569746D01*
X16238572Y4569746D02*
X16264286Y4582603D01*
X16624286Y4312603D02*
X16534286Y4441175D01*
X16470000Y4312603D02*
X16470000Y4582603D01*
X16470000Y4582603D02*
X16572857Y4582603D01*
X16572857Y4582603D02*
X16598572Y4569746D01*
X16598572Y4569746D02*
X16611429Y4556889D01*
X16611429Y4556889D02*
X16624286Y4531175D01*
X16624286Y4531175D02*
X16624286Y4492603D01*
X16624286Y4492603D02*
X16611429Y4466889D01*
X16611429Y4466889D02*
X16598572Y4454032D01*
X16598572Y4454032D02*
X16572857Y4441175D01*
X16572857Y4441175D02*
X16470000Y4441175D01*
X16150000Y3722603D02*
X16060000Y3851175D01*
X15995714Y3722603D02*
X15995714Y3992603D01*
X15995714Y3992603D02*
X16098571Y3992603D01*
X16098571Y3992603D02*
X16124286Y3979746D01*
X16124286Y3979746D02*
X16137143Y3966889D01*
X16137143Y3966889D02*
X16150000Y3941175D01*
X16150000Y3941175D02*
X16150000Y3902603D01*
X16150000Y3902603D02*
X16137143Y3876889D01*
X16137143Y3876889D02*
X16124286Y3864032D01*
X16124286Y3864032D02*
X16098571Y3851175D01*
X16098571Y3851175D02*
X15995714Y3851175D01*
X16240000Y3992603D02*
X16420000Y3992603D01*
X16420000Y3992603D02*
X16304286Y3722603D01*
X12956428Y9293318D02*
X12943571Y9280460D01*
X12943571Y9280460D02*
X12904999Y9267603D01*
X12904999Y9267603D02*
X12879285Y9267603D01*
X12879285Y9267603D02*
X12840714Y9280460D01*
X12840714Y9280460D02*
X12814999Y9306175D01*
X12814999Y9306175D02*
X12802142Y9331889D01*
X12802142Y9331889D02*
X12789285Y9383318D01*
X12789285Y9383318D02*
X12789285Y9421889D01*
X12789285Y9421889D02*
X12802142Y9473318D01*
X12802142Y9473318D02*
X12814999Y9499032D01*
X12814999Y9499032D02*
X12840714Y9524746D01*
X12840714Y9524746D02*
X12879285Y9537603D01*
X12879285Y9537603D02*
X12904999Y9537603D01*
X12904999Y9537603D02*
X12943571Y9524746D01*
X12943571Y9524746D02*
X12956428Y9511889D01*
X13072142Y9267603D02*
X13072142Y9537603D01*
X13072142Y9409032D02*
X13226428Y9409032D01*
X13226428Y9267603D02*
X13226428Y9537603D01*
X13329285Y9537603D02*
X13496428Y9537603D01*
X13496428Y9537603D02*
X13406428Y9434746D01*
X13406428Y9434746D02*
X13444999Y9434746D01*
X13444999Y9434746D02*
X13470714Y9421889D01*
X13470714Y9421889D02*
X13483571Y9409032D01*
X13483571Y9409032D02*
X13496428Y9383318D01*
X13496428Y9383318D02*
X13496428Y9319032D01*
X13496428Y9319032D02*
X13483571Y9293318D01*
X13483571Y9293318D02*
X13470714Y9280460D01*
X13470714Y9280460D02*
X13444999Y9267603D01*
X13444999Y9267603D02*
X13367856Y9267603D01*
X13367856Y9267603D02*
X13342142Y9280460D01*
X13342142Y9280460D02*
X13329285Y9293318D01*
X13727857Y9447603D02*
X13727857Y9267603D01*
X13663571Y9550460D02*
X13599285Y9357603D01*
X13599285Y9357603D02*
X13766428Y9357603D01*
X13920714Y9537603D02*
X13946428Y9537603D01*
X13946428Y9537603D02*
X13972142Y9524746D01*
X13972142Y9524746D02*
X13985000Y9511889D01*
X13985000Y9511889D02*
X13997857Y9486175D01*
X13997857Y9486175D02*
X14010714Y9434746D01*
X14010714Y9434746D02*
X14010714Y9370460D01*
X14010714Y9370460D02*
X13997857Y9319032D01*
X13997857Y9319032D02*
X13985000Y9293318D01*
X13985000Y9293318D02*
X13972142Y9280460D01*
X13972142Y9280460D02*
X13946428Y9267603D01*
X13946428Y9267603D02*
X13920714Y9267603D01*
X13920714Y9267603D02*
X13895000Y9280460D01*
X13895000Y9280460D02*
X13882142Y9293318D01*
X13882142Y9293318D02*
X13869285Y9319032D01*
X13869285Y9319032D02*
X13856428Y9370460D01*
X13856428Y9370460D02*
X13856428Y9434746D01*
X13856428Y9434746D02*
X13869285Y9486175D01*
X13869285Y9486175D02*
X13882142Y9511889D01*
X13882142Y9511889D02*
X13895000Y9524746D01*
X13895000Y9524746D02*
X13920714Y9537603D01*
X14267857Y9524746D02*
X14242143Y9537603D01*
X14242143Y9537603D02*
X14203571Y9537603D01*
X14203571Y9537603D02*
X14165000Y9524746D01*
X14165000Y9524746D02*
X14139285Y9499032D01*
X14139285Y9499032D02*
X14126428Y9473318D01*
X14126428Y9473318D02*
X14113571Y9421889D01*
X14113571Y9421889D02*
X14113571Y9383318D01*
X14113571Y9383318D02*
X14126428Y9331889D01*
X14126428Y9331889D02*
X14139285Y9306175D01*
X14139285Y9306175D02*
X14165000Y9280460D01*
X14165000Y9280460D02*
X14203571Y9267603D01*
X14203571Y9267603D02*
X14229285Y9267603D01*
X14229285Y9267603D02*
X14267857Y9280460D01*
X14267857Y9280460D02*
X14280714Y9293318D01*
X14280714Y9293318D02*
X14280714Y9383318D01*
X14280714Y9383318D02*
X14229285Y9383318D01*
X13319285Y10147603D02*
X13319285Y9929032D01*
X13319285Y9929032D02*
X13332142Y9903318D01*
X13332142Y9903318D02*
X13345000Y9890460D01*
X13345000Y9890460D02*
X13370714Y9877603D01*
X13370714Y9877603D02*
X13422142Y9877603D01*
X13422142Y9877603D02*
X13447857Y9890460D01*
X13447857Y9890460D02*
X13460714Y9903318D01*
X13460714Y9903318D02*
X13473571Y9929032D01*
X13473571Y9929032D02*
X13473571Y10147603D01*
X13743571Y9877603D02*
X13589285Y9877603D01*
X13666428Y9877603D02*
X13666428Y10147603D01*
X13666428Y10147603D02*
X13640714Y10109032D01*
X13640714Y10109032D02*
X13614999Y10083318D01*
X13614999Y10083318D02*
X13589285Y10070460D01*
X9737857Y11762603D02*
X9737857Y12032603D01*
X9737857Y12032603D02*
X9802143Y12032603D01*
X9802143Y12032603D02*
X9840714Y12019746D01*
X9840714Y12019746D02*
X9866429Y11994032D01*
X9866429Y11994032D02*
X9879286Y11968318D01*
X9879286Y11968318D02*
X9892143Y11916889D01*
X9892143Y11916889D02*
X9892143Y11878318D01*
X9892143Y11878318D02*
X9879286Y11826889D01*
X9879286Y11826889D02*
X9866429Y11801175D01*
X9866429Y11801175D02*
X9840714Y11775460D01*
X9840714Y11775460D02*
X9802143Y11762603D01*
X9802143Y11762603D02*
X9737857Y11762603D01*
X10007857Y11762603D02*
X10007857Y12032603D01*
X10007857Y12032603D02*
X10162143Y11762603D01*
X10162143Y11762603D02*
X10162143Y12032603D01*
X10290714Y11762603D02*
X10290714Y12032603D01*
X10290714Y12032603D02*
X10393571Y12032603D01*
X10393571Y12032603D02*
X10419286Y12019746D01*
X10419286Y12019746D02*
X10432143Y12006889D01*
X10432143Y12006889D02*
X10445000Y11981175D01*
X10445000Y11981175D02*
X10445000Y11942603D01*
X10445000Y11942603D02*
X10432143Y11916889D01*
X10432143Y11916889D02*
X10419286Y11904032D01*
X10419286Y11904032D02*
X10393571Y11891175D01*
X10393571Y11891175D02*
X10290714Y11891175D01*
X8890000Y11782603D02*
X8800000Y11911175D01*
X8735714Y11782603D02*
X8735714Y12052603D01*
X8735714Y12052603D02*
X8838571Y12052603D01*
X8838571Y12052603D02*
X8864286Y12039746D01*
X8864286Y12039746D02*
X8877143Y12026889D01*
X8877143Y12026889D02*
X8890000Y12001175D01*
X8890000Y12001175D02*
X8890000Y11962603D01*
X8890000Y11962603D02*
X8877143Y11936889D01*
X8877143Y11936889D02*
X8864286Y11924032D01*
X8864286Y11924032D02*
X8838571Y11911175D01*
X8838571Y11911175D02*
X8735714Y11911175D01*
X9044286Y11936889D02*
X9018571Y11949746D01*
X9018571Y11949746D02*
X9005714Y11962603D01*
X9005714Y11962603D02*
X8992857Y11988318D01*
X8992857Y11988318D02*
X8992857Y12001175D01*
X8992857Y12001175D02*
X9005714Y12026889D01*
X9005714Y12026889D02*
X9018571Y12039746D01*
X9018571Y12039746D02*
X9044286Y12052603D01*
X9044286Y12052603D02*
X9095714Y12052603D01*
X9095714Y12052603D02*
X9121429Y12039746D01*
X9121429Y12039746D02*
X9134286Y12026889D01*
X9134286Y12026889D02*
X9147143Y12001175D01*
X9147143Y12001175D02*
X9147143Y11988318D01*
X9147143Y11988318D02*
X9134286Y11962603D01*
X9134286Y11962603D02*
X9121429Y11949746D01*
X9121429Y11949746D02*
X9095714Y11936889D01*
X9095714Y11936889D02*
X9044286Y11936889D01*
X9044286Y11936889D02*
X9018571Y11924032D01*
X9018571Y11924032D02*
X9005714Y11911175D01*
X9005714Y11911175D02*
X8992857Y11885460D01*
X8992857Y11885460D02*
X8992857Y11834032D01*
X8992857Y11834032D02*
X9005714Y11808318D01*
X9005714Y11808318D02*
X9018571Y11795460D01*
X9018571Y11795460D02*
X9044286Y11782603D01*
X9044286Y11782603D02*
X9095714Y11782603D01*
X9095714Y11782603D02*
X9121429Y11795460D01*
X9121429Y11795460D02*
X9134286Y11808318D01*
X9134286Y11808318D02*
X9147143Y11834032D01*
X9147143Y11834032D02*
X9147143Y11885460D01*
X9147143Y11885460D02*
X9134286Y11911175D01*
X9134286Y11911175D02*
X9121429Y11924032D01*
X9121429Y11924032D02*
X9095714Y11936889D01*
X8634464Y11919293D02*
X9248393Y11919293D01*
X4700714Y18357889D02*
X4713571Y18370746D01*
X4713571Y18370746D02*
X4739286Y18383603D01*
X4739286Y18383603D02*
X4803571Y18383603D01*
X4803571Y18383603D02*
X4829286Y18370746D01*
X4829286Y18370746D02*
X4842143Y18357889D01*
X4842143Y18357889D02*
X4855000Y18332175D01*
X4855000Y18332175D02*
X4855000Y18306460D01*
X4855000Y18306460D02*
X4842143Y18267889D01*
X4842143Y18267889D02*
X4687857Y18113603D01*
X4687857Y18113603D02*
X4855000Y18113603D01*
X4957857Y18357889D02*
X4970714Y18370746D01*
X4970714Y18370746D02*
X4996429Y18383603D01*
X4996429Y18383603D02*
X5060714Y18383603D01*
X5060714Y18383603D02*
X5086429Y18370746D01*
X5086429Y18370746D02*
X5099286Y18357889D01*
X5099286Y18357889D02*
X5112143Y18332175D01*
X5112143Y18332175D02*
X5112143Y18306460D01*
X5112143Y18306460D02*
X5099286Y18267889D01*
X5099286Y18267889D02*
X4945000Y18113603D01*
X4945000Y18113603D02*
X5112143Y18113603D01*
X5279286Y18383603D02*
X5305000Y18383603D01*
X5305000Y18383603D02*
X5330714Y18370746D01*
X5330714Y18370746D02*
X5343572Y18357889D01*
X5343572Y18357889D02*
X5356429Y18332175D01*
X5356429Y18332175D02*
X5369286Y18280746D01*
X5369286Y18280746D02*
X5369286Y18216460D01*
X5369286Y18216460D02*
X5356429Y18165032D01*
X5356429Y18165032D02*
X5343572Y18139318D01*
X5343572Y18139318D02*
X5330714Y18126460D01*
X5330714Y18126460D02*
X5305000Y18113603D01*
X5305000Y18113603D02*
X5279286Y18113603D01*
X5279286Y18113603D02*
X5253572Y18126460D01*
X5253572Y18126460D02*
X5240714Y18139318D01*
X5240714Y18139318D02*
X5227857Y18165032D01*
X5227857Y18165032D02*
X5215000Y18216460D01*
X5215000Y18216460D02*
X5215000Y18280746D01*
X5215000Y18280746D02*
X5227857Y18332175D01*
X5227857Y18332175D02*
X5240714Y18357889D01*
X5240714Y18357889D02*
X5253572Y18370746D01*
X5253572Y18370746D02*
X5279286Y18383603D01*
X5639286Y18113603D02*
X5549286Y18242175D01*
X5485000Y18113603D02*
X5485000Y18383603D01*
X5485000Y18383603D02*
X5587857Y18383603D01*
X5587857Y18383603D02*
X5613572Y18370746D01*
X5613572Y18370746D02*
X5626429Y18357889D01*
X5626429Y18357889D02*
X5639286Y18332175D01*
X5639286Y18332175D02*
X5639286Y18293603D01*
X5639286Y18293603D02*
X5626429Y18267889D01*
X5626429Y18267889D02*
X5613572Y18255032D01*
X5613572Y18255032D02*
X5587857Y18242175D01*
X5587857Y18242175D02*
X5485000Y18242175D01*
X5090000Y17533603D02*
X5000000Y17662175D01*
X4935714Y17533603D02*
X4935714Y17803603D01*
X4935714Y17803603D02*
X5038571Y17803603D01*
X5038571Y17803603D02*
X5064286Y17790746D01*
X5064286Y17790746D02*
X5077143Y17777889D01*
X5077143Y17777889D02*
X5090000Y17752175D01*
X5090000Y17752175D02*
X5090000Y17713603D01*
X5090000Y17713603D02*
X5077143Y17687889D01*
X5077143Y17687889D02*
X5064286Y17675032D01*
X5064286Y17675032D02*
X5038571Y17662175D01*
X5038571Y17662175D02*
X4935714Y17662175D01*
X5347143Y17533603D02*
X5192857Y17533603D01*
X5270000Y17533603D02*
X5270000Y17803603D01*
X5270000Y17803603D02*
X5244286Y17765032D01*
X5244286Y17765032D02*
X5218571Y17739318D01*
X5218571Y17739318D02*
X5192857Y17726460D01*
D10*
X24638571Y3365763D02*
X24652857Y3380049D01*
X24652857Y3380049D02*
X24681429Y3394335D01*
X24681429Y3394335D02*
X24752857Y3394335D01*
X24752857Y3394335D02*
X24781429Y3380049D01*
X24781429Y3380049D02*
X24795714Y3365763D01*
X24795714Y3365763D02*
X24810000Y3337192D01*
X24810000Y3337192D02*
X24810000Y3308620D01*
X24810000Y3308620D02*
X24795714Y3265763D01*
X24795714Y3265763D02*
X24624286Y3094335D01*
X24624286Y3094335D02*
X24810000Y3094335D01*
X24924285Y3365763D02*
X24938571Y3380049D01*
X24938571Y3380049D02*
X24967143Y3394335D01*
X24967143Y3394335D02*
X25038571Y3394335D01*
X25038571Y3394335D02*
X25067143Y3380049D01*
X25067143Y3380049D02*
X25081428Y3365763D01*
X25081428Y3365763D02*
X25095714Y3337192D01*
X25095714Y3337192D02*
X25095714Y3308620D01*
X25095714Y3308620D02*
X25081428Y3265763D01*
X25081428Y3265763D02*
X24910000Y3094335D01*
X24910000Y3094335D02*
X25095714Y3094335D01*
X25281428Y3394335D02*
X25309999Y3394335D01*
X25309999Y3394335D02*
X25338571Y3380049D01*
X25338571Y3380049D02*
X25352857Y3365763D01*
X25352857Y3365763D02*
X25367142Y3337192D01*
X25367142Y3337192D02*
X25381428Y3280049D01*
X25381428Y3280049D02*
X25381428Y3208620D01*
X25381428Y3208620D02*
X25367142Y3151478D01*
X25367142Y3151478D02*
X25352857Y3122906D01*
X25352857Y3122906D02*
X25338571Y3108620D01*
X25338571Y3108620D02*
X25309999Y3094335D01*
X25309999Y3094335D02*
X25281428Y3094335D01*
X25281428Y3094335D02*
X25252857Y3108620D01*
X25252857Y3108620D02*
X25238571Y3122906D01*
X25238571Y3122906D02*
X25224285Y3151478D01*
X25224285Y3151478D02*
X25209999Y3208620D01*
X25209999Y3208620D02*
X25209999Y3280049D01*
X25209999Y3280049D02*
X25224285Y3337192D01*
X25224285Y3337192D02*
X25238571Y3365763D01*
X25238571Y3365763D02*
X25252857Y3380049D01*
X25252857Y3380049D02*
X25281428Y3394335D01*
X25681428Y3094335D02*
X25581428Y3237192D01*
X25509999Y3094335D02*
X25509999Y3394335D01*
X25509999Y3394335D02*
X25624285Y3394335D01*
X25624285Y3394335D02*
X25652856Y3380049D01*
X25652856Y3380049D02*
X25667142Y3365763D01*
X25667142Y3365763D02*
X25681428Y3337192D01*
X25681428Y3337192D02*
X25681428Y3294335D01*
X25681428Y3294335D02*
X25667142Y3265763D01*
X25667142Y3265763D02*
X25652856Y3251478D01*
X25652856Y3251478D02*
X25624285Y3237192D01*
X25624285Y3237192D02*
X25509999Y3237192D01*
X24982142Y3724335D02*
X24882142Y3867192D01*
X24810713Y3724335D02*
X24810713Y4024335D01*
X24810713Y4024335D02*
X24924999Y4024335D01*
X24924999Y4024335D02*
X24953570Y4010049D01*
X24953570Y4010049D02*
X24967856Y3995763D01*
X24967856Y3995763D02*
X24982142Y3967192D01*
X24982142Y3967192D02*
X24982142Y3924335D01*
X24982142Y3924335D02*
X24967856Y3895763D01*
X24967856Y3895763D02*
X24953570Y3881478D01*
X24953570Y3881478D02*
X24924999Y3867192D01*
X24924999Y3867192D02*
X24810713Y3867192D01*
X25267856Y3724335D02*
X25096427Y3724335D01*
X25182142Y3724335D02*
X25182142Y4024335D01*
X25182142Y4024335D02*
X25153570Y3981478D01*
X25153570Y3981478D02*
X25124999Y3952906D01*
X25124999Y3952906D02*
X25096427Y3938620D01*
X25553570Y3724335D02*
X25382141Y3724335D01*
X25467856Y3724335D02*
X25467856Y4024335D01*
X25467856Y4024335D02*
X25439284Y3981478D01*
X25439284Y3981478D02*
X25410713Y3952906D01*
X25410713Y3952906D02*
X25382141Y3938620D01*
X24720713Y3874335D02*
X25641286Y3874335D01*
D11*
X694999Y1338603D02*
X694999Y1608603D01*
X694999Y1608603D02*
X784999Y1415746D01*
X784999Y1415746D02*
X874999Y1608603D01*
X874999Y1608603D02*
X874999Y1338603D01*
X1042142Y1338603D02*
X1016427Y1351460D01*
X1016427Y1351460D02*
X1003570Y1364318D01*
X1003570Y1364318D02*
X990713Y1390032D01*
X990713Y1390032D02*
X990713Y1467175D01*
X990713Y1467175D02*
X1003570Y1492889D01*
X1003570Y1492889D02*
X1016427Y1505746D01*
X1016427Y1505746D02*
X1042142Y1518603D01*
X1042142Y1518603D02*
X1080713Y1518603D01*
X1080713Y1518603D02*
X1106427Y1505746D01*
X1106427Y1505746D02*
X1119285Y1492889D01*
X1119285Y1492889D02*
X1132142Y1467175D01*
X1132142Y1467175D02*
X1132142Y1390032D01*
X1132142Y1390032D02*
X1119285Y1364318D01*
X1119285Y1364318D02*
X1106427Y1351460D01*
X1106427Y1351460D02*
X1080713Y1338603D01*
X1080713Y1338603D02*
X1042142Y1338603D01*
X1363571Y1518603D02*
X1363571Y1338603D01*
X1247856Y1518603D02*
X1247856Y1377175D01*
X1247856Y1377175D02*
X1260713Y1351460D01*
X1260713Y1351460D02*
X1286428Y1338603D01*
X1286428Y1338603D02*
X1324999Y1338603D01*
X1324999Y1338603D02*
X1350713Y1351460D01*
X1350713Y1351460D02*
X1363571Y1364318D01*
X1492142Y1518603D02*
X1492142Y1338603D01*
X1492142Y1492889D02*
X1504999Y1505746D01*
X1504999Y1505746D02*
X1530714Y1518603D01*
X1530714Y1518603D02*
X1569285Y1518603D01*
X1569285Y1518603D02*
X1594999Y1505746D01*
X1594999Y1505746D02*
X1607857Y1480032D01*
X1607857Y1480032D02*
X1607857Y1338603D01*
X1697857Y1518603D02*
X1800714Y1518603D01*
X1736428Y1608603D02*
X1736428Y1377175D01*
X1736428Y1377175D02*
X1749285Y1351460D01*
X1749285Y1351460D02*
X1775000Y1338603D01*
X1775000Y1338603D02*
X1800714Y1338603D01*
X1890714Y1338603D02*
X1890714Y1518603D01*
X1890714Y1608603D02*
X1877857Y1595746D01*
X1877857Y1595746D02*
X1890714Y1582889D01*
X1890714Y1582889D02*
X1903571Y1595746D01*
X1903571Y1595746D02*
X1890714Y1608603D01*
X1890714Y1608603D02*
X1890714Y1582889D01*
X2019285Y1518603D02*
X2019285Y1338603D01*
X2019285Y1492889D02*
X2032142Y1505746D01*
X2032142Y1505746D02*
X2057857Y1518603D01*
X2057857Y1518603D02*
X2096428Y1518603D01*
X2096428Y1518603D02*
X2122142Y1505746D01*
X2122142Y1505746D02*
X2135000Y1480032D01*
X2135000Y1480032D02*
X2135000Y1338603D01*
X2379286Y1518603D02*
X2379286Y1300032D01*
X2379286Y1300032D02*
X2366428Y1274318D01*
X2366428Y1274318D02*
X2353571Y1261460D01*
X2353571Y1261460D02*
X2327857Y1248603D01*
X2327857Y1248603D02*
X2289286Y1248603D01*
X2289286Y1248603D02*
X2263571Y1261460D01*
X2379286Y1351460D02*
X2353571Y1338603D01*
X2353571Y1338603D02*
X2302143Y1338603D01*
X2302143Y1338603D02*
X2276428Y1351460D01*
X2276428Y1351460D02*
X2263571Y1364318D01*
X2263571Y1364318D02*
X2250714Y1390032D01*
X2250714Y1390032D02*
X2250714Y1467175D01*
X2250714Y1467175D02*
X2263571Y1492889D01*
X2263571Y1492889D02*
X2276428Y1505746D01*
X2276428Y1505746D02*
X2302143Y1518603D01*
X2302143Y1518603D02*
X2353571Y1518603D01*
X2353571Y1518603D02*
X2379286Y1505746D01*
X2713571Y1338603D02*
X2713571Y1608603D01*
X2713571Y1480032D02*
X2867857Y1480032D01*
X2867857Y1338603D02*
X2867857Y1608603D01*
X3035000Y1338603D02*
X3009285Y1351460D01*
X3009285Y1351460D02*
X2996428Y1364318D01*
X2996428Y1364318D02*
X2983571Y1390032D01*
X2983571Y1390032D02*
X2983571Y1467175D01*
X2983571Y1467175D02*
X2996428Y1492889D01*
X2996428Y1492889D02*
X3009285Y1505746D01*
X3009285Y1505746D02*
X3035000Y1518603D01*
X3035000Y1518603D02*
X3073571Y1518603D01*
X3073571Y1518603D02*
X3099285Y1505746D01*
X3099285Y1505746D02*
X3112143Y1492889D01*
X3112143Y1492889D02*
X3125000Y1467175D01*
X3125000Y1467175D02*
X3125000Y1390032D01*
X3125000Y1390032D02*
X3112143Y1364318D01*
X3112143Y1364318D02*
X3099285Y1351460D01*
X3099285Y1351460D02*
X3073571Y1338603D01*
X3073571Y1338603D02*
X3035000Y1338603D01*
X3279286Y1338603D02*
X3253571Y1351460D01*
X3253571Y1351460D02*
X3240714Y1377175D01*
X3240714Y1377175D02*
X3240714Y1608603D01*
X3485000Y1351460D02*
X3459286Y1338603D01*
X3459286Y1338603D02*
X3407858Y1338603D01*
X3407858Y1338603D02*
X3382143Y1351460D01*
X3382143Y1351460D02*
X3369286Y1377175D01*
X3369286Y1377175D02*
X3369286Y1480032D01*
X3369286Y1480032D02*
X3382143Y1505746D01*
X3382143Y1505746D02*
X3407858Y1518603D01*
X3407858Y1518603D02*
X3459286Y1518603D01*
X3459286Y1518603D02*
X3485000Y1505746D01*
X3485000Y1505746D02*
X3497858Y1480032D01*
X3497858Y1480032D02*
X3497858Y1454318D01*
X3497858Y1454318D02*
X3369286Y1428603D01*
X1794285Y1878603D02*
X1794285Y2148603D01*
X1794285Y2020032D02*
X1948571Y2020032D01*
X1948571Y1878603D02*
X1948571Y2148603D01*
X2064285Y2122889D02*
X2077142Y2135746D01*
X2077142Y2135746D02*
X2102857Y2148603D01*
X2102857Y2148603D02*
X2167142Y2148603D01*
X2167142Y2148603D02*
X2192857Y2135746D01*
X2192857Y2135746D02*
X2205714Y2122889D01*
X2205714Y2122889D02*
X2218571Y2097175D01*
X2218571Y2097175D02*
X2218571Y2071460D01*
X2218571Y2071460D02*
X2205714Y2032889D01*
X2205714Y2032889D02*
X2051428Y1878603D01*
X2051428Y1878603D02*
X2218571Y1878603D01*
D10*
X23940951Y4916429D02*
X23940951Y5059286D01*
X24026665Y4887858D02*
X23726665Y4987858D01*
X23726665Y4987858D02*
X24026665Y5087858D01*
X24026665Y5187858D02*
X23726665Y5187858D01*
X23726665Y5187858D02*
X23726665Y5302144D01*
X23726665Y5302144D02*
X23740951Y5330715D01*
X23740951Y5330715D02*
X23755237Y5345001D01*
X23755237Y5345001D02*
X23783808Y5359287D01*
X23783808Y5359287D02*
X23826665Y5359287D01*
X23826665Y5359287D02*
X23855237Y5345001D01*
X23855237Y5345001D02*
X23869522Y5330715D01*
X23869522Y5330715D02*
X23883808Y5302144D01*
X23883808Y5302144D02*
X23883808Y5187858D01*
X23755237Y5473572D02*
X23740951Y5487858D01*
X23740951Y5487858D02*
X23726665Y5516429D01*
X23726665Y5516429D02*
X23726665Y5587858D01*
X23726665Y5587858D02*
X23740951Y5616429D01*
X23740951Y5616429D02*
X23755237Y5630715D01*
X23755237Y5630715D02*
X23783808Y5645001D01*
X23783808Y5645001D02*
X23812380Y5645001D01*
X23812380Y5645001D02*
X23855237Y5630715D01*
X23855237Y5630715D02*
X24026665Y5459287D01*
X24026665Y5459287D02*
X24026665Y5645001D01*
X23755237Y5759286D02*
X23740951Y5773572D01*
X23740951Y5773572D02*
X23726665Y5802143D01*
X23726665Y5802143D02*
X23726665Y5873572D01*
X23726665Y5873572D02*
X23740951Y5902143D01*
X23740951Y5902143D02*
X23755237Y5916429D01*
X23755237Y5916429D02*
X23783808Y5930715D01*
X23783808Y5930715D02*
X23812380Y5930715D01*
X23812380Y5930715D02*
X23855237Y5916429D01*
X23855237Y5916429D02*
X24026665Y5745001D01*
X24026665Y5745001D02*
X24026665Y5930715D01*
X23855237Y6102143D02*
X23840951Y6073572D01*
X23840951Y6073572D02*
X23826665Y6059286D01*
X23826665Y6059286D02*
X23798094Y6045000D01*
X23798094Y6045000D02*
X23783808Y6045000D01*
X23783808Y6045000D02*
X23755237Y6059286D01*
X23755237Y6059286D02*
X23740951Y6073572D01*
X23740951Y6073572D02*
X23726665Y6102143D01*
X23726665Y6102143D02*
X23726665Y6159286D01*
X23726665Y6159286D02*
X23740951Y6187857D01*
X23740951Y6187857D02*
X23755237Y6202143D01*
X23755237Y6202143D02*
X23783808Y6216429D01*
X23783808Y6216429D02*
X23798094Y6216429D01*
X23798094Y6216429D02*
X23826665Y6202143D01*
X23826665Y6202143D02*
X23840951Y6187857D01*
X23840951Y6187857D02*
X23855237Y6159286D01*
X23855237Y6159286D02*
X23855237Y6102143D01*
X23855237Y6102143D02*
X23869522Y6073572D01*
X23869522Y6073572D02*
X23883808Y6059286D01*
X23883808Y6059286D02*
X23912380Y6045000D01*
X23912380Y6045000D02*
X23969522Y6045000D01*
X23969522Y6045000D02*
X23998094Y6059286D01*
X23998094Y6059286D02*
X24012380Y6073572D01*
X24012380Y6073572D02*
X24026665Y6102143D01*
X24026665Y6102143D02*
X24026665Y6159286D01*
X24026665Y6159286D02*
X24012380Y6187857D01*
X24012380Y6187857D02*
X23998094Y6202143D01*
X23998094Y6202143D02*
X23969522Y6216429D01*
X23969522Y6216429D02*
X23912380Y6216429D01*
X23912380Y6216429D02*
X23883808Y6202143D01*
X23883808Y6202143D02*
X23869522Y6187857D01*
X23869522Y6187857D02*
X23855237Y6159286D01*
X23726665Y6402143D02*
X23726665Y6430714D01*
X23726665Y6430714D02*
X23740951Y6459286D01*
X23740951Y6459286D02*
X23755237Y6473571D01*
X23755237Y6473571D02*
X23783808Y6487857D01*
X23783808Y6487857D02*
X23840951Y6502143D01*
X23840951Y6502143D02*
X23912380Y6502143D01*
X23912380Y6502143D02*
X23969522Y6487857D01*
X23969522Y6487857D02*
X23998094Y6473571D01*
X23998094Y6473571D02*
X24012380Y6459286D01*
X24012380Y6459286D02*
X24026665Y6430714D01*
X24026665Y6430714D02*
X24026665Y6402143D01*
X24026665Y6402143D02*
X24012380Y6373571D01*
X24012380Y6373571D02*
X23998094Y6359286D01*
X23998094Y6359286D02*
X23969522Y6345000D01*
X23969522Y6345000D02*
X23912380Y6330714D01*
X23912380Y6330714D02*
X23840951Y6330714D01*
X23840951Y6330714D02*
X23783808Y6345000D01*
X23783808Y6345000D02*
X23755237Y6359286D01*
X23755237Y6359286D02*
X23740951Y6373571D01*
X23740951Y6373571D02*
X23726665Y6402143D01*
X23826665Y6759285D02*
X24026665Y6759285D01*
X23712380Y6687857D02*
X23926665Y6616428D01*
X23926665Y6616428D02*
X23926665Y6802143D01*
X23940951Y6902142D02*
X23940951Y7044999D01*
X24026665Y6873571D02*
X23726665Y6973571D01*
X23726665Y6973571D02*
X24026665Y7073571D01*
X23726665Y7145000D02*
X24026665Y7216428D01*
X24026665Y7216428D02*
X23812380Y7273571D01*
X23812380Y7273571D02*
X24026665Y7330714D01*
X24026665Y7330714D02*
X23726665Y7402142D01*
X23726665Y7659285D02*
X23726665Y7516428D01*
X23726665Y7516428D02*
X23869522Y7502142D01*
X23869522Y7502142D02*
X23855237Y7516428D01*
X23855237Y7516428D02*
X23840951Y7544999D01*
X23840951Y7544999D02*
X23840951Y7616428D01*
X23840951Y7616428D02*
X23855237Y7644999D01*
X23855237Y7644999D02*
X23869522Y7659285D01*
X23869522Y7659285D02*
X23898094Y7673571D01*
X23898094Y7673571D02*
X23969522Y7673571D01*
X23969522Y7673571D02*
X23998094Y7659285D01*
X23998094Y7659285D02*
X24012380Y7644999D01*
X24012380Y7644999D02*
X24026665Y7616428D01*
X24026665Y7616428D02*
X24026665Y7544999D01*
X24026665Y7544999D02*
X24012380Y7516428D01*
X24012380Y7516428D02*
X23998094Y7502142D01*
X24806428Y6483335D02*
X24806428Y6240478D01*
X24806428Y6240478D02*
X24820714Y6211906D01*
X24820714Y6211906D02*
X24835000Y6197620D01*
X24835000Y6197620D02*
X24863571Y6183335D01*
X24863571Y6183335D02*
X24920714Y6183335D01*
X24920714Y6183335D02*
X24949285Y6197620D01*
X24949285Y6197620D02*
X24963571Y6211906D01*
X24963571Y6211906D02*
X24977857Y6240478D01*
X24977857Y6240478D02*
X24977857Y6483335D01*
X25092143Y6483335D02*
X25277857Y6483335D01*
X25277857Y6483335D02*
X25177857Y6369049D01*
X25177857Y6369049D02*
X25220714Y6369049D01*
X25220714Y6369049D02*
X25249286Y6354763D01*
X25249286Y6354763D02*
X25263571Y6340478D01*
X25263571Y6340478D02*
X25277857Y6311906D01*
X25277857Y6311906D02*
X25277857Y6240478D01*
X25277857Y6240478D02*
X25263571Y6211906D01*
X25263571Y6211906D02*
X25249286Y6197620D01*
X25249286Y6197620D02*
X25220714Y6183335D01*
X25220714Y6183335D02*
X25135000Y6183335D01*
X25135000Y6183335D02*
X25106428Y6197620D01*
X25106428Y6197620D02*
X25092143Y6211906D01*
X24085001Y16371478D02*
X24127858Y16357192D01*
X24127858Y16357192D02*
X24142144Y16342906D01*
X24142144Y16342906D02*
X24156430Y16314335D01*
X24156430Y16314335D02*
X24156430Y16271478D01*
X24156430Y16271478D02*
X24142144Y16242906D01*
X24142144Y16242906D02*
X24127858Y16228620D01*
X24127858Y16228620D02*
X24099287Y16214335D01*
X24099287Y16214335D02*
X23985001Y16214335D01*
X23985001Y16214335D02*
X23985001Y16514335D01*
X23985001Y16514335D02*
X24085001Y16514335D01*
X24085001Y16514335D02*
X24113573Y16500049D01*
X24113573Y16500049D02*
X24127858Y16485763D01*
X24127858Y16485763D02*
X24142144Y16457192D01*
X24142144Y16457192D02*
X24142144Y16428620D01*
X24142144Y16428620D02*
X24127858Y16400049D01*
X24127858Y16400049D02*
X24113573Y16385763D01*
X24113573Y16385763D02*
X24085001Y16371478D01*
X24085001Y16371478D02*
X23985001Y16371478D01*
X24242144Y16514335D02*
X24413573Y16514335D01*
X24327858Y16214335D02*
X24327858Y16514335D01*
X24442144Y16185763D02*
X24670715Y16185763D01*
X24742143Y16214335D02*
X24742143Y16514335D01*
X24742143Y16514335D02*
X24856429Y16514335D01*
X24856429Y16514335D02*
X24885000Y16500049D01*
X24885000Y16500049D02*
X24899286Y16485763D01*
X24899286Y16485763D02*
X24913572Y16457192D01*
X24913572Y16457192D02*
X24913572Y16414335D01*
X24913572Y16414335D02*
X24899286Y16385763D01*
X24899286Y16385763D02*
X24885000Y16371478D01*
X24885000Y16371478D02*
X24856429Y16357192D01*
X24856429Y16357192D02*
X24742143Y16357192D01*
X25042143Y16514335D02*
X25042143Y16271478D01*
X25042143Y16271478D02*
X25056429Y16242906D01*
X25056429Y16242906D02*
X25070715Y16228620D01*
X25070715Y16228620D02*
X25099286Y16214335D01*
X25099286Y16214335D02*
X25156429Y16214335D01*
X25156429Y16214335D02*
X25185000Y16228620D01*
X25185000Y16228620D02*
X25199286Y16242906D01*
X25199286Y16242906D02*
X25213572Y16271478D01*
X25213572Y16271478D02*
X25213572Y16514335D01*
X25356429Y16371478D02*
X25456429Y16371478D01*
X25499286Y16214335D02*
X25356429Y16214335D01*
X25356429Y16214335D02*
X25356429Y16514335D01*
X25356429Y16514335D02*
X25499286Y16514335D01*
X24471615Y18829835D02*
X24471615Y18615549D01*
X24471615Y18615549D02*
X24457330Y18572692D01*
X24457330Y18572692D02*
X24428758Y18544120D01*
X24428758Y18544120D02*
X24385901Y18529835D01*
X24385901Y18529835D02*
X24357330Y18529835D01*
X24614472Y18529835D02*
X24614472Y18829835D01*
X24614472Y18829835D02*
X24728758Y18829835D01*
X24728758Y18829835D02*
X24757329Y18815549D01*
X24757329Y18815549D02*
X24771615Y18801263D01*
X24771615Y18801263D02*
X24785901Y18772692D01*
X24785901Y18772692D02*
X24785901Y18729835D01*
X24785901Y18729835D02*
X24771615Y18701263D01*
X24771615Y18701263D02*
X24757329Y18686978D01*
X24757329Y18686978D02*
X24728758Y18672692D01*
X24728758Y18672692D02*
X24614472Y18672692D01*
X24900186Y18801263D02*
X24914472Y18815549D01*
X24914472Y18815549D02*
X24943044Y18829835D01*
X24943044Y18829835D02*
X25014472Y18829835D01*
X25014472Y18829835D02*
X25043044Y18815549D01*
X25043044Y18815549D02*
X25057329Y18801263D01*
X25057329Y18801263D02*
X25071615Y18772692D01*
X25071615Y18772692D02*
X25071615Y18744120D01*
X25071615Y18744120D02*
X25057329Y18701263D01*
X25057329Y18701263D02*
X24885901Y18529835D01*
X24885901Y18529835D02*
X25071615Y18529835D01*
D11*
X704999Y17278603D02*
X704999Y17548603D01*
X704999Y17548603D02*
X794999Y17355746D01*
X794999Y17355746D02*
X884999Y17548603D01*
X884999Y17548603D02*
X884999Y17278603D01*
X1052142Y17278603D02*
X1026427Y17291460D01*
X1026427Y17291460D02*
X1013570Y17304318D01*
X1013570Y17304318D02*
X1000713Y17330032D01*
X1000713Y17330032D02*
X1000713Y17407175D01*
X1000713Y17407175D02*
X1013570Y17432889D01*
X1013570Y17432889D02*
X1026427Y17445746D01*
X1026427Y17445746D02*
X1052142Y17458603D01*
X1052142Y17458603D02*
X1090713Y17458603D01*
X1090713Y17458603D02*
X1116427Y17445746D01*
X1116427Y17445746D02*
X1129285Y17432889D01*
X1129285Y17432889D02*
X1142142Y17407175D01*
X1142142Y17407175D02*
X1142142Y17330032D01*
X1142142Y17330032D02*
X1129285Y17304318D01*
X1129285Y17304318D02*
X1116427Y17291460D01*
X1116427Y17291460D02*
X1090713Y17278603D01*
X1090713Y17278603D02*
X1052142Y17278603D01*
X1373571Y17458603D02*
X1373571Y17278603D01*
X1257856Y17458603D02*
X1257856Y17317175D01*
X1257856Y17317175D02*
X1270713Y17291460D01*
X1270713Y17291460D02*
X1296428Y17278603D01*
X1296428Y17278603D02*
X1334999Y17278603D01*
X1334999Y17278603D02*
X1360713Y17291460D01*
X1360713Y17291460D02*
X1373571Y17304318D01*
X1502142Y17458603D02*
X1502142Y17278603D01*
X1502142Y17432889D02*
X1514999Y17445746D01*
X1514999Y17445746D02*
X1540714Y17458603D01*
X1540714Y17458603D02*
X1579285Y17458603D01*
X1579285Y17458603D02*
X1604999Y17445746D01*
X1604999Y17445746D02*
X1617857Y17420032D01*
X1617857Y17420032D02*
X1617857Y17278603D01*
X1707857Y17458603D02*
X1810714Y17458603D01*
X1746428Y17548603D02*
X1746428Y17317175D01*
X1746428Y17317175D02*
X1759285Y17291460D01*
X1759285Y17291460D02*
X1785000Y17278603D01*
X1785000Y17278603D02*
X1810714Y17278603D01*
X1900714Y17278603D02*
X1900714Y17458603D01*
X1900714Y17548603D02*
X1887857Y17535746D01*
X1887857Y17535746D02*
X1900714Y17522889D01*
X1900714Y17522889D02*
X1913571Y17535746D01*
X1913571Y17535746D02*
X1900714Y17548603D01*
X1900714Y17548603D02*
X1900714Y17522889D01*
X2029285Y17458603D02*
X2029285Y17278603D01*
X2029285Y17432889D02*
X2042142Y17445746D01*
X2042142Y17445746D02*
X2067857Y17458603D01*
X2067857Y17458603D02*
X2106428Y17458603D01*
X2106428Y17458603D02*
X2132142Y17445746D01*
X2132142Y17445746D02*
X2145000Y17420032D01*
X2145000Y17420032D02*
X2145000Y17278603D01*
X2389286Y17458603D02*
X2389286Y17240032D01*
X2389286Y17240032D02*
X2376428Y17214318D01*
X2376428Y17214318D02*
X2363571Y17201460D01*
X2363571Y17201460D02*
X2337857Y17188603D01*
X2337857Y17188603D02*
X2299286Y17188603D01*
X2299286Y17188603D02*
X2273571Y17201460D01*
X2389286Y17291460D02*
X2363571Y17278603D01*
X2363571Y17278603D02*
X2312143Y17278603D01*
X2312143Y17278603D02*
X2286428Y17291460D01*
X2286428Y17291460D02*
X2273571Y17304318D01*
X2273571Y17304318D02*
X2260714Y17330032D01*
X2260714Y17330032D02*
X2260714Y17407175D01*
X2260714Y17407175D02*
X2273571Y17432889D01*
X2273571Y17432889D02*
X2286428Y17445746D01*
X2286428Y17445746D02*
X2312143Y17458603D01*
X2312143Y17458603D02*
X2363571Y17458603D01*
X2363571Y17458603D02*
X2389286Y17445746D01*
X2723571Y17278603D02*
X2723571Y17548603D01*
X2723571Y17420032D02*
X2877857Y17420032D01*
X2877857Y17278603D02*
X2877857Y17548603D01*
X3045000Y17278603D02*
X3019285Y17291460D01*
X3019285Y17291460D02*
X3006428Y17304318D01*
X3006428Y17304318D02*
X2993571Y17330032D01*
X2993571Y17330032D02*
X2993571Y17407175D01*
X2993571Y17407175D02*
X3006428Y17432889D01*
X3006428Y17432889D02*
X3019285Y17445746D01*
X3019285Y17445746D02*
X3045000Y17458603D01*
X3045000Y17458603D02*
X3083571Y17458603D01*
X3083571Y17458603D02*
X3109285Y17445746D01*
X3109285Y17445746D02*
X3122143Y17432889D01*
X3122143Y17432889D02*
X3135000Y17407175D01*
X3135000Y17407175D02*
X3135000Y17330032D01*
X3135000Y17330032D02*
X3122143Y17304318D01*
X3122143Y17304318D02*
X3109285Y17291460D01*
X3109285Y17291460D02*
X3083571Y17278603D01*
X3083571Y17278603D02*
X3045000Y17278603D01*
X3289286Y17278603D02*
X3263571Y17291460D01*
X3263571Y17291460D02*
X3250714Y17317175D01*
X3250714Y17317175D02*
X3250714Y17548603D01*
X3495000Y17291460D02*
X3469286Y17278603D01*
X3469286Y17278603D02*
X3417858Y17278603D01*
X3417858Y17278603D02*
X3392143Y17291460D01*
X3392143Y17291460D02*
X3379286Y17317175D01*
X3379286Y17317175D02*
X3379286Y17420032D01*
X3379286Y17420032D02*
X3392143Y17445746D01*
X3392143Y17445746D02*
X3417858Y17458603D01*
X3417858Y17458603D02*
X3469286Y17458603D01*
X3469286Y17458603D02*
X3495000Y17445746D01*
X3495000Y17445746D02*
X3507858Y17420032D01*
X3507858Y17420032D02*
X3507858Y17394318D01*
X3507858Y17394318D02*
X3379286Y17368603D01*
X1794285Y17878603D02*
X1794285Y18148603D01*
X1794285Y18020032D02*
X1948571Y18020032D01*
X1948571Y17878603D02*
X1948571Y18148603D01*
X2218571Y17878603D02*
X2064285Y17878603D01*
X2141428Y17878603D02*
X2141428Y18148603D01*
X2141428Y18148603D02*
X2115714Y18110032D01*
X2115714Y18110032D02*
X2089999Y18084318D01*
X2089999Y18084318D02*
X2064285Y18071460D01*
X13421428Y16123603D02*
X13447142Y16123603D01*
X13447142Y16123603D02*
X13472856Y16110746D01*
X13472856Y16110746D02*
X13485714Y16097889D01*
X13485714Y16097889D02*
X13498571Y16072175D01*
X13498571Y16072175D02*
X13511428Y16020746D01*
X13511428Y16020746D02*
X13511428Y15956460D01*
X13511428Y15956460D02*
X13498571Y15905032D01*
X13498571Y15905032D02*
X13485714Y15879318D01*
X13485714Y15879318D02*
X13472856Y15866460D01*
X13472856Y15866460D02*
X13447142Y15853603D01*
X13447142Y15853603D02*
X13421428Y15853603D01*
X13421428Y15853603D02*
X13395714Y15866460D01*
X13395714Y15866460D02*
X13382856Y15879318D01*
X13382856Y15879318D02*
X13369999Y15905032D01*
X13369999Y15905032D02*
X13357142Y15956460D01*
X13357142Y15956460D02*
X13357142Y16020746D01*
X13357142Y16020746D02*
X13369999Y16072175D01*
X13369999Y16072175D02*
X13382856Y16097889D01*
X13382856Y16097889D02*
X13395714Y16110746D01*
X13395714Y16110746D02*
X13421428Y16123603D01*
X13627142Y15879318D02*
X13639999Y15866460D01*
X13639999Y15866460D02*
X13627142Y15853603D01*
X13627142Y15853603D02*
X13614285Y15866460D01*
X13614285Y15866460D02*
X13627142Y15879318D01*
X13627142Y15879318D02*
X13627142Y15853603D01*
X13897142Y15853603D02*
X13742856Y15853603D01*
X13819999Y15853603D02*
X13819999Y16123603D01*
X13819999Y16123603D02*
X13794285Y16085032D01*
X13794285Y16085032D02*
X13768570Y16059318D01*
X13768570Y16059318D02*
X13742856Y16046460D01*
X14128571Y16033603D02*
X14128571Y15853603D01*
X14012856Y16033603D02*
X14012856Y15892175D01*
X14012856Y15892175D02*
X14025713Y15866460D01*
X14025713Y15866460D02*
X14051428Y15853603D01*
X14051428Y15853603D02*
X14089999Y15853603D01*
X14089999Y15853603D02*
X14115713Y15866460D01*
X14115713Y15866460D02*
X14128571Y15879318D01*
X14347142Y15995032D02*
X14257142Y15995032D01*
X14257142Y15853603D02*
X14257142Y16123603D01*
X14257142Y16123603D02*
X14385714Y16123603D01*
X12630000Y15909318D02*
X12617143Y15896460D01*
X12617143Y15896460D02*
X12578571Y15883603D01*
X12578571Y15883603D02*
X12552857Y15883603D01*
X12552857Y15883603D02*
X12514286Y15896460D01*
X12514286Y15896460D02*
X12488571Y15922175D01*
X12488571Y15922175D02*
X12475714Y15947889D01*
X12475714Y15947889D02*
X12462857Y15999318D01*
X12462857Y15999318D02*
X12462857Y16037889D01*
X12462857Y16037889D02*
X12475714Y16089318D01*
X12475714Y16089318D02*
X12488571Y16115032D01*
X12488571Y16115032D02*
X12514286Y16140746D01*
X12514286Y16140746D02*
X12552857Y16153603D01*
X12552857Y16153603D02*
X12578571Y16153603D01*
X12578571Y16153603D02*
X12617143Y16140746D01*
X12617143Y16140746D02*
X12630000Y16127889D01*
X12732857Y16127889D02*
X12745714Y16140746D01*
X12745714Y16140746D02*
X12771429Y16153603D01*
X12771429Y16153603D02*
X12835714Y16153603D01*
X12835714Y16153603D02*
X12861429Y16140746D01*
X12861429Y16140746D02*
X12874286Y16127889D01*
X12874286Y16127889D02*
X12887143Y16102175D01*
X12887143Y16102175D02*
X12887143Y16076460D01*
X12887143Y16076460D02*
X12874286Y16037889D01*
X12874286Y16037889D02*
X12720000Y15883603D01*
X12720000Y15883603D02*
X12887143Y15883603D01*
X12533572Y2468603D02*
X12379286Y2468603D01*
X12456429Y2468603D02*
X12456429Y2738603D01*
X12456429Y2738603D02*
X12430715Y2700032D01*
X12430715Y2700032D02*
X12405000Y2674318D01*
X12405000Y2674318D02*
X12379286Y2661460D01*
X12636429Y2712889D02*
X12649286Y2725746D01*
X12649286Y2725746D02*
X12675001Y2738603D01*
X12675001Y2738603D02*
X12739286Y2738603D01*
X12739286Y2738603D02*
X12765001Y2725746D01*
X12765001Y2725746D02*
X12777858Y2712889D01*
X12777858Y2712889D02*
X12790715Y2687175D01*
X12790715Y2687175D02*
X12790715Y2661460D01*
X12790715Y2661460D02*
X12777858Y2622889D01*
X12777858Y2622889D02*
X12623572Y2468603D01*
X12623572Y2468603D02*
X12790715Y2468603D01*
X12906429Y2468603D02*
X12906429Y2738603D01*
X12906429Y2738603D02*
X12996429Y2545746D01*
X12996429Y2545746D02*
X13086429Y2738603D01*
X13086429Y2738603D02*
X13086429Y2468603D01*
X13215000Y2468603D02*
X13215000Y2738603D01*
X13215000Y2610032D02*
X13369286Y2610032D01*
X13369286Y2468603D02*
X13369286Y2738603D01*
X13472143Y2648603D02*
X13613572Y2648603D01*
X13613572Y2648603D02*
X13472143Y2468603D01*
X13472143Y2468603D02*
X13613572Y2468603D01*
X12841428Y3237175D02*
X12841428Y3108603D01*
X12751428Y3378603D02*
X12841428Y3237175D01*
X12841428Y3237175D02*
X12931428Y3378603D01*
X13162857Y3108603D02*
X13008571Y3108603D01*
X13085714Y3108603D02*
X13085714Y3378603D01*
X13085714Y3378603D02*
X13060000Y3340032D01*
X13060000Y3340032D02*
X13034285Y3314318D01*
X13034285Y3314318D02*
X13008571Y3301460D01*
X18628571Y13462603D02*
X18474285Y13462603D01*
X18551428Y13462603D02*
X18551428Y13732603D01*
X18551428Y13732603D02*
X18525714Y13694032D01*
X18525714Y13694032D02*
X18499999Y13668318D01*
X18499999Y13668318D02*
X18474285Y13655460D01*
X18795714Y13732603D02*
X18821428Y13732603D01*
X18821428Y13732603D02*
X18847142Y13719746D01*
X18847142Y13719746D02*
X18860000Y13706889D01*
X18860000Y13706889D02*
X18872857Y13681175D01*
X18872857Y13681175D02*
X18885714Y13629746D01*
X18885714Y13629746D02*
X18885714Y13565460D01*
X18885714Y13565460D02*
X18872857Y13514032D01*
X18872857Y13514032D02*
X18860000Y13488318D01*
X18860000Y13488318D02*
X18847142Y13475460D01*
X18847142Y13475460D02*
X18821428Y13462603D01*
X18821428Y13462603D02*
X18795714Y13462603D01*
X18795714Y13462603D02*
X18770000Y13475460D01*
X18770000Y13475460D02*
X18757142Y13488318D01*
X18757142Y13488318D02*
X18744285Y13514032D01*
X18744285Y13514032D02*
X18731428Y13565460D01*
X18731428Y13565460D02*
X18731428Y13629746D01*
X18731428Y13629746D02*
X18744285Y13681175D01*
X18744285Y13681175D02*
X18757142Y13706889D01*
X18757142Y13706889D02*
X18770000Y13719746D01*
X18770000Y13719746D02*
X18795714Y13732603D01*
X19001428Y13462603D02*
X19001428Y13732603D01*
X19155714Y13462603D02*
X19040000Y13616889D01*
X19155714Y13732603D02*
X19001428Y13578318D01*
X18126397Y13529001D02*
X17997825Y13439001D01*
X18126397Y13374715D02*
X17856397Y13374715D01*
X17856397Y13374715D02*
X17856397Y13477572D01*
X17856397Y13477572D02*
X17869254Y13503287D01*
X17869254Y13503287D02*
X17882111Y13516144D01*
X17882111Y13516144D02*
X17907825Y13529001D01*
X17907825Y13529001D02*
X17946397Y13529001D01*
X17946397Y13529001D02*
X17972111Y13516144D01*
X17972111Y13516144D02*
X17984968Y13503287D01*
X17984968Y13503287D02*
X17997825Y13477572D01*
X17997825Y13477572D02*
X17997825Y13374715D01*
X17856397Y13760429D02*
X17856397Y13709001D01*
X17856397Y13709001D02*
X17869254Y13683287D01*
X17869254Y13683287D02*
X17882111Y13670429D01*
X17882111Y13670429D02*
X17920682Y13644715D01*
X17920682Y13644715D02*
X17972111Y13631858D01*
X17972111Y13631858D02*
X18074968Y13631858D01*
X18074968Y13631858D02*
X18100682Y13644715D01*
X18100682Y13644715D02*
X18113540Y13657572D01*
X18113540Y13657572D02*
X18126397Y13683287D01*
X18126397Y13683287D02*
X18126397Y13734715D01*
X18126397Y13734715D02*
X18113540Y13760429D01*
X18113540Y13760429D02*
X18100682Y13773287D01*
X18100682Y13773287D02*
X18074968Y13786144D01*
X18074968Y13786144D02*
X18010682Y13786144D01*
X18010682Y13786144D02*
X17984968Y13773287D01*
X17984968Y13773287D02*
X17972111Y13760429D01*
X17972111Y13760429D02*
X17959254Y13734715D01*
X17959254Y13734715D02*
X17959254Y13683287D01*
X17959254Y13683287D02*
X17972111Y13657572D01*
X17972111Y13657572D02*
X17984968Y13644715D01*
X17984968Y13644715D02*
X18010682Y13631858D01*
X23521428Y1982603D02*
X23521428Y1802603D01*
X23457142Y2085460D02*
X23392856Y1892603D01*
X23392856Y1892603D02*
X23559999Y1892603D01*
X23637142Y2072603D02*
X23817142Y2072603D01*
X23817142Y2072603D02*
X23701428Y1802603D01*
X23971428Y2072603D02*
X23997142Y2072603D01*
X23997142Y2072603D02*
X24022856Y2059746D01*
X24022856Y2059746D02*
X24035714Y2046889D01*
X24035714Y2046889D02*
X24048571Y2021175D01*
X24048571Y2021175D02*
X24061428Y1969746D01*
X24061428Y1969746D02*
X24061428Y1905460D01*
X24061428Y1905460D02*
X24048571Y1854032D01*
X24048571Y1854032D02*
X24035714Y1828318D01*
X24035714Y1828318D02*
X24022856Y1815460D01*
X24022856Y1815460D02*
X23997142Y1802603D01*
X23997142Y1802603D02*
X23971428Y1802603D01*
X23971428Y1802603D02*
X23945714Y1815460D01*
X23945714Y1815460D02*
X23932856Y1828318D01*
X23932856Y1828318D02*
X23919999Y1854032D01*
X23919999Y1854032D02*
X23907142Y1905460D01*
X23907142Y1905460D02*
X23907142Y1969746D01*
X23907142Y1969746D02*
X23919999Y2021175D01*
X23919999Y2021175D02*
X23932856Y2046889D01*
X23932856Y2046889D02*
X23945714Y2059746D01*
X23945714Y2059746D02*
X23971428Y2072603D01*
X24177142Y1982603D02*
X24177142Y1712603D01*
X24177142Y1969746D02*
X24202857Y1982603D01*
X24202857Y1982603D02*
X24254285Y1982603D01*
X24254285Y1982603D02*
X24279999Y1969746D01*
X24279999Y1969746D02*
X24292857Y1956889D01*
X24292857Y1956889D02*
X24305714Y1931175D01*
X24305714Y1931175D02*
X24305714Y1854032D01*
X24305714Y1854032D02*
X24292857Y1828318D01*
X24292857Y1828318D02*
X24279999Y1815460D01*
X24279999Y1815460D02*
X24254285Y1802603D01*
X24254285Y1802603D02*
X24202857Y1802603D01*
X24202857Y1802603D02*
X24177142Y1815460D01*
X24511428Y1944032D02*
X24421428Y1944032D01*
X24421428Y1802603D02*
X24421428Y2072603D01*
X24421428Y2072603D02*
X24550000Y2072603D01*
X22650000Y1848318D02*
X22637143Y1835460D01*
X22637143Y1835460D02*
X22598571Y1822603D01*
X22598571Y1822603D02*
X22572857Y1822603D01*
X22572857Y1822603D02*
X22534286Y1835460D01*
X22534286Y1835460D02*
X22508571Y1861175D01*
X22508571Y1861175D02*
X22495714Y1886889D01*
X22495714Y1886889D02*
X22482857Y1938318D01*
X22482857Y1938318D02*
X22482857Y1976889D01*
X22482857Y1976889D02*
X22495714Y2028318D01*
X22495714Y2028318D02*
X22508571Y2054032D01*
X22508571Y2054032D02*
X22534286Y2079746D01*
X22534286Y2079746D02*
X22572857Y2092603D01*
X22572857Y2092603D02*
X22598571Y2092603D01*
X22598571Y2092603D02*
X22637143Y2079746D01*
X22637143Y2079746D02*
X22650000Y2066889D01*
X22881429Y2002603D02*
X22881429Y1822603D01*
X22817143Y2105460D02*
X22752857Y1912603D01*
X22752857Y1912603D02*
X22920000Y1912603D01*
X9161429Y15753603D02*
X9032857Y15753603D01*
X9032857Y15753603D02*
X9020000Y15625032D01*
X9020000Y15625032D02*
X9032857Y15637889D01*
X9032857Y15637889D02*
X9058572Y15650746D01*
X9058572Y15650746D02*
X9122857Y15650746D01*
X9122857Y15650746D02*
X9148572Y15637889D01*
X9148572Y15637889D02*
X9161429Y15625032D01*
X9161429Y15625032D02*
X9174286Y15599318D01*
X9174286Y15599318D02*
X9174286Y15535032D01*
X9174286Y15535032D02*
X9161429Y15509318D01*
X9161429Y15509318D02*
X9148572Y15496460D01*
X9148572Y15496460D02*
X9122857Y15483603D01*
X9122857Y15483603D02*
X9058572Y15483603D01*
X9058572Y15483603D02*
X9032857Y15496460D01*
X9032857Y15496460D02*
X9020000Y15509318D01*
X9290000Y15509318D02*
X9302857Y15496460D01*
X9302857Y15496460D02*
X9290000Y15483603D01*
X9290000Y15483603D02*
X9277143Y15496460D01*
X9277143Y15496460D02*
X9290000Y15509318D01*
X9290000Y15509318D02*
X9290000Y15483603D01*
X9560000Y15483603D02*
X9405714Y15483603D01*
X9482857Y15483603D02*
X9482857Y15753603D01*
X9482857Y15753603D02*
X9457143Y15715032D01*
X9457143Y15715032D02*
X9431428Y15689318D01*
X9431428Y15689318D02*
X9405714Y15676460D01*
X9675714Y15483603D02*
X9675714Y15753603D01*
X9830000Y15483603D02*
X9714286Y15637889D01*
X9830000Y15753603D02*
X9675714Y15599318D01*
X8596397Y15540001D02*
X8467825Y15450001D01*
X8596397Y15385715D02*
X8326397Y15385715D01*
X8326397Y15385715D02*
X8326397Y15488572D01*
X8326397Y15488572D02*
X8339254Y15514287D01*
X8339254Y15514287D02*
X8352111Y15527144D01*
X8352111Y15527144D02*
X8377825Y15540001D01*
X8377825Y15540001D02*
X8416397Y15540001D01*
X8416397Y15540001D02*
X8442111Y15527144D01*
X8442111Y15527144D02*
X8454968Y15514287D01*
X8454968Y15514287D02*
X8467825Y15488572D01*
X8467825Y15488572D02*
X8467825Y15385715D01*
X8352111Y15642858D02*
X8339254Y15655715D01*
X8339254Y15655715D02*
X8326397Y15681429D01*
X8326397Y15681429D02*
X8326397Y15745715D01*
X8326397Y15745715D02*
X8339254Y15771429D01*
X8339254Y15771429D02*
X8352111Y15784287D01*
X8352111Y15784287D02*
X8377825Y15797144D01*
X8377825Y15797144D02*
X8403540Y15797144D01*
X8403540Y15797144D02*
X8442111Y15784287D01*
X8442111Y15784287D02*
X8596397Y15630001D01*
X8596397Y15630001D02*
X8596397Y15797144D01*
X20083571Y7033032D02*
X20122143Y7020175D01*
X20122143Y7020175D02*
X20135000Y7007318D01*
X20135000Y7007318D02*
X20147857Y6981603D01*
X20147857Y6981603D02*
X20147857Y6943032D01*
X20147857Y6943032D02*
X20135000Y6917318D01*
X20135000Y6917318D02*
X20122143Y6904460D01*
X20122143Y6904460D02*
X20096428Y6891603D01*
X20096428Y6891603D02*
X19993571Y6891603D01*
X19993571Y6891603D02*
X19993571Y7161603D01*
X19993571Y7161603D02*
X20083571Y7161603D01*
X20083571Y7161603D02*
X20109286Y7148746D01*
X20109286Y7148746D02*
X20122143Y7135889D01*
X20122143Y7135889D02*
X20135000Y7110175D01*
X20135000Y7110175D02*
X20135000Y7084460D01*
X20135000Y7084460D02*
X20122143Y7058746D01*
X20122143Y7058746D02*
X20109286Y7045889D01*
X20109286Y7045889D02*
X20083571Y7033032D01*
X20083571Y7033032D02*
X19993571Y7033032D01*
X20417857Y6917318D02*
X20405000Y6904460D01*
X20405000Y6904460D02*
X20366428Y6891603D01*
X20366428Y6891603D02*
X20340714Y6891603D01*
X20340714Y6891603D02*
X20302143Y6904460D01*
X20302143Y6904460D02*
X20276428Y6930175D01*
X20276428Y6930175D02*
X20263571Y6955889D01*
X20263571Y6955889D02*
X20250714Y7007318D01*
X20250714Y7007318D02*
X20250714Y7045889D01*
X20250714Y7045889D02*
X20263571Y7097318D01*
X20263571Y7097318D02*
X20276428Y7123032D01*
X20276428Y7123032D02*
X20302143Y7148746D01*
X20302143Y7148746D02*
X20340714Y7161603D01*
X20340714Y7161603D02*
X20366428Y7161603D01*
X20366428Y7161603D02*
X20405000Y7148746D01*
X20405000Y7148746D02*
X20417857Y7135889D01*
X20572143Y7045889D02*
X20546428Y7058746D01*
X20546428Y7058746D02*
X20533571Y7071603D01*
X20533571Y7071603D02*
X20520714Y7097318D01*
X20520714Y7097318D02*
X20520714Y7110175D01*
X20520714Y7110175D02*
X20533571Y7135889D01*
X20533571Y7135889D02*
X20546428Y7148746D01*
X20546428Y7148746D02*
X20572143Y7161603D01*
X20572143Y7161603D02*
X20623571Y7161603D01*
X20623571Y7161603D02*
X20649286Y7148746D01*
X20649286Y7148746D02*
X20662143Y7135889D01*
X20662143Y7135889D02*
X20675000Y7110175D01*
X20675000Y7110175D02*
X20675000Y7097318D01*
X20675000Y7097318D02*
X20662143Y7071603D01*
X20662143Y7071603D02*
X20649286Y7058746D01*
X20649286Y7058746D02*
X20623571Y7045889D01*
X20623571Y7045889D02*
X20572143Y7045889D01*
X20572143Y7045889D02*
X20546428Y7033032D01*
X20546428Y7033032D02*
X20533571Y7020175D01*
X20533571Y7020175D02*
X20520714Y6994460D01*
X20520714Y6994460D02*
X20520714Y6943032D01*
X20520714Y6943032D02*
X20533571Y6917318D01*
X20533571Y6917318D02*
X20546428Y6904460D01*
X20546428Y6904460D02*
X20572143Y6891603D01*
X20572143Y6891603D02*
X20623571Y6891603D01*
X20623571Y6891603D02*
X20649286Y6904460D01*
X20649286Y6904460D02*
X20662143Y6917318D01*
X20662143Y6917318D02*
X20675000Y6943032D01*
X20675000Y6943032D02*
X20675000Y6994460D01*
X20675000Y6994460D02*
X20662143Y7020175D01*
X20662143Y7020175D02*
X20649286Y7033032D01*
X20649286Y7033032D02*
X20623571Y7045889D01*
X20932143Y6891603D02*
X20777857Y6891603D01*
X20855000Y6891603D02*
X20855000Y7161603D01*
X20855000Y7161603D02*
X20829286Y7123032D01*
X20829286Y7123032D02*
X20803571Y7097318D01*
X20803571Y7097318D02*
X20777857Y7084460D01*
X21022143Y7161603D02*
X21202143Y7161603D01*
X21202143Y7161603D02*
X21086429Y6891603D01*
X20549285Y8645889D02*
X20523571Y8658746D01*
X20523571Y8658746D02*
X20497857Y8684460D01*
X20497857Y8684460D02*
X20459285Y8723032D01*
X20459285Y8723032D02*
X20433571Y8735889D01*
X20433571Y8735889D02*
X20407857Y8735889D01*
X20420714Y8671603D02*
X20395000Y8684460D01*
X20395000Y8684460D02*
X20369285Y8710175D01*
X20369285Y8710175D02*
X20356428Y8761603D01*
X20356428Y8761603D02*
X20356428Y8851603D01*
X20356428Y8851603D02*
X20369285Y8903032D01*
X20369285Y8903032D02*
X20395000Y8928746D01*
X20395000Y8928746D02*
X20420714Y8941603D01*
X20420714Y8941603D02*
X20472142Y8941603D01*
X20472142Y8941603D02*
X20497857Y8928746D01*
X20497857Y8928746D02*
X20523571Y8903032D01*
X20523571Y8903032D02*
X20536428Y8851603D01*
X20536428Y8851603D02*
X20536428Y8761603D01*
X20536428Y8761603D02*
X20523571Y8710175D01*
X20523571Y8710175D02*
X20497857Y8684460D01*
X20497857Y8684460D02*
X20472142Y8671603D01*
X20472142Y8671603D02*
X20420714Y8671603D01*
X20639285Y8915889D02*
X20652142Y8928746D01*
X20652142Y8928746D02*
X20677857Y8941603D01*
X20677857Y8941603D02*
X20742142Y8941603D01*
X20742142Y8941603D02*
X20767857Y8928746D01*
X20767857Y8928746D02*
X20780714Y8915889D01*
X20780714Y8915889D02*
X20793571Y8890175D01*
X20793571Y8890175D02*
X20793571Y8864460D01*
X20793571Y8864460D02*
X20780714Y8825889D01*
X20780714Y8825889D02*
X20626428Y8671603D01*
X20626428Y8671603D02*
X20793571Y8671603D01*
X8243571Y3646460D02*
X8282143Y3633603D01*
X8282143Y3633603D02*
X8346428Y3633603D01*
X8346428Y3633603D02*
X8372143Y3646460D01*
X8372143Y3646460D02*
X8385000Y3659318D01*
X8385000Y3659318D02*
X8397857Y3685032D01*
X8397857Y3685032D02*
X8397857Y3710746D01*
X8397857Y3710746D02*
X8385000Y3736460D01*
X8385000Y3736460D02*
X8372143Y3749318D01*
X8372143Y3749318D02*
X8346428Y3762175D01*
X8346428Y3762175D02*
X8295000Y3775032D01*
X8295000Y3775032D02*
X8269285Y3787889D01*
X8269285Y3787889D02*
X8256428Y3800746D01*
X8256428Y3800746D02*
X8243571Y3826460D01*
X8243571Y3826460D02*
X8243571Y3852175D01*
X8243571Y3852175D02*
X8256428Y3877889D01*
X8256428Y3877889D02*
X8269285Y3890746D01*
X8269285Y3890746D02*
X8295000Y3903603D01*
X8295000Y3903603D02*
X8359285Y3903603D01*
X8359285Y3903603D02*
X8397857Y3890746D01*
X8513571Y3633603D02*
X8513571Y3903603D01*
X8513571Y3903603D02*
X8616428Y3903603D01*
X8616428Y3903603D02*
X8642143Y3890746D01*
X8642143Y3890746D02*
X8655000Y3877889D01*
X8655000Y3877889D02*
X8667857Y3852175D01*
X8667857Y3852175D02*
X8667857Y3813603D01*
X8667857Y3813603D02*
X8655000Y3787889D01*
X8655000Y3787889D02*
X8642143Y3775032D01*
X8642143Y3775032D02*
X8616428Y3762175D01*
X8616428Y3762175D02*
X8513571Y3762175D01*
X8835000Y3903603D02*
X8860714Y3903603D01*
X8860714Y3903603D02*
X8886428Y3890746D01*
X8886428Y3890746D02*
X8899286Y3877889D01*
X8899286Y3877889D02*
X8912143Y3852175D01*
X8912143Y3852175D02*
X8925000Y3800746D01*
X8925000Y3800746D02*
X8925000Y3736460D01*
X8925000Y3736460D02*
X8912143Y3685032D01*
X8912143Y3685032D02*
X8899286Y3659318D01*
X8899286Y3659318D02*
X8886428Y3646460D01*
X8886428Y3646460D02*
X8860714Y3633603D01*
X8860714Y3633603D02*
X8835000Y3633603D01*
X8835000Y3633603D02*
X8809286Y3646460D01*
X8809286Y3646460D02*
X8796428Y3659318D01*
X8796428Y3659318D02*
X8783571Y3685032D01*
X8783571Y3685032D02*
X8770714Y3736460D01*
X8770714Y3736460D02*
X8770714Y3800746D01*
X8770714Y3800746D02*
X8783571Y3852175D01*
X8783571Y3852175D02*
X8796428Y3877889D01*
X8796428Y3877889D02*
X8809286Y3890746D01*
X8809286Y3890746D02*
X8835000Y3903603D01*
X9169286Y3903603D02*
X9040714Y3903603D01*
X9040714Y3903603D02*
X9027857Y3775032D01*
X9027857Y3775032D02*
X9040714Y3787889D01*
X9040714Y3787889D02*
X9066429Y3800746D01*
X9066429Y3800746D02*
X9130714Y3800746D01*
X9130714Y3800746D02*
X9156429Y3787889D01*
X9156429Y3787889D02*
X9169286Y3775032D01*
X9169286Y3775032D02*
X9182143Y3749318D01*
X9182143Y3749318D02*
X9182143Y3685032D01*
X9182143Y3685032D02*
X9169286Y3659318D01*
X9169286Y3659318D02*
X9156429Y3646460D01*
X9156429Y3646460D02*
X9130714Y3633603D01*
X9130714Y3633603D02*
X9066429Y3633603D01*
X9066429Y3633603D02*
X9040714Y3646460D01*
X9040714Y3646460D02*
X9027857Y3659318D01*
X9349286Y3903603D02*
X9375000Y3903603D01*
X9375000Y3903603D02*
X9400714Y3890746D01*
X9400714Y3890746D02*
X9413572Y3877889D01*
X9413572Y3877889D02*
X9426429Y3852175D01*
X9426429Y3852175D02*
X9439286Y3800746D01*
X9439286Y3800746D02*
X9439286Y3736460D01*
X9439286Y3736460D02*
X9426429Y3685032D01*
X9426429Y3685032D02*
X9413572Y3659318D01*
X9413572Y3659318D02*
X9400714Y3646460D01*
X9400714Y3646460D02*
X9375000Y3633603D01*
X9375000Y3633603D02*
X9349286Y3633603D01*
X9349286Y3633603D02*
X9323572Y3646460D01*
X9323572Y3646460D02*
X9310714Y3659318D01*
X9310714Y3659318D02*
X9297857Y3685032D01*
X9297857Y3685032D02*
X9285000Y3736460D01*
X9285000Y3736460D02*
X9285000Y3800746D01*
X9285000Y3800746D02*
X9297857Y3852175D01*
X9297857Y3852175D02*
X9310714Y3877889D01*
X9310714Y3877889D02*
X9323572Y3890746D01*
X9323572Y3890746D02*
X9349286Y3903603D01*
X9529286Y3903603D02*
X9696429Y3903603D01*
X9696429Y3903603D02*
X9606429Y3800746D01*
X9606429Y3800746D02*
X9645000Y3800746D01*
X9645000Y3800746D02*
X9670715Y3787889D01*
X9670715Y3787889D02*
X9683572Y3775032D01*
X9683572Y3775032D02*
X9696429Y3749318D01*
X9696429Y3749318D02*
X9696429Y3685032D01*
X9696429Y3685032D02*
X9683572Y3659318D01*
X9683572Y3659318D02*
X9670715Y3646460D01*
X9670715Y3646460D02*
X9645000Y3633603D01*
X9645000Y3633603D02*
X9567857Y3633603D01*
X9567857Y3633603D02*
X9542143Y3646460D01*
X9542143Y3646460D02*
X9529286Y3659318D01*
X9902143Y3775032D02*
X9940715Y3762175D01*
X9940715Y3762175D02*
X9953572Y3749318D01*
X9953572Y3749318D02*
X9966429Y3723603D01*
X9966429Y3723603D02*
X9966429Y3685032D01*
X9966429Y3685032D02*
X9953572Y3659318D01*
X9953572Y3659318D02*
X9940715Y3646460D01*
X9940715Y3646460D02*
X9915000Y3633603D01*
X9915000Y3633603D02*
X9812143Y3633603D01*
X9812143Y3633603D02*
X9812143Y3903603D01*
X9812143Y3903603D02*
X9902143Y3903603D01*
X9902143Y3903603D02*
X9927858Y3890746D01*
X9927858Y3890746D02*
X9940715Y3877889D01*
X9940715Y3877889D02*
X9953572Y3852175D01*
X9953572Y3852175D02*
X9953572Y3826460D01*
X9953572Y3826460D02*
X9940715Y3800746D01*
X9940715Y3800746D02*
X9927858Y3787889D01*
X9927858Y3787889D02*
X9902143Y3775032D01*
X9902143Y3775032D02*
X9812143Y3775032D01*
X10069286Y3710746D02*
X10197858Y3710746D01*
X10043572Y3633603D02*
X10133572Y3903603D01*
X10133572Y3903603D02*
X10223572Y3633603D01*
X10313572Y3633603D02*
X10313572Y3903603D01*
X10313572Y3775032D02*
X10467858Y3775032D01*
X10467858Y3633603D02*
X10467858Y3903603D01*
X10557858Y3903603D02*
X10712144Y3903603D01*
X10635001Y3633603D02*
X10635001Y3903603D01*
X9275714Y2583603D02*
X9275714Y2853603D01*
X9275714Y2853603D02*
X9340000Y2853603D01*
X9340000Y2853603D02*
X9378571Y2840746D01*
X9378571Y2840746D02*
X9404286Y2815032D01*
X9404286Y2815032D02*
X9417143Y2789318D01*
X9417143Y2789318D02*
X9430000Y2737889D01*
X9430000Y2737889D02*
X9430000Y2699318D01*
X9430000Y2699318D02*
X9417143Y2647889D01*
X9417143Y2647889D02*
X9404286Y2622175D01*
X9404286Y2622175D02*
X9378571Y2596460D01*
X9378571Y2596460D02*
X9340000Y2583603D01*
X9340000Y2583603D02*
X9275714Y2583603D01*
X9532857Y2827889D02*
X9545714Y2840746D01*
X9545714Y2840746D02*
X9571429Y2853603D01*
X9571429Y2853603D02*
X9635714Y2853603D01*
X9635714Y2853603D02*
X9661429Y2840746D01*
X9661429Y2840746D02*
X9674286Y2827889D01*
X9674286Y2827889D02*
X9687143Y2802175D01*
X9687143Y2802175D02*
X9687143Y2776460D01*
X9687143Y2776460D02*
X9674286Y2737889D01*
X9674286Y2737889D02*
X9520000Y2583603D01*
X9520000Y2583603D02*
X9687143Y2583603D01*
X18797142Y5617889D02*
X18809999Y5630746D01*
X18809999Y5630746D02*
X18835714Y5643603D01*
X18835714Y5643603D02*
X18899999Y5643603D01*
X18899999Y5643603D02*
X18925714Y5630746D01*
X18925714Y5630746D02*
X18938571Y5617889D01*
X18938571Y5617889D02*
X18951428Y5592175D01*
X18951428Y5592175D02*
X18951428Y5566460D01*
X18951428Y5566460D02*
X18938571Y5527889D01*
X18938571Y5527889D02*
X18784285Y5373603D01*
X18784285Y5373603D02*
X18951428Y5373603D01*
X19067142Y5399318D02*
X19079999Y5386460D01*
X19079999Y5386460D02*
X19067142Y5373603D01*
X19067142Y5373603D02*
X19054285Y5386460D01*
X19054285Y5386460D02*
X19067142Y5399318D01*
X19067142Y5399318D02*
X19067142Y5373603D01*
X19182856Y5617889D02*
X19195713Y5630746D01*
X19195713Y5630746D02*
X19221428Y5643603D01*
X19221428Y5643603D02*
X19285713Y5643603D01*
X19285713Y5643603D02*
X19311428Y5630746D01*
X19311428Y5630746D02*
X19324285Y5617889D01*
X19324285Y5617889D02*
X19337142Y5592175D01*
X19337142Y5592175D02*
X19337142Y5566460D01*
X19337142Y5566460D02*
X19324285Y5527889D01*
X19324285Y5527889D02*
X19169999Y5373603D01*
X19169999Y5373603D02*
X19337142Y5373603D01*
X19568571Y5553603D02*
X19568571Y5373603D01*
X19452856Y5553603D02*
X19452856Y5412175D01*
X19452856Y5412175D02*
X19465713Y5386460D01*
X19465713Y5386460D02*
X19491428Y5373603D01*
X19491428Y5373603D02*
X19529999Y5373603D01*
X19529999Y5373603D02*
X19555713Y5386460D01*
X19555713Y5386460D02*
X19568571Y5399318D01*
X19787142Y5515032D02*
X19697142Y5515032D01*
X19697142Y5373603D02*
X19697142Y5643603D01*
X19697142Y5643603D02*
X19825714Y5643603D01*
X19245000Y5859318D02*
X19232143Y5846460D01*
X19232143Y5846460D02*
X19193571Y5833603D01*
X19193571Y5833603D02*
X19167857Y5833603D01*
X19167857Y5833603D02*
X19129286Y5846460D01*
X19129286Y5846460D02*
X19103571Y5872175D01*
X19103571Y5872175D02*
X19090714Y5897889D01*
X19090714Y5897889D02*
X19077857Y5949318D01*
X19077857Y5949318D02*
X19077857Y5987889D01*
X19077857Y5987889D02*
X19090714Y6039318D01*
X19090714Y6039318D02*
X19103571Y6065032D01*
X19103571Y6065032D02*
X19129286Y6090746D01*
X19129286Y6090746D02*
X19167857Y6103603D01*
X19167857Y6103603D02*
X19193571Y6103603D01*
X19193571Y6103603D02*
X19232143Y6090746D01*
X19232143Y6090746D02*
X19245000Y6077889D01*
X19489286Y6103603D02*
X19360714Y6103603D01*
X19360714Y6103603D02*
X19347857Y5975032D01*
X19347857Y5975032D02*
X19360714Y5987889D01*
X19360714Y5987889D02*
X19386429Y6000746D01*
X19386429Y6000746D02*
X19450714Y6000746D01*
X19450714Y6000746D02*
X19476429Y5987889D01*
X19476429Y5987889D02*
X19489286Y5975032D01*
X19489286Y5975032D02*
X19502143Y5949318D01*
X19502143Y5949318D02*
X19502143Y5885032D01*
X19502143Y5885032D02*
X19489286Y5859318D01*
X19489286Y5859318D02*
X19476429Y5846460D01*
X19476429Y5846460D02*
X19450714Y5833603D01*
X19450714Y5833603D02*
X19386429Y5833603D01*
X19386429Y5833603D02*
X19360714Y5846460D01*
X19360714Y5846460D02*
X19347857Y5859318D01*
D10*
X30799000Y973270D02*
X30899000Y973270D01*
X30941857Y816127D02*
X30799000Y816127D01*
X30799000Y816127D02*
X30799000Y1116127D01*
X30799000Y1116127D02*
X30941857Y1116127D01*
X31056143Y830412D02*
X31099001Y816127D01*
X31099001Y816127D02*
X31170429Y816127D01*
X31170429Y816127D02*
X31199001Y830412D01*
X31199001Y830412D02*
X31213286Y844698D01*
X31213286Y844698D02*
X31227572Y873270D01*
X31227572Y873270D02*
X31227572Y901841D01*
X31227572Y901841D02*
X31213286Y930412D01*
X31213286Y930412D02*
X31199001Y944698D01*
X31199001Y944698D02*
X31170429Y958984D01*
X31170429Y958984D02*
X31113286Y973270D01*
X31113286Y973270D02*
X31084715Y987555D01*
X31084715Y987555D02*
X31070429Y1001841D01*
X31070429Y1001841D02*
X31056143Y1030412D01*
X31056143Y1030412D02*
X31056143Y1058984D01*
X31056143Y1058984D02*
X31070429Y1087555D01*
X31070429Y1087555D02*
X31084715Y1101841D01*
X31084715Y1101841D02*
X31113286Y1116127D01*
X31113286Y1116127D02*
X31184715Y1116127D01*
X31184715Y1116127D02*
X31227572Y1101841D01*
X31356143Y816127D02*
X31356143Y1116127D01*
X31356143Y1116127D02*
X31470429Y1116127D01*
X31470429Y1116127D02*
X31499000Y1101841D01*
X31499000Y1101841D02*
X31513286Y1087555D01*
X31513286Y1087555D02*
X31527572Y1058984D01*
X31527572Y1058984D02*
X31527572Y1016127D01*
X31527572Y1016127D02*
X31513286Y987555D01*
X31513286Y987555D02*
X31499000Y973270D01*
X31499000Y973270D02*
X31470429Y958984D01*
X31470429Y958984D02*
X31356143Y958984D01*
X31613286Y1116127D02*
X31713286Y816127D01*
X31713286Y816127D02*
X31813286Y1116127D01*
X31841858Y787555D02*
X32070429Y787555D01*
X32127571Y830412D02*
X32170429Y816127D01*
X32170429Y816127D02*
X32241857Y816127D01*
X32241857Y816127D02*
X32270429Y830412D01*
X32270429Y830412D02*
X32284714Y844698D01*
X32284714Y844698D02*
X32299000Y873270D01*
X32299000Y873270D02*
X32299000Y901841D01*
X32299000Y901841D02*
X32284714Y930412D01*
X32284714Y930412D02*
X32270429Y944698D01*
X32270429Y944698D02*
X32241857Y958984D01*
X32241857Y958984D02*
X32184714Y973270D01*
X32184714Y973270D02*
X32156143Y987555D01*
X32156143Y987555D02*
X32141857Y1001841D01*
X32141857Y1001841D02*
X32127571Y1030412D01*
X32127571Y1030412D02*
X32127571Y1058984D01*
X32127571Y1058984D02*
X32141857Y1087555D01*
X32141857Y1087555D02*
X32156143Y1101841D01*
X32156143Y1101841D02*
X32184714Y1116127D01*
X32184714Y1116127D02*
X32256143Y1116127D01*
X32256143Y1116127D02*
X32299000Y1101841D01*
X32427571Y973270D02*
X32527571Y973270D01*
X32570428Y816127D02*
X32427571Y816127D01*
X32427571Y816127D02*
X32427571Y1116127D01*
X32427571Y1116127D02*
X32570428Y1116127D01*
X32841857Y816127D02*
X32699000Y816127D01*
X32699000Y816127D02*
X32699000Y1116127D01*
X31349000Y2420412D02*
X31391858Y2406127D01*
X31391858Y2406127D02*
X31463286Y2406127D01*
X31463286Y2406127D02*
X31491858Y2420412D01*
X31491858Y2420412D02*
X31506143Y2434698D01*
X31506143Y2434698D02*
X31520429Y2463270D01*
X31520429Y2463270D02*
X31520429Y2491841D01*
X31520429Y2491841D02*
X31506143Y2520412D01*
X31506143Y2520412D02*
X31491858Y2534698D01*
X31491858Y2534698D02*
X31463286Y2548984D01*
X31463286Y2548984D02*
X31406143Y2563270D01*
X31406143Y2563270D02*
X31377572Y2577555D01*
X31377572Y2577555D02*
X31363286Y2591841D01*
X31363286Y2591841D02*
X31349000Y2620412D01*
X31349000Y2620412D02*
X31349000Y2648984D01*
X31349000Y2648984D02*
X31363286Y2677555D01*
X31363286Y2677555D02*
X31377572Y2691841D01*
X31377572Y2691841D02*
X31406143Y2706127D01*
X31406143Y2706127D02*
X31477572Y2706127D01*
X31477572Y2706127D02*
X31520429Y2691841D01*
X31620429Y2706127D02*
X31691857Y2406127D01*
X31691857Y2406127D02*
X31749000Y2620412D01*
X31749000Y2620412D02*
X31806143Y2406127D01*
X31806143Y2406127D02*
X31877572Y2706127D01*
X32120429Y2606127D02*
X32120429Y2406127D01*
X32049000Y2720412D02*
X31977571Y2506127D01*
X31977571Y2506127D02*
X32163286Y2506127D01*
D11*
X39079000Y180032D02*
X39169000Y180032D01*
X39207572Y38603D02*
X39079000Y38603D01*
X39079000Y38603D02*
X39079000Y308603D01*
X39079000Y308603D02*
X39207572Y308603D01*
X39310429Y51460D02*
X39349001Y38603D01*
X39349001Y38603D02*
X39413286Y38603D01*
X39413286Y38603D02*
X39439001Y51460D01*
X39439001Y51460D02*
X39451858Y64318D01*
X39451858Y64318D02*
X39464715Y90032D01*
X39464715Y90032D02*
X39464715Y115746D01*
X39464715Y115746D02*
X39451858Y141460D01*
X39451858Y141460D02*
X39439001Y154318D01*
X39439001Y154318D02*
X39413286Y167175D01*
X39413286Y167175D02*
X39361858Y180032D01*
X39361858Y180032D02*
X39336143Y192889D01*
X39336143Y192889D02*
X39323286Y205746D01*
X39323286Y205746D02*
X39310429Y231460D01*
X39310429Y231460D02*
X39310429Y257175D01*
X39310429Y257175D02*
X39323286Y282889D01*
X39323286Y282889D02*
X39336143Y295746D01*
X39336143Y295746D02*
X39361858Y308603D01*
X39361858Y308603D02*
X39426143Y308603D01*
X39426143Y308603D02*
X39464715Y295746D01*
X39580429Y38603D02*
X39580429Y308603D01*
X39580429Y308603D02*
X39683286Y308603D01*
X39683286Y308603D02*
X39709001Y295746D01*
X39709001Y295746D02*
X39721858Y282889D01*
X39721858Y282889D02*
X39734715Y257175D01*
X39734715Y257175D02*
X39734715Y218603D01*
X39734715Y218603D02*
X39721858Y192889D01*
X39721858Y192889D02*
X39709001Y180032D01*
X39709001Y180032D02*
X39683286Y167175D01*
X39683286Y167175D02*
X39580429Y167175D01*
X39786144Y12889D02*
X39991858Y12889D01*
X40146143Y180032D02*
X40184715Y167175D01*
X40184715Y167175D02*
X40197572Y154318D01*
X40197572Y154318D02*
X40210429Y128603D01*
X40210429Y128603D02*
X40210429Y90032D01*
X40210429Y90032D02*
X40197572Y64318D01*
X40197572Y64318D02*
X40184715Y51460D01*
X40184715Y51460D02*
X40159000Y38603D01*
X40159000Y38603D02*
X40056143Y38603D01*
X40056143Y38603D02*
X40056143Y308603D01*
X40056143Y308603D02*
X40146143Y308603D01*
X40146143Y308603D02*
X40171858Y295746D01*
X40171858Y295746D02*
X40184715Y282889D01*
X40184715Y282889D02*
X40197572Y257175D01*
X40197572Y257175D02*
X40197572Y231460D01*
X40197572Y231460D02*
X40184715Y205746D01*
X40184715Y205746D02*
X40171858Y192889D01*
X40171858Y192889D02*
X40146143Y180032D01*
X40146143Y180032D02*
X40056143Y180032D01*
X40377572Y308603D02*
X40429000Y308603D01*
X40429000Y308603D02*
X40454715Y295746D01*
X40454715Y295746D02*
X40480429Y270032D01*
X40480429Y270032D02*
X40493286Y218603D01*
X40493286Y218603D02*
X40493286Y128603D01*
X40493286Y128603D02*
X40480429Y77175D01*
X40480429Y77175D02*
X40454715Y51460D01*
X40454715Y51460D02*
X40429000Y38603D01*
X40429000Y38603D02*
X40377572Y38603D01*
X40377572Y38603D02*
X40351858Y51460D01*
X40351858Y51460D02*
X40326143Y77175D01*
X40326143Y77175D02*
X40313286Y128603D01*
X40313286Y128603D02*
X40313286Y218603D01*
X40313286Y218603D02*
X40326143Y270032D01*
X40326143Y270032D02*
X40351858Y295746D01*
X40351858Y295746D02*
X40377572Y308603D01*
X40660429Y308603D02*
X40711857Y308603D01*
X40711857Y308603D02*
X40737572Y295746D01*
X40737572Y295746D02*
X40763286Y270032D01*
X40763286Y270032D02*
X40776143Y218603D01*
X40776143Y218603D02*
X40776143Y128603D01*
X40776143Y128603D02*
X40763286Y77175D01*
X40763286Y77175D02*
X40737572Y51460D01*
X40737572Y51460D02*
X40711857Y38603D01*
X40711857Y38603D02*
X40660429Y38603D01*
X40660429Y38603D02*
X40634715Y51460D01*
X40634715Y51460D02*
X40609000Y77175D01*
X40609000Y77175D02*
X40596143Y128603D01*
X40596143Y128603D02*
X40596143Y218603D01*
X40596143Y218603D02*
X40609000Y270032D01*
X40609000Y270032D02*
X40634715Y295746D01*
X40634715Y295746D02*
X40660429Y308603D01*
X40853286Y308603D02*
X41007572Y308603D01*
X40930429Y38603D02*
X40930429Y308603D01*
X39688164Y1883510D02*
X39726736Y1870653D01*
X39726736Y1870653D02*
X39791021Y1870653D01*
X39791021Y1870653D02*
X39816736Y1883510D01*
X39816736Y1883510D02*
X39829593Y1896368D01*
X39829593Y1896368D02*
X39842450Y1922082D01*
X39842450Y1922082D02*
X39842450Y1947796D01*
X39842450Y1947796D02*
X39829593Y1973510D01*
X39829593Y1973510D02*
X39816736Y1986368D01*
X39816736Y1986368D02*
X39791021Y1999225D01*
X39791021Y1999225D02*
X39739593Y2012082D01*
X39739593Y2012082D02*
X39713878Y2024939D01*
X39713878Y2024939D02*
X39701021Y2037796D01*
X39701021Y2037796D02*
X39688164Y2063510D01*
X39688164Y2063510D02*
X39688164Y2089225D01*
X39688164Y2089225D02*
X39701021Y2114939D01*
X39701021Y2114939D02*
X39713878Y2127796D01*
X39713878Y2127796D02*
X39739593Y2140653D01*
X39739593Y2140653D02*
X39803878Y2140653D01*
X39803878Y2140653D02*
X39842450Y2127796D01*
X39932450Y2140653D02*
X39996736Y1870653D01*
X39996736Y1870653D02*
X40048164Y2063510D01*
X40048164Y2063510D02*
X40099593Y1870653D01*
X40099593Y1870653D02*
X40163879Y2140653D01*
X40253878Y2114939D02*
X40266735Y2127796D01*
X40266735Y2127796D02*
X40292450Y2140653D01*
X40292450Y2140653D02*
X40356735Y2140653D01*
X40356735Y2140653D02*
X40382450Y2127796D01*
X40382450Y2127796D02*
X40395307Y2114939D01*
X40395307Y2114939D02*
X40408164Y2089225D01*
X40408164Y2089225D02*
X40408164Y2063510D01*
X40408164Y2063510D02*
X40395307Y2024939D01*
X40395307Y2024939D02*
X40241021Y1870653D01*
X40241021Y1870653D02*
X40408164Y1870653D01*
X15325714Y2462603D02*
X15325714Y2282603D01*
X15261428Y2565460D02*
X15197142Y2372603D01*
X15197142Y2372603D02*
X15364285Y2372603D01*
X15467142Y2308318D02*
X15479999Y2295460D01*
X15479999Y2295460D02*
X15467142Y2282603D01*
X15467142Y2282603D02*
X15454285Y2295460D01*
X15454285Y2295460D02*
X15467142Y2308318D01*
X15467142Y2308318D02*
X15467142Y2282603D01*
X15569999Y2552603D02*
X15749999Y2552603D01*
X15749999Y2552603D02*
X15634285Y2282603D01*
X15968571Y2462603D02*
X15968571Y2282603D01*
X15852856Y2462603D02*
X15852856Y2321175D01*
X15852856Y2321175D02*
X15865713Y2295460D01*
X15865713Y2295460D02*
X15891428Y2282603D01*
X15891428Y2282603D02*
X15929999Y2282603D01*
X15929999Y2282603D02*
X15955713Y2295460D01*
X15955713Y2295460D02*
X15968571Y2308318D01*
X16187142Y2424032D02*
X16097142Y2424032D01*
X16097142Y2282603D02*
X16097142Y2552603D01*
X16097142Y2552603D02*
X16225714Y2552603D01*
X16780682Y2369001D02*
X16793540Y2356144D01*
X16793540Y2356144D02*
X16806397Y2317572D01*
X16806397Y2317572D02*
X16806397Y2291858D01*
X16806397Y2291858D02*
X16793540Y2253287D01*
X16793540Y2253287D02*
X16767825Y2227572D01*
X16767825Y2227572D02*
X16742111Y2214715D01*
X16742111Y2214715D02*
X16690682Y2201858D01*
X16690682Y2201858D02*
X16652111Y2201858D01*
X16652111Y2201858D02*
X16600682Y2214715D01*
X16600682Y2214715D02*
X16574968Y2227572D01*
X16574968Y2227572D02*
X16549254Y2253287D01*
X16549254Y2253287D02*
X16536397Y2291858D01*
X16536397Y2291858D02*
X16536397Y2317572D01*
X16536397Y2317572D02*
X16549254Y2356144D01*
X16549254Y2356144D02*
X16562111Y2369001D01*
X16536397Y2459001D02*
X16536397Y2626144D01*
X16536397Y2626144D02*
X16639254Y2536144D01*
X16639254Y2536144D02*
X16639254Y2574715D01*
X16639254Y2574715D02*
X16652111Y2600429D01*
X16652111Y2600429D02*
X16664968Y2613287D01*
X16664968Y2613287D02*
X16690682Y2626144D01*
X16690682Y2626144D02*
X16754968Y2626144D01*
X16754968Y2626144D02*
X16780682Y2613287D01*
X16780682Y2613287D02*
X16793540Y2600429D01*
X16793540Y2600429D02*
X16806397Y2574715D01*
X16806397Y2574715D02*
X16806397Y2497572D01*
X16806397Y2497572D02*
X16793540Y2471858D01*
X16793540Y2471858D02*
X16780682Y2459001D01*
X413570Y9853603D02*
X413570Y9635032D01*
X413570Y9635032D02*
X426427Y9609318D01*
X426427Y9609318D02*
X439285Y9596460D01*
X439285Y9596460D02*
X464999Y9583603D01*
X464999Y9583603D02*
X516427Y9583603D01*
X516427Y9583603D02*
X542142Y9596460D01*
X542142Y9596460D02*
X554999Y9609318D01*
X554999Y9609318D02*
X567856Y9635032D01*
X567856Y9635032D02*
X567856Y9853603D01*
X683570Y9596460D02*
X722142Y9583603D01*
X722142Y9583603D02*
X786427Y9583603D01*
X786427Y9583603D02*
X812142Y9596460D01*
X812142Y9596460D02*
X824999Y9609318D01*
X824999Y9609318D02*
X837856Y9635032D01*
X837856Y9635032D02*
X837856Y9660746D01*
X837856Y9660746D02*
X824999Y9686460D01*
X824999Y9686460D02*
X812142Y9699318D01*
X812142Y9699318D02*
X786427Y9712175D01*
X786427Y9712175D02*
X734999Y9725032D01*
X734999Y9725032D02*
X709284Y9737889D01*
X709284Y9737889D02*
X696427Y9750746D01*
X696427Y9750746D02*
X683570Y9776460D01*
X683570Y9776460D02*
X683570Y9802175D01*
X683570Y9802175D02*
X696427Y9827889D01*
X696427Y9827889D02*
X709284Y9840746D01*
X709284Y9840746D02*
X734999Y9853603D01*
X734999Y9853603D02*
X799284Y9853603D01*
X799284Y9853603D02*
X837856Y9840746D01*
X1043570Y9725032D02*
X1082142Y9712175D01*
X1082142Y9712175D02*
X1094999Y9699318D01*
X1094999Y9699318D02*
X1107856Y9673603D01*
X1107856Y9673603D02*
X1107856Y9635032D01*
X1107856Y9635032D02*
X1094999Y9609318D01*
X1094999Y9609318D02*
X1082142Y9596460D01*
X1082142Y9596460D02*
X1056427Y9583603D01*
X1056427Y9583603D02*
X953570Y9583603D01*
X953570Y9583603D02*
X953570Y9853603D01*
X953570Y9853603D02*
X1043570Y9853603D01*
X1043570Y9853603D02*
X1069285Y9840746D01*
X1069285Y9840746D02*
X1082142Y9827889D01*
X1082142Y9827889D02*
X1094999Y9802175D01*
X1094999Y9802175D02*
X1094999Y9776460D01*
X1094999Y9776460D02*
X1082142Y9750746D01*
X1082142Y9750746D02*
X1069285Y9737889D01*
X1069285Y9737889D02*
X1043570Y9725032D01*
X1043570Y9725032D02*
X953570Y9725032D01*
X1159285Y9557889D02*
X1364999Y9557889D01*
X1583570Y9609318D02*
X1570713Y9596460D01*
X1570713Y9596460D02*
X1532141Y9583603D01*
X1532141Y9583603D02*
X1506427Y9583603D01*
X1506427Y9583603D02*
X1467856Y9596460D01*
X1467856Y9596460D02*
X1442141Y9622175D01*
X1442141Y9622175D02*
X1429284Y9647889D01*
X1429284Y9647889D02*
X1416427Y9699318D01*
X1416427Y9699318D02*
X1416427Y9737889D01*
X1416427Y9737889D02*
X1429284Y9789318D01*
X1429284Y9789318D02*
X1442141Y9815032D01*
X1442141Y9815032D02*
X1467856Y9840746D01*
X1467856Y9840746D02*
X1506427Y9853603D01*
X1506427Y9853603D02*
X1532141Y9853603D01*
X1532141Y9853603D02*
X1570713Y9840746D01*
X1570713Y9840746D02*
X1583570Y9827889D01*
X1634999Y9557889D02*
X1840713Y9557889D01*
X2059284Y9583603D02*
X1969284Y9712175D01*
X1904998Y9583603D02*
X1904998Y9853603D01*
X1904998Y9853603D02*
X2007855Y9853603D01*
X2007855Y9853603D02*
X2033570Y9840746D01*
X2033570Y9840746D02*
X2046427Y9827889D01*
X2046427Y9827889D02*
X2059284Y9802175D01*
X2059284Y9802175D02*
X2059284Y9763603D01*
X2059284Y9763603D02*
X2046427Y9737889D01*
X2046427Y9737889D02*
X2033570Y9725032D01*
X2033570Y9725032D02*
X2007855Y9712175D01*
X2007855Y9712175D02*
X1904998Y9712175D01*
X2277855Y9596460D02*
X2252141Y9583603D01*
X2252141Y9583603D02*
X2200713Y9583603D01*
X2200713Y9583603D02*
X2174998Y9596460D01*
X2174998Y9596460D02*
X2162141Y9622175D01*
X2162141Y9622175D02*
X2162141Y9725032D01*
X2162141Y9725032D02*
X2174998Y9750746D01*
X2174998Y9750746D02*
X2200713Y9763603D01*
X2200713Y9763603D02*
X2252141Y9763603D01*
X2252141Y9763603D02*
X2277855Y9750746D01*
X2277855Y9750746D02*
X2290713Y9725032D01*
X2290713Y9725032D02*
X2290713Y9699318D01*
X2290713Y9699318D02*
X2162141Y9673603D01*
X2522142Y9596460D02*
X2496427Y9583603D01*
X2496427Y9583603D02*
X2444999Y9583603D01*
X2444999Y9583603D02*
X2419284Y9596460D01*
X2419284Y9596460D02*
X2406427Y9609318D01*
X2406427Y9609318D02*
X2393570Y9635032D01*
X2393570Y9635032D02*
X2393570Y9712175D01*
X2393570Y9712175D02*
X2406427Y9737889D01*
X2406427Y9737889D02*
X2419284Y9750746D01*
X2419284Y9750746D02*
X2444999Y9763603D01*
X2444999Y9763603D02*
X2496427Y9763603D01*
X2496427Y9763603D02*
X2522142Y9750746D01*
X2740713Y9596460D02*
X2714999Y9583603D01*
X2714999Y9583603D02*
X2663571Y9583603D01*
X2663571Y9583603D02*
X2637856Y9596460D01*
X2637856Y9596460D02*
X2624999Y9622175D01*
X2624999Y9622175D02*
X2624999Y9725032D01*
X2624999Y9725032D02*
X2637856Y9750746D01*
X2637856Y9750746D02*
X2663571Y9763603D01*
X2663571Y9763603D02*
X2714999Y9763603D01*
X2714999Y9763603D02*
X2740713Y9750746D01*
X2740713Y9750746D02*
X2753571Y9725032D01*
X2753571Y9725032D02*
X2753571Y9699318D01*
X2753571Y9699318D02*
X2624999Y9673603D01*
X2869285Y9763603D02*
X2869285Y9493603D01*
X2869285Y9750746D02*
X2895000Y9763603D01*
X2895000Y9763603D02*
X2946428Y9763603D01*
X2946428Y9763603D02*
X2972142Y9750746D01*
X2972142Y9750746D02*
X2985000Y9737889D01*
X2985000Y9737889D02*
X2997857Y9712175D01*
X2997857Y9712175D02*
X2997857Y9635032D01*
X2997857Y9635032D02*
X2985000Y9609318D01*
X2985000Y9609318D02*
X2972142Y9596460D01*
X2972142Y9596460D02*
X2946428Y9583603D01*
X2946428Y9583603D02*
X2895000Y9583603D01*
X2895000Y9583603D02*
X2869285Y9596460D01*
X3075000Y9763603D02*
X3177857Y9763603D01*
X3113571Y9853603D02*
X3113571Y9622175D01*
X3113571Y9622175D02*
X3126428Y9596460D01*
X3126428Y9596460D02*
X3152143Y9583603D01*
X3152143Y9583603D02*
X3177857Y9583603D01*
X3383572Y9583603D02*
X3383572Y9725032D01*
X3383572Y9725032D02*
X3370714Y9750746D01*
X3370714Y9750746D02*
X3345000Y9763603D01*
X3345000Y9763603D02*
X3293572Y9763603D01*
X3293572Y9763603D02*
X3267857Y9750746D01*
X3383572Y9596460D02*
X3357857Y9583603D01*
X3357857Y9583603D02*
X3293572Y9583603D01*
X3293572Y9583603D02*
X3267857Y9596460D01*
X3267857Y9596460D02*
X3255000Y9622175D01*
X3255000Y9622175D02*
X3255000Y9647889D01*
X3255000Y9647889D02*
X3267857Y9673603D01*
X3267857Y9673603D02*
X3293572Y9686460D01*
X3293572Y9686460D02*
X3357857Y9686460D01*
X3357857Y9686460D02*
X3383572Y9699318D01*
X3627858Y9596460D02*
X3602143Y9583603D01*
X3602143Y9583603D02*
X3550715Y9583603D01*
X3550715Y9583603D02*
X3525000Y9596460D01*
X3525000Y9596460D02*
X3512143Y9609318D01*
X3512143Y9609318D02*
X3499286Y9635032D01*
X3499286Y9635032D02*
X3499286Y9712175D01*
X3499286Y9712175D02*
X3512143Y9737889D01*
X3512143Y9737889D02*
X3525000Y9750746D01*
X3525000Y9750746D02*
X3550715Y9763603D01*
X3550715Y9763603D02*
X3602143Y9763603D01*
X3602143Y9763603D02*
X3627858Y9750746D01*
X3782144Y9583603D02*
X3756429Y9596460D01*
X3756429Y9596460D02*
X3743572Y9622175D01*
X3743572Y9622175D02*
X3743572Y9853603D01*
X3987858Y9596460D02*
X3962144Y9583603D01*
X3962144Y9583603D02*
X3910716Y9583603D01*
X3910716Y9583603D02*
X3885001Y9596460D01*
X3885001Y9596460D02*
X3872144Y9622175D01*
X3872144Y9622175D02*
X3872144Y9725032D01*
X3872144Y9725032D02*
X3885001Y9750746D01*
X3885001Y9750746D02*
X3910716Y9763603D01*
X3910716Y9763603D02*
X3962144Y9763603D01*
X3962144Y9763603D02*
X3987858Y9750746D01*
X3987858Y9750746D02*
X4000716Y9725032D01*
X4000716Y9725032D02*
X4000716Y9699318D01*
X4000716Y9699318D02*
X3872144Y9673603D01*
X4052145Y9557889D02*
X4257859Y9557889D01*
X4322144Y9853603D02*
X4322144Y9635032D01*
X4322144Y9635032D02*
X4335001Y9609318D01*
X4335001Y9609318D02*
X4347859Y9596460D01*
X4347859Y9596460D02*
X4373573Y9583603D01*
X4373573Y9583603D02*
X4425001Y9583603D01*
X4425001Y9583603D02*
X4450716Y9596460D01*
X4450716Y9596460D02*
X4463573Y9609318D01*
X4463573Y9609318D02*
X4476430Y9635032D01*
X4476430Y9635032D02*
X4476430Y9853603D01*
X4592144Y9596460D02*
X4630716Y9583603D01*
X4630716Y9583603D02*
X4695001Y9583603D01*
X4695001Y9583603D02*
X4720716Y9596460D01*
X4720716Y9596460D02*
X4733573Y9609318D01*
X4733573Y9609318D02*
X4746430Y9635032D01*
X4746430Y9635032D02*
X4746430Y9660746D01*
X4746430Y9660746D02*
X4733573Y9686460D01*
X4733573Y9686460D02*
X4720716Y9699318D01*
X4720716Y9699318D02*
X4695001Y9712175D01*
X4695001Y9712175D02*
X4643573Y9725032D01*
X4643573Y9725032D02*
X4617858Y9737889D01*
X4617858Y9737889D02*
X4605001Y9750746D01*
X4605001Y9750746D02*
X4592144Y9776460D01*
X4592144Y9776460D02*
X4592144Y9802175D01*
X4592144Y9802175D02*
X4605001Y9827889D01*
X4605001Y9827889D02*
X4617858Y9840746D01*
X4617858Y9840746D02*
X4643573Y9853603D01*
X4643573Y9853603D02*
X4707858Y9853603D01*
X4707858Y9853603D02*
X4746430Y9840746D01*
X4952144Y9725032D02*
X4990716Y9712175D01*
X4990716Y9712175D02*
X5003573Y9699318D01*
X5003573Y9699318D02*
X5016430Y9673603D01*
X5016430Y9673603D02*
X5016430Y9635032D01*
X5016430Y9635032D02*
X5003573Y9609318D01*
X5003573Y9609318D02*
X4990716Y9596460D01*
X4990716Y9596460D02*
X4965001Y9583603D01*
X4965001Y9583603D02*
X4862144Y9583603D01*
X4862144Y9583603D02*
X4862144Y9853603D01*
X4862144Y9853603D02*
X4952144Y9853603D01*
X4952144Y9853603D02*
X4977859Y9840746D01*
X4977859Y9840746D02*
X4990716Y9827889D01*
X4990716Y9827889D02*
X5003573Y9802175D01*
X5003573Y9802175D02*
X5003573Y9776460D01*
X5003573Y9776460D02*
X4990716Y9750746D01*
X4990716Y9750746D02*
X4977859Y9737889D01*
X4977859Y9737889D02*
X4952144Y9725032D01*
X4952144Y9725032D02*
X4862144Y9725032D01*
X5119287Y9827889D02*
X5132144Y9840746D01*
X5132144Y9840746D02*
X5157859Y9853603D01*
X5157859Y9853603D02*
X5222144Y9853603D01*
X5222144Y9853603D02*
X5247859Y9840746D01*
X5247859Y9840746D02*
X5260716Y9827889D01*
X5260716Y9827889D02*
X5273573Y9802175D01*
X5273573Y9802175D02*
X5273573Y9776460D01*
X5273573Y9776460D02*
X5260716Y9737889D01*
X5260716Y9737889D02*
X5106430Y9583603D01*
X5106430Y9583603D02*
X5273573Y9583603D01*
X5389287Y9609318D02*
X5402144Y9596460D01*
X5402144Y9596460D02*
X5389287Y9583603D01*
X5389287Y9583603D02*
X5376430Y9596460D01*
X5376430Y9596460D02*
X5389287Y9609318D01*
X5389287Y9609318D02*
X5389287Y9583603D01*
X5569287Y9853603D02*
X5595001Y9853603D01*
X5595001Y9853603D02*
X5620715Y9840746D01*
X5620715Y9840746D02*
X5633573Y9827889D01*
X5633573Y9827889D02*
X5646430Y9802175D01*
X5646430Y9802175D02*
X5659287Y9750746D01*
X5659287Y9750746D02*
X5659287Y9686460D01*
X5659287Y9686460D02*
X5646430Y9635032D01*
X5646430Y9635032D02*
X5633573Y9609318D01*
X5633573Y9609318D02*
X5620715Y9596460D01*
X5620715Y9596460D02*
X5595001Y9583603D01*
X5595001Y9583603D02*
X5569287Y9583603D01*
X5569287Y9583603D02*
X5543573Y9596460D01*
X5543573Y9596460D02*
X5530715Y9609318D01*
X5530715Y9609318D02*
X5517858Y9635032D01*
X5517858Y9635032D02*
X5505001Y9686460D01*
X5505001Y9686460D02*
X5505001Y9750746D01*
X5505001Y9750746D02*
X5517858Y9802175D01*
X5517858Y9802175D02*
X5530715Y9827889D01*
X5530715Y9827889D02*
X5543573Y9840746D01*
X5543573Y9840746D02*
X5569287Y9853603D01*
X3110000Y10513603D02*
X3110000Y10320746D01*
X3110000Y10320746D02*
X3097143Y10282175D01*
X3097143Y10282175D02*
X3071429Y10256460D01*
X3071429Y10256460D02*
X3032857Y10243603D01*
X3032857Y10243603D02*
X3007143Y10243603D01*
X3380000Y10243603D02*
X3225714Y10243603D01*
X3302857Y10243603D02*
X3302857Y10513603D01*
X3302857Y10513603D02*
X3277143Y10475032D01*
X3277143Y10475032D02*
X3251428Y10449318D01*
X3251428Y10449318D02*
X3225714Y10436460D01*
X24133285Y12083032D02*
X24223285Y12083032D01*
X24261857Y11941603D02*
X24133285Y11941603D01*
X24133285Y11941603D02*
X24133285Y12211603D01*
X24133285Y12211603D02*
X24261857Y12211603D01*
X24364714Y11954460D02*
X24403286Y11941603D01*
X24403286Y11941603D02*
X24467571Y11941603D01*
X24467571Y11941603D02*
X24493286Y11954460D01*
X24493286Y11954460D02*
X24506143Y11967318D01*
X24506143Y11967318D02*
X24519000Y11993032D01*
X24519000Y11993032D02*
X24519000Y12018746D01*
X24519000Y12018746D02*
X24506143Y12044460D01*
X24506143Y12044460D02*
X24493286Y12057318D01*
X24493286Y12057318D02*
X24467571Y12070175D01*
X24467571Y12070175D02*
X24416143Y12083032D01*
X24416143Y12083032D02*
X24390428Y12095889D01*
X24390428Y12095889D02*
X24377571Y12108746D01*
X24377571Y12108746D02*
X24364714Y12134460D01*
X24364714Y12134460D02*
X24364714Y12160175D01*
X24364714Y12160175D02*
X24377571Y12185889D01*
X24377571Y12185889D02*
X24390428Y12198746D01*
X24390428Y12198746D02*
X24416143Y12211603D01*
X24416143Y12211603D02*
X24480428Y12211603D01*
X24480428Y12211603D02*
X24519000Y12198746D01*
X24634714Y11941603D02*
X24634714Y12211603D01*
X24634714Y12211603D02*
X24737571Y12211603D01*
X24737571Y12211603D02*
X24763286Y12198746D01*
X24763286Y12198746D02*
X24776143Y12185889D01*
X24776143Y12185889D02*
X24789000Y12160175D01*
X24789000Y12160175D02*
X24789000Y12121603D01*
X24789000Y12121603D02*
X24776143Y12095889D01*
X24776143Y12095889D02*
X24763286Y12083032D01*
X24763286Y12083032D02*
X24737571Y12070175D01*
X24737571Y12070175D02*
X24634714Y12070175D01*
X24840429Y11915889D02*
X25046143Y11915889D01*
X25110428Y11941603D02*
X25110428Y12211603D01*
X25110428Y12211603D02*
X25213285Y12211603D01*
X25213285Y12211603D02*
X25239000Y12198746D01*
X25239000Y12198746D02*
X25251857Y12185889D01*
X25251857Y12185889D02*
X25264714Y12160175D01*
X25264714Y12160175D02*
X25264714Y12121603D01*
X25264714Y12121603D02*
X25251857Y12095889D01*
X25251857Y12095889D02*
X25239000Y12083032D01*
X25239000Y12083032D02*
X25213285Y12070175D01*
X25213285Y12070175D02*
X25110428Y12070175D01*
X25534714Y11941603D02*
X25444714Y12070175D01*
X25380428Y11941603D02*
X25380428Y12211603D01*
X25380428Y12211603D02*
X25483285Y12211603D01*
X25483285Y12211603D02*
X25509000Y12198746D01*
X25509000Y12198746D02*
X25521857Y12185889D01*
X25521857Y12185889D02*
X25534714Y12160175D01*
X25534714Y12160175D02*
X25534714Y12121603D01*
X25534714Y12121603D02*
X25521857Y12095889D01*
X25521857Y12095889D02*
X25509000Y12083032D01*
X25509000Y12083032D02*
X25483285Y12070175D01*
X25483285Y12070175D02*
X25380428Y12070175D01*
X25701857Y12211603D02*
X25753285Y12211603D01*
X25753285Y12211603D02*
X25779000Y12198746D01*
X25779000Y12198746D02*
X25804714Y12173032D01*
X25804714Y12173032D02*
X25817571Y12121603D01*
X25817571Y12121603D02*
X25817571Y12031603D01*
X25817571Y12031603D02*
X25804714Y11980175D01*
X25804714Y11980175D02*
X25779000Y11954460D01*
X25779000Y11954460D02*
X25753285Y11941603D01*
X25753285Y11941603D02*
X25701857Y11941603D01*
X25701857Y11941603D02*
X25676143Y11954460D01*
X25676143Y11954460D02*
X25650428Y11980175D01*
X25650428Y11980175D02*
X25637571Y12031603D01*
X25637571Y12031603D02*
X25637571Y12121603D01*
X25637571Y12121603D02*
X25650428Y12173032D01*
X25650428Y12173032D02*
X25676143Y12198746D01*
X25676143Y12198746D02*
X25701857Y12211603D01*
X26074714Y12198746D02*
X26049000Y12211603D01*
X26049000Y12211603D02*
X26010428Y12211603D01*
X26010428Y12211603D02*
X25971857Y12198746D01*
X25971857Y12198746D02*
X25946142Y12173032D01*
X25946142Y12173032D02*
X25933285Y12147318D01*
X25933285Y12147318D02*
X25920428Y12095889D01*
X25920428Y12095889D02*
X25920428Y12057318D01*
X25920428Y12057318D02*
X25933285Y12005889D01*
X25933285Y12005889D02*
X25946142Y11980175D01*
X25946142Y11980175D02*
X25971857Y11954460D01*
X25971857Y11954460D02*
X26010428Y11941603D01*
X26010428Y11941603D02*
X26036142Y11941603D01*
X26036142Y11941603D02*
X26074714Y11954460D01*
X26074714Y11954460D02*
X26087571Y11967318D01*
X26087571Y11967318D02*
X26087571Y12057318D01*
X26087571Y12057318D02*
X26036142Y12057318D01*
X24899000Y12851603D02*
X24899000Y12658746D01*
X24899000Y12658746D02*
X24886143Y12620175D01*
X24886143Y12620175D02*
X24860429Y12594460D01*
X24860429Y12594460D02*
X24821857Y12581603D01*
X24821857Y12581603D02*
X24796143Y12581603D01*
X25156143Y12851603D02*
X25027571Y12851603D01*
X25027571Y12851603D02*
X25014714Y12723032D01*
X25014714Y12723032D02*
X25027571Y12735889D01*
X25027571Y12735889D02*
X25053286Y12748746D01*
X25053286Y12748746D02*
X25117571Y12748746D01*
X25117571Y12748746D02*
X25143286Y12735889D01*
X25143286Y12735889D02*
X25156143Y12723032D01*
X25156143Y12723032D02*
X25169000Y12697318D01*
X25169000Y12697318D02*
X25169000Y12633032D01*
X25169000Y12633032D02*
X25156143Y12607318D01*
X25156143Y12607318D02*
X25143286Y12594460D01*
X25143286Y12594460D02*
X25117571Y12581603D01*
X25117571Y12581603D02*
X25053286Y12581603D01*
X25053286Y12581603D02*
X25027571Y12594460D01*
X25027571Y12594460D02*
X25014714Y12607318D01*
D10*
X32172143Y11990478D02*
X32272143Y11990478D01*
X32315000Y11833335D02*
X32172143Y11833335D01*
X32172143Y11833335D02*
X32172143Y12133335D01*
X32172143Y12133335D02*
X32315000Y12133335D01*
X32429286Y11847620D02*
X32472144Y11833335D01*
X32472144Y11833335D02*
X32543572Y11833335D01*
X32543572Y11833335D02*
X32572144Y11847620D01*
X32572144Y11847620D02*
X32586429Y11861906D01*
X32586429Y11861906D02*
X32600715Y11890478D01*
X32600715Y11890478D02*
X32600715Y11919049D01*
X32600715Y11919049D02*
X32586429Y11947620D01*
X32586429Y11947620D02*
X32572144Y11961906D01*
X32572144Y11961906D02*
X32543572Y11976192D01*
X32543572Y11976192D02*
X32486429Y11990478D01*
X32486429Y11990478D02*
X32457858Y12004763D01*
X32457858Y12004763D02*
X32443572Y12019049D01*
X32443572Y12019049D02*
X32429286Y12047620D01*
X32429286Y12047620D02*
X32429286Y12076192D01*
X32429286Y12076192D02*
X32443572Y12104763D01*
X32443572Y12104763D02*
X32457858Y12119049D01*
X32457858Y12119049D02*
X32486429Y12133335D01*
X32486429Y12133335D02*
X32557858Y12133335D01*
X32557858Y12133335D02*
X32600715Y12119049D01*
X32729286Y11833335D02*
X32729286Y12133335D01*
X32729286Y12133335D02*
X32843572Y12133335D01*
X32843572Y12133335D02*
X32872143Y12119049D01*
X32872143Y12119049D02*
X32886429Y12104763D01*
X32886429Y12104763D02*
X32900715Y12076192D01*
X32900715Y12076192D02*
X32900715Y12033335D01*
X32900715Y12033335D02*
X32886429Y12004763D01*
X32886429Y12004763D02*
X32872143Y11990478D01*
X32872143Y11990478D02*
X32843572Y11976192D01*
X32843572Y11976192D02*
X32729286Y11976192D01*
X32957858Y11804763D02*
X33186429Y11804763D01*
X33257857Y11833335D02*
X33257857Y12133335D01*
X33257857Y12133335D02*
X33372143Y12133335D01*
X33372143Y12133335D02*
X33400714Y12119049D01*
X33400714Y12119049D02*
X33415000Y12104763D01*
X33415000Y12104763D02*
X33429286Y12076192D01*
X33429286Y12076192D02*
X33429286Y12033335D01*
X33429286Y12033335D02*
X33415000Y12004763D01*
X33415000Y12004763D02*
X33400714Y11990478D01*
X33400714Y11990478D02*
X33372143Y11976192D01*
X33372143Y11976192D02*
X33257857Y11976192D01*
X33529286Y12133335D02*
X33600714Y11833335D01*
X33600714Y11833335D02*
X33657857Y12047620D01*
X33657857Y12047620D02*
X33715000Y11833335D01*
X33715000Y11833335D02*
X33786429Y12133335D01*
X34072143Y11833335D02*
X33972143Y11976192D01*
X33900714Y11833335D02*
X33900714Y12133335D01*
X33900714Y12133335D02*
X34015000Y12133335D01*
X34015000Y12133335D02*
X34043571Y12119049D01*
X34043571Y12119049D02*
X34057857Y12104763D01*
X34057857Y12104763D02*
X34072143Y12076192D01*
X34072143Y12076192D02*
X34072143Y12033335D01*
X34072143Y12033335D02*
X34057857Y12004763D01*
X34057857Y12004763D02*
X34043571Y11990478D01*
X34043571Y11990478D02*
X34015000Y11976192D01*
X34015000Y11976192D02*
X33900714Y11976192D01*
X32893571Y12723335D02*
X32893571Y13023335D01*
X32893571Y13023335D02*
X32965000Y13023335D01*
X32965000Y13023335D02*
X33007857Y13009049D01*
X33007857Y13009049D02*
X33036428Y12980478D01*
X33036428Y12980478D02*
X33050714Y12951906D01*
X33050714Y12951906D02*
X33065000Y12894763D01*
X33065000Y12894763D02*
X33065000Y12851906D01*
X33065000Y12851906D02*
X33050714Y12794763D01*
X33050714Y12794763D02*
X33036428Y12766192D01*
X33036428Y12766192D02*
X33007857Y12737620D01*
X33007857Y12737620D02*
X32965000Y12723335D01*
X32965000Y12723335D02*
X32893571Y12723335D01*
X33165000Y13023335D02*
X33350714Y13023335D01*
X33350714Y13023335D02*
X33250714Y12909049D01*
X33250714Y12909049D02*
X33293571Y12909049D01*
X33293571Y12909049D02*
X33322143Y12894763D01*
X33322143Y12894763D02*
X33336428Y12880478D01*
X33336428Y12880478D02*
X33350714Y12851906D01*
X33350714Y12851906D02*
X33350714Y12780478D01*
X33350714Y12780478D02*
X33336428Y12751906D01*
X33336428Y12751906D02*
X33322143Y12737620D01*
X33322143Y12737620D02*
X33293571Y12723335D01*
X33293571Y12723335D02*
X33207857Y12723335D01*
X33207857Y12723335D02*
X33179285Y12737620D01*
X33179285Y12737620D02*
X33165000Y12751906D01*
D11*
X15668572Y16158603D02*
X15668572Y16428603D01*
X15668572Y16428603D02*
X15771429Y16428603D01*
X15771429Y16428603D02*
X15797144Y16415746D01*
X15797144Y16415746D02*
X15810001Y16402889D01*
X15810001Y16402889D02*
X15822858Y16377175D01*
X15822858Y16377175D02*
X15822858Y16338603D01*
X15822858Y16338603D02*
X15810001Y16312889D01*
X15810001Y16312889D02*
X15797144Y16300032D01*
X15797144Y16300032D02*
X15771429Y16287175D01*
X15771429Y16287175D02*
X15668572Y16287175D01*
X15990001Y16428603D02*
X16041429Y16428603D01*
X16041429Y16428603D02*
X16067144Y16415746D01*
X16067144Y16415746D02*
X16092858Y16390032D01*
X16092858Y16390032D02*
X16105715Y16338603D01*
X16105715Y16338603D02*
X16105715Y16248603D01*
X16105715Y16248603D02*
X16092858Y16197175D01*
X16092858Y16197175D02*
X16067144Y16171460D01*
X16067144Y16171460D02*
X16041429Y16158603D01*
X16041429Y16158603D02*
X15990001Y16158603D01*
X15990001Y16158603D02*
X15964287Y16171460D01*
X15964287Y16171460D02*
X15938572Y16197175D01*
X15938572Y16197175D02*
X15925715Y16248603D01*
X15925715Y16248603D02*
X15925715Y16338603D01*
X15925715Y16338603D02*
X15938572Y16390032D01*
X15938572Y16390032D02*
X15964287Y16415746D01*
X15964287Y16415746D02*
X15990001Y16428603D01*
X16195715Y16428603D02*
X16260001Y16158603D01*
X16260001Y16158603D02*
X16311429Y16351460D01*
X16311429Y16351460D02*
X16362858Y16158603D01*
X16362858Y16158603D02*
X16427144Y16428603D01*
X16465715Y16132889D02*
X16671429Y16132889D01*
X16890000Y16184318D02*
X16877143Y16171460D01*
X16877143Y16171460D02*
X16838571Y16158603D01*
X16838571Y16158603D02*
X16812857Y16158603D01*
X16812857Y16158603D02*
X16774286Y16171460D01*
X16774286Y16171460D02*
X16748571Y16197175D01*
X16748571Y16197175D02*
X16735714Y16222889D01*
X16735714Y16222889D02*
X16722857Y16274318D01*
X16722857Y16274318D02*
X16722857Y16312889D01*
X16722857Y16312889D02*
X16735714Y16364318D01*
X16735714Y16364318D02*
X16748571Y16390032D01*
X16748571Y16390032D02*
X16774286Y16415746D01*
X16774286Y16415746D02*
X16812857Y16428603D01*
X16812857Y16428603D02*
X16838571Y16428603D01*
X16838571Y16428603D02*
X16877143Y16415746D01*
X16877143Y16415746D02*
X16890000Y16402889D01*
X16967143Y16428603D02*
X17121429Y16428603D01*
X17044286Y16158603D02*
X17044286Y16428603D01*
X17365714Y16158603D02*
X17275714Y16287175D01*
X17211428Y16158603D02*
X17211428Y16428603D01*
X17211428Y16428603D02*
X17314285Y16428603D01*
X17314285Y16428603D02*
X17340000Y16415746D01*
X17340000Y16415746D02*
X17352857Y16402889D01*
X17352857Y16402889D02*
X17365714Y16377175D01*
X17365714Y16377175D02*
X17365714Y16338603D01*
X17365714Y16338603D02*
X17352857Y16312889D01*
X17352857Y16312889D02*
X17340000Y16300032D01*
X17340000Y16300032D02*
X17314285Y16287175D01*
X17314285Y16287175D02*
X17211428Y16287175D01*
X17610000Y16158603D02*
X17481428Y16158603D01*
X17481428Y16158603D02*
X17481428Y16428603D01*
X16465835Y18009410D02*
X16504407Y17996553D01*
X16504407Y17996553D02*
X16568692Y17996553D01*
X16568692Y17996553D02*
X16594407Y18009410D01*
X16594407Y18009410D02*
X16607264Y18022268D01*
X16607264Y18022268D02*
X16620121Y18047982D01*
X16620121Y18047982D02*
X16620121Y18073696D01*
X16620121Y18073696D02*
X16607264Y18099410D01*
X16607264Y18099410D02*
X16594407Y18112268D01*
X16594407Y18112268D02*
X16568692Y18125125D01*
X16568692Y18125125D02*
X16517264Y18137982D01*
X16517264Y18137982D02*
X16491549Y18150839D01*
X16491549Y18150839D02*
X16478692Y18163696D01*
X16478692Y18163696D02*
X16465835Y18189410D01*
X16465835Y18189410D02*
X16465835Y18215125D01*
X16465835Y18215125D02*
X16478692Y18240839D01*
X16478692Y18240839D02*
X16491549Y18253696D01*
X16491549Y18253696D02*
X16517264Y18266553D01*
X16517264Y18266553D02*
X16581549Y18266553D01*
X16581549Y18266553D02*
X16620121Y18253696D01*
X16710121Y18266553D02*
X16774407Y17996553D01*
X16774407Y17996553D02*
X16825835Y18189410D01*
X16825835Y18189410D02*
X16877264Y17996553D01*
X16877264Y17996553D02*
X16941550Y18266553D01*
X17172978Y18266553D02*
X17044406Y18266553D01*
X17044406Y18266553D02*
X17031549Y18137982D01*
X17031549Y18137982D02*
X17044406Y18150839D01*
X17044406Y18150839D02*
X17070121Y18163696D01*
X17070121Y18163696D02*
X17134406Y18163696D01*
X17134406Y18163696D02*
X17160121Y18150839D01*
X17160121Y18150839D02*
X17172978Y18137982D01*
X17172978Y18137982D02*
X17185835Y18112268D01*
X17185835Y18112268D02*
X17185835Y18047982D01*
X17185835Y18047982D02*
X17172978Y18022268D01*
X17172978Y18022268D02*
X17160121Y18009410D01*
X17160121Y18009410D02*
X17134406Y17996553D01*
X17134406Y17996553D02*
X17070121Y17996553D01*
X17070121Y17996553D02*
X17044406Y18009410D01*
X17044406Y18009410D02*
X17031549Y18022268D01*
D10*
X28637143Y5984334D02*
X28737143Y5684334D01*
X28737143Y5684334D02*
X28837143Y5984334D01*
X28937143Y5684334D02*
X28937143Y5984334D01*
X28937143Y5984334D02*
X29008572Y5984334D01*
X29008572Y5984334D02*
X29051429Y5970048D01*
X29051429Y5970048D02*
X29080000Y5941477D01*
X29080000Y5941477D02*
X29094286Y5912905D01*
X29094286Y5912905D02*
X29108572Y5855762D01*
X29108572Y5855762D02*
X29108572Y5812905D01*
X29108572Y5812905D02*
X29094286Y5755762D01*
X29094286Y5755762D02*
X29080000Y5727191D01*
X29080000Y5727191D02*
X29051429Y5698619D01*
X29051429Y5698619D02*
X29008572Y5684334D01*
X29008572Y5684334D02*
X28937143Y5684334D01*
X29237143Y5684334D02*
X29237143Y5984334D01*
X29237143Y5984334D02*
X29308572Y5984334D01*
X29308572Y5984334D02*
X29351429Y5970048D01*
X29351429Y5970048D02*
X29380000Y5941477D01*
X29380000Y5941477D02*
X29394286Y5912905D01*
X29394286Y5912905D02*
X29408572Y5855762D01*
X29408572Y5855762D02*
X29408572Y5812905D01*
X29408572Y5812905D02*
X29394286Y5755762D01*
X29394286Y5755762D02*
X29380000Y5727191D01*
X29380000Y5727191D02*
X29351429Y5698619D01*
X29351429Y5698619D02*
X29308572Y5684334D01*
X29308572Y5684334D02*
X29237143Y5684334D01*
X29465715Y5655762D02*
X29694286Y5655762D01*
X29937143Y5712905D02*
X29922857Y5698619D01*
X29922857Y5698619D02*
X29880000Y5684334D01*
X29880000Y5684334D02*
X29851428Y5684334D01*
X29851428Y5684334D02*
X29808571Y5698619D01*
X29808571Y5698619D02*
X29780000Y5727191D01*
X29780000Y5727191D02*
X29765714Y5755762D01*
X29765714Y5755762D02*
X29751428Y5812905D01*
X29751428Y5812905D02*
X29751428Y5855762D01*
X29751428Y5855762D02*
X29765714Y5912905D01*
X29765714Y5912905D02*
X29780000Y5941477D01*
X29780000Y5941477D02*
X29808571Y5970048D01*
X29808571Y5970048D02*
X29851428Y5984334D01*
X29851428Y5984334D02*
X29880000Y5984334D01*
X29880000Y5984334D02*
X29922857Y5970048D01*
X29922857Y5970048D02*
X29937143Y5955762D01*
X30022857Y5984334D02*
X30194286Y5984334D01*
X30108571Y5684334D02*
X30108571Y5984334D01*
X30465714Y5684334D02*
X30365714Y5827191D01*
X30294285Y5684334D02*
X30294285Y5984334D01*
X30294285Y5984334D02*
X30408571Y5984334D01*
X30408571Y5984334D02*
X30437142Y5970048D01*
X30437142Y5970048D02*
X30451428Y5955762D01*
X30451428Y5955762D02*
X30465714Y5927191D01*
X30465714Y5927191D02*
X30465714Y5884334D01*
X30465714Y5884334D02*
X30451428Y5855762D01*
X30451428Y5855762D02*
X30437142Y5841477D01*
X30437142Y5841477D02*
X30408571Y5827191D01*
X30408571Y5827191D02*
X30294285Y5827191D01*
X30737142Y5684334D02*
X30594285Y5684334D01*
X30594285Y5684334D02*
X30594285Y5984334D01*
X30765714Y5655762D02*
X30994285Y5655762D01*
X31165713Y5841477D02*
X31208570Y5827191D01*
X31208570Y5827191D02*
X31222856Y5812905D01*
X31222856Y5812905D02*
X31237142Y5784334D01*
X31237142Y5784334D02*
X31237142Y5741477D01*
X31237142Y5741477D02*
X31222856Y5712905D01*
X31222856Y5712905D02*
X31208570Y5698619D01*
X31208570Y5698619D02*
X31179999Y5684334D01*
X31179999Y5684334D02*
X31065713Y5684334D01*
X31065713Y5684334D02*
X31065713Y5984334D01*
X31065713Y5984334D02*
X31165713Y5984334D01*
X31165713Y5984334D02*
X31194285Y5970048D01*
X31194285Y5970048D02*
X31208570Y5955762D01*
X31208570Y5955762D02*
X31222856Y5927191D01*
X31222856Y5927191D02*
X31222856Y5898619D01*
X31222856Y5898619D02*
X31208570Y5870048D01*
X31208570Y5870048D02*
X31194285Y5855762D01*
X31194285Y5855762D02*
X31165713Y5841477D01*
X31165713Y5841477D02*
X31065713Y5841477D01*
X31422856Y5827191D02*
X31422856Y5684334D01*
X31322856Y5984334D02*
X31422856Y5827191D01*
X31422856Y5827191D02*
X31522856Y5984334D01*
X31622856Y5684334D02*
X31622856Y5984334D01*
X31622856Y5984334D02*
X31737142Y5984334D01*
X31737142Y5984334D02*
X31765713Y5970048D01*
X31765713Y5970048D02*
X31779999Y5955762D01*
X31779999Y5955762D02*
X31794285Y5927191D01*
X31794285Y5927191D02*
X31794285Y5884334D01*
X31794285Y5884334D02*
X31779999Y5855762D01*
X31779999Y5855762D02*
X31765713Y5841477D01*
X31765713Y5841477D02*
X31737142Y5827191D01*
X31737142Y5827191D02*
X31622856Y5827191D01*
X30596615Y7209835D02*
X30596615Y6995549D01*
X30596615Y6995549D02*
X30582330Y6952692D01*
X30582330Y6952692D02*
X30553758Y6924120D01*
X30553758Y6924120D02*
X30510901Y6909835D01*
X30510901Y6909835D02*
X30482330Y6909835D01*
X30739472Y6909835D02*
X30739472Y7209835D01*
X30739472Y7209835D02*
X30853758Y7209835D01*
X30853758Y7209835D02*
X30882329Y7195549D01*
X30882329Y7195549D02*
X30896615Y7181263D01*
X30896615Y7181263D02*
X30910901Y7152692D01*
X30910901Y7152692D02*
X30910901Y7109835D01*
X30910901Y7109835D02*
X30896615Y7081263D01*
X30896615Y7081263D02*
X30882329Y7066978D01*
X30882329Y7066978D02*
X30853758Y7052692D01*
X30853758Y7052692D02*
X30739472Y7052692D01*
X31182329Y7209835D02*
X31039472Y7209835D01*
X31039472Y7209835D02*
X31025186Y7066978D01*
X31025186Y7066978D02*
X31039472Y7081263D01*
X31039472Y7081263D02*
X31068044Y7095549D01*
X31068044Y7095549D02*
X31139472Y7095549D01*
X31139472Y7095549D02*
X31168044Y7081263D01*
X31168044Y7081263D02*
X31182329Y7066978D01*
X31182329Y7066978D02*
X31196615Y7038406D01*
X31196615Y7038406D02*
X31196615Y6966978D01*
X31196615Y6966978D02*
X31182329Y6938406D01*
X31182329Y6938406D02*
X31168044Y6924120D01*
X31168044Y6924120D02*
X31139472Y6909835D01*
X31139472Y6909835D02*
X31068044Y6909835D01*
X31068044Y6909835D02*
X31039472Y6924120D01*
X31039472Y6924120D02*
X31025186Y6938406D01*
X20527857Y17079335D02*
X20356428Y17079335D01*
X20442143Y17079335D02*
X20442143Y17379335D01*
X20442143Y17379335D02*
X20413571Y17336478D01*
X20413571Y17336478D02*
X20385000Y17307906D01*
X20385000Y17307906D02*
X20356428Y17293620D01*
X20713571Y17379335D02*
X20742142Y17379335D01*
X20742142Y17379335D02*
X20770714Y17365049D01*
X20770714Y17365049D02*
X20785000Y17350763D01*
X20785000Y17350763D02*
X20799285Y17322192D01*
X20799285Y17322192D02*
X20813571Y17265049D01*
X20813571Y17265049D02*
X20813571Y17193620D01*
X20813571Y17193620D02*
X20799285Y17136478D01*
X20799285Y17136478D02*
X20785000Y17107906D01*
X20785000Y17107906D02*
X20770714Y17093620D01*
X20770714Y17093620D02*
X20742142Y17079335D01*
X20742142Y17079335D02*
X20713571Y17079335D01*
X20713571Y17079335D02*
X20685000Y17093620D01*
X20685000Y17093620D02*
X20670714Y17107906D01*
X20670714Y17107906D02*
X20656428Y17136478D01*
X20656428Y17136478D02*
X20642142Y17193620D01*
X20642142Y17193620D02*
X20642142Y17265049D01*
X20642142Y17265049D02*
X20656428Y17322192D01*
X20656428Y17322192D02*
X20670714Y17350763D01*
X20670714Y17350763D02*
X20685000Y17365049D01*
X20685000Y17365049D02*
X20713571Y17379335D01*
X20942142Y17079335D02*
X20942142Y17379335D01*
X21113571Y17079335D02*
X20984999Y17250763D01*
X21113571Y17379335D02*
X20942142Y17207906D01*
X20880665Y18035001D02*
X20737808Y17935001D01*
X20880665Y17863572D02*
X20580665Y17863572D01*
X20580665Y17863572D02*
X20580665Y17977858D01*
X20580665Y17977858D02*
X20594951Y18006429D01*
X20594951Y18006429D02*
X20609237Y18020715D01*
X20609237Y18020715D02*
X20637808Y18035001D01*
X20637808Y18035001D02*
X20680665Y18035001D01*
X20680665Y18035001D02*
X20709237Y18020715D01*
X20709237Y18020715D02*
X20723522Y18006429D01*
X20723522Y18006429D02*
X20737808Y17977858D01*
X20737808Y17977858D02*
X20737808Y17863572D01*
X20580665Y18135001D02*
X20580665Y18320715D01*
X20580665Y18320715D02*
X20694951Y18220715D01*
X20694951Y18220715D02*
X20694951Y18263572D01*
X20694951Y18263572D02*
X20709237Y18292143D01*
X20709237Y18292143D02*
X20723522Y18306429D01*
X20723522Y18306429D02*
X20752094Y18320715D01*
X20752094Y18320715D02*
X20823522Y18320715D01*
X20823522Y18320715D02*
X20852094Y18306429D01*
X20852094Y18306429D02*
X20866380Y18292143D01*
X20866380Y18292143D02*
X20880665Y18263572D01*
X20880665Y18263572D02*
X20880665Y18177858D01*
X20880665Y18177858D02*
X20866380Y18149286D01*
X20866380Y18149286D02*
X20852094Y18135001D01*
D11*
X20073571Y11334032D02*
X20112143Y11321175D01*
X20112143Y11321175D02*
X20125000Y11308318D01*
X20125000Y11308318D02*
X20137857Y11282603D01*
X20137857Y11282603D02*
X20137857Y11244032D01*
X20137857Y11244032D02*
X20125000Y11218318D01*
X20125000Y11218318D02*
X20112143Y11205460D01*
X20112143Y11205460D02*
X20086428Y11192603D01*
X20086428Y11192603D02*
X19983571Y11192603D01*
X19983571Y11192603D02*
X19983571Y11462603D01*
X19983571Y11462603D02*
X20073571Y11462603D01*
X20073571Y11462603D02*
X20099286Y11449746D01*
X20099286Y11449746D02*
X20112143Y11436889D01*
X20112143Y11436889D02*
X20125000Y11411175D01*
X20125000Y11411175D02*
X20125000Y11385460D01*
X20125000Y11385460D02*
X20112143Y11359746D01*
X20112143Y11359746D02*
X20099286Y11346889D01*
X20099286Y11346889D02*
X20073571Y11334032D01*
X20073571Y11334032D02*
X19983571Y11334032D01*
X20407857Y11218318D02*
X20395000Y11205460D01*
X20395000Y11205460D02*
X20356428Y11192603D01*
X20356428Y11192603D02*
X20330714Y11192603D01*
X20330714Y11192603D02*
X20292143Y11205460D01*
X20292143Y11205460D02*
X20266428Y11231175D01*
X20266428Y11231175D02*
X20253571Y11256889D01*
X20253571Y11256889D02*
X20240714Y11308318D01*
X20240714Y11308318D02*
X20240714Y11346889D01*
X20240714Y11346889D02*
X20253571Y11398318D01*
X20253571Y11398318D02*
X20266428Y11424032D01*
X20266428Y11424032D02*
X20292143Y11449746D01*
X20292143Y11449746D02*
X20330714Y11462603D01*
X20330714Y11462603D02*
X20356428Y11462603D01*
X20356428Y11462603D02*
X20395000Y11449746D01*
X20395000Y11449746D02*
X20407857Y11436889D01*
X20562143Y11346889D02*
X20536428Y11359746D01*
X20536428Y11359746D02*
X20523571Y11372603D01*
X20523571Y11372603D02*
X20510714Y11398318D01*
X20510714Y11398318D02*
X20510714Y11411175D01*
X20510714Y11411175D02*
X20523571Y11436889D01*
X20523571Y11436889D02*
X20536428Y11449746D01*
X20536428Y11449746D02*
X20562143Y11462603D01*
X20562143Y11462603D02*
X20613571Y11462603D01*
X20613571Y11462603D02*
X20639286Y11449746D01*
X20639286Y11449746D02*
X20652143Y11436889D01*
X20652143Y11436889D02*
X20665000Y11411175D01*
X20665000Y11411175D02*
X20665000Y11398318D01*
X20665000Y11398318D02*
X20652143Y11372603D01*
X20652143Y11372603D02*
X20639286Y11359746D01*
X20639286Y11359746D02*
X20613571Y11346889D01*
X20613571Y11346889D02*
X20562143Y11346889D01*
X20562143Y11346889D02*
X20536428Y11334032D01*
X20536428Y11334032D02*
X20523571Y11321175D01*
X20523571Y11321175D02*
X20510714Y11295460D01*
X20510714Y11295460D02*
X20510714Y11244032D01*
X20510714Y11244032D02*
X20523571Y11218318D01*
X20523571Y11218318D02*
X20536428Y11205460D01*
X20536428Y11205460D02*
X20562143Y11192603D01*
X20562143Y11192603D02*
X20613571Y11192603D01*
X20613571Y11192603D02*
X20639286Y11205460D01*
X20639286Y11205460D02*
X20652143Y11218318D01*
X20652143Y11218318D02*
X20665000Y11244032D01*
X20665000Y11244032D02*
X20665000Y11295460D01*
X20665000Y11295460D02*
X20652143Y11321175D01*
X20652143Y11321175D02*
X20639286Y11334032D01*
X20639286Y11334032D02*
X20613571Y11346889D01*
X20922143Y11192603D02*
X20767857Y11192603D01*
X20845000Y11192603D02*
X20845000Y11462603D01*
X20845000Y11462603D02*
X20819286Y11424032D01*
X20819286Y11424032D02*
X20793571Y11398318D01*
X20793571Y11398318D02*
X20767857Y11385460D01*
X21012143Y11462603D02*
X21192143Y11462603D01*
X21192143Y11462603D02*
X21076429Y11192603D01*
X20539285Y12956889D02*
X20513571Y12969746D01*
X20513571Y12969746D02*
X20487857Y12995460D01*
X20487857Y12995460D02*
X20449285Y13034032D01*
X20449285Y13034032D02*
X20423571Y13046889D01*
X20423571Y13046889D02*
X20397857Y13046889D01*
X20410714Y12982603D02*
X20385000Y12995460D01*
X20385000Y12995460D02*
X20359285Y13021175D01*
X20359285Y13021175D02*
X20346428Y13072603D01*
X20346428Y13072603D02*
X20346428Y13162603D01*
X20346428Y13162603D02*
X20359285Y13214032D01*
X20359285Y13214032D02*
X20385000Y13239746D01*
X20385000Y13239746D02*
X20410714Y13252603D01*
X20410714Y13252603D02*
X20462142Y13252603D01*
X20462142Y13252603D02*
X20487857Y13239746D01*
X20487857Y13239746D02*
X20513571Y13214032D01*
X20513571Y13214032D02*
X20526428Y13162603D01*
X20526428Y13162603D02*
X20526428Y13072603D01*
X20526428Y13072603D02*
X20513571Y13021175D01*
X20513571Y13021175D02*
X20487857Y12995460D01*
X20487857Y12995460D02*
X20462142Y12982603D01*
X20462142Y12982603D02*
X20410714Y12982603D01*
X20783571Y12982603D02*
X20629285Y12982603D01*
X20706428Y12982603D02*
X20706428Y13252603D01*
X20706428Y13252603D02*
X20680714Y13214032D01*
X20680714Y13214032D02*
X20654999Y13188318D01*
X20654999Y13188318D02*
X20629285Y13175460D01*
X39193285Y19880032D02*
X39283285Y19880032D01*
X39321857Y19738603D02*
X39193285Y19738603D01*
X39193285Y19738603D02*
X39193285Y20008603D01*
X39193285Y20008603D02*
X39321857Y20008603D01*
X39424714Y19751460D02*
X39463286Y19738603D01*
X39463286Y19738603D02*
X39527571Y19738603D01*
X39527571Y19738603D02*
X39553286Y19751460D01*
X39553286Y19751460D02*
X39566143Y19764318D01*
X39566143Y19764318D02*
X39579000Y19790032D01*
X39579000Y19790032D02*
X39579000Y19815746D01*
X39579000Y19815746D02*
X39566143Y19841460D01*
X39566143Y19841460D02*
X39553286Y19854318D01*
X39553286Y19854318D02*
X39527571Y19867175D01*
X39527571Y19867175D02*
X39476143Y19880032D01*
X39476143Y19880032D02*
X39450428Y19892889D01*
X39450428Y19892889D02*
X39437571Y19905746D01*
X39437571Y19905746D02*
X39424714Y19931460D01*
X39424714Y19931460D02*
X39424714Y19957175D01*
X39424714Y19957175D02*
X39437571Y19982889D01*
X39437571Y19982889D02*
X39450428Y19995746D01*
X39450428Y19995746D02*
X39476143Y20008603D01*
X39476143Y20008603D02*
X39540428Y20008603D01*
X39540428Y20008603D02*
X39579000Y19995746D01*
X39694714Y19738603D02*
X39694714Y20008603D01*
X39694714Y20008603D02*
X39797571Y20008603D01*
X39797571Y20008603D02*
X39823286Y19995746D01*
X39823286Y19995746D02*
X39836143Y19982889D01*
X39836143Y19982889D02*
X39849000Y19957175D01*
X39849000Y19957175D02*
X39849000Y19918603D01*
X39849000Y19918603D02*
X39836143Y19892889D01*
X39836143Y19892889D02*
X39823286Y19880032D01*
X39823286Y19880032D02*
X39797571Y19867175D01*
X39797571Y19867175D02*
X39694714Y19867175D01*
X39900429Y19712889D02*
X40106143Y19712889D01*
X40324714Y19738603D02*
X40234714Y19867175D01*
X40170428Y19738603D02*
X40170428Y20008603D01*
X40170428Y20008603D02*
X40273285Y20008603D01*
X40273285Y20008603D02*
X40299000Y19995746D01*
X40299000Y19995746D02*
X40311857Y19982889D01*
X40311857Y19982889D02*
X40324714Y19957175D01*
X40324714Y19957175D02*
X40324714Y19918603D01*
X40324714Y19918603D02*
X40311857Y19892889D01*
X40311857Y19892889D02*
X40299000Y19880032D01*
X40299000Y19880032D02*
X40273285Y19867175D01*
X40273285Y19867175D02*
X40170428Y19867175D01*
X40427571Y19751460D02*
X40466143Y19738603D01*
X40466143Y19738603D02*
X40530428Y19738603D01*
X40530428Y19738603D02*
X40556143Y19751460D01*
X40556143Y19751460D02*
X40569000Y19764318D01*
X40569000Y19764318D02*
X40581857Y19790032D01*
X40581857Y19790032D02*
X40581857Y19815746D01*
X40581857Y19815746D02*
X40569000Y19841460D01*
X40569000Y19841460D02*
X40556143Y19854318D01*
X40556143Y19854318D02*
X40530428Y19867175D01*
X40530428Y19867175D02*
X40479000Y19880032D01*
X40479000Y19880032D02*
X40453285Y19892889D01*
X40453285Y19892889D02*
X40440428Y19905746D01*
X40440428Y19905746D02*
X40427571Y19931460D01*
X40427571Y19931460D02*
X40427571Y19957175D01*
X40427571Y19957175D02*
X40440428Y19982889D01*
X40440428Y19982889D02*
X40453285Y19995746D01*
X40453285Y19995746D02*
X40479000Y20008603D01*
X40479000Y20008603D02*
X40543285Y20008603D01*
X40543285Y20008603D02*
X40581857Y19995746D01*
X40659000Y20008603D02*
X40813286Y20008603D01*
X40736143Y19738603D02*
X40736143Y20008603D01*
X39718164Y17953510D02*
X39756736Y17940653D01*
X39756736Y17940653D02*
X39821021Y17940653D01*
X39821021Y17940653D02*
X39846736Y17953510D01*
X39846736Y17953510D02*
X39859593Y17966368D01*
X39859593Y17966368D02*
X39872450Y17992082D01*
X39872450Y17992082D02*
X39872450Y18017796D01*
X39872450Y18017796D02*
X39859593Y18043510D01*
X39859593Y18043510D02*
X39846736Y18056368D01*
X39846736Y18056368D02*
X39821021Y18069225D01*
X39821021Y18069225D02*
X39769593Y18082082D01*
X39769593Y18082082D02*
X39743878Y18094939D01*
X39743878Y18094939D02*
X39731021Y18107796D01*
X39731021Y18107796D02*
X39718164Y18133510D01*
X39718164Y18133510D02*
X39718164Y18159225D01*
X39718164Y18159225D02*
X39731021Y18184939D01*
X39731021Y18184939D02*
X39743878Y18197796D01*
X39743878Y18197796D02*
X39769593Y18210653D01*
X39769593Y18210653D02*
X39833878Y18210653D01*
X39833878Y18210653D02*
X39872450Y18197796D01*
X39962450Y18210653D02*
X40026736Y17940653D01*
X40026736Y17940653D02*
X40078164Y18133510D01*
X40078164Y18133510D02*
X40129593Y17940653D01*
X40129593Y17940653D02*
X40193879Y18210653D01*
X40438164Y17940653D02*
X40283878Y17940653D01*
X40361021Y17940653D02*
X40361021Y18210653D01*
X40361021Y18210653D02*
X40335307Y18172082D01*
X40335307Y18172082D02*
X40309592Y18146368D01*
X40309592Y18146368D02*
X40283878Y18133510D01*
X6930714Y18593603D02*
X7020714Y18323603D01*
X7020714Y18323603D02*
X7110714Y18593603D01*
X7290714Y18465032D02*
X7329286Y18452175D01*
X7329286Y18452175D02*
X7342143Y18439318D01*
X7342143Y18439318D02*
X7355000Y18413603D01*
X7355000Y18413603D02*
X7355000Y18375032D01*
X7355000Y18375032D02*
X7342143Y18349318D01*
X7342143Y18349318D02*
X7329286Y18336460D01*
X7329286Y18336460D02*
X7303571Y18323603D01*
X7303571Y18323603D02*
X7200714Y18323603D01*
X7200714Y18323603D02*
X7200714Y18593603D01*
X7200714Y18593603D02*
X7290714Y18593603D01*
X7290714Y18593603D02*
X7316429Y18580746D01*
X7316429Y18580746D02*
X7329286Y18567889D01*
X7329286Y18567889D02*
X7342143Y18542175D01*
X7342143Y18542175D02*
X7342143Y18516460D01*
X7342143Y18516460D02*
X7329286Y18490746D01*
X7329286Y18490746D02*
X7316429Y18477889D01*
X7316429Y18477889D02*
X7290714Y18465032D01*
X7290714Y18465032D02*
X7200714Y18465032D01*
X7470714Y18593603D02*
X7470714Y18375032D01*
X7470714Y18375032D02*
X7483571Y18349318D01*
X7483571Y18349318D02*
X7496429Y18336460D01*
X7496429Y18336460D02*
X7522143Y18323603D01*
X7522143Y18323603D02*
X7573571Y18323603D01*
X7573571Y18323603D02*
X7599286Y18336460D01*
X7599286Y18336460D02*
X7612143Y18349318D01*
X7612143Y18349318D02*
X7625000Y18375032D01*
X7625000Y18375032D02*
X7625000Y18593603D01*
X7740714Y18336460D02*
X7779286Y18323603D01*
X7779286Y18323603D02*
X7843571Y18323603D01*
X7843571Y18323603D02*
X7869286Y18336460D01*
X7869286Y18336460D02*
X7882143Y18349318D01*
X7882143Y18349318D02*
X7895000Y18375032D01*
X7895000Y18375032D02*
X7895000Y18400746D01*
X7895000Y18400746D02*
X7882143Y18426460D01*
X7882143Y18426460D02*
X7869286Y18439318D01*
X7869286Y18439318D02*
X7843571Y18452175D01*
X7843571Y18452175D02*
X7792143Y18465032D01*
X7792143Y18465032D02*
X7766428Y18477889D01*
X7766428Y18477889D02*
X7753571Y18490746D01*
X7753571Y18490746D02*
X7740714Y18516460D01*
X7740714Y18516460D02*
X7740714Y18542175D01*
X7740714Y18542175D02*
X7753571Y18567889D01*
X7753571Y18567889D02*
X7766428Y18580746D01*
X7766428Y18580746D02*
X7792143Y18593603D01*
X7792143Y18593603D02*
X7856428Y18593603D01*
X7856428Y18593603D02*
X7895000Y18580746D01*
X7946429Y18297889D02*
X8152143Y18297889D01*
X8345000Y18323603D02*
X8216428Y18323603D01*
X8216428Y18323603D02*
X8216428Y18593603D01*
X8434999Y18465032D02*
X8524999Y18465032D01*
X8563571Y18323603D02*
X8434999Y18323603D01*
X8434999Y18323603D02*
X8434999Y18593603D01*
X8434999Y18593603D02*
X8563571Y18593603D01*
X8679285Y18323603D02*
X8679285Y18593603D01*
X8679285Y18593603D02*
X8743571Y18593603D01*
X8743571Y18593603D02*
X8782142Y18580746D01*
X8782142Y18580746D02*
X8807857Y18555032D01*
X8807857Y18555032D02*
X8820714Y18529318D01*
X8820714Y18529318D02*
X8833571Y18477889D01*
X8833571Y18477889D02*
X8833571Y18439318D01*
X8833571Y18439318D02*
X8820714Y18387889D01*
X8820714Y18387889D02*
X8807857Y18362175D01*
X8807857Y18362175D02*
X8782142Y18336460D01*
X8782142Y18336460D02*
X8743571Y18323603D01*
X8743571Y18323603D02*
X8679285Y18323603D01*
X7605714Y17583603D02*
X7605714Y17853603D01*
X7605714Y17853603D02*
X7670000Y17853603D01*
X7670000Y17853603D02*
X7708571Y17840746D01*
X7708571Y17840746D02*
X7734286Y17815032D01*
X7734286Y17815032D02*
X7747143Y17789318D01*
X7747143Y17789318D02*
X7760000Y17737889D01*
X7760000Y17737889D02*
X7760000Y17699318D01*
X7760000Y17699318D02*
X7747143Y17647889D01*
X7747143Y17647889D02*
X7734286Y17622175D01*
X7734286Y17622175D02*
X7708571Y17596460D01*
X7708571Y17596460D02*
X7670000Y17583603D01*
X7670000Y17583603D02*
X7605714Y17583603D01*
X8017143Y17583603D02*
X7862857Y17583603D01*
X7940000Y17583603D02*
X7940000Y17853603D01*
X7940000Y17853603D02*
X7914286Y17815032D01*
X7914286Y17815032D02*
X7888571Y17789318D01*
X7888571Y17789318D02*
X7862857Y17776460D01*
D10*
X24962857Y9039335D02*
X24791428Y9039335D01*
X24877143Y9039335D02*
X24877143Y9339335D01*
X24877143Y9339335D02*
X24848571Y9296478D01*
X24848571Y9296478D02*
X24820000Y9267906D01*
X24820000Y9267906D02*
X24791428Y9253620D01*
X25148571Y9339335D02*
X25177142Y9339335D01*
X25177142Y9339335D02*
X25205714Y9325049D01*
X25205714Y9325049D02*
X25220000Y9310763D01*
X25220000Y9310763D02*
X25234285Y9282192D01*
X25234285Y9282192D02*
X25248571Y9225049D01*
X25248571Y9225049D02*
X25248571Y9153620D01*
X25248571Y9153620D02*
X25234285Y9096478D01*
X25234285Y9096478D02*
X25220000Y9067906D01*
X25220000Y9067906D02*
X25205714Y9053620D01*
X25205714Y9053620D02*
X25177142Y9039335D01*
X25177142Y9039335D02*
X25148571Y9039335D01*
X25148571Y9039335D02*
X25120000Y9053620D01*
X25120000Y9053620D02*
X25105714Y9067906D01*
X25105714Y9067906D02*
X25091428Y9096478D01*
X25091428Y9096478D02*
X25077142Y9153620D01*
X25077142Y9153620D02*
X25077142Y9225049D01*
X25077142Y9225049D02*
X25091428Y9282192D01*
X25091428Y9282192D02*
X25105714Y9310763D01*
X25105714Y9310763D02*
X25120000Y9325049D01*
X25120000Y9325049D02*
X25148571Y9339335D01*
X25377142Y9039335D02*
X25377142Y9339335D01*
X25548571Y9039335D02*
X25419999Y9210763D01*
X25548571Y9339335D02*
X25377142Y9167906D01*
X24962143Y8449335D02*
X24862143Y8592192D01*
X24790714Y8449335D02*
X24790714Y8749335D01*
X24790714Y8749335D02*
X24905000Y8749335D01*
X24905000Y8749335D02*
X24933571Y8735049D01*
X24933571Y8735049D02*
X24947857Y8720763D01*
X24947857Y8720763D02*
X24962143Y8692192D01*
X24962143Y8692192D02*
X24962143Y8649335D01*
X24962143Y8649335D02*
X24947857Y8620763D01*
X24947857Y8620763D02*
X24933571Y8606478D01*
X24933571Y8606478D02*
X24905000Y8592192D01*
X24905000Y8592192D02*
X24790714Y8592192D01*
X25247857Y8449335D02*
X25076428Y8449335D01*
X25162143Y8449335D02*
X25162143Y8749335D01*
X25162143Y8749335D02*
X25133571Y8706478D01*
X25133571Y8706478D02*
X25105000Y8677906D01*
X25105000Y8677906D02*
X25076428Y8663620D01*
X25362142Y8720763D02*
X25376428Y8735049D01*
X25376428Y8735049D02*
X25405000Y8749335D01*
X25405000Y8749335D02*
X25476428Y8749335D01*
X25476428Y8749335D02*
X25505000Y8735049D01*
X25505000Y8735049D02*
X25519285Y8720763D01*
X25519285Y8720763D02*
X25533571Y8692192D01*
X25533571Y8692192D02*
X25533571Y8663620D01*
X25533571Y8663620D02*
X25519285Y8620763D01*
X25519285Y8620763D02*
X25347857Y8449335D01*
X25347857Y8449335D02*
X25533571Y8449335D01*
X24700714Y8599335D02*
X25623571Y8599335D01*
X33250000Y15121478D02*
X33150000Y15121478D01*
X33150000Y14964335D02*
X33150000Y15264335D01*
X33150000Y15264335D02*
X33292857Y15264335D01*
X33407143Y14964335D02*
X33407143Y15164335D01*
X33407143Y15264335D02*
X33392857Y15250049D01*
X33392857Y15250049D02*
X33407143Y15235763D01*
X33407143Y15235763D02*
X33421429Y15250049D01*
X33421429Y15250049D02*
X33407143Y15264335D01*
X33407143Y15264335D02*
X33407143Y15235763D01*
X33678572Y14964335D02*
X33678572Y15264335D01*
X33678572Y14978620D02*
X33650000Y14964335D01*
X33650000Y14964335D02*
X33592857Y14964335D01*
X33592857Y14964335D02*
X33564286Y14978620D01*
X33564286Y14978620D02*
X33550000Y14992906D01*
X33550000Y14992906D02*
X33535714Y15021478D01*
X33535714Y15021478D02*
X33535714Y15107192D01*
X33535714Y15107192D02*
X33550000Y15135763D01*
X33550000Y15135763D02*
X33564286Y15150049D01*
X33564286Y15150049D02*
X33592857Y15164335D01*
X33592857Y15164335D02*
X33650000Y15164335D01*
X33650000Y15164335D02*
X33678572Y15150049D01*
X33950001Y15164335D02*
X33950001Y14964335D01*
X33821429Y15164335D02*
X33821429Y15007192D01*
X33821429Y15007192D02*
X33835715Y14978620D01*
X33835715Y14978620D02*
X33864286Y14964335D01*
X33864286Y14964335D02*
X33907143Y14964335D01*
X33907143Y14964335D02*
X33935715Y14978620D01*
X33935715Y14978620D02*
X33950001Y14992906D01*
X34221430Y14978620D02*
X34192858Y14964335D01*
X34192858Y14964335D02*
X34135715Y14964335D01*
X34135715Y14964335D02*
X34107144Y14978620D01*
X34107144Y14978620D02*
X34092858Y14992906D01*
X34092858Y14992906D02*
X34078572Y15021478D01*
X34078572Y15021478D02*
X34078572Y15107192D01*
X34078572Y15107192D02*
X34092858Y15135763D01*
X34092858Y15135763D02*
X34107144Y15150049D01*
X34107144Y15150049D02*
X34135715Y15164335D01*
X34135715Y15164335D02*
X34192858Y15164335D01*
X34192858Y15164335D02*
X34221430Y15150049D01*
X34350001Y14964335D02*
X34350001Y15164335D01*
X34350001Y15264335D02*
X34335715Y15250049D01*
X34335715Y15250049D02*
X34350001Y15235763D01*
X34350001Y15235763D02*
X34364287Y15250049D01*
X34364287Y15250049D02*
X34350001Y15264335D01*
X34350001Y15264335D02*
X34350001Y15235763D01*
X34621430Y14964335D02*
X34621430Y15121478D01*
X34621430Y15121478D02*
X34607144Y15150049D01*
X34607144Y15150049D02*
X34578572Y15164335D01*
X34578572Y15164335D02*
X34521430Y15164335D01*
X34521430Y15164335D02*
X34492858Y15150049D01*
X34621430Y14978620D02*
X34592858Y14964335D01*
X34592858Y14964335D02*
X34521430Y14964335D01*
X34521430Y14964335D02*
X34492858Y14978620D01*
X34492858Y14978620D02*
X34478572Y15007192D01*
X34478572Y15007192D02*
X34478572Y15035763D01*
X34478572Y15035763D02*
X34492858Y15064335D01*
X34492858Y15064335D02*
X34521430Y15078620D01*
X34521430Y15078620D02*
X34592858Y15078620D01*
X34592858Y15078620D02*
X34621430Y15092906D01*
X34807144Y14964335D02*
X34778573Y14978620D01*
X34778573Y14978620D02*
X34764287Y15007192D01*
X34764287Y15007192D02*
X34764287Y15264335D01*
X34850002Y14935763D02*
X35078573Y14935763D01*
X35207144Y15264335D02*
X35235715Y15264335D01*
X35235715Y15264335D02*
X35264287Y15250049D01*
X35264287Y15250049D02*
X35278573Y15235763D01*
X35278573Y15235763D02*
X35292858Y15207192D01*
X35292858Y15207192D02*
X35307144Y15150049D01*
X35307144Y15150049D02*
X35307144Y15078620D01*
X35307144Y15078620D02*
X35292858Y15021478D01*
X35292858Y15021478D02*
X35278573Y14992906D01*
X35278573Y14992906D02*
X35264287Y14978620D01*
X35264287Y14978620D02*
X35235715Y14964335D01*
X35235715Y14964335D02*
X35207144Y14964335D01*
X35207144Y14964335D02*
X35178573Y14978620D01*
X35178573Y14978620D02*
X35164287Y14992906D01*
X35164287Y14992906D02*
X35150001Y15021478D01*
X35150001Y15021478D02*
X35135715Y15078620D01*
X35135715Y15078620D02*
X35135715Y15150049D01*
X35135715Y15150049D02*
X35150001Y15207192D01*
X35150001Y15207192D02*
X35164287Y15235763D01*
X35164287Y15235763D02*
X35178573Y15250049D01*
X35178573Y15250049D02*
X35207144Y15264335D01*
X35435715Y14992906D02*
X35450001Y14978620D01*
X35450001Y14978620D02*
X35435715Y14964335D01*
X35435715Y14964335D02*
X35421429Y14978620D01*
X35421429Y14978620D02*
X35435715Y14992906D01*
X35435715Y14992906D02*
X35435715Y14964335D01*
X35550001Y15264335D02*
X35750001Y15264335D01*
X35750001Y15264335D02*
X35621429Y14964335D01*
X36007143Y15264335D02*
X35864286Y15264335D01*
X35864286Y15264335D02*
X35850000Y15121478D01*
X35850000Y15121478D02*
X35864286Y15135763D01*
X35864286Y15135763D02*
X35892858Y15150049D01*
X35892858Y15150049D02*
X35964286Y15150049D01*
X35964286Y15150049D02*
X35992858Y15135763D01*
X35992858Y15135763D02*
X36007143Y15121478D01*
X36007143Y15121478D02*
X36021429Y15092906D01*
X36021429Y15092906D02*
X36021429Y15021478D01*
X36021429Y15021478D02*
X36007143Y14992906D01*
X36007143Y14992906D02*
X35992858Y14978620D01*
X35992858Y14978620D02*
X35964286Y14964335D01*
X35964286Y14964335D02*
X35892858Y14964335D01*
X35892858Y14964335D02*
X35864286Y14978620D01*
X35864286Y14978620D02*
X35850000Y14992906D01*
X36150000Y14964335D02*
X36150000Y15164335D01*
X36150000Y15135763D02*
X36164286Y15150049D01*
X36164286Y15150049D02*
X36192857Y15164335D01*
X36192857Y15164335D02*
X36235714Y15164335D01*
X36235714Y15164335D02*
X36264286Y15150049D01*
X36264286Y15150049D02*
X36278572Y15121478D01*
X36278572Y15121478D02*
X36278572Y14964335D01*
X36278572Y15121478D02*
X36292857Y15150049D01*
X36292857Y15150049D02*
X36321429Y15164335D01*
X36321429Y15164335D02*
X36364286Y15164335D01*
X36364286Y15164335D02*
X36392857Y15150049D01*
X36392857Y15150049D02*
X36407143Y15121478D01*
X36407143Y15121478D02*
X36407143Y14964335D01*
X36550000Y14964335D02*
X36550000Y15164335D01*
X36550000Y15135763D02*
X36564286Y15150049D01*
X36564286Y15150049D02*
X36592857Y15164335D01*
X36592857Y15164335D02*
X36635714Y15164335D01*
X36635714Y15164335D02*
X36664286Y15150049D01*
X36664286Y15150049D02*
X36678572Y15121478D01*
X36678572Y15121478D02*
X36678572Y14964335D01*
X36678572Y15121478D02*
X36692857Y15150049D01*
X36692857Y15150049D02*
X36721429Y15164335D01*
X36721429Y15164335D02*
X36764286Y15164335D01*
X36764286Y15164335D02*
X36792857Y15150049D01*
X36792857Y15150049D02*
X36807143Y15121478D01*
X36807143Y15121478D02*
X36807143Y14964335D01*
X36878572Y14935763D02*
X37107143Y14935763D01*
X37178571Y14964335D02*
X37178571Y15264335D01*
X37178571Y15264335D02*
X37278571Y15050049D01*
X37278571Y15050049D02*
X37378571Y15264335D01*
X37378571Y15264335D02*
X37378571Y14964335D01*
X37650000Y14964335D02*
X37650000Y15121478D01*
X37650000Y15121478D02*
X37635714Y15150049D01*
X37635714Y15150049D02*
X37607142Y15164335D01*
X37607142Y15164335D02*
X37550000Y15164335D01*
X37550000Y15164335D02*
X37521428Y15150049D01*
X37650000Y14978620D02*
X37621428Y14964335D01*
X37621428Y14964335D02*
X37550000Y14964335D01*
X37550000Y14964335D02*
X37521428Y14978620D01*
X37521428Y14978620D02*
X37507142Y15007192D01*
X37507142Y15007192D02*
X37507142Y15035763D01*
X37507142Y15035763D02*
X37521428Y15064335D01*
X37521428Y15064335D02*
X37550000Y15078620D01*
X37550000Y15078620D02*
X37621428Y15078620D01*
X37621428Y15078620D02*
X37650000Y15092906D01*
X37778571Y14978620D02*
X37807143Y14964335D01*
X37807143Y14964335D02*
X37864286Y14964335D01*
X37864286Y14964335D02*
X37892857Y14978620D01*
X37892857Y14978620D02*
X37907143Y15007192D01*
X37907143Y15007192D02*
X37907143Y15021478D01*
X37907143Y15021478D02*
X37892857Y15050049D01*
X37892857Y15050049D02*
X37864286Y15064335D01*
X37864286Y15064335D02*
X37821429Y15064335D01*
X37821429Y15064335D02*
X37792857Y15078620D01*
X37792857Y15078620D02*
X37778571Y15107192D01*
X37778571Y15107192D02*
X37778571Y15121478D01*
X37778571Y15121478D02*
X37792857Y15150049D01*
X37792857Y15150049D02*
X37821429Y15164335D01*
X37821429Y15164335D02*
X37864286Y15164335D01*
X37864286Y15164335D02*
X37892857Y15150049D01*
X38035714Y14964335D02*
X38035714Y15264335D01*
X38064286Y15078620D02*
X38150000Y14964335D01*
X38150000Y15164335D02*
X38035714Y15050049D01*
X38435714Y14964335D02*
X38264285Y14964335D01*
X38350000Y14964335D02*
X38350000Y15264335D01*
X38350000Y15264335D02*
X38321428Y15221478D01*
X38321428Y15221478D02*
X38292857Y15192906D01*
X38292857Y15192906D02*
X38264285Y15178620D01*
X38564285Y14992906D02*
X38578571Y14978620D01*
X38578571Y14978620D02*
X38564285Y14964335D01*
X38564285Y14964335D02*
X38549999Y14978620D01*
X38549999Y14978620D02*
X38564285Y14992906D01*
X38564285Y14992906D02*
X38564285Y14964335D01*
X38849999Y15264335D02*
X38707142Y15264335D01*
X38707142Y15264335D02*
X38692856Y15121478D01*
X38692856Y15121478D02*
X38707142Y15135763D01*
X38707142Y15135763D02*
X38735714Y15150049D01*
X38735714Y15150049D02*
X38807142Y15150049D01*
X38807142Y15150049D02*
X38835714Y15135763D01*
X38835714Y15135763D02*
X38849999Y15121478D01*
X38849999Y15121478D02*
X38864285Y15092906D01*
X38864285Y15092906D02*
X38864285Y15021478D01*
X38864285Y15021478D02*
X38849999Y14992906D01*
X38849999Y14992906D02*
X38835714Y14978620D01*
X38835714Y14978620D02*
X38807142Y14964335D01*
X38807142Y14964335D02*
X38735714Y14964335D01*
X38735714Y14964335D02*
X38707142Y14978620D01*
X38707142Y14978620D02*
X38692856Y14992906D01*
X38992856Y14964335D02*
X38992856Y15164335D01*
X38992856Y15135763D02*
X39007142Y15150049D01*
X39007142Y15150049D02*
X39035713Y15164335D01*
X39035713Y15164335D02*
X39078570Y15164335D01*
X39078570Y15164335D02*
X39107142Y15150049D01*
X39107142Y15150049D02*
X39121428Y15121478D01*
X39121428Y15121478D02*
X39121428Y14964335D01*
X39121428Y15121478D02*
X39135713Y15150049D01*
X39135713Y15150049D02*
X39164285Y15164335D01*
X39164285Y15164335D02*
X39207142Y15164335D01*
X39207142Y15164335D02*
X39235713Y15150049D01*
X39235713Y15150049D02*
X39249999Y15121478D01*
X39249999Y15121478D02*
X39249999Y14964335D01*
X39392856Y14964335D02*
X39392856Y15164335D01*
X39392856Y15135763D02*
X39407142Y15150049D01*
X39407142Y15150049D02*
X39435713Y15164335D01*
X39435713Y15164335D02*
X39478570Y15164335D01*
X39478570Y15164335D02*
X39507142Y15150049D01*
X39507142Y15150049D02*
X39521428Y15121478D01*
X39521428Y15121478D02*
X39521428Y14964335D01*
X39521428Y15121478D02*
X39535713Y15150049D01*
X39535713Y15150049D02*
X39564285Y15164335D01*
X39564285Y15164335D02*
X39607142Y15164335D01*
X39607142Y15164335D02*
X39635713Y15150049D01*
X39635713Y15150049D02*
X39649999Y15121478D01*
X39649999Y15121478D02*
X39649999Y14964335D01*
X35950000Y14021478D02*
X35850000Y14021478D01*
X35850000Y13864335D02*
X35850000Y14164335D01*
X35850000Y14164335D02*
X35992857Y14164335D01*
X36107143Y13864335D02*
X36107143Y14164335D01*
X36107143Y14164335D02*
X36178572Y14164335D01*
X36178572Y14164335D02*
X36221429Y14150049D01*
X36221429Y14150049D02*
X36250000Y14121478D01*
X36250000Y14121478D02*
X36264286Y14092906D01*
X36264286Y14092906D02*
X36278572Y14035763D01*
X36278572Y14035763D02*
X36278572Y13992906D01*
X36278572Y13992906D02*
X36264286Y13935763D01*
X36264286Y13935763D02*
X36250000Y13907192D01*
X36250000Y13907192D02*
X36221429Y13878620D01*
X36221429Y13878620D02*
X36178572Y13864335D01*
X36178572Y13864335D02*
X36107143Y13864335D01*
X36564286Y13864335D02*
X36392857Y13864335D01*
X36478572Y13864335D02*
X36478572Y14164335D01*
X36478572Y14164335D02*
X36450000Y14121478D01*
X36450000Y14121478D02*
X36421429Y14092906D01*
X36421429Y14092906D02*
X36392857Y14078620D01*
X40490142Y9651478D02*
X40590142Y9651478D01*
X40632999Y9494335D02*
X40490142Y9494335D01*
X40490142Y9494335D02*
X40490142Y9794335D01*
X40490142Y9794335D02*
X40632999Y9794335D01*
X40747285Y9508620D02*
X40790143Y9494335D01*
X40790143Y9494335D02*
X40861571Y9494335D01*
X40861571Y9494335D02*
X40890143Y9508620D01*
X40890143Y9508620D02*
X40904428Y9522906D01*
X40904428Y9522906D02*
X40918714Y9551478D01*
X40918714Y9551478D02*
X40918714Y9580049D01*
X40918714Y9580049D02*
X40904428Y9608620D01*
X40904428Y9608620D02*
X40890143Y9622906D01*
X40890143Y9622906D02*
X40861571Y9637192D01*
X40861571Y9637192D02*
X40804428Y9651478D01*
X40804428Y9651478D02*
X40775857Y9665763D01*
X40775857Y9665763D02*
X40761571Y9680049D01*
X40761571Y9680049D02*
X40747285Y9708620D01*
X40747285Y9708620D02*
X40747285Y9737192D01*
X40747285Y9737192D02*
X40761571Y9765763D01*
X40761571Y9765763D02*
X40775857Y9780049D01*
X40775857Y9780049D02*
X40804428Y9794335D01*
X40804428Y9794335D02*
X40875857Y9794335D01*
X40875857Y9794335D02*
X40918714Y9780049D01*
X41047285Y9494335D02*
X41047285Y9794335D01*
X41047285Y9794335D02*
X41161571Y9794335D01*
X41161571Y9794335D02*
X41190142Y9780049D01*
X41190142Y9780049D02*
X41204428Y9765763D01*
X41204428Y9765763D02*
X41218714Y9737192D01*
X41218714Y9737192D02*
X41218714Y9694335D01*
X41218714Y9694335D02*
X41204428Y9665763D01*
X41204428Y9665763D02*
X41190142Y9651478D01*
X41190142Y9651478D02*
X41161571Y9637192D01*
X41161571Y9637192D02*
X41047285Y9637192D01*
X41275857Y9465763D02*
X41504428Y9465763D01*
X41747285Y9522906D02*
X41732999Y9508620D01*
X41732999Y9508620D02*
X41690142Y9494335D01*
X41690142Y9494335D02*
X41661570Y9494335D01*
X41661570Y9494335D02*
X41618713Y9508620D01*
X41618713Y9508620D02*
X41590142Y9537192D01*
X41590142Y9537192D02*
X41575856Y9565763D01*
X41575856Y9565763D02*
X41561570Y9622906D01*
X41561570Y9622906D02*
X41561570Y9665763D01*
X41561570Y9665763D02*
X41575856Y9722906D01*
X41575856Y9722906D02*
X41590142Y9751478D01*
X41590142Y9751478D02*
X41618713Y9780049D01*
X41618713Y9780049D02*
X41661570Y9794335D01*
X41661570Y9794335D02*
X41690142Y9794335D01*
X41690142Y9794335D02*
X41732999Y9780049D01*
X41732999Y9780049D02*
X41747285Y9765763D01*
X41932999Y9794335D02*
X41990142Y9794335D01*
X41990142Y9794335D02*
X42018713Y9780049D01*
X42018713Y9780049D02*
X42047285Y9751478D01*
X42047285Y9751478D02*
X42061570Y9694335D01*
X42061570Y9694335D02*
X42061570Y9594335D01*
X42061570Y9594335D02*
X42047285Y9537192D01*
X42047285Y9537192D02*
X42018713Y9508620D01*
X42018713Y9508620D02*
X41990142Y9494335D01*
X41990142Y9494335D02*
X41932999Y9494335D01*
X41932999Y9494335D02*
X41904428Y9508620D01*
X41904428Y9508620D02*
X41875856Y9537192D01*
X41875856Y9537192D02*
X41861570Y9594335D01*
X41861570Y9594335D02*
X41861570Y9694335D01*
X41861570Y9694335D02*
X41875856Y9751478D01*
X41875856Y9751478D02*
X41904428Y9780049D01*
X41904428Y9780049D02*
X41932999Y9794335D01*
X42190142Y9494335D02*
X42190142Y9794335D01*
X42190142Y9794335D02*
X42361571Y9494335D01*
X42361571Y9494335D02*
X42361571Y9794335D01*
X42504428Y9494335D02*
X42504428Y9794335D01*
X42504428Y9794335D02*
X42675857Y9494335D01*
X42675857Y9494335D02*
X42675857Y9794335D01*
X41433000Y10644335D02*
X41433000Y10430049D01*
X41433000Y10430049D02*
X41418715Y10387192D01*
X41418715Y10387192D02*
X41390143Y10358620D01*
X41390143Y10358620D02*
X41347286Y10344335D01*
X41347286Y10344335D02*
X41318715Y10344335D01*
X41547286Y10644335D02*
X41733000Y10644335D01*
X41733000Y10644335D02*
X41633000Y10530049D01*
X41633000Y10530049D02*
X41675857Y10530049D01*
X41675857Y10530049D02*
X41704429Y10515763D01*
X41704429Y10515763D02*
X41718714Y10501478D01*
X41718714Y10501478D02*
X41733000Y10472906D01*
X41733000Y10472906D02*
X41733000Y10401478D01*
X41733000Y10401478D02*
X41718714Y10372906D01*
X41718714Y10372906D02*
X41704429Y10358620D01*
X41704429Y10358620D02*
X41675857Y10344335D01*
X41675857Y10344335D02*
X41590143Y10344335D01*
X41590143Y10344335D02*
X41561571Y10358620D01*
X41561571Y10358620D02*
X41547286Y10372906D01*
X29503571Y12324763D02*
X29517857Y12339049D01*
X29517857Y12339049D02*
X29546429Y12353335D01*
X29546429Y12353335D02*
X29617857Y12353335D01*
X29617857Y12353335D02*
X29646429Y12339049D01*
X29646429Y12339049D02*
X29660714Y12324763D01*
X29660714Y12324763D02*
X29675000Y12296192D01*
X29675000Y12296192D02*
X29675000Y12267620D01*
X29675000Y12267620D02*
X29660714Y12224763D01*
X29660714Y12224763D02*
X29489286Y12053335D01*
X29489286Y12053335D02*
X29675000Y12053335D01*
X29789285Y12324763D02*
X29803571Y12339049D01*
X29803571Y12339049D02*
X29832143Y12353335D01*
X29832143Y12353335D02*
X29903571Y12353335D01*
X29903571Y12353335D02*
X29932143Y12339049D01*
X29932143Y12339049D02*
X29946428Y12324763D01*
X29946428Y12324763D02*
X29960714Y12296192D01*
X29960714Y12296192D02*
X29960714Y12267620D01*
X29960714Y12267620D02*
X29946428Y12224763D01*
X29946428Y12224763D02*
X29775000Y12053335D01*
X29775000Y12053335D02*
X29960714Y12053335D01*
X30146428Y12353335D02*
X30174999Y12353335D01*
X30174999Y12353335D02*
X30203571Y12339049D01*
X30203571Y12339049D02*
X30217857Y12324763D01*
X30217857Y12324763D02*
X30232142Y12296192D01*
X30232142Y12296192D02*
X30246428Y12239049D01*
X30246428Y12239049D02*
X30246428Y12167620D01*
X30246428Y12167620D02*
X30232142Y12110478D01*
X30232142Y12110478D02*
X30217857Y12081906D01*
X30217857Y12081906D02*
X30203571Y12067620D01*
X30203571Y12067620D02*
X30174999Y12053335D01*
X30174999Y12053335D02*
X30146428Y12053335D01*
X30146428Y12053335D02*
X30117857Y12067620D01*
X30117857Y12067620D02*
X30103571Y12081906D01*
X30103571Y12081906D02*
X30089285Y12110478D01*
X30089285Y12110478D02*
X30074999Y12167620D01*
X30074999Y12167620D02*
X30074999Y12239049D01*
X30074999Y12239049D02*
X30089285Y12296192D01*
X30089285Y12296192D02*
X30103571Y12324763D01*
X30103571Y12324763D02*
X30117857Y12339049D01*
X30117857Y12339049D02*
X30146428Y12353335D01*
X30546428Y12053335D02*
X30446428Y12196192D01*
X30374999Y12053335D02*
X30374999Y12353335D01*
X30374999Y12353335D02*
X30489285Y12353335D01*
X30489285Y12353335D02*
X30517856Y12339049D01*
X30517856Y12339049D02*
X30532142Y12324763D01*
X30532142Y12324763D02*
X30546428Y12296192D01*
X30546428Y12296192D02*
X30546428Y12253335D01*
X30546428Y12253335D02*
X30532142Y12224763D01*
X30532142Y12224763D02*
X30517856Y12210478D01*
X30517856Y12210478D02*
X30489285Y12196192D01*
X30489285Y12196192D02*
X30374999Y12196192D01*
X29822143Y12743335D02*
X29722143Y12886192D01*
X29650714Y12743335D02*
X29650714Y13043335D01*
X29650714Y13043335D02*
X29765000Y13043335D01*
X29765000Y13043335D02*
X29793571Y13029049D01*
X29793571Y13029049D02*
X29807857Y13014763D01*
X29807857Y13014763D02*
X29822143Y12986192D01*
X29822143Y12986192D02*
X29822143Y12943335D01*
X29822143Y12943335D02*
X29807857Y12914763D01*
X29807857Y12914763D02*
X29793571Y12900478D01*
X29793571Y12900478D02*
X29765000Y12886192D01*
X29765000Y12886192D02*
X29650714Y12886192D01*
X30107857Y12743335D02*
X29936428Y12743335D01*
X30022143Y12743335D02*
X30022143Y13043335D01*
X30022143Y13043335D02*
X29993571Y13000478D01*
X29993571Y13000478D02*
X29965000Y12971906D01*
X29965000Y12971906D02*
X29936428Y12957620D01*
X30207857Y13043335D02*
X30393571Y13043335D01*
X30393571Y13043335D02*
X30293571Y12929049D01*
X30293571Y12929049D02*
X30336428Y12929049D01*
X30336428Y12929049D02*
X30365000Y12914763D01*
X30365000Y12914763D02*
X30379285Y12900478D01*
X30379285Y12900478D02*
X30393571Y12871906D01*
X30393571Y12871906D02*
X30393571Y12800478D01*
X30393571Y12800478D02*
X30379285Y12771906D01*
X30379285Y12771906D02*
X30365000Y12757620D01*
X30365000Y12757620D02*
X30336428Y12743335D01*
X30336428Y12743335D02*
X30250714Y12743335D01*
X30250714Y12743335D02*
X30222142Y12757620D01*
X30222142Y12757620D02*
X30207857Y12771906D01*
D11*
X5491429Y2283603D02*
X5362857Y2283603D01*
X5362857Y2283603D02*
X5350000Y2155032D01*
X5350000Y2155032D02*
X5362857Y2167889D01*
X5362857Y2167889D02*
X5388572Y2180746D01*
X5388572Y2180746D02*
X5452857Y2180746D01*
X5452857Y2180746D02*
X5478572Y2167889D01*
X5478572Y2167889D02*
X5491429Y2155032D01*
X5491429Y2155032D02*
X5504286Y2129318D01*
X5504286Y2129318D02*
X5504286Y2065032D01*
X5504286Y2065032D02*
X5491429Y2039318D01*
X5491429Y2039318D02*
X5478572Y2026460D01*
X5478572Y2026460D02*
X5452857Y2013603D01*
X5452857Y2013603D02*
X5388572Y2013603D01*
X5388572Y2013603D02*
X5362857Y2026460D01*
X5362857Y2026460D02*
X5350000Y2039318D01*
X5620000Y2039318D02*
X5632857Y2026460D01*
X5632857Y2026460D02*
X5620000Y2013603D01*
X5620000Y2013603D02*
X5607143Y2026460D01*
X5607143Y2026460D02*
X5620000Y2039318D01*
X5620000Y2039318D02*
X5620000Y2013603D01*
X5890000Y2013603D02*
X5735714Y2013603D01*
X5812857Y2013603D02*
X5812857Y2283603D01*
X5812857Y2283603D02*
X5787143Y2245032D01*
X5787143Y2245032D02*
X5761428Y2219318D01*
X5761428Y2219318D02*
X5735714Y2206460D01*
X6005714Y2013603D02*
X6005714Y2283603D01*
X6160000Y2013603D02*
X6044286Y2167889D01*
X6160000Y2283603D02*
X6005714Y2129318D01*
X6846397Y2090001D02*
X6717825Y2000001D01*
X6846397Y1935715D02*
X6576397Y1935715D01*
X6576397Y1935715D02*
X6576397Y2038572D01*
X6576397Y2038572D02*
X6589254Y2064287D01*
X6589254Y2064287D02*
X6602111Y2077144D01*
X6602111Y2077144D02*
X6627825Y2090001D01*
X6627825Y2090001D02*
X6666397Y2090001D01*
X6666397Y2090001D02*
X6692111Y2077144D01*
X6692111Y2077144D02*
X6704968Y2064287D01*
X6704968Y2064287D02*
X6717825Y2038572D01*
X6717825Y2038572D02*
X6717825Y1935715D01*
X6576397Y2334287D02*
X6576397Y2205715D01*
X6576397Y2205715D02*
X6704968Y2192858D01*
X6704968Y2192858D02*
X6692111Y2205715D01*
X6692111Y2205715D02*
X6679254Y2231429D01*
X6679254Y2231429D02*
X6679254Y2295715D01*
X6679254Y2295715D02*
X6692111Y2321429D01*
X6692111Y2321429D02*
X6704968Y2334287D01*
X6704968Y2334287D02*
X6730682Y2347144D01*
X6730682Y2347144D02*
X6794968Y2347144D01*
X6794968Y2347144D02*
X6820682Y2334287D01*
X6820682Y2334287D02*
X6833540Y2321429D01*
X6833540Y2321429D02*
X6846397Y2295715D01*
X6846397Y2295715D02*
X6846397Y2231429D01*
X6846397Y2231429D02*
X6833540Y2205715D01*
X6833540Y2205715D02*
X6820682Y2192858D01*
D10*
X21643572Y16209335D02*
X21543572Y16352192D01*
X21472143Y16209335D02*
X21472143Y16509335D01*
X21472143Y16509335D02*
X21586429Y16509335D01*
X21586429Y16509335D02*
X21615000Y16495049D01*
X21615000Y16495049D02*
X21629286Y16480763D01*
X21629286Y16480763D02*
X21643572Y16452192D01*
X21643572Y16452192D02*
X21643572Y16409335D01*
X21643572Y16409335D02*
X21629286Y16380763D01*
X21629286Y16380763D02*
X21615000Y16366478D01*
X21615000Y16366478D02*
X21586429Y16352192D01*
X21586429Y16352192D02*
X21472143Y16352192D01*
X21757857Y16223620D02*
X21800715Y16209335D01*
X21800715Y16209335D02*
X21872143Y16209335D01*
X21872143Y16209335D02*
X21900715Y16223620D01*
X21900715Y16223620D02*
X21915000Y16237906D01*
X21915000Y16237906D02*
X21929286Y16266478D01*
X21929286Y16266478D02*
X21929286Y16295049D01*
X21929286Y16295049D02*
X21915000Y16323620D01*
X21915000Y16323620D02*
X21900715Y16337906D01*
X21900715Y16337906D02*
X21872143Y16352192D01*
X21872143Y16352192D02*
X21815000Y16366478D01*
X21815000Y16366478D02*
X21786429Y16380763D01*
X21786429Y16380763D02*
X21772143Y16395049D01*
X21772143Y16395049D02*
X21757857Y16423620D01*
X21757857Y16423620D02*
X21757857Y16452192D01*
X21757857Y16452192D02*
X21772143Y16480763D01*
X21772143Y16480763D02*
X21786429Y16495049D01*
X21786429Y16495049D02*
X21815000Y16509335D01*
X21815000Y16509335D02*
X21886429Y16509335D01*
X21886429Y16509335D02*
X21929286Y16495049D01*
X22015000Y16509335D02*
X22186429Y16509335D01*
X22100714Y16209335D02*
X22100714Y16509335D01*
X22215000Y16180763D02*
X22443571Y16180763D01*
X22514999Y16209335D02*
X22514999Y16509335D01*
X22514999Y16509335D02*
X22629285Y16509335D01*
X22629285Y16509335D02*
X22657856Y16495049D01*
X22657856Y16495049D02*
X22672142Y16480763D01*
X22672142Y16480763D02*
X22686428Y16452192D01*
X22686428Y16452192D02*
X22686428Y16409335D01*
X22686428Y16409335D02*
X22672142Y16380763D01*
X22672142Y16380763D02*
X22657856Y16366478D01*
X22657856Y16366478D02*
X22629285Y16352192D01*
X22629285Y16352192D02*
X22514999Y16352192D01*
X22814999Y16509335D02*
X22814999Y16266478D01*
X22814999Y16266478D02*
X22829285Y16237906D01*
X22829285Y16237906D02*
X22843571Y16223620D01*
X22843571Y16223620D02*
X22872142Y16209335D01*
X22872142Y16209335D02*
X22929285Y16209335D01*
X22929285Y16209335D02*
X22957856Y16223620D01*
X22957856Y16223620D02*
X22972142Y16237906D01*
X22972142Y16237906D02*
X22986428Y16266478D01*
X22986428Y16266478D02*
X22986428Y16509335D01*
X23129285Y16366478D02*
X23229285Y16366478D01*
X23272142Y16209335D02*
X23129285Y16209335D01*
X23129285Y16209335D02*
X23129285Y16509335D01*
X23129285Y16509335D02*
X23272142Y16509335D01*
X22141615Y18864835D02*
X22141615Y18650549D01*
X22141615Y18650549D02*
X22127330Y18607692D01*
X22127330Y18607692D02*
X22098758Y18579120D01*
X22098758Y18579120D02*
X22055901Y18564835D01*
X22055901Y18564835D02*
X22027330Y18564835D01*
X22284472Y18564835D02*
X22284472Y18864835D01*
X22284472Y18864835D02*
X22398758Y18864835D01*
X22398758Y18864835D02*
X22427329Y18850549D01*
X22427329Y18850549D02*
X22441615Y18836263D01*
X22441615Y18836263D02*
X22455901Y18807692D01*
X22455901Y18807692D02*
X22455901Y18764835D01*
X22455901Y18764835D02*
X22441615Y18736263D01*
X22441615Y18736263D02*
X22427329Y18721978D01*
X22427329Y18721978D02*
X22398758Y18707692D01*
X22398758Y18707692D02*
X22284472Y18707692D01*
X22741615Y18564835D02*
X22570186Y18564835D01*
X22655901Y18564835D02*
X22655901Y18864835D01*
X22655901Y18864835D02*
X22627329Y18821978D01*
X22627329Y18821978D02*
X22598758Y18793406D01*
X22598758Y18793406D02*
X22570186Y18779120D01*
D11*
X16958571Y9121603D02*
X16804285Y9121603D01*
X16881428Y9121603D02*
X16881428Y9391603D01*
X16881428Y9391603D02*
X16855714Y9353032D01*
X16855714Y9353032D02*
X16829999Y9327318D01*
X16829999Y9327318D02*
X16804285Y9314460D01*
X17125714Y9391603D02*
X17151428Y9391603D01*
X17151428Y9391603D02*
X17177142Y9378746D01*
X17177142Y9378746D02*
X17190000Y9365889D01*
X17190000Y9365889D02*
X17202857Y9340175D01*
X17202857Y9340175D02*
X17215714Y9288746D01*
X17215714Y9288746D02*
X17215714Y9224460D01*
X17215714Y9224460D02*
X17202857Y9173032D01*
X17202857Y9173032D02*
X17190000Y9147318D01*
X17190000Y9147318D02*
X17177142Y9134460D01*
X17177142Y9134460D02*
X17151428Y9121603D01*
X17151428Y9121603D02*
X17125714Y9121603D01*
X17125714Y9121603D02*
X17100000Y9134460D01*
X17100000Y9134460D02*
X17087142Y9147318D01*
X17087142Y9147318D02*
X17074285Y9173032D01*
X17074285Y9173032D02*
X17061428Y9224460D01*
X17061428Y9224460D02*
X17061428Y9288746D01*
X17061428Y9288746D02*
X17074285Y9340175D01*
X17074285Y9340175D02*
X17087142Y9365889D01*
X17087142Y9365889D02*
X17100000Y9378746D01*
X17100000Y9378746D02*
X17125714Y9391603D01*
X17331428Y9121603D02*
X17331428Y9391603D01*
X17485714Y9121603D02*
X17370000Y9275889D01*
X17485714Y9391603D02*
X17331428Y9237318D01*
X18126397Y9218001D02*
X17997825Y9128001D01*
X18126397Y9063715D02*
X17856397Y9063715D01*
X17856397Y9063715D02*
X17856397Y9166572D01*
X17856397Y9166572D02*
X17869254Y9192287D01*
X17869254Y9192287D02*
X17882111Y9205144D01*
X17882111Y9205144D02*
X17907825Y9218001D01*
X17907825Y9218001D02*
X17946397Y9218001D01*
X17946397Y9218001D02*
X17972111Y9205144D01*
X17972111Y9205144D02*
X17984968Y9192287D01*
X17984968Y9192287D02*
X17997825Y9166572D01*
X17997825Y9166572D02*
X17997825Y9063715D01*
X18126397Y9346572D02*
X18126397Y9398001D01*
X18126397Y9398001D02*
X18113540Y9423715D01*
X18113540Y9423715D02*
X18100682Y9436572D01*
X18100682Y9436572D02*
X18062111Y9462287D01*
X18062111Y9462287D02*
X18010682Y9475144D01*
X18010682Y9475144D02*
X17907825Y9475144D01*
X17907825Y9475144D02*
X17882111Y9462287D01*
X17882111Y9462287D02*
X17869254Y9449429D01*
X17869254Y9449429D02*
X17856397Y9423715D01*
X17856397Y9423715D02*
X17856397Y9372287D01*
X17856397Y9372287D02*
X17869254Y9346572D01*
X17869254Y9346572D02*
X17882111Y9333715D01*
X17882111Y9333715D02*
X17907825Y9320858D01*
X17907825Y9320858D02*
X17972111Y9320858D01*
X17972111Y9320858D02*
X17997825Y9333715D01*
X17997825Y9333715D02*
X18010682Y9346572D01*
X18010682Y9346572D02*
X18023540Y9372287D01*
X18023540Y9372287D02*
X18023540Y9423715D01*
X18023540Y9423715D02*
X18010682Y9449429D01*
X18010682Y9449429D02*
X17997825Y9462287D01*
X17997825Y9462287D02*
X17972111Y9475144D01*
X9781428Y13292603D02*
X9807142Y13292603D01*
X9807142Y13292603D02*
X9832856Y13279746D01*
X9832856Y13279746D02*
X9845714Y13266889D01*
X9845714Y13266889D02*
X9858571Y13241175D01*
X9858571Y13241175D02*
X9871428Y13189746D01*
X9871428Y13189746D02*
X9871428Y13125460D01*
X9871428Y13125460D02*
X9858571Y13074032D01*
X9858571Y13074032D02*
X9845714Y13048318D01*
X9845714Y13048318D02*
X9832856Y13035460D01*
X9832856Y13035460D02*
X9807142Y13022603D01*
X9807142Y13022603D02*
X9781428Y13022603D01*
X9781428Y13022603D02*
X9755714Y13035460D01*
X9755714Y13035460D02*
X9742856Y13048318D01*
X9742856Y13048318D02*
X9729999Y13074032D01*
X9729999Y13074032D02*
X9717142Y13125460D01*
X9717142Y13125460D02*
X9717142Y13189746D01*
X9717142Y13189746D02*
X9729999Y13241175D01*
X9729999Y13241175D02*
X9742856Y13266889D01*
X9742856Y13266889D02*
X9755714Y13279746D01*
X9755714Y13279746D02*
X9781428Y13292603D01*
X9987142Y13048318D02*
X9999999Y13035460D01*
X9999999Y13035460D02*
X9987142Y13022603D01*
X9987142Y13022603D02*
X9974285Y13035460D01*
X9974285Y13035460D02*
X9987142Y13048318D01*
X9987142Y13048318D02*
X9987142Y13022603D01*
X10257142Y13022603D02*
X10102856Y13022603D01*
X10179999Y13022603D02*
X10179999Y13292603D01*
X10179999Y13292603D02*
X10154285Y13254032D01*
X10154285Y13254032D02*
X10128570Y13228318D01*
X10128570Y13228318D02*
X10102856Y13215460D01*
X10488571Y13202603D02*
X10488571Y13022603D01*
X10372856Y13202603D02*
X10372856Y13061175D01*
X10372856Y13061175D02*
X10385713Y13035460D01*
X10385713Y13035460D02*
X10411428Y13022603D01*
X10411428Y13022603D02*
X10449999Y13022603D01*
X10449999Y13022603D02*
X10475713Y13035460D01*
X10475713Y13035460D02*
X10488571Y13048318D01*
X10707142Y13164032D02*
X10617142Y13164032D01*
X10617142Y13022603D02*
X10617142Y13292603D01*
X10617142Y13292603D02*
X10745714Y13292603D01*
X8870000Y13078318D02*
X8857143Y13065460D01*
X8857143Y13065460D02*
X8818571Y13052603D01*
X8818571Y13052603D02*
X8792857Y13052603D01*
X8792857Y13052603D02*
X8754286Y13065460D01*
X8754286Y13065460D02*
X8728571Y13091175D01*
X8728571Y13091175D02*
X8715714Y13116889D01*
X8715714Y13116889D02*
X8702857Y13168318D01*
X8702857Y13168318D02*
X8702857Y13206889D01*
X8702857Y13206889D02*
X8715714Y13258318D01*
X8715714Y13258318D02*
X8728571Y13284032D01*
X8728571Y13284032D02*
X8754286Y13309746D01*
X8754286Y13309746D02*
X8792857Y13322603D01*
X8792857Y13322603D02*
X8818571Y13322603D01*
X8818571Y13322603D02*
X8857143Y13309746D01*
X8857143Y13309746D02*
X8870000Y13296889D01*
X9127143Y13052603D02*
X8972857Y13052603D01*
X9050000Y13052603D02*
X9050000Y13322603D01*
X9050000Y13322603D02*
X9024286Y13284032D01*
X9024286Y13284032D02*
X8998571Y13258318D01*
X8998571Y13258318D02*
X8972857Y13245460D01*
X22745714Y3432603D02*
X22745714Y3252603D01*
X22681428Y3535460D02*
X22617142Y3342603D01*
X22617142Y3342603D02*
X22784285Y3342603D01*
X22887142Y3278318D02*
X22899999Y3265460D01*
X22899999Y3265460D02*
X22887142Y3252603D01*
X22887142Y3252603D02*
X22874285Y3265460D01*
X22874285Y3265460D02*
X22887142Y3278318D01*
X22887142Y3278318D02*
X22887142Y3252603D01*
X22989999Y3522603D02*
X23169999Y3522603D01*
X23169999Y3522603D02*
X23054285Y3252603D01*
X23388571Y3432603D02*
X23388571Y3252603D01*
X23272856Y3432603D02*
X23272856Y3291175D01*
X23272856Y3291175D02*
X23285713Y3265460D01*
X23285713Y3265460D02*
X23311428Y3252603D01*
X23311428Y3252603D02*
X23349999Y3252603D01*
X23349999Y3252603D02*
X23375713Y3265460D01*
X23375713Y3265460D02*
X23388571Y3278318D01*
X23607142Y3394032D02*
X23517142Y3394032D01*
X23517142Y3252603D02*
X23517142Y3522603D01*
X23517142Y3522603D02*
X23645714Y3522603D01*
X22340682Y3339001D02*
X22353540Y3326144D01*
X22353540Y3326144D02*
X22366397Y3287572D01*
X22366397Y3287572D02*
X22366397Y3261858D01*
X22366397Y3261858D02*
X22353540Y3223287D01*
X22353540Y3223287D02*
X22327825Y3197572D01*
X22327825Y3197572D02*
X22302111Y3184715D01*
X22302111Y3184715D02*
X22250682Y3171858D01*
X22250682Y3171858D02*
X22212111Y3171858D01*
X22212111Y3171858D02*
X22160682Y3184715D01*
X22160682Y3184715D02*
X22134968Y3197572D01*
X22134968Y3197572D02*
X22109254Y3223287D01*
X22109254Y3223287D02*
X22096397Y3261858D01*
X22096397Y3261858D02*
X22096397Y3287572D01*
X22096397Y3287572D02*
X22109254Y3326144D01*
X22109254Y3326144D02*
X22122111Y3339001D01*
X22096397Y3570429D02*
X22096397Y3519001D01*
X22096397Y3519001D02*
X22109254Y3493287D01*
X22109254Y3493287D02*
X22122111Y3480429D01*
X22122111Y3480429D02*
X22160682Y3454715D01*
X22160682Y3454715D02*
X22212111Y3441858D01*
X22212111Y3441858D02*
X22314968Y3441858D01*
X22314968Y3441858D02*
X22340682Y3454715D01*
X22340682Y3454715D02*
X22353540Y3467572D01*
X22353540Y3467572D02*
X22366397Y3493287D01*
X22366397Y3493287D02*
X22366397Y3544715D01*
X22366397Y3544715D02*
X22353540Y3570429D01*
X22353540Y3570429D02*
X22340682Y3583287D01*
X22340682Y3583287D02*
X22314968Y3596144D01*
X22314968Y3596144D02*
X22250682Y3596144D01*
X22250682Y3596144D02*
X22224968Y3583287D01*
X22224968Y3583287D02*
X22212111Y3570429D01*
X22212111Y3570429D02*
X22199254Y3544715D01*
X22199254Y3544715D02*
X22199254Y3493287D01*
X22199254Y3493287D02*
X22212111Y3467572D01*
X22212111Y3467572D02*
X22224968Y3454715D01*
X22224968Y3454715D02*
X22250682Y3441858D01*
X17864285Y942603D02*
X17864285Y1212603D01*
X17864285Y1212603D02*
X17954285Y1019746D01*
X17954285Y1019746D02*
X18044285Y1212603D01*
X18044285Y1212603D02*
X18044285Y942603D01*
X18172856Y942603D02*
X18172856Y1212603D01*
X18455713Y968318D02*
X18442856Y955460D01*
X18442856Y955460D02*
X18404284Y942603D01*
X18404284Y942603D02*
X18378570Y942603D01*
X18378570Y942603D02*
X18339999Y955460D01*
X18339999Y955460D02*
X18314284Y981175D01*
X18314284Y981175D02*
X18301427Y1006889D01*
X18301427Y1006889D02*
X18288570Y1058318D01*
X18288570Y1058318D02*
X18288570Y1096889D01*
X18288570Y1096889D02*
X18301427Y1148318D01*
X18301427Y1148318D02*
X18314284Y1174032D01*
X18314284Y1174032D02*
X18339999Y1199746D01*
X18339999Y1199746D02*
X18378570Y1212603D01*
X18378570Y1212603D02*
X18404284Y1212603D01*
X18404284Y1212603D02*
X18442856Y1199746D01*
X18442856Y1199746D02*
X18455713Y1186889D01*
X18699999Y1212603D02*
X18571427Y1212603D01*
X18571427Y1212603D02*
X18558570Y1084032D01*
X18558570Y1084032D02*
X18571427Y1096889D01*
X18571427Y1096889D02*
X18597142Y1109746D01*
X18597142Y1109746D02*
X18661427Y1109746D01*
X18661427Y1109746D02*
X18687142Y1096889D01*
X18687142Y1096889D02*
X18699999Y1084032D01*
X18699999Y1084032D02*
X18712856Y1058318D01*
X18712856Y1058318D02*
X18712856Y994032D01*
X18712856Y994032D02*
X18699999Y968318D01*
X18699999Y968318D02*
X18687142Y955460D01*
X18687142Y955460D02*
X18661427Y942603D01*
X18661427Y942603D02*
X18597142Y942603D01*
X18597142Y942603D02*
X18571427Y955460D01*
X18571427Y955460D02*
X18558570Y968318D01*
X18815713Y1186889D02*
X18828570Y1199746D01*
X18828570Y1199746D02*
X18854285Y1212603D01*
X18854285Y1212603D02*
X18918570Y1212603D01*
X18918570Y1212603D02*
X18944285Y1199746D01*
X18944285Y1199746D02*
X18957142Y1186889D01*
X18957142Y1186889D02*
X18969999Y1161175D01*
X18969999Y1161175D02*
X18969999Y1135460D01*
X18969999Y1135460D02*
X18957142Y1096889D01*
X18957142Y1096889D02*
X18802856Y942603D01*
X18802856Y942603D02*
X18969999Y942603D01*
X19227142Y942603D02*
X19072856Y942603D01*
X19149999Y942603D02*
X19149999Y1212603D01*
X19149999Y1212603D02*
X19124285Y1174032D01*
X19124285Y1174032D02*
X19098570Y1148318D01*
X19098570Y1148318D02*
X19072856Y1135460D01*
X19355713Y942603D02*
X19407142Y942603D01*
X19407142Y942603D02*
X19432856Y955460D01*
X19432856Y955460D02*
X19445713Y968318D01*
X19445713Y968318D02*
X19471428Y1006889D01*
X19471428Y1006889D02*
X19484285Y1058318D01*
X19484285Y1058318D02*
X19484285Y1161175D01*
X19484285Y1161175D02*
X19471428Y1186889D01*
X19471428Y1186889D02*
X19458571Y1199746D01*
X19458571Y1199746D02*
X19432856Y1212603D01*
X19432856Y1212603D02*
X19381428Y1212603D01*
X19381428Y1212603D02*
X19355713Y1199746D01*
X19355713Y1199746D02*
X19342856Y1186889D01*
X19342856Y1186889D02*
X19329999Y1161175D01*
X19329999Y1161175D02*
X19329999Y1096889D01*
X19329999Y1096889D02*
X19342856Y1071175D01*
X19342856Y1071175D02*
X19355713Y1058318D01*
X19355713Y1058318D02*
X19381428Y1045460D01*
X19381428Y1045460D02*
X19432856Y1045460D01*
X19432856Y1045460D02*
X19458571Y1058318D01*
X19458571Y1058318D02*
X19471428Y1071175D01*
X19471428Y1071175D02*
X19484285Y1096889D01*
X19599999Y1045460D02*
X19805714Y1045460D01*
X19908571Y1212603D02*
X20075714Y1212603D01*
X20075714Y1212603D02*
X19985714Y1109746D01*
X19985714Y1109746D02*
X20024285Y1109746D01*
X20024285Y1109746D02*
X20050000Y1096889D01*
X20050000Y1096889D02*
X20062857Y1084032D01*
X20062857Y1084032D02*
X20075714Y1058318D01*
X20075714Y1058318D02*
X20075714Y994032D01*
X20075714Y994032D02*
X20062857Y968318D01*
X20062857Y968318D02*
X20050000Y955460D01*
X20050000Y955460D02*
X20024285Y942603D01*
X20024285Y942603D02*
X19947142Y942603D01*
X19947142Y942603D02*
X19921428Y955460D01*
X19921428Y955460D02*
X19908571Y968318D01*
X20191428Y968318D02*
X20204285Y955460D01*
X20204285Y955460D02*
X20191428Y942603D01*
X20191428Y942603D02*
X20178571Y955460D01*
X20178571Y955460D02*
X20191428Y968318D01*
X20191428Y968318D02*
X20191428Y942603D01*
X20294285Y1212603D02*
X20461428Y1212603D01*
X20461428Y1212603D02*
X20371428Y1109746D01*
X20371428Y1109746D02*
X20409999Y1109746D01*
X20409999Y1109746D02*
X20435714Y1096889D01*
X20435714Y1096889D02*
X20448571Y1084032D01*
X20448571Y1084032D02*
X20461428Y1058318D01*
X20461428Y1058318D02*
X20461428Y994032D01*
X20461428Y994032D02*
X20448571Y968318D01*
X20448571Y968318D02*
X20435714Y955460D01*
X20435714Y955460D02*
X20409999Y942603D01*
X20409999Y942603D02*
X20332856Y942603D01*
X20332856Y942603D02*
X20307142Y955460D01*
X20307142Y955460D02*
X20294285Y968318D01*
X20628571Y1071175D02*
X20628571Y942603D01*
X20538571Y1212603D02*
X20628571Y1071175D01*
X20628571Y1071175D02*
X20718571Y1212603D01*
X20808571Y942603D02*
X20808571Y1212603D01*
X20808571Y1212603D02*
X20898571Y1019746D01*
X20898571Y1019746D02*
X20988571Y1212603D01*
X20988571Y1212603D02*
X20988571Y942603D01*
X21245714Y1212603D02*
X21117142Y1212603D01*
X21117142Y1212603D02*
X21104285Y1084032D01*
X21104285Y1084032D02*
X21117142Y1096889D01*
X21117142Y1096889D02*
X21142857Y1109746D01*
X21142857Y1109746D02*
X21207142Y1109746D01*
X21207142Y1109746D02*
X21232857Y1096889D01*
X21232857Y1096889D02*
X21245714Y1084032D01*
X21245714Y1084032D02*
X21258571Y1058318D01*
X21258571Y1058318D02*
X21258571Y994032D01*
X21258571Y994032D02*
X21245714Y968318D01*
X21245714Y968318D02*
X21232857Y955460D01*
X21232857Y955460D02*
X21207142Y942603D01*
X21207142Y942603D02*
X21142857Y942603D01*
X21142857Y942603D02*
X21117142Y955460D01*
X21117142Y955460D02*
X21104285Y968318D01*
X19279285Y3042603D02*
X19279285Y2824032D01*
X19279285Y2824032D02*
X19292142Y2798318D01*
X19292142Y2798318D02*
X19305000Y2785460D01*
X19305000Y2785460D02*
X19330714Y2772603D01*
X19330714Y2772603D02*
X19382142Y2772603D01*
X19382142Y2772603D02*
X19407857Y2785460D01*
X19407857Y2785460D02*
X19420714Y2798318D01*
X19420714Y2798318D02*
X19433571Y2824032D01*
X19433571Y2824032D02*
X19433571Y3042603D01*
X19549285Y3016889D02*
X19562142Y3029746D01*
X19562142Y3029746D02*
X19587857Y3042603D01*
X19587857Y3042603D02*
X19652142Y3042603D01*
X19652142Y3042603D02*
X19677857Y3029746D01*
X19677857Y3029746D02*
X19690714Y3016889D01*
X19690714Y3016889D02*
X19703571Y2991175D01*
X19703571Y2991175D02*
X19703571Y2965460D01*
X19703571Y2965460D02*
X19690714Y2926889D01*
X19690714Y2926889D02*
X19536428Y2772603D01*
X19536428Y2772603D02*
X19703571Y2772603D01*
D10*
X26167857Y17069335D02*
X25996428Y17069335D01*
X26082143Y17069335D02*
X26082143Y17369335D01*
X26082143Y17369335D02*
X26053571Y17326478D01*
X26053571Y17326478D02*
X26025000Y17297906D01*
X26025000Y17297906D02*
X25996428Y17283620D01*
X26353571Y17369335D02*
X26382142Y17369335D01*
X26382142Y17369335D02*
X26410714Y17355049D01*
X26410714Y17355049D02*
X26425000Y17340763D01*
X26425000Y17340763D02*
X26439285Y17312192D01*
X26439285Y17312192D02*
X26453571Y17255049D01*
X26453571Y17255049D02*
X26453571Y17183620D01*
X26453571Y17183620D02*
X26439285Y17126478D01*
X26439285Y17126478D02*
X26425000Y17097906D01*
X26425000Y17097906D02*
X26410714Y17083620D01*
X26410714Y17083620D02*
X26382142Y17069335D01*
X26382142Y17069335D02*
X26353571Y17069335D01*
X26353571Y17069335D02*
X26325000Y17083620D01*
X26325000Y17083620D02*
X26310714Y17097906D01*
X26310714Y17097906D02*
X26296428Y17126478D01*
X26296428Y17126478D02*
X26282142Y17183620D01*
X26282142Y17183620D02*
X26282142Y17255049D01*
X26282142Y17255049D02*
X26296428Y17312192D01*
X26296428Y17312192D02*
X26310714Y17340763D01*
X26310714Y17340763D02*
X26325000Y17355049D01*
X26325000Y17355049D02*
X26353571Y17369335D01*
X26582142Y17069335D02*
X26582142Y17369335D01*
X26753571Y17069335D02*
X26624999Y17240763D01*
X26753571Y17369335D02*
X26582142Y17197906D01*
X26520665Y18035001D02*
X26377808Y17935001D01*
X26520665Y17863572D02*
X26220665Y17863572D01*
X26220665Y17863572D02*
X26220665Y17977858D01*
X26220665Y17977858D02*
X26234951Y18006429D01*
X26234951Y18006429D02*
X26249237Y18020715D01*
X26249237Y18020715D02*
X26277808Y18035001D01*
X26277808Y18035001D02*
X26320665Y18035001D01*
X26320665Y18035001D02*
X26349237Y18020715D01*
X26349237Y18020715D02*
X26363522Y18006429D01*
X26363522Y18006429D02*
X26377808Y17977858D01*
X26377808Y17977858D02*
X26377808Y17863572D01*
X26320665Y18292143D02*
X26520665Y18292143D01*
X26206380Y18220715D02*
X26420665Y18149286D01*
X26420665Y18149286D02*
X26420665Y18335001D01*
D12*
X28349000Y19475000D02*
X28349000Y16875000D01*
X28349000Y16875000D02*
X35049000Y16875000D01*
X31799000Y20775000D02*
X31799000Y19475000D01*
X31849000Y20825000D02*
X31799000Y20775000D01*
X32049000Y21025000D02*
X31849000Y20825000D01*
X32899000Y21024999D02*
X32049000Y21025000D01*
X33098999Y20825000D02*
X32899000Y21024999D01*
X33099000Y19525000D02*
X33098999Y20825000D01*
X35049000Y19475000D02*
X28349000Y19475000D01*
X35049000Y16875000D02*
X35049000Y19475000D01*
X27535000Y7314001D02*
X28075000Y7314001D01*
X27535000Y6264001D02*
X27535000Y7314001D01*
X28075000Y7314001D02*
X28075000Y6264001D01*
X28075000Y6264001D02*
X27535000Y6264001D01*
X15670000Y4114000D02*
X16720000Y4114000D01*
X15670000Y3574000D02*
X15670000Y4114000D01*
X16720000Y4114000D02*
X16720000Y3574000D01*
X16720000Y3574000D02*
X15670000Y3574000D01*
X11575000Y13974000D02*
X12550000Y14949000D01*
X11575000Y5049000D02*
X11575000Y13974000D01*
X12550000Y14949000D02*
X15475000Y14949000D01*
X15475000Y14949000D02*
X15475000Y5049000D01*
X15475000Y5049000D02*
X11575000Y5049000D01*
X8410000Y12124000D02*
X9460000Y12124000D01*
X9460000Y12224000D02*
G75*
G02*
X9460000Y12124000I0J-50000D01*
G01*
X9460000Y12224000D02*
X8410000Y12224000D01*
X8410000Y12224000D02*
G75*
G03*
X8410000Y12124000I0J-50000D01*
G01*
X8460000Y11634000D02*
X8460000Y12174000D01*
X8360000Y12174000D02*
G75*
G02*
X8460000Y12174000I50000J0D01*
G01*
X8360000Y12174000D02*
X8360000Y11634000D01*
X8360000Y11634000D02*
G75*
G03*
X8460000Y11634000I50000J0D01*
G01*
X9410000Y12174000D02*
X9410000Y11634000D01*
X9510000Y11634000D02*
G75*
G02*
X9410000Y11634000I-50000J0D01*
G01*
X9510000Y11634000D02*
X9510000Y12174000D01*
X9510000Y12174000D02*
G75*
G03*
X9410000Y12174000I-50000J0D01*
G01*
X9460000Y11684000D02*
X8410000Y11684000D01*
X8410000Y11584000D02*
G75*
G02*
X8410000Y11684000I0J50000D01*
G01*
X8410000Y11584000D02*
X9460000Y11584000D01*
X9460000Y11584000D02*
G75*
G03*
X9460000Y11684000I0J50000D01*
G01*
X4610000Y17925000D02*
X5660000Y17925000D01*
X4610000Y17385000D02*
X4610000Y17925000D01*
X5660000Y17925000D02*
X5660000Y17385000D01*
X5660000Y17385000D02*
X4610000Y17385000D01*
X24630001Y4090000D02*
X25680001Y4090000D01*
X25680001Y4190000D02*
G75*
G02*
X25680001Y4090000I0J-50000D01*
G01*
X25680001Y4190000D02*
X24630001Y4190000D01*
X24630001Y4190000D02*
G75*
G03*
X24630001Y4090000I0J-50000D01*
G01*
X24680001Y3600000D02*
X24680001Y4140000D01*
X24580001Y4140000D02*
G75*
G02*
X24680001Y4140000I50000J0D01*
G01*
X24580001Y4140000D02*
X24580001Y3600000D01*
X24580001Y3600000D02*
G75*
G03*
X24680001Y3600000I50000J0D01*
G01*
X25630001Y4140000D02*
X25630001Y3600000D01*
X25730001Y3600000D02*
G75*
G02*
X25630001Y3600000I-50000J0D01*
G01*
X25730001Y3600000D02*
X25730001Y4140000D01*
X25730001Y4140000D02*
G75*
G03*
X25630001Y4140000I-50000J0D01*
G01*
X25680001Y3650000D02*
X24630001Y3650000D01*
X24630001Y3550000D02*
G75*
G02*
X24630001Y3650000I0J50000D01*
G01*
X24630001Y3550000D02*
X25680001Y3550000D01*
X25680001Y3550000D02*
G75*
G03*
X25680001Y3650000I0J50000D01*
G01*
X24235000Y7369000D02*
X24635000Y7769000D01*
X24235000Y4869000D02*
X24235000Y7369000D01*
X24635000Y7769000D02*
X25835000Y7769000D01*
X25835000Y7769000D02*
X25835000Y4869000D01*
X25835000Y4869000D02*
X24235000Y4869000D01*
X23950000Y17184999D02*
X23950000Y18985001D01*
X23950001Y18085000D02*
X25549999Y18085000D01*
X24400000Y19435000D02*
X25100000Y19435000D01*
X25100000Y16735000D02*
X24400000Y16735000D01*
X25550000Y18985001D02*
X25550000Y17184999D01*
X23950000Y18985001D02*
G75*
G02*
X24400000Y19435000I450000J-1D01*
G01*
X24400000Y16735000D02*
G75*
G02*
X23950000Y17184999I0J450000D01*
G01*
X25100000Y19435000D02*
G75*
G02*
X25550000Y18985001I0J-450000D01*
G01*
X25550000Y17184999D02*
G75*
G02*
X25100000Y16735000I-450000J1D01*
G01*
X12175000Y16255000D02*
X13175000Y16255000D01*
X12175000Y15755000D02*
X12175000Y16255000D01*
X13175000Y16255000D02*
X13175000Y15755000D01*
X13175000Y15755000D02*
X12175000Y15755000D01*
X11530000Y3840000D02*
X11530000Y2240000D01*
X11530000Y2240000D02*
X14530000Y2240000D01*
X14030000Y3840000D02*
X11530000Y3840000D01*
X14030000Y3840000D02*
X14530000Y3340000D01*
X14530000Y3340000D02*
X14530000Y2240000D01*
X17735000Y14099000D02*
X18275000Y14099000D01*
X17735000Y13049000D02*
X17735000Y14099000D01*
X18275000Y14099000D02*
X18275000Y13049000D01*
X18275000Y13049000D02*
X17735000Y13049000D01*
X22195000Y2194000D02*
X23195000Y2194000D01*
X22195000Y1694000D02*
X22195000Y2194000D01*
X23195000Y2194000D02*
X23195000Y1694000D01*
X23195000Y1694000D02*
X22195000Y1694000D01*
X8205000Y16110000D02*
X8745000Y16110000D01*
X8205000Y15060000D02*
X8205000Y16110000D01*
X8745000Y16110000D02*
X8745000Y15060000D01*
X8745000Y15060000D02*
X8205000Y15060000D01*
X19925000Y9918000D02*
X20250000Y10243000D01*
X19925000Y7343000D02*
X19925000Y9918000D01*
X20250000Y10243000D02*
X21225000Y10243000D01*
X21225000Y10243000D02*
X21225000Y7343000D01*
X21225000Y7343000D02*
X19925000Y7343000D01*
X8025000Y3355000D02*
X10925000Y3355000D01*
X8025000Y2555000D02*
X8025000Y3355000D01*
X8525000Y2055000D02*
X8025000Y2555000D01*
X10925000Y3355000D02*
X10925000Y2055000D01*
X10925000Y2055000D02*
X8525000Y2055000D01*
X18310000Y6350000D02*
X18310000Y5100000D01*
X18310000Y5100000D02*
X19997500Y5100000D01*
X19997500Y5100000D02*
X20310000Y5412500D01*
X20310000Y6350000D02*
X18310000Y6350000D01*
X20310000Y5412500D02*
X20310000Y6350000D01*
X28349000Y3111792D02*
X28349000Y511792D01*
X28349000Y511792D02*
X35049000Y511792D01*
X30299000Y461792D02*
X30299001Y-838208D01*
X30299001Y-838208D02*
X30499000Y-1038207D01*
X30499000Y-1038207D02*
X31349000Y-1038208D01*
X31349000Y-1038208D02*
X31549000Y-838208D01*
X31549000Y-838208D02*
X31599000Y-788208D01*
X31599000Y-788208D02*
X31599000Y511792D01*
X35049000Y3111792D02*
X28349000Y3111792D01*
X35049000Y511792D02*
X35049000Y3111792D01*
X37574000Y2610000D02*
X38074000Y2610000D01*
X37574000Y1310000D02*
X37574000Y2610000D01*
X37574000Y1310000D02*
X38074000Y1310000D01*
X38074000Y3410000D02*
X38074000Y510000D01*
X38074000Y510000D02*
X40024000Y510000D01*
X40024000Y510000D02*
X41974000Y510000D01*
X41974000Y3410000D02*
X38074000Y3410000D01*
X41974000Y510000D02*
X41974000Y3410000D01*
X42474000Y2610000D02*
X41974000Y2610000D01*
X42474000Y1310000D02*
X41974000Y1310000D01*
X42474000Y1310000D02*
X42474000Y2610000D01*
X40924000Y1960000D02*
G75*
G02*
X39124000Y1960000I-900000J0D01*
G01*
X39124000Y1960000D02*
G75*
G02*
X40924000Y1960000I900000J0D01*
G01*
X16415000Y2924000D02*
X16915000Y2924000D01*
X16415000Y1924000D02*
X16415000Y2924000D01*
X16915000Y2924000D02*
X16915000Y1924000D01*
X16915000Y1924000D02*
X16415000Y1924000D01*
X5970000Y13200000D02*
X6550000Y12700000D01*
X6550000Y13700000D02*
X5970000Y13200000D01*
X6550000Y14470000D02*
X-800000Y14470000D01*
X-800000Y5530000D01*
X6550000Y5530000D01*
X6550000Y14470000D01*
X23319000Y14623000D02*
X26729000Y14623000D01*
X23319000Y10813000D02*
X23319000Y14623000D01*
X25876500Y10813000D02*
X23319000Y10813000D01*
X26729000Y14623000D02*
X26729000Y11665500D01*
X26729000Y11665500D02*
X25876500Y10813000D01*
X32315000Y12959000D02*
X32315000Y12459000D01*
X32315000Y12459000D02*
X33915000Y12459000D01*
X32615000Y13259000D02*
X32315000Y12959000D01*
X33915000Y13259000D02*
X32615000Y13259000D01*
X33915000Y12459000D02*
X33915000Y13259000D01*
X14340000Y18800000D02*
X14840000Y18800000D01*
X14340000Y17500000D02*
X14340000Y18800000D01*
X14340000Y17500000D02*
X14840000Y17500000D01*
X14840000Y19600000D02*
X14840000Y16700000D01*
X14840000Y16700000D02*
X16790000Y16700000D01*
X16790000Y16700000D02*
X18740000Y16700000D01*
X18740000Y19600000D02*
X14840000Y19600000D01*
X18740000Y16700000D02*
X18740000Y19600000D01*
X19240000Y18800000D02*
X18740000Y18800000D01*
X19240000Y17500000D02*
X18740000Y17500000D01*
X19240000Y17500000D02*
X19240000Y18800000D01*
X17690000Y18150000D02*
G75*
G02*
X15890000Y18150000I-900000J0D01*
G01*
X15890000Y18150000D02*
G75*
G02*
X17690000Y18150000I900000J0D01*
G01*
X28860000Y6750000D02*
X28860000Y7450000D01*
X29309999Y7900000D02*
X31110001Y7900000D01*
X30210000Y6300001D02*
X30210000Y7899999D01*
X31110001Y6300000D02*
X29309999Y6300000D01*
X31560000Y7450000D02*
X31560000Y6750000D01*
X28860000Y7450000D02*
G75*
G02*
X29309999Y7900000I450000J0D01*
G01*
X29309999Y6300000D02*
G75*
G02*
X28860000Y6750000I1J450000D01*
G01*
X31110001Y7900000D02*
G75*
G02*
X31560000Y7450000I-1J-450000D01*
G01*
X31560000Y6750000D02*
G75*
G02*
X31110001Y6300000I-450000J0D01*
G01*
X20475000Y18610000D02*
X21015000Y18610000D01*
X20475000Y17560000D02*
X20475000Y18610000D01*
X21015000Y18610000D02*
X21015000Y17560000D01*
X21015000Y17560000D02*
X20475000Y17560000D01*
X19915000Y14229000D02*
X20240000Y14554000D01*
X19915000Y11654000D02*
X19915000Y14229000D01*
X20240000Y14554000D02*
X21215000Y14554000D01*
X21215000Y14554000D02*
X21215000Y11654000D01*
X21215000Y11654000D02*
X19915000Y11654000D01*
X37574000Y18690000D02*
X38074000Y18690000D01*
X37574000Y17390000D02*
X37574000Y18690000D01*
X37574000Y17390000D02*
X38074000Y17390000D01*
X38074000Y19490000D02*
X38074000Y16590000D01*
X38074000Y16590000D02*
X40024000Y16590000D01*
X40024000Y16590000D02*
X41974000Y16590000D01*
X41974000Y19490000D02*
X38074000Y19490000D01*
X41974000Y16590000D02*
X41974000Y19490000D01*
X42474000Y18690000D02*
X41974000Y18690000D01*
X42474000Y17390000D02*
X41974000Y17390000D01*
X42474000Y17390000D02*
X42474000Y18690000D01*
X40924000Y18040000D02*
G75*
G02*
X39124000Y18040000I-900000J0D01*
G01*
X39124000Y18040000D02*
G75*
G02*
X40924000Y18040000I900000J0D01*
G01*
X7005000Y17805000D02*
X7005000Y17305000D01*
X7005000Y17305000D02*
X8605000Y17305000D01*
X7305000Y18105000D02*
X7005000Y17805000D01*
X8605000Y18105000D02*
X7305000Y18105000D01*
X8605000Y17305000D02*
X8605000Y18105000D01*
X24630000Y8805000D02*
X25680000Y8805000D01*
X25680000Y8905000D02*
G75*
G02*
X25680000Y8805000I0J-50000D01*
G01*
X25680000Y8905000D02*
X24630000Y8905000D01*
X24630000Y8905000D02*
G75*
G03*
X24630000Y8805000I0J-50000D01*
G01*
X24680000Y8315000D02*
X24680000Y8855000D01*
X24580000Y8855000D02*
G75*
G02*
X24680000Y8855000I50000J0D01*
G01*
X24580000Y8855000D02*
X24580000Y8315000D01*
X24580000Y8315000D02*
G75*
G03*
X24680000Y8315000I50000J0D01*
G01*
X25630000Y8855000D02*
X25630000Y8315000D01*
X25730000Y8315000D02*
G75*
G02*
X25630000Y8315000I-50000J0D01*
G01*
X25730000Y8315000D02*
X25730000Y8855000D01*
X25730000Y8855000D02*
G75*
G03*
X25630000Y8855000I-50000J0D01*
G01*
X25680000Y8365000D02*
X24630000Y8365000D01*
X24630000Y8265000D02*
G75*
G02*
X24630000Y8365000I0J50000D01*
G01*
X24630000Y8265000D02*
X25680000Y8265000D01*
X25680000Y8265000D02*
G75*
G03*
X25680000Y8365000I0J50000D01*
G01*
X36950000Y14000000D02*
G75*
G02*
X35450000Y14000000I-750000J0D01*
G01*
X35450000Y14000000D02*
G75*
G02*
X36950000Y14000000I750000J0D01*
G01*
X39222000Y14000000D02*
X43472000Y14000000D01*
X39222000Y7000000D02*
X39929107Y7500000D01*
X39222000Y6000000D02*
X39222000Y14000000D01*
X39222000Y6000000D02*
X43472000Y6000000D01*
X39929107Y7500000D02*
X39222001Y8000000D01*
X43472000Y6000000D02*
X43472000Y14000000D01*
X29490000Y13149000D02*
X30540000Y13149000D01*
X29490000Y12609000D02*
X29490000Y13149000D01*
X30540000Y13149000D02*
X30540000Y12609000D01*
X30540000Y12609000D02*
X29490000Y12609000D01*
X6455000Y2660000D02*
X6995000Y2660000D01*
X6455000Y1610000D02*
X6455000Y2660000D01*
X6995000Y2660000D02*
X6995000Y1610000D01*
X6995000Y1610000D02*
X6455000Y1610000D01*
X21575000Y17184999D02*
X21575000Y18985001D01*
X21575001Y18085000D02*
X23174999Y18085000D01*
X22025000Y19435000D02*
X22725000Y19435000D01*
X22725000Y16735000D02*
X22025000Y16735000D01*
X23175000Y18985001D02*
X23175000Y17184999D01*
X21575000Y18985001D02*
G75*
G02*
X22025000Y19435000I450000J-1D01*
G01*
X22025000Y16735000D02*
G75*
G02*
X21575000Y17184999I0J450000D01*
G01*
X22725000Y19435000D02*
G75*
G02*
X23175000Y18985001I0J-450000D01*
G01*
X23175000Y17184999D02*
G75*
G02*
X22725000Y16735000I-450000J1D01*
G01*
X17735000Y9788000D02*
X18275000Y9788000D01*
X17735000Y8738000D02*
X17735000Y9788000D01*
X18275000Y9788000D02*
X18275000Y8738000D01*
X18275000Y8738000D02*
X17735000Y8738000D01*
X8415000Y13424000D02*
X9415000Y13424000D01*
X8415000Y12924000D02*
X8415000Y13424000D01*
X9415000Y13424000D02*
X9415000Y12924000D01*
X9415000Y12924000D02*
X8415000Y12924000D01*
X21995000Y3884000D02*
X22495000Y3884000D01*
X21995000Y2884000D02*
X21995000Y3884000D01*
X22495000Y3884000D02*
X22495000Y2884000D01*
X22495000Y2884000D02*
X21995000Y2884000D01*
X18685000Y3944000D02*
X19085000Y4344000D01*
X18685000Y1444000D02*
X18685000Y3944000D01*
X19085000Y4344000D02*
X20285000Y4344000D01*
X20285000Y4344000D02*
X20285000Y1444000D01*
X20285000Y1444000D02*
X18685000Y1444000D01*
X26115000Y18610000D02*
X26655000Y18610000D01*
X26115000Y17560000D02*
X26115000Y18610000D01*
X26655000Y18610000D02*
X26655000Y17560000D01*
X26655000Y17560000D02*
X26115000Y17560000D01*
X7980000Y12399000D02*
X9890000Y11409000D01*
X7980000Y11409000D02*
X9890000Y12399000D01*
X24200001Y4365000D02*
X26110001Y3375000D01*
X24200001Y3375000D02*
X26110001Y4365000D01*
X24200000Y9080000D02*
X26110000Y8090000D01*
X24200000Y8090000D02*
X26110000Y9080000D01*
M02*
