%TF.GenerationSoftware,KiCad,Pcbnew,9.0.3*%
%TF.CreationDate,2025-07-25T19:16:11+05:30*%
%TF.ProjectId,ESPNut-D1,4553504e-7574-42d4-9431-2e6b69636164,0.2*%
%TF.SameCoordinates,Original*%
%TF.FileFunction,AssemblyDrawing,Bot*%
%FSLAX46Y46*%
G04 Gerber Fmt 4.6, Leading zero omitted, Abs format (unit mm)*
G04 Created by KiCad (PCBNEW 9.0.3) date 2025-07-25 19:16:11*
%MOMM*%
%LPD*%
G01*
G04 APERTURE LIST*
%ADD10C,0.067500*%
%ADD11C,0.060000*%
%ADD12C,0.100000*%
G04 APERTURE END LIST*
D10*
X17322142Y13096603D02*
X17412142Y13225175D01*
X17476428Y13096603D02*
X17476428Y13366603D01*
X17476428Y13366603D02*
X17373571Y13366603D01*
X17373571Y13366603D02*
X17347856Y13353746D01*
X17347856Y13353746D02*
X17334999Y13340889D01*
X17334999Y13340889D02*
X17322142Y13315175D01*
X17322142Y13315175D02*
X17322142Y13276603D01*
X17322142Y13276603D02*
X17334999Y13250889D01*
X17334999Y13250889D02*
X17347856Y13238032D01*
X17347856Y13238032D02*
X17373571Y13225175D01*
X17373571Y13225175D02*
X17476428Y13225175D01*
X17219285Y13340889D02*
X17206428Y13353746D01*
X17206428Y13353746D02*
X17180714Y13366603D01*
X17180714Y13366603D02*
X17116428Y13366603D01*
X17116428Y13366603D02*
X17090714Y13353746D01*
X17090714Y13353746D02*
X17077856Y13340889D01*
X17077856Y13340889D02*
X17064999Y13315175D01*
X17064999Y13315175D02*
X17064999Y13289460D01*
X17064999Y13289460D02*
X17077856Y13250889D01*
X17077856Y13250889D02*
X17232142Y13096603D01*
X17232142Y13096603D02*
X17064999Y13096603D01*
X16974999Y13366603D02*
X16807856Y13366603D01*
X16807856Y13366603D02*
X16897856Y13263746D01*
X16897856Y13263746D02*
X16859285Y13263746D01*
X16859285Y13263746D02*
X16833571Y13250889D01*
X16833571Y13250889D02*
X16820713Y13238032D01*
X16820713Y13238032D02*
X16807856Y13212318D01*
X16807856Y13212318D02*
X16807856Y13148032D01*
X16807856Y13148032D02*
X16820713Y13122318D01*
X16820713Y13122318D02*
X16833571Y13109460D01*
X16833571Y13109460D02*
X16859285Y13096603D01*
X16859285Y13096603D02*
X16936428Y13096603D01*
X16936428Y13096603D02*
X16962142Y13109460D01*
X16962142Y13109460D02*
X16974999Y13122318D01*
X16704999Y13340889D02*
X16692142Y13353746D01*
X16692142Y13353746D02*
X16666428Y13366603D01*
X16666428Y13366603D02*
X16602142Y13366603D01*
X16602142Y13366603D02*
X16576428Y13353746D01*
X16576428Y13353746D02*
X16563570Y13340889D01*
X16563570Y13340889D02*
X16550713Y13315175D01*
X16550713Y13315175D02*
X16550713Y13289460D01*
X16550713Y13289460D02*
X16563570Y13250889D01*
X16563570Y13250889D02*
X16717856Y13096603D01*
X16717856Y13096603D02*
X16550713Y13096603D01*
X17244285Y6736603D02*
X17244285Y7006603D01*
X17244285Y7006603D02*
X17179999Y7006603D01*
X17179999Y7006603D02*
X17141428Y6993746D01*
X17141428Y6993746D02*
X17115713Y6968032D01*
X17115713Y6968032D02*
X17102856Y6942318D01*
X17102856Y6942318D02*
X17089999Y6890889D01*
X17089999Y6890889D02*
X17089999Y6852318D01*
X17089999Y6852318D02*
X17102856Y6800889D01*
X17102856Y6800889D02*
X17115713Y6775175D01*
X17115713Y6775175D02*
X17141428Y6749460D01*
X17141428Y6749460D02*
X17179999Y6736603D01*
X17179999Y6736603D02*
X17244285Y6736603D01*
X16987142Y6749460D02*
X16948571Y6736603D01*
X16948571Y6736603D02*
X16884285Y6736603D01*
X16884285Y6736603D02*
X16858571Y6749460D01*
X16858571Y6749460D02*
X16845713Y6762318D01*
X16845713Y6762318D02*
X16832856Y6788032D01*
X16832856Y6788032D02*
X16832856Y6813746D01*
X16832856Y6813746D02*
X16845713Y6839460D01*
X16845713Y6839460D02*
X16858571Y6852318D01*
X16858571Y6852318D02*
X16884285Y6865175D01*
X16884285Y6865175D02*
X16935713Y6878032D01*
X16935713Y6878032D02*
X16961428Y6890889D01*
X16961428Y6890889D02*
X16974285Y6903746D01*
X16974285Y6903746D02*
X16987142Y6929460D01*
X16987142Y6929460D02*
X16987142Y6955175D01*
X16987142Y6955175D02*
X16974285Y6980889D01*
X16974285Y6980889D02*
X16961428Y6993746D01*
X16961428Y6993746D02*
X16935713Y7006603D01*
X16935713Y7006603D02*
X16871428Y7006603D01*
X16871428Y7006603D02*
X16832856Y6993746D01*
X16562856Y6736603D02*
X16652856Y6865175D01*
X16717142Y6736603D02*
X16717142Y7006603D01*
X16717142Y7006603D02*
X16614285Y7006603D01*
X16614285Y7006603D02*
X16588570Y6993746D01*
X16588570Y6993746D02*
X16575713Y6980889D01*
X16575713Y6980889D02*
X16562856Y6955175D01*
X16562856Y6955175D02*
X16562856Y6916603D01*
X16562856Y6916603D02*
X16575713Y6890889D01*
X16575713Y6890889D02*
X16588570Y6878032D01*
X16588570Y6878032D02*
X16614285Y6865175D01*
X16614285Y6865175D02*
X16717142Y6865175D01*
D11*
X33453571Y16321478D02*
X33353571Y16321478D01*
X33310714Y16164335D02*
X33453571Y16164335D01*
X33453571Y16164335D02*
X33453571Y16464335D01*
X33453571Y16464335D02*
X33310714Y16464335D01*
X33196428Y16178620D02*
X33153571Y16164335D01*
X33153571Y16164335D02*
X33082142Y16164335D01*
X33082142Y16164335D02*
X33053571Y16178620D01*
X33053571Y16178620D02*
X33039285Y16192906D01*
X33039285Y16192906D02*
X33024999Y16221478D01*
X33024999Y16221478D02*
X33024999Y16250049D01*
X33024999Y16250049D02*
X33039285Y16278620D01*
X33039285Y16278620D02*
X33053571Y16292906D01*
X33053571Y16292906D02*
X33082142Y16307192D01*
X33082142Y16307192D02*
X33139285Y16321478D01*
X33139285Y16321478D02*
X33167856Y16335763D01*
X33167856Y16335763D02*
X33182142Y16350049D01*
X33182142Y16350049D02*
X33196428Y16378620D01*
X33196428Y16378620D02*
X33196428Y16407192D01*
X33196428Y16407192D02*
X33182142Y16435763D01*
X33182142Y16435763D02*
X33167856Y16450049D01*
X33167856Y16450049D02*
X33139285Y16464335D01*
X33139285Y16464335D02*
X33067856Y16464335D01*
X33067856Y16464335D02*
X33024999Y16450049D01*
X32896428Y16164335D02*
X32896428Y16464335D01*
X32896428Y16464335D02*
X32782142Y16464335D01*
X32782142Y16464335D02*
X32753571Y16450049D01*
X32753571Y16450049D02*
X32739285Y16435763D01*
X32739285Y16435763D02*
X32724999Y16407192D01*
X32724999Y16407192D02*
X32724999Y16364335D01*
X32724999Y16364335D02*
X32739285Y16335763D01*
X32739285Y16335763D02*
X32753571Y16321478D01*
X32753571Y16321478D02*
X32782142Y16307192D01*
X32782142Y16307192D02*
X32896428Y16307192D01*
X32667857Y16135763D02*
X32439285Y16135763D01*
X32410714Y16464335D02*
X32310714Y16164335D01*
X32310714Y16164335D02*
X32210714Y16464335D01*
X32110714Y16164335D02*
X32110714Y16464335D01*
X32110714Y16464335D02*
X32039285Y16464335D01*
X32039285Y16464335D02*
X31996428Y16450049D01*
X31996428Y16450049D02*
X31967857Y16421478D01*
X31967857Y16421478D02*
X31953571Y16392906D01*
X31953571Y16392906D02*
X31939285Y16335763D01*
X31939285Y16335763D02*
X31939285Y16292906D01*
X31939285Y16292906D02*
X31953571Y16235763D01*
X31953571Y16235763D02*
X31967857Y16207192D01*
X31967857Y16207192D02*
X31996428Y16178620D01*
X31996428Y16178620D02*
X32039285Y16164335D01*
X32039285Y16164335D02*
X32110714Y16164335D01*
X31810714Y16164335D02*
X31810714Y16464335D01*
X31810714Y16464335D02*
X31739285Y16464335D01*
X31739285Y16464335D02*
X31696428Y16450049D01*
X31696428Y16450049D02*
X31667857Y16421478D01*
X31667857Y16421478D02*
X31653571Y16392906D01*
X31653571Y16392906D02*
X31639285Y16335763D01*
X31639285Y16335763D02*
X31639285Y16292906D01*
X31639285Y16292906D02*
X31653571Y16235763D01*
X31653571Y16235763D02*
X31667857Y16207192D01*
X31667857Y16207192D02*
X31696428Y16178620D01*
X31696428Y16178620D02*
X31739285Y16164335D01*
X31739285Y16164335D02*
X31810714Y16164335D01*
X31582143Y16135763D02*
X31353571Y16135763D01*
X31296429Y16178620D02*
X31253572Y16164335D01*
X31253572Y16164335D02*
X31182143Y16164335D01*
X31182143Y16164335D02*
X31153572Y16178620D01*
X31153572Y16178620D02*
X31139286Y16192906D01*
X31139286Y16192906D02*
X31125000Y16221478D01*
X31125000Y16221478D02*
X31125000Y16250049D01*
X31125000Y16250049D02*
X31139286Y16278620D01*
X31139286Y16278620D02*
X31153572Y16292906D01*
X31153572Y16292906D02*
X31182143Y16307192D01*
X31182143Y16307192D02*
X31239286Y16321478D01*
X31239286Y16321478D02*
X31267857Y16335763D01*
X31267857Y16335763D02*
X31282143Y16350049D01*
X31282143Y16350049D02*
X31296429Y16378620D01*
X31296429Y16378620D02*
X31296429Y16407192D01*
X31296429Y16407192D02*
X31282143Y16435763D01*
X31282143Y16435763D02*
X31267857Y16450049D01*
X31267857Y16450049D02*
X31239286Y16464335D01*
X31239286Y16464335D02*
X31167857Y16464335D01*
X31167857Y16464335D02*
X31125000Y16450049D01*
X31025000Y16464335D02*
X30953572Y16164335D01*
X30953572Y16164335D02*
X30896429Y16378620D01*
X30896429Y16378620D02*
X30839286Y16164335D01*
X30839286Y16164335D02*
X30767858Y16464335D01*
X33108385Y15249835D02*
X33108385Y15035549D01*
X33108385Y15035549D02*
X33122670Y14992692D01*
X33122670Y14992692D02*
X33151242Y14964120D01*
X33151242Y14964120D02*
X33194099Y14949835D01*
X33194099Y14949835D02*
X33222670Y14949835D01*
X32965528Y14949835D02*
X32965528Y15249835D01*
X32965528Y15249835D02*
X32851242Y15249835D01*
X32851242Y15249835D02*
X32822671Y15235549D01*
X32822671Y15235549D02*
X32808385Y15221263D01*
X32808385Y15221263D02*
X32794099Y15192692D01*
X32794099Y15192692D02*
X32794099Y15149835D01*
X32794099Y15149835D02*
X32808385Y15121263D01*
X32808385Y15121263D02*
X32822671Y15106978D01*
X32822671Y15106978D02*
X32851242Y15092692D01*
X32851242Y15092692D02*
X32965528Y15092692D01*
X32536957Y15249835D02*
X32594099Y15249835D01*
X32594099Y15249835D02*
X32622671Y15235549D01*
X32622671Y15235549D02*
X32636957Y15221263D01*
X32636957Y15221263D02*
X32665528Y15178406D01*
X32665528Y15178406D02*
X32679814Y15121263D01*
X32679814Y15121263D02*
X32679814Y15006978D01*
X32679814Y15006978D02*
X32665528Y14978406D01*
X32665528Y14978406D02*
X32651242Y14964120D01*
X32651242Y14964120D02*
X32622671Y14949835D01*
X32622671Y14949835D02*
X32565528Y14949835D01*
X32565528Y14949835D02*
X32536957Y14964120D01*
X32536957Y14964120D02*
X32522671Y14978406D01*
X32522671Y14978406D02*
X32508385Y15006978D01*
X32508385Y15006978D02*
X32508385Y15078406D01*
X32508385Y15078406D02*
X32522671Y15106978D01*
X32522671Y15106978D02*
X32536957Y15121263D01*
X32536957Y15121263D02*
X32565528Y15135549D01*
X32565528Y15135549D02*
X32622671Y15135549D01*
X32622671Y15135549D02*
X32651242Y15121263D01*
X32651242Y15121263D02*
X32665528Y15106978D01*
X32665528Y15106978D02*
X32679814Y15078406D01*
D10*
X9104263Y18473867D02*
X9014263Y18203867D01*
X9014263Y18203867D02*
X8924263Y18473867D01*
X8744263Y18345296D02*
X8705691Y18332439D01*
X8705691Y18332439D02*
X8692834Y18319582D01*
X8692834Y18319582D02*
X8679977Y18293867D01*
X8679977Y18293867D02*
X8679977Y18255296D01*
X8679977Y18255296D02*
X8692834Y18229582D01*
X8692834Y18229582D02*
X8705691Y18216724D01*
X8705691Y18216724D02*
X8731406Y18203867D01*
X8731406Y18203867D02*
X8834263Y18203867D01*
X8834263Y18203867D02*
X8834263Y18473867D01*
X8834263Y18473867D02*
X8744263Y18473867D01*
X8744263Y18473867D02*
X8718549Y18461010D01*
X8718549Y18461010D02*
X8705691Y18448153D01*
X8705691Y18448153D02*
X8692834Y18422439D01*
X8692834Y18422439D02*
X8692834Y18396724D01*
X8692834Y18396724D02*
X8705691Y18371010D01*
X8705691Y18371010D02*
X8718549Y18358153D01*
X8718549Y18358153D02*
X8744263Y18345296D01*
X8744263Y18345296D02*
X8834263Y18345296D01*
X8564263Y18473867D02*
X8564263Y18255296D01*
X8564263Y18255296D02*
X8551406Y18229582D01*
X8551406Y18229582D02*
X8538549Y18216724D01*
X8538549Y18216724D02*
X8512834Y18203867D01*
X8512834Y18203867D02*
X8461406Y18203867D01*
X8461406Y18203867D02*
X8435691Y18216724D01*
X8435691Y18216724D02*
X8422834Y18229582D01*
X8422834Y18229582D02*
X8409977Y18255296D01*
X8409977Y18255296D02*
X8409977Y18473867D01*
X8294263Y18216724D02*
X8255692Y18203867D01*
X8255692Y18203867D02*
X8191406Y18203867D01*
X8191406Y18203867D02*
X8165692Y18216724D01*
X8165692Y18216724D02*
X8152834Y18229582D01*
X8152834Y18229582D02*
X8139977Y18255296D01*
X8139977Y18255296D02*
X8139977Y18281010D01*
X8139977Y18281010D02*
X8152834Y18306724D01*
X8152834Y18306724D02*
X8165692Y18319582D01*
X8165692Y18319582D02*
X8191406Y18332439D01*
X8191406Y18332439D02*
X8242834Y18345296D01*
X8242834Y18345296D02*
X8268549Y18358153D01*
X8268549Y18358153D02*
X8281406Y18371010D01*
X8281406Y18371010D02*
X8294263Y18396724D01*
X8294263Y18396724D02*
X8294263Y18422439D01*
X8294263Y18422439D02*
X8281406Y18448153D01*
X8281406Y18448153D02*
X8268549Y18461010D01*
X8268549Y18461010D02*
X8242834Y18473867D01*
X8242834Y18473867D02*
X8178549Y18473867D01*
X8178549Y18473867D02*
X8139977Y18461010D01*
X16680713Y7956603D02*
X16770713Y8085175D01*
X16834999Y7956603D02*
X16834999Y8226603D01*
X16834999Y8226603D02*
X16732142Y8226603D01*
X16732142Y8226603D02*
X16706427Y8213746D01*
X16706427Y8213746D02*
X16693570Y8200889D01*
X16693570Y8200889D02*
X16680713Y8175175D01*
X16680713Y8175175D02*
X16680713Y8136603D01*
X16680713Y8136603D02*
X16693570Y8110889D01*
X16693570Y8110889D02*
X16706427Y8098032D01*
X16706427Y8098032D02*
X16732142Y8085175D01*
X16732142Y8085175D02*
X16834999Y8085175D01*
X16564999Y7956603D02*
X16564999Y8226603D01*
X17250714Y9236603D02*
X17250714Y9506603D01*
X17250714Y9506603D02*
X17186428Y9506603D01*
X17186428Y9506603D02*
X17147857Y9493746D01*
X17147857Y9493746D02*
X17122142Y9468032D01*
X17122142Y9468032D02*
X17109285Y9442318D01*
X17109285Y9442318D02*
X17096428Y9390889D01*
X17096428Y9390889D02*
X17096428Y9352318D01*
X17096428Y9352318D02*
X17109285Y9300889D01*
X17109285Y9300889D02*
X17122142Y9275175D01*
X17122142Y9275175D02*
X17147857Y9249460D01*
X17147857Y9249460D02*
X17186428Y9236603D01*
X17186428Y9236603D02*
X17250714Y9236603D01*
X16826428Y9262318D02*
X16839285Y9249460D01*
X16839285Y9249460D02*
X16877857Y9236603D01*
X16877857Y9236603D02*
X16903571Y9236603D01*
X16903571Y9236603D02*
X16942142Y9249460D01*
X16942142Y9249460D02*
X16967857Y9275175D01*
X16967857Y9275175D02*
X16980714Y9300889D01*
X16980714Y9300889D02*
X16993571Y9352318D01*
X16993571Y9352318D02*
X16993571Y9390889D01*
X16993571Y9390889D02*
X16980714Y9442318D01*
X16980714Y9442318D02*
X16967857Y9468032D01*
X16967857Y9468032D02*
X16942142Y9493746D01*
X16942142Y9493746D02*
X16903571Y9506603D01*
X16903571Y9506603D02*
X16877857Y9506603D01*
X16877857Y9506603D02*
X16839285Y9493746D01*
X16839285Y9493746D02*
X16826428Y9480889D01*
X16710714Y9236603D02*
X16710714Y9506603D01*
X16710714Y9506603D02*
X16646428Y9506603D01*
X16646428Y9506603D02*
X16607857Y9493746D01*
X16607857Y9493746D02*
X16582142Y9468032D01*
X16582142Y9468032D02*
X16569285Y9442318D01*
X16569285Y9442318D02*
X16556428Y9390889D01*
X16556428Y9390889D02*
X16556428Y9352318D01*
X16556428Y9352318D02*
X16569285Y9300889D01*
X16569285Y9300889D02*
X16582142Y9275175D01*
X16582142Y9275175D02*
X16607857Y9249460D01*
X16607857Y9249460D02*
X16646428Y9236603D01*
X16646428Y9236603D02*
X16710714Y9236603D01*
X17198571Y10506603D02*
X17198571Y10776603D01*
X17198571Y10776603D02*
X17134285Y10776603D01*
X17134285Y10776603D02*
X17095714Y10763746D01*
X17095714Y10763746D02*
X17069999Y10738032D01*
X17069999Y10738032D02*
X17057142Y10712318D01*
X17057142Y10712318D02*
X17044285Y10660889D01*
X17044285Y10660889D02*
X17044285Y10622318D01*
X17044285Y10622318D02*
X17057142Y10570889D01*
X17057142Y10570889D02*
X17069999Y10545175D01*
X17069999Y10545175D02*
X17095714Y10519460D01*
X17095714Y10519460D02*
X17134285Y10506603D01*
X17134285Y10506603D02*
X17198571Y10506603D01*
X16967142Y10776603D02*
X16812857Y10776603D01*
X16889999Y10506603D02*
X16889999Y10776603D01*
X16568571Y10506603D02*
X16658571Y10635175D01*
X16722857Y10506603D02*
X16722857Y10776603D01*
X16722857Y10776603D02*
X16620000Y10776603D01*
X16620000Y10776603D02*
X16594285Y10763746D01*
X16594285Y10763746D02*
X16581428Y10750889D01*
X16581428Y10750889D02*
X16568571Y10725175D01*
X16568571Y10725175D02*
X16568571Y10686603D01*
X16568571Y10686603D02*
X16581428Y10660889D01*
X16581428Y10660889D02*
X16594285Y10648032D01*
X16594285Y10648032D02*
X16620000Y10635175D01*
X16620000Y10635175D02*
X16722857Y10635175D01*
D11*
X39630000Y3084642D02*
X39540000Y3084642D01*
X39501428Y2943213D02*
X39630000Y2943213D01*
X39630000Y2943213D02*
X39630000Y3213213D01*
X39630000Y3213213D02*
X39501428Y3213213D01*
X39398571Y2956070D02*
X39360000Y2943213D01*
X39360000Y2943213D02*
X39295714Y2943213D01*
X39295714Y2943213D02*
X39270000Y2956070D01*
X39270000Y2956070D02*
X39257142Y2968928D01*
X39257142Y2968928D02*
X39244285Y2994642D01*
X39244285Y2994642D02*
X39244285Y3020356D01*
X39244285Y3020356D02*
X39257142Y3046070D01*
X39257142Y3046070D02*
X39270000Y3058928D01*
X39270000Y3058928D02*
X39295714Y3071785D01*
X39295714Y3071785D02*
X39347142Y3084642D01*
X39347142Y3084642D02*
X39372857Y3097499D01*
X39372857Y3097499D02*
X39385714Y3110356D01*
X39385714Y3110356D02*
X39398571Y3136070D01*
X39398571Y3136070D02*
X39398571Y3161785D01*
X39398571Y3161785D02*
X39385714Y3187499D01*
X39385714Y3187499D02*
X39372857Y3200356D01*
X39372857Y3200356D02*
X39347142Y3213213D01*
X39347142Y3213213D02*
X39282857Y3213213D01*
X39282857Y3213213D02*
X39244285Y3200356D01*
X39128571Y2943213D02*
X39128571Y3213213D01*
X39128571Y3213213D02*
X39025714Y3213213D01*
X39025714Y3213213D02*
X38999999Y3200356D01*
X38999999Y3200356D02*
X38987142Y3187499D01*
X38987142Y3187499D02*
X38974285Y3161785D01*
X38974285Y3161785D02*
X38974285Y3123213D01*
X38974285Y3123213D02*
X38987142Y3097499D01*
X38987142Y3097499D02*
X38999999Y3084642D01*
X38999999Y3084642D02*
X39025714Y3071785D01*
X39025714Y3071785D02*
X39128571Y3071785D01*
X38922857Y2917499D02*
X38717142Y2917499D01*
X38562857Y3084642D02*
X38524285Y3071785D01*
X38524285Y3071785D02*
X38511428Y3058928D01*
X38511428Y3058928D02*
X38498571Y3033213D01*
X38498571Y3033213D02*
X38498571Y2994642D01*
X38498571Y2994642D02*
X38511428Y2968928D01*
X38511428Y2968928D02*
X38524285Y2956070D01*
X38524285Y2956070D02*
X38550000Y2943213D01*
X38550000Y2943213D02*
X38652857Y2943213D01*
X38652857Y2943213D02*
X38652857Y3213213D01*
X38652857Y3213213D02*
X38562857Y3213213D01*
X38562857Y3213213D02*
X38537143Y3200356D01*
X38537143Y3200356D02*
X38524285Y3187499D01*
X38524285Y3187499D02*
X38511428Y3161785D01*
X38511428Y3161785D02*
X38511428Y3136070D01*
X38511428Y3136070D02*
X38524285Y3110356D01*
X38524285Y3110356D02*
X38537143Y3097499D01*
X38537143Y3097499D02*
X38562857Y3084642D01*
X38562857Y3084642D02*
X38652857Y3084642D01*
X38331428Y3213213D02*
X38280000Y3213213D01*
X38280000Y3213213D02*
X38254285Y3200356D01*
X38254285Y3200356D02*
X38228571Y3174642D01*
X38228571Y3174642D02*
X38215714Y3123213D01*
X38215714Y3123213D02*
X38215714Y3033213D01*
X38215714Y3033213D02*
X38228571Y2981785D01*
X38228571Y2981785D02*
X38254285Y2956070D01*
X38254285Y2956070D02*
X38280000Y2943213D01*
X38280000Y2943213D02*
X38331428Y2943213D01*
X38331428Y2943213D02*
X38357143Y2956070D01*
X38357143Y2956070D02*
X38382857Y2981785D01*
X38382857Y2981785D02*
X38395714Y3033213D01*
X38395714Y3033213D02*
X38395714Y3123213D01*
X38395714Y3123213D02*
X38382857Y3174642D01*
X38382857Y3174642D02*
X38357143Y3200356D01*
X38357143Y3200356D02*
X38331428Y3213213D01*
X38048571Y3213213D02*
X37997143Y3213213D01*
X37997143Y3213213D02*
X37971428Y3200356D01*
X37971428Y3200356D02*
X37945714Y3174642D01*
X37945714Y3174642D02*
X37932857Y3123213D01*
X37932857Y3123213D02*
X37932857Y3033213D01*
X37932857Y3033213D02*
X37945714Y2981785D01*
X37945714Y2981785D02*
X37971428Y2956070D01*
X37971428Y2956070D02*
X37997143Y2943213D01*
X37997143Y2943213D02*
X38048571Y2943213D01*
X38048571Y2943213D02*
X38074286Y2956070D01*
X38074286Y2956070D02*
X38100000Y2981785D01*
X38100000Y2981785D02*
X38112857Y3033213D01*
X38112857Y3033213D02*
X38112857Y3123213D01*
X38112857Y3123213D02*
X38100000Y3174642D01*
X38100000Y3174642D02*
X38074286Y3200356D01*
X38074286Y3200356D02*
X38048571Y3213213D01*
X37855714Y3213213D02*
X37701429Y3213213D01*
X37778571Y2943213D02*
X37778571Y3213213D01*
D10*
X39534164Y2081553D02*
X39534164Y1888696D01*
X39534164Y1888696D02*
X39547021Y1850125D01*
X39547021Y1850125D02*
X39572735Y1824410D01*
X39572735Y1824410D02*
X39611307Y1811553D01*
X39611307Y1811553D02*
X39637021Y1811553D01*
X39405593Y1811553D02*
X39405593Y2081553D01*
X39405593Y2081553D02*
X39302736Y2081553D01*
X39302736Y2081553D02*
X39277021Y2068696D01*
X39277021Y2068696D02*
X39264164Y2055839D01*
X39264164Y2055839D02*
X39251307Y2030125D01*
X39251307Y2030125D02*
X39251307Y1991553D01*
X39251307Y1991553D02*
X39264164Y1965839D01*
X39264164Y1965839D02*
X39277021Y1952982D01*
X39277021Y1952982D02*
X39302736Y1940125D01*
X39302736Y1940125D02*
X39405593Y1940125D01*
X39019879Y1991553D02*
X39019879Y1811553D01*
X39084164Y2094410D02*
X39148450Y1901553D01*
X39148450Y1901553D02*
X38981307Y1901553D01*
D11*
X39485714Y19234642D02*
X39395714Y19234642D01*
X39357142Y19093213D02*
X39485714Y19093213D01*
X39485714Y19093213D02*
X39485714Y19363213D01*
X39485714Y19363213D02*
X39357142Y19363213D01*
X39254285Y19106070D02*
X39215714Y19093213D01*
X39215714Y19093213D02*
X39151428Y19093213D01*
X39151428Y19093213D02*
X39125714Y19106070D01*
X39125714Y19106070D02*
X39112856Y19118928D01*
X39112856Y19118928D02*
X39099999Y19144642D01*
X39099999Y19144642D02*
X39099999Y19170356D01*
X39099999Y19170356D02*
X39112856Y19196070D01*
X39112856Y19196070D02*
X39125714Y19208928D01*
X39125714Y19208928D02*
X39151428Y19221785D01*
X39151428Y19221785D02*
X39202856Y19234642D01*
X39202856Y19234642D02*
X39228571Y19247499D01*
X39228571Y19247499D02*
X39241428Y19260356D01*
X39241428Y19260356D02*
X39254285Y19286070D01*
X39254285Y19286070D02*
X39254285Y19311785D01*
X39254285Y19311785D02*
X39241428Y19337499D01*
X39241428Y19337499D02*
X39228571Y19350356D01*
X39228571Y19350356D02*
X39202856Y19363213D01*
X39202856Y19363213D02*
X39138571Y19363213D01*
X39138571Y19363213D02*
X39099999Y19350356D01*
X38984285Y19093213D02*
X38984285Y19363213D01*
X38984285Y19363213D02*
X38881428Y19363213D01*
X38881428Y19363213D02*
X38855713Y19350356D01*
X38855713Y19350356D02*
X38842856Y19337499D01*
X38842856Y19337499D02*
X38829999Y19311785D01*
X38829999Y19311785D02*
X38829999Y19273213D01*
X38829999Y19273213D02*
X38842856Y19247499D01*
X38842856Y19247499D02*
X38855713Y19234642D01*
X38855713Y19234642D02*
X38881428Y19221785D01*
X38881428Y19221785D02*
X38984285Y19221785D01*
X38778571Y19067499D02*
X38572856Y19067499D01*
X38354285Y19093213D02*
X38444285Y19221785D01*
X38508571Y19093213D02*
X38508571Y19363213D01*
X38508571Y19363213D02*
X38405714Y19363213D01*
X38405714Y19363213D02*
X38379999Y19350356D01*
X38379999Y19350356D02*
X38367142Y19337499D01*
X38367142Y19337499D02*
X38354285Y19311785D01*
X38354285Y19311785D02*
X38354285Y19273213D01*
X38354285Y19273213D02*
X38367142Y19247499D01*
X38367142Y19247499D02*
X38379999Y19234642D01*
X38379999Y19234642D02*
X38405714Y19221785D01*
X38405714Y19221785D02*
X38508571Y19221785D01*
X38251428Y19106070D02*
X38212857Y19093213D01*
X38212857Y19093213D02*
X38148571Y19093213D01*
X38148571Y19093213D02*
X38122857Y19106070D01*
X38122857Y19106070D02*
X38109999Y19118928D01*
X38109999Y19118928D02*
X38097142Y19144642D01*
X38097142Y19144642D02*
X38097142Y19170356D01*
X38097142Y19170356D02*
X38109999Y19196070D01*
X38109999Y19196070D02*
X38122857Y19208928D01*
X38122857Y19208928D02*
X38148571Y19221785D01*
X38148571Y19221785D02*
X38199999Y19234642D01*
X38199999Y19234642D02*
X38225714Y19247499D01*
X38225714Y19247499D02*
X38238571Y19260356D01*
X38238571Y19260356D02*
X38251428Y19286070D01*
X38251428Y19286070D02*
X38251428Y19311785D01*
X38251428Y19311785D02*
X38238571Y19337499D01*
X38238571Y19337499D02*
X38225714Y19350356D01*
X38225714Y19350356D02*
X38199999Y19363213D01*
X38199999Y19363213D02*
X38135714Y19363213D01*
X38135714Y19363213D02*
X38097142Y19350356D01*
X38019999Y19363213D02*
X37865714Y19363213D01*
X37942856Y19093213D02*
X37942856Y19363213D01*
D10*
X39579164Y18236553D02*
X39579164Y18043696D01*
X39579164Y18043696D02*
X39592021Y18005125D01*
X39592021Y18005125D02*
X39617735Y17979410D01*
X39617735Y17979410D02*
X39656307Y17966553D01*
X39656307Y17966553D02*
X39682021Y17966553D01*
X39450593Y17966553D02*
X39450593Y18236553D01*
X39450593Y18236553D02*
X39347736Y18236553D01*
X39347736Y18236553D02*
X39322021Y18223696D01*
X39322021Y18223696D02*
X39309164Y18210839D01*
X39309164Y18210839D02*
X39296307Y18185125D01*
X39296307Y18185125D02*
X39296307Y18146553D01*
X39296307Y18146553D02*
X39309164Y18120839D01*
X39309164Y18120839D02*
X39322021Y18107982D01*
X39322021Y18107982D02*
X39347736Y18095125D01*
X39347736Y18095125D02*
X39450593Y18095125D01*
X39206307Y18236553D02*
X39039164Y18236553D01*
X39039164Y18236553D02*
X39129164Y18133696D01*
X39129164Y18133696D02*
X39090593Y18133696D01*
X39090593Y18133696D02*
X39064879Y18120839D01*
X39064879Y18120839D02*
X39052021Y18107982D01*
X39052021Y18107982D02*
X39039164Y18082268D01*
X39039164Y18082268D02*
X39039164Y18017982D01*
X39039164Y18017982D02*
X39052021Y17992268D01*
X39052021Y17992268D02*
X39064879Y17979410D01*
X39064879Y17979410D02*
X39090593Y17966553D01*
X39090593Y17966553D02*
X39167736Y17966553D01*
X39167736Y17966553D02*
X39193450Y17979410D01*
X39193450Y17979410D02*
X39206307Y17992268D01*
D11*
X17726427Y17003213D02*
X17726427Y17273213D01*
X17726427Y17273213D02*
X17623570Y17273213D01*
X17623570Y17273213D02*
X17597855Y17260356D01*
X17597855Y17260356D02*
X17584998Y17247499D01*
X17584998Y17247499D02*
X17572141Y17221785D01*
X17572141Y17221785D02*
X17572141Y17183213D01*
X17572141Y17183213D02*
X17584998Y17157499D01*
X17584998Y17157499D02*
X17597855Y17144642D01*
X17597855Y17144642D02*
X17623570Y17131785D01*
X17623570Y17131785D02*
X17726427Y17131785D01*
X17404998Y17273213D02*
X17353570Y17273213D01*
X17353570Y17273213D02*
X17327855Y17260356D01*
X17327855Y17260356D02*
X17302141Y17234642D01*
X17302141Y17234642D02*
X17289284Y17183213D01*
X17289284Y17183213D02*
X17289284Y17093213D01*
X17289284Y17093213D02*
X17302141Y17041785D01*
X17302141Y17041785D02*
X17327855Y17016070D01*
X17327855Y17016070D02*
X17353570Y17003213D01*
X17353570Y17003213D02*
X17404998Y17003213D01*
X17404998Y17003213D02*
X17430713Y17016070D01*
X17430713Y17016070D02*
X17456427Y17041785D01*
X17456427Y17041785D02*
X17469284Y17093213D01*
X17469284Y17093213D02*
X17469284Y17183213D01*
X17469284Y17183213D02*
X17456427Y17234642D01*
X17456427Y17234642D02*
X17430713Y17260356D01*
X17430713Y17260356D02*
X17404998Y17273213D01*
X17199284Y17273213D02*
X17134998Y17003213D01*
X17134998Y17003213D02*
X17083570Y17196070D01*
X17083570Y17196070D02*
X17032141Y17003213D01*
X17032141Y17003213D02*
X16967856Y17273213D01*
X16929285Y16977499D02*
X16723570Y16977499D01*
X16504999Y17028928D02*
X16517856Y17016070D01*
X16517856Y17016070D02*
X16556428Y17003213D01*
X16556428Y17003213D02*
X16582142Y17003213D01*
X16582142Y17003213D02*
X16620713Y17016070D01*
X16620713Y17016070D02*
X16646428Y17041785D01*
X16646428Y17041785D02*
X16659285Y17067499D01*
X16659285Y17067499D02*
X16672142Y17118928D01*
X16672142Y17118928D02*
X16672142Y17157499D01*
X16672142Y17157499D02*
X16659285Y17208928D01*
X16659285Y17208928D02*
X16646428Y17234642D01*
X16646428Y17234642D02*
X16620713Y17260356D01*
X16620713Y17260356D02*
X16582142Y17273213D01*
X16582142Y17273213D02*
X16556428Y17273213D01*
X16556428Y17273213D02*
X16517856Y17260356D01*
X16517856Y17260356D02*
X16504999Y17247499D01*
X16427856Y17273213D02*
X16273571Y17273213D01*
X16350713Y17003213D02*
X16350713Y17273213D01*
X16029285Y17003213D02*
X16119285Y17131785D01*
X16183571Y17003213D02*
X16183571Y17273213D01*
X16183571Y17273213D02*
X16080714Y17273213D01*
X16080714Y17273213D02*
X16054999Y17260356D01*
X16054999Y17260356D02*
X16042142Y17247499D01*
X16042142Y17247499D02*
X16029285Y17221785D01*
X16029285Y17221785D02*
X16029285Y17183213D01*
X16029285Y17183213D02*
X16042142Y17157499D01*
X16042142Y17157499D02*
X16054999Y17144642D01*
X16054999Y17144642D02*
X16080714Y17131785D01*
X16080714Y17131785D02*
X16183571Y17131785D01*
X15784999Y17003213D02*
X15913571Y17003213D01*
X15913571Y17003213D02*
X15913571Y17273213D01*
D10*
X17639164Y18381553D02*
X17639164Y18188696D01*
X17639164Y18188696D02*
X17652021Y18150125D01*
X17652021Y18150125D02*
X17677735Y18124410D01*
X17677735Y18124410D02*
X17716307Y18111553D01*
X17716307Y18111553D02*
X17742021Y18111553D01*
X17510593Y18111553D02*
X17510593Y18381553D01*
X17510593Y18381553D02*
X17407736Y18381553D01*
X17407736Y18381553D02*
X17382021Y18368696D01*
X17382021Y18368696D02*
X17369164Y18355839D01*
X17369164Y18355839D02*
X17356307Y18330125D01*
X17356307Y18330125D02*
X17356307Y18291553D01*
X17356307Y18291553D02*
X17369164Y18265839D01*
X17369164Y18265839D02*
X17382021Y18252982D01*
X17382021Y18252982D02*
X17407736Y18240125D01*
X17407736Y18240125D02*
X17510593Y18240125D01*
X17266307Y18381553D02*
X17086307Y18381553D01*
X17086307Y18381553D02*
X17202021Y18111553D01*
D11*
X2317857Y6728213D02*
X2317857Y6509642D01*
X2317857Y6509642D02*
X2305000Y6483928D01*
X2305000Y6483928D02*
X2292143Y6471070D01*
X2292143Y6471070D02*
X2266428Y6458213D01*
X2266428Y6458213D02*
X2215000Y6458213D01*
X2215000Y6458213D02*
X2189285Y6471070D01*
X2189285Y6471070D02*
X2176428Y6483928D01*
X2176428Y6483928D02*
X2163571Y6509642D01*
X2163571Y6509642D02*
X2163571Y6728213D01*
X2047857Y6471070D02*
X2009286Y6458213D01*
X2009286Y6458213D02*
X1945000Y6458213D01*
X1945000Y6458213D02*
X1919286Y6471070D01*
X1919286Y6471070D02*
X1906428Y6483928D01*
X1906428Y6483928D02*
X1893571Y6509642D01*
X1893571Y6509642D02*
X1893571Y6535356D01*
X1893571Y6535356D02*
X1906428Y6561070D01*
X1906428Y6561070D02*
X1919286Y6573928D01*
X1919286Y6573928D02*
X1945000Y6586785D01*
X1945000Y6586785D02*
X1996428Y6599642D01*
X1996428Y6599642D02*
X2022143Y6612499D01*
X2022143Y6612499D02*
X2035000Y6625356D01*
X2035000Y6625356D02*
X2047857Y6651070D01*
X2047857Y6651070D02*
X2047857Y6676785D01*
X2047857Y6676785D02*
X2035000Y6702499D01*
X2035000Y6702499D02*
X2022143Y6715356D01*
X2022143Y6715356D02*
X1996428Y6728213D01*
X1996428Y6728213D02*
X1932143Y6728213D01*
X1932143Y6728213D02*
X1893571Y6715356D01*
X1687857Y6599642D02*
X1649285Y6586785D01*
X1649285Y6586785D02*
X1636428Y6573928D01*
X1636428Y6573928D02*
X1623571Y6548213D01*
X1623571Y6548213D02*
X1623571Y6509642D01*
X1623571Y6509642D02*
X1636428Y6483928D01*
X1636428Y6483928D02*
X1649285Y6471070D01*
X1649285Y6471070D02*
X1675000Y6458213D01*
X1675000Y6458213D02*
X1777857Y6458213D01*
X1777857Y6458213D02*
X1777857Y6728213D01*
X1777857Y6728213D02*
X1687857Y6728213D01*
X1687857Y6728213D02*
X1662143Y6715356D01*
X1662143Y6715356D02*
X1649285Y6702499D01*
X1649285Y6702499D02*
X1636428Y6676785D01*
X1636428Y6676785D02*
X1636428Y6651070D01*
X1636428Y6651070D02*
X1649285Y6625356D01*
X1649285Y6625356D02*
X1662143Y6612499D01*
X1662143Y6612499D02*
X1687857Y6599642D01*
X1687857Y6599642D02*
X1777857Y6599642D01*
X1572143Y6432499D02*
X1366428Y6432499D01*
X1302143Y6458213D02*
X1302143Y6728213D01*
X1302143Y6728213D02*
X1199286Y6728213D01*
X1199286Y6728213D02*
X1173571Y6715356D01*
X1173571Y6715356D02*
X1160714Y6702499D01*
X1160714Y6702499D02*
X1147857Y6676785D01*
X1147857Y6676785D02*
X1147857Y6638213D01*
X1147857Y6638213D02*
X1160714Y6612499D01*
X1160714Y6612499D02*
X1173571Y6599642D01*
X1173571Y6599642D02*
X1199286Y6586785D01*
X1199286Y6586785D02*
X1302143Y6586785D01*
X1045000Y6535356D02*
X916429Y6535356D01*
X1070714Y6458213D02*
X980714Y6728213D01*
X980714Y6728213D02*
X890714Y6458213D01*
X800714Y6458213D02*
X800714Y6728213D01*
X800714Y6728213D02*
X736428Y6728213D01*
X736428Y6728213D02*
X697857Y6715356D01*
X697857Y6715356D02*
X672142Y6689642D01*
X672142Y6689642D02*
X659285Y6663928D01*
X659285Y6663928D02*
X646428Y6612499D01*
X646428Y6612499D02*
X646428Y6573928D01*
X646428Y6573928D02*
X659285Y6522499D01*
X659285Y6522499D02*
X672142Y6496785D01*
X672142Y6496785D02*
X697857Y6471070D01*
X697857Y6471070D02*
X736428Y6458213D01*
X736428Y6458213D02*
X800714Y6458213D01*
X543571Y6471070D02*
X505000Y6458213D01*
X505000Y6458213D02*
X440714Y6458213D01*
X440714Y6458213D02*
X415000Y6471070D01*
X415000Y6471070D02*
X402142Y6483928D01*
X402142Y6483928D02*
X389285Y6509642D01*
X389285Y6509642D02*
X389285Y6535356D01*
X389285Y6535356D02*
X402142Y6561070D01*
X402142Y6561070D02*
X415000Y6573928D01*
X415000Y6573928D02*
X440714Y6586785D01*
X440714Y6586785D02*
X492142Y6599642D01*
X492142Y6599642D02*
X517857Y6612499D01*
X517857Y6612499D02*
X530714Y6625356D01*
X530714Y6625356D02*
X543571Y6651070D01*
X543571Y6651070D02*
X543571Y6676785D01*
X543571Y6676785D02*
X530714Y6702499D01*
X530714Y6702499D02*
X517857Y6715356D01*
X517857Y6715356D02*
X492142Y6728213D01*
X492142Y6728213D02*
X427857Y6728213D01*
X427857Y6728213D02*
X389285Y6715356D01*
X1469999Y10938213D02*
X1469999Y10745356D01*
X1469999Y10745356D02*
X1482856Y10706785D01*
X1482856Y10706785D02*
X1508570Y10681070D01*
X1508570Y10681070D02*
X1547142Y10668213D01*
X1547142Y10668213D02*
X1572856Y10668213D01*
X1225714Y10848213D02*
X1225714Y10668213D01*
X1289999Y10951070D02*
X1354285Y10758213D01*
X1354285Y10758213D02*
X1187142Y10758213D01*
D10*
X7504977Y18446811D02*
X7414977Y18176811D01*
X7414977Y18176811D02*
X7324977Y18446811D01*
X7144977Y18318240D02*
X7106405Y18305383D01*
X7106405Y18305383D02*
X7093548Y18292526D01*
X7093548Y18292526D02*
X7080691Y18266811D01*
X7080691Y18266811D02*
X7080691Y18228240D01*
X7080691Y18228240D02*
X7093548Y18202526D01*
X7093548Y18202526D02*
X7106405Y18189668D01*
X7106405Y18189668D02*
X7132120Y18176811D01*
X7132120Y18176811D02*
X7234977Y18176811D01*
X7234977Y18176811D02*
X7234977Y18446811D01*
X7234977Y18446811D02*
X7144977Y18446811D01*
X7144977Y18446811D02*
X7119263Y18433954D01*
X7119263Y18433954D02*
X7106405Y18421097D01*
X7106405Y18421097D02*
X7093548Y18395383D01*
X7093548Y18395383D02*
X7093548Y18369668D01*
X7093548Y18369668D02*
X7106405Y18343954D01*
X7106405Y18343954D02*
X7119263Y18331097D01*
X7119263Y18331097D02*
X7144977Y18318240D01*
X7144977Y18318240D02*
X7234977Y18318240D01*
X6964977Y18446811D02*
X6964977Y18228240D01*
X6964977Y18228240D02*
X6952120Y18202526D01*
X6952120Y18202526D02*
X6939263Y18189668D01*
X6939263Y18189668D02*
X6913548Y18176811D01*
X6913548Y18176811D02*
X6862120Y18176811D01*
X6862120Y18176811D02*
X6836405Y18189668D01*
X6836405Y18189668D02*
X6823548Y18202526D01*
X6823548Y18202526D02*
X6810691Y18228240D01*
X6810691Y18228240D02*
X6810691Y18446811D01*
X6694977Y18189668D02*
X6656406Y18176811D01*
X6656406Y18176811D02*
X6592120Y18176811D01*
X6592120Y18176811D02*
X6566406Y18189668D01*
X6566406Y18189668D02*
X6553548Y18202526D01*
X6553548Y18202526D02*
X6540691Y18228240D01*
X6540691Y18228240D02*
X6540691Y18253954D01*
X6540691Y18253954D02*
X6553548Y18279668D01*
X6553548Y18279668D02*
X6566406Y18292526D01*
X6566406Y18292526D02*
X6592120Y18305383D01*
X6592120Y18305383D02*
X6643548Y18318240D01*
X6643548Y18318240D02*
X6669263Y18331097D01*
X6669263Y18331097D02*
X6682120Y18343954D01*
X6682120Y18343954D02*
X6694977Y18369668D01*
X6694977Y18369668D02*
X6694977Y18395383D01*
X6694977Y18395383D02*
X6682120Y18421097D01*
X6682120Y18421097D02*
X6669263Y18433954D01*
X6669263Y18433954D02*
X6643548Y18446811D01*
X6643548Y18446811D02*
X6579263Y18446811D01*
X6579263Y18446811D02*
X6540691Y18433954D01*
X6489263Y18151097D02*
X6283548Y18151097D01*
X6090691Y18176811D02*
X6219263Y18176811D01*
X6219263Y18176811D02*
X6219263Y18446811D01*
X6000692Y18318240D02*
X5910692Y18318240D01*
X5872120Y18176811D02*
X6000692Y18176811D01*
X6000692Y18176811D02*
X6000692Y18446811D01*
X6000692Y18446811D02*
X5872120Y18446811D01*
X5756406Y18176811D02*
X5756406Y18446811D01*
X5756406Y18446811D02*
X5692120Y18446811D01*
X5692120Y18446811D02*
X5653549Y18433954D01*
X5653549Y18433954D02*
X5627834Y18408240D01*
X5627834Y18408240D02*
X5614977Y18382526D01*
X5614977Y18382526D02*
X5602120Y18331097D01*
X5602120Y18331097D02*
X5602120Y18292526D01*
X5602120Y18292526D02*
X5614977Y18241097D01*
X5614977Y18241097D02*
X5627834Y18215383D01*
X5627834Y18215383D02*
X5653549Y18189668D01*
X5653549Y18189668D02*
X5692120Y18176811D01*
X5692120Y18176811D02*
X5756406Y18176811D01*
X5550692Y18151097D02*
X5344977Y18151097D01*
X5139263Y18176811D02*
X5293549Y18176811D01*
X5216406Y18176811D02*
X5216406Y18446811D01*
X5216406Y18446811D02*
X5242120Y18408240D01*
X5242120Y18408240D02*
X5267835Y18382526D01*
X5267835Y18382526D02*
X5293549Y18369668D01*
D11*
X43192857Y10055479D02*
X43092857Y10055479D01*
X43050000Y9898336D02*
X43192857Y9898336D01*
X43192857Y9898336D02*
X43192857Y10198336D01*
X43192857Y10198336D02*
X43050000Y10198336D01*
X42935714Y9912621D02*
X42892857Y9898336D01*
X42892857Y9898336D02*
X42821428Y9898336D01*
X42821428Y9898336D02*
X42792857Y9912621D01*
X42792857Y9912621D02*
X42778571Y9926907D01*
X42778571Y9926907D02*
X42764285Y9955479D01*
X42764285Y9955479D02*
X42764285Y9984050D01*
X42764285Y9984050D02*
X42778571Y10012621D01*
X42778571Y10012621D02*
X42792857Y10026907D01*
X42792857Y10026907D02*
X42821428Y10041193D01*
X42821428Y10041193D02*
X42878571Y10055479D01*
X42878571Y10055479D02*
X42907142Y10069764D01*
X42907142Y10069764D02*
X42921428Y10084050D01*
X42921428Y10084050D02*
X42935714Y10112621D01*
X42935714Y10112621D02*
X42935714Y10141193D01*
X42935714Y10141193D02*
X42921428Y10169764D01*
X42921428Y10169764D02*
X42907142Y10184050D01*
X42907142Y10184050D02*
X42878571Y10198336D01*
X42878571Y10198336D02*
X42807142Y10198336D01*
X42807142Y10198336D02*
X42764285Y10184050D01*
X42635714Y9898336D02*
X42635714Y10198336D01*
X42635714Y10198336D02*
X42521428Y10198336D01*
X42521428Y10198336D02*
X42492857Y10184050D01*
X42492857Y10184050D02*
X42478571Y10169764D01*
X42478571Y10169764D02*
X42464285Y10141193D01*
X42464285Y10141193D02*
X42464285Y10098336D01*
X42464285Y10098336D02*
X42478571Y10069764D01*
X42478571Y10069764D02*
X42492857Y10055479D01*
X42492857Y10055479D02*
X42521428Y10041193D01*
X42521428Y10041193D02*
X42635714Y10041193D01*
X42407143Y9869764D02*
X42178571Y9869764D01*
X41935714Y9926907D02*
X41950000Y9912621D01*
X41950000Y9912621D02*
X41992857Y9898336D01*
X41992857Y9898336D02*
X42021429Y9898336D01*
X42021429Y9898336D02*
X42064286Y9912621D01*
X42064286Y9912621D02*
X42092857Y9941193D01*
X42092857Y9941193D02*
X42107143Y9969764D01*
X42107143Y9969764D02*
X42121429Y10026907D01*
X42121429Y10026907D02*
X42121429Y10069764D01*
X42121429Y10069764D02*
X42107143Y10126907D01*
X42107143Y10126907D02*
X42092857Y10155479D01*
X42092857Y10155479D02*
X42064286Y10184050D01*
X42064286Y10184050D02*
X42021429Y10198336D01*
X42021429Y10198336D02*
X41992857Y10198336D01*
X41992857Y10198336D02*
X41950000Y10184050D01*
X41950000Y10184050D02*
X41935714Y10169764D01*
X41750000Y10198336D02*
X41692857Y10198336D01*
X41692857Y10198336D02*
X41664286Y10184050D01*
X41664286Y10184050D02*
X41635714Y10155479D01*
X41635714Y10155479D02*
X41621429Y10098336D01*
X41621429Y10098336D02*
X41621429Y9998336D01*
X41621429Y9998336D02*
X41635714Y9941193D01*
X41635714Y9941193D02*
X41664286Y9912621D01*
X41664286Y9912621D02*
X41692857Y9898336D01*
X41692857Y9898336D02*
X41750000Y9898336D01*
X41750000Y9898336D02*
X41778572Y9912621D01*
X41778572Y9912621D02*
X41807143Y9941193D01*
X41807143Y9941193D02*
X41821429Y9998336D01*
X41821429Y9998336D02*
X41821429Y10098336D01*
X41821429Y10098336D02*
X41807143Y10155479D01*
X41807143Y10155479D02*
X41778572Y10184050D01*
X41778572Y10184050D02*
X41750000Y10198336D01*
X41492857Y9898336D02*
X41492857Y10198336D01*
X41492857Y10198336D02*
X41321428Y9898336D01*
X41321428Y9898336D02*
X41321428Y10198336D01*
X41178571Y9898336D02*
X41178571Y10198336D01*
X41178571Y10198336D02*
X41007142Y9898336D01*
X41007142Y9898336D02*
X41007142Y10198336D01*
X42195999Y11550335D02*
X42195999Y11336049D01*
X42195999Y11336049D02*
X42210284Y11293192D01*
X42210284Y11293192D02*
X42238856Y11264620D01*
X42238856Y11264620D02*
X42281713Y11250335D01*
X42281713Y11250335D02*
X42310284Y11250335D01*
X42067428Y11521763D02*
X42053142Y11536049D01*
X42053142Y11536049D02*
X42024571Y11550335D01*
X42024571Y11550335D02*
X41953142Y11550335D01*
X41953142Y11550335D02*
X41924571Y11536049D01*
X41924571Y11536049D02*
X41910285Y11521763D01*
X41910285Y11521763D02*
X41895999Y11493192D01*
X41895999Y11493192D02*
X41895999Y11464620D01*
X41895999Y11464620D02*
X41910285Y11421763D01*
X41910285Y11421763D02*
X42081713Y11250335D01*
X42081713Y11250335D02*
X41895999Y11250335D01*
X32702163Y12568127D02*
X32530735Y12568127D01*
X32616449Y12268127D02*
X32616449Y12568127D01*
X32430735Y12268127D02*
X32430735Y12568127D01*
X32430735Y12568127D02*
X32316449Y12568127D01*
X32316449Y12568127D02*
X32287878Y12553841D01*
X32287878Y12553841D02*
X32273592Y12539555D01*
X32273592Y12539555D02*
X32259306Y12510984D01*
X32259306Y12510984D02*
X32259306Y12468127D01*
X32259306Y12468127D02*
X32273592Y12439555D01*
X32273592Y12439555D02*
X32287878Y12425270D01*
X32287878Y12425270D02*
X32316449Y12410984D01*
X32316449Y12410984D02*
X32430735Y12410984D01*
X31973592Y12268127D02*
X32145021Y12268127D01*
X32059306Y12268127D02*
X32059306Y12568127D01*
X32059306Y12568127D02*
X32087878Y12525270D01*
X32087878Y12525270D02*
X32116449Y12496698D01*
X32116449Y12496698D02*
X32145021Y12482412D01*
X31687878Y12268127D02*
X31859307Y12268127D01*
X31773592Y12268127D02*
X31773592Y12568127D01*
X31773592Y12568127D02*
X31802164Y12525270D01*
X31802164Y12525270D02*
X31830735Y12496698D01*
X31830735Y12496698D02*
X31859307Y12482412D01*
X31670735Y13273270D02*
X31570735Y13273270D01*
X31527878Y13116127D02*
X31670735Y13116127D01*
X31670735Y13116127D02*
X31670735Y13416127D01*
X31670735Y13416127D02*
X31527878Y13416127D01*
X31413592Y13130412D02*
X31370735Y13116127D01*
X31370735Y13116127D02*
X31299306Y13116127D01*
X31299306Y13116127D02*
X31270735Y13130412D01*
X31270735Y13130412D02*
X31256449Y13144698D01*
X31256449Y13144698D02*
X31242163Y13173270D01*
X31242163Y13173270D02*
X31242163Y13201841D01*
X31242163Y13201841D02*
X31256449Y13230412D01*
X31256449Y13230412D02*
X31270735Y13244698D01*
X31270735Y13244698D02*
X31299306Y13258984D01*
X31299306Y13258984D02*
X31356449Y13273270D01*
X31356449Y13273270D02*
X31385020Y13287555D01*
X31385020Y13287555D02*
X31399306Y13301841D01*
X31399306Y13301841D02*
X31413592Y13330412D01*
X31413592Y13330412D02*
X31413592Y13358984D01*
X31413592Y13358984D02*
X31399306Y13387555D01*
X31399306Y13387555D02*
X31385020Y13401841D01*
X31385020Y13401841D02*
X31356449Y13416127D01*
X31356449Y13416127D02*
X31285020Y13416127D01*
X31285020Y13416127D02*
X31242163Y13401841D01*
X31113592Y13116127D02*
X31113592Y13416127D01*
X31113592Y13416127D02*
X30999306Y13416127D01*
X30999306Y13416127D02*
X30970735Y13401841D01*
X30970735Y13401841D02*
X30956449Y13387555D01*
X30956449Y13387555D02*
X30942163Y13358984D01*
X30942163Y13358984D02*
X30942163Y13316127D01*
X30942163Y13316127D02*
X30956449Y13287555D01*
X30956449Y13287555D02*
X30970735Y13273270D01*
X30970735Y13273270D02*
X30999306Y13258984D01*
X30999306Y13258984D02*
X31113592Y13258984D01*
X30885021Y13087555D02*
X30656449Y13087555D01*
X30585021Y13116127D02*
X30585021Y13416127D01*
X30585021Y13416127D02*
X30470735Y13416127D01*
X30470735Y13416127D02*
X30442164Y13401841D01*
X30442164Y13401841D02*
X30427878Y13387555D01*
X30427878Y13387555D02*
X30413592Y13358984D01*
X30413592Y13358984D02*
X30413592Y13316127D01*
X30413592Y13316127D02*
X30427878Y13287555D01*
X30427878Y13287555D02*
X30442164Y13273270D01*
X30442164Y13273270D02*
X30470735Y13258984D01*
X30470735Y13258984D02*
X30585021Y13258984D01*
X30313592Y13416127D02*
X30242164Y13116127D01*
X30242164Y13116127D02*
X30185021Y13330412D01*
X30185021Y13330412D02*
X30127878Y13116127D01*
X30127878Y13116127D02*
X30056450Y13416127D01*
X29770735Y13116127D02*
X29870735Y13258984D01*
X29942164Y13116127D02*
X29942164Y13416127D01*
X29942164Y13416127D02*
X29827878Y13416127D01*
X29827878Y13416127D02*
X29799307Y13401841D01*
X29799307Y13401841D02*
X29785021Y13387555D01*
X29785021Y13387555D02*
X29770735Y13358984D01*
X29770735Y13358984D02*
X29770735Y13316127D01*
X29770735Y13316127D02*
X29785021Y13287555D01*
X29785021Y13287555D02*
X29799307Y13273270D01*
X29799307Y13273270D02*
X29827878Y13258984D01*
X29827878Y13258984D02*
X29942164Y13258984D01*
X29713593Y13087555D02*
X29485021Y13087555D01*
X29256450Y13116127D02*
X29427879Y13116127D01*
X29342164Y13116127D02*
X29342164Y13416127D01*
X29342164Y13416127D02*
X29370736Y13373270D01*
X29370736Y13373270D02*
X29399307Y13344698D01*
X29399307Y13344698D02*
X29427879Y13330412D01*
D10*
X16997856Y5462318D02*
X17010713Y5449460D01*
X17010713Y5449460D02*
X17049285Y5436603D01*
X17049285Y5436603D02*
X17074999Y5436603D01*
X17074999Y5436603D02*
X17113570Y5449460D01*
X17113570Y5449460D02*
X17139285Y5475175D01*
X17139285Y5475175D02*
X17152142Y5500889D01*
X17152142Y5500889D02*
X17164999Y5552318D01*
X17164999Y5552318D02*
X17164999Y5590889D01*
X17164999Y5590889D02*
X17152142Y5642318D01*
X17152142Y5642318D02*
X17139285Y5668032D01*
X17139285Y5668032D02*
X17113570Y5693746D01*
X17113570Y5693746D02*
X17074999Y5706603D01*
X17074999Y5706603D02*
X17049285Y5706603D01*
X17049285Y5706603D02*
X17010713Y5693746D01*
X17010713Y5693746D02*
X16997856Y5680889D01*
X16920713Y5706603D02*
X16766428Y5706603D01*
X16843570Y5436603D02*
X16843570Y5706603D01*
X16689285Y5449460D02*
X16650714Y5436603D01*
X16650714Y5436603D02*
X16586428Y5436603D01*
X16586428Y5436603D02*
X16560714Y5449460D01*
X16560714Y5449460D02*
X16547856Y5462318D01*
X16547856Y5462318D02*
X16534999Y5488032D01*
X16534999Y5488032D02*
X16534999Y5513746D01*
X16534999Y5513746D02*
X16547856Y5539460D01*
X16547856Y5539460D02*
X16560714Y5552318D01*
X16560714Y5552318D02*
X16586428Y5565175D01*
X16586428Y5565175D02*
X16637856Y5578032D01*
X16637856Y5578032D02*
X16663571Y5590889D01*
X16663571Y5590889D02*
X16676428Y5603746D01*
X16676428Y5603746D02*
X16689285Y5629460D01*
X16689285Y5629460D02*
X16689285Y5655175D01*
X16689285Y5655175D02*
X16676428Y5680889D01*
X16676428Y5680889D02*
X16663571Y5693746D01*
X16663571Y5693746D02*
X16637856Y5706603D01*
X16637856Y5706603D02*
X16573571Y5706603D01*
X16573571Y5706603D02*
X16534999Y5693746D01*
X17047856Y11786603D02*
X17137856Y11915175D01*
X17202142Y11786603D02*
X17202142Y12056603D01*
X17202142Y12056603D02*
X17099285Y12056603D01*
X17099285Y12056603D02*
X17073570Y12043746D01*
X17073570Y12043746D02*
X17060713Y12030889D01*
X17060713Y12030889D02*
X17047856Y12005175D01*
X17047856Y12005175D02*
X17047856Y11966603D01*
X17047856Y11966603D02*
X17060713Y11940889D01*
X17060713Y11940889D02*
X17073570Y11928032D01*
X17073570Y11928032D02*
X17099285Y11915175D01*
X17099285Y11915175D02*
X17202142Y11915175D01*
X16970713Y12056603D02*
X16816428Y12056603D01*
X16893570Y11786603D02*
X16893570Y12056603D01*
X16739285Y11799460D02*
X16700714Y11786603D01*
X16700714Y11786603D02*
X16636428Y11786603D01*
X16636428Y11786603D02*
X16610714Y11799460D01*
X16610714Y11799460D02*
X16597856Y11812318D01*
X16597856Y11812318D02*
X16584999Y11838032D01*
X16584999Y11838032D02*
X16584999Y11863746D01*
X16584999Y11863746D02*
X16597856Y11889460D01*
X16597856Y11889460D02*
X16610714Y11902318D01*
X16610714Y11902318D02*
X16636428Y11915175D01*
X16636428Y11915175D02*
X16687856Y11928032D01*
X16687856Y11928032D02*
X16713571Y11940889D01*
X16713571Y11940889D02*
X16726428Y11953746D01*
X16726428Y11953746D02*
X16739285Y11979460D01*
X16739285Y11979460D02*
X16739285Y12005175D01*
X16739285Y12005175D02*
X16726428Y12030889D01*
X16726428Y12030889D02*
X16713571Y12043746D01*
X16713571Y12043746D02*
X16687856Y12056603D01*
X16687856Y12056603D02*
X16623571Y12056603D01*
X16623571Y12056603D02*
X16584999Y12043746D01*
D11*
X34362163Y12558127D02*
X34190735Y12558127D01*
X34276449Y12258127D02*
X34276449Y12558127D01*
X34090735Y12258127D02*
X34090735Y12558127D01*
X34090735Y12558127D02*
X33976449Y12558127D01*
X33976449Y12558127D02*
X33947878Y12543841D01*
X33947878Y12543841D02*
X33933592Y12529555D01*
X33933592Y12529555D02*
X33919306Y12500984D01*
X33919306Y12500984D02*
X33919306Y12458127D01*
X33919306Y12458127D02*
X33933592Y12429555D01*
X33933592Y12429555D02*
X33947878Y12415270D01*
X33947878Y12415270D02*
X33976449Y12400984D01*
X33976449Y12400984D02*
X34090735Y12400984D01*
X33633592Y12258127D02*
X33805021Y12258127D01*
X33719306Y12258127D02*
X33719306Y12558127D01*
X33719306Y12558127D02*
X33747878Y12515270D01*
X33747878Y12515270D02*
X33776449Y12486698D01*
X33776449Y12486698D02*
X33805021Y12472412D01*
X33447878Y12558127D02*
X33419307Y12558127D01*
X33419307Y12558127D02*
X33390735Y12543841D01*
X33390735Y12543841D02*
X33376450Y12529555D01*
X33376450Y12529555D02*
X33362164Y12500984D01*
X33362164Y12500984D02*
X33347878Y12443841D01*
X33347878Y12443841D02*
X33347878Y12372412D01*
X33347878Y12372412D02*
X33362164Y12315270D01*
X33362164Y12315270D02*
X33376450Y12286698D01*
X33376450Y12286698D02*
X33390735Y12272412D01*
X33390735Y12272412D02*
X33419307Y12258127D01*
X33419307Y12258127D02*
X33447878Y12258127D01*
X33447878Y12258127D02*
X33476450Y12272412D01*
X33476450Y12272412D02*
X33490735Y12286698D01*
X33490735Y12286698D02*
X33505021Y12315270D01*
X33505021Y12315270D02*
X33519307Y12372412D01*
X33519307Y12372412D02*
X33519307Y12443841D01*
X33519307Y12443841D02*
X33505021Y12500984D01*
X33505021Y12500984D02*
X33490735Y12529555D01*
X33490735Y12529555D02*
X33476450Y12543841D01*
X33476450Y12543841D02*
X33447878Y12558127D01*
X36842164Y13263270D02*
X36742164Y13263270D01*
X36699307Y13106127D02*
X36842164Y13106127D01*
X36842164Y13106127D02*
X36842164Y13406127D01*
X36842164Y13406127D02*
X36699307Y13406127D01*
X36585021Y13120412D02*
X36542164Y13106127D01*
X36542164Y13106127D02*
X36470735Y13106127D01*
X36470735Y13106127D02*
X36442164Y13120412D01*
X36442164Y13120412D02*
X36427878Y13134698D01*
X36427878Y13134698D02*
X36413592Y13163270D01*
X36413592Y13163270D02*
X36413592Y13191841D01*
X36413592Y13191841D02*
X36427878Y13220412D01*
X36427878Y13220412D02*
X36442164Y13234698D01*
X36442164Y13234698D02*
X36470735Y13248984D01*
X36470735Y13248984D02*
X36527878Y13263270D01*
X36527878Y13263270D02*
X36556449Y13277555D01*
X36556449Y13277555D02*
X36570735Y13291841D01*
X36570735Y13291841D02*
X36585021Y13320412D01*
X36585021Y13320412D02*
X36585021Y13348984D01*
X36585021Y13348984D02*
X36570735Y13377555D01*
X36570735Y13377555D02*
X36556449Y13391841D01*
X36556449Y13391841D02*
X36527878Y13406127D01*
X36527878Y13406127D02*
X36456449Y13406127D01*
X36456449Y13406127D02*
X36413592Y13391841D01*
X36285021Y13106127D02*
X36285021Y13406127D01*
X36285021Y13406127D02*
X36170735Y13406127D01*
X36170735Y13406127D02*
X36142164Y13391841D01*
X36142164Y13391841D02*
X36127878Y13377555D01*
X36127878Y13377555D02*
X36113592Y13348984D01*
X36113592Y13348984D02*
X36113592Y13306127D01*
X36113592Y13306127D02*
X36127878Y13277555D01*
X36127878Y13277555D02*
X36142164Y13263270D01*
X36142164Y13263270D02*
X36170735Y13248984D01*
X36170735Y13248984D02*
X36285021Y13248984D01*
X36056450Y13077555D02*
X35827878Y13077555D01*
X35799307Y13406127D02*
X35699307Y13106127D01*
X35699307Y13106127D02*
X35599307Y13406127D01*
X35499307Y13106127D02*
X35499307Y13406127D01*
X35499307Y13406127D02*
X35427878Y13406127D01*
X35427878Y13406127D02*
X35385021Y13391841D01*
X35385021Y13391841D02*
X35356450Y13363270D01*
X35356450Y13363270D02*
X35342164Y13334698D01*
X35342164Y13334698D02*
X35327878Y13277555D01*
X35327878Y13277555D02*
X35327878Y13234698D01*
X35327878Y13234698D02*
X35342164Y13177555D01*
X35342164Y13177555D02*
X35356450Y13148984D01*
X35356450Y13148984D02*
X35385021Y13120412D01*
X35385021Y13120412D02*
X35427878Y13106127D01*
X35427878Y13106127D02*
X35499307Y13106127D01*
X35199307Y13106127D02*
X35199307Y13406127D01*
X35199307Y13406127D02*
X35127878Y13406127D01*
X35127878Y13406127D02*
X35085021Y13391841D01*
X35085021Y13391841D02*
X35056450Y13363270D01*
X35056450Y13363270D02*
X35042164Y13334698D01*
X35042164Y13334698D02*
X35027878Y13277555D01*
X35027878Y13277555D02*
X35027878Y13234698D01*
X35027878Y13234698D02*
X35042164Y13177555D01*
X35042164Y13177555D02*
X35056450Y13148984D01*
X35056450Y13148984D02*
X35085021Y13120412D01*
X35085021Y13120412D02*
X35127878Y13106127D01*
X35127878Y13106127D02*
X35199307Y13106127D01*
X34970736Y13077555D02*
X34742164Y13077555D01*
X34613593Y13406127D02*
X34556450Y13406127D01*
X34556450Y13406127D02*
X34527879Y13391841D01*
X34527879Y13391841D02*
X34499307Y13363270D01*
X34499307Y13363270D02*
X34485022Y13306127D01*
X34485022Y13306127D02*
X34485022Y13206127D01*
X34485022Y13206127D02*
X34499307Y13148984D01*
X34499307Y13148984D02*
X34527879Y13120412D01*
X34527879Y13120412D02*
X34556450Y13106127D01*
X34556450Y13106127D02*
X34613593Y13106127D01*
X34613593Y13106127D02*
X34642165Y13120412D01*
X34642165Y13120412D02*
X34670736Y13148984D01*
X34670736Y13148984D02*
X34685022Y13206127D01*
X34685022Y13206127D02*
X34685022Y13306127D01*
X34685022Y13306127D02*
X34670736Y13363270D01*
X34670736Y13363270D02*
X34642165Y13391841D01*
X34642165Y13391841D02*
X34613593Y13406127D01*
D12*
X30815001Y15450000D02*
X30815001Y14750000D01*
X31265000Y14300000D02*
X33065002Y14300000D01*
X32165001Y15899999D02*
X32165001Y14300001D01*
X33065002Y15900000D02*
X31265000Y15900000D01*
X33515001Y14750000D02*
X33515001Y15450000D01*
X30815001Y15450000D02*
G75*
G02*
X31265000Y15900000I450000J0D01*
G01*
X31265000Y14300000D02*
G75*
G02*
X30815001Y14750000I1J450000D01*
G01*
X33065002Y15900000D02*
G75*
G02*
X33515001Y15450000I-1J-450000D01*
G01*
X33515001Y14750000D02*
G75*
G02*
X33065002Y14300000I-450000J0D01*
G01*
X37375000Y2295000D02*
X37375000Y1595000D01*
X37824999Y1145000D02*
X39625001Y1145000D01*
X38725000Y2744999D02*
X38725000Y1145001D01*
X39625001Y2745000D02*
X37824999Y2745000D01*
X40075000Y1595000D02*
X40075000Y2295000D01*
X37375000Y2295000D02*
G75*
G02*
X37824999Y2745000I450000J0D01*
G01*
X37824999Y1145000D02*
G75*
G02*
X37375000Y1595000I1J450000D01*
G01*
X39625001Y2745000D02*
G75*
G02*
X40075000Y2295000I-1J-450000D01*
G01*
X40075000Y1595000D02*
G75*
G02*
X39625001Y1145000I-450000J0D01*
G01*
X37375000Y18405000D02*
X37375000Y17705000D01*
X37824999Y17255000D02*
X39625001Y17255000D01*
X38725000Y18854999D02*
X38725000Y17255001D01*
X39625001Y18855000D02*
X37824999Y18855000D01*
X40075000Y17705000D02*
X40075000Y18405000D01*
X37375000Y18405000D02*
G75*
G02*
X37824999Y18855000I450000J0D01*
G01*
X37824999Y17255000D02*
G75*
G02*
X37375000Y17705000I1J450000D01*
G01*
X39625001Y18855000D02*
G75*
G02*
X40075000Y18405000I-1J-450000D01*
G01*
X40075000Y17705000D02*
G75*
G02*
X39625001Y17255000I-450000J0D01*
G01*
X15425000Y18645000D02*
X15425000Y17945000D01*
X15875000Y17495000D02*
X17675000Y17495000D01*
X16775000Y19095000D02*
X16775000Y17495000D01*
X17675000Y19095000D02*
X15875000Y19095000D01*
X18125000Y17945000D02*
X18125000Y18645000D01*
X15425000Y18645000D02*
G75*
G02*
X15875000Y19095000I450000J0D01*
G01*
X15875000Y17495000D02*
G75*
G02*
X15425000Y17945000I0J450000D01*
G01*
X17675000Y19095000D02*
G75*
G02*
X18125000Y18645000I0J-450000D01*
G01*
X18125000Y17945000D02*
G75*
G02*
X17675000Y17495000I-450000J0D01*
G01*
X775000Y8250000D02*
X775000Y7650000D01*
X775000Y7650000D02*
X1175000Y7250000D01*
X1175000Y7250000D02*
X1975000Y7250000D01*
X1975000Y8250000D02*
X775000Y8250000D01*
X1975000Y7250000D02*
X1975000Y8250000D01*
X575000Y6950000D02*
X2175000Y6950000D01*
X2175000Y13050000D01*
X575000Y13050000D01*
X575000Y6950000D01*
X775000Y11750000D02*
X1975000Y11750000D01*
X1975000Y12750000D01*
X775000Y12750000D01*
X775000Y11750000D01*
X775000Y10250000D02*
X1975000Y10250000D01*
X1975000Y11250000D01*
X775000Y11250000D01*
X775000Y10250000D01*
X775000Y8750000D02*
X1975000Y8750000D01*
X1975000Y9750000D01*
X775000Y9750000D01*
X775000Y8750000D01*
X40503000Y17686000D02*
X40503000Y2916000D01*
X40503000Y2916000D02*
X40973000Y2446000D01*
X40823000Y16866001D02*
X40823001Y15966000D01*
X40823000Y14325999D02*
X40823000Y13426000D01*
X40823000Y11786000D02*
X40823000Y10886000D01*
X40823000Y9246000D02*
X40823000Y8346000D01*
X40823000Y6706000D02*
X40823000Y5806001D01*
X40973000Y2446000D02*
X43643000Y2446000D01*
X41223000Y15566000D02*
X42923000Y15566000D01*
X41223000Y13026000D02*
X42923000Y13026000D01*
X41223000Y10486000D02*
X42923000Y10486000D01*
X41223000Y7946000D02*
X42923000Y7946000D01*
X41223000Y5406000D02*
X42923000Y5406000D01*
X42923000Y17266000D02*
X41223000Y17266000D01*
X42923000Y14726000D02*
X41223000Y14726000D01*
X42923000Y12186000D02*
X41223000Y12186000D01*
X42923000Y9646000D02*
X41223000Y9646000D01*
X42923000Y7106000D02*
X41223000Y7106000D01*
X43322999Y15966000D02*
X43323000Y16866001D01*
X43323000Y13426000D02*
X43323000Y14325999D01*
X43323000Y10886000D02*
X43323000Y11786000D01*
X43323000Y8346000D02*
X43323000Y9246000D01*
X43323000Y5806001D02*
X43323000Y6706000D01*
X43643000Y17686000D02*
X40503000Y17686000D01*
X43643000Y2446000D02*
X43643000Y17686000D01*
X40823000Y16866001D02*
G75*
G02*
X41223000Y17266000I399999J0D01*
G01*
X40823000Y14325999D02*
G75*
G02*
X41223000Y14726000I399999J2D01*
G01*
X40823000Y11786000D02*
G75*
G02*
X41223000Y12186000I399999J1D01*
G01*
X40823000Y9246000D02*
G75*
G02*
X41223000Y9646000I399999J1D01*
G01*
X40823000Y6706000D02*
G75*
G02*
X41223000Y7106000I400001J-1D01*
G01*
X41223000Y15566000D02*
G75*
G02*
X40823001Y15966000I-2J399997D01*
G01*
X41223000Y13026000D02*
G75*
G02*
X40823000Y13426000I-1J399999D01*
G01*
X41223000Y10486000D02*
G75*
G02*
X40823000Y10886000I-1J399999D01*
G01*
X41223000Y7946000D02*
G75*
G02*
X40823000Y8346000I-1J399999D01*
G01*
X41223000Y5406000D02*
G75*
G02*
X40823000Y5806001I-1J399999D01*
G01*
X42923000Y17266000D02*
G75*
G02*
X43323000Y16866001I0J-400000D01*
G01*
X42923000Y14726000D02*
G75*
G02*
X43323000Y14325999I0J-400000D01*
G01*
X42923000Y12186000D02*
G75*
G02*
X43323000Y11786000I0J-400000D01*
G01*
X42923000Y9646000D02*
G75*
G02*
X43323000Y9246000I0J-400000D01*
G01*
X42923000Y7106000D02*
G75*
G02*
X43323000Y6706000I0J-400000D01*
G01*
X43322999Y15966000D02*
G75*
G02*
X42923000Y15566001I-399999J0D01*
G01*
X43323000Y13426000D02*
G75*
G02*
X42923000Y13026000I-400000J0D01*
G01*
X43323000Y10886000D02*
G75*
G02*
X42923000Y10486000I-400000J0D01*
G01*
X43323000Y8346000D02*
G75*
G02*
X42923000Y7946000I-400000J0D01*
G01*
X43323000Y5806001D02*
G75*
G02*
X42923000Y5406000I-400000J-1D01*
G01*
X43323000Y2866000D02*
X40823000Y2866000D01*
X40823000Y4566000D01*
X43323000Y4566000D01*
X43323000Y2866000D01*
M02*
