%TF.GenerationSoftware,KiCad,Pcbnew,9.0.3*%
%TF.CreationDate,2025-07-25T19:16:11+05:30*%
%TF.ProjectId,ESPNut-D1,4553504e-7574-42d4-9431-2e6b69636164,0.2*%
%TF.SameCoordinates,Original*%
%TF.FileFunction,Other,User*%
%FSLAX46Y46*%
G04 Gerber Fmt 4.6, Leading zero omitted, Abs format (unit mm)*
G04 Created by KiCad (PCBNEW 9.0.3) date 2025-07-25 19:16:11*
%MOMM*%
%LPD*%
G01*
G04 APERTURE LIST*
%ADD10C,0.050000*%
G04 APERTURE END LIST*
D10*
X27299000Y19975000D02*
X30049000Y19975000D01*
X27299000Y15425000D02*
X27299000Y19975000D01*
X30049000Y21275000D02*
X33349000Y21275000D01*
X30049000Y19975000D02*
X30049000Y21275000D01*
X33349000Y21275000D02*
X33349000Y19975000D01*
X33349000Y19975000D02*
X36099000Y19975000D01*
X36099000Y19975000D02*
X36099000Y15425000D01*
X36099000Y15425000D02*
X27299000Y15425000D01*
X27335000Y7719001D02*
X28275000Y7719001D01*
X27335000Y5859001D02*
X27335000Y7719001D01*
X28275000Y7719001D02*
X28275000Y5859001D01*
X28275000Y5859001D02*
X27335000Y5859001D01*
X15265000Y4314000D02*
X17125000Y4314000D01*
X15265000Y3374000D02*
X15265000Y4314000D01*
X17125000Y4314000D02*
X17125000Y3374000D01*
X17125000Y3374000D02*
X15265000Y3374000D01*
X9825000Y15199000D02*
X9825000Y4799000D01*
X9825000Y4799000D02*
X17225000Y4799000D01*
X17225000Y15199000D02*
X9825000Y15199000D01*
X17225000Y4799000D02*
X17225000Y15199000D01*
X8005000Y12374000D02*
X9865000Y12374000D01*
X8005000Y11434000D02*
X8005000Y12374000D01*
X9865000Y12374000D02*
X9865000Y11434000D01*
X9865000Y11434000D02*
X8005000Y11434000D01*
X4205000Y18125000D02*
X6065000Y18125000D01*
X4205000Y17185000D02*
X4205000Y18125000D01*
X6065000Y18125000D02*
X6065000Y17185000D01*
X6065000Y17185000D02*
X4205000Y17185000D01*
X24225001Y4340000D02*
X26085001Y4340000D01*
X24225001Y3400000D02*
X24225001Y4340000D01*
X26085001Y4340000D02*
X26085001Y3400000D01*
X26085001Y3400000D02*
X24225001Y3400000D01*
X4150000Y2000000D02*
G75*
G02*
X-150000Y2000000I-2150000J0D01*
G01*
X-150000Y2000000D02*
G75*
G02*
X4150000Y2000000I2150000J0D01*
G01*
X22985000Y8019000D02*
X22985000Y4619000D01*
X22985000Y4619000D02*
X27085000Y4619000D01*
X27085000Y8019000D02*
X22985000Y8019000D01*
X27085000Y4619000D02*
X27085000Y8019000D01*
X23850000Y16635000D02*
X23850000Y19535000D01*
X23850000Y16635000D02*
X25650000Y16635000D01*
X25650000Y19535000D02*
X23850000Y19535000D01*
X25650000Y19535000D02*
X25650000Y16635000D01*
X4150000Y18000000D02*
G75*
G02*
X-150000Y18000000I-2150000J0D01*
G01*
X-150000Y18000000D02*
G75*
G02*
X4150000Y18000000I2150000J0D01*
G01*
X11765000Y16465000D02*
X13585000Y16465000D01*
X11765000Y15545000D02*
X11765000Y16465000D01*
X13585000Y16465000D02*
X13585000Y15545000D01*
X13585000Y15545000D02*
X11765000Y15545000D01*
X11280000Y4240000D02*
X14780000Y4240000D01*
X11280000Y1840000D02*
X11280000Y4240000D01*
X14780000Y4240000D02*
X14780000Y1840000D01*
X14780000Y1840000D02*
X11280000Y1840000D01*
X17535000Y14504000D02*
X18475000Y14504000D01*
X17535000Y12644000D02*
X17535000Y14504000D01*
X18475000Y14504000D02*
X18475000Y12644000D01*
X18475000Y12644000D02*
X17535000Y12644000D01*
X21785000Y2404000D02*
X23605000Y2404000D01*
X21785000Y1484000D02*
X21785000Y2404000D01*
X23605000Y2404000D02*
X23605000Y1484000D01*
X23605000Y1484000D02*
X21785000Y1484000D01*
X8005000Y16515000D02*
X8945000Y16515000D01*
X8005000Y14655000D02*
X8005000Y16515000D01*
X8945000Y16515000D02*
X8945000Y14655000D01*
X8945000Y14655000D02*
X8005000Y14655000D01*
X18655000Y10493000D02*
X18655000Y7093000D01*
X18655000Y7093000D02*
X22495000Y7093000D01*
X22495000Y10493000D02*
X18655000Y10493000D01*
X22495000Y7093000D02*
X22495000Y10493000D01*
X7775000Y4305000D02*
X7775000Y1105000D01*
X7775000Y4305000D02*
X11175000Y4305000D01*
X11175000Y1105000D02*
X7775000Y1105000D01*
X11175000Y1105000D02*
X11175000Y4305000D01*
X17430000Y6605000D02*
X21190000Y6605000D01*
X17430000Y4845000D02*
X17430000Y6605000D01*
X21190000Y6605000D02*
X21190000Y4845000D01*
X21190000Y4845000D02*
X17430000Y4845000D01*
X27299000Y4561792D02*
X36099000Y4561792D01*
X27299000Y11792D02*
X27299000Y4561792D01*
X30049000Y11792D02*
X27299000Y11792D01*
X30049000Y-1288208D02*
X30049000Y11792D01*
X33349000Y11792D02*
X33349000Y-1288208D01*
X33349000Y-1288208D02*
X30049000Y-1288208D01*
X36099000Y4561792D02*
X36099000Y11792D01*
X36099000Y11792D02*
X33349000Y11792D01*
X42974000Y360000D02*
X37074000Y360000D01*
X37074000Y3560000D01*
X42974000Y3560000D01*
X42974000Y360000D01*
X16205000Y3334000D02*
X17125000Y3334000D01*
X16205000Y1514000D02*
X16205000Y3334000D01*
X17125000Y3334000D02*
X17125000Y1514000D01*
X17125000Y1514000D02*
X16205000Y1514000D01*
X-1305000Y14970000D02*
X545000Y14970000D01*
X-1305000Y5030000D02*
X-1305000Y14970000D01*
X545000Y16700000D02*
X3555000Y16700000D01*
X545000Y14970000D02*
X545000Y16700000D01*
X545000Y5030000D02*
X-1305000Y5030000D01*
X545000Y3300000D02*
X545000Y5030000D01*
X3555000Y16700000D02*
X3555000Y14970000D01*
X3555000Y14970000D02*
X4475000Y14970000D01*
X3555000Y5030000D02*
X3555000Y3300000D01*
X3555000Y3300000D02*
X545000Y3300000D01*
X4475000Y16700000D02*
X7485000Y16700000D01*
X4475000Y14970000D02*
X4475000Y16700000D01*
X4475000Y5030000D02*
X3555000Y5030000D01*
X4475000Y3300000D02*
X4475000Y5030000D01*
X7485000Y16700000D02*
X7485000Y14250000D01*
X7485000Y14250000D02*
X7635000Y14250000D01*
X7485000Y5750000D02*
X7485000Y3300000D01*
X7485000Y3300000D02*
X4475000Y3300000D01*
X7635000Y14250000D02*
X7635000Y5750000D01*
X7635000Y5750000D02*
X7485000Y5750000D01*
X22809000Y15148000D02*
X22809000Y10298000D01*
X22809000Y10298000D02*
X27259000Y10298000D01*
X27259000Y15148000D02*
X22809000Y15148000D01*
X27259000Y10298000D02*
X27259000Y15148000D01*
X31635000Y13589000D02*
X34595000Y13589000D01*
X31635000Y12129000D02*
X31635000Y13589000D01*
X34595000Y13589000D02*
X34595000Y12129000D01*
X34595000Y12129000D02*
X31635000Y12129000D01*
X19740000Y16550000D02*
X13840000Y16550000D01*
X13840000Y19750000D01*
X19740000Y19750000D01*
X19740000Y16550000D01*
X28760000Y8000000D02*
X28760000Y6200000D01*
X28760000Y8000000D02*
X31660000Y8000000D01*
X31660000Y6200000D02*
X28760000Y6200000D01*
X31660000Y6200000D02*
X31660000Y8000000D01*
X20275000Y19015000D02*
X21215000Y19015000D01*
X20275000Y17155000D02*
X20275000Y19015000D01*
X21215000Y19015000D02*
X21215000Y17155000D01*
X21215000Y17155000D02*
X20275000Y17155000D01*
X18645000Y14804000D02*
X18645000Y11404000D01*
X18645000Y11404000D02*
X22485000Y11404000D01*
X22485000Y14804000D02*
X18645000Y14804000D01*
X22485000Y11404000D02*
X22485000Y14804000D01*
X42974000Y16440000D02*
X37074000Y16440000D01*
X37074000Y19640000D01*
X42974000Y19640000D01*
X42974000Y16440000D01*
X6325000Y18435000D02*
X9285000Y18435000D01*
X6325000Y16975000D02*
X6325000Y18435000D01*
X9285000Y18435000D02*
X9285000Y16975000D01*
X9285000Y16975000D02*
X6325000Y16975000D01*
X24225000Y9055000D02*
X26085000Y9055000D01*
X24225000Y8115000D02*
X24225000Y9055000D01*
X26085000Y9055000D02*
X26085000Y8115000D01*
X26085000Y8115000D02*
X24225000Y8115000D01*
X37200000Y14000000D02*
G75*
G02*
X35200000Y14000000I-1000000J0D01*
G01*
X35200000Y14000000D02*
G75*
G02*
X37200000Y14000000I1000000J0D01*
G01*
X37617000Y14900000D02*
X37617000Y5100000D01*
X37617000Y5100000D02*
X44177000Y5100000D01*
X44177000Y14900000D02*
X37617000Y14900000D01*
X44177000Y5100000D02*
X44177000Y14900000D01*
X29085000Y13349000D02*
X30945000Y13349000D01*
X29085000Y12409000D02*
X29085000Y13349000D01*
X30945000Y13349000D02*
X30945000Y12409000D01*
X30945000Y12409000D02*
X29085000Y12409000D01*
X6255000Y3065000D02*
X7195000Y3065000D01*
X6255000Y1205000D02*
X6255000Y3065000D01*
X7195000Y3065000D02*
X7195000Y1205000D01*
X7195000Y1205000D02*
X6255000Y1205000D01*
X21475000Y16635000D02*
X21475000Y19535000D01*
X21475000Y16635000D02*
X23275000Y16635000D01*
X23275000Y19535000D02*
X21475000Y19535000D01*
X23275000Y19535000D02*
X23275000Y16635000D01*
X17535000Y10193000D02*
X18475000Y10193000D01*
X17535000Y8333000D02*
X17535000Y10193000D01*
X18475000Y10193000D02*
X18475000Y8333000D01*
X18475000Y8333000D02*
X17535000Y8333000D01*
X8005000Y13634000D02*
X9825000Y13634000D01*
X8005000Y12714000D02*
X8005000Y13634000D01*
X9825000Y13634000D02*
X9825000Y12714000D01*
X9825000Y12714000D02*
X8005000Y12714000D01*
X21785000Y4294000D02*
X22705000Y4294000D01*
X21785000Y2474000D02*
X21785000Y4294000D01*
X22705000Y4294000D02*
X22705000Y2474000D01*
X22705000Y2474000D02*
X21785000Y2474000D01*
X17435000Y4594000D02*
X17435000Y1194000D01*
X17435000Y1194000D02*
X21535000Y1194000D01*
X21535000Y4594000D02*
X17435000Y4594000D01*
X21535000Y1194000D02*
X21535000Y4594000D01*
X25915000Y19015000D02*
X26855000Y19015000D01*
X25915000Y17155000D02*
X25915000Y19015000D01*
X26855000Y19015000D02*
X26855000Y17155000D01*
X26855000Y17155000D02*
X25915000Y17155000D01*
M02*
