%TF.GenerationSoftware,KiCad,Pcbnew,9.0.3*%
%TF.CreationDate,2025-07-25T19:16:11+05:30*%
%TF.ProjectId,ESPNut-D1,4553504e-7574-42d4-9431-2e6b69636164,0.2*%
%TF.SameCoordinates,Original*%
%TF.FileFunction,Other,User*%
%FSLAX46Y46*%
G04 Gerber Fmt 4.6, Leading zero omitted, Abs format (unit mm)*
G04 Created by KiCad (PCBNEW 9.0.3) date 2025-07-25 19:16:11*
%MOMM*%
%LPD*%
G01*
G04 APERTURE LIST*
%ADD10C,0.050000*%
G04 APERTURE END LIST*
D10*
X16424264Y13174000D02*
G75*
G02*
X15575736Y13174000I-424264J0D01*
G01*
X15575736Y13174000D02*
G75*
G02*
X16424264Y13174000I424264J0D01*
G01*
X16424264Y6824000D02*
G75*
G02*
X15575736Y6824000I-424264J0D01*
G01*
X15575736Y6824000D02*
G75*
G02*
X16424264Y6824000I424264J0D01*
G01*
X30715001Y14200000D02*
X30715001Y16000000D01*
X30715001Y14200000D02*
X33615001Y14200000D01*
X33615001Y16000000D02*
X30715001Y16000000D01*
X33615001Y16000000D02*
X33615001Y14200000D01*
X9023528Y17699264D02*
G75*
G02*
X8175000Y17699264I-424264J0D01*
G01*
X8175000Y17699264D02*
G75*
G02*
X9023528Y17699264I424264J0D01*
G01*
X16424264Y8094000D02*
G75*
G02*
X15575736Y8094000I-424264J0D01*
G01*
X15575736Y8094000D02*
G75*
G02*
X16424264Y8094000I424264J0D01*
G01*
X16424264Y9364000D02*
G75*
G02*
X15575736Y9364000I-424264J0D01*
G01*
X15575736Y9364000D02*
G75*
G02*
X16424264Y9364000I424264J0D01*
G01*
X16424264Y10634000D02*
G75*
G02*
X15575736Y10634000I-424264J0D01*
G01*
X15575736Y10634000D02*
G75*
G02*
X16424264Y10634000I424264J0D01*
G01*
X37275000Y1045000D02*
X37275000Y2845000D01*
X37275000Y1045000D02*
X40175000Y1045000D01*
X40175000Y2845000D02*
X37275000Y2845000D01*
X40175000Y2845000D02*
X40175000Y1045000D01*
X37275000Y17155000D02*
X37275000Y18955000D01*
X37275000Y17155000D02*
X40175000Y17155000D01*
X40175000Y18955000D02*
X37275000Y18955000D01*
X40175000Y18955000D02*
X40175000Y17155000D01*
X15325000Y17395000D02*
X15325000Y19195000D01*
X15325000Y17395000D02*
X18225000Y17395000D01*
X18225000Y19195000D02*
X15325000Y19195000D01*
X18225000Y19195000D02*
X18225000Y17395000D01*
X625000Y7000000D02*
X2125000Y7000000D01*
X2125000Y13000000D01*
X625000Y13000000D01*
X625000Y7000000D01*
X7423528Y17702208D02*
G75*
G02*
X6575000Y17702208I-424264J0D01*
G01*
X6575000Y17702208D02*
G75*
G02*
X7423528Y17702208I424264J0D01*
G01*
X43873000Y2226000D02*
X40273000Y2226000D01*
X40273000Y17906000D01*
X43873000Y17906000D01*
X43873000Y2226000D01*
X32683528Y13262208D02*
G75*
G02*
X31835000Y13262208I-424264J0D01*
G01*
X31835000Y13262208D02*
G75*
G02*
X32683528Y13262208I424264J0D01*
G01*
X16424264Y5554000D02*
G75*
G02*
X15575736Y5554000I-424264J0D01*
G01*
X15575736Y5554000D02*
G75*
G02*
X16424264Y5554000I424264J0D01*
G01*
X16424264Y11904000D02*
G75*
G02*
X15575736Y11904000I-424264J0D01*
G01*
X15575736Y11904000D02*
G75*
G02*
X16424264Y11904000I424264J0D01*
G01*
X34283528Y13262208D02*
G75*
G02*
X33435000Y13262208I-424264J0D01*
G01*
X33435000Y13262208D02*
G75*
G02*
X34283528Y13262208I424264J0D01*
G01*
M02*
