M48
; DRILL file {KiCad 9.0.3} date 2025-07-25T19:16:10+0530
; FORMAT={-:-/ absolute / metric / decimal}
; #@! TF.CreationDate,2025-07-25T19:16:10+05:30
; #@! TF.GenerationSoftware,Kicad,Pcbnew,9.0.3
; #@! TF.FileFunction,Plated,1,2,PTH
FMAT,2
METRIC
; #@! TA.AperFunction,Plated,PTH,ViaDrill
T1C0.200
; #@! TA.AperFunction,Plated,PTH,ViaDrill
T2C0.300
; #@! TA.AperFunction,Plated,PTH,ComponentDrill
T3C0.650
%
G90
G05
T1
X1.4Y10.8
X1.4Y9.2
X5.617Y9.226
X7.018Y17.705
X7.321Y10.251
X7.6Y11.2
X8.5Y15.1
X8.6Y17.705
X12.3Y13.1
X14.7Y18.3
X16.0Y13.174
X16.0Y11.904
X16.0Y10.634
X16.0Y9.364
X16.0Y8.094
X16.0Y6.824
X16.0Y5.554
X16.705Y4.299
X17.1Y10.4
X18.0Y13.1
X19.0Y15.1
X19.6Y7.9
X21.375Y15.1
X22.1Y9.4
X25.7Y3.774
X27.725Y10.462
X32.259Y13.262
X33.859Y13.262
X36.2Y11.7
X36.8Y12.4
X37.849Y1.96
X37.9Y12.5
X38.075Y18.055
X38.8Y11.5
X38.9Y10.5
X38.9Y9.5
T2
X1.4Y12.2
X1.6Y15.7
X1.6Y14.5
X1.6Y5.5
X1.6Y4.3
X2.5Y15.7
X2.5Y14.5
X2.5Y5.5
X2.5Y4.3
X2.6Y6.7
X3.3Y6.7
X3.5Y13.6
X4.2Y13.6
X4.6Y2.2
X4.6Y1.4
X5.0Y19.0
X5.5Y15.7
X5.5Y14.5
X5.5Y5.5
X5.8Y19.0
X6.4Y15.7
X6.4Y14.5
X6.4Y5.5
X6.5Y12.4
X6.555Y7.6
X8.725Y1.705
X10.1Y16.5
X10.8Y19.0
X10.9Y16.5
X11.6Y19.0
X12.4Y19.0
X12.6Y4.6
X13.03Y2.339
X13.8Y12.6
X13.8Y11.4
X15.5Y2.9
X16.665Y2.904
X17.6Y7.7
X17.6Y6.9
X18.335Y5.725
X18.348Y2.894
X18.9Y11.0
X18.965Y18.15
X19.8Y6.7
X20.0Y11.0
X20.8Y16.8
X20.8Y2.9
X22.105Y6.705
X22.8Y6.7
X23.401Y15.851
X26.4Y16.9
X27.1Y14.839
X28.902Y13.998
X29.0Y18.2
X29.8Y13.6
X31.8Y18.8
X31.8Y17.9
X33.949Y16.4
X35.4Y7.0
X35.4Y6.0
X36.4Y7.0
X36.4Y6.0
X38.9Y8.5
X42.199Y18.04
X42.199Y1.96
T3
X24.389Y13.988
X24.389Y12.718
X24.389Y11.448
X25.659Y13.988
X25.659Y12.718
X25.659Y11.448
M30
