%TF.GenerationSoftware,KiCad,Pcbnew,9.0.3*%
%TF.CreationDate,2025-07-25T19:16:11+05:30*%
%TF.ProjectId,ESPNut-D1,4553504e-7574-42d4-9431-2e6b69636164,0.2*%
%TF.SameCoordinates,Original*%
%TF.FileFunction,Soldermask,Top*%
%TF.FilePolarity,Negative*%
%FSLAX46Y46*%
G04 Gerber Fmt 4.6, Leading zero omitted, Abs format (unit mm)*
G04 Created by KiCad (PCBNEW 9.0.3) date 2025-07-25 19:16:11*
%MOMM*%
%LPD*%
G01*
G04 APERTURE LIST*
G04 Aperture macros list*
%AMRoundRect*
0 Rectangle with rounded corners*
0 $1 Rounding radius*
0 $2 $3 $4 $5 $6 $7 $8 $9 X,Y pos of 4 corners*
0 Add a 4 corners polygon primitive as box body*
4,1,4,$2,$3,$4,$5,$6,$7,$8,$9,$2,$3,0*
0 Add four circle primitives for the rounded corners*
1,1,$1+$1,$2,$3*
1,1,$1+$1,$4,$5*
1,1,$1+$1,$6,$7*
1,1,$1+$1,$8,$9*
0 Add four rect primitives between the rounded corners*
20,1,$1+$1,$2,$3,$4,$5,0*
20,1,$1+$1,$4,$5,$6,$7,0*
20,1,$1+$1,$6,$7,$8,$9,0*
20,1,$1+$1,$8,$9,$2,$3,0*%
%AMFreePoly0*
4,1,15,-0.500000,0.200000,-0.480423,0.323607,-0.423607,0.435114,-0.335114,0.523607,-0.223607,0.580423,-0.100000,0.600000,0.500000,0.600000,0.500000,-0.600000,-0.100000,-0.600000,-0.223607,-0.580423,-0.335114,-0.523607,-0.423607,-0.435114,-0.480423,-0.323607,-0.500000,-0.200000,-0.500000,0.200000,-0.500000,0.200000,$1*%
%AMFreePoly1*
4,1,15,-0.500000,0.600000,0.100000,0.600000,0.223607,0.580423,0.335114,0.523607,0.423607,0.435114,0.480423,0.323607,0.500000,0.200000,0.500000,-0.200000,0.480423,-0.323607,0.423607,-0.435114,0.335114,-0.523607,0.223607,-0.580423,0.100000,-0.600000,-0.500000,-0.600000,-0.500000,0.600000,-0.500000,0.600000,$1*%
G04 Aperture macros list end*
%ADD10R,1.000000X0.800000*%
%ADD11C,0.900000*%
%ADD12R,0.700000X1.500000*%
%ADD13RoundRect,0.135000X0.185000X-0.135000X0.185000X0.135000X-0.185000X0.135000X-0.185000X-0.135000X0*%
%ADD14RoundRect,0.135000X0.135000X0.185000X-0.135000X0.185000X-0.135000X-0.185000X0.135000X-0.185000X0*%
%ADD15RoundRect,0.150000X-0.825000X-0.150000X0.825000X-0.150000X0.825000X0.150000X-0.825000X0.150000X0*%
%ADD16RoundRect,0.135000X-0.135000X-0.185000X0.135000X-0.185000X0.135000X0.185000X-0.135000X0.185000X0*%
%ADD17C,2.200000*%
%ADD18RoundRect,0.150000X-0.512500X-0.150000X0.512500X-0.150000X0.512500X0.150000X-0.512500X0.150000X0*%
%ADD19FreePoly0,90.000000*%
%ADD20FreePoly1,90.000000*%
%ADD21RoundRect,0.140000X0.140000X0.170000X-0.140000X0.170000X-0.140000X-0.170000X0.140000X-0.170000X0*%
%ADD22R,0.400000X1.900000*%
%ADD23RoundRect,0.135000X-0.185000X0.135000X-0.185000X-0.135000X0.185000X-0.135000X0.185000X0.135000X0*%
%ADD24RoundRect,0.140000X-0.140000X-0.170000X0.140000X-0.170000X0.140000X0.170000X-0.140000X0.170000X0*%
%ADD25RoundRect,0.150000X-0.587500X-0.150000X0.587500X-0.150000X0.587500X0.150000X-0.587500X0.150000X0*%
%ADD26R,1.000000X0.700000*%
%ADD27R,0.600000X0.700000*%
%ADD28RoundRect,0.250000X0.400000X0.275000X-0.400000X0.275000X-0.400000X-0.275000X0.400000X-0.275000X0*%
%ADD29R,1.150000X1.700000*%
%ADD30RoundRect,0.140000X0.170000X-0.140000X0.170000X0.140000X-0.170000X0.140000X-0.170000X-0.140000X0*%
%ADD31C,0.650000*%
%ADD32RoundRect,0.150000X-0.425000X0.150000X-0.425000X-0.150000X0.425000X-0.150000X0.425000X0.150000X0*%
%ADD33RoundRect,0.075000X-0.500000X0.075000X-0.500000X-0.075000X0.500000X-0.075000X0.500000X0.075000X0*%
%ADD34RoundRect,0.250000X-0.750000X0.840000X-0.750000X-0.840000X0.750000X-0.840000X0.750000X0.840000X0*%
%ADD35R,1.000000X1.000000*%
%ADD36O,1.000000X1.000000*%
%ADD37RoundRect,0.218750X-0.218750X-0.256250X0.218750X-0.256250X0.218750X0.256250X-0.218750X0.256250X0*%
%ADD38FreePoly0,180.000000*%
%ADD39FreePoly1,180.000000*%
%ADD40C,1.500000*%
%ADD41RoundRect,0.150000X0.625000X-0.150000X0.625000X0.150000X-0.625000X0.150000X-0.625000X-0.150000X0*%
%ADD42RoundRect,0.250000X0.650000X-0.350000X0.650000X0.350000X-0.650000X0.350000X-0.650000X-0.350000X0*%
%ADD43RoundRect,0.140000X-0.170000X0.140000X-0.170000X-0.140000X0.170000X-0.140000X0.170000X0.140000X0*%
G04 APERTURE END LIST*
D10*
X35349000Y17095000D03*
X35349000Y19305000D03*
D11*
X33199000Y18205000D03*
X30199000Y18205000D03*
D10*
X28049000Y17095000D03*
X28049000Y19305000D03*
D12*
X33949000Y16445000D03*
X30949000Y16445000D03*
X29449000Y16445000D03*
D13*
X27805000Y6279002D03*
X27805000Y7299000D03*
D14*
X16705000Y3844000D03*
X15685000Y3844000D03*
D15*
X11050000Y14444000D03*
X11050000Y13174000D03*
X11050000Y11904000D03*
X11050000Y10634000D03*
X11050000Y9364000D03*
X11050000Y8094000D03*
X11050000Y6824000D03*
X11050000Y5554000D03*
X16000000Y5554000D03*
X16000000Y6824000D03*
X16000000Y8094000D03*
X16000000Y9364000D03*
X16000000Y10634000D03*
X16000000Y11904000D03*
X16000000Y13174000D03*
X16000000Y14444000D03*
D14*
X9445000Y11904000D03*
X8425000Y11904000D03*
D16*
X4625000Y17655000D03*
X5645000Y17655000D03*
D14*
X25665000Y3870000D03*
X24645002Y3870000D03*
D17*
X2000000Y2000000D03*
D18*
X23897500Y7269000D03*
X23897500Y6319000D03*
X23897500Y5369000D03*
X26172500Y5369000D03*
X26172500Y7269000D03*
D19*
X24750000Y17435001D03*
D20*
X24750000Y18734999D03*
D17*
X2000000Y18000000D03*
D21*
X13155000Y16005000D03*
X12195000Y16005000D03*
D22*
X14230000Y3040000D03*
X13030000Y3040000D03*
X11830000Y3040000D03*
D23*
X18005000Y14084000D03*
X18005000Y13064000D03*
D24*
X22215000Y1944000D03*
X23175000Y1944000D03*
D13*
X8475000Y15075000D03*
X8475000Y16095000D03*
D25*
X19637500Y9743000D03*
X19637500Y7843000D03*
X21512500Y8793000D03*
D26*
X8725000Y1705000D03*
D27*
X10425000Y1705000D03*
X10425000Y3705000D03*
X8525000Y3705000D03*
D28*
X20285000Y5725000D03*
X18335000Y5725000D03*
D10*
X28049000Y2891792D03*
X28049000Y681792D03*
D11*
X30199000Y1781792D03*
X33199000Y1781792D03*
D10*
X35349000Y2891792D03*
X35349000Y681792D03*
D12*
X29449000Y3541792D03*
X32449000Y3541792D03*
X33949000Y3541792D03*
D29*
X42199000Y1960000D03*
X37849000Y1960000D03*
D30*
X16665000Y1944000D03*
X16665000Y2904000D03*
D31*
X5480000Y12890000D03*
X5480000Y7110000D03*
D32*
X6555000Y13200000D03*
X6555000Y12400000D03*
D33*
X6555000Y11250000D03*
X6555000Y10250000D03*
X6555000Y9750000D03*
X6555000Y8750000D03*
D32*
X6555000Y7600000D03*
X6555000Y6800000D03*
X6555000Y6800000D03*
X6555000Y7600000D03*
D33*
X6555000Y8250000D03*
X6555000Y9250000D03*
X6555000Y10750000D03*
X6555000Y11750000D03*
D32*
X6555000Y12400000D03*
X6555000Y13200000D03*
D34*
X5980000Y15110000D03*
X2050000Y15110000D03*
X5980000Y4890000D03*
X2050000Y4890000D03*
D35*
X25659000Y11448000D03*
D36*
X24389000Y11448000D03*
X25659000Y12718000D03*
X24389000Y12718000D03*
X25659000Y13988000D03*
X24389000Y13988000D03*
D37*
X32327500Y12859000D03*
X33902500Y12859000D03*
D29*
X18965000Y18150000D03*
X14615000Y18150000D03*
D38*
X30859999Y7100000D03*
D39*
X29560001Y7100000D03*
D13*
X20745000Y17575001D03*
X20745000Y18594999D03*
D25*
X19627500Y14054000D03*
X19627500Y12154000D03*
X21502500Y13104000D03*
D29*
X42199000Y18040000D03*
X37849000Y18040000D03*
D37*
X7017500Y17705000D03*
X8592500Y17705000D03*
D16*
X24645000Y8585000D03*
X25665000Y8585000D03*
D40*
X36200000Y14000000D03*
D41*
X38896999Y7500000D03*
X38897000Y8500000D03*
X38897000Y9500000D03*
X38897000Y10500000D03*
X38897000Y11500000D03*
X38896999Y12500000D03*
D42*
X42772000Y6200000D03*
X42772000Y13800000D03*
D16*
X29505000Y12879000D03*
X30525000Y12879000D03*
D23*
X6725000Y2645000D03*
X6725000Y1625000D03*
D19*
X22375000Y17435001D03*
D20*
X22375000Y18734999D03*
D13*
X18005000Y8753000D03*
X18005000Y9773000D03*
D21*
X9395000Y13174000D03*
X8435000Y13174000D03*
D43*
X22245000Y3864000D03*
X22245000Y2904000D03*
D18*
X18347500Y3844000D03*
X18347500Y2894000D03*
X18347500Y1944000D03*
X20622500Y1944000D03*
X20622500Y3844000D03*
D13*
X26385000Y17575001D03*
X26385000Y18594999D03*
M02*
