%TF.GenerationSoftware,KiCad,Pcbnew,9.0.1*%
%TF.CreationDate,2025-04-12T17:39:00+05:30*%
%TF.ProjectId,ESPNut-D1,4553504e-7574-42d4-9431-2e6b69636164,0.1*%
%TF.SameCoordinates,Original*%
%TF.FileFunction,Copper,L1,Top*%
%TF.FilePolarity,Positive*%
%FSLAX46Y46*%
G04 Gerber Fmt 4.6, Leading zero omitted, Abs format (unit mm)*
G04 Created by KiCad (PCBNEW 9.0.1) date 2025-04-12 17:39:00*
%MOMM*%
%LPD*%
G01*
G04 APERTURE LIST*
G04 Aperture macros list*
%AMRoundRect*
0 Rectangle with rounded corners*
0 $1 Rounding radius*
0 $2 $3 $4 $5 $6 $7 $8 $9 X,Y pos of 4 corners*
0 Add a 4 corners polygon primitive as box body*
4,1,4,$2,$3,$4,$5,$6,$7,$8,$9,$2,$3,0*
0 Add four circle primitives for the rounded corners*
1,1,$1+$1,$2,$3*
1,1,$1+$1,$4,$5*
1,1,$1+$1,$6,$7*
1,1,$1+$1,$8,$9*
0 Add four rect primitives between the rounded corners*
20,1,$1+$1,$2,$3,$4,$5,0*
20,1,$1+$1,$4,$5,$6,$7,0*
20,1,$1+$1,$6,$7,$8,$9,0*
20,1,$1+$1,$8,$9,$2,$3,0*%
%AMFreePoly0*
4,1,15,-0.500000,0.200000,-0.480423,0.323607,-0.423607,0.435114,-0.335114,0.523607,-0.223607,0.580423,-0.100000,0.600000,0.500000,0.600000,0.500000,-0.600000,-0.100000,-0.600000,-0.223607,-0.580423,-0.335114,-0.523607,-0.423607,-0.435114,-0.480423,-0.323607,-0.500000,-0.200000,-0.500000,0.200000,-0.500000,0.200000,$1*%
%AMFreePoly1*
4,1,15,-0.500000,0.600000,0.100000,0.600000,0.223607,0.580423,0.335114,0.523607,0.423607,0.435114,0.480423,0.323607,0.500000,0.200000,0.500000,-0.200000,0.480423,-0.323607,0.423607,-0.435114,0.335114,-0.523607,0.223607,-0.580423,0.100000,-0.600000,-0.500000,-0.600000,-0.500000,0.600000,-0.500000,0.600000,$1*%
%AMFreePoly2*
4,1,23,0.550000,-0.750000,0.000000,-0.750000,0.000000,-0.745722,-0.065263,-0.745722,-0.191342,-0.711940,-0.304381,-0.646677,-0.396677,-0.554381,-0.461940,-0.441342,-0.495722,-0.315263,-0.495722,-0.250000,-0.500000,-0.250000,-0.500000,0.250000,-0.495722,0.250000,-0.495722,0.315263,-0.461940,0.441342,-0.396677,0.554381,-0.304381,0.646677,-0.191342,0.711940,-0.065263,0.745722,0.000000,0.745722,
0.000000,0.750000,0.550000,0.750000,0.550000,-0.750000,0.550000,-0.750000,$1*%
%AMFreePoly3*
4,1,23,0.000000,0.745722,0.065263,0.745722,0.191342,0.711940,0.304381,0.646677,0.396677,0.554381,0.461940,0.441342,0.495722,0.315263,0.495722,0.250000,0.500000,0.250000,0.500000,-0.250000,0.495722,-0.250000,0.495722,-0.315263,0.461940,-0.441342,0.396677,-0.554381,0.304381,-0.646677,0.191342,-0.711940,0.065263,-0.745722,0.000000,-0.745722,0.000000,-0.750000,-0.550000,-0.750000,
-0.550000,0.750000,0.000000,0.750000,0.000000,0.745722,0.000000,0.745722,$1*%
G04 Aperture macros list end*
%TA.AperFunction,SMDPad,CuDef*%
%ADD10RoundRect,0.135000X-0.135000X-0.185000X0.135000X-0.185000X0.135000X0.185000X-0.135000X0.185000X0*%
%TD*%
%TA.AperFunction,SMDPad,CuDef*%
%ADD11FreePoly0,0.000000*%
%TD*%
%TA.AperFunction,SMDPad,CuDef*%
%ADD12FreePoly1,0.000000*%
%TD*%
%TA.AperFunction,SMDPad,CuDef*%
%ADD13RoundRect,0.250000X-0.250000X0.250000X-0.250000X-0.250000X0.250000X-0.250000X0.250000X0.250000X0*%
%TD*%
%TA.AperFunction,SMDPad,CuDef*%
%ADD14RoundRect,0.218750X-0.218750X-0.256250X0.218750X-0.256250X0.218750X0.256250X-0.218750X0.256250X0*%
%TD*%
%TA.AperFunction,SMDPad,CuDef*%
%ADD15RoundRect,0.135000X0.135000X0.185000X-0.135000X0.185000X-0.135000X-0.185000X0.135000X-0.185000X0*%
%TD*%
%TA.AperFunction,SMDPad,CuDef*%
%ADD16RoundRect,0.150000X-0.825000X-0.150000X0.825000X-0.150000X0.825000X0.150000X-0.825000X0.150000X0*%
%TD*%
%TA.AperFunction,SMDPad,CuDef*%
%ADD17R,1.000000X0.800000*%
%TD*%
%TA.AperFunction,SMDPad,CuDef*%
%ADD18R,0.700000X1.500000*%
%TD*%
%TA.AperFunction,SMDPad,CuDef*%
%ADD19RoundRect,0.140000X0.140000X0.170000X-0.140000X0.170000X-0.140000X-0.170000X0.140000X-0.170000X0*%
%TD*%
%TA.AperFunction,SMDPad,CuDef*%
%ADD20R,0.400000X1.900000*%
%TD*%
%TA.AperFunction,SMDPad,CuDef*%
%ADD21RoundRect,0.135000X-0.185000X0.135000X-0.185000X-0.135000X0.185000X-0.135000X0.185000X0.135000X0*%
%TD*%
%TA.AperFunction,SMDPad,CuDef*%
%ADD22RoundRect,0.140000X-0.140000X-0.170000X0.140000X-0.170000X0.140000X0.170000X-0.140000X0.170000X0*%
%TD*%
%TA.AperFunction,SMDPad,CuDef*%
%ADD23RoundRect,0.150000X-0.587500X-0.150000X0.587500X-0.150000X0.587500X0.150000X-0.587500X0.150000X0*%
%TD*%
%TA.AperFunction,SMDPad,CuDef*%
%ADD24RoundRect,0.135000X0.185000X-0.135000X0.185000X0.135000X-0.185000X0.135000X-0.185000X-0.135000X0*%
%TD*%
%TA.AperFunction,SMDPad,CuDef*%
%ADD25R,1.000000X0.700000*%
%TD*%
%TA.AperFunction,SMDPad,CuDef*%
%ADD26R,0.600000X0.700000*%
%TD*%
%TA.AperFunction,SMDPad,CuDef*%
%ADD27RoundRect,0.250000X0.400000X0.275000X-0.400000X0.275000X-0.400000X-0.275000X0.400000X-0.275000X0*%
%TD*%
%TA.AperFunction,SMDPad,CuDef*%
%ADD28R,1.150000X1.700000*%
%TD*%
%TA.AperFunction,SMDPad,CuDef*%
%ADD29RoundRect,0.140000X0.170000X-0.140000X0.170000X0.140000X-0.170000X0.140000X-0.170000X-0.140000X0*%
%TD*%
%TA.AperFunction,SMDPad,CuDef*%
%ADD30RoundRect,0.150000X-0.425000X0.150000X-0.425000X-0.150000X0.425000X-0.150000X0.425000X0.150000X0*%
%TD*%
%TA.AperFunction,SMDPad,CuDef*%
%ADD31RoundRect,0.075000X-0.500000X0.075000X-0.500000X-0.075000X0.500000X-0.075000X0.500000X0.075000X0*%
%TD*%
%TA.AperFunction,SMDPad,CuDef*%
%ADD32RoundRect,0.250000X-0.750000X0.840000X-0.750000X-0.840000X0.750000X-0.840000X0.750000X0.840000X0*%
%TD*%
%TA.AperFunction,ComponentPad*%
%ADD33R,1.000000X1.000000*%
%TD*%
%TA.AperFunction,ComponentPad*%
%ADD34O,1.000000X1.000000*%
%TD*%
%TA.AperFunction,ComponentPad*%
%ADD35R,1.700000X1.700000*%
%TD*%
%TA.AperFunction,ComponentPad*%
%ADD36O,1.700000X1.700000*%
%TD*%
%TA.AperFunction,SMDPad,CuDef*%
%ADD37FreePoly2,90.000000*%
%TD*%
%TA.AperFunction,SMDPad,CuDef*%
%ADD38R,1.500000X1.000000*%
%TD*%
%TA.AperFunction,SMDPad,CuDef*%
%ADD39FreePoly3,90.000000*%
%TD*%
%TA.AperFunction,SMDPad,CuDef*%
%ADD40RoundRect,0.140000X-0.170000X0.140000X-0.170000X-0.140000X0.170000X-0.140000X0.170000X0.140000X0*%
%TD*%
%TA.AperFunction,SMDPad,CuDef*%
%ADD41RoundRect,0.150000X-0.512500X-0.150000X0.512500X-0.150000X0.512500X0.150000X-0.512500X0.150000X0*%
%TD*%
%TA.AperFunction,ViaPad*%
%ADD42C,0.600000*%
%TD*%
%TA.AperFunction,Conductor*%
%ADD43C,0.400000*%
%TD*%
%TA.AperFunction,Conductor*%
%ADD44C,0.300000*%
%TD*%
%TA.AperFunction,Conductor*%
%ADD45C,0.200000*%
%TD*%
G04 APERTURE END LIST*
D10*
X32895000Y18725000D03*
X33915000Y18725000D03*
D11*
X18675000Y11005000D03*
D12*
X19975000Y11005000D03*
D13*
X27875000Y9780000D03*
X27875000Y7280000D03*
D14*
X35667500Y18665000D03*
X37242500Y18665000D03*
D15*
X16815000Y3985000D03*
X15795000Y3985000D03*
D16*
X11050000Y14444000D03*
X11050000Y13174000D03*
X11050000Y11904000D03*
X11050000Y10634000D03*
X11050000Y9364000D03*
X11050000Y8094000D03*
X11050000Y6824000D03*
X11050000Y5554000D03*
X16000000Y5554000D03*
X16000000Y6824000D03*
X16000000Y8094000D03*
X16000000Y9364000D03*
X16000000Y10634000D03*
X16000000Y11904000D03*
X16000000Y13174000D03*
X16000000Y14444000D03*
D15*
X9215000Y12435000D03*
X8195000Y12435000D03*
D10*
X4625000Y17655000D03*
X5645000Y17655000D03*
D17*
X29995000Y17145000D03*
X29995000Y19355000D03*
X22695000Y17145000D03*
X22695000Y19355000D03*
D18*
X28595000Y16495000D03*
X25595000Y16495000D03*
X24095000Y16495000D03*
D19*
X13155000Y16005000D03*
X12195000Y16005000D03*
D20*
X14230000Y3040000D03*
X13030000Y3040000D03*
X11830000Y3040000D03*
D21*
X22245000Y13865000D03*
X22245000Y12845000D03*
D22*
X21995000Y1655000D03*
X22955000Y1655000D03*
D23*
X18732500Y15010000D03*
X18732500Y13110000D03*
X20607500Y14060000D03*
D10*
X12165000Y17705000D03*
X13185000Y17705000D03*
D24*
X8285000Y15075000D03*
X8285000Y16095000D03*
D23*
X23937500Y9243000D03*
X23937500Y7343000D03*
X25812500Y8293000D03*
D25*
X8425000Y1705000D03*
D26*
X10125000Y1705000D03*
X10125000Y3705000D03*
X8225000Y3705000D03*
D27*
X20310000Y5725000D03*
X18360000Y5725000D03*
D28*
X33785000Y2070000D03*
X38135000Y2070000D03*
D29*
X16775000Y1595000D03*
X16775000Y2555000D03*
D30*
X6555000Y13200000D03*
X6555000Y12400000D03*
D31*
X6555000Y11250000D03*
X6555000Y10250000D03*
X6555000Y9750000D03*
X6555000Y8750000D03*
D30*
X6555000Y7600000D03*
X6555000Y6800000D03*
X6555000Y6800000D03*
X6555000Y7600000D03*
D31*
X6555000Y8250000D03*
X6555000Y9250000D03*
X6555000Y10750000D03*
X6555000Y11750000D03*
D30*
X6555000Y12400000D03*
X6555000Y13200000D03*
D32*
X5980000Y15110000D03*
X2050000Y15110000D03*
X5980000Y4890000D03*
X2050000Y4890000D03*
D33*
X30725000Y2635000D03*
D34*
X29455000Y2635000D03*
X30725000Y3905000D03*
X29455000Y3905000D03*
X30725000Y5175000D03*
X29455000Y5175000D03*
D28*
X19265000Y18150000D03*
X14915000Y18150000D03*
D23*
X23937500Y13874000D03*
X23937500Y11974000D03*
X25812500Y12924000D03*
D28*
X33785000Y14040000D03*
X38135000Y14040000D03*
D14*
X7017500Y17705000D03*
X8592500Y17705000D03*
D35*
X42255000Y16350000D03*
D36*
X42255000Y13810000D03*
X42255000Y11270000D03*
X42255000Y8730000D03*
X42255000Y6190000D03*
X42255000Y3650000D03*
D37*
X25985000Y1800000D03*
D38*
X25985000Y3100000D03*
D39*
X25985000Y4400000D03*
D13*
X27925000Y13980000D03*
X27925000Y11480000D03*
D21*
X6725000Y2525000D03*
X6725000Y1505000D03*
D24*
X22245000Y8195000D03*
X22245000Y9215000D03*
D19*
X9185000Y13675000D03*
X8225000Y13675000D03*
D40*
X22245000Y4155000D03*
X22245000Y3195000D03*
D41*
X18347500Y3844000D03*
X18347500Y2894000D03*
X18347500Y1944000D03*
X20622500Y1944000D03*
X20622500Y3844000D03*
D42*
X3500000Y13250000D03*
X32750000Y7500000D03*
X32500000Y16750000D03*
X24250000Y5000000D03*
X4750000Y19000000D03*
X41500000Y1250000D03*
X39750000Y11500000D03*
X13000000Y12000000D03*
X2500000Y13250000D03*
X14000000Y11000000D03*
X14000000Y14250000D03*
X40000000Y18750000D03*
X33250000Y16750000D03*
X22000000Y6250000D03*
X12500000Y5000000D03*
X39250000Y18750000D03*
X40000000Y1250000D03*
X16500000Y15500000D03*
X26500000Y18250000D03*
X10750000Y18000000D03*
X31750000Y7500000D03*
X15500000Y2250000D03*
X39000000Y4250000D03*
X25750000Y11750000D03*
X4000000Y6250000D03*
X26500000Y19000000D03*
X22000000Y5500000D03*
X30750000Y13500000D03*
X25500000Y14000000D03*
X40750000Y1250000D03*
X31500000Y13500000D03*
X4000000Y4250000D03*
X23250000Y2500000D03*
X15500000Y3000000D03*
X11000000Y16000000D03*
X34000000Y16750000D03*
X37250000Y16000000D03*
X23250000Y3250000D03*
X25500000Y15000000D03*
X38000000Y4250000D03*
X30000000Y13500000D03*
X17750000Y750000D03*
X33750000Y7500000D03*
X39000000Y11500000D03*
X17500000Y12500000D03*
X25750000Y10750000D03*
X10000000Y16000000D03*
X38000000Y16000000D03*
X4250000Y2250000D03*
X4250000Y1250000D03*
X36500000Y16000000D03*
X5750000Y19000000D03*
X8250000Y11250000D03*
X1400000Y12200000D03*
X9397500Y16900000D03*
X36600000Y14100000D03*
X28980000Y11480000D03*
X38800000Y6500000D03*
X6500000Y17655000D03*
X5485006Y10097044D03*
X7900000Y9175000D03*
X7900000Y10375000D03*
X36600000Y2000000D03*
X34150000Y4350000D03*
X35000000Y18725000D03*
X26500000Y16500000D03*
X37200000Y17950000D03*
X26900000Y6000000D03*
X8100000Y7900000D03*
X6200000Y2500000D03*
X5350001Y11250001D03*
X7600000Y14500000D03*
X23800000Y5800000D03*
X11100000Y12704000D03*
X27600000Y1400000D03*
X17192318Y3594000D03*
X27800000Y16500000D03*
X19325000Y13100000D03*
X25900000Y3100000D03*
X20800000Y9900000D03*
X16100000Y17550000D03*
X15296144Y12374000D03*
X24130000Y8000000D03*
X11610000Y17600000D03*
X15450000Y11104000D03*
X22200000Y12300000D03*
X15250000Y13644000D03*
X16685447Y6024000D03*
X15400000Y7294000D03*
X15400000Y8564000D03*
X15400000Y9834000D03*
D43*
X15606000Y2894000D02*
X15500000Y3000000D01*
X18347500Y2894000D02*
X15606000Y2894000D01*
D44*
X9866000Y10634000D02*
X11050000Y10634000D01*
X9185000Y13425000D02*
X8195000Y12435000D01*
X9185000Y13675000D02*
X9185000Y13425000D01*
X8195000Y12435000D02*
X8195000Y12305000D01*
X8195000Y12305000D02*
X9866000Y10634000D01*
D43*
X9865000Y1965000D02*
X10830000Y1000000D01*
X7487500Y16600000D02*
X4952420Y16600000D01*
D44*
X5064000Y7836000D02*
X5780719Y7836000D01*
D43*
X10830000Y1000000D02*
X16180000Y1000000D01*
X8650000Y16900000D02*
X7787500Y16900000D01*
D44*
X4400000Y8500000D02*
X5064000Y7836000D01*
D43*
X7800000Y4600000D02*
X7500000Y4300000D01*
X7500000Y4300000D02*
X7500000Y3200000D01*
D44*
X6016719Y12400000D02*
X5780719Y12164000D01*
D43*
X19144000Y1944000D02*
X18347500Y1944000D01*
X9865000Y1965000D02*
X10125000Y1705000D01*
X12378970Y16900000D02*
X13155000Y16123970D01*
X6555000Y7600000D02*
X7400000Y7600000D01*
X19500000Y3400000D02*
X19500000Y2300000D01*
D44*
X5780719Y7836000D02*
X6016719Y7600000D01*
D43*
X13155000Y16005000D02*
X14439000Y16005000D01*
X16775000Y1595000D02*
X17998500Y1595000D01*
X4952420Y16600000D02*
X4400000Y16047580D01*
X16180000Y1000000D02*
X16775000Y1595000D01*
X18347500Y1552500D02*
X19100000Y800000D01*
X18391500Y3800000D02*
X19100000Y3800000D01*
D44*
X5780719Y12164000D02*
X4400000Y12164000D01*
D43*
X7787500Y16900000D02*
X7487500Y16600000D01*
X1400000Y12200000D02*
X4364000Y12200000D01*
X9397500Y16900000D02*
X12378970Y16900000D01*
X8650000Y17647500D02*
X8592500Y17705000D01*
X18347500Y3844000D02*
X18391500Y3800000D01*
X17998500Y1595000D02*
X18347500Y1944000D01*
X14439000Y16005000D02*
X16000000Y14444000D01*
X7400000Y7600000D02*
X7800000Y7200000D01*
X19500000Y2300000D02*
X19144000Y1944000D01*
X9130000Y2700000D02*
X9865000Y1965000D01*
D44*
X4400000Y11384720D02*
X4400000Y8500000D01*
D43*
X19100000Y3800000D02*
X19500000Y3400000D01*
X24985000Y800000D02*
X25985000Y1800000D01*
X9397500Y16900000D02*
X8650000Y16900000D01*
X19100000Y800000D02*
X24985000Y800000D01*
X18347500Y1944000D02*
X18347500Y1552500D01*
D44*
X6555000Y12400000D02*
X6016719Y12400000D01*
D43*
X8000000Y2700000D02*
X9130000Y2700000D01*
X7800000Y7200000D02*
X7800000Y4600000D01*
X8650000Y16900000D02*
X8650000Y17647500D01*
D44*
X6016719Y7600000D02*
X6555000Y7600000D01*
D43*
X13155000Y16123970D02*
X13155000Y16005000D01*
D44*
X4400000Y12164000D02*
X4400000Y11384720D01*
D43*
X4364000Y12200000D02*
X4400000Y12164000D01*
X4400000Y16047580D02*
X4400000Y11384720D01*
X7500000Y3200000D02*
X8000000Y2700000D01*
D44*
X20622500Y1944000D02*
X21706000Y1944000D01*
X21706000Y1944000D02*
X21995000Y1655000D01*
D43*
X22245000Y4155000D02*
X22243500Y4156500D01*
X20310000Y4156500D02*
X20622500Y3844000D01*
X25740000Y4155000D02*
X25985000Y4400000D01*
X20310000Y5725000D02*
X20310000Y4156500D01*
X22243500Y4156500D02*
X20310000Y4156500D01*
X22245000Y4155000D02*
X25740000Y4155000D01*
D44*
X25812500Y12924000D02*
X26869000Y12924000D01*
X26869000Y12924000D02*
X27925000Y13980000D01*
X38125000Y7175000D02*
X38125000Y11480000D01*
X38135000Y14040000D02*
X36660000Y14040000D01*
X38800000Y6500000D02*
X38125000Y7175000D01*
X28980000Y11480000D02*
X38125000Y11480000D01*
X38135000Y11490000D02*
X38135000Y14040000D01*
X38125000Y11480000D02*
X38135000Y11490000D01*
X28980000Y11480000D02*
X27925000Y11480000D01*
X36660000Y14040000D02*
X36600000Y14100000D01*
X6967500Y17655000D02*
X7017500Y17705000D01*
X6500000Y17655000D02*
X6967500Y17655000D01*
X6500000Y17655000D02*
X5645000Y17655000D01*
D45*
X5600000Y9900000D02*
X5750000Y9750000D01*
X9369000Y9775000D02*
X9774000Y9370000D01*
X10034032Y8763000D02*
X10381000Y8763000D01*
X10125000Y4230001D02*
X9400000Y4955001D01*
X5600000Y10550000D02*
X5600000Y9900000D01*
X9774000Y9023032D02*
X10034032Y8763000D01*
X5800000Y10750000D02*
X5600000Y10550000D01*
X9400000Y7600000D02*
X9894000Y8094000D01*
X7442501Y9775000D02*
X9369000Y9775000D01*
X7417501Y9750000D02*
X7442501Y9775000D01*
X9400000Y4955001D02*
X9400000Y7600000D01*
X6555000Y9750000D02*
X7417501Y9750000D01*
X10381000Y8763000D02*
X11050000Y8094000D01*
X5750000Y9750000D02*
X6555000Y9750000D01*
X9894000Y8094000D02*
X11050000Y8094000D01*
X10125000Y3705000D02*
X10125000Y4230001D01*
X6555000Y10750000D02*
X5800000Y10750000D01*
X9774000Y9370000D02*
X9774000Y9023032D01*
X7825000Y9250000D02*
X7900000Y9175000D01*
X6555000Y10250000D02*
X7417501Y10250000D01*
X8950000Y8125000D02*
X7900000Y9175000D01*
X9555397Y10225000D02*
X10416397Y9364000D01*
X8225000Y4230001D02*
X8950000Y4955001D01*
X10416397Y9364000D02*
X11050000Y9364000D01*
X7417501Y10250000D02*
X7442501Y10225000D01*
X8950000Y4955001D02*
X8950000Y8125000D01*
X7442501Y10225000D02*
X9555397Y10225000D01*
X6555000Y9250000D02*
X7825000Y9250000D01*
X8225000Y3705000D02*
X8225000Y4230001D01*
D44*
X38135000Y2070000D02*
X42255000Y6190000D01*
X36670000Y2070000D02*
X36600000Y2000000D01*
X27875000Y6850000D02*
X29455000Y5270000D01*
X34150000Y4350000D02*
X34250000Y4350000D01*
X34250000Y4350000D02*
X36600000Y2000000D01*
X38135000Y2070000D02*
X36670000Y2070000D01*
X27875000Y7280000D02*
X27875000Y6850000D01*
X29455000Y5270000D02*
X29455000Y5175000D01*
X25812500Y8293000D02*
X26388000Y8293000D01*
X26388000Y8293000D02*
X27875000Y9780000D01*
D43*
X35607500Y18725000D02*
X35667500Y18665000D01*
X35000000Y18725000D02*
X35607500Y18725000D01*
D44*
X35000000Y18725000D02*
X33915000Y18725000D01*
X25595000Y16495000D02*
X26495000Y16495000D01*
X37200000Y17950000D02*
X37932500Y17950000D01*
D43*
X37200000Y18622500D02*
X37242500Y18665000D01*
X37200000Y17950000D02*
X37200000Y18622500D01*
D44*
X26495000Y16495000D02*
X26500000Y16500000D01*
X26900000Y5190000D02*
X26900000Y6000000D01*
X29455000Y2635000D02*
X26900000Y5190000D01*
X37932500Y17950000D02*
X42072500Y13810000D01*
X42072500Y13810000D02*
X42255000Y13810000D01*
X6700000Y2500000D02*
X6725000Y2525000D01*
X6555000Y8250000D02*
X7750000Y8250000D01*
X7750000Y8250000D02*
X8100000Y7900000D01*
X6200000Y2500000D02*
X6700000Y2500000D01*
X8175000Y15075000D02*
X7600000Y14500000D01*
X6555000Y11250000D02*
X5350002Y11250000D01*
X5350002Y11250000D02*
X5350001Y11250001D01*
X8285000Y15075000D02*
X8175000Y15075000D01*
X23800000Y5800000D02*
X23825000Y5825000D01*
X11100000Y13148000D02*
X11074000Y13174000D01*
X23825000Y5825000D02*
X24925000Y5825000D01*
X27400000Y8300000D02*
X29100000Y8300000D01*
X38700000Y5175000D02*
X42255000Y8730000D01*
X30725000Y5175000D02*
X38700000Y5175000D01*
X11100000Y12704000D02*
X11100000Y13148000D01*
X24925000Y5825000D02*
X27400000Y8300000D01*
X11074000Y13174000D02*
X11050000Y13174000D01*
X30725000Y6675000D02*
X30725000Y5175000D01*
X29100000Y8300000D02*
X30725000Y6675000D01*
X31825000Y3150000D02*
X31825000Y1875000D01*
X31070000Y3905000D02*
X31825000Y3150000D01*
X30725000Y3905000D02*
X31070000Y3905000D01*
X31350000Y1400000D02*
X27600000Y1400000D01*
D43*
X17192318Y3607682D02*
X16815000Y3985000D01*
D44*
X31825000Y1875000D02*
X31350000Y1400000D01*
D43*
X17192318Y3594000D02*
X17192318Y3607682D01*
D44*
X18680000Y13100000D02*
X18670000Y13110000D01*
X18670000Y13110000D02*
X18670000Y11010000D01*
X19325000Y13100000D02*
X18680000Y13100000D01*
X27805000Y16495000D02*
X27800000Y16500000D01*
X18670000Y11010000D02*
X18675000Y11005000D01*
X28595000Y16495000D02*
X27805000Y16495000D01*
X19975000Y11005000D02*
X19975000Y13365000D01*
X19975000Y10725000D02*
X20800000Y9900000D01*
X19975000Y13365000D02*
X20670000Y14060000D01*
X19975000Y11005000D02*
X19975000Y10725000D01*
X15500000Y18150000D02*
X14915000Y18150000D01*
X16100000Y17550000D02*
X15500000Y18150000D01*
X16100000Y17550000D02*
X18640000Y15010000D01*
X13185000Y17705000D02*
X14470000Y17705000D01*
X14470000Y17705000D02*
X14915000Y18150000D01*
X18640000Y15010000D02*
X18670000Y15010000D01*
X22245000Y10281500D02*
X23937500Y11974000D01*
X22245000Y9215000D02*
X22245000Y10281500D01*
X15649240Y11904000D02*
X16417678Y11904000D01*
X15296144Y12257096D02*
X15649240Y11904000D01*
X19106678Y9215000D02*
X22245000Y9215000D01*
X15296144Y12374000D02*
X15296144Y12257096D01*
X16417678Y11904000D02*
X19106678Y9215000D01*
X23937500Y13874000D02*
X22254000Y13874000D01*
X22254000Y13874000D02*
X22245000Y13865000D01*
X22245000Y8195000D02*
X22889500Y8195000D01*
X22889500Y8195000D02*
X23937500Y9243000D01*
D43*
X24130000Y7535500D02*
X23937500Y7343000D01*
D44*
X22200000Y12800000D02*
X22245000Y12845000D01*
D43*
X24130000Y8000000D02*
X24130000Y7535500D01*
D44*
X22200000Y12300000D02*
X22200000Y12800000D01*
X12060000Y17600000D02*
X12165000Y17705000D01*
X11610000Y17600000D02*
X12060000Y17600000D01*
X13800000Y9571678D02*
X13800000Y5980000D01*
X9746000Y11904000D02*
X9215000Y12435000D01*
X11050000Y11904000D02*
X9746000Y11904000D01*
X11467678Y11904000D02*
X13800000Y9571678D01*
X11050000Y11904000D02*
X11467678Y11904000D01*
X13800000Y5980000D02*
X15795000Y3985000D01*
D43*
X15250000Y13450000D02*
X15526000Y13174000D01*
X15250000Y13644000D02*
X15250000Y13450000D01*
X15526000Y13174000D02*
X16000000Y13174000D01*
D44*
X11830000Y3040000D02*
X11830000Y4774000D01*
X11830000Y4774000D02*
X11050000Y5554000D01*
X14230000Y4270000D02*
X11676000Y6824000D01*
X14230000Y3040000D02*
X14230000Y4270000D01*
X11676000Y6824000D02*
X11050000Y6824000D01*
%TA.AperFunction,Conductor*%
G36*
X21887539Y19679815D02*
G01*
X21933294Y19627011D01*
X21944500Y19575500D01*
X21944500Y18930322D01*
X21959032Y18857265D01*
X21959033Y18857261D01*
X21959034Y18857260D01*
X22014399Y18774399D01*
X22097260Y18719034D01*
X22097264Y18719033D01*
X22170321Y18704501D01*
X22170324Y18704500D01*
X22170326Y18704500D01*
X23219676Y18704500D01*
X23219677Y18704501D01*
X23292740Y18719034D01*
X23375601Y18774399D01*
X23430966Y18857260D01*
X23445500Y18930326D01*
X23445500Y19575500D01*
X23465185Y19642539D01*
X23517989Y19688294D01*
X23569500Y19699500D01*
X29120500Y19699500D01*
X29187539Y19679815D01*
X29233294Y19627011D01*
X29244500Y19575500D01*
X29244500Y18930322D01*
X29259032Y18857265D01*
X29259033Y18857261D01*
X29259034Y18857260D01*
X29314399Y18774399D01*
X29397260Y18719034D01*
X29397264Y18719033D01*
X29470321Y18704501D01*
X29470324Y18704500D01*
X29470326Y18704500D01*
X30519676Y18704500D01*
X30519677Y18704501D01*
X30592740Y18719034D01*
X30675601Y18774399D01*
X30730966Y18857260D01*
X30745500Y18930326D01*
X30745500Y18975001D01*
X32326181Y18975001D01*
X32326182Y18975000D01*
X32645000Y18975000D01*
X32645000Y19330622D01*
X33145000Y19330622D01*
X33145000Y18119380D01*
X33235557Y18151066D01*
X33341064Y18228935D01*
X33342474Y18230844D01*
X33344555Y18232425D01*
X33347636Y18235505D01*
X33348057Y18235084D01*
X33398120Y18273096D01*
X33467776Y18278556D01*
X33529327Y18245491D01*
X33529927Y18244894D01*
X33552897Y18221924D01*
X33552900Y18221922D01*
X33663233Y18167984D01*
X33668482Y18165418D01*
X33743418Y18154500D01*
X33743423Y18154500D01*
X34086577Y18154500D01*
X34086582Y18154500D01*
X34161518Y18165418D01*
X34248782Y18208079D01*
X34277099Y18221922D01*
X34277102Y18221924D01*
X34343360Y18288181D01*
X34370287Y18302885D01*
X34396106Y18319477D01*
X34402306Y18320369D01*
X34404683Y18321666D01*
X34431041Y18324500D01*
X34570614Y18324500D01*
X34637653Y18304815D01*
X34658295Y18288181D01*
X34661985Y18284491D01*
X34661986Y18284490D01*
X34661988Y18284489D01*
X34787511Y18212018D01*
X34787512Y18212018D01*
X34787515Y18212016D01*
X34927525Y18174500D01*
X34975872Y18174500D01*
X35042911Y18154815D01*
X35075140Y18124809D01*
X35112766Y18074545D01*
X35113528Y18073528D01*
X35213554Y17998650D01*
X35221549Y17992665D01*
X35221552Y17992663D01*
X35227333Y17990507D01*
X35347978Y17945509D01*
X35377318Y17942355D01*
X35403855Y17939501D01*
X35403870Y17939500D01*
X35931130Y17939500D01*
X35931144Y17939501D01*
X35953023Y17941854D01*
X35987022Y17945509D01*
X36113450Y17992664D01*
X36221472Y18073528D01*
X36302336Y18181550D01*
X36321532Y18233017D01*
X36338818Y18279362D01*
X36351228Y18295942D01*
X36359382Y18314980D01*
X36371743Y18323347D01*
X36380689Y18335296D01*
X36400095Y18342535D01*
X36417245Y18354141D01*
X36432165Y18354497D01*
X36446153Y18359713D01*
X36466391Y18355311D01*
X36487095Y18355803D01*
X36499841Y18348034D01*
X36514426Y18344861D01*
X36529069Y18330219D01*
X36546755Y18319438D01*
X36557533Y18301755D01*
X36563832Y18295456D01*
X36566537Y18290209D01*
X36569119Y18284894D01*
X36607664Y18181550D01*
X36640859Y18137207D01*
X36646033Y18126555D01*
X36649941Y18103309D01*
X36658180Y18081220D01*
X36656541Y18064060D01*
X36657619Y18057652D01*
X36655445Y18052577D01*
X36654271Y18040285D01*
X36649500Y18022475D01*
X36649500Y17877525D01*
X36687016Y17737515D01*
X36687017Y17737512D01*
X36759488Y17611989D01*
X36759490Y17611987D01*
X36759491Y17611985D01*
X36861985Y17509491D01*
X36861986Y17509490D01*
X36861988Y17509489D01*
X36987511Y17437018D01*
X36987512Y17437018D01*
X36987515Y17437016D01*
X37127525Y17399500D01*
X37127528Y17399500D01*
X37272472Y17399500D01*
X37272475Y17399500D01*
X37412485Y17437016D01*
X37538015Y17509491D01*
X37541705Y17513181D01*
X37568632Y17527885D01*
X37594451Y17544477D01*
X37600651Y17545369D01*
X37603028Y17546666D01*
X37629386Y17549500D01*
X37715245Y17549500D01*
X37782284Y17529815D01*
X37802926Y17513181D01*
X41146056Y14170051D01*
X41179541Y14108728D01*
X41180848Y14062973D01*
X41159759Y13929815D01*
X41154500Y13896611D01*
X41154500Y13723389D01*
X41155697Y13715830D01*
X41181399Y13553552D01*
X41181598Y13552299D01*
X41232588Y13395368D01*
X41235128Y13387553D01*
X41239239Y13379484D01*
X41313768Y13233212D01*
X41415586Y13093072D01*
X41538072Y12970586D01*
X41678212Y12868768D01*
X41832555Y12790127D01*
X41997299Y12736598D01*
X42168389Y12709500D01*
X42168390Y12709500D01*
X42341610Y12709500D01*
X42341611Y12709500D01*
X42512701Y12736598D01*
X42677445Y12790127D01*
X42831788Y12868768D01*
X42971928Y12970586D01*
X43094414Y13093072D01*
X43196232Y13233212D01*
X43274873Y13387555D01*
X43328402Y13552299D01*
X43355500Y13723389D01*
X43355500Y13896611D01*
X43328402Y14067701D01*
X43274873Y14232445D01*
X43196232Y14386788D01*
X43094414Y14526928D01*
X42971928Y14649414D01*
X42831788Y14751232D01*
X42677445Y14829873D01*
X42512701Y14883402D01*
X42512699Y14883403D01*
X42512698Y14883403D01*
X42364555Y14906866D01*
X42341611Y14910500D01*
X42168389Y14910500D01*
X42145445Y14906866D01*
X41997302Y14883403D01*
X41832557Y14829874D01*
X41832547Y14829870D01*
X41771367Y14798697D01*
X41702698Y14785801D01*
X41637957Y14812078D01*
X41627392Y14821501D01*
X41460573Y14988320D01*
X41427088Y15049643D01*
X41432072Y15119335D01*
X41473944Y15175268D01*
X41539408Y15199685D01*
X41548254Y15200001D01*
X42004999Y15200001D01*
X42005000Y15200002D01*
X42005000Y15916988D01*
X42062007Y15884075D01*
X42189174Y15850000D01*
X42320826Y15850000D01*
X42447993Y15884075D01*
X42505000Y15916988D01*
X42505000Y15200001D01*
X43149786Y15200001D01*
X43149808Y15200003D01*
X43174869Y15202909D01*
X43174873Y15202910D01*
X43277474Y15248212D01*
X43277479Y15248215D01*
X43356785Y15327521D01*
X43356788Y15327526D01*
X43402089Y15430123D01*
X43402089Y15430125D01*
X43404999Y15455206D01*
X43405000Y15455209D01*
X43405000Y16100000D01*
X42688012Y16100000D01*
X42720925Y16157007D01*
X42755000Y16284174D01*
X42755000Y16415826D01*
X42720925Y16542993D01*
X42688012Y16600000D01*
X43404999Y16600000D01*
X43404999Y17244786D01*
X43404997Y17244809D01*
X43402091Y17269870D01*
X43402090Y17269874D01*
X43356788Y17372475D01*
X43356785Y17372480D01*
X43277479Y17451786D01*
X43277474Y17451789D01*
X43174876Y17497090D01*
X43149794Y17500000D01*
X42505000Y17500000D01*
X42505000Y16783012D01*
X42447993Y16815925D01*
X42320826Y16850000D01*
X42189174Y16850000D01*
X42062007Y16815925D01*
X42005000Y16783012D01*
X42005000Y17500000D01*
X41360214Y17500000D01*
X41360191Y17499998D01*
X41335130Y17497092D01*
X41335126Y17497091D01*
X41232525Y17451789D01*
X41232520Y17451786D01*
X41153214Y17372480D01*
X41153211Y17372475D01*
X41107910Y17269878D01*
X41107910Y17269876D01*
X41105000Y17244795D01*
X41105000Y16600000D01*
X41821988Y16600000D01*
X41789075Y16542993D01*
X41755000Y16415826D01*
X41755000Y16284174D01*
X41789075Y16157007D01*
X41821988Y16100000D01*
X41105001Y16100000D01*
X41105001Y15643254D01*
X41085316Y15576215D01*
X41032512Y15530460D01*
X40963354Y15520516D01*
X40899798Y15549541D01*
X40893320Y15555573D01*
X38178415Y18270478D01*
X38178413Y18270480D01*
X38087088Y18323207D01*
X38022405Y18340539D01*
X37962746Y18376903D01*
X37932217Y18439750D01*
X37930500Y18460313D01*
X37930500Y18966130D01*
X37930499Y18966145D01*
X37924545Y19021518D01*
X37924491Y19022022D01*
X37915989Y19044818D01*
X37877337Y19148448D01*
X37877335Y19148451D01*
X37872396Y19155049D01*
X37796472Y19256472D01*
X37688450Y19337336D01*
X37688447Y19337338D01*
X37562024Y19384491D01*
X37506144Y19390500D01*
X37506130Y19390500D01*
X36978870Y19390500D01*
X36978855Y19390500D01*
X36922975Y19384491D01*
X36796552Y19337338D01*
X36796549Y19337336D01*
X36688528Y19256472D01*
X36607664Y19148451D01*
X36607662Y19148448D01*
X36571182Y19050639D01*
X36529311Y18994705D01*
X36463846Y18970288D01*
X36395573Y18985140D01*
X36346168Y19034545D01*
X36338818Y19050639D01*
X36302337Y19148448D01*
X36302335Y19148451D01*
X36297396Y19155049D01*
X36221472Y19256472D01*
X36113450Y19337336D01*
X36113447Y19337338D01*
X35987024Y19384491D01*
X35931144Y19390500D01*
X35931130Y19390500D01*
X35403870Y19390500D01*
X35403855Y19390500D01*
X35347975Y19384491D01*
X35221553Y19337338D01*
X35169430Y19298320D01*
X35103965Y19273905D01*
X35078940Y19274649D01*
X35072475Y19275500D01*
X34927525Y19275500D01*
X34798993Y19241060D01*
X34787511Y19237983D01*
X34661988Y19165512D01*
X34661982Y19165507D01*
X34658295Y19161819D01*
X34631367Y19147116D01*
X34605549Y19130523D01*
X34599348Y19129632D01*
X34596972Y19128334D01*
X34570614Y19125500D01*
X34431041Y19125500D01*
X34364002Y19145185D01*
X34343360Y19161819D01*
X34277102Y19228077D01*
X34277099Y19228079D01*
X34161521Y19284581D01*
X34161519Y19284582D01*
X34161518Y19284582D01*
X34086582Y19295500D01*
X33743418Y19295500D01*
X33668482Y19284582D01*
X33668480Y19284582D01*
X33668478Y19284581D01*
X33552900Y19228079D01*
X33552899Y19228079D01*
X33529926Y19205105D01*
X33468602Y19171621D01*
X33398911Y19176607D01*
X33347920Y19214780D01*
X33347636Y19214495D01*
X33345659Y19216472D01*
X33342978Y19218479D01*
X33342478Y19219152D01*
X33341066Y19221065D01*
X33235559Y19298934D01*
X33235557Y19298935D01*
X33145000Y19330622D01*
X32645000Y19330622D01*
X32644999Y19330622D01*
X32554442Y19298935D01*
X32554440Y19298934D01*
X32448934Y19221066D01*
X32371066Y19115560D01*
X32371065Y19115558D01*
X32327755Y18991788D01*
X32327755Y18991786D01*
X32326181Y18975001D01*
X30745500Y18975001D01*
X30745500Y19575500D01*
X30765185Y19642539D01*
X30817989Y19688294D01*
X30869500Y19699500D01*
X41952405Y19699500D01*
X41995572Y19699500D01*
X42004418Y19699184D01*
X42233020Y19682835D01*
X42250529Y19680317D01*
X42470144Y19632542D01*
X42487103Y19627563D01*
X42697694Y19549017D01*
X42713777Y19541673D01*
X42911036Y19433960D01*
X42925919Y19424395D01*
X43105836Y19289711D01*
X43119207Y19278125D01*
X43278124Y19119208D01*
X43289710Y19105837D01*
X43424394Y18925920D01*
X43433959Y18911037D01*
X43541669Y18713783D01*
X43549019Y18697689D01*
X43622417Y18500898D01*
X43627559Y18487113D01*
X43632543Y18470138D01*
X43680316Y18250530D01*
X43682834Y18233018D01*
X43699184Y18004419D01*
X43699500Y17995573D01*
X43699500Y2004428D01*
X43699184Y1995582D01*
X43682834Y1766983D01*
X43680316Y1749471D01*
X43632543Y1529863D01*
X43627559Y1512888D01*
X43549019Y1302312D01*
X43541669Y1286218D01*
X43433959Y1088964D01*
X43424394Y1074081D01*
X43289710Y894164D01*
X43278124Y880793D01*
X43119207Y721876D01*
X43105836Y710290D01*
X42925919Y575606D01*
X42911036Y566041D01*
X42713782Y458331D01*
X42697688Y450981D01*
X42487112Y372441D01*
X42470137Y367457D01*
X42250529Y319684D01*
X42233017Y317166D01*
X42004418Y300816D01*
X41995572Y300500D01*
X25421965Y300500D01*
X25354926Y320185D01*
X25309171Y372989D01*
X25299227Y442147D01*
X25328252Y505703D01*
X25334284Y512181D01*
X25830284Y1008181D01*
X25891607Y1041666D01*
X25917965Y1044500D01*
X26300827Y1044500D01*
X26323773Y1047521D01*
X26366956Y1053206D01*
X26494123Y1087281D01*
X26544889Y1108309D01*
X26555734Y1112801D01*
X26555737Y1112803D01*
X26555743Y1112805D01*
X26669757Y1178631D01*
X26722673Y1219235D01*
X26815765Y1312327D01*
X26838951Y1342545D01*
X26895379Y1383748D01*
X26965125Y1387903D01*
X27026045Y1353692D01*
X27057101Y1299156D01*
X27078517Y1219235D01*
X27087017Y1187512D01*
X27159488Y1061989D01*
X27159490Y1061987D01*
X27159491Y1061985D01*
X27261985Y959491D01*
X27261986Y959490D01*
X27261988Y959489D01*
X27387511Y887018D01*
X27387512Y887018D01*
X27387515Y887016D01*
X27527525Y849500D01*
X27527528Y849500D01*
X27672472Y849500D01*
X27672475Y849500D01*
X27812485Y887016D01*
X27938015Y959491D01*
X27941705Y963181D01*
X28003028Y996666D01*
X28029386Y999500D01*
X31402725Y999500D01*
X31402727Y999500D01*
X31504588Y1026793D01*
X31595913Y1079520D01*
X31691608Y1175215D01*
X32910001Y1175215D01*
X32910002Y1175192D01*
X32912908Y1150131D01*
X32912909Y1150127D01*
X32958211Y1047526D01*
X32958214Y1047521D01*
X33037520Y968215D01*
X33037525Y968212D01*
X33140123Y922911D01*
X33165206Y920001D01*
X33534999Y920001D01*
X34035000Y920001D01*
X34404786Y920001D01*
X34404808Y920003D01*
X34429869Y922909D01*
X34429873Y922910D01*
X34532474Y968212D01*
X34532479Y968215D01*
X34611785Y1047521D01*
X34611788Y1047526D01*
X34657089Y1150123D01*
X34657089Y1150125D01*
X34659999Y1175206D01*
X34660000Y1175209D01*
X34660000Y1820000D01*
X34035000Y1820000D01*
X34035000Y920001D01*
X33534999Y920001D01*
X33535000Y920002D01*
X33535000Y1820000D01*
X32910001Y1820000D01*
X32910001Y1175215D01*
X31691608Y1175215D01*
X32145480Y1629087D01*
X32160042Y1654309D01*
X32198207Y1720413D01*
X32225500Y1822273D01*
X32225500Y2964795D01*
X32910000Y2964795D01*
X32910000Y2320000D01*
X33535000Y2320000D01*
X34035000Y2320000D01*
X34659999Y2320000D01*
X34659999Y2964786D01*
X34659997Y2964809D01*
X34657091Y2989870D01*
X34657090Y2989873D01*
X34628691Y3054192D01*
X34494189Y3188694D01*
X34429876Y3217090D01*
X34404794Y3220000D01*
X34035000Y3220000D01*
X34035000Y2320000D01*
X33535000Y2320000D01*
X33535000Y3220000D01*
X33165214Y3220000D01*
X33165191Y3219998D01*
X33140130Y3217092D01*
X33140126Y3217091D01*
X33037525Y3171789D01*
X33037520Y3171786D01*
X32958214Y3092480D01*
X32958211Y3092475D01*
X32912910Y2989878D01*
X32912910Y2989876D01*
X32910000Y2964795D01*
X32225500Y2964795D01*
X32225500Y3202727D01*
X32201178Y3293500D01*
X32201178Y3293501D01*
X32201178Y3293502D01*
X32199197Y3300892D01*
X32198207Y3304588D01*
X32145480Y3395913D01*
X31480501Y4060892D01*
X31449153Y4118302D01*
X31448427Y4118081D01*
X31447368Y4121569D01*
X31447016Y4122215D01*
X31446672Y4123864D01*
X31446659Y4123908D01*
X31446658Y4123913D01*
X31445135Y4127591D01*
X31390087Y4260489D01*
X31390080Y4260502D01*
X31307949Y4383419D01*
X31239049Y4452319D01*
X31236273Y4457402D01*
X31231461Y4460628D01*
X31219713Y4487730D01*
X31205564Y4513642D01*
X31205977Y4519419D01*
X31203673Y4524734D01*
X31208441Y4553878D01*
X31210548Y4583334D01*
X31214263Y4589460D01*
X31214955Y4593687D01*
X31227932Y4611998D01*
X31234608Y4623003D01*
X31236774Y4625408D01*
X31307951Y4696584D01*
X31328170Y4726845D01*
X31334170Y4733503D01*
X31356597Y4747310D01*
X31376801Y4764195D01*
X31387717Y4766468D01*
X31393669Y4770132D01*
X31404322Y4769926D01*
X31426292Y4774500D01*
X33544648Y4774500D01*
X33611687Y4754815D01*
X33657442Y4702011D01*
X33667386Y4632853D01*
X33652035Y4588500D01*
X33637017Y4562489D01*
X33637016Y4562485D01*
X33599500Y4422475D01*
X33599500Y4277525D01*
X33637016Y4137515D01*
X33637017Y4137512D01*
X33709488Y4011989D01*
X33709490Y4011987D01*
X33709491Y4011985D01*
X33811985Y3909491D01*
X33811986Y3909490D01*
X33811988Y3909489D01*
X33937511Y3837018D01*
X33937512Y3837018D01*
X33937515Y3837016D01*
X34077525Y3799500D01*
X34077528Y3799500D01*
X34182745Y3799500D01*
X34249784Y3779815D01*
X34270426Y3763181D01*
X36013181Y2020426D01*
X36046666Y1959103D01*
X36049500Y1932745D01*
X36049500Y1927525D01*
X36086350Y1790002D01*
X36087017Y1787512D01*
X36159488Y1661989D01*
X36159490Y1661987D01*
X36159491Y1661985D01*
X36261985Y1559491D01*
X36261986Y1559490D01*
X36261988Y1559489D01*
X36387511Y1487018D01*
X36387512Y1487018D01*
X36387515Y1487016D01*
X36527525Y1449500D01*
X36527528Y1449500D01*
X36672472Y1449500D01*
X36672475Y1449500D01*
X36812485Y1487016D01*
X36938015Y1559491D01*
X37011706Y1633182D01*
X37038636Y1647887D01*
X37064452Y1664477D01*
X37070654Y1665369D01*
X37073030Y1666666D01*
X37099387Y1669500D01*
X37185500Y1669500D01*
X37252539Y1649815D01*
X37298294Y1597011D01*
X37309500Y1545500D01*
X37309500Y1195322D01*
X37324032Y1122265D01*
X37324033Y1122261D01*
X37335900Y1104501D01*
X37379399Y1039399D01*
X37443355Y996666D01*
X37462260Y984034D01*
X37462264Y984033D01*
X37535321Y969501D01*
X37535324Y969500D01*
X37535326Y969500D01*
X38734676Y969500D01*
X38734677Y969501D01*
X38807740Y984034D01*
X38890601Y1039399D01*
X38945966Y1122260D01*
X38960500Y1195326D01*
X38960500Y2277746D01*
X38980185Y2344785D01*
X38996814Y2365422D01*
X40368003Y3736611D01*
X41154500Y3736611D01*
X41154500Y3563390D01*
X41181025Y3395913D01*
X41181598Y3392299D01*
X41235127Y3227555D01*
X41313768Y3073212D01*
X41415586Y2933072D01*
X41538072Y2810586D01*
X41678212Y2708768D01*
X41832555Y2630127D01*
X41997299Y2576598D01*
X42168389Y2549500D01*
X42168390Y2549500D01*
X42341610Y2549500D01*
X42341611Y2549500D01*
X42512701Y2576598D01*
X42677445Y2630127D01*
X42831788Y2708768D01*
X42971928Y2810586D01*
X43094414Y2933072D01*
X43196232Y3073212D01*
X43274873Y3227555D01*
X43328402Y3392299D01*
X43355500Y3563389D01*
X43355500Y3736611D01*
X43328402Y3907701D01*
X43274873Y4072445D01*
X43196232Y4226788D01*
X43094414Y4366928D01*
X42971928Y4489414D01*
X42831788Y4591232D01*
X42760323Y4627645D01*
X42677447Y4669872D01*
X42677446Y4669873D01*
X42677445Y4669873D01*
X42512701Y4723402D01*
X42512699Y4723403D01*
X42512698Y4723403D01*
X42381271Y4744219D01*
X42341611Y4750500D01*
X42168389Y4750500D01*
X42128728Y4744219D01*
X41997302Y4723403D01*
X41960004Y4711284D01*
X41880647Y4685499D01*
X41832552Y4669872D01*
X41678211Y4591232D01*
X41598256Y4533141D01*
X41538072Y4489414D01*
X41538070Y4489412D01*
X41538069Y4489412D01*
X41415588Y4366931D01*
X41415588Y4366930D01*
X41415586Y4366928D01*
X41381682Y4320263D01*
X41313768Y4226789D01*
X41235128Y4072448D01*
X41235127Y4072446D01*
X41235127Y4072445D01*
X41215482Y4011985D01*
X41181597Y3907698D01*
X41154500Y3736611D01*
X40368003Y3736611D01*
X41755401Y5124010D01*
X41816722Y5157493D01*
X41881393Y5154259D01*
X41997299Y5116598D01*
X42168389Y5089500D01*
X42168390Y5089500D01*
X42341610Y5089500D01*
X42341611Y5089500D01*
X42512701Y5116598D01*
X42677445Y5170127D01*
X42831788Y5248768D01*
X42971928Y5350586D01*
X43094414Y5473072D01*
X43196232Y5613212D01*
X43274873Y5767555D01*
X43328402Y5932299D01*
X43355500Y6103389D01*
X43355500Y6276611D01*
X43328402Y6447701D01*
X43274873Y6612445D01*
X43196232Y6766788D01*
X43094414Y6906928D01*
X42971928Y7029414D01*
X42831788Y7131232D01*
X42677445Y7209873D01*
X42512701Y7263402D01*
X42512699Y7263403D01*
X42512698Y7263403D01*
X42381271Y7284219D01*
X42341611Y7290500D01*
X42168389Y7290500D01*
X42128728Y7284219D01*
X41997302Y7263403D01*
X41832552Y7209872D01*
X41678211Y7131232D01*
X41634264Y7099302D01*
X41538072Y7029414D01*
X41538070Y7029412D01*
X41538069Y7029412D01*
X41415588Y6906931D01*
X41415588Y6906930D01*
X41415586Y6906928D01*
X41385091Y6864955D01*
X41313768Y6766789D01*
X41235128Y6612448D01*
X41181597Y6447698D01*
X41154500Y6276611D01*
X41154500Y6103390D01*
X41181597Y5932302D01*
X41219256Y5816400D01*
X41221251Y5746559D01*
X41189006Y5690401D01*
X38705426Y3206819D01*
X38644103Y3173334D01*
X38617745Y3170500D01*
X37535323Y3170500D01*
X37462264Y3155968D01*
X37462260Y3155967D01*
X37379399Y3100601D01*
X37324033Y3017740D01*
X37324032Y3017736D01*
X37309500Y2944679D01*
X37309500Y2594500D01*
X37289815Y2527461D01*
X37237011Y2481706D01*
X37185500Y2470500D01*
X36919295Y2470500D01*
X36857295Y2487113D01*
X36812485Y2512984D01*
X36672475Y2550500D01*
X36672472Y2550500D01*
X36667255Y2550500D01*
X36600216Y2570185D01*
X36579574Y2586819D01*
X34708101Y4458292D01*
X34702663Y4466643D01*
X34697419Y4470470D01*
X34688827Y4487889D01*
X34680132Y4501241D01*
X34677730Y4507450D01*
X34662984Y4562485D01*
X34643167Y4596808D01*
X34639702Y4605768D01*
X34637557Y4631399D01*
X34631492Y4656401D01*
X34634692Y4665648D01*
X34633877Y4675394D01*
X34645930Y4698117D01*
X34654345Y4722427D01*
X34662034Y4728474D01*
X34666619Y4737117D01*
X34689045Y4749717D01*
X34709266Y4765618D01*
X34721572Y4767990D01*
X34727534Y4771339D01*
X34736260Y4770821D01*
X34755352Y4774500D01*
X38752725Y4774500D01*
X38752727Y4774500D01*
X38854588Y4801793D01*
X38945913Y4854520D01*
X41755401Y7664010D01*
X41816722Y7697493D01*
X41881393Y7694259D01*
X41997299Y7656598D01*
X42168389Y7629500D01*
X42168390Y7629500D01*
X42341610Y7629500D01*
X42341611Y7629500D01*
X42512701Y7656598D01*
X42677445Y7710127D01*
X42831788Y7788768D01*
X42971928Y7890586D01*
X43094414Y8013072D01*
X43196232Y8153212D01*
X43274873Y8307555D01*
X43328402Y8472299D01*
X43355500Y8643389D01*
X43355500Y8816611D01*
X43328402Y8987701D01*
X43274873Y9152445D01*
X43196232Y9306788D01*
X43094414Y9446928D01*
X42971928Y9569414D01*
X42831788Y9671232D01*
X42677445Y9749873D01*
X42512701Y9803402D01*
X42512699Y9803403D01*
X42512698Y9803403D01*
X42360388Y9827526D01*
X42341611Y9830500D01*
X42168389Y9830500D01*
X42149612Y9827526D01*
X41997302Y9803403D01*
X41832552Y9749872D01*
X41678211Y9671232D01*
X41602711Y9616377D01*
X41538072Y9569414D01*
X41538070Y9569412D01*
X41538069Y9569412D01*
X41415588Y9446931D01*
X41415588Y9446930D01*
X41415586Y9446928D01*
X41378671Y9396119D01*
X41313768Y9306789D01*
X41235128Y9152448D01*
X41235127Y9152446D01*
X41235127Y9152445D01*
X41212843Y9083863D01*
X41181597Y8987698D01*
X41158489Y8841794D01*
X41154500Y8816611D01*
X41154500Y8643389D01*
X41156677Y8629646D01*
X41181597Y8472302D01*
X41219256Y8356400D01*
X41221251Y8286559D01*
X41189006Y8230401D01*
X39540529Y6581924D01*
X39479206Y6548439D01*
X39409514Y6553423D01*
X39353581Y6595295D01*
X39333073Y6637511D01*
X39331743Y6642476D01*
X39312984Y6712485D01*
X39291061Y6750456D01*
X39240511Y6838012D01*
X39240506Y6838018D01*
X39138017Y6940507D01*
X39138011Y6940512D01*
X39012488Y7012983D01*
X39012489Y7012983D01*
X38984767Y7020411D01*
X38872475Y7050500D01*
X38872472Y7050500D01*
X38867255Y7050500D01*
X38800216Y7070185D01*
X38779574Y7086819D01*
X38561819Y7304574D01*
X38528334Y7365897D01*
X38525500Y7392255D01*
X38525500Y11356611D01*
X41154500Y11356611D01*
X41154500Y11183389D01*
X41155447Y11177408D01*
X41179751Y11023957D01*
X41181598Y11012299D01*
X41224820Y10879275D01*
X41235128Y10847553D01*
X41297134Y10725858D01*
X41313768Y10693212D01*
X41415586Y10553072D01*
X41538072Y10430586D01*
X41678212Y10328768D01*
X41832555Y10250127D01*
X41997299Y10196598D01*
X42168389Y10169500D01*
X42168390Y10169500D01*
X42341610Y10169500D01*
X42341611Y10169500D01*
X42512701Y10196598D01*
X42677445Y10250127D01*
X42831788Y10328768D01*
X42971928Y10430586D01*
X43094414Y10553072D01*
X43196232Y10693212D01*
X43274873Y10847555D01*
X43328402Y11012299D01*
X43355500Y11183389D01*
X43355500Y11356611D01*
X43328402Y11527701D01*
X43274873Y11692445D01*
X43196232Y11846788D01*
X43094414Y11986928D01*
X42971928Y12109414D01*
X42831788Y12211232D01*
X42677445Y12289873D01*
X42512701Y12343402D01*
X42512699Y12343403D01*
X42512698Y12343403D01*
X42381271Y12364219D01*
X42341611Y12370500D01*
X42168389Y12370500D01*
X42128728Y12364219D01*
X41997302Y12343403D01*
X41832552Y12289872D01*
X41678211Y12211232D01*
X41598256Y12153141D01*
X41538072Y12109414D01*
X41538070Y12109412D01*
X41538069Y12109412D01*
X41415588Y11986931D01*
X41415588Y11986930D01*
X41415586Y11986928D01*
X41379646Y11937461D01*
X41313768Y11846789D01*
X41235128Y11692448D01*
X41181597Y11527698D01*
X41159931Y11390899D01*
X41154500Y11356611D01*
X38525500Y11356611D01*
X38525500Y11383628D01*
X38529725Y11415721D01*
X38531050Y11420667D01*
X38535500Y11437273D01*
X38535500Y11542727D01*
X38535500Y12815500D01*
X38555185Y12882539D01*
X38607989Y12928294D01*
X38659500Y12939500D01*
X38734676Y12939500D01*
X38734677Y12939501D01*
X38807740Y12954034D01*
X38890601Y13009399D01*
X38945966Y13092260D01*
X38960500Y13165326D01*
X38960500Y14914674D01*
X38960500Y14914677D01*
X38960499Y14914679D01*
X38945967Y14987736D01*
X38945966Y14987740D01*
X38940215Y14996347D01*
X38890601Y15070601D01*
X38807740Y15125966D01*
X38807739Y15125967D01*
X38807735Y15125968D01*
X38734677Y15140500D01*
X38734674Y15140500D01*
X37535326Y15140500D01*
X37535323Y15140500D01*
X37462264Y15125968D01*
X37462260Y15125967D01*
X37379399Y15070601D01*
X37324033Y14987740D01*
X37324032Y14987736D01*
X37309500Y14914679D01*
X37309500Y14564500D01*
X37306949Y14555815D01*
X37308238Y14546853D01*
X37297259Y14522813D01*
X37289815Y14497461D01*
X37282974Y14491534D01*
X37279213Y14483297D01*
X37256978Y14469008D01*
X37237011Y14451706D01*
X37226496Y14449419D01*
X37220435Y14445523D01*
X37185500Y14440500D01*
X37089386Y14440500D01*
X37022347Y14460185D01*
X37001705Y14476819D01*
X36938017Y14540507D01*
X36938011Y14540512D01*
X36812488Y14612983D01*
X36812489Y14612983D01*
X36780132Y14621653D01*
X36672475Y14650500D01*
X36527525Y14650500D01*
X36419868Y14621653D01*
X36387511Y14612983D01*
X36261988Y14540512D01*
X36261982Y14540507D01*
X36159493Y14438018D01*
X36159488Y14438012D01*
X36087017Y14312489D01*
X36087016Y14312485D01*
X36049500Y14172475D01*
X36049500Y14027525D01*
X36084579Y13896611D01*
X36087017Y13887512D01*
X36159488Y13761989D01*
X36159490Y13761987D01*
X36159491Y13761985D01*
X36261985Y13659491D01*
X36261986Y13659490D01*
X36261988Y13659489D01*
X36387511Y13587018D01*
X36387512Y13587018D01*
X36387515Y13587016D01*
X36527525Y13549500D01*
X36527528Y13549500D01*
X36672472Y13549500D01*
X36672475Y13549500D01*
X36812485Y13587016D01*
X36869295Y13619815D01*
X36874616Y13622887D01*
X36890104Y13627038D01*
X36901681Y13634477D01*
X36936616Y13639500D01*
X37185500Y13639500D01*
X37252539Y13619815D01*
X37298294Y13567011D01*
X37309500Y13515500D01*
X37309500Y13165322D01*
X37324032Y13092265D01*
X37324033Y13092261D01*
X37328740Y13085217D01*
X37379399Y13009399D01*
X37445251Y12965399D01*
X37462260Y12954034D01*
X37462264Y12954033D01*
X37535321Y12939501D01*
X37535324Y12939500D01*
X37535326Y12939500D01*
X37610500Y12939500D01*
X37677539Y12919815D01*
X37723294Y12867011D01*
X37734500Y12815500D01*
X37734500Y12004500D01*
X37714815Y11937461D01*
X37662011Y11891706D01*
X37610500Y11880500D01*
X29409386Y11880500D01*
X29342347Y11900185D01*
X29321705Y11916819D01*
X29318017Y11920507D01*
X29318011Y11920512D01*
X29192488Y11992983D01*
X29192489Y11992983D01*
X29181006Y11996060D01*
X29052475Y12030500D01*
X28907525Y12030500D01*
X28810493Y12004500D01*
X28767510Y11992983D01*
X28767509Y11992982D01*
X28748190Y11981828D01*
X28680290Y11965357D01*
X28614263Y11988210D01*
X28586926Y12014904D01*
X28564056Y12045454D01*
X28532546Y12087546D01*
X28532544Y12087547D01*
X28532544Y12087548D01*
X28417335Y12173794D01*
X28417328Y12173798D01*
X28282486Y12224090D01*
X28282485Y12224091D01*
X28282483Y12224091D01*
X28222873Y12230500D01*
X28222863Y12230500D01*
X27627129Y12230500D01*
X27627123Y12230499D01*
X27567516Y12224092D01*
X27432671Y12173798D01*
X27432664Y12173794D01*
X27317455Y12087548D01*
X27317452Y12087545D01*
X27231206Y11972336D01*
X27231202Y11972329D01*
X27180910Y11837487D01*
X27180909Y11837483D01*
X27174500Y11777873D01*
X27174500Y11777866D01*
X27174500Y11777865D01*
X27174500Y11182130D01*
X27174501Y11182124D01*
X27180908Y11122517D01*
X27231202Y10987672D01*
X27231206Y10987665D01*
X27317452Y10872456D01*
X27317455Y10872453D01*
X27432664Y10786207D01*
X27432671Y10786203D01*
X27514972Y10755507D01*
X27570905Y10713636D01*
X27595323Y10648172D01*
X27580472Y10579899D01*
X27531067Y10530493D01*
X27514973Y10523143D01*
X27382669Y10473797D01*
X27382664Y10473794D01*
X27267455Y10387548D01*
X27267452Y10387545D01*
X27181206Y10272336D01*
X27181202Y10272329D01*
X27130908Y10137483D01*
X27126702Y10098354D01*
X27124501Y10077877D01*
X27124500Y10077865D01*
X27124500Y9647256D01*
X27104815Y9580217D01*
X27088181Y9559575D01*
X26408425Y8879819D01*
X26347102Y8846334D01*
X26320744Y8843500D01*
X25193482Y8843500D01*
X25099696Y8828646D01*
X25085724Y8821527D01*
X25017055Y8808633D01*
X24952315Y8834912D01*
X24912060Y8892019D01*
X24909232Y8958040D01*
X24909120Y8958057D01*
X24909207Y8958611D01*
X24909070Y8961825D01*
X24910519Y8966895D01*
X24913814Y8987701D01*
X24925500Y9061481D01*
X24925499Y9424518D01*
X24910646Y9518304D01*
X24853050Y9631342D01*
X24853046Y9631346D01*
X24853045Y9631348D01*
X24763347Y9721046D01*
X24763344Y9721048D01*
X24763342Y9721050D01*
X24678022Y9764523D01*
X24650301Y9778648D01*
X24556524Y9793500D01*
X23318482Y9793500D01*
X23238739Y9780870D01*
X23224696Y9778646D01*
X23111658Y9721050D01*
X23111657Y9721049D01*
X23111652Y9721046D01*
X23021954Y9631348D01*
X23021947Y9631339D01*
X22981427Y9551813D01*
X22933453Y9501017D01*
X22865632Y9484222D01*
X22799497Y9506760D01*
X22775302Y9529186D01*
X22765975Y9540489D01*
X22748076Y9577102D01*
X22677635Y9647543D01*
X22673859Y9652119D01*
X22662352Y9679010D01*
X22648334Y9704683D01*
X22647315Y9714152D01*
X22646373Y9716355D01*
X22646803Y9718914D01*
X22645500Y9731041D01*
X22645500Y10064246D01*
X22665185Y10131285D01*
X22681814Y10151922D01*
X23917074Y11387183D01*
X23978397Y11420667D01*
X24004755Y11423501D01*
X24556517Y11423501D01*
X24556518Y11423501D01*
X24650304Y11438354D01*
X24763342Y11495950D01*
X24853050Y11585658D01*
X24910646Y11698696D01*
X24910646Y11698698D01*
X24910647Y11698699D01*
X24925499Y11792476D01*
X24925500Y11792481D01*
X24925499Y12155518D01*
X24910646Y12249304D01*
X24910645Y12249306D01*
X24909119Y12258943D01*
X24911142Y12259264D01*
X24909506Y12316506D01*
X24945584Y12376340D01*
X25008284Y12407170D01*
X25077698Y12399208D01*
X25085708Y12395481D01*
X25099696Y12388354D01*
X25099698Y12388354D01*
X25099700Y12388353D01*
X25099698Y12388353D01*
X25193475Y12373501D01*
X25193481Y12373500D01*
X26431518Y12373501D01*
X26525304Y12388354D01*
X26638342Y12445950D01*
X26679572Y12487180D01*
X26740895Y12520666D01*
X26767254Y12523500D01*
X26921725Y12523500D01*
X26921727Y12523500D01*
X27023588Y12550793D01*
X27114913Y12603520D01*
X27656605Y13145215D01*
X32910001Y13145215D01*
X32910002Y13145192D01*
X32912908Y13120131D01*
X32912909Y13120127D01*
X32958211Y13017526D01*
X32958214Y13017521D01*
X33037520Y12938215D01*
X33037525Y12938212D01*
X33140123Y12892911D01*
X33165206Y12890001D01*
X33534999Y12890001D01*
X34035000Y12890001D01*
X34404786Y12890001D01*
X34404808Y12890003D01*
X34429869Y12892909D01*
X34429873Y12892910D01*
X34532474Y12938212D01*
X34532479Y12938215D01*
X34611785Y13017521D01*
X34611788Y13017526D01*
X34657089Y13120123D01*
X34657089Y13120125D01*
X34659999Y13145206D01*
X34660000Y13145209D01*
X34660000Y13790000D01*
X34035000Y13790000D01*
X34035000Y12890001D01*
X33534999Y12890001D01*
X33535000Y12890002D01*
X33535000Y13790000D01*
X32910001Y13790000D01*
X32910001Y13145215D01*
X27656605Y13145215D01*
X27704573Y13193183D01*
X27765896Y13226667D01*
X27792254Y13229501D01*
X28222871Y13229501D01*
X28222872Y13229501D01*
X28282483Y13235909D01*
X28417331Y13286204D01*
X28532546Y13372454D01*
X28618796Y13487669D01*
X28669091Y13622517D01*
X28675500Y13682127D01*
X28675499Y13982015D01*
X28675499Y14277871D01*
X28675498Y14277877D01*
X28675497Y14277884D01*
X28669091Y14337483D01*
X28667711Y14341182D01*
X28618797Y14472329D01*
X28618793Y14472336D01*
X28532547Y14587545D01*
X28532544Y14587548D01*
X28417335Y14673794D01*
X28417328Y14673798D01*
X28282486Y14724090D01*
X28282485Y14724091D01*
X28282483Y14724091D01*
X28222873Y14730500D01*
X28222863Y14730500D01*
X27627129Y14730500D01*
X27627123Y14730499D01*
X27567516Y14724092D01*
X27432671Y14673798D01*
X27432664Y14673794D01*
X27317455Y14587548D01*
X27317452Y14587545D01*
X27231206Y14472336D01*
X27231202Y14472329D01*
X27180908Y14337483D01*
X27174501Y14277884D01*
X27174501Y14277877D01*
X27174500Y14277865D01*
X27174500Y13847256D01*
X27154815Y13780217D01*
X27138181Y13759575D01*
X26795655Y13417050D01*
X26734332Y13383565D01*
X26664640Y13388549D01*
X26647189Y13397918D01*
X26647037Y13397619D01*
X26638343Y13402049D01*
X26638342Y13402050D01*
X26564582Y13439633D01*
X26525301Y13459648D01*
X26431524Y13474500D01*
X25193482Y13474500D01*
X25099696Y13459646D01*
X25085724Y13452527D01*
X25017055Y13439633D01*
X24952315Y13465912D01*
X24912060Y13523019D01*
X24909232Y13589040D01*
X24909120Y13589057D01*
X24909207Y13589611D01*
X24909070Y13592825D01*
X24910519Y13597895D01*
X24912909Y13612984D01*
X24925500Y13692481D01*
X24925499Y14055518D01*
X24910646Y14149304D01*
X24853050Y14262342D01*
X24853046Y14262346D01*
X24853045Y14262348D01*
X24763347Y14352046D01*
X24763344Y14352048D01*
X24763342Y14352050D01*
X24686517Y14391195D01*
X24650301Y14409648D01*
X24556524Y14424500D01*
X23318482Y14424500D01*
X23237519Y14411677D01*
X23224696Y14409646D01*
X23111658Y14352050D01*
X23111657Y14352049D01*
X23111653Y14352047D01*
X23070428Y14310820D01*
X23043499Y14296116D01*
X23017681Y14279523D01*
X23011481Y14278632D01*
X23009105Y14277334D01*
X22982746Y14274500D01*
X22752041Y14274500D01*
X22685002Y14294185D01*
X22664360Y14310819D01*
X22657102Y14318077D01*
X22657099Y14318079D01*
X22541521Y14374581D01*
X22541519Y14374582D01*
X22541518Y14374582D01*
X22466582Y14385500D01*
X22023418Y14385500D01*
X21948482Y14374582D01*
X21948480Y14374582D01*
X21948478Y14374581D01*
X21832900Y14318079D01*
X21832896Y14318076D01*
X21789574Y14274754D01*
X21728251Y14241270D01*
X21658559Y14246255D01*
X21602626Y14288127D01*
X21586262Y14326864D01*
X21583663Y14326019D01*
X21580647Y14335301D01*
X21580646Y14335303D01*
X21580646Y14335304D01*
X21523050Y14448342D01*
X21523046Y14448346D01*
X21523045Y14448348D01*
X21433347Y14538046D01*
X21433344Y14538048D01*
X21433342Y14538050D01*
X21356517Y14577195D01*
X21320301Y14595648D01*
X21226524Y14610500D01*
X19988482Y14610500D01*
X19894696Y14595646D01*
X19880724Y14588527D01*
X19812055Y14575633D01*
X19747315Y14601912D01*
X19707060Y14659019D01*
X19700866Y14709373D01*
X19702465Y14728455D01*
X19705646Y14734696D01*
X19720500Y14828481D01*
X19720500Y14934795D01*
X32910000Y14934795D01*
X32910000Y14290000D01*
X33535000Y14290000D01*
X34035000Y14290000D01*
X34659999Y14290000D01*
X34659999Y14934786D01*
X34659997Y14934809D01*
X34657091Y14959870D01*
X34657090Y14959874D01*
X34611788Y15062475D01*
X34611785Y15062480D01*
X34532479Y15141786D01*
X34532474Y15141789D01*
X34429876Y15187090D01*
X34404794Y15190000D01*
X34035000Y15190000D01*
X34035000Y14290000D01*
X33535000Y14290000D01*
X33535000Y15190000D01*
X33165214Y15190000D01*
X33165191Y15189998D01*
X33140130Y15187092D01*
X33140126Y15187091D01*
X33037525Y15141789D01*
X33037520Y15141786D01*
X32958214Y15062480D01*
X32958211Y15062475D01*
X32912910Y14959878D01*
X32912910Y14959876D01*
X32910000Y14934795D01*
X19720500Y14934795D01*
X19720499Y15191518D01*
X19705646Y15285304D01*
X19648050Y15398342D01*
X19648046Y15398346D01*
X19648045Y15398348D01*
X19558347Y15488046D01*
X19558344Y15488048D01*
X19558342Y15488050D01*
X19463327Y15536463D01*
X19445301Y15545648D01*
X19351524Y15560500D01*
X19351519Y15560500D01*
X18707255Y15560500D01*
X18640216Y15580185D01*
X18619574Y15596819D01*
X16961178Y17255215D01*
X18390001Y17255215D01*
X18390002Y17255192D01*
X18392908Y17230131D01*
X18392909Y17230127D01*
X18438211Y17127526D01*
X18438214Y17127521D01*
X18517520Y17048215D01*
X18517525Y17048212D01*
X18620123Y17002911D01*
X18645206Y17000001D01*
X19014999Y17000001D01*
X19515000Y17000001D01*
X19884786Y17000001D01*
X19884808Y17000003D01*
X19909869Y17002909D01*
X19909873Y17002910D01*
X20012474Y17048212D01*
X20012479Y17048215D01*
X20091785Y17127521D01*
X20091788Y17127526D01*
X20137089Y17230123D01*
X20137089Y17230125D01*
X20139999Y17255206D01*
X20140000Y17255209D01*
X20140000Y17569679D01*
X21944500Y17569679D01*
X21944500Y16720322D01*
X21959032Y16647265D01*
X21959033Y16647261D01*
X21959034Y16647260D01*
X22014399Y16564399D01*
X22084121Y16517813D01*
X22097260Y16509034D01*
X22097264Y16509033D01*
X22170321Y16494501D01*
X22170324Y16494500D01*
X22170326Y16494500D01*
X23219676Y16494500D01*
X23219677Y16494501D01*
X23292740Y16509034D01*
X23292743Y16509036D01*
X23301610Y16514960D01*
X23368287Y16535838D01*
X23435667Y16517353D01*
X23482357Y16465374D01*
X23494500Y16411858D01*
X23494500Y15720322D01*
X23509032Y15647265D01*
X23509033Y15647261D01*
X23522517Y15627081D01*
X23564399Y15564399D01*
X23636579Y15516171D01*
X23647260Y15509034D01*
X23647264Y15509033D01*
X23720321Y15494501D01*
X23720324Y15494500D01*
X23720326Y15494500D01*
X24469676Y15494500D01*
X24469677Y15494501D01*
X24542740Y15509034D01*
X24625601Y15564399D01*
X24680966Y15647260D01*
X24695500Y15720326D01*
X24695500Y17269674D01*
X24695500Y17269677D01*
X24695499Y17269679D01*
X24680967Y17342736D01*
X24680966Y17342738D01*
X24680966Y17342740D01*
X24668357Y17361610D01*
X24665320Y17371310D01*
X24658666Y17378989D01*
X24655057Y17404087D01*
X24647480Y17428286D01*
X24650168Y17438087D01*
X24648722Y17448147D01*
X24659255Y17471213D01*
X24665964Y17495667D01*
X24673525Y17502460D01*
X24677747Y17511703D01*
X24699077Y17525412D01*
X24717943Y17542357D01*
X24729540Y17544989D01*
X24736525Y17549477D01*
X24771460Y17554500D01*
X24918540Y17554500D01*
X24985579Y17534815D01*
X25031334Y17482011D01*
X25041278Y17412853D01*
X25021642Y17361609D01*
X25009034Y17342741D01*
X25009032Y17342736D01*
X24994500Y17269679D01*
X24994500Y15720322D01*
X25009032Y15647265D01*
X25009033Y15647261D01*
X25022517Y15627081D01*
X25064399Y15564399D01*
X25136579Y15516171D01*
X25147260Y15509034D01*
X25147264Y15509033D01*
X25220321Y15494501D01*
X25220324Y15494500D01*
X25220326Y15494500D01*
X25969676Y15494500D01*
X25969677Y15494501D01*
X26042740Y15509034D01*
X26125601Y15564399D01*
X26180966Y15647260D01*
X26195500Y15720326D01*
X26195500Y15850072D01*
X26215185Y15917111D01*
X26267989Y15962866D01*
X26337147Y15972810D01*
X26351576Y15969851D01*
X26427525Y15949500D01*
X26427528Y15949500D01*
X26572472Y15949500D01*
X26572475Y15949500D01*
X26712485Y15987016D01*
X26838015Y16059491D01*
X26940509Y16161985D01*
X27012984Y16287515D01*
X27030226Y16351863D01*
X27066590Y16411521D01*
X27129437Y16442050D01*
X27198813Y16433755D01*
X27252691Y16389270D01*
X27269773Y16351865D01*
X27287016Y16287515D01*
X27287017Y16287512D01*
X27359488Y16161989D01*
X27359490Y16161987D01*
X27359491Y16161985D01*
X27461985Y16059491D01*
X27461986Y16059490D01*
X27461988Y16059489D01*
X27587511Y15987018D01*
X27587512Y15987018D01*
X27587515Y15987016D01*
X27727525Y15949500D01*
X27727528Y15949500D01*
X27870500Y15949500D01*
X27937539Y15929815D01*
X27983294Y15877011D01*
X27994500Y15825500D01*
X27994500Y15720322D01*
X28009032Y15647265D01*
X28009033Y15647261D01*
X28022517Y15627081D01*
X28064399Y15564399D01*
X28136579Y15516171D01*
X28147260Y15509034D01*
X28147264Y15509033D01*
X28220321Y15494501D01*
X28220324Y15494500D01*
X28220326Y15494500D01*
X28969676Y15494500D01*
X28969677Y15494501D01*
X29042740Y15509034D01*
X29125601Y15564399D01*
X29180966Y15647260D01*
X29195500Y15720326D01*
X29195500Y16411858D01*
X29215185Y16478897D01*
X29267989Y16524652D01*
X29337147Y16534596D01*
X29388390Y16514960D01*
X29397256Y16509036D01*
X29397258Y16509036D01*
X29397260Y16509034D01*
X29397262Y16509034D01*
X29397264Y16509033D01*
X29470321Y16494501D01*
X29470324Y16494500D01*
X29470326Y16494500D01*
X30519676Y16494500D01*
X30519677Y16494501D01*
X30592740Y16509034D01*
X30675601Y16564399D01*
X30730966Y16647260D01*
X30745500Y16720326D01*
X30745500Y17569674D01*
X30745500Y17569677D01*
X30745499Y17569679D01*
X30730967Y17642736D01*
X30730966Y17642740D01*
X30711098Y17672475D01*
X30675601Y17725601D01*
X30620235Y17762595D01*
X30592739Y17780967D01*
X30592735Y17780968D01*
X30519677Y17795500D01*
X30519674Y17795500D01*
X29470326Y17795500D01*
X29470323Y17795500D01*
X29397264Y17780968D01*
X29397260Y17780967D01*
X29314399Y17725601D01*
X29259033Y17642740D01*
X29259032Y17642736D01*
X29244498Y17569672D01*
X29244121Y17565837D01*
X29243362Y17563959D01*
X29243311Y17563700D01*
X29243261Y17563710D01*
X29217958Y17501050D01*
X29160922Y17460694D01*
X29091121Y17457580D01*
X29051830Y17474893D01*
X29042742Y17480965D01*
X29042735Y17480968D01*
X28969677Y17495500D01*
X28969674Y17495500D01*
X28375519Y17495500D01*
X28308480Y17515185D01*
X28262725Y17567989D01*
X28252781Y17637147D01*
X28281806Y17700703D01*
X28287838Y17707181D01*
X28389111Y17808455D01*
X28389114Y17808458D01*
X28465775Y17923189D01*
X28518580Y18050672D01*
X28527499Y18095509D01*
X28545500Y18186005D01*
X28545500Y18323996D01*
X28518581Y18459323D01*
X28518580Y18459324D01*
X28518580Y18459328D01*
X28512089Y18475000D01*
X32326182Y18475000D01*
X32327755Y18458215D01*
X32327755Y18458213D01*
X32371065Y18334443D01*
X32371066Y18334441D01*
X32448934Y18228935D01*
X32554443Y18151066D01*
X32554442Y18151066D01*
X32644999Y18119380D01*
X32645000Y18119380D01*
X32645000Y18475000D01*
X32326182Y18475000D01*
X28512089Y18475000D01*
X28475798Y18562614D01*
X28465776Y18586809D01*
X28465771Y18586818D01*
X28389114Y18701542D01*
X28389111Y18701546D01*
X28291545Y18799112D01*
X28291541Y18799115D01*
X28176817Y18875772D01*
X28176804Y18875779D01*
X28049332Y18928579D01*
X28049322Y18928582D01*
X27913995Y18955500D01*
X27913993Y18955500D01*
X27776007Y18955500D01*
X27776005Y18955500D01*
X27640677Y18928582D01*
X27640667Y18928579D01*
X27513195Y18875779D01*
X27513182Y18875772D01*
X27398458Y18799115D01*
X27398454Y18799112D01*
X27300888Y18701546D01*
X27300885Y18701542D01*
X27224228Y18586818D01*
X27224221Y18586805D01*
X27171421Y18459333D01*
X27171418Y18459323D01*
X27144500Y18323996D01*
X27144500Y18323993D01*
X27144500Y18186007D01*
X27144500Y18186005D01*
X27144499Y18186005D01*
X27171418Y18050678D01*
X27171421Y18050668D01*
X27224221Y17923196D01*
X27224228Y17923183D01*
X27300885Y17808459D01*
X27300888Y17808455D01*
X27398454Y17710889D01*
X27398458Y17710886D01*
X27513182Y17634229D01*
X27513195Y17634222D01*
X27617792Y17590897D01*
X27640672Y17581420D01*
X27640676Y17581420D01*
X27640677Y17581419D01*
X27776004Y17554500D01*
X27918540Y17554500D01*
X27985579Y17534815D01*
X28031334Y17482011D01*
X28041278Y17412853D01*
X28021642Y17361609D01*
X28009034Y17342741D01*
X28009032Y17342736D01*
X27994500Y17269679D01*
X27994500Y17174500D01*
X27974815Y17107461D01*
X27922011Y17061706D01*
X27870500Y17050500D01*
X27727525Y17050500D01*
X27612949Y17019799D01*
X27587511Y17012983D01*
X27461988Y16940512D01*
X27461982Y16940507D01*
X27359493Y16838018D01*
X27359488Y16838012D01*
X27287017Y16712489D01*
X27269775Y16648140D01*
X27233409Y16588480D01*
X27170562Y16557951D01*
X27101187Y16566246D01*
X27047309Y16610732D01*
X27030225Y16648140D01*
X27020950Y16682754D01*
X27012984Y16712485D01*
X27008459Y16720322D01*
X26940511Y16838012D01*
X26940506Y16838018D01*
X26838017Y16940507D01*
X26838011Y16940512D01*
X26712488Y17012983D01*
X26712489Y17012983D01*
X26687051Y17019799D01*
X26572475Y17050500D01*
X26427525Y17050500D01*
X26351593Y17030154D01*
X26281743Y17031817D01*
X26223881Y17070980D01*
X26196377Y17135208D01*
X26195500Y17149929D01*
X26195500Y17269677D01*
X26195499Y17269679D01*
X26180967Y17342736D01*
X26180966Y17342740D01*
X26168358Y17361609D01*
X26125601Y17425601D01*
X26051829Y17474893D01*
X26042739Y17480967D01*
X26042735Y17480968D01*
X25969677Y17495500D01*
X25969674Y17495500D01*
X25375519Y17495500D01*
X25308480Y17515185D01*
X25262725Y17567989D01*
X25252781Y17637147D01*
X25281806Y17700703D01*
X25287838Y17707181D01*
X25389111Y17808455D01*
X25389114Y17808458D01*
X25465775Y17923189D01*
X25518580Y18050672D01*
X25527499Y18095509D01*
X25545500Y18186005D01*
X25545500Y18323996D01*
X25518581Y18459323D01*
X25518580Y18459324D01*
X25518580Y18459328D01*
X25512666Y18473606D01*
X25465778Y18586805D01*
X25465771Y18586818D01*
X25389114Y18701542D01*
X25389111Y18701546D01*
X25291545Y18799112D01*
X25291541Y18799115D01*
X25176817Y18875772D01*
X25176804Y18875779D01*
X25049332Y18928579D01*
X25049322Y18928582D01*
X24913995Y18955500D01*
X24913993Y18955500D01*
X24776007Y18955500D01*
X24776005Y18955500D01*
X24640677Y18928582D01*
X24640667Y18928579D01*
X24513195Y18875779D01*
X24513182Y18875772D01*
X24398458Y18799115D01*
X24398454Y18799112D01*
X24300888Y18701546D01*
X24300885Y18701542D01*
X24224228Y18586818D01*
X24224221Y18586805D01*
X24171421Y18459333D01*
X24171418Y18459323D01*
X24144500Y18323996D01*
X24144500Y18323993D01*
X24144500Y18186007D01*
X24144500Y18186005D01*
X24144499Y18186005D01*
X24171418Y18050678D01*
X24171421Y18050668D01*
X24224221Y17923196D01*
X24224228Y17923183D01*
X24300885Y17808459D01*
X24300888Y17808455D01*
X24402162Y17707181D01*
X24435647Y17645858D01*
X24430663Y17576166D01*
X24388791Y17520233D01*
X24323327Y17495816D01*
X24314481Y17495500D01*
X23720323Y17495500D01*
X23647264Y17480968D01*
X23647258Y17480966D01*
X23638167Y17474891D01*
X23571488Y17454016D01*
X23504109Y17472503D01*
X23457421Y17524484D01*
X23445876Y17565849D01*
X23445500Y17569666D01*
X23445500Y17569674D01*
X23441278Y17590897D01*
X23430967Y17642736D01*
X23430966Y17642740D01*
X23411098Y17672475D01*
X23375601Y17725601D01*
X23320235Y17762595D01*
X23292739Y17780967D01*
X23292735Y17780968D01*
X23219677Y17795500D01*
X23219674Y17795500D01*
X22170326Y17795500D01*
X22170323Y17795500D01*
X22097264Y17780968D01*
X22097260Y17780967D01*
X22014399Y17725601D01*
X21959033Y17642740D01*
X21959032Y17642736D01*
X21944500Y17569679D01*
X20140000Y17569679D01*
X20140000Y17900000D01*
X19515000Y17900000D01*
X19515000Y17000001D01*
X19014999Y17000001D01*
X19015000Y17000002D01*
X19015000Y17900000D01*
X18390001Y17900000D01*
X18390001Y17255215D01*
X16961178Y17255215D01*
X16686819Y17529574D01*
X16653334Y17590897D01*
X16650500Y17617255D01*
X16650500Y17622473D01*
X16650500Y17622475D01*
X16612984Y17762485D01*
X16540509Y17888015D01*
X16438015Y17990509D01*
X16438013Y17990510D01*
X16438011Y17990512D01*
X16312488Y18062983D01*
X16312489Y18062983D01*
X16297117Y18067102D01*
X16172475Y18100500D01*
X16172472Y18100500D01*
X16167255Y18100500D01*
X16100216Y18120185D01*
X16079574Y18136819D01*
X15776819Y18439575D01*
X15743334Y18500898D01*
X15740500Y18527256D01*
X15740500Y19024677D01*
X15736498Y19044795D01*
X18390000Y19044795D01*
X18390000Y18400000D01*
X19015000Y18400000D01*
X19515000Y18400000D01*
X20139999Y18400000D01*
X20139999Y19044786D01*
X20139997Y19044818D01*
X20137091Y19069870D01*
X20137090Y19069874D01*
X20091788Y19172475D01*
X20091785Y19172480D01*
X20012479Y19251786D01*
X20012474Y19251789D01*
X19909876Y19297090D01*
X19884794Y19300000D01*
X19515000Y19300000D01*
X19515000Y18400000D01*
X19015000Y18400000D01*
X19015000Y19300000D01*
X18645214Y19300000D01*
X18645191Y19299998D01*
X18620130Y19297092D01*
X18620126Y19297091D01*
X18517525Y19251789D01*
X18517520Y19251786D01*
X18438214Y19172480D01*
X18438211Y19172475D01*
X18392910Y19069878D01*
X18392910Y19069876D01*
X18390000Y19044795D01*
X15736498Y19044795D01*
X15725967Y19097736D01*
X15725966Y19097740D01*
X15720556Y19105837D01*
X15670601Y19180601D01*
X15610040Y19221066D01*
X15587739Y19235967D01*
X15587735Y19235968D01*
X15514677Y19250500D01*
X15514674Y19250500D01*
X14315326Y19250500D01*
X14315323Y19250500D01*
X14242264Y19235968D01*
X14242260Y19235967D01*
X14159399Y19180601D01*
X14104033Y19097740D01*
X14104032Y19097736D01*
X14089500Y19024679D01*
X14089500Y18229500D01*
X14069815Y18162461D01*
X14017011Y18116706D01*
X13965500Y18105500D01*
X13701041Y18105500D01*
X13634002Y18125185D01*
X13613360Y18141819D01*
X13547102Y18208077D01*
X13547099Y18208079D01*
X13431521Y18264581D01*
X13431519Y18264582D01*
X13431518Y18264582D01*
X13356582Y18275500D01*
X13013418Y18275500D01*
X12938482Y18264582D01*
X12938480Y18264582D01*
X12938478Y18264581D01*
X12822900Y18208079D01*
X12822897Y18208077D01*
X12762681Y18147860D01*
X12701358Y18114375D01*
X12631666Y18119359D01*
X12587319Y18147860D01*
X12527102Y18208077D01*
X12527099Y18208079D01*
X12411521Y18264581D01*
X12411519Y18264582D01*
X12411518Y18264582D01*
X12336582Y18275500D01*
X11993418Y18275500D01*
X11946583Y18268677D01*
X11918479Y18264582D01*
X11802899Y18208077D01*
X11802896Y18208075D01*
X11781246Y18186426D01*
X11719922Y18152943D01*
X11690602Y18151720D01*
X11690602Y18150500D01*
X11682475Y18150500D01*
X11537525Y18150500D01*
X11421385Y18119380D01*
X11397511Y18112983D01*
X11271988Y18040512D01*
X11271982Y18040507D01*
X11169493Y17938018D01*
X11169488Y17938012D01*
X11097017Y17812489D01*
X11097016Y17812485D01*
X11059500Y17672475D01*
X11059500Y17527525D01*
X11064332Y17509491D01*
X11065109Y17506593D01*
X11063446Y17436743D01*
X11024283Y17378881D01*
X10960055Y17351377D01*
X10945334Y17350500D01*
X9751436Y17350500D01*
X9689436Y17367113D01*
X9609985Y17412984D01*
X9469975Y17450500D01*
X9404500Y17450500D01*
X9337461Y17470185D01*
X9291706Y17522989D01*
X9280500Y17574500D01*
X9280500Y18006130D01*
X9280499Y18006145D01*
X9276804Y18040509D01*
X9274491Y18062022D01*
X9267331Y18081220D01*
X9227337Y18188448D01*
X9227335Y18188451D01*
X9212642Y18208079D01*
X9146472Y18296472D01*
X9038450Y18377336D01*
X9038447Y18377338D01*
X8912024Y18424491D01*
X8856144Y18430500D01*
X8856130Y18430500D01*
X8328870Y18430500D01*
X8328855Y18430500D01*
X8272975Y18424491D01*
X8146552Y18377338D01*
X8146549Y18377336D01*
X8038528Y18296472D01*
X7957664Y18188451D01*
X7957662Y18188448D01*
X7921182Y18090639D01*
X7879311Y18034705D01*
X7813846Y18010288D01*
X7745573Y18025140D01*
X7696168Y18074545D01*
X7688818Y18090639D01*
X7652337Y18188448D01*
X7652335Y18188451D01*
X7637642Y18208079D01*
X7571472Y18296472D01*
X7463450Y18377336D01*
X7463447Y18377338D01*
X7337024Y18424491D01*
X7281144Y18430500D01*
X7281130Y18430500D01*
X6753870Y18430500D01*
X6753855Y18430500D01*
X6697975Y18424491D01*
X6571552Y18377338D01*
X6571545Y18377334D01*
X6463528Y18296474D01*
X6413090Y18229097D01*
X6365323Y18190609D01*
X6355908Y18186311D01*
X6287515Y18167984D01*
X6180743Y18106340D01*
X6175359Y18103881D01*
X6146398Y18099721D01*
X6117960Y18092821D01*
X6112215Y18094810D01*
X6106199Y18093945D01*
X6079582Y18106105D01*
X6051933Y18115674D01*
X6044065Y18122330D01*
X6042647Y18122977D01*
X6041870Y18124186D01*
X6036179Y18129000D01*
X6007102Y18158077D01*
X6007099Y18158079D01*
X5891521Y18214581D01*
X5891519Y18214582D01*
X5891518Y18214582D01*
X5816582Y18225500D01*
X5473418Y18225500D01*
X5398482Y18214582D01*
X5398480Y18214582D01*
X5398478Y18214581D01*
X5282900Y18158079D01*
X5282899Y18158079D01*
X5259926Y18135105D01*
X5198602Y18101621D01*
X5128911Y18106607D01*
X5077920Y18144780D01*
X5077636Y18144495D01*
X5075659Y18146472D01*
X5072978Y18148479D01*
X5072478Y18149152D01*
X5071066Y18151065D01*
X4965559Y18228934D01*
X4965557Y18228935D01*
X4875000Y18260622D01*
X4875000Y17779000D01*
X4855315Y17711961D01*
X4802511Y17666206D01*
X4751000Y17655000D01*
X4625000Y17655000D01*
X4625000Y17529000D01*
X4605315Y17461961D01*
X4552511Y17416206D01*
X4501000Y17405000D01*
X4056182Y17405000D01*
X4057755Y17388215D01*
X4057755Y17388213D01*
X4101065Y17264443D01*
X4101066Y17264441D01*
X4178934Y17158935D01*
X4284440Y17081067D01*
X4284442Y17081066D01*
X4408207Y17037758D01*
X4408219Y17037756D01*
X4437602Y17035000D01*
X4450954Y17035000D01*
X4517993Y17015315D01*
X4563748Y16962511D01*
X4573692Y16893353D01*
X4544667Y16829797D01*
X4538635Y16823319D01*
X4039513Y16324197D01*
X4039509Y16324191D01*
X3980201Y16221468D01*
X3980200Y16221463D01*
X3949500Y16106889D01*
X3949500Y12774500D01*
X3929815Y12707461D01*
X3877011Y12661706D01*
X3825500Y12650500D01*
X1753936Y12650500D01*
X1691936Y12667113D01*
X1612485Y12712984D01*
X1472475Y12750500D01*
X1327525Y12750500D01*
X1219868Y12721653D01*
X1187511Y12712983D01*
X1061988Y12640512D01*
X1061982Y12640507D01*
X959493Y12538018D01*
X959488Y12538012D01*
X887017Y12412489D01*
X887016Y12412485D01*
X849500Y12272475D01*
X849500Y12127525D01*
X877535Y12022898D01*
X887017Y11987512D01*
X959488Y11861989D01*
X959490Y11861987D01*
X959491Y11861985D01*
X1061985Y11759491D01*
X1061986Y11759490D01*
X1061988Y11759489D01*
X1187511Y11687018D01*
X1187512Y11687018D01*
X1187515Y11687016D01*
X1327525Y11649500D01*
X1327528Y11649500D01*
X1472472Y11649500D01*
X1472475Y11649500D01*
X1612485Y11687016D01*
X1691936Y11732888D01*
X1753936Y11749500D01*
X3825500Y11749500D01*
X3892539Y11729815D01*
X3938294Y11677011D01*
X3949500Y11625500D01*
X3949500Y11325411D01*
X3980201Y11210834D01*
X3982886Y11206183D01*
X3999500Y11144183D01*
X3999500Y8552727D01*
X3999500Y8447273D01*
X4006643Y8420614D01*
X4026793Y8345411D01*
X4035567Y8330215D01*
X4079520Y8254087D01*
X4818087Y7515520D01*
X4818088Y7515519D01*
X4818090Y7515518D01*
X4887041Y7475709D01*
X4935257Y7425142D01*
X4948479Y7356535D01*
X4944816Y7336229D01*
X4943719Y7332136D01*
X4943719Y7332135D01*
X4904500Y7185766D01*
X4904500Y7034234D01*
X4918461Y6982131D01*
X4943719Y6887864D01*
X4977364Y6829591D01*
X5019485Y6756635D01*
X5126635Y6649485D01*
X5236240Y6586204D01*
X5247176Y6579890D01*
X5257865Y6573719D01*
X5404234Y6534500D01*
X5404236Y6534500D01*
X5555764Y6534500D01*
X5555766Y6534500D01*
X5570705Y6538503D01*
X5640553Y6536842D01*
X5698416Y6497680D01*
X5719840Y6459684D01*
X5724994Y6444955D01*
X5728557Y6375177D01*
X5693828Y6314549D01*
X5631835Y6282321D01*
X5607953Y6280000D01*
X5186946Y6280000D01*
X5098555Y6269386D01*
X5098554Y6269386D01*
X4995000Y6228552D01*
X6069095Y5154457D01*
X6102580Y5093134D01*
X6097596Y5023442D01*
X6069095Y4979095D01*
X5980000Y4890000D01*
X6069094Y4800906D01*
X6102579Y4739583D01*
X6097595Y4669891D01*
X6069094Y4625544D01*
X4995001Y3551451D01*
X4995001Y3551450D01*
X5098555Y3510615D01*
X5186946Y3500000D01*
X6773054Y3500000D01*
X6861444Y3510615D01*
X6880009Y3517935D01*
X6911673Y3520794D01*
X6943147Y3525319D01*
X6946226Y3523913D01*
X6949596Y3524217D01*
X6977777Y3509504D01*
X7006703Y3496294D01*
X7008532Y3493447D01*
X7011532Y3491881D01*
X7027285Y3464268D01*
X7044477Y3437516D01*
X7045127Y3432992D01*
X7046154Y3431192D01*
X7049500Y3402581D01*
X7049500Y3169500D01*
X7029815Y3102461D01*
X6977011Y3056706D01*
X6925500Y3045500D01*
X6503418Y3045500D01*
X6440971Y3036402D01*
X6428481Y3034582D01*
X6419283Y3031739D01*
X6418209Y3035214D01*
X6367094Y3026496D01*
X6349437Y3029878D01*
X6298599Y3043500D01*
X6272475Y3050500D01*
X6127525Y3050500D01*
X6005250Y3017736D01*
X5987511Y3012983D01*
X5861988Y2940512D01*
X5861982Y2940507D01*
X5759493Y2838018D01*
X5759488Y2838012D01*
X5687017Y2712489D01*
X5687016Y2712485D01*
X5649500Y2572475D01*
X5649500Y2427525D01*
X5687016Y2287515D01*
X5687017Y2287512D01*
X5759488Y2161989D01*
X5759490Y2161987D01*
X5759491Y2161985D01*
X5861985Y2059491D01*
X5861986Y2059490D01*
X5861988Y2059489D01*
X5987511Y1987018D01*
X5987512Y1987018D01*
X5987515Y1987016D01*
X6053217Y1969411D01*
X6112874Y1933049D01*
X6143404Y1870202D01*
X6138163Y1808683D01*
X6119379Y1755000D01*
X7330622Y1755000D01*
X7330621Y1755001D01*
X7298934Y1845558D01*
X7298933Y1845560D01*
X7221064Y1951067D01*
X7219149Y1952480D01*
X7217566Y1954565D01*
X7214495Y1957636D01*
X7214915Y1958057D01*
X7176901Y2008129D01*
X7171445Y2077786D01*
X7204515Y2139334D01*
X7204959Y2139781D01*
X7228076Y2162898D01*
X7228076Y2162900D01*
X7228078Y2162901D01*
X7263415Y2235185D01*
X7284582Y2278482D01*
X7295500Y2353418D01*
X7295500Y2468035D01*
X7301738Y2489281D01*
X7303318Y2511369D01*
X7311390Y2522153D01*
X7315185Y2535074D01*
X7331918Y2549574D01*
X7345190Y2567302D01*
X7357810Y2572010D01*
X7367989Y2580829D01*
X7389906Y2583981D01*
X7410654Y2591719D01*
X7423814Y2588857D01*
X7437147Y2590773D01*
X7457290Y2581574D01*
X7478927Y2576867D01*
X7496653Y2563598D01*
X7500703Y2561748D01*
X7507160Y2555737D01*
X7666636Y2396261D01*
X7700119Y2334939D01*
X7695135Y2265247D01*
X7677797Y2238261D01*
X7679705Y2236954D01*
X7673211Y2227475D01*
X7627910Y2124878D01*
X7627910Y2124876D01*
X7625000Y2099795D01*
X7625000Y1955000D01*
X9186535Y1955000D01*
X9253574Y1935315D01*
X9274216Y1918681D01*
X9538181Y1654716D01*
X9571666Y1593393D01*
X9574500Y1567035D01*
X9574500Y1330322D01*
X9589032Y1257265D01*
X9589033Y1257261D01*
X9593551Y1250500D01*
X9644399Y1174399D01*
X9703154Y1135141D01*
X9727260Y1119034D01*
X9727264Y1119033D01*
X9800321Y1104501D01*
X9800324Y1104500D01*
X9800326Y1104500D01*
X10037035Y1104500D01*
X10104074Y1084815D01*
X10124716Y1068181D01*
X10553386Y639511D01*
X10656113Y580201D01*
X10680321Y573716D01*
X10680324Y573714D01*
X10680325Y573714D01*
X10693104Y570290D01*
X10770691Y549500D01*
X10770693Y549500D01*
X16239308Y549500D01*
X16239309Y549500D01*
X16329673Y573714D01*
X16353887Y580201D01*
X16456614Y639511D01*
X16845284Y1028183D01*
X16906607Y1061667D01*
X16932965Y1064501D01*
X16975739Y1064501D01*
X16975739Y1064502D01*
X17021454Y1071742D01*
X17067170Y1078982D01*
X17067171Y1078982D01*
X17067172Y1078983D01*
X17067175Y1078983D01*
X17169235Y1130986D01*
X17225528Y1144500D01*
X18065937Y1144500D01*
X18065937Y1141189D01*
X18119723Y1132817D01*
X18154588Y1108309D01*
X18750715Y512181D01*
X18784200Y450858D01*
X18779216Y381166D01*
X18737344Y325233D01*
X18671880Y300816D01*
X18663034Y300500D01*
X2004428Y300500D01*
X1995582Y300816D01*
X1766982Y317166D01*
X1749470Y319684D01*
X1529862Y367457D01*
X1512887Y372441D01*
X1492081Y380201D01*
X1333066Y439510D01*
X1302311Y450981D01*
X1286217Y458331D01*
X1088963Y566041D01*
X1074080Y575606D01*
X894163Y710290D01*
X880792Y721876D01*
X721875Y880793D01*
X710289Y894164D01*
X575605Y1074081D01*
X566040Y1088964D01*
X549621Y1119033D01*
X458327Y1286223D01*
X450983Y1302306D01*
X372437Y1512897D01*
X367458Y1529856D01*
X319683Y1749471D01*
X317165Y1766983D01*
X315227Y1794076D01*
X301054Y1992260D01*
X300816Y1995582D01*
X300500Y2004428D01*
X300500Y2106287D01*
X649500Y2106287D01*
X649500Y1893713D01*
X654706Y1860845D01*
X682753Y1683761D01*
X682753Y1683759D01*
X682754Y1683757D01*
X746743Y1486819D01*
X748444Y1481586D01*
X844951Y1292180D01*
X969890Y1120214D01*
X1120213Y969891D01*
X1292179Y844952D01*
X1292181Y844951D01*
X1292184Y844949D01*
X1481588Y748443D01*
X1683757Y682754D01*
X1893713Y649500D01*
X1893714Y649500D01*
X2106286Y649500D01*
X2106287Y649500D01*
X2316243Y682754D01*
X2518412Y748443D01*
X2707816Y844949D01*
X2729789Y860914D01*
X2879786Y969891D01*
X2879788Y969894D01*
X2879792Y969896D01*
X3030104Y1120208D01*
X3030106Y1120212D01*
X3030109Y1120214D01*
X3128036Y1255000D01*
X6119378Y1255000D01*
X6151065Y1164443D01*
X6151066Y1164441D01*
X6228934Y1058935D01*
X6334438Y981069D01*
X6458219Y937756D01*
X6474999Y936183D01*
X6975000Y936183D01*
X6991780Y937756D01*
X7115561Y981069D01*
X7221065Y1058935D01*
X7298933Y1164441D01*
X7298934Y1164443D01*
X7330621Y1255000D01*
X6975000Y1255000D01*
X6975000Y936183D01*
X6474999Y936183D01*
X6475000Y936184D01*
X6475000Y1255000D01*
X6119378Y1255000D01*
X3128036Y1255000D01*
X3149924Y1285127D01*
X3155051Y1292184D01*
X3164238Y1310215D01*
X7625001Y1310215D01*
X7625002Y1310192D01*
X7627908Y1285131D01*
X7627909Y1285127D01*
X7673211Y1182526D01*
X7673214Y1182521D01*
X7752520Y1103215D01*
X7752525Y1103212D01*
X7855123Y1057911D01*
X7880206Y1055001D01*
X8174999Y1055001D01*
X8675000Y1055001D01*
X8969786Y1055001D01*
X8969808Y1055003D01*
X8994869Y1057909D01*
X8994873Y1057910D01*
X9097474Y1103212D01*
X9097479Y1103215D01*
X9176785Y1182521D01*
X9176788Y1182526D01*
X9222089Y1285123D01*
X9222089Y1285125D01*
X9224999Y1310206D01*
X9225000Y1310209D01*
X9225000Y1455000D01*
X8675000Y1455000D01*
X8675000Y1055001D01*
X8174999Y1055001D01*
X8175000Y1055002D01*
X8175000Y1455000D01*
X7625001Y1455000D01*
X7625001Y1310215D01*
X3164238Y1310215D01*
X3251557Y1481588D01*
X3317246Y1683757D01*
X3350500Y1893713D01*
X3350500Y2106287D01*
X3317246Y2316243D01*
X3251557Y2518412D01*
X3155051Y2707816D01*
X3155049Y2707819D01*
X3155048Y2707821D01*
X3030109Y2879787D01*
X2879786Y3030110D01*
X2707820Y3155049D01*
X2518414Y3251556D01*
X2518413Y3251557D01*
X2518412Y3251557D01*
X2498367Y3258070D01*
X2440694Y3297506D01*
X2413495Y3361865D01*
X2425410Y3430711D01*
X2472654Y3482187D01*
X2536687Y3500000D01*
X2843054Y3500000D01*
X2931446Y3510615D01*
X3034998Y3551450D01*
X2050000Y4536448D01*
X1065001Y3551451D01*
X1065001Y3551450D01*
X1168555Y3510615D01*
X1256946Y3500000D01*
X1463313Y3500000D01*
X1530352Y3480315D01*
X1576107Y3427511D01*
X1586051Y3358353D01*
X1557026Y3294797D01*
X1501632Y3258070D01*
X1486334Y3253099D01*
X1481585Y3251556D01*
X1292179Y3155049D01*
X1120213Y3030110D01*
X969890Y2879787D01*
X844951Y2707821D01*
X748444Y2518415D01*
X748443Y2518413D01*
X748443Y2518412D01*
X740673Y2494499D01*
X682753Y2316240D01*
X652444Y2124876D01*
X649500Y2106287D01*
X300500Y2106287D01*
X300500Y5773061D01*
X750000Y5773061D01*
X750000Y4006940D01*
X756795Y3950350D01*
X756796Y3950349D01*
X1696448Y4890000D01*
X1696448Y4890001D01*
X2403552Y4890001D01*
X2403552Y4890000D01*
X3343203Y3950349D01*
X3350000Y4006940D01*
X3350000Y5773061D01*
X4680000Y5773061D01*
X4680000Y4006940D01*
X4686795Y3950350D01*
X4686796Y3950349D01*
X5626448Y4890000D01*
X5626448Y4890001D01*
X4686796Y5829653D01*
X4686795Y5829652D01*
X4680000Y5773061D01*
X3350000Y5773061D01*
X3350000Y5773062D01*
X3343203Y5829653D01*
X2403552Y4890001D01*
X1696448Y4890001D01*
X756796Y5829653D01*
X756795Y5829652D01*
X750000Y5773061D01*
X300500Y5773061D01*
X300500Y6228552D01*
X1065000Y6228552D01*
X2050000Y5243552D01*
X2050001Y5243552D01*
X3034998Y6228551D01*
X2931443Y6269387D01*
X2843054Y6280000D01*
X1256946Y6280000D01*
X1168555Y6269386D01*
X1168554Y6269386D01*
X1065000Y6228552D01*
X300500Y6228552D01*
X300500Y13771451D01*
X1065001Y13771451D01*
X1065001Y13771450D01*
X1168555Y13730615D01*
X1256946Y13720000D01*
X2843054Y13720000D01*
X2931446Y13730615D01*
X3034998Y13771450D01*
X2050000Y14756448D01*
X1065001Y13771451D01*
X300500Y13771451D01*
X300500Y15993061D01*
X750000Y15993061D01*
X750000Y14226940D01*
X756795Y14170350D01*
X756796Y14170349D01*
X1696448Y15110000D01*
X1696448Y15110001D01*
X2403552Y15110001D01*
X2403552Y15110000D01*
X3343203Y14170349D01*
X3350000Y14226940D01*
X3350000Y15993062D01*
X3343203Y16049653D01*
X2403552Y15110001D01*
X1696448Y15110001D01*
X756796Y16049653D01*
X756795Y16049652D01*
X750000Y15993061D01*
X300500Y15993061D01*
X300500Y17995573D01*
X300816Y18004419D01*
X308102Y18106287D01*
X649500Y18106287D01*
X649500Y17893713D01*
X652064Y17877525D01*
X678456Y17710889D01*
X682754Y17683757D01*
X743868Y17495667D01*
X748444Y17481586D01*
X844951Y17292180D01*
X969890Y17120214D01*
X1120213Y16969891D01*
X1292179Y16844952D01*
X1292181Y16844951D01*
X1292184Y16844949D01*
X1481588Y16748443D01*
X1501632Y16741931D01*
X1559306Y16702494D01*
X1586505Y16638135D01*
X1574590Y16569289D01*
X1527346Y16517813D01*
X1463313Y16500000D01*
X1256946Y16500000D01*
X1168555Y16489386D01*
X1168554Y16489386D01*
X1065000Y16448552D01*
X2050000Y15463552D01*
X2050001Y15463552D01*
X3034998Y16448551D01*
X2931443Y16489387D01*
X2843054Y16500000D01*
X2536687Y16500000D01*
X2469648Y16519685D01*
X2423893Y16572489D01*
X2413949Y16641647D01*
X2442974Y16705203D01*
X2498367Y16741931D01*
X2518412Y16748443D01*
X2707816Y16844949D01*
X2814996Y16922819D01*
X2879786Y16969891D01*
X2879788Y16969894D01*
X2879792Y16969896D01*
X3030104Y17120208D01*
X3030106Y17120212D01*
X3030109Y17120214D01*
X3155048Y17292180D01*
X3155047Y17292180D01*
X3155051Y17292184D01*
X3251557Y17481588D01*
X3317246Y17683757D01*
X3350500Y17893713D01*
X3350500Y17905001D01*
X4056181Y17905001D01*
X4056182Y17905000D01*
X4375000Y17905000D01*
X4375000Y18260622D01*
X4374999Y18260622D01*
X4284442Y18228935D01*
X4284440Y18228934D01*
X4178934Y18151066D01*
X4101066Y18045560D01*
X4101065Y18045558D01*
X4057755Y17921788D01*
X4057755Y17921786D01*
X4056181Y17905001D01*
X3350500Y17905001D01*
X3350500Y18106287D01*
X3317246Y18316243D01*
X3251557Y18518412D01*
X3155051Y18707816D01*
X3155049Y18707819D01*
X3155048Y18707821D01*
X3030109Y18879787D01*
X2879786Y19030110D01*
X2707820Y19155049D01*
X2518414Y19251556D01*
X2518413Y19251557D01*
X2518412Y19251557D01*
X2316243Y19317246D01*
X2316241Y19317247D01*
X2316240Y19317247D01*
X2154957Y19342792D01*
X2106287Y19350500D01*
X1893713Y19350500D01*
X1845042Y19342792D01*
X1683760Y19317247D01*
X1481585Y19251556D01*
X1292179Y19155049D01*
X1120213Y19030110D01*
X969890Y18879787D01*
X844951Y18707821D01*
X748444Y18518415D01*
X748443Y18518413D01*
X748443Y18518412D01*
X732869Y18470480D01*
X682753Y18316240D01*
X655865Y18146472D01*
X649500Y18106287D01*
X308102Y18106287D01*
X309083Y18120005D01*
X309083Y18120006D01*
X315381Y18208076D01*
X317165Y18233021D01*
X319683Y18250530D01*
X367459Y18470149D01*
X372436Y18487100D01*
X450985Y18697701D01*
X458325Y18713773D01*
X566044Y18911044D01*
X575600Y18925914D01*
X710294Y19105844D01*
X721868Y19119201D01*
X880799Y19278132D01*
X894156Y19289706D01*
X1074086Y19424400D01*
X1088956Y19433956D01*
X1286227Y19541675D01*
X1302299Y19549015D01*
X1512900Y19627564D01*
X1529851Y19632541D01*
X1749472Y19680318D01*
X1766977Y19682835D01*
X1995582Y19699184D01*
X2004428Y19699500D01*
X2047595Y19699500D01*
X21820500Y19699500D01*
X21887539Y19679815D01*
G37*
%TD.AperFunction*%
%TA.AperFunction,Conductor*%
G36*
X24927539Y3684815D02*
G01*
X24973294Y3632011D01*
X24984500Y3580500D01*
X24984500Y2575326D01*
X24999034Y2502260D01*
X24999097Y2502166D01*
X24999890Y2497902D01*
X24999597Y2495034D01*
X24999598Y2451041D01*
X24979500Y2349999D01*
X24979500Y1734174D01*
X24987331Y1674685D01*
X24988206Y1668044D01*
X25017293Y1559491D01*
X25017803Y1557589D01*
X25017517Y1545589D01*
X25021712Y1534342D01*
X25016701Y1511306D01*
X25016140Y1487739D01*
X25009041Y1476093D01*
X25006861Y1466069D01*
X24985709Y1437814D01*
X24834714Y1286818D01*
X24773394Y1253334D01*
X24747035Y1250500D01*
X23653070Y1250500D01*
X23586031Y1270185D01*
X23540276Y1322989D01*
X23530332Y1392147D01*
X23531927Y1400964D01*
X23532213Y1402274D01*
X23532469Y1405000D01*
X23079000Y1405000D01*
X23011961Y1424685D01*
X22966206Y1477489D01*
X22955000Y1529000D01*
X22955000Y1655000D01*
X22829000Y1655000D01*
X22761961Y1674685D01*
X22716206Y1727489D01*
X22705000Y1779000D01*
X22705000Y1905000D01*
X23205000Y1905000D01*
X23532467Y1905000D01*
X23532212Y1907730D01*
X23488405Y2032920D01*
X23409641Y2139642D01*
X23302920Y2218406D01*
X23205000Y2252670D01*
X23205000Y1905000D01*
X22705000Y1905000D01*
X22705000Y2252670D01*
X22704999Y2252670D01*
X22607079Y2218406D01*
X22511018Y2147509D01*
X22445389Y2123538D01*
X22377219Y2138853D01*
X22369408Y2143831D01*
X22367391Y2144859D01*
X22257175Y2201017D01*
X22257174Y2201018D01*
X22257171Y2201019D01*
X22165735Y2215500D01*
X22052255Y2215500D01*
X21985216Y2235185D01*
X21964574Y2251819D01*
X21951915Y2264478D01*
X21951913Y2264480D01*
X21880865Y2305500D01*
X21860589Y2317207D01*
X21777350Y2339510D01*
X21758727Y2344500D01*
X21758726Y2344500D01*
X21502254Y2344500D01*
X21435215Y2364185D01*
X21414572Y2380820D01*
X21373346Y2422047D01*
X21373344Y2422048D01*
X21373342Y2422050D01*
X21278254Y2470500D01*
X21260301Y2479648D01*
X21166524Y2494500D01*
X20074500Y2494500D01*
X20007461Y2514185D01*
X19961706Y2566989D01*
X19950500Y2618500D01*
X19950500Y2945000D01*
X21647332Y2945000D01*
X21681596Y2847078D01*
X21760358Y2740359D01*
X21867080Y2661595D01*
X21992271Y2617788D01*
X21992269Y2617788D01*
X21995000Y2617533D01*
X22495000Y2617533D01*
X22497729Y2617788D01*
X22622919Y2661595D01*
X22729641Y2740359D01*
X22808403Y2847078D01*
X22842668Y2945000D01*
X22495000Y2945000D01*
X22495000Y2617533D01*
X21995000Y2617533D01*
X21995000Y2945000D01*
X21647332Y2945000D01*
X19950500Y2945000D01*
X19950500Y3169501D01*
X19970185Y3236540D01*
X20022989Y3282295D01*
X20074500Y3293501D01*
X20078475Y3293501D01*
X20078481Y3293500D01*
X21166518Y3293501D01*
X21260304Y3308354D01*
X21373342Y3365950D01*
X21462588Y3455197D01*
X21523909Y3488680D01*
X21593601Y3483696D01*
X21645294Y3445000D01*
X22842669Y3445000D01*
X22842668Y3445001D01*
X22809586Y3539545D01*
X22806024Y3609324D01*
X22840752Y3669951D01*
X22902746Y3702179D01*
X22926627Y3704500D01*
X24860500Y3704500D01*
X24927539Y3684815D01*
G37*
%TD.AperFunction*%
%TA.AperFunction,Conductor*%
G36*
X12486534Y5447073D02*
G01*
X13451535Y4482072D01*
X13485020Y4420749D01*
X13480036Y4351057D01*
X13438164Y4295124D01*
X13372700Y4270707D01*
X13313770Y4280955D01*
X13299874Y4287090D01*
X13299875Y4287090D01*
X13274794Y4290000D01*
X13230000Y4290000D01*
X13230000Y3240000D01*
X13529999Y3240000D01*
X13529999Y4034786D01*
X13529997Y4034809D01*
X13527091Y4059870D01*
X13527090Y4059873D01*
X13520954Y4073770D01*
X13511882Y4143048D01*
X13541705Y4206233D01*
X13600954Y4243265D01*
X13670818Y4242385D01*
X13722069Y4211538D01*
X13755766Y4177841D01*
X13789251Y4116518D01*
X13789703Y4065970D01*
X13779500Y4014674D01*
X13779500Y2065322D01*
X13794032Y1992265D01*
X13794033Y1992261D01*
X13809300Y1969413D01*
X13849399Y1909399D01*
X13924020Y1859540D01*
X13932260Y1854034D01*
X13932264Y1854033D01*
X14005321Y1839501D01*
X14005324Y1839500D01*
X14005326Y1839500D01*
X14454676Y1839500D01*
X14454677Y1839501D01*
X14527740Y1854034D01*
X14610601Y1909399D01*
X14665966Y1992260D01*
X14680500Y2065326D01*
X14680500Y4014674D01*
X14680500Y4014676D01*
X14680500Y4014677D01*
X14665966Y4087739D01*
X14665966Y4087740D01*
X14651396Y4109546D01*
X14645746Y4127591D01*
X14635523Y4143499D01*
X14631071Y4174462D01*
X14630520Y4176222D01*
X14630500Y4178434D01*
X14630500Y4283745D01*
X14650185Y4350784D01*
X14702989Y4396539D01*
X14772147Y4406483D01*
X14835703Y4377458D01*
X14842181Y4371426D01*
X15238181Y3975426D01*
X15271666Y3914103D01*
X15274500Y3887745D01*
X15274500Y3763418D01*
X15285418Y3688482D01*
X15285418Y3688481D01*
X15285419Y3688479D01*
X15341921Y3572901D01*
X15341923Y3572898D01*
X15432897Y3481924D01*
X15432900Y3481922D01*
X15523735Y3437516D01*
X15548482Y3425418D01*
X15623418Y3414500D01*
X15623423Y3414500D01*
X15966577Y3414500D01*
X15966582Y3414500D01*
X16041518Y3425418D01*
X16102427Y3455195D01*
X16157099Y3481922D01*
X16157102Y3481924D01*
X16217319Y3542140D01*
X16278642Y3575625D01*
X16348334Y3570641D01*
X16392681Y3542140D01*
X16452897Y3481924D01*
X16452900Y3481922D01*
X16543735Y3437516D01*
X16568482Y3425418D01*
X16602377Y3420480D01*
X16605043Y3419256D01*
X16607966Y3419535D01*
X16636595Y3404776D01*
X16665875Y3391337D01*
X16668249Y3388456D01*
X16670068Y3387518D01*
X16691884Y3359777D01*
X16697241Y3350500D01*
X16714273Y3320999D01*
X16730745Y3253099D01*
X16707892Y3187072D01*
X16652970Y3143882D01*
X16606887Y3135000D01*
X16552000Y3135000D01*
X16522279Y3132214D01*
X16397077Y3088404D01*
X16290358Y3009642D01*
X16211596Y2902923D01*
X16177332Y2805000D01*
X16651000Y2805000D01*
X16718039Y2785315D01*
X16763794Y2732511D01*
X16775000Y2681000D01*
X16775000Y2429000D01*
X16755315Y2361961D01*
X16702511Y2316206D01*
X16651000Y2305000D01*
X16177332Y2305000D01*
X16211596Y2207078D01*
X16282491Y2111019D01*
X16306462Y2045390D01*
X16291147Y1977220D01*
X16286172Y1969413D01*
X16285142Y1967393D01*
X16285141Y1967391D01*
X16267643Y1933049D01*
X16228981Y1857173D01*
X16228981Y1857172D01*
X16214500Y1765736D01*
X16214500Y1722966D01*
X16205855Y1693526D01*
X16199332Y1663539D01*
X16195577Y1658524D01*
X16194815Y1655927D01*
X16178185Y1635290D01*
X16029714Y1486818D01*
X15968394Y1453334D01*
X15942035Y1450500D01*
X11067965Y1450500D01*
X11000926Y1470185D01*
X10980284Y1486819D01*
X10711819Y1755284D01*
X10678334Y1816607D01*
X10675500Y1842965D01*
X10675500Y2079677D01*
X10675499Y2079679D01*
X10660967Y2152736D01*
X10660966Y2152740D01*
X10654177Y2162901D01*
X10605601Y2235601D01*
X10550235Y2272595D01*
X10522739Y2290967D01*
X10522735Y2290968D01*
X10449677Y2305500D01*
X10449674Y2305500D01*
X10212965Y2305500D01*
X10145926Y2325185D01*
X10125284Y2341819D01*
X9406616Y3060487D01*
X9406614Y3060489D01*
X9351213Y3092475D01*
X9303888Y3119799D01*
X9291780Y3123043D01*
X9279673Y3126287D01*
X9279670Y3126288D01*
X9241478Y3136522D01*
X9189309Y3150500D01*
X9189308Y3150500D01*
X8890825Y3150500D01*
X8823786Y3170185D01*
X8778031Y3222989D01*
X8768087Y3292147D01*
X8769208Y3298692D01*
X8775500Y3330324D01*
X8775500Y4079677D01*
X8775499Y4079679D01*
X8760967Y4152736D01*
X8760966Y4152739D01*
X8760966Y4152740D01*
X8760964Y4152743D01*
X8758245Y4159308D01*
X8750775Y4228777D01*
X8782048Y4291257D01*
X8785092Y4294413D01*
X9087321Y4596642D01*
X9148641Y4630124D01*
X9218333Y4625140D01*
X9262680Y4596639D01*
X9564875Y4294444D01*
X9598360Y4233121D01*
X9593376Y4163429D01*
X9591756Y4159312D01*
X9589033Y4152739D01*
X9574500Y4079677D01*
X9574500Y3330322D01*
X9589032Y3257265D01*
X9589033Y3257261D01*
X9602878Y3236540D01*
X9644399Y3174399D01*
X9716405Y3126287D01*
X9727260Y3119034D01*
X9727264Y3119033D01*
X9800321Y3104501D01*
X9800324Y3104500D01*
X9800326Y3104500D01*
X10449676Y3104500D01*
X10449677Y3104501D01*
X10522740Y3119034D01*
X10605601Y3174399D01*
X10660966Y3257260D01*
X10675500Y3330326D01*
X10675500Y4079674D01*
X10675500Y4079677D01*
X10675499Y4079679D01*
X10660967Y4152736D01*
X10660966Y4152740D01*
X10653824Y4163429D01*
X10605601Y4235601D01*
X10536880Y4281518D01*
X10522736Y4290969D01*
X10521493Y4291483D01*
X10519201Y4293330D01*
X10512586Y4297750D01*
X10512981Y4298343D01*
X10501582Y4307529D01*
X10479407Y4320263D01*
X10472330Y4331104D01*
X10467091Y4335326D01*
X10458867Y4348965D01*
X10452908Y4360457D01*
X10451614Y4365289D01*
X10441148Y4383416D01*
X10405470Y4445213D01*
X10051868Y4798815D01*
X10018383Y4860138D01*
X10023367Y4929830D01*
X10065239Y4985763D01*
X10130703Y5010180D01*
X10158947Y5008969D01*
X10193475Y5003501D01*
X10193481Y5003500D01*
X10982744Y5003501D01*
X11049783Y4983817D01*
X11070425Y4967182D01*
X11393181Y4644427D01*
X11426666Y4583104D01*
X11429500Y4556746D01*
X11429500Y4178434D01*
X11409815Y4111395D01*
X11408623Y4109575D01*
X11400535Y4097470D01*
X11394033Y4087739D01*
X11379500Y4014677D01*
X11379500Y2065322D01*
X11394032Y1992265D01*
X11394033Y1992261D01*
X11409300Y1969413D01*
X11449399Y1909399D01*
X11524020Y1859540D01*
X11532260Y1854034D01*
X11532264Y1854033D01*
X11605321Y1839501D01*
X11605324Y1839500D01*
X11605326Y1839500D01*
X12054676Y1839500D01*
X12054677Y1839501D01*
X12127740Y1854034D01*
X12210601Y1909399D01*
X12265966Y1992260D01*
X12276500Y2045215D01*
X12530001Y2045215D01*
X12530002Y2045192D01*
X12532908Y2020131D01*
X12532909Y2020127D01*
X12578211Y1917526D01*
X12578214Y1917521D01*
X12657520Y1838215D01*
X12657525Y1838212D01*
X12760123Y1792911D01*
X12785205Y1790001D01*
X12829999Y1790001D01*
X13230000Y1790001D01*
X13274786Y1790001D01*
X13274808Y1790003D01*
X13299869Y1792909D01*
X13299873Y1792910D01*
X13402474Y1838212D01*
X13402479Y1838215D01*
X13481785Y1917521D01*
X13481788Y1917526D01*
X13527089Y2020123D01*
X13527089Y2020125D01*
X13529999Y2045206D01*
X13530000Y2045209D01*
X13530000Y2840000D01*
X13230000Y2840000D01*
X13230000Y1790001D01*
X12829999Y1790001D01*
X12830000Y1790002D01*
X12830000Y2840000D01*
X12530001Y2840000D01*
X12530001Y2045215D01*
X12276500Y2045215D01*
X12280500Y2065326D01*
X12280500Y4014674D01*
X12280499Y4014677D01*
X12276497Y4034795D01*
X12530000Y4034795D01*
X12530000Y3240000D01*
X12830000Y3240000D01*
X12830000Y4290000D01*
X12785203Y4290000D01*
X12760130Y4287092D01*
X12760126Y4287091D01*
X12657525Y4241789D01*
X12657520Y4241786D01*
X12578214Y4162480D01*
X12578211Y4162475D01*
X12532910Y4059878D01*
X12532910Y4059876D01*
X12530000Y4034795D01*
X12276497Y4034795D01*
X12265966Y4087739D01*
X12265966Y4087740D01*
X12251396Y4109546D01*
X12230520Y4176222D01*
X12230500Y4178434D01*
X12230500Y4711271D01*
X12230501Y4711284D01*
X12230501Y4826726D01*
X12224650Y4848561D01*
X12203207Y4928587D01*
X12189190Y4952865D01*
X12163949Y4996584D01*
X12147478Y5064484D01*
X12170330Y5130511D01*
X12183651Y5146260D01*
X12203050Y5165658D01*
X12260646Y5278696D01*
X12260646Y5278698D01*
X12260647Y5278699D01*
X12276263Y5377293D01*
X12278245Y5376979D01*
X12300078Y5434356D01*
X12356287Y5475857D01*
X12426010Y5480382D01*
X12486534Y5447073D01*
G37*
%TD.AperFunction*%
%TA.AperFunction,Conductor*%
G36*
X17377855Y10374862D02*
G01*
X17394091Y10361194D01*
X18860765Y8894520D01*
X18952090Y8841793D01*
X19053951Y8814500D01*
X19159405Y8814500D01*
X21699959Y8814500D01*
X21766998Y8794815D01*
X21812753Y8742011D01*
X21822697Y8672853D01*
X21793672Y8609297D01*
X21787640Y8602819D01*
X21741923Y8557103D01*
X21741921Y8557100D01*
X21685419Y8441522D01*
X21685418Y8441520D01*
X21685418Y8441518D01*
X21674500Y8366582D01*
X21674500Y8023418D01*
X21685418Y7948482D01*
X21685418Y7948481D01*
X21685419Y7948479D01*
X21741921Y7832901D01*
X21741923Y7832898D01*
X21832897Y7741924D01*
X21832900Y7741922D01*
X21943656Y7687778D01*
X21948482Y7685418D01*
X22023418Y7674500D01*
X22023423Y7674500D01*
X22466577Y7674500D01*
X22466582Y7674500D01*
X22541518Y7685418D01*
X22616370Y7722011D01*
X22657099Y7741922D01*
X22657102Y7741924D01*
X22673360Y7758181D01*
X22700287Y7772885D01*
X22726106Y7789477D01*
X22732306Y7790369D01*
X22734683Y7791666D01*
X22761041Y7794500D01*
X22851781Y7794500D01*
X22918820Y7774815D01*
X22964575Y7722011D01*
X22974519Y7652853D01*
X22966587Y7627837D01*
X22967369Y7627583D01*
X22964352Y7618302D01*
X22949500Y7524525D01*
X22949500Y7161483D01*
X22960292Y7093343D01*
X22964354Y7067696D01*
X23021950Y6954658D01*
X23021952Y6954656D01*
X23021954Y6954653D01*
X23111652Y6864955D01*
X23111654Y6864954D01*
X23111658Y6864950D01*
X23207928Y6815898D01*
X23224698Y6807353D01*
X23318475Y6792501D01*
X23318481Y6792500D01*
X24556518Y6792501D01*
X24650304Y6807354D01*
X24763342Y6864950D01*
X24853050Y6954658D01*
X24910646Y7067696D01*
X24910646Y7067698D01*
X24910647Y7067699D01*
X24925499Y7161476D01*
X24925500Y7161481D01*
X24925499Y7524518D01*
X24910646Y7618304D01*
X24910645Y7618306D01*
X24909119Y7627943D01*
X24911142Y7628264D01*
X24909506Y7685506D01*
X24945584Y7745340D01*
X25008284Y7776170D01*
X25077698Y7768208D01*
X25085708Y7764481D01*
X25099696Y7757354D01*
X25099698Y7757354D01*
X25099700Y7757353D01*
X25099698Y7757353D01*
X25193475Y7742501D01*
X25193481Y7742500D01*
X25976745Y7742501D01*
X26043784Y7722817D01*
X26089539Y7670013D01*
X26099483Y7600854D01*
X26070458Y7537298D01*
X26064426Y7530820D01*
X24795426Y6261819D01*
X24734103Y6228334D01*
X24707745Y6225500D01*
X24197237Y6225500D01*
X24135237Y6242113D01*
X24012488Y6312983D01*
X24012489Y6312983D01*
X24001006Y6316060D01*
X23872475Y6350500D01*
X23727525Y6350500D01*
X23598993Y6316060D01*
X23587511Y6312983D01*
X23461988Y6240512D01*
X23461982Y6240507D01*
X23359493Y6138018D01*
X23359488Y6138012D01*
X23287017Y6012489D01*
X23287016Y6012485D01*
X23249500Y5872475D01*
X23249500Y5727525D01*
X23280504Y5611819D01*
X23287017Y5587512D01*
X23359488Y5461989D01*
X23359490Y5461987D01*
X23359491Y5461985D01*
X23461985Y5359491D01*
X23461986Y5359490D01*
X23461988Y5359489D01*
X23587511Y5287018D01*
X23587512Y5287018D01*
X23587515Y5287016D01*
X23727525Y5249500D01*
X23727528Y5249500D01*
X23872472Y5249500D01*
X23872475Y5249500D01*
X24012485Y5287016D01*
X24138015Y5359491D01*
X24166705Y5388181D01*
X24228028Y5421666D01*
X24254386Y5424500D01*
X24977725Y5424500D01*
X24977727Y5424500D01*
X25079588Y5451793D01*
X25170913Y5504520D01*
X26912821Y7246430D01*
X26974142Y7279913D01*
X27043833Y7274929D01*
X27099767Y7233057D01*
X27124184Y7167593D01*
X27124500Y7158748D01*
X27124500Y6982131D01*
X27124501Y6982124D01*
X27130908Y6922517D01*
X27181202Y6787672D01*
X27181206Y6787665D01*
X27240962Y6707842D01*
X27265380Y6642378D01*
X27250529Y6574105D01*
X27201124Y6524699D01*
X27132851Y6509847D01*
X27109607Y6513756D01*
X26972475Y6550500D01*
X26827525Y6550500D01*
X26715289Y6520426D01*
X26687511Y6512983D01*
X26561988Y6440512D01*
X26561982Y6440507D01*
X26459493Y6338018D01*
X26459488Y6338012D01*
X26387017Y6212489D01*
X26387016Y6212485D01*
X26349500Y6072475D01*
X26349500Y5927525D01*
X26380988Y5810013D01*
X26387017Y5787512D01*
X26459488Y5661989D01*
X26459493Y5661983D01*
X26463181Y5658295D01*
X26496666Y5596972D01*
X26499500Y5570614D01*
X26499500Y5270739D01*
X26479815Y5203700D01*
X26427011Y5157945D01*
X26359315Y5147800D01*
X26300827Y5155500D01*
X26300826Y5155500D01*
X25669174Y5155500D01*
X25669173Y5155500D01*
X25603047Y5146795D01*
X25475873Y5112718D01*
X25414265Y5087200D01*
X25414249Y5087192D01*
X25300250Y5021374D01*
X25300234Y5021363D01*
X25247328Y4980767D01*
X25247321Y4980761D01*
X25154239Y4887679D01*
X25154233Y4887672D01*
X25113637Y4834766D01*
X25113626Y4834750D01*
X25047808Y4720751D01*
X25047804Y4720743D01*
X25040046Y4702011D01*
X25031776Y4682048D01*
X24987937Y4627645D01*
X24921644Y4605579D01*
X24917216Y4605500D01*
X22695528Y4605500D01*
X22639235Y4619015D01*
X22537175Y4671017D01*
X22537174Y4671018D01*
X22537171Y4671019D01*
X22445735Y4685500D01*
X22044260Y4685500D01*
X22044260Y4685499D01*
X21952829Y4671019D01*
X21952828Y4671019D01*
X21915065Y4651778D01*
X21853708Y4620515D01*
X21797416Y4607000D01*
X20884500Y4607000D01*
X20875814Y4609551D01*
X20866853Y4608262D01*
X20842812Y4619241D01*
X20817461Y4626685D01*
X20811533Y4633526D01*
X20803297Y4637287D01*
X20789007Y4659522D01*
X20771706Y4679489D01*
X20769418Y4690004D01*
X20765523Y4696065D01*
X20760500Y4731000D01*
X20760500Y4848561D01*
X20780185Y4915600D01*
X20832989Y4961355D01*
X20841168Y4964743D01*
X20847708Y4967182D01*
X20897526Y4985763D01*
X20952326Y5006202D01*
X20952326Y5006203D01*
X20952331Y5006204D01*
X21067546Y5092454D01*
X21153796Y5207669D01*
X21204091Y5342517D01*
X21210500Y5402127D01*
X21210499Y6047872D01*
X21204091Y6107483D01*
X21203252Y6109732D01*
X21153797Y6242329D01*
X21153793Y6242336D01*
X21067547Y6357545D01*
X21067544Y6357548D01*
X20952335Y6443794D01*
X20952328Y6443798D01*
X20817482Y6494092D01*
X20817483Y6494092D01*
X20757883Y6500499D01*
X20757881Y6500500D01*
X20757873Y6500500D01*
X20757864Y6500500D01*
X19862129Y6500500D01*
X19862123Y6500499D01*
X19802516Y6494092D01*
X19667671Y6443798D01*
X19667664Y6443794D01*
X19552455Y6357548D01*
X19461428Y6235952D01*
X19405494Y6194082D01*
X19335802Y6189098D01*
X19274480Y6222584D01*
X19246806Y6264777D01*
X19243920Y6272096D01*
X19152564Y6392565D01*
X19032095Y6483921D01*
X18891443Y6539387D01*
X18803054Y6550000D01*
X18610000Y6550000D01*
X18610000Y4900000D01*
X18803054Y4900000D01*
X18891443Y4910614D01*
X19032095Y4966080D01*
X19152564Y5057436D01*
X19243920Y5177905D01*
X19246805Y5185221D01*
X19289709Y5240367D01*
X19355615Y5263564D01*
X19423600Y5247446D01*
X19461429Y5214048D01*
X19466203Y5207670D01*
X19466204Y5207669D01*
X19552454Y5092454D01*
X19583022Y5069571D01*
X19667664Y5006207D01*
X19667673Y5006202D01*
X19748020Y4976235D01*
X19772292Y4967182D01*
X19778832Y4964743D01*
X19834766Y4922873D01*
X19859184Y4857408D01*
X19859500Y4848561D01*
X19859500Y4361255D01*
X19839815Y4294216D01*
X19823181Y4273574D01*
X19781954Y4232348D01*
X19781951Y4232343D01*
X19781950Y4232342D01*
X19727539Y4125554D01*
X19724353Y4119302D01*
X19720508Y4095029D01*
X19690576Y4031895D01*
X19631264Y3994965D01*
X19561401Y3995965D01*
X19510354Y4026749D01*
X19376616Y4160487D01*
X19376614Y4160489D01*
X19273887Y4219799D01*
X19232408Y4230913D01*
X19232407Y4230914D01*
X19232404Y4230914D01*
X19205856Y4238028D01*
X19150270Y4270122D01*
X19098346Y4322046D01*
X19098342Y4322050D01*
X19013481Y4365289D01*
X18985301Y4379648D01*
X18891524Y4394500D01*
X17803482Y4394500D01*
X17722519Y4381677D01*
X17709696Y4379646D01*
X17596658Y4322050D01*
X17596657Y4322049D01*
X17596656Y4322049D01*
X17523414Y4248807D01*
X17462090Y4215323D01*
X17392399Y4220308D01*
X17336465Y4262179D01*
X17324333Y4282029D01*
X17268078Y4397100D01*
X17268076Y4397103D01*
X17177102Y4488077D01*
X17177099Y4488079D01*
X17061521Y4544581D01*
X17061519Y4544582D01*
X17061518Y4544582D01*
X16986582Y4555500D01*
X16643418Y4555500D01*
X16568482Y4544582D01*
X16568480Y4544582D01*
X16568478Y4544581D01*
X16452900Y4488079D01*
X16452897Y4488077D01*
X16392681Y4427860D01*
X16331358Y4394375D01*
X16261666Y4399359D01*
X16217319Y4427860D01*
X16157102Y4488077D01*
X16157099Y4488079D01*
X16041521Y4544581D01*
X16041519Y4544582D01*
X16041518Y4544582D01*
X15966582Y4555500D01*
X15966577Y4555500D01*
X15842255Y4555500D01*
X15775216Y4575185D01*
X15754574Y4591819D01*
X15554573Y4791820D01*
X15521088Y4853143D01*
X15526072Y4922835D01*
X15567944Y4978768D01*
X15633408Y5003185D01*
X15642254Y5003501D01*
X16856517Y5003501D01*
X16856518Y5003501D01*
X16950304Y5018354D01*
X17063342Y5075950D01*
X17153050Y5165658D01*
X17210646Y5278696D01*
X17210646Y5278700D01*
X17212961Y5283242D01*
X17260935Y5334038D01*
X17328756Y5350833D01*
X17394891Y5328296D01*
X17438343Y5273581D01*
X17438801Y5272437D01*
X17476079Y5177905D01*
X17567435Y5057436D01*
X17687904Y4966080D01*
X17828556Y4910614D01*
X17916946Y4900000D01*
X18110000Y4900000D01*
X18110000Y6550000D01*
X17916946Y6550000D01*
X17828556Y6539387D01*
X17687904Y6483921D01*
X17567435Y6392565D01*
X17476079Y6272096D01*
X17442944Y6188069D01*
X17400038Y6132925D01*
X17334130Y6109732D01*
X17266145Y6125853D01*
X17217669Y6176169D01*
X17215215Y6181137D01*
X17210625Y6190976D01*
X17198431Y6236485D01*
X17151374Y6317989D01*
X17149092Y6322882D01*
X17144620Y6352290D01*
X17137606Y6381203D01*
X17139270Y6387476D01*
X17138589Y6391958D01*
X17143195Y6402265D01*
X17150981Y6431599D01*
X17153048Y6435657D01*
X17153050Y6435658D01*
X17210646Y6548696D01*
X17214610Y6573720D01*
X17224713Y6637511D01*
X17225500Y6642481D01*
X17225499Y7005518D01*
X17210646Y7099304D01*
X17153050Y7212342D01*
X17153046Y7212346D01*
X17153045Y7212348D01*
X17063347Y7302046D01*
X17063343Y7302049D01*
X17063342Y7302050D01*
X17058388Y7304574D01*
X16972147Y7348517D01*
X16921352Y7396491D01*
X16904557Y7464313D01*
X16927095Y7530447D01*
X16972145Y7569483D01*
X17063342Y7615950D01*
X17153050Y7705658D01*
X17210646Y7818696D01*
X17210646Y7818698D01*
X17210647Y7818699D01*
X17225499Y7912476D01*
X17225500Y7912481D01*
X17225499Y8275518D01*
X17210646Y8369304D01*
X17153050Y8482342D01*
X17153046Y8482346D01*
X17153045Y8482348D01*
X17063347Y8572046D01*
X17063343Y8572049D01*
X17063342Y8572050D01*
X17060599Y8573448D01*
X16972147Y8618517D01*
X16921352Y8666491D01*
X16904557Y8734313D01*
X16927095Y8800447D01*
X16972145Y8839483D01*
X17063342Y8885950D01*
X17153050Y8975658D01*
X17210646Y9088696D01*
X17210646Y9088698D01*
X17210647Y9088699D01*
X17223912Y9172456D01*
X17225500Y9182481D01*
X17225499Y9545518D01*
X17210646Y9639304D01*
X17153050Y9752342D01*
X17153046Y9752346D01*
X17153045Y9752348D01*
X17063347Y9842046D01*
X17063343Y9842049D01*
X17063342Y9842050D01*
X17029874Y9859103D01*
X16972147Y9888517D01*
X16921352Y9936491D01*
X16904557Y10004313D01*
X16927095Y10070447D01*
X16972145Y10109483D01*
X17063342Y10155950D01*
X17153050Y10245658D01*
X17195927Y10329810D01*
X17243899Y10380603D01*
X17311720Y10397399D01*
X17377855Y10374862D01*
G37*
%TD.AperFunction*%
%TA.AperFunction,Conductor*%
G36*
X37667539Y11059815D02*
G01*
X37713294Y11007011D01*
X37724500Y10955500D01*
X37724500Y7227727D01*
X37724500Y7122273D01*
X37730655Y7099303D01*
X37751793Y7020411D01*
X37760392Y7005518D01*
X37804520Y6929087D01*
X37804522Y6929085D01*
X38213181Y6520426D01*
X38246666Y6459103D01*
X38249500Y6432745D01*
X38249500Y6427525D01*
X38286321Y6290110D01*
X38287017Y6287512D01*
X38359488Y6161989D01*
X38359490Y6161987D01*
X38359491Y6161985D01*
X38461985Y6059491D01*
X38461986Y6059490D01*
X38461988Y6059489D01*
X38587511Y5987018D01*
X38587512Y5987018D01*
X38587515Y5987016D01*
X38662492Y5966926D01*
X38667674Y5963768D01*
X38673729Y5963334D01*
X38697157Y5945796D01*
X38722150Y5930562D01*
X38724802Y5925102D01*
X38729663Y5921463D01*
X38739891Y5894041D01*
X38752679Y5867715D01*
X38751958Y5861687D01*
X38754080Y5855998D01*
X38747858Y5827399D01*
X38744384Y5798339D01*
X38740188Y5792140D01*
X38739228Y5787725D01*
X38718079Y5759473D01*
X38570424Y5611818D01*
X38509104Y5578334D01*
X38482745Y5575500D01*
X31426292Y5575500D01*
X31359253Y5595185D01*
X31323189Y5630611D01*
X31307952Y5653415D01*
X31307948Y5653420D01*
X31203419Y5757949D01*
X31203413Y5757954D01*
X31180608Y5773192D01*
X31135804Y5826804D01*
X31125500Y5876293D01*
X31125500Y6727725D01*
X31125499Y6727729D01*
X31113832Y6771273D01*
X31098207Y6829588D01*
X31045480Y6920913D01*
X29345913Y8620480D01*
X29293917Y8650500D01*
X29254589Y8673207D01*
X29203657Y8686854D01*
X29152727Y8700500D01*
X29152726Y8700500D01*
X27661255Y8700500D01*
X27640009Y8706739D01*
X27617922Y8708318D01*
X27607138Y8716391D01*
X27594216Y8720185D01*
X27579717Y8736917D01*
X27561988Y8750189D01*
X27557280Y8762812D01*
X27548461Y8772989D01*
X27545309Y8794905D01*
X27537571Y8815653D01*
X27540433Y8828815D01*
X27538517Y8842147D01*
X27547715Y8862289D01*
X27552422Y8883926D01*
X27565693Y8901655D01*
X27567542Y8905703D01*
X27573573Y8912181D01*
X27654573Y8993182D01*
X27715896Y9026667D01*
X27742255Y9029501D01*
X28172871Y9029501D01*
X28172872Y9029501D01*
X28232483Y9035909D01*
X28367331Y9086204D01*
X28482546Y9172454D01*
X28568796Y9287669D01*
X28619091Y9422517D01*
X28625500Y9482127D01*
X28625499Y10077872D01*
X28619091Y10137483D01*
X28613187Y10153312D01*
X28568797Y10272329D01*
X28568793Y10272336D01*
X28482547Y10387545D01*
X28482544Y10387548D01*
X28367335Y10473794D01*
X28367328Y10473798D01*
X28285027Y10504494D01*
X28229093Y10546365D01*
X28204676Y10611830D01*
X28219528Y10680103D01*
X28268933Y10729508D01*
X28285027Y10736858D01*
X28285454Y10737017D01*
X28417331Y10786204D01*
X28532546Y10872454D01*
X28586926Y10945098D01*
X28642859Y10986967D01*
X28712551Y10991951D01*
X28748193Y10978171D01*
X28767509Y10967019D01*
X28767510Y10967018D01*
X28767512Y10967018D01*
X28767515Y10967016D01*
X28907525Y10929500D01*
X28907528Y10929500D01*
X29052472Y10929500D01*
X29052475Y10929500D01*
X29192485Y10967016D01*
X29318015Y11039491D01*
X29321705Y11043181D01*
X29383028Y11076666D01*
X29409386Y11079500D01*
X37600500Y11079500D01*
X37667539Y11059815D01*
G37*
%TD.AperFunction*%
%TA.AperFunction,Conductor*%
G36*
X9105563Y16432888D02*
G01*
X9185015Y16387016D01*
X9325025Y16349500D01*
X9325028Y16349500D01*
X9469972Y16349500D01*
X9469975Y16349500D01*
X9609985Y16387016D01*
X9689436Y16432888D01*
X9751436Y16449500D01*
X11510130Y16449500D01*
X11577169Y16429815D01*
X11622924Y16377011D01*
X11632868Y16307853D01*
X11627172Y16284546D01*
X11617786Y16257725D01*
X11617530Y16255001D01*
X11617531Y16255000D01*
X12071000Y16255000D01*
X12138039Y16235315D01*
X12183794Y16182511D01*
X12195000Y16131000D01*
X12195000Y16005000D01*
X12321000Y16005000D01*
X12388039Y15985315D01*
X12433794Y15932511D01*
X12445000Y15881000D01*
X12445000Y15407333D01*
X12542922Y15441597D01*
X12638981Y15512492D01*
X12704609Y15536463D01*
X12772780Y15521148D01*
X12780589Y15516171D01*
X12782607Y15515143D01*
X12782609Y15515141D01*
X12892825Y15458983D01*
X12892826Y15458983D01*
X12892828Y15458982D01*
X12927947Y15453421D01*
X12984265Y15444500D01*
X13325734Y15444501D01*
X13325739Y15444501D01*
X13325739Y15444502D01*
X13393346Y15455209D01*
X13417170Y15458982D01*
X13417171Y15458982D01*
X13417172Y15458983D01*
X13417175Y15458983D01*
X13527391Y15515141D01*
X13528421Y15516171D01*
X13530432Y15518181D01*
X13535033Y15520694D01*
X13535290Y15520880D01*
X13535314Y15520847D01*
X13591755Y15551666D01*
X13618113Y15554500D01*
X14201035Y15554500D01*
X14268074Y15534815D01*
X14288716Y15518181D01*
X14826317Y14980580D01*
X14859802Y14919257D01*
X14854818Y14849565D01*
X14849121Y14836605D01*
X14789353Y14719305D01*
X14789352Y14719302D01*
X14774500Y14625525D01*
X14774500Y14262483D01*
X14781068Y14221017D01*
X14789354Y14168696D01*
X14819032Y14110450D01*
X14831928Y14041781D01*
X14811511Y13990234D01*
X14813555Y13989054D01*
X14737017Y13856489D01*
X14737016Y13856485D01*
X14699500Y13716475D01*
X14699500Y13571525D01*
X14737016Y13431515D01*
X14757548Y13395952D01*
X14757886Y13395368D01*
X14774500Y13333366D01*
X14774500Y12992483D01*
X14785292Y12924343D01*
X14789354Y12898696D01*
X14821963Y12834698D01*
X14840388Y12798537D01*
X14853284Y12729867D01*
X14837290Y12680242D01*
X14783161Y12586489D01*
X14783160Y12586485D01*
X14745644Y12446475D01*
X14745644Y12301525D01*
X14778394Y12179303D01*
X14778460Y12179057D01*
X14781159Y12127567D01*
X14774500Y12085520D01*
X14774500Y11722483D01*
X14781702Y11677011D01*
X14789354Y11628696D01*
X14846950Y11515658D01*
X14846952Y11515656D01*
X14846954Y11515653D01*
X14910385Y11452222D01*
X14943870Y11390899D01*
X14944340Y11340445D01*
X14940939Y11323282D01*
X14937016Y11316485D01*
X14899500Y11176475D01*
X14899500Y11114093D01*
X14897136Y11102159D01*
X14886368Y11081536D01*
X14879815Y11059216D01*
X14865333Y11041246D01*
X14864800Y11040223D01*
X14864262Y11039917D01*
X14863181Y11038574D01*
X14846954Y11022348D01*
X14846951Y11022343D01*
X14846950Y11022342D01*
X14835566Y11000000D01*
X14789352Y10909302D01*
X14774500Y10815525D01*
X14774500Y10452483D01*
X14784785Y10387548D01*
X14789354Y10358696D01*
X14846950Y10245658D01*
X14846952Y10245656D01*
X14846954Y10245653D01*
X14877972Y10214635D01*
X14911457Y10153312D01*
X14906473Y10083620D01*
X14897680Y10064957D01*
X14887017Y10046488D01*
X14887016Y10046487D01*
X14875716Y10004313D01*
X14849500Y9906475D01*
X14849500Y9906473D01*
X14849500Y9787117D01*
X14835985Y9730822D01*
X14789352Y9639302D01*
X14774500Y9545525D01*
X14774500Y9182483D01*
X14785292Y9114343D01*
X14789354Y9088696D01*
X14846950Y8975658D01*
X14846952Y8975656D01*
X14846954Y8975653D01*
X14877972Y8944635D01*
X14911457Y8883312D01*
X14906473Y8813620D01*
X14897680Y8794957D01*
X14887017Y8776488D01*
X14887016Y8776487D01*
X14875716Y8734313D01*
X14849500Y8636475D01*
X14849500Y8636473D01*
X14849500Y8517117D01*
X14835985Y8460822D01*
X14789352Y8369302D01*
X14774500Y8275525D01*
X14774500Y7912483D01*
X14782309Y7863181D01*
X14789354Y7818696D01*
X14846950Y7705658D01*
X14846952Y7705656D01*
X14846954Y7705653D01*
X14877972Y7674635D01*
X14911457Y7613312D01*
X14906473Y7543620D01*
X14897680Y7524957D01*
X14887017Y7506488D01*
X14887016Y7506487D01*
X14868922Y7438959D01*
X14849500Y7366475D01*
X14849500Y7366473D01*
X14849500Y7247117D01*
X14835985Y7190822D01*
X14789352Y7099302D01*
X14774500Y7005525D01*
X14774500Y6642483D01*
X14779258Y6612445D01*
X14789354Y6548696D01*
X14846950Y6435658D01*
X14846952Y6435656D01*
X14846954Y6435653D01*
X14936652Y6345955D01*
X14936654Y6345954D01*
X14936658Y6345950D01*
X15027851Y6299485D01*
X15078647Y6251510D01*
X15095442Y6183689D01*
X15072904Y6117554D01*
X15027852Y6078516D01*
X14936658Y6032050D01*
X14936657Y6032049D01*
X14936652Y6032046D01*
X14846954Y5942348D01*
X14846951Y5942343D01*
X14846950Y5942342D01*
X14839272Y5927273D01*
X14789352Y5829302D01*
X14786337Y5820020D01*
X14783680Y5820884D01*
X14760261Y5771491D01*
X14700947Y5734564D01*
X14631084Y5735568D01*
X14580043Y5766350D01*
X14236819Y6109574D01*
X14203334Y6170897D01*
X14200500Y6197255D01*
X14200500Y9624403D01*
X14200500Y9624405D01*
X14173207Y9726265D01*
X14120480Y9817591D01*
X14045913Y9892158D01*
X12311550Y11626521D01*
X12278065Y11687844D01*
X12276047Y11717609D01*
X12275500Y11717609D01*
X12275499Y12085518D01*
X12275178Y12087546D01*
X12260646Y12179304D01*
X12203050Y12292342D01*
X12203046Y12292346D01*
X12203045Y12292348D01*
X12113347Y12382046D01*
X12113343Y12382049D01*
X12113342Y12382050D01*
X12079668Y12399208D01*
X12022147Y12428517D01*
X11971352Y12476491D01*
X11954557Y12544313D01*
X11977095Y12610447D01*
X12022145Y12649483D01*
X12113342Y12695950D01*
X12203050Y12785658D01*
X12260646Y12898696D01*
X12260646Y12898698D01*
X12260647Y12898699D01*
X12275499Y12992476D01*
X12275500Y12992481D01*
X12275499Y13355518D01*
X12260646Y13449304D01*
X12203050Y13562342D01*
X12203046Y13562346D01*
X12203045Y13562348D01*
X12113347Y13652046D01*
X12113344Y13652048D01*
X12113342Y13652050D01*
X12082320Y13667857D01*
X12031526Y13715830D01*
X12014731Y13783651D01*
X12037269Y13849786D01*
X12080676Y13887970D01*
X12087643Y13891653D01*
X12196792Y13972208D01*
X12277346Y14081355D01*
X12316762Y14194000D01*
X9783237Y14194000D01*
X9762380Y14164605D01*
X9707531Y14121322D01*
X9637989Y14114563D01*
X9575833Y14146475D01*
X9573570Y14148681D01*
X9557396Y14164855D01*
X9557393Y14164857D01*
X9557391Y14164859D01*
X9447175Y14221017D01*
X9447174Y14221018D01*
X9447171Y14221019D01*
X9355735Y14235500D01*
X9014260Y14235500D01*
X9014260Y14235499D01*
X8922829Y14221019D01*
X8922828Y14221019D01*
X8873496Y14195883D01*
X8812609Y14164859D01*
X8812607Y14164858D01*
X8803914Y14160428D01*
X8802881Y14162455D01*
X8749681Y14143480D01*
X8681629Y14159314D01*
X8668982Y14167509D01*
X8572920Y14238406D01*
X8475000Y14272670D01*
X8475000Y13799000D01*
X8455315Y13731961D01*
X8402511Y13686206D01*
X8351000Y13675000D01*
X8225000Y13675000D01*
X8225000Y13549000D01*
X8205315Y13481961D01*
X8152511Y13436206D01*
X8101000Y13425000D01*
X7669083Y13425000D01*
X7676223Y13341007D01*
X7691594Y13297081D01*
X7770358Y13190359D01*
X7837420Y13140865D01*
X7879671Y13085217D01*
X7885129Y13015561D01*
X7852061Y12954012D01*
X7835846Y12940182D01*
X7832897Y12938077D01*
X7741923Y12847103D01*
X7741921Y12847100D01*
X7685419Y12731522D01*
X7685418Y12731520D01*
X7685418Y12731518D01*
X7674500Y12656582D01*
X7674500Y12213418D01*
X7685418Y12138482D01*
X7685418Y12138481D01*
X7685419Y12138479D01*
X7741921Y12022901D01*
X7741923Y12022898D01*
X7832897Y11931924D01*
X7832900Y11931922D01*
X7938087Y11880500D01*
X7948482Y11875418D01*
X8023418Y11864500D01*
X8023432Y11864500D01*
X8026615Y11864269D01*
X8027639Y11863886D01*
X8027857Y11863854D01*
X8027850Y11863807D01*
X8092056Y11839790D01*
X8105333Y11828274D01*
X9146426Y10787181D01*
X9179911Y10725858D01*
X9174927Y10656166D01*
X9133055Y10600233D01*
X9067591Y10575816D01*
X9058745Y10575500D01*
X8491495Y10575500D01*
X8424456Y10595185D01*
X8384108Y10637500D01*
X8348311Y10699501D01*
X8340509Y10713015D01*
X8238015Y10815509D01*
X8238013Y10815510D01*
X8238011Y10815512D01*
X8112488Y10887983D01*
X8112489Y10887983D01*
X8101006Y10891060D01*
X7972475Y10925500D01*
X7827525Y10925500D01*
X7698993Y10891060D01*
X7687511Y10887983D01*
X7559863Y10814285D01*
X7491963Y10797812D01*
X7425936Y10820665D01*
X7382745Y10875586D01*
X7381336Y10879275D01*
X7376696Y10892027D01*
X7374259Y10910545D01*
X7354691Y10952509D01*
X7352837Y10957604D01*
X7350954Y10987279D01*
X7346490Y11016674D01*
X7348628Y11023957D01*
X7348414Y11027334D01*
X7350966Y11031921D01*
X7356980Y11052401D01*
X7374259Y11089455D01*
X7380500Y11136861D01*
X7380499Y11363138D01*
X7374259Y11410545D01*
X7368217Y11423501D01*
X7356982Y11447596D01*
X7346490Y11516674D01*
X7356980Y11552401D01*
X7374259Y11589455D01*
X7380500Y11636861D01*
X7380499Y11863138D01*
X7374259Y11910545D01*
X7343561Y11976377D01*
X7333069Y12045454D01*
X7345459Y12085078D01*
X7357859Y12109414D01*
X7365646Y12124696D01*
X7365646Y12124698D01*
X7365647Y12124699D01*
X7380499Y12218476D01*
X7380500Y12218481D01*
X7380499Y12581518D01*
X7365646Y12675304D01*
X7358407Y12689511D01*
X7345511Y12758177D01*
X7369124Y12819441D01*
X7382345Y12837354D01*
X7427149Y12965399D01*
X7427149Y12965400D01*
X7429999Y12995793D01*
X7429999Y13309609D01*
X7416877Y13463958D01*
X7382344Y13562649D01*
X7344255Y13614257D01*
X7280267Y13550267D01*
X7233020Y13524469D01*
X6731775Y13023224D01*
X6695368Y12986818D01*
X6634044Y12953333D01*
X6607688Y12950500D01*
X6251309Y12950500D01*
X6184270Y12970185D01*
X6138515Y13022989D01*
X6128571Y13092147D01*
X6157596Y13155703D01*
X6163629Y13162182D01*
X6201448Y13200000D01*
X5740034Y13661414D01*
X5740023Y13661424D01*
X5735894Y13665554D01*
X5718548Y13697331D01*
X5702420Y13726867D01*
X5702420Y13726876D01*
X5702417Y13726882D01*
X5704935Y13762047D01*
X5707404Y13796559D01*
X5707408Y13796566D01*
X5707409Y13796573D01*
X5707437Y13796611D01*
X5735905Y13840907D01*
X5914095Y14019095D01*
X5975418Y14052580D01*
X6045110Y14047596D01*
X6089457Y14019095D01*
X6555000Y13553552D01*
X6868948Y13867500D01*
X5890905Y14845543D01*
X5857420Y14906866D01*
X5862404Y14976558D01*
X5890905Y15020905D01*
X6069095Y15199095D01*
X6130418Y15232580D01*
X6200110Y15227596D01*
X6244457Y15199095D01*
X7038257Y14405295D01*
X7070350Y14349709D01*
X7087015Y14287517D01*
X7087017Y14287512D01*
X7159488Y14161989D01*
X7159490Y14161987D01*
X7159491Y14161985D01*
X7261985Y14059491D01*
X7261986Y14059490D01*
X7261988Y14059489D01*
X7387511Y13987018D01*
X7387512Y13987018D01*
X7387515Y13987016D01*
X7527525Y13949500D01*
X7527528Y13949500D01*
X7570427Y13949500D01*
X7637466Y13929815D01*
X7643163Y13925000D01*
X7975000Y13925000D01*
X7975000Y14045114D01*
X7994685Y14112153D01*
X8011319Y14132795D01*
X8024999Y14146475D01*
X8040509Y14161985D01*
X8112984Y14287515D01*
X8150500Y14427525D01*
X8150500Y14430500D01*
X8151209Y14432917D01*
X8151561Y14435585D01*
X8151977Y14435531D01*
X8170185Y14497539D01*
X8222989Y14543294D01*
X8274500Y14554500D01*
X8506577Y14554500D01*
X8506582Y14554500D01*
X8581518Y14565418D01*
X8656167Y14601912D01*
X8697099Y14621922D01*
X8697102Y14621924D01*
X8769178Y14694000D01*
X9783238Y14694000D01*
X10800000Y14694000D01*
X11300000Y14694000D01*
X12316761Y14694000D01*
X12277346Y14806646D01*
X12196792Y14915793D01*
X12087645Y14996347D01*
X11959602Y15041150D01*
X11929207Y15044000D01*
X11300000Y15044000D01*
X11300000Y14694000D01*
X10800000Y14694000D01*
X10800000Y15044000D01*
X10170803Y15044000D01*
X10140393Y15041149D01*
X10012354Y14996347D01*
X9903207Y14915793D01*
X9822653Y14806646D01*
X9783238Y14694000D01*
X8769178Y14694000D01*
X8788075Y14712897D01*
X8788076Y14712898D01*
X8795923Y14728949D01*
X8795925Y14728952D01*
X8833907Y14806646D01*
X8844582Y14828482D01*
X8855500Y14903418D01*
X8855500Y15246582D01*
X8844582Y15321518D01*
X8841645Y15327526D01*
X8788078Y15437100D01*
X8788076Y15437103D01*
X8765106Y15460073D01*
X8731621Y15521396D01*
X8736605Y15591088D01*
X8774778Y15642081D01*
X8774495Y15642364D01*
X8776466Y15644336D01*
X8778477Y15647021D01*
X8779156Y15647526D01*
X8781065Y15648936D01*
X8858931Y15754439D01*
X8859127Y15755000D01*
X11617532Y15755000D01*
X11617787Y15752271D01*
X11661594Y15627081D01*
X11740358Y15520359D01*
X11847077Y15441597D01*
X11945000Y15407332D01*
X11945000Y15755000D01*
X11617532Y15755000D01*
X8859127Y15755000D01*
X8888503Y15838948D01*
X8888504Y15838950D01*
X8890621Y15845000D01*
X7679378Y15845000D01*
X7711065Y15754443D01*
X7711066Y15754441D01*
X7788935Y15648934D01*
X7790848Y15647522D01*
X7792427Y15645442D01*
X7795505Y15642364D01*
X7795083Y15641943D01*
X7833097Y15591874D01*
X7838554Y15522218D01*
X7805485Y15460669D01*
X7804895Y15460074D01*
X7781921Y15437101D01*
X7781921Y15437100D01*
X7725419Y15321522D01*
X7725418Y15321520D01*
X7725418Y15321518D01*
X7714500Y15246582D01*
X7714500Y15246577D01*
X7714500Y15232255D01*
X7705855Y15202815D01*
X7699332Y15172828D01*
X7695577Y15167813D01*
X7694815Y15165216D01*
X7678181Y15144574D01*
X7620426Y15086819D01*
X7559103Y15053334D01*
X7532745Y15050500D01*
X7527525Y15050500D01*
X7436093Y15026001D01*
X7366243Y15027664D01*
X7308381Y15066827D01*
X7280877Y15131055D01*
X7280000Y15145776D01*
X7280000Y15993062D01*
X7277880Y16010716D01*
X7289431Y16079624D01*
X7336403Y16131348D01*
X7400995Y16149500D01*
X7546807Y16149500D01*
X7546809Y16149500D01*
X7640184Y16174520D01*
X7661387Y16180201D01*
X7764114Y16239511D01*
X7833284Y16308681D01*
X7894607Y16342166D01*
X7920965Y16345000D01*
X8890622Y16345000D01*
X8927691Y16397245D01*
X8930028Y16395587D01*
X8935105Y16406703D01*
X8942414Y16411401D01*
X8947068Y16418736D01*
X8971357Y16430001D01*
X8993883Y16444477D01*
X9006474Y16446288D01*
X9010452Y16448132D01*
X9028818Y16449500D01*
X9043564Y16449500D01*
X9105563Y16432888D01*
G37*
%TD.AperFunction*%
%TA.AperFunction,Conductor*%
G36*
X6572177Y7029816D02*
G01*
X6617932Y6977012D01*
X6627876Y6907854D01*
X6598851Y6844298D01*
X6592820Y6837820D01*
X6555000Y6800000D01*
X6644095Y6710905D01*
X6677580Y6649582D01*
X6672596Y6579890D01*
X6644095Y6535543D01*
X6089457Y5980905D01*
X6028134Y5947420D01*
X5958442Y5952404D01*
X5914095Y5980905D01*
X5735905Y6159095D01*
X5731573Y6167028D01*
X5724337Y6172442D01*
X5715090Y6197214D01*
X5702420Y6220418D01*
X5703064Y6229433D01*
X5699904Y6237900D01*
X5704970Y6261220D01*
X5704431Y6264218D01*
X5705785Y6267485D01*
X5707404Y6290110D01*
X5713212Y6299150D01*
X5714739Y6306177D01*
X5730650Y6327435D01*
X5731199Y6328757D01*
X5733840Y6331698D01*
X5735841Y6334370D01*
X5735884Y6334436D01*
X5735912Y6334465D01*
X5735915Y6334468D01*
X5737270Y6335824D01*
X5740015Y6338569D01*
X5740034Y6338589D01*
X6201447Y6800001D01*
X6163628Y6837820D01*
X6130143Y6899143D01*
X6135127Y6968835D01*
X6176999Y7024768D01*
X6242463Y7049185D01*
X6251285Y7049501D01*
X6505139Y7049501D01*
X6572177Y7029816D01*
G37*
%TD.AperFunction*%
%TA.AperFunction,Conductor*%
G36*
X21622853Y13668948D02*
G01*
X21678787Y13627077D01*
X21690919Y13607228D01*
X21697961Y13592825D01*
X21738164Y13510587D01*
X21738166Y13510585D01*
X21741924Y13502898D01*
X21803419Y13441403D01*
X21804665Y13440082D01*
X21819727Y13410473D01*
X21835625Y13381358D01*
X21835490Y13379484D01*
X21836344Y13377807D01*
X21833008Y13344774D01*
X21830641Y13311666D01*
X21829484Y13309866D01*
X21829325Y13308290D01*
X21824874Y13302694D01*
X21802140Y13267319D01*
X21741923Y13207103D01*
X21741921Y13207100D01*
X21685419Y13091522D01*
X21685418Y13091520D01*
X21685418Y13091518D01*
X21674500Y13016582D01*
X21674500Y12673418D01*
X21685418Y12598482D01*
X21685419Y12598480D01*
X21688115Y12589757D01*
X21689093Y12520343D01*
X21689120Y12520335D01*
X21689095Y12520243D01*
X21689100Y12519894D01*
X21688658Y12518613D01*
X21687016Y12512486D01*
X21687016Y12512485D01*
X21649500Y12372475D01*
X21649500Y12227525D01*
X21686174Y12090659D01*
X21687017Y12087512D01*
X21759488Y11961989D01*
X21759490Y11961987D01*
X21759491Y11961985D01*
X21861985Y11859491D01*
X21861986Y11859490D01*
X21861988Y11859489D01*
X21987511Y11787018D01*
X21987512Y11787018D01*
X21987515Y11787016D01*
X22127525Y11749500D01*
X22127528Y11749500D01*
X22272472Y11749500D01*
X22272475Y11749500D01*
X22412485Y11787016D01*
X22538015Y11859491D01*
X22640509Y11961985D01*
X22688700Y12045454D01*
X22717048Y12094553D01*
X22719469Y12093156D01*
X22754754Y12136964D01*
X22821042Y12159046D01*
X22888746Y12141784D01*
X22936370Y12090659D01*
X22949500Y12035127D01*
X22949500Y11792483D01*
X22964354Y11698696D01*
X22967823Y11691888D01*
X22980719Y11623219D01*
X22954442Y11558478D01*
X22945019Y11547913D01*
X21924522Y10527416D01*
X21924520Y10527413D01*
X21871793Y10436090D01*
X21857970Y10384499D01*
X21844500Y10334230D01*
X21844500Y9739500D01*
X21824815Y9672461D01*
X21772011Y9626706D01*
X21720500Y9615500D01*
X21455288Y9615500D01*
X21388249Y9635185D01*
X21342494Y9687989D01*
X21332550Y9757147D01*
X21335513Y9771593D01*
X21339349Y9785909D01*
X21350500Y9827525D01*
X21350500Y9972475D01*
X21312984Y10112485D01*
X21309695Y10118181D01*
X21240511Y10238012D01*
X21240506Y10238018D01*
X21138017Y10340507D01*
X21138011Y10340512D01*
X21012488Y10412983D01*
X21012489Y10412983D01*
X21001006Y10416060D01*
X20872475Y10450500D01*
X20872472Y10450500D01*
X20867255Y10450500D01*
X20837814Y10459145D01*
X20807828Y10465668D01*
X20802812Y10469423D01*
X20800216Y10470185D01*
X20779574Y10486819D01*
X20738739Y10527654D01*
X20705254Y10588977D01*
X20707343Y10649927D01*
X20722598Y10702431D01*
X20725500Y10739306D01*
X20725500Y11270694D01*
X20722598Y11307569D01*
X20717414Y11325411D01*
X20676745Y11465394D01*
X20676744Y11465397D01*
X20676744Y11465398D01*
X20593081Y11606865D01*
X20593079Y11606867D01*
X20593076Y11606871D01*
X20476870Y11723077D01*
X20476867Y11723079D01*
X20476865Y11723081D01*
X20436378Y11747025D01*
X20388695Y11798095D01*
X20375500Y11853757D01*
X20375500Y13147746D01*
X20395185Y13214785D01*
X20411815Y13235423D01*
X20649574Y13473183D01*
X20710897Y13506667D01*
X20737255Y13509501D01*
X21226517Y13509501D01*
X21226518Y13509501D01*
X21320304Y13524354D01*
X21433342Y13581950D01*
X21491840Y13640449D01*
X21553161Y13673932D01*
X21622853Y13668948D01*
G37*
%TD.AperFunction*%
%TA.AperFunction,Conductor*%
G36*
X14048972Y17284815D02*
G01*
X14094727Y17232011D01*
X14103551Y17204689D01*
X14104034Y17202261D01*
X14104033Y17202261D01*
X14104260Y17201922D01*
X14159399Y17119399D01*
X14242259Y17064035D01*
X14242260Y17064034D01*
X14242264Y17064033D01*
X14315321Y17049501D01*
X14315324Y17049500D01*
X14315326Y17049500D01*
X15514676Y17049500D01*
X15514677Y17049501D01*
X15587740Y17064034D01*
X15640893Y17099550D01*
X15707570Y17120427D01*
X15771783Y17103834D01*
X15887511Y17037018D01*
X15887512Y17037018D01*
X15887515Y17037016D01*
X16027525Y16999500D01*
X16032745Y16999500D01*
X16099784Y16979815D01*
X16120426Y16963181D01*
X17720003Y15363604D01*
X17753488Y15302281D01*
X17754795Y15256525D01*
X17744500Y15191525D01*
X17744500Y14828483D01*
X17747959Y14806646D01*
X17759354Y14734696D01*
X17816950Y14621658D01*
X17816952Y14621656D01*
X17816954Y14621653D01*
X17906652Y14531955D01*
X17906654Y14531954D01*
X17906658Y14531950D01*
X18014858Y14476819D01*
X18019698Y14474353D01*
X18113475Y14459501D01*
X18113481Y14459500D01*
X19351518Y14459501D01*
X19445304Y14474354D01*
X19459273Y14481472D01*
X19527938Y14494368D01*
X19592679Y14468093D01*
X19632937Y14410988D01*
X19635768Y14344961D01*
X19635880Y14344943D01*
X19635793Y14344395D01*
X19635931Y14341182D01*
X19634481Y14336112D01*
X19619500Y14241525D01*
X19619500Y13878483D01*
X19635881Y13775057D01*
X19633857Y13774737D01*
X19635490Y13717484D01*
X19599407Y13657653D01*
X19536704Y13626829D01*
X19467290Y13634797D01*
X19459280Y13638525D01*
X19445304Y13645646D01*
X19445303Y13645647D01*
X19445300Y13645648D01*
X19445301Y13645648D01*
X19351524Y13660500D01*
X18113482Y13660500D01*
X18032519Y13647677D01*
X18019696Y13645646D01*
X17906658Y13588050D01*
X17906657Y13588049D01*
X17906652Y13588046D01*
X17816954Y13498348D01*
X17816951Y13498343D01*
X17816950Y13498342D01*
X17804683Y13474266D01*
X17759352Y13385302D01*
X17744500Y13291525D01*
X17744500Y12928483D01*
X17750595Y12890003D01*
X17759354Y12834696D01*
X17816950Y12721658D01*
X17816952Y12721656D01*
X17816954Y12721653D01*
X17906652Y12631955D01*
X17906654Y12631954D01*
X17906658Y12631950D01*
X17994846Y12587016D01*
X18019698Y12574353D01*
X18113474Y12559501D01*
X18113475Y12559501D01*
X18113481Y12559500D01*
X18145499Y12559501D01*
X18212537Y12539818D01*
X18258293Y12487016D01*
X18269500Y12435501D01*
X18269500Y11850800D01*
X18249815Y11783761D01*
X18208622Y11744068D01*
X18173135Y11723081D01*
X18173129Y11723077D01*
X18056923Y11606871D01*
X18056917Y11606863D01*
X17973255Y11465397D01*
X17973254Y11465394D01*
X17927402Y11307574D01*
X17927401Y11307568D01*
X17924500Y11270702D01*
X17924500Y11262933D01*
X17904815Y11195894D01*
X17852011Y11150139D01*
X17782853Y11140195D01*
X17719297Y11169220D01*
X17712819Y11175252D01*
X17261550Y11626521D01*
X17228065Y11687844D01*
X17226047Y11717609D01*
X17225500Y11717609D01*
X17225499Y12085518D01*
X17225178Y12087546D01*
X17210646Y12179304D01*
X17153050Y12292342D01*
X17153046Y12292346D01*
X17153045Y12292348D01*
X17063347Y12382046D01*
X17063343Y12382049D01*
X17063342Y12382050D01*
X17029668Y12399208D01*
X16972147Y12428517D01*
X16921352Y12476491D01*
X16904557Y12544313D01*
X16927095Y12610447D01*
X16972145Y12649483D01*
X17063342Y12695950D01*
X17153050Y12785658D01*
X17210646Y12898696D01*
X17210646Y12898698D01*
X17210647Y12898699D01*
X17225499Y12992476D01*
X17225500Y12992481D01*
X17225499Y13355518D01*
X17210646Y13449304D01*
X17153050Y13562342D01*
X17153046Y13562346D01*
X17153045Y13562348D01*
X17063347Y13652046D01*
X17063343Y13652049D01*
X17063342Y13652050D01*
X17048738Y13659491D01*
X16972147Y13698517D01*
X16921352Y13746491D01*
X16904557Y13814313D01*
X16927095Y13880447D01*
X16972145Y13919483D01*
X17063342Y13965950D01*
X17153050Y14055658D01*
X17210646Y14168696D01*
X17210646Y14168698D01*
X17210647Y14168699D01*
X17221687Y14238406D01*
X17225500Y14262481D01*
X17225499Y14625518D01*
X17210646Y14719304D01*
X17153050Y14832342D01*
X17153046Y14832346D01*
X17153045Y14832348D01*
X17063347Y14922046D01*
X17063344Y14922048D01*
X17063342Y14922050D01*
X16956365Y14976558D01*
X16950301Y14979648D01*
X16856524Y14994500D01*
X16856519Y14994500D01*
X16137965Y14994500D01*
X16070926Y15014185D01*
X16050284Y15030819D01*
X14715616Y16365487D01*
X14715614Y16365489D01*
X14663483Y16395587D01*
X14612888Y16424799D01*
X14600780Y16428043D01*
X14588673Y16431287D01*
X14588670Y16431288D01*
X14539447Y16444477D01*
X14498309Y16455500D01*
X14498308Y16455500D01*
X13618113Y16455500D01*
X13564574Y16467654D01*
X13545433Y16476817D01*
X13527391Y16494859D01*
X13417175Y16551017D01*
X13377195Y16557350D01*
X13360900Y16565150D01*
X13347809Y16576913D01*
X13331905Y16584453D01*
X13326758Y16589315D01*
X12993254Y16922819D01*
X12959769Y16984142D01*
X12964753Y17053834D01*
X13006625Y17109767D01*
X13072089Y17134184D01*
X13080935Y17134500D01*
X13356577Y17134500D01*
X13356582Y17134500D01*
X13431518Y17145418D01*
X13491006Y17174500D01*
X13547099Y17201922D01*
X13547102Y17201924D01*
X13613360Y17268181D01*
X13674683Y17301666D01*
X13701041Y17304500D01*
X13981933Y17304500D01*
X14048972Y17284815D01*
G37*
%TD.AperFunction*%
M02*
