%TF.GenerationSoftware,KiCad,Pcbnew,9.0.1*%
%TF.CreationDate,2025-04-12T17:39:00+05:30*%
%TF.ProjectId,ESPNut-D1,4553504e-7574-42d4-9431-2e6b69636164,0.1*%
%TF.SameCoordinates,Original*%
%TF.FileFunction,Soldermask,Bot*%
%TF.FilePolarity,Negative*%
%FSLAX46Y46*%
G04 Gerber Fmt 4.6, Leading zero omitted, Abs format (unit mm)*
G04 Created by KiCad (PCBNEW 9.0.1) date 2025-04-12 17:39:00*
%MOMM*%
%LPD*%
G01*
G04 APERTURE LIST*
G04 Aperture macros list*
%AMRoundRect*
0 Rectangle with rounded corners*
0 $1 Rounding radius*
0 $2 $3 $4 $5 $6 $7 $8 $9 X,Y pos of 4 corners*
0 Add a 4 corners polygon primitive as box body*
4,1,4,$2,$3,$4,$5,$6,$7,$8,$9,$2,$3,0*
0 Add four circle primitives for the rounded corners*
1,1,$1+$1,$2,$3*
1,1,$1+$1,$4,$5*
1,1,$1+$1,$6,$7*
1,1,$1+$1,$8,$9*
0 Add four rect primitives between the rounded corners*
20,1,$1+$1,$2,$3,$4,$5,0*
20,1,$1+$1,$4,$5,$6,$7,0*
20,1,$1+$1,$6,$7,$8,$9,0*
20,1,$1+$1,$8,$9,$2,$3,0*%
%AMOutline5P*
0 Free polygon, 5 corners , with rotation*
0 The origin of the aperture is its center*
0 number of corners: always 5*
0 $1 to $10 corner X, Y*
0 $11 Rotation angle, in degrees counterclockwise*
0 create outline with 5 corners*
4,1,5,$1,$2,$3,$4,$5,$6,$7,$8,$9,$10,$1,$2,$11*%
%AMOutline6P*
0 Free polygon, 6 corners , with rotation*
0 The origin of the aperture is its center*
0 number of corners: always 6*
0 $1 to $12 corner X, Y*
0 $13 Rotation angle, in degrees counterclockwise*
0 create outline with 6 corners*
4,1,6,$1,$2,$3,$4,$5,$6,$7,$8,$9,$10,$11,$12,$1,$2,$13*%
%AMOutline7P*
0 Free polygon, 7 corners , with rotation*
0 The origin of the aperture is its center*
0 number of corners: always 7*
0 $1 to $14 corner X, Y*
0 $15 Rotation angle, in degrees counterclockwise*
0 create outline with 7 corners*
4,1,7,$1,$2,$3,$4,$5,$6,$7,$8,$9,$10,$11,$12,$13,$14,$1,$2,$15*%
%AMOutline8P*
0 Free polygon, 8 corners , with rotation*
0 The origin of the aperture is its center*
0 number of corners: always 8*
0 $1 to $16 corner X, Y*
0 $17 Rotation angle, in degrees counterclockwise*
0 create outline with 8 corners*
4,1,8,$1,$2,$3,$4,$5,$6,$7,$8,$9,$10,$11,$12,$13,$14,$15,$16,$1,$2,$17*%
%AMFreePoly0*
4,1,15,-0.500000,0.200000,-0.480423,0.323607,-0.423607,0.435114,-0.335114,0.523607,-0.223607,0.580423,-0.100000,0.600000,0.500000,0.600000,0.500000,-0.600000,-0.100000,-0.600000,-0.223607,-0.580423,-0.335114,-0.523607,-0.423607,-0.435114,-0.480423,-0.323607,-0.500000,-0.200000,-0.500000,0.200000,-0.500000,0.200000,$1*%
%AMFreePoly1*
4,1,15,-0.500000,0.600000,0.100000,0.600000,0.223607,0.580423,0.335114,0.523607,0.423607,0.435114,0.480423,0.323607,0.500000,0.200000,0.500000,-0.200000,0.480423,-0.323607,0.423607,-0.435114,0.335114,-0.523607,0.223607,-0.580423,0.100000,-0.600000,-0.500000,-0.600000,-0.500000,0.600000,-0.500000,0.600000,$1*%
G04 Aperture macros list end*
%ADD10C,0.120000*%
%ADD11C,0.000000*%
%ADD12C,2.200000*%
%ADD13C,0.900000*%
%ADD14C,0.650000*%
%ADD15R,1.000000X1.000000*%
%ADD16O,1.000000X1.000000*%
%ADD17R,1.700000X1.700000*%
%ADD18O,1.700000X1.700000*%
%ADD19RoundRect,0.476600X0.000010X0.000010X-0.000010X0.000010X-0.000010X-0.000010X0.000010X-0.000010X0*%
%ADD20RoundRect,0.476600X-0.000010X-0.000010X0.000010X-0.000010X0.000010X0.000010X-0.000010X0.000010X0*%
%ADD21FreePoly0,0.000000*%
%ADD22FreePoly1,0.000000*%
%ADD23FreePoly0,180.000000*%
%ADD24FreePoly1,180.000000*%
%ADD25Outline5P,-0.600000X0.500000X0.600000X0.500000X0.600000X-0.500000X-0.200000X-0.500000X-0.600000X-0.100000X0.000000*%
%ADD26RoundRect,0.250000X-0.350000X-0.250000X0.350000X-0.250000X0.350000X0.250000X-0.350000X0.250000X0*%
G04 APERTURE END LIST*
D10*
G36*
X22291481Y16198447D02*
G01*
X22342806Y16180548D01*
X22389553Y16151331D01*
X22429286Y16111965D01*
X22445714Y16089108D01*
X22459567Y16064406D01*
X22470492Y16038467D01*
X22478518Y16011124D01*
X22483362Y15983308D01*
X22485079Y15954518D01*
X22485081Y15953695D01*
X22485081Y15612292D01*
X22479053Y15558396D01*
X22461166Y15506989D01*
X22431960Y15460092D01*
X22392643Y15420226D01*
X22369862Y15403773D01*
X22345288Y15389931D01*
X22319571Y15379068D01*
X22292525Y15371139D01*
X22265476Y15366470D01*
X22237565Y15364874D01*
X22182837Y15370902D01*
X22130894Y15388746D01*
X22083696Y15417815D01*
X22043665Y15456897D01*
X22027143Y15479545D01*
X22013235Y15503975D01*
X22002291Y15529573D01*
X21994275Y15556498D01*
X21989469Y15583797D01*
X21987802Y15611980D01*
X21987802Y15612292D01*
X21987802Y15953695D01*
X22132296Y15953695D01*
X22132296Y15612292D01*
X22138197Y15579405D01*
X22155712Y15549113D01*
X22183643Y15525057D01*
X22200408Y15516766D01*
X22218585Y15511404D01*
X22237565Y15509319D01*
X22256718Y15510869D01*
X22274827Y15515467D01*
X22291146Y15522829D01*
X22305744Y15532953D01*
X22317803Y15545196D01*
X22327631Y15559850D01*
X22334705Y15576216D01*
X22339125Y15594710D01*
X22340587Y15612292D01*
X22340587Y15953695D01*
X22334689Y15987615D01*
X22317232Y16018779D01*
X22304478Y16032185D01*
X22289643Y16043263D01*
X22273269Y16051577D01*
X22255540Y16056914D01*
X22237565Y16058915D01*
X22203973Y16053016D01*
X22173017Y16035522D01*
X22148471Y16007733D01*
X22140018Y15991136D01*
X22134515Y15973153D01*
X22132296Y15953695D01*
X21987802Y15953695D01*
X21993836Y16008776D01*
X22011669Y16060871D01*
X22040689Y16108077D01*
X22079711Y16148078D01*
X22102360Y16164610D01*
X22126824Y16178554D01*
X22152533Y16189577D01*
X22179621Y16197700D01*
X22207205Y16202649D01*
X22235739Y16204477D01*
X22237565Y16204483D01*
X22291481Y16198447D01*
G37*
G36*
X21645227Y15510443D02*
G01*
X21625093Y15511969D01*
X21606702Y15516401D01*
X21590492Y15523436D01*
X21576547Y15532888D01*
X21565444Y15544168D01*
X21556988Y15557328D01*
X21551568Y15571648D01*
X21549085Y15587365D01*
X21548947Y15592215D01*
X21554862Y15618557D01*
X21572593Y15642489D01*
X21605950Y15667218D01*
X21681345Y15704739D01*
X21763978Y15745649D01*
X21789019Y15761519D01*
X21812990Y15780720D01*
X21833605Y15801432D01*
X21852068Y15824891D01*
X21866475Y15848533D01*
X21878172Y15874354D01*
X21886147Y15899951D01*
X21891117Y15927318D01*
X21892743Y15955063D01*
X21886715Y16009294D01*
X21869056Y16059486D01*
X21840418Y16104339D01*
X21801743Y16142129D01*
X21754540Y16170902D01*
X21728427Y16181315D01*
X21700926Y16188867D01*
X21645227Y16194763D01*
X21590511Y16188729D01*
X21538648Y16170876D01*
X21491569Y16141797D01*
X21451639Y16102674D01*
X21435136Y16079968D01*
X21421221Y16055443D01*
X21410234Y16029684D01*
X21402150Y16002546D01*
X21397247Y15974932D01*
X21395468Y15946370D01*
X21395464Y15945000D01*
X21539959Y15945000D01*
X21548065Y15981278D01*
X21567374Y16013018D01*
X21580597Y16025902D01*
X21595818Y16036287D01*
X21612228Y16043643D01*
X21630015Y16048012D01*
X21645227Y16049145D01*
X21667506Y16047582D01*
X21687363Y16042892D01*
X21702982Y16035966D01*
X21716175Y16026486D01*
X21726021Y16015462D01*
X21733446Y16002259D01*
X21740338Y15969973D01*
X21740433Y15965174D01*
X21734526Y15940247D01*
X21716400Y15916460D01*
X21681579Y15890701D01*
X21607140Y15852328D01*
X21550070Y15824051D01*
X21514106Y15802153D01*
X21479513Y15775817D01*
X21456491Y15753708D01*
X21436040Y15728830D01*
X21421437Y15705692D01*
X21409649Y15680366D01*
X21401845Y15655685D01*
X21397008Y15629075D01*
X21395464Y15602278D01*
X21401498Y15548875D01*
X21419207Y15499278D01*
X21447988Y15454822D01*
X21486940Y15417277D01*
X21509829Y15401701D01*
X21534578Y15388643D01*
X21560973Y15378270D01*
X21588812Y15370744D01*
X21645227Y15364874D01*
X21699170Y15370905D01*
X21750571Y15388794D01*
X21797425Y15417996D01*
X21837244Y15457316D01*
X21853686Y15480115D01*
X21867529Y15504725D01*
X21878413Y15530512D01*
X21886375Y15557654D01*
X21891120Y15585105D01*
X21892743Y15613465D01*
X21748298Y15613465D01*
X21740942Y15578148D01*
X21722251Y15546771D01*
X21709220Y15533869D01*
X21694178Y15523440D01*
X21677914Y15516015D01*
X21660299Y15511595D01*
X21645227Y15510443D01*
G37*
G36*
X20781291Y16193346D02*
G01*
X20925785Y16193346D01*
X20925785Y15852578D01*
X21134125Y15852578D01*
X21134125Y16193346D01*
X21278570Y16193346D01*
X21278570Y15364874D01*
X21134125Y15364874D01*
X21134125Y15708084D01*
X20925785Y15708084D01*
X20925785Y15364874D01*
X20781291Y15364874D01*
X20781291Y16193346D01*
G37*
G36*
X19900307Y16193346D02*
G01*
X20045876Y16193346D01*
X20136588Y15671204D01*
X20221731Y16193346D01*
X20367349Y16193346D01*
X20452443Y15671204D01*
X20543155Y16193346D01*
X20688772Y16193346D01*
X20533092Y15364874D01*
X20377411Y15364874D01*
X20294515Y15836654D01*
X20211668Y15364874D01*
X20055988Y15364874D01*
X19900307Y16193346D01*
G37*
D11*
G36*
X21268110Y19418025D02*
G01*
X21308672Y19417517D01*
X21345646Y19416722D01*
X21377560Y19415640D01*
X21402942Y19414269D01*
X21420319Y19412607D01*
X21428217Y19410652D01*
X21430585Y19406918D01*
X21434582Y19395317D01*
X21439679Y19375606D01*
X21446001Y19347220D01*
X21453672Y19309591D01*
X21462818Y19262153D01*
X21473562Y19204340D01*
X21478758Y19176028D01*
X21488468Y19123412D01*
X21496543Y19080288D01*
X21503199Y19045695D01*
X21508651Y19018674D01*
X21513116Y18998264D01*
X21516811Y18983506D01*
X21519952Y18973438D01*
X21522755Y18967102D01*
X21525436Y18963536D01*
X21528212Y18961781D01*
X21528531Y18961652D01*
X21536484Y18958395D01*
X21553129Y18951563D01*
X21577089Y18941723D01*
X21606987Y18929438D01*
X21641446Y18915277D01*
X21679088Y18899803D01*
X21699391Y18891476D01*
X21738814Y18875490D01*
X21769724Y18863315D01*
X21793273Y18854557D01*
X21810615Y18848819D01*
X21822904Y18845707D01*
X21831294Y18844827D01*
X21836938Y18845783D01*
X21837178Y18845880D01*
X21845354Y18850526D01*
X21861455Y18860704D01*
X21884378Y18875681D01*
X21913022Y18894726D01*
X21946283Y18917104D01*
X21983060Y18942084D01*
X22022250Y18968934D01*
X22025876Y18971427D01*
X22064606Y18997960D01*
X22100592Y19022428D01*
X22132774Y19044125D01*
X22160091Y19062343D01*
X22181484Y19076374D01*
X22195892Y19085511D01*
X22202254Y19089047D01*
X22204995Y19088035D01*
X22215493Y19080153D01*
X22233000Y19064831D01*
X22257123Y19042437D01*
X22287467Y19013338D01*
X22323640Y18977905D01*
X22365248Y18936505D01*
X22366617Y18935134D01*
X22405988Y18895597D01*
X22438133Y18863047D01*
X22463723Y18836746D01*
X22483426Y18815954D01*
X22497912Y18799933D01*
X22507848Y18787942D01*
X22513903Y18779243D01*
X22516748Y18773097D01*
X22517050Y18768765D01*
X22517007Y18768586D01*
X22513021Y18760708D01*
X22503464Y18744895D01*
X22489053Y18722245D01*
X22470505Y18693855D01*
X22448538Y18660824D01*
X22423868Y18624249D01*
X22397212Y18585229D01*
X22371150Y18547026D01*
X22346019Y18509574D01*
X22323996Y18476110D01*
X22305733Y18447651D01*
X22291881Y18425212D01*
X22283091Y18409808D01*
X22280014Y18402455D01*
X22280689Y18398821D01*
X22285089Y18385285D01*
X22292995Y18364172D01*
X22303714Y18337097D01*
X22316557Y18305678D01*
X22330832Y18271532D01*
X22345847Y18236276D01*
X22360911Y18201527D01*
X22375332Y18168901D01*
X22388420Y18140016D01*
X22399482Y18116488D01*
X22407829Y18099936D01*
X22412767Y18091974D01*
X22416036Y18089687D01*
X22424893Y18086069D01*
X22439542Y18081770D01*
X22460838Y18076596D01*
X22489637Y18070357D01*
X22526794Y18062859D01*
X22573164Y18053912D01*
X22629603Y18043323D01*
X22651095Y18039316D01*
X22704753Y18029144D01*
X22748472Y18020556D01*
X22782984Y18013389D01*
X22809018Y18007481D01*
X22827308Y18002668D01*
X22838584Y17998789D01*
X22843578Y17995679D01*
X22844589Y17993650D01*
X22846318Y17985614D01*
X22847704Y17971542D01*
X22848774Y17950595D01*
X22849554Y17921931D01*
X22850071Y17884712D01*
X22850353Y17838097D01*
X22850426Y17781247D01*
X22850425Y17780020D01*
X22850316Y17733005D01*
X22850046Y17689158D01*
X22849638Y17649796D01*
X22849110Y17616238D01*
X22848485Y17589803D01*
X22847781Y17571809D01*
X22847021Y17563573D01*
X22846750Y17562557D01*
X22845539Y17558861D01*
X22843398Y17555630D01*
X22839331Y17552617D01*
X22832340Y17549572D01*
X22821430Y17546249D01*
X22805605Y17542400D01*
X22783868Y17537776D01*
X22755224Y17532131D01*
X22718675Y17525216D01*
X22673226Y17516785D01*
X22617880Y17506588D01*
X22599693Y17503224D01*
X22546233Y17493104D01*
X22503073Y17484518D01*
X22469711Y17477355D01*
X22445647Y17471502D01*
X22430383Y17466849D01*
X22423417Y17463285D01*
X22423383Y17463249D01*
X22418976Y17455636D01*
X22411291Y17439264D01*
X22400959Y17415710D01*
X22388613Y17386555D01*
X22374883Y17353377D01*
X22360402Y17317755D01*
X22345803Y17281269D01*
X22331716Y17245497D01*
X22318774Y17212019D01*
X22307609Y17182414D01*
X22298852Y17158261D01*
X22293136Y17141138D01*
X22291092Y17132626D01*
X22293899Y17126032D01*
X22302353Y17111300D01*
X22315752Y17089639D01*
X22333389Y17062149D01*
X22354555Y17029934D01*
X22378542Y16994096D01*
X22404644Y16955737D01*
X22429698Y16918930D01*
X22453787Y16882962D01*
X22475083Y16850571D01*
X22492879Y16822858D01*
X22506466Y16800926D01*
X22515138Y16785878D01*
X22518185Y16778818D01*
X22518084Y16778144D01*
X22512763Y16769540D01*
X22499417Y16753490D01*
X22478121Y16730076D01*
X22448951Y16699380D01*
X22411984Y16661483D01*
X22367296Y16616468D01*
X22354128Y16603315D01*
X22311142Y16560757D01*
X22275545Y16526178D01*
X22247222Y16499472D01*
X22226057Y16480529D01*
X22211932Y16469242D01*
X22204733Y16465504D01*
X22198798Y16467922D01*
X22184518Y16476007D01*
X22163266Y16489083D01*
X22136160Y16506433D01*
X22104315Y16527342D01*
X22068849Y16551092D01*
X22030880Y16576968D01*
X21997054Y16600040D01*
X21961249Y16624059D01*
X21928938Y16645314D01*
X21901237Y16663087D01*
X21879264Y16676664D01*
X21864138Y16685329D01*
X21856974Y16688366D01*
X21854053Y16687817D01*
X21841507Y16683113D01*
X21822241Y16674376D01*
X21798285Y16662553D01*
X21771669Y16648591D01*
X21766589Y16645864D01*
X21737587Y16630926D01*
X21714017Y16619898D01*
X21697233Y16613378D01*
X21688590Y16611961D01*
X21684980Y16616359D01*
X21677577Y16630067D01*
X21666550Y16653203D01*
X21651835Y16685915D01*
X21633366Y16728352D01*
X21611077Y16780665D01*
X21584902Y16843002D01*
X21554775Y16915512D01*
X21529544Y16976498D01*
X21501792Y17043595D01*
X21477795Y17101660D01*
X21457289Y17151360D01*
X21440009Y17193364D01*
X21425691Y17228339D01*
X21414071Y17256952D01*
X21404882Y17279871D01*
X21397862Y17297763D01*
X21392745Y17311297D01*
X21389268Y17321140D01*
X21387164Y17327959D01*
X21386170Y17332422D01*
X21386022Y17335196D01*
X21386454Y17336950D01*
X21387201Y17338350D01*
X21387456Y17338729D01*
X21394230Y17345055D01*
X21408026Y17356069D01*
X21426982Y17370330D01*
X21449236Y17386396D01*
X21500051Y17425959D01*
X21551264Y17476114D01*
X21592473Y17530007D01*
X21624111Y17588322D01*
X21646608Y17651743D01*
X21660396Y17720953D01*
X21664061Y17775925D01*
X21659012Y17842110D01*
X21644095Y17906224D01*
X21619974Y17967303D01*
X21587311Y18024386D01*
X21546770Y18076512D01*
X21499013Y18122717D01*
X21444703Y18162041D01*
X21384505Y18193520D01*
X21319079Y18216194D01*
X21291112Y18222108D01*
X21242841Y18227407D01*
X21191605Y18228212D01*
X21141728Y18224519D01*
X21097536Y18216327D01*
X21037571Y18196326D01*
X20974701Y18164861D01*
X20917983Y18124736D01*
X20868131Y18076654D01*
X20825861Y18021318D01*
X20791887Y17959430D01*
X20766926Y17891692D01*
X20762534Y17875277D01*
X20758394Y17854850D01*
X20755896Y17833092D01*
X20754702Y17806761D01*
X20754472Y17772613D01*
X20754887Y17744504D01*
X20757205Y17706136D01*
X20762292Y17672846D01*
X20770989Y17641059D01*
X20784135Y17607198D01*
X20802570Y17567685D01*
X20805058Y17562637D01*
X20817903Y17537867D01*
X20829972Y17517943D01*
X20843513Y17499798D01*
X20860776Y17480362D01*
X20884010Y17456568D01*
X20906595Y17435087D01*
X20933716Y17411366D01*
X20960200Y17390035D01*
X20982610Y17373971D01*
X20994486Y17366098D01*
X21013939Y17351815D01*
X21024878Y17341072D01*
X21028303Y17332976D01*
X21026384Y17326302D01*
X21020564Y17310325D01*
X21011262Y17286153D01*
X20998903Y17254811D01*
X20983910Y17217324D01*
X20966708Y17174720D01*
X20947721Y17128021D01*
X20927373Y17078256D01*
X20906088Y17026447D01*
X20884290Y16973622D01*
X20862403Y16920806D01*
X20840852Y16869024D01*
X20820060Y16819301D01*
X20800451Y16772663D01*
X20782450Y16730136D01*
X20766481Y16692744D01*
X20752967Y16661514D01*
X20742333Y16637471D01*
X20735003Y16621639D01*
X20731400Y16615046D01*
X20730507Y16614210D01*
X20726203Y16612177D01*
X20719557Y16612601D01*
X20709092Y16616052D01*
X20693333Y16623099D01*
X20670802Y16634310D01*
X20640022Y16650256D01*
X20556768Y16693774D01*
X20503144Y16657955D01*
X20494219Y16651968D01*
X20470219Y16635735D01*
X20440273Y16615356D01*
X20406502Y16592278D01*
X20371029Y16567953D01*
X20335979Y16543828D01*
X20311816Y16527335D01*
X20281849Y16507381D01*
X20255443Y16490359D01*
X20233972Y16477131D01*
X20218807Y16468561D01*
X20211323Y16465512D01*
X20210459Y16465705D01*
X20202284Y16471119D01*
X20187842Y16483208D01*
X20168156Y16500950D01*
X20144246Y16523324D01*
X20117133Y16549307D01*
X20087838Y16577877D01*
X20057382Y16608012D01*
X20026786Y16638689D01*
X19997070Y16668888D01*
X19969255Y16697585D01*
X19944363Y16723759D01*
X19923414Y16746387D01*
X19907429Y16764448D01*
X19897430Y16776919D01*
X19894435Y16782778D01*
X19898037Y16788839D01*
X19907235Y16803015D01*
X19921288Y16824180D01*
X19939470Y16851256D01*
X19961057Y16883163D01*
X19985325Y16918822D01*
X20011548Y16957155D01*
X20037157Y16994725D01*
X20061222Y17030483D01*
X20082489Y17062550D01*
X20100256Y17089842D01*
X20113818Y17111279D01*
X20122471Y17125779D01*
X20125512Y17132260D01*
X20125170Y17134253D01*
X20121606Y17145622D01*
X20114663Y17164952D01*
X20104953Y17190718D01*
X20093090Y17221396D01*
X20079690Y17255461D01*
X20065364Y17291388D01*
X20050729Y17327652D01*
X20036396Y17362730D01*
X20022980Y17395096D01*
X20011095Y17423226D01*
X20001355Y17445594D01*
X19994373Y17460677D01*
X19990764Y17466949D01*
X19990673Y17467013D01*
X19983394Y17469245D01*
X19966527Y17473173D01*
X19941322Y17478544D01*
X19909028Y17485103D01*
X19870896Y17492597D01*
X19828177Y17500770D01*
X19782119Y17509369D01*
X19734227Y17518296D01*
X19684441Y17527862D01*
X19644574Y17535914D01*
X19614065Y17542576D01*
X19592348Y17547971D01*
X19578860Y17552225D01*
X19573037Y17555461D01*
X19571167Y17562792D01*
X19569494Y17579775D01*
X19568111Y17604829D01*
X19567016Y17636481D01*
X19566208Y17673259D01*
X19565686Y17713690D01*
X19565446Y17756302D01*
X19565489Y17799621D01*
X19565811Y17842174D01*
X19566412Y17882490D01*
X19567290Y17919096D01*
X19568443Y17950519D01*
X19569869Y17975285D01*
X19571568Y17991923D01*
X19573536Y17998960D01*
X19573841Y17999156D01*
X19582094Y18001758D01*
X19599848Y18006043D01*
X19625860Y18011751D01*
X19658888Y18018623D01*
X19697689Y18026400D01*
X19741022Y18034823D01*
X19787644Y18043632D01*
X19834636Y18052533D01*
X19879536Y18061338D01*
X19919109Y18069412D01*
X19952238Y18076518D01*
X19977808Y18082413D01*
X19994702Y18086860D01*
X20001804Y18089618D01*
X20005225Y18095192D01*
X20012518Y18109827D01*
X20022737Y18131735D01*
X20035205Y18159337D01*
X20049242Y18191052D01*
X20064170Y18225300D01*
X20079311Y18260503D01*
X20093984Y18295080D01*
X20107512Y18327452D01*
X20119215Y18356039D01*
X20128415Y18379260D01*
X20134432Y18395537D01*
X20136589Y18403289D01*
X20136456Y18403930D01*
X20132190Y18412231D01*
X20122419Y18428361D01*
X20107828Y18451274D01*
X20089098Y18479924D01*
X20066914Y18513262D01*
X20041958Y18550242D01*
X20014912Y18589818D01*
X20009099Y18598282D01*
X19982444Y18637326D01*
X19958011Y18673492D01*
X19936482Y18705743D01*
X19918540Y18733043D01*
X19904868Y18754355D01*
X19896148Y18768642D01*
X19893063Y18774866D01*
X19896811Y18780472D01*
X19907461Y18792771D01*
X19923981Y18810722D01*
X19945340Y18833284D01*
X19970505Y18859417D01*
X19998443Y18888083D01*
X20028123Y18918241D01*
X20058512Y18948852D01*
X20088578Y18978875D01*
X20117288Y19007271D01*
X20143611Y19033000D01*
X20166513Y19055022D01*
X20184964Y19072298D01*
X20197930Y19083787D01*
X20204379Y19088450D01*
X20207829Y19087945D01*
X20219306Y19082578D01*
X20238432Y19071484D01*
X20265466Y19054499D01*
X20300663Y19031460D01*
X20344283Y19002203D01*
X20396583Y18966566D01*
X20409566Y18957681D01*
X20448946Y18930893D01*
X20485325Y18906388D01*
X20517686Y18884837D01*
X20545010Y18866909D01*
X20566279Y18853274D01*
X20580475Y18844601D01*
X20586580Y18841562D01*
X20590093Y18842286D01*
X20603243Y18846653D01*
X20623976Y18854388D01*
X20650664Y18864812D01*
X20681683Y18877250D01*
X20715407Y18891026D01*
X20750210Y18905462D01*
X20784466Y18919883D01*
X20816550Y18933612D01*
X20844837Y18945973D01*
X20867700Y18956289D01*
X20883513Y18963884D01*
X20890652Y18968081D01*
X20893049Y18972376D01*
X20897302Y18985401D01*
X20902796Y19007125D01*
X20909631Y19037996D01*
X20917903Y19078462D01*
X20927712Y19128972D01*
X20939155Y19189974D01*
X20941218Y19201083D01*
X20950031Y19247750D01*
X20958399Y19290854D01*
X20966069Y19329174D01*
X20972789Y19361485D01*
X20978305Y19386564D01*
X20982364Y19403188D01*
X20984713Y19410133D01*
X20991216Y19412022D01*
X21007455Y19413736D01*
X21031888Y19415179D01*
X21063044Y19416347D01*
X21099449Y19417240D01*
X21139631Y19417856D01*
X21182117Y19418193D01*
X21225435Y19418250D01*
X21268110Y19418025D01*
G37*
D12*
X2000000Y2000000D03*
D13*
X27845000Y18255000D03*
X24845000Y18255000D03*
D12*
X2000000Y18000000D03*
D14*
X5480000Y12890000D03*
X5480000Y7110000D03*
D15*
X30725000Y2635000D03*
D16*
X29455000Y2635000D03*
X30725000Y3905000D03*
X29455000Y3905000D03*
X30725000Y5175000D03*
X29455000Y5175000D03*
D17*
X42255000Y16350000D03*
D18*
X42255000Y13810000D03*
X42255000Y11270000D03*
X42255000Y8730000D03*
X42255000Y6190000D03*
X42255000Y3650000D03*
D19*
X16000000Y13174000D03*
X16000000Y6824000D03*
D20*
X8599264Y17699264D03*
D19*
X16000000Y8094000D03*
X16000000Y9364000D03*
D20*
X37249264Y18653680D03*
D19*
X16000000Y10634000D03*
D21*
X35325000Y2055000D03*
D22*
X36625000Y2055000D03*
D21*
X35325000Y14045000D03*
D22*
X36625000Y14045000D03*
D20*
X35649264Y18655152D03*
D21*
X26525000Y16475000D03*
D22*
X27825000Y16475000D03*
D23*
X17725000Y18195000D03*
D24*
X16425000Y18195000D03*
D25*
X1375000Y7750000D03*
D26*
X1375000Y9250000D03*
X1375000Y10750000D03*
X1375000Y12250000D03*
D20*
X6999264Y17702208D03*
D19*
X16000000Y5554000D03*
X16000000Y11904000D03*
M02*
