%TF.GenerationSoftware,KiCad,Pcbnew,9.0.1*%
%TF.CreationDate,2025-04-12T17:39:01+05:30*%
%TF.ProjectId,ESPNut-D1,4553504e-7574-42d4-9431-2e6b69636164,0.1*%
%TF.SameCoordinates,Original*%
%TF.FileFunction,AssemblyDrawing,Top*%
%FSLAX46Y46*%
G04 Gerber Fmt 4.6, Leading zero omitted, Abs format (unit mm)*
G04 Created by KiCad (PCBNEW 9.0.1) date 2025-04-12 17:39:01*
%MOMM*%
%LPD*%
G01*
G04 APERTURE LIST*
%ADD10C,0.067500*%
%ADD11C,0.075000*%
%ADD12C,0.060000*%
%ADD13C,0.100000*%
%ADD14C,0.120000*%
G04 APERTURE END LIST*
D10*
X32935714Y18247889D02*
X32948571Y18260746D01*
X32948571Y18260746D02*
X32974286Y18273603D01*
X32974286Y18273603D02*
X33038571Y18273603D01*
X33038571Y18273603D02*
X33064286Y18260746D01*
X33064286Y18260746D02*
X33077143Y18247889D01*
X33077143Y18247889D02*
X33090000Y18222175D01*
X33090000Y18222175D02*
X33090000Y18196460D01*
X33090000Y18196460D02*
X33077143Y18157889D01*
X33077143Y18157889D02*
X32922857Y18003603D01*
X32922857Y18003603D02*
X33090000Y18003603D01*
X33192857Y18247889D02*
X33205714Y18260746D01*
X33205714Y18260746D02*
X33231429Y18273603D01*
X33231429Y18273603D02*
X33295714Y18273603D01*
X33295714Y18273603D02*
X33321429Y18260746D01*
X33321429Y18260746D02*
X33334286Y18247889D01*
X33334286Y18247889D02*
X33347143Y18222175D01*
X33347143Y18222175D02*
X33347143Y18196460D01*
X33347143Y18196460D02*
X33334286Y18157889D01*
X33334286Y18157889D02*
X33180000Y18003603D01*
X33180000Y18003603D02*
X33347143Y18003603D01*
X33514286Y18273603D02*
X33540000Y18273603D01*
X33540000Y18273603D02*
X33565714Y18260746D01*
X33565714Y18260746D02*
X33578572Y18247889D01*
X33578572Y18247889D02*
X33591429Y18222175D01*
X33591429Y18222175D02*
X33604286Y18170746D01*
X33604286Y18170746D02*
X33604286Y18106460D01*
X33604286Y18106460D02*
X33591429Y18055032D01*
X33591429Y18055032D02*
X33578572Y18029318D01*
X33578572Y18029318D02*
X33565714Y18016460D01*
X33565714Y18016460D02*
X33540000Y18003603D01*
X33540000Y18003603D02*
X33514286Y18003603D01*
X33514286Y18003603D02*
X33488572Y18016460D01*
X33488572Y18016460D02*
X33475714Y18029318D01*
X33475714Y18029318D02*
X33462857Y18055032D01*
X33462857Y18055032D02*
X33450000Y18106460D01*
X33450000Y18106460D02*
X33450000Y18170746D01*
X33450000Y18170746D02*
X33462857Y18222175D01*
X33462857Y18222175D02*
X33475714Y18247889D01*
X33475714Y18247889D02*
X33488572Y18260746D01*
X33488572Y18260746D02*
X33514286Y18273603D01*
X33874286Y18003603D02*
X33784286Y18132175D01*
X33720000Y18003603D02*
X33720000Y18273603D01*
X33720000Y18273603D02*
X33822857Y18273603D01*
X33822857Y18273603D02*
X33848572Y18260746D01*
X33848572Y18260746D02*
X33861429Y18247889D01*
X33861429Y18247889D02*
X33874286Y18222175D01*
X33874286Y18222175D02*
X33874286Y18183603D01*
X33874286Y18183603D02*
X33861429Y18157889D01*
X33861429Y18157889D02*
X33848572Y18145032D01*
X33848572Y18145032D02*
X33822857Y18132175D01*
X33822857Y18132175D02*
X33720000Y18132175D01*
X33360000Y18603603D02*
X33270000Y18732175D01*
X33205714Y18603603D02*
X33205714Y18873603D01*
X33205714Y18873603D02*
X33308571Y18873603D01*
X33308571Y18873603D02*
X33334286Y18860746D01*
X33334286Y18860746D02*
X33347143Y18847889D01*
X33347143Y18847889D02*
X33360000Y18822175D01*
X33360000Y18822175D02*
X33360000Y18783603D01*
X33360000Y18783603D02*
X33347143Y18757889D01*
X33347143Y18757889D02*
X33334286Y18745032D01*
X33334286Y18745032D02*
X33308571Y18732175D01*
X33308571Y18732175D02*
X33205714Y18732175D01*
X33488571Y18603603D02*
X33540000Y18603603D01*
X33540000Y18603603D02*
X33565714Y18616460D01*
X33565714Y18616460D02*
X33578571Y18629318D01*
X33578571Y18629318D02*
X33604286Y18667889D01*
X33604286Y18667889D02*
X33617143Y18719318D01*
X33617143Y18719318D02*
X33617143Y18822175D01*
X33617143Y18822175D02*
X33604286Y18847889D01*
X33604286Y18847889D02*
X33591429Y18860746D01*
X33591429Y18860746D02*
X33565714Y18873603D01*
X33565714Y18873603D02*
X33514286Y18873603D01*
X33514286Y18873603D02*
X33488571Y18860746D01*
X33488571Y18860746D02*
X33475714Y18847889D01*
X33475714Y18847889D02*
X33462857Y18822175D01*
X33462857Y18822175D02*
X33462857Y18757889D01*
X33462857Y18757889D02*
X33475714Y18732175D01*
X33475714Y18732175D02*
X33488571Y18719318D01*
X33488571Y18719318D02*
X33514286Y18706460D01*
X33514286Y18706460D02*
X33565714Y18706460D01*
X33565714Y18706460D02*
X33591429Y18719318D01*
X33591429Y18719318D02*
X33604286Y18732175D01*
X33604286Y18732175D02*
X33617143Y18757889D01*
X17931429Y9953603D02*
X18021429Y9683603D01*
X18021429Y9683603D02*
X18111429Y9953603D01*
X18201429Y9683603D02*
X18201429Y9953603D01*
X18201429Y9953603D02*
X18265715Y9953603D01*
X18265715Y9953603D02*
X18304286Y9940746D01*
X18304286Y9940746D02*
X18330001Y9915032D01*
X18330001Y9915032D02*
X18342858Y9889318D01*
X18342858Y9889318D02*
X18355715Y9837889D01*
X18355715Y9837889D02*
X18355715Y9799318D01*
X18355715Y9799318D02*
X18342858Y9747889D01*
X18342858Y9747889D02*
X18330001Y9722175D01*
X18330001Y9722175D02*
X18304286Y9696460D01*
X18304286Y9696460D02*
X18265715Y9683603D01*
X18265715Y9683603D02*
X18201429Y9683603D01*
X18471429Y9683603D02*
X18471429Y9953603D01*
X18471429Y9953603D02*
X18535715Y9953603D01*
X18535715Y9953603D02*
X18574286Y9940746D01*
X18574286Y9940746D02*
X18600001Y9915032D01*
X18600001Y9915032D02*
X18612858Y9889318D01*
X18612858Y9889318D02*
X18625715Y9837889D01*
X18625715Y9837889D02*
X18625715Y9799318D01*
X18625715Y9799318D02*
X18612858Y9747889D01*
X18612858Y9747889D02*
X18600001Y9722175D01*
X18600001Y9722175D02*
X18574286Y9696460D01*
X18574286Y9696460D02*
X18535715Y9683603D01*
X18535715Y9683603D02*
X18471429Y9683603D01*
X18677144Y9657889D02*
X18882858Y9657889D01*
X19101429Y9709318D02*
X19088572Y9696460D01*
X19088572Y9696460D02*
X19050000Y9683603D01*
X19050000Y9683603D02*
X19024286Y9683603D01*
X19024286Y9683603D02*
X18985715Y9696460D01*
X18985715Y9696460D02*
X18960000Y9722175D01*
X18960000Y9722175D02*
X18947143Y9747889D01*
X18947143Y9747889D02*
X18934286Y9799318D01*
X18934286Y9799318D02*
X18934286Y9837889D01*
X18934286Y9837889D02*
X18947143Y9889318D01*
X18947143Y9889318D02*
X18960000Y9915032D01*
X18960000Y9915032D02*
X18985715Y9940746D01*
X18985715Y9940746D02*
X19024286Y9953603D01*
X19024286Y9953603D02*
X19050000Y9953603D01*
X19050000Y9953603D02*
X19088572Y9940746D01*
X19088572Y9940746D02*
X19101429Y9927889D01*
X19178572Y9953603D02*
X19332858Y9953603D01*
X19255715Y9683603D02*
X19255715Y9953603D01*
X19577143Y9683603D02*
X19487143Y9812175D01*
X19422857Y9683603D02*
X19422857Y9953603D01*
X19422857Y9953603D02*
X19525714Y9953603D01*
X19525714Y9953603D02*
X19551429Y9940746D01*
X19551429Y9940746D02*
X19564286Y9927889D01*
X19564286Y9927889D02*
X19577143Y9902175D01*
X19577143Y9902175D02*
X19577143Y9863603D01*
X19577143Y9863603D02*
X19564286Y9837889D01*
X19564286Y9837889D02*
X19551429Y9825032D01*
X19551429Y9825032D02*
X19525714Y9812175D01*
X19525714Y9812175D02*
X19422857Y9812175D01*
X19821429Y9683603D02*
X19692857Y9683603D01*
X19692857Y9683603D02*
X19692857Y9953603D01*
X19847143Y9657889D02*
X20052857Y9657889D01*
X20207142Y9825032D02*
X20245714Y9812175D01*
X20245714Y9812175D02*
X20258571Y9799318D01*
X20258571Y9799318D02*
X20271428Y9773603D01*
X20271428Y9773603D02*
X20271428Y9735032D01*
X20271428Y9735032D02*
X20258571Y9709318D01*
X20258571Y9709318D02*
X20245714Y9696460D01*
X20245714Y9696460D02*
X20219999Y9683603D01*
X20219999Y9683603D02*
X20117142Y9683603D01*
X20117142Y9683603D02*
X20117142Y9953603D01*
X20117142Y9953603D02*
X20207142Y9953603D01*
X20207142Y9953603D02*
X20232857Y9940746D01*
X20232857Y9940746D02*
X20245714Y9927889D01*
X20245714Y9927889D02*
X20258571Y9902175D01*
X20258571Y9902175D02*
X20258571Y9876460D01*
X20258571Y9876460D02*
X20245714Y9850746D01*
X20245714Y9850746D02*
X20232857Y9837889D01*
X20232857Y9837889D02*
X20207142Y9825032D01*
X20207142Y9825032D02*
X20117142Y9825032D01*
X20438571Y9812175D02*
X20438571Y9683603D01*
X20348571Y9953603D02*
X20438571Y9812175D01*
X20438571Y9812175D02*
X20528571Y9953603D01*
X20618571Y9683603D02*
X20618571Y9953603D01*
X20618571Y9953603D02*
X20721428Y9953603D01*
X20721428Y9953603D02*
X20747143Y9940746D01*
X20747143Y9940746D02*
X20760000Y9927889D01*
X20760000Y9927889D02*
X20772857Y9902175D01*
X20772857Y9902175D02*
X20772857Y9863603D01*
X20772857Y9863603D02*
X20760000Y9837889D01*
X20760000Y9837889D02*
X20747143Y9825032D01*
X20747143Y9825032D02*
X20721428Y9812175D01*
X20721428Y9812175D02*
X20618571Y9812175D01*
X18550835Y11161553D02*
X18550835Y10968696D01*
X18550835Y10968696D02*
X18537978Y10930125D01*
X18537978Y10930125D02*
X18512264Y10904410D01*
X18512264Y10904410D02*
X18473692Y10891553D01*
X18473692Y10891553D02*
X18447978Y10891553D01*
X18679406Y10891553D02*
X18679406Y11161553D01*
X18679406Y11161553D02*
X18782263Y11161553D01*
X18782263Y11161553D02*
X18807978Y11148696D01*
X18807978Y11148696D02*
X18820835Y11135839D01*
X18820835Y11135839D02*
X18833692Y11110125D01*
X18833692Y11110125D02*
X18833692Y11071553D01*
X18833692Y11071553D02*
X18820835Y11045839D01*
X18820835Y11045839D02*
X18807978Y11032982D01*
X18807978Y11032982D02*
X18782263Y11020125D01*
X18782263Y11020125D02*
X18679406Y11020125D01*
X18923692Y11161553D02*
X19090835Y11161553D01*
X19090835Y11161553D02*
X19000835Y11058696D01*
X19000835Y11058696D02*
X19039406Y11058696D01*
X19039406Y11058696D02*
X19065121Y11045839D01*
X19065121Y11045839D02*
X19077978Y11032982D01*
X19077978Y11032982D02*
X19090835Y11007268D01*
X19090835Y11007268D02*
X19090835Y10942982D01*
X19090835Y10942982D02*
X19077978Y10917268D01*
X19077978Y10917268D02*
X19065121Y10904410D01*
X19065121Y10904410D02*
X19039406Y10891553D01*
X19039406Y10891553D02*
X18962263Y10891553D01*
X18962263Y10891553D02*
X18936549Y10904410D01*
X18936549Y10904410D02*
X18923692Y10917268D01*
X27089999Y9643603D02*
X26999999Y9772175D01*
X26935713Y9643603D02*
X26935713Y9913603D01*
X26935713Y9913603D02*
X27038570Y9913603D01*
X27038570Y9913603D02*
X27064285Y9900746D01*
X27064285Y9900746D02*
X27077142Y9887889D01*
X27077142Y9887889D02*
X27089999Y9862175D01*
X27089999Y9862175D02*
X27089999Y9823603D01*
X27089999Y9823603D02*
X27077142Y9797889D01*
X27077142Y9797889D02*
X27064285Y9785032D01*
X27064285Y9785032D02*
X27038570Y9772175D01*
X27038570Y9772175D02*
X26935713Y9772175D01*
X27295713Y9785032D02*
X27334285Y9772175D01*
X27334285Y9772175D02*
X27347142Y9759318D01*
X27347142Y9759318D02*
X27359999Y9733603D01*
X27359999Y9733603D02*
X27359999Y9695032D01*
X27359999Y9695032D02*
X27347142Y9669318D01*
X27347142Y9669318D02*
X27334285Y9656460D01*
X27334285Y9656460D02*
X27308570Y9643603D01*
X27308570Y9643603D02*
X27205713Y9643603D01*
X27205713Y9643603D02*
X27205713Y9913603D01*
X27205713Y9913603D02*
X27295713Y9913603D01*
X27295713Y9913603D02*
X27321428Y9900746D01*
X27321428Y9900746D02*
X27334285Y9887889D01*
X27334285Y9887889D02*
X27347142Y9862175D01*
X27347142Y9862175D02*
X27347142Y9836460D01*
X27347142Y9836460D02*
X27334285Y9810746D01*
X27334285Y9810746D02*
X27321428Y9797889D01*
X27321428Y9797889D02*
X27295713Y9785032D01*
X27295713Y9785032D02*
X27205713Y9785032D01*
X27449999Y9913603D02*
X27629999Y9913603D01*
X27629999Y9913603D02*
X27514285Y9643603D01*
X27861428Y9913603D02*
X27732856Y9913603D01*
X27732856Y9913603D02*
X27719999Y9785032D01*
X27719999Y9785032D02*
X27732856Y9797889D01*
X27732856Y9797889D02*
X27758571Y9810746D01*
X27758571Y9810746D02*
X27822856Y9810746D01*
X27822856Y9810746D02*
X27848571Y9797889D01*
X27848571Y9797889D02*
X27861428Y9785032D01*
X27861428Y9785032D02*
X27874285Y9759318D01*
X27874285Y9759318D02*
X27874285Y9695032D01*
X27874285Y9695032D02*
X27861428Y9669318D01*
X27861428Y9669318D02*
X27848571Y9656460D01*
X27848571Y9656460D02*
X27822856Y9643603D01*
X27822856Y9643603D02*
X27758571Y9643603D01*
X27758571Y9643603D02*
X27732856Y9656460D01*
X27732856Y9656460D02*
X27719999Y9669318D01*
X28131428Y9643603D02*
X27977142Y9643603D01*
X28054285Y9643603D02*
X28054285Y9913603D01*
X28054285Y9913603D02*
X28028571Y9875032D01*
X28028571Y9875032D02*
X28002856Y9849318D01*
X28002856Y9849318D02*
X27977142Y9836460D01*
X28208571Y9913603D02*
X28298571Y9643603D01*
X28298571Y9643603D02*
X28388571Y9913603D01*
X28594286Y9823603D02*
X28594286Y9643603D01*
X28530000Y9926460D02*
X28465714Y9733603D01*
X28465714Y9733603D02*
X28632857Y9733603D01*
X28787143Y9913603D02*
X28812857Y9913603D01*
X28812857Y9913603D02*
X28838571Y9900746D01*
X28838571Y9900746D02*
X28851429Y9887889D01*
X28851429Y9887889D02*
X28864286Y9862175D01*
X28864286Y9862175D02*
X28877143Y9810746D01*
X28877143Y9810746D02*
X28877143Y9746460D01*
X28877143Y9746460D02*
X28864286Y9695032D01*
X28864286Y9695032D02*
X28851429Y9669318D01*
X28851429Y9669318D02*
X28838571Y9656460D01*
X28838571Y9656460D02*
X28812857Y9643603D01*
X28812857Y9643603D02*
X28787143Y9643603D01*
X28787143Y9643603D02*
X28761429Y9656460D01*
X28761429Y9656460D02*
X28748571Y9669318D01*
X28748571Y9669318D02*
X28735714Y9695032D01*
X28735714Y9695032D02*
X28722857Y9746460D01*
X28722857Y9746460D02*
X28722857Y9810746D01*
X28722857Y9810746D02*
X28735714Y9862175D01*
X28735714Y9862175D02*
X28748571Y9887889D01*
X28748571Y9887889D02*
X28761429Y9900746D01*
X28761429Y9900746D02*
X28787143Y9913603D01*
X26580714Y8343603D02*
X26580714Y8613603D01*
X26580714Y8613603D02*
X26645000Y8613603D01*
X26645000Y8613603D02*
X26683571Y8600746D01*
X26683571Y8600746D02*
X26709286Y8575032D01*
X26709286Y8575032D02*
X26722143Y8549318D01*
X26722143Y8549318D02*
X26735000Y8497889D01*
X26735000Y8497889D02*
X26735000Y8459318D01*
X26735000Y8459318D02*
X26722143Y8407889D01*
X26722143Y8407889D02*
X26709286Y8382175D01*
X26709286Y8382175D02*
X26683571Y8356460D01*
X26683571Y8356460D02*
X26645000Y8343603D01*
X26645000Y8343603D02*
X26580714Y8343603D01*
X26966429Y8523603D02*
X26966429Y8343603D01*
X26902143Y8626460D02*
X26837857Y8433603D01*
X26837857Y8433603D02*
X27005000Y8433603D01*
X35636428Y19405032D02*
X35726428Y19405032D01*
X35765000Y19263603D02*
X35636428Y19263603D01*
X35636428Y19263603D02*
X35636428Y19533603D01*
X35636428Y19533603D02*
X35765000Y19533603D01*
X35867857Y19276460D02*
X35906429Y19263603D01*
X35906429Y19263603D02*
X35970714Y19263603D01*
X35970714Y19263603D02*
X35996429Y19276460D01*
X35996429Y19276460D02*
X36009286Y19289318D01*
X36009286Y19289318D02*
X36022143Y19315032D01*
X36022143Y19315032D02*
X36022143Y19340746D01*
X36022143Y19340746D02*
X36009286Y19366460D01*
X36009286Y19366460D02*
X35996429Y19379318D01*
X35996429Y19379318D02*
X35970714Y19392175D01*
X35970714Y19392175D02*
X35919286Y19405032D01*
X35919286Y19405032D02*
X35893571Y19417889D01*
X35893571Y19417889D02*
X35880714Y19430746D01*
X35880714Y19430746D02*
X35867857Y19456460D01*
X35867857Y19456460D02*
X35867857Y19482175D01*
X35867857Y19482175D02*
X35880714Y19507889D01*
X35880714Y19507889D02*
X35893571Y19520746D01*
X35893571Y19520746D02*
X35919286Y19533603D01*
X35919286Y19533603D02*
X35983571Y19533603D01*
X35983571Y19533603D02*
X36022143Y19520746D01*
X36137857Y19263603D02*
X36137857Y19533603D01*
X36137857Y19533603D02*
X36240714Y19533603D01*
X36240714Y19533603D02*
X36266429Y19520746D01*
X36266429Y19520746D02*
X36279286Y19507889D01*
X36279286Y19507889D02*
X36292143Y19482175D01*
X36292143Y19482175D02*
X36292143Y19443603D01*
X36292143Y19443603D02*
X36279286Y19417889D01*
X36279286Y19417889D02*
X36266429Y19405032D01*
X36266429Y19405032D02*
X36240714Y19392175D01*
X36240714Y19392175D02*
X36137857Y19392175D01*
X36343572Y19237889D02*
X36549286Y19237889D01*
X36613571Y19263603D02*
X36613571Y19533603D01*
X36613571Y19533603D02*
X36716428Y19533603D01*
X36716428Y19533603D02*
X36742143Y19520746D01*
X36742143Y19520746D02*
X36755000Y19507889D01*
X36755000Y19507889D02*
X36767857Y19482175D01*
X36767857Y19482175D02*
X36767857Y19443603D01*
X36767857Y19443603D02*
X36755000Y19417889D01*
X36755000Y19417889D02*
X36742143Y19405032D01*
X36742143Y19405032D02*
X36716428Y19392175D01*
X36716428Y19392175D02*
X36613571Y19392175D01*
X36857857Y19533603D02*
X36922143Y19263603D01*
X36922143Y19263603D02*
X36973571Y19456460D01*
X36973571Y19456460D02*
X37025000Y19263603D01*
X37025000Y19263603D02*
X37089286Y19533603D01*
X37346428Y19263603D02*
X37256428Y19392175D01*
X37192142Y19263603D02*
X37192142Y19533603D01*
X37192142Y19533603D02*
X37294999Y19533603D01*
X37294999Y19533603D02*
X37320714Y19520746D01*
X37320714Y19520746D02*
X37333571Y19507889D01*
X37333571Y19507889D02*
X37346428Y19482175D01*
X37346428Y19482175D02*
X37346428Y19443603D01*
X37346428Y19443603D02*
X37333571Y19417889D01*
X37333571Y19417889D02*
X37320714Y19405032D01*
X37320714Y19405032D02*
X37294999Y19392175D01*
X37294999Y19392175D02*
X37192142Y19392175D01*
X36255714Y18543603D02*
X36255714Y18813603D01*
X36255714Y18813603D02*
X36320000Y18813603D01*
X36320000Y18813603D02*
X36358571Y18800746D01*
X36358571Y18800746D02*
X36384286Y18775032D01*
X36384286Y18775032D02*
X36397143Y18749318D01*
X36397143Y18749318D02*
X36410000Y18697889D01*
X36410000Y18697889D02*
X36410000Y18659318D01*
X36410000Y18659318D02*
X36397143Y18607889D01*
X36397143Y18607889D02*
X36384286Y18582175D01*
X36384286Y18582175D02*
X36358571Y18556460D01*
X36358571Y18556460D02*
X36320000Y18543603D01*
X36320000Y18543603D02*
X36255714Y18543603D01*
X36654286Y18813603D02*
X36525714Y18813603D01*
X36525714Y18813603D02*
X36512857Y18685032D01*
X36512857Y18685032D02*
X36525714Y18697889D01*
X36525714Y18697889D02*
X36551429Y18710746D01*
X36551429Y18710746D02*
X36615714Y18710746D01*
X36615714Y18710746D02*
X36641429Y18697889D01*
X36641429Y18697889D02*
X36654286Y18685032D01*
X36654286Y18685032D02*
X36667143Y18659318D01*
X36667143Y18659318D02*
X36667143Y18595032D01*
X36667143Y18595032D02*
X36654286Y18569318D01*
X36654286Y18569318D02*
X36641429Y18556460D01*
X36641429Y18556460D02*
X36615714Y18543603D01*
X36615714Y18543603D02*
X36551429Y18543603D01*
X36551429Y18543603D02*
X36525714Y18556460D01*
X36525714Y18556460D02*
X36512857Y18569318D01*
X15795714Y4697889D02*
X15808571Y4710746D01*
X15808571Y4710746D02*
X15834286Y4723603D01*
X15834286Y4723603D02*
X15898571Y4723603D01*
X15898571Y4723603D02*
X15924286Y4710746D01*
X15924286Y4710746D02*
X15937143Y4697889D01*
X15937143Y4697889D02*
X15950000Y4672175D01*
X15950000Y4672175D02*
X15950000Y4646460D01*
X15950000Y4646460D02*
X15937143Y4607889D01*
X15937143Y4607889D02*
X15782857Y4453603D01*
X15782857Y4453603D02*
X15950000Y4453603D01*
X16052857Y4697889D02*
X16065714Y4710746D01*
X16065714Y4710746D02*
X16091429Y4723603D01*
X16091429Y4723603D02*
X16155714Y4723603D01*
X16155714Y4723603D02*
X16181429Y4710746D01*
X16181429Y4710746D02*
X16194286Y4697889D01*
X16194286Y4697889D02*
X16207143Y4672175D01*
X16207143Y4672175D02*
X16207143Y4646460D01*
X16207143Y4646460D02*
X16194286Y4607889D01*
X16194286Y4607889D02*
X16040000Y4453603D01*
X16040000Y4453603D02*
X16207143Y4453603D01*
X16374286Y4723603D02*
X16400000Y4723603D01*
X16400000Y4723603D02*
X16425714Y4710746D01*
X16425714Y4710746D02*
X16438572Y4697889D01*
X16438572Y4697889D02*
X16451429Y4672175D01*
X16451429Y4672175D02*
X16464286Y4620746D01*
X16464286Y4620746D02*
X16464286Y4556460D01*
X16464286Y4556460D02*
X16451429Y4505032D01*
X16451429Y4505032D02*
X16438572Y4479318D01*
X16438572Y4479318D02*
X16425714Y4466460D01*
X16425714Y4466460D02*
X16400000Y4453603D01*
X16400000Y4453603D02*
X16374286Y4453603D01*
X16374286Y4453603D02*
X16348572Y4466460D01*
X16348572Y4466460D02*
X16335714Y4479318D01*
X16335714Y4479318D02*
X16322857Y4505032D01*
X16322857Y4505032D02*
X16310000Y4556460D01*
X16310000Y4556460D02*
X16310000Y4620746D01*
X16310000Y4620746D02*
X16322857Y4672175D01*
X16322857Y4672175D02*
X16335714Y4697889D01*
X16335714Y4697889D02*
X16348572Y4710746D01*
X16348572Y4710746D02*
X16374286Y4723603D01*
X16734286Y4453603D02*
X16644286Y4582175D01*
X16580000Y4453603D02*
X16580000Y4723603D01*
X16580000Y4723603D02*
X16682857Y4723603D01*
X16682857Y4723603D02*
X16708572Y4710746D01*
X16708572Y4710746D02*
X16721429Y4697889D01*
X16721429Y4697889D02*
X16734286Y4672175D01*
X16734286Y4672175D02*
X16734286Y4633603D01*
X16734286Y4633603D02*
X16721429Y4607889D01*
X16721429Y4607889D02*
X16708572Y4595032D01*
X16708572Y4595032D02*
X16682857Y4582175D01*
X16682857Y4582175D02*
X16580000Y4582175D01*
X16260000Y3863603D02*
X16170000Y3992175D01*
X16105714Y3863603D02*
X16105714Y4133603D01*
X16105714Y4133603D02*
X16208571Y4133603D01*
X16208571Y4133603D02*
X16234286Y4120746D01*
X16234286Y4120746D02*
X16247143Y4107889D01*
X16247143Y4107889D02*
X16260000Y4082175D01*
X16260000Y4082175D02*
X16260000Y4043603D01*
X16260000Y4043603D02*
X16247143Y4017889D01*
X16247143Y4017889D02*
X16234286Y4005032D01*
X16234286Y4005032D02*
X16208571Y3992175D01*
X16208571Y3992175D02*
X16105714Y3992175D01*
X16504286Y4133603D02*
X16375714Y4133603D01*
X16375714Y4133603D02*
X16362857Y4005032D01*
X16362857Y4005032D02*
X16375714Y4017889D01*
X16375714Y4017889D02*
X16401429Y4030746D01*
X16401429Y4030746D02*
X16465714Y4030746D01*
X16465714Y4030746D02*
X16491429Y4017889D01*
X16491429Y4017889D02*
X16504286Y4005032D01*
X16504286Y4005032D02*
X16517143Y3979318D01*
X16517143Y3979318D02*
X16517143Y3915032D01*
X16517143Y3915032D02*
X16504286Y3889318D01*
X16504286Y3889318D02*
X16491429Y3876460D01*
X16491429Y3876460D02*
X16465714Y3863603D01*
X16465714Y3863603D02*
X16401429Y3863603D01*
X16401429Y3863603D02*
X16375714Y3876460D01*
X16375714Y3876460D02*
X16362857Y3889318D01*
X12956428Y9293318D02*
X12943571Y9280460D01*
X12943571Y9280460D02*
X12904999Y9267603D01*
X12904999Y9267603D02*
X12879285Y9267603D01*
X12879285Y9267603D02*
X12840714Y9280460D01*
X12840714Y9280460D02*
X12814999Y9306175D01*
X12814999Y9306175D02*
X12802142Y9331889D01*
X12802142Y9331889D02*
X12789285Y9383318D01*
X12789285Y9383318D02*
X12789285Y9421889D01*
X12789285Y9421889D02*
X12802142Y9473318D01*
X12802142Y9473318D02*
X12814999Y9499032D01*
X12814999Y9499032D02*
X12840714Y9524746D01*
X12840714Y9524746D02*
X12879285Y9537603D01*
X12879285Y9537603D02*
X12904999Y9537603D01*
X12904999Y9537603D02*
X12943571Y9524746D01*
X12943571Y9524746D02*
X12956428Y9511889D01*
X13072142Y9267603D02*
X13072142Y9537603D01*
X13072142Y9409032D02*
X13226428Y9409032D01*
X13226428Y9267603D02*
X13226428Y9537603D01*
X13329285Y9537603D02*
X13496428Y9537603D01*
X13496428Y9537603D02*
X13406428Y9434746D01*
X13406428Y9434746D02*
X13444999Y9434746D01*
X13444999Y9434746D02*
X13470714Y9421889D01*
X13470714Y9421889D02*
X13483571Y9409032D01*
X13483571Y9409032D02*
X13496428Y9383318D01*
X13496428Y9383318D02*
X13496428Y9319032D01*
X13496428Y9319032D02*
X13483571Y9293318D01*
X13483571Y9293318D02*
X13470714Y9280460D01*
X13470714Y9280460D02*
X13444999Y9267603D01*
X13444999Y9267603D02*
X13367856Y9267603D01*
X13367856Y9267603D02*
X13342142Y9280460D01*
X13342142Y9280460D02*
X13329285Y9293318D01*
X13727857Y9447603D02*
X13727857Y9267603D01*
X13663571Y9550460D02*
X13599285Y9357603D01*
X13599285Y9357603D02*
X13766428Y9357603D01*
X13920714Y9537603D02*
X13946428Y9537603D01*
X13946428Y9537603D02*
X13972142Y9524746D01*
X13972142Y9524746D02*
X13985000Y9511889D01*
X13985000Y9511889D02*
X13997857Y9486175D01*
X13997857Y9486175D02*
X14010714Y9434746D01*
X14010714Y9434746D02*
X14010714Y9370460D01*
X14010714Y9370460D02*
X13997857Y9319032D01*
X13997857Y9319032D02*
X13985000Y9293318D01*
X13985000Y9293318D02*
X13972142Y9280460D01*
X13972142Y9280460D02*
X13946428Y9267603D01*
X13946428Y9267603D02*
X13920714Y9267603D01*
X13920714Y9267603D02*
X13895000Y9280460D01*
X13895000Y9280460D02*
X13882142Y9293318D01*
X13882142Y9293318D02*
X13869285Y9319032D01*
X13869285Y9319032D02*
X13856428Y9370460D01*
X13856428Y9370460D02*
X13856428Y9434746D01*
X13856428Y9434746D02*
X13869285Y9486175D01*
X13869285Y9486175D02*
X13882142Y9511889D01*
X13882142Y9511889D02*
X13895000Y9524746D01*
X13895000Y9524746D02*
X13920714Y9537603D01*
X14267857Y9524746D02*
X14242143Y9537603D01*
X14242143Y9537603D02*
X14203571Y9537603D01*
X14203571Y9537603D02*
X14165000Y9524746D01*
X14165000Y9524746D02*
X14139285Y9499032D01*
X14139285Y9499032D02*
X14126428Y9473318D01*
X14126428Y9473318D02*
X14113571Y9421889D01*
X14113571Y9421889D02*
X14113571Y9383318D01*
X14113571Y9383318D02*
X14126428Y9331889D01*
X14126428Y9331889D02*
X14139285Y9306175D01*
X14139285Y9306175D02*
X14165000Y9280460D01*
X14165000Y9280460D02*
X14203571Y9267603D01*
X14203571Y9267603D02*
X14229285Y9267603D01*
X14229285Y9267603D02*
X14267857Y9280460D01*
X14267857Y9280460D02*
X14280714Y9293318D01*
X14280714Y9293318D02*
X14280714Y9383318D01*
X14280714Y9383318D02*
X14229285Y9383318D01*
X13319285Y10147603D02*
X13319285Y9929032D01*
X13319285Y9929032D02*
X13332142Y9903318D01*
X13332142Y9903318D02*
X13345000Y9890460D01*
X13345000Y9890460D02*
X13370714Y9877603D01*
X13370714Y9877603D02*
X13422142Y9877603D01*
X13422142Y9877603D02*
X13447857Y9890460D01*
X13447857Y9890460D02*
X13460714Y9903318D01*
X13460714Y9903318D02*
X13473571Y9929032D01*
X13473571Y9929032D02*
X13473571Y10147603D01*
X13743571Y9877603D02*
X13589285Y9877603D01*
X13666428Y9877603D02*
X13666428Y10147603D01*
X13666428Y10147603D02*
X13640714Y10109032D01*
X13640714Y10109032D02*
X13614999Y10083318D01*
X13614999Y10083318D02*
X13589285Y10070460D01*
X9507857Y12293603D02*
X9507857Y12563603D01*
X9507857Y12563603D02*
X9572143Y12563603D01*
X9572143Y12563603D02*
X9610714Y12550746D01*
X9610714Y12550746D02*
X9636429Y12525032D01*
X9636429Y12525032D02*
X9649286Y12499318D01*
X9649286Y12499318D02*
X9662143Y12447889D01*
X9662143Y12447889D02*
X9662143Y12409318D01*
X9662143Y12409318D02*
X9649286Y12357889D01*
X9649286Y12357889D02*
X9636429Y12332175D01*
X9636429Y12332175D02*
X9610714Y12306460D01*
X9610714Y12306460D02*
X9572143Y12293603D01*
X9572143Y12293603D02*
X9507857Y12293603D01*
X9777857Y12293603D02*
X9777857Y12563603D01*
X9777857Y12563603D02*
X9932143Y12293603D01*
X9932143Y12293603D02*
X9932143Y12563603D01*
X10060714Y12293603D02*
X10060714Y12563603D01*
X10060714Y12563603D02*
X10163571Y12563603D01*
X10163571Y12563603D02*
X10189286Y12550746D01*
X10189286Y12550746D02*
X10202143Y12537889D01*
X10202143Y12537889D02*
X10215000Y12512175D01*
X10215000Y12512175D02*
X10215000Y12473603D01*
X10215000Y12473603D02*
X10202143Y12447889D01*
X10202143Y12447889D02*
X10189286Y12435032D01*
X10189286Y12435032D02*
X10163571Y12422175D01*
X10163571Y12422175D02*
X10060714Y12422175D01*
X8660000Y12313603D02*
X8570000Y12442175D01*
X8505714Y12313603D02*
X8505714Y12583603D01*
X8505714Y12583603D02*
X8608571Y12583603D01*
X8608571Y12583603D02*
X8634286Y12570746D01*
X8634286Y12570746D02*
X8647143Y12557889D01*
X8647143Y12557889D02*
X8660000Y12532175D01*
X8660000Y12532175D02*
X8660000Y12493603D01*
X8660000Y12493603D02*
X8647143Y12467889D01*
X8647143Y12467889D02*
X8634286Y12455032D01*
X8634286Y12455032D02*
X8608571Y12442175D01*
X8608571Y12442175D02*
X8505714Y12442175D01*
X8891429Y12583603D02*
X8840000Y12583603D01*
X8840000Y12583603D02*
X8814286Y12570746D01*
X8814286Y12570746D02*
X8801429Y12557889D01*
X8801429Y12557889D02*
X8775714Y12519318D01*
X8775714Y12519318D02*
X8762857Y12467889D01*
X8762857Y12467889D02*
X8762857Y12365032D01*
X8762857Y12365032D02*
X8775714Y12339318D01*
X8775714Y12339318D02*
X8788571Y12326460D01*
X8788571Y12326460D02*
X8814286Y12313603D01*
X8814286Y12313603D02*
X8865714Y12313603D01*
X8865714Y12313603D02*
X8891429Y12326460D01*
X8891429Y12326460D02*
X8904286Y12339318D01*
X8904286Y12339318D02*
X8917143Y12365032D01*
X8917143Y12365032D02*
X8917143Y12429318D01*
X8917143Y12429318D02*
X8904286Y12455032D01*
X8904286Y12455032D02*
X8891429Y12467889D01*
X8891429Y12467889D02*
X8865714Y12480746D01*
X8865714Y12480746D02*
X8814286Y12480746D01*
X8814286Y12480746D02*
X8788571Y12467889D01*
X8788571Y12467889D02*
X8775714Y12455032D01*
X8775714Y12455032D02*
X8762857Y12429318D01*
X8404464Y12450293D02*
X9018393Y12450293D01*
X4700714Y18357889D02*
X4713571Y18370746D01*
X4713571Y18370746D02*
X4739286Y18383603D01*
X4739286Y18383603D02*
X4803571Y18383603D01*
X4803571Y18383603D02*
X4829286Y18370746D01*
X4829286Y18370746D02*
X4842143Y18357889D01*
X4842143Y18357889D02*
X4855000Y18332175D01*
X4855000Y18332175D02*
X4855000Y18306460D01*
X4855000Y18306460D02*
X4842143Y18267889D01*
X4842143Y18267889D02*
X4687857Y18113603D01*
X4687857Y18113603D02*
X4855000Y18113603D01*
X4957857Y18357889D02*
X4970714Y18370746D01*
X4970714Y18370746D02*
X4996429Y18383603D01*
X4996429Y18383603D02*
X5060714Y18383603D01*
X5060714Y18383603D02*
X5086429Y18370746D01*
X5086429Y18370746D02*
X5099286Y18357889D01*
X5099286Y18357889D02*
X5112143Y18332175D01*
X5112143Y18332175D02*
X5112143Y18306460D01*
X5112143Y18306460D02*
X5099286Y18267889D01*
X5099286Y18267889D02*
X4945000Y18113603D01*
X4945000Y18113603D02*
X5112143Y18113603D01*
X5279286Y18383603D02*
X5305000Y18383603D01*
X5305000Y18383603D02*
X5330714Y18370746D01*
X5330714Y18370746D02*
X5343572Y18357889D01*
X5343572Y18357889D02*
X5356429Y18332175D01*
X5356429Y18332175D02*
X5369286Y18280746D01*
X5369286Y18280746D02*
X5369286Y18216460D01*
X5369286Y18216460D02*
X5356429Y18165032D01*
X5356429Y18165032D02*
X5343572Y18139318D01*
X5343572Y18139318D02*
X5330714Y18126460D01*
X5330714Y18126460D02*
X5305000Y18113603D01*
X5305000Y18113603D02*
X5279286Y18113603D01*
X5279286Y18113603D02*
X5253572Y18126460D01*
X5253572Y18126460D02*
X5240714Y18139318D01*
X5240714Y18139318D02*
X5227857Y18165032D01*
X5227857Y18165032D02*
X5215000Y18216460D01*
X5215000Y18216460D02*
X5215000Y18280746D01*
X5215000Y18280746D02*
X5227857Y18332175D01*
X5227857Y18332175D02*
X5240714Y18357889D01*
X5240714Y18357889D02*
X5253572Y18370746D01*
X5253572Y18370746D02*
X5279286Y18383603D01*
X5639286Y18113603D02*
X5549286Y18242175D01*
X5485000Y18113603D02*
X5485000Y18383603D01*
X5485000Y18383603D02*
X5587857Y18383603D01*
X5587857Y18383603D02*
X5613572Y18370746D01*
X5613572Y18370746D02*
X5626429Y18357889D01*
X5626429Y18357889D02*
X5639286Y18332175D01*
X5639286Y18332175D02*
X5639286Y18293603D01*
X5639286Y18293603D02*
X5626429Y18267889D01*
X5626429Y18267889D02*
X5613572Y18255032D01*
X5613572Y18255032D02*
X5587857Y18242175D01*
X5587857Y18242175D02*
X5485000Y18242175D01*
X5090000Y17533603D02*
X5000000Y17662175D01*
X4935714Y17533603D02*
X4935714Y17803603D01*
X4935714Y17803603D02*
X5038571Y17803603D01*
X5038571Y17803603D02*
X5064286Y17790746D01*
X5064286Y17790746D02*
X5077143Y17777889D01*
X5077143Y17777889D02*
X5090000Y17752175D01*
X5090000Y17752175D02*
X5090000Y17713603D01*
X5090000Y17713603D02*
X5077143Y17687889D01*
X5077143Y17687889D02*
X5064286Y17675032D01*
X5064286Y17675032D02*
X5038571Y17662175D01*
X5038571Y17662175D02*
X4935714Y17662175D01*
X5347143Y17533603D02*
X5192857Y17533603D01*
X5270000Y17533603D02*
X5270000Y17803603D01*
X5270000Y17803603D02*
X5244286Y17765032D01*
X5244286Y17765032D02*
X5218571Y17739318D01*
X5218571Y17739318D02*
X5192857Y17726460D01*
X694999Y1338603D02*
X694999Y1608603D01*
X694999Y1608603D02*
X784999Y1415746D01*
X784999Y1415746D02*
X874999Y1608603D01*
X874999Y1608603D02*
X874999Y1338603D01*
X1042142Y1338603D02*
X1016427Y1351460D01*
X1016427Y1351460D02*
X1003570Y1364318D01*
X1003570Y1364318D02*
X990713Y1390032D01*
X990713Y1390032D02*
X990713Y1467175D01*
X990713Y1467175D02*
X1003570Y1492889D01*
X1003570Y1492889D02*
X1016427Y1505746D01*
X1016427Y1505746D02*
X1042142Y1518603D01*
X1042142Y1518603D02*
X1080713Y1518603D01*
X1080713Y1518603D02*
X1106427Y1505746D01*
X1106427Y1505746D02*
X1119285Y1492889D01*
X1119285Y1492889D02*
X1132142Y1467175D01*
X1132142Y1467175D02*
X1132142Y1390032D01*
X1132142Y1390032D02*
X1119285Y1364318D01*
X1119285Y1364318D02*
X1106427Y1351460D01*
X1106427Y1351460D02*
X1080713Y1338603D01*
X1080713Y1338603D02*
X1042142Y1338603D01*
X1363571Y1518603D02*
X1363571Y1338603D01*
X1247856Y1518603D02*
X1247856Y1377175D01*
X1247856Y1377175D02*
X1260713Y1351460D01*
X1260713Y1351460D02*
X1286428Y1338603D01*
X1286428Y1338603D02*
X1324999Y1338603D01*
X1324999Y1338603D02*
X1350713Y1351460D01*
X1350713Y1351460D02*
X1363571Y1364318D01*
X1492142Y1518603D02*
X1492142Y1338603D01*
X1492142Y1492889D02*
X1504999Y1505746D01*
X1504999Y1505746D02*
X1530714Y1518603D01*
X1530714Y1518603D02*
X1569285Y1518603D01*
X1569285Y1518603D02*
X1594999Y1505746D01*
X1594999Y1505746D02*
X1607857Y1480032D01*
X1607857Y1480032D02*
X1607857Y1338603D01*
X1697857Y1518603D02*
X1800714Y1518603D01*
X1736428Y1608603D02*
X1736428Y1377175D01*
X1736428Y1377175D02*
X1749285Y1351460D01*
X1749285Y1351460D02*
X1775000Y1338603D01*
X1775000Y1338603D02*
X1800714Y1338603D01*
X1890714Y1338603D02*
X1890714Y1518603D01*
X1890714Y1608603D02*
X1877857Y1595746D01*
X1877857Y1595746D02*
X1890714Y1582889D01*
X1890714Y1582889D02*
X1903571Y1595746D01*
X1903571Y1595746D02*
X1890714Y1608603D01*
X1890714Y1608603D02*
X1890714Y1582889D01*
X2019285Y1518603D02*
X2019285Y1338603D01*
X2019285Y1492889D02*
X2032142Y1505746D01*
X2032142Y1505746D02*
X2057857Y1518603D01*
X2057857Y1518603D02*
X2096428Y1518603D01*
X2096428Y1518603D02*
X2122142Y1505746D01*
X2122142Y1505746D02*
X2135000Y1480032D01*
X2135000Y1480032D02*
X2135000Y1338603D01*
X2379286Y1518603D02*
X2379286Y1300032D01*
X2379286Y1300032D02*
X2366428Y1274318D01*
X2366428Y1274318D02*
X2353571Y1261460D01*
X2353571Y1261460D02*
X2327857Y1248603D01*
X2327857Y1248603D02*
X2289286Y1248603D01*
X2289286Y1248603D02*
X2263571Y1261460D01*
X2379286Y1351460D02*
X2353571Y1338603D01*
X2353571Y1338603D02*
X2302143Y1338603D01*
X2302143Y1338603D02*
X2276428Y1351460D01*
X2276428Y1351460D02*
X2263571Y1364318D01*
X2263571Y1364318D02*
X2250714Y1390032D01*
X2250714Y1390032D02*
X2250714Y1467175D01*
X2250714Y1467175D02*
X2263571Y1492889D01*
X2263571Y1492889D02*
X2276428Y1505746D01*
X2276428Y1505746D02*
X2302143Y1518603D01*
X2302143Y1518603D02*
X2353571Y1518603D01*
X2353571Y1518603D02*
X2379286Y1505746D01*
X2713571Y1338603D02*
X2713571Y1608603D01*
X2713571Y1480032D02*
X2867857Y1480032D01*
X2867857Y1338603D02*
X2867857Y1608603D01*
X3035000Y1338603D02*
X3009285Y1351460D01*
X3009285Y1351460D02*
X2996428Y1364318D01*
X2996428Y1364318D02*
X2983571Y1390032D01*
X2983571Y1390032D02*
X2983571Y1467175D01*
X2983571Y1467175D02*
X2996428Y1492889D01*
X2996428Y1492889D02*
X3009285Y1505746D01*
X3009285Y1505746D02*
X3035000Y1518603D01*
X3035000Y1518603D02*
X3073571Y1518603D01*
X3073571Y1518603D02*
X3099285Y1505746D01*
X3099285Y1505746D02*
X3112143Y1492889D01*
X3112143Y1492889D02*
X3125000Y1467175D01*
X3125000Y1467175D02*
X3125000Y1390032D01*
X3125000Y1390032D02*
X3112143Y1364318D01*
X3112143Y1364318D02*
X3099285Y1351460D01*
X3099285Y1351460D02*
X3073571Y1338603D01*
X3073571Y1338603D02*
X3035000Y1338603D01*
X3279286Y1338603D02*
X3253571Y1351460D01*
X3253571Y1351460D02*
X3240714Y1377175D01*
X3240714Y1377175D02*
X3240714Y1608603D01*
X3485000Y1351460D02*
X3459286Y1338603D01*
X3459286Y1338603D02*
X3407858Y1338603D01*
X3407858Y1338603D02*
X3382143Y1351460D01*
X3382143Y1351460D02*
X3369286Y1377175D01*
X3369286Y1377175D02*
X3369286Y1480032D01*
X3369286Y1480032D02*
X3382143Y1505746D01*
X3382143Y1505746D02*
X3407858Y1518603D01*
X3407858Y1518603D02*
X3459286Y1518603D01*
X3459286Y1518603D02*
X3485000Y1505746D01*
X3485000Y1505746D02*
X3497858Y1480032D01*
X3497858Y1480032D02*
X3497858Y1454318D01*
X3497858Y1454318D02*
X3369286Y1428603D01*
X1794285Y1878603D02*
X1794285Y2148603D01*
X1794285Y2020032D02*
X1948571Y2020032D01*
X1948571Y1878603D02*
X1948571Y2148603D01*
X2064285Y2122889D02*
X2077142Y2135746D01*
X2077142Y2135746D02*
X2102857Y2148603D01*
X2102857Y2148603D02*
X2167142Y2148603D01*
X2167142Y2148603D02*
X2192857Y2135746D01*
X2192857Y2135746D02*
X2205714Y2122889D01*
X2205714Y2122889D02*
X2218571Y2097175D01*
X2218571Y2097175D02*
X2218571Y2071460D01*
X2218571Y2071460D02*
X2205714Y2032889D01*
X2205714Y2032889D02*
X2051428Y1878603D01*
X2051428Y1878603D02*
X2218571Y1878603D01*
X25389285Y18195032D02*
X25479285Y18195032D01*
X25517857Y18053603D02*
X25389285Y18053603D01*
X25389285Y18053603D02*
X25389285Y18323603D01*
X25389285Y18323603D02*
X25517857Y18323603D01*
X25620714Y18066460D02*
X25659286Y18053603D01*
X25659286Y18053603D02*
X25723571Y18053603D01*
X25723571Y18053603D02*
X25749286Y18066460D01*
X25749286Y18066460D02*
X25762143Y18079318D01*
X25762143Y18079318D02*
X25775000Y18105032D01*
X25775000Y18105032D02*
X25775000Y18130746D01*
X25775000Y18130746D02*
X25762143Y18156460D01*
X25762143Y18156460D02*
X25749286Y18169318D01*
X25749286Y18169318D02*
X25723571Y18182175D01*
X25723571Y18182175D02*
X25672143Y18195032D01*
X25672143Y18195032D02*
X25646428Y18207889D01*
X25646428Y18207889D02*
X25633571Y18220746D01*
X25633571Y18220746D02*
X25620714Y18246460D01*
X25620714Y18246460D02*
X25620714Y18272175D01*
X25620714Y18272175D02*
X25633571Y18297889D01*
X25633571Y18297889D02*
X25646428Y18310746D01*
X25646428Y18310746D02*
X25672143Y18323603D01*
X25672143Y18323603D02*
X25736428Y18323603D01*
X25736428Y18323603D02*
X25775000Y18310746D01*
X25890714Y18053603D02*
X25890714Y18323603D01*
X25890714Y18323603D02*
X25993571Y18323603D01*
X25993571Y18323603D02*
X26019286Y18310746D01*
X26019286Y18310746D02*
X26032143Y18297889D01*
X26032143Y18297889D02*
X26045000Y18272175D01*
X26045000Y18272175D02*
X26045000Y18233603D01*
X26045000Y18233603D02*
X26032143Y18207889D01*
X26032143Y18207889D02*
X26019286Y18195032D01*
X26019286Y18195032D02*
X25993571Y18182175D01*
X25993571Y18182175D02*
X25890714Y18182175D01*
X26096429Y18027889D02*
X26302143Y18027889D01*
X26327857Y18323603D02*
X26417857Y18053603D01*
X26417857Y18053603D02*
X26507857Y18323603D01*
X26597857Y18053603D02*
X26597857Y18323603D01*
X26597857Y18323603D02*
X26662143Y18323603D01*
X26662143Y18323603D02*
X26700714Y18310746D01*
X26700714Y18310746D02*
X26726429Y18285032D01*
X26726429Y18285032D02*
X26739286Y18259318D01*
X26739286Y18259318D02*
X26752143Y18207889D01*
X26752143Y18207889D02*
X26752143Y18169318D01*
X26752143Y18169318D02*
X26739286Y18117889D01*
X26739286Y18117889D02*
X26726429Y18092175D01*
X26726429Y18092175D02*
X26700714Y18066460D01*
X26700714Y18066460D02*
X26662143Y18053603D01*
X26662143Y18053603D02*
X26597857Y18053603D01*
X26867857Y18053603D02*
X26867857Y18323603D01*
X26867857Y18323603D02*
X26932143Y18323603D01*
X26932143Y18323603D02*
X26970714Y18310746D01*
X26970714Y18310746D02*
X26996429Y18285032D01*
X26996429Y18285032D02*
X27009286Y18259318D01*
X27009286Y18259318D02*
X27022143Y18207889D01*
X27022143Y18207889D02*
X27022143Y18169318D01*
X27022143Y18169318D02*
X27009286Y18117889D01*
X27009286Y18117889D02*
X26996429Y18092175D01*
X26996429Y18092175D02*
X26970714Y18066460D01*
X26970714Y18066460D02*
X26932143Y18053603D01*
X26932143Y18053603D02*
X26867857Y18053603D01*
X27073572Y18027889D02*
X27279286Y18027889D01*
X27330714Y18066460D02*
X27369286Y18053603D01*
X27369286Y18053603D02*
X27433571Y18053603D01*
X27433571Y18053603D02*
X27459286Y18066460D01*
X27459286Y18066460D02*
X27472143Y18079318D01*
X27472143Y18079318D02*
X27485000Y18105032D01*
X27485000Y18105032D02*
X27485000Y18130746D01*
X27485000Y18130746D02*
X27472143Y18156460D01*
X27472143Y18156460D02*
X27459286Y18169318D01*
X27459286Y18169318D02*
X27433571Y18182175D01*
X27433571Y18182175D02*
X27382143Y18195032D01*
X27382143Y18195032D02*
X27356428Y18207889D01*
X27356428Y18207889D02*
X27343571Y18220746D01*
X27343571Y18220746D02*
X27330714Y18246460D01*
X27330714Y18246460D02*
X27330714Y18272175D01*
X27330714Y18272175D02*
X27343571Y18297889D01*
X27343571Y18297889D02*
X27356428Y18310746D01*
X27356428Y18310746D02*
X27382143Y18323603D01*
X27382143Y18323603D02*
X27446428Y18323603D01*
X27446428Y18323603D02*
X27485000Y18310746D01*
X27575000Y18323603D02*
X27639286Y18053603D01*
X27639286Y18053603D02*
X27690714Y18246460D01*
X27690714Y18246460D02*
X27742143Y18053603D01*
X27742143Y18053603D02*
X27806429Y18323603D01*
X26085000Y18616460D02*
X26123572Y18603603D01*
X26123572Y18603603D02*
X26187857Y18603603D01*
X26187857Y18603603D02*
X26213572Y18616460D01*
X26213572Y18616460D02*
X26226429Y18629318D01*
X26226429Y18629318D02*
X26239286Y18655032D01*
X26239286Y18655032D02*
X26239286Y18680746D01*
X26239286Y18680746D02*
X26226429Y18706460D01*
X26226429Y18706460D02*
X26213572Y18719318D01*
X26213572Y18719318D02*
X26187857Y18732175D01*
X26187857Y18732175D02*
X26136429Y18745032D01*
X26136429Y18745032D02*
X26110714Y18757889D01*
X26110714Y18757889D02*
X26097857Y18770746D01*
X26097857Y18770746D02*
X26085000Y18796460D01*
X26085000Y18796460D02*
X26085000Y18822175D01*
X26085000Y18822175D02*
X26097857Y18847889D01*
X26097857Y18847889D02*
X26110714Y18860746D01*
X26110714Y18860746D02*
X26136429Y18873603D01*
X26136429Y18873603D02*
X26200714Y18873603D01*
X26200714Y18873603D02*
X26239286Y18860746D01*
X26329286Y18873603D02*
X26393572Y18603603D01*
X26393572Y18603603D02*
X26445000Y18796460D01*
X26445000Y18796460D02*
X26496429Y18603603D01*
X26496429Y18603603D02*
X26560715Y18873603D01*
X26637857Y18873603D02*
X26805000Y18873603D01*
X26805000Y18873603D02*
X26715000Y18770746D01*
X26715000Y18770746D02*
X26753571Y18770746D01*
X26753571Y18770746D02*
X26779286Y18757889D01*
X26779286Y18757889D02*
X26792143Y18745032D01*
X26792143Y18745032D02*
X26805000Y18719318D01*
X26805000Y18719318D02*
X26805000Y18655032D01*
X26805000Y18655032D02*
X26792143Y18629318D01*
X26792143Y18629318D02*
X26779286Y18616460D01*
X26779286Y18616460D02*
X26753571Y18603603D01*
X26753571Y18603603D02*
X26676428Y18603603D01*
X26676428Y18603603D02*
X26650714Y18616460D01*
X26650714Y18616460D02*
X26637857Y18629318D01*
X704999Y17278603D02*
X704999Y17548603D01*
X704999Y17548603D02*
X794999Y17355746D01*
X794999Y17355746D02*
X884999Y17548603D01*
X884999Y17548603D02*
X884999Y17278603D01*
X1052142Y17278603D02*
X1026427Y17291460D01*
X1026427Y17291460D02*
X1013570Y17304318D01*
X1013570Y17304318D02*
X1000713Y17330032D01*
X1000713Y17330032D02*
X1000713Y17407175D01*
X1000713Y17407175D02*
X1013570Y17432889D01*
X1013570Y17432889D02*
X1026427Y17445746D01*
X1026427Y17445746D02*
X1052142Y17458603D01*
X1052142Y17458603D02*
X1090713Y17458603D01*
X1090713Y17458603D02*
X1116427Y17445746D01*
X1116427Y17445746D02*
X1129285Y17432889D01*
X1129285Y17432889D02*
X1142142Y17407175D01*
X1142142Y17407175D02*
X1142142Y17330032D01*
X1142142Y17330032D02*
X1129285Y17304318D01*
X1129285Y17304318D02*
X1116427Y17291460D01*
X1116427Y17291460D02*
X1090713Y17278603D01*
X1090713Y17278603D02*
X1052142Y17278603D01*
X1373571Y17458603D02*
X1373571Y17278603D01*
X1257856Y17458603D02*
X1257856Y17317175D01*
X1257856Y17317175D02*
X1270713Y17291460D01*
X1270713Y17291460D02*
X1296428Y17278603D01*
X1296428Y17278603D02*
X1334999Y17278603D01*
X1334999Y17278603D02*
X1360713Y17291460D01*
X1360713Y17291460D02*
X1373571Y17304318D01*
X1502142Y17458603D02*
X1502142Y17278603D01*
X1502142Y17432889D02*
X1514999Y17445746D01*
X1514999Y17445746D02*
X1540714Y17458603D01*
X1540714Y17458603D02*
X1579285Y17458603D01*
X1579285Y17458603D02*
X1604999Y17445746D01*
X1604999Y17445746D02*
X1617857Y17420032D01*
X1617857Y17420032D02*
X1617857Y17278603D01*
X1707857Y17458603D02*
X1810714Y17458603D01*
X1746428Y17548603D02*
X1746428Y17317175D01*
X1746428Y17317175D02*
X1759285Y17291460D01*
X1759285Y17291460D02*
X1785000Y17278603D01*
X1785000Y17278603D02*
X1810714Y17278603D01*
X1900714Y17278603D02*
X1900714Y17458603D01*
X1900714Y17548603D02*
X1887857Y17535746D01*
X1887857Y17535746D02*
X1900714Y17522889D01*
X1900714Y17522889D02*
X1913571Y17535746D01*
X1913571Y17535746D02*
X1900714Y17548603D01*
X1900714Y17548603D02*
X1900714Y17522889D01*
X2029285Y17458603D02*
X2029285Y17278603D01*
X2029285Y17432889D02*
X2042142Y17445746D01*
X2042142Y17445746D02*
X2067857Y17458603D01*
X2067857Y17458603D02*
X2106428Y17458603D01*
X2106428Y17458603D02*
X2132142Y17445746D01*
X2132142Y17445746D02*
X2145000Y17420032D01*
X2145000Y17420032D02*
X2145000Y17278603D01*
X2389286Y17458603D02*
X2389286Y17240032D01*
X2389286Y17240032D02*
X2376428Y17214318D01*
X2376428Y17214318D02*
X2363571Y17201460D01*
X2363571Y17201460D02*
X2337857Y17188603D01*
X2337857Y17188603D02*
X2299286Y17188603D01*
X2299286Y17188603D02*
X2273571Y17201460D01*
X2389286Y17291460D02*
X2363571Y17278603D01*
X2363571Y17278603D02*
X2312143Y17278603D01*
X2312143Y17278603D02*
X2286428Y17291460D01*
X2286428Y17291460D02*
X2273571Y17304318D01*
X2273571Y17304318D02*
X2260714Y17330032D01*
X2260714Y17330032D02*
X2260714Y17407175D01*
X2260714Y17407175D02*
X2273571Y17432889D01*
X2273571Y17432889D02*
X2286428Y17445746D01*
X2286428Y17445746D02*
X2312143Y17458603D01*
X2312143Y17458603D02*
X2363571Y17458603D01*
X2363571Y17458603D02*
X2389286Y17445746D01*
X2723571Y17278603D02*
X2723571Y17548603D01*
X2723571Y17420032D02*
X2877857Y17420032D01*
X2877857Y17278603D02*
X2877857Y17548603D01*
X3045000Y17278603D02*
X3019285Y17291460D01*
X3019285Y17291460D02*
X3006428Y17304318D01*
X3006428Y17304318D02*
X2993571Y17330032D01*
X2993571Y17330032D02*
X2993571Y17407175D01*
X2993571Y17407175D02*
X3006428Y17432889D01*
X3006428Y17432889D02*
X3019285Y17445746D01*
X3019285Y17445746D02*
X3045000Y17458603D01*
X3045000Y17458603D02*
X3083571Y17458603D01*
X3083571Y17458603D02*
X3109285Y17445746D01*
X3109285Y17445746D02*
X3122143Y17432889D01*
X3122143Y17432889D02*
X3135000Y17407175D01*
X3135000Y17407175D02*
X3135000Y17330032D01*
X3135000Y17330032D02*
X3122143Y17304318D01*
X3122143Y17304318D02*
X3109285Y17291460D01*
X3109285Y17291460D02*
X3083571Y17278603D01*
X3083571Y17278603D02*
X3045000Y17278603D01*
X3289286Y17278603D02*
X3263571Y17291460D01*
X3263571Y17291460D02*
X3250714Y17317175D01*
X3250714Y17317175D02*
X3250714Y17548603D01*
X3495000Y17291460D02*
X3469286Y17278603D01*
X3469286Y17278603D02*
X3417858Y17278603D01*
X3417858Y17278603D02*
X3392143Y17291460D01*
X3392143Y17291460D02*
X3379286Y17317175D01*
X3379286Y17317175D02*
X3379286Y17420032D01*
X3379286Y17420032D02*
X3392143Y17445746D01*
X3392143Y17445746D02*
X3417858Y17458603D01*
X3417858Y17458603D02*
X3469286Y17458603D01*
X3469286Y17458603D02*
X3495000Y17445746D01*
X3495000Y17445746D02*
X3507858Y17420032D01*
X3507858Y17420032D02*
X3507858Y17394318D01*
X3507858Y17394318D02*
X3379286Y17368603D01*
X1794285Y17878603D02*
X1794285Y18148603D01*
X1794285Y18020032D02*
X1948571Y18020032D01*
X1948571Y17878603D02*
X1948571Y18148603D01*
X2218571Y17878603D02*
X2064285Y17878603D01*
X2141428Y17878603D02*
X2141428Y18148603D01*
X2141428Y18148603D02*
X2115714Y18110032D01*
X2115714Y18110032D02*
X2089999Y18084318D01*
X2089999Y18084318D02*
X2064285Y18071460D01*
X13421428Y16123603D02*
X13447142Y16123603D01*
X13447142Y16123603D02*
X13472856Y16110746D01*
X13472856Y16110746D02*
X13485714Y16097889D01*
X13485714Y16097889D02*
X13498571Y16072175D01*
X13498571Y16072175D02*
X13511428Y16020746D01*
X13511428Y16020746D02*
X13511428Y15956460D01*
X13511428Y15956460D02*
X13498571Y15905032D01*
X13498571Y15905032D02*
X13485714Y15879318D01*
X13485714Y15879318D02*
X13472856Y15866460D01*
X13472856Y15866460D02*
X13447142Y15853603D01*
X13447142Y15853603D02*
X13421428Y15853603D01*
X13421428Y15853603D02*
X13395714Y15866460D01*
X13395714Y15866460D02*
X13382856Y15879318D01*
X13382856Y15879318D02*
X13369999Y15905032D01*
X13369999Y15905032D02*
X13357142Y15956460D01*
X13357142Y15956460D02*
X13357142Y16020746D01*
X13357142Y16020746D02*
X13369999Y16072175D01*
X13369999Y16072175D02*
X13382856Y16097889D01*
X13382856Y16097889D02*
X13395714Y16110746D01*
X13395714Y16110746D02*
X13421428Y16123603D01*
X13627142Y15879318D02*
X13639999Y15866460D01*
X13639999Y15866460D02*
X13627142Y15853603D01*
X13627142Y15853603D02*
X13614285Y15866460D01*
X13614285Y15866460D02*
X13627142Y15879318D01*
X13627142Y15879318D02*
X13627142Y15853603D01*
X13897142Y15853603D02*
X13742856Y15853603D01*
X13819999Y15853603D02*
X13819999Y16123603D01*
X13819999Y16123603D02*
X13794285Y16085032D01*
X13794285Y16085032D02*
X13768570Y16059318D01*
X13768570Y16059318D02*
X13742856Y16046460D01*
X14128571Y16033603D02*
X14128571Y15853603D01*
X14012856Y16033603D02*
X14012856Y15892175D01*
X14012856Y15892175D02*
X14025713Y15866460D01*
X14025713Y15866460D02*
X14051428Y15853603D01*
X14051428Y15853603D02*
X14089999Y15853603D01*
X14089999Y15853603D02*
X14115713Y15866460D01*
X14115713Y15866460D02*
X14128571Y15879318D01*
X14347142Y15995032D02*
X14257142Y15995032D01*
X14257142Y15853603D02*
X14257142Y16123603D01*
X14257142Y16123603D02*
X14385714Y16123603D01*
X12630000Y15909318D02*
X12617143Y15896460D01*
X12617143Y15896460D02*
X12578571Y15883603D01*
X12578571Y15883603D02*
X12552857Y15883603D01*
X12552857Y15883603D02*
X12514286Y15896460D01*
X12514286Y15896460D02*
X12488571Y15922175D01*
X12488571Y15922175D02*
X12475714Y15947889D01*
X12475714Y15947889D02*
X12462857Y15999318D01*
X12462857Y15999318D02*
X12462857Y16037889D01*
X12462857Y16037889D02*
X12475714Y16089318D01*
X12475714Y16089318D02*
X12488571Y16115032D01*
X12488571Y16115032D02*
X12514286Y16140746D01*
X12514286Y16140746D02*
X12552857Y16153603D01*
X12552857Y16153603D02*
X12578571Y16153603D01*
X12578571Y16153603D02*
X12617143Y16140746D01*
X12617143Y16140746D02*
X12630000Y16127889D01*
X12732857Y16127889D02*
X12745714Y16140746D01*
X12745714Y16140746D02*
X12771429Y16153603D01*
X12771429Y16153603D02*
X12835714Y16153603D01*
X12835714Y16153603D02*
X12861429Y16140746D01*
X12861429Y16140746D02*
X12874286Y16127889D01*
X12874286Y16127889D02*
X12887143Y16102175D01*
X12887143Y16102175D02*
X12887143Y16076460D01*
X12887143Y16076460D02*
X12874286Y16037889D01*
X12874286Y16037889D02*
X12720000Y15883603D01*
X12720000Y15883603D02*
X12887143Y15883603D01*
X12533572Y2468603D02*
X12379286Y2468603D01*
X12456429Y2468603D02*
X12456429Y2738603D01*
X12456429Y2738603D02*
X12430715Y2700032D01*
X12430715Y2700032D02*
X12405000Y2674318D01*
X12405000Y2674318D02*
X12379286Y2661460D01*
X12636429Y2712889D02*
X12649286Y2725746D01*
X12649286Y2725746D02*
X12675001Y2738603D01*
X12675001Y2738603D02*
X12739286Y2738603D01*
X12739286Y2738603D02*
X12765001Y2725746D01*
X12765001Y2725746D02*
X12777858Y2712889D01*
X12777858Y2712889D02*
X12790715Y2687175D01*
X12790715Y2687175D02*
X12790715Y2661460D01*
X12790715Y2661460D02*
X12777858Y2622889D01*
X12777858Y2622889D02*
X12623572Y2468603D01*
X12623572Y2468603D02*
X12790715Y2468603D01*
X12906429Y2468603D02*
X12906429Y2738603D01*
X12906429Y2738603D02*
X12996429Y2545746D01*
X12996429Y2545746D02*
X13086429Y2738603D01*
X13086429Y2738603D02*
X13086429Y2468603D01*
X13215000Y2468603D02*
X13215000Y2738603D01*
X13215000Y2610032D02*
X13369286Y2610032D01*
X13369286Y2468603D02*
X13369286Y2738603D01*
X13472143Y2648603D02*
X13613572Y2648603D01*
X13613572Y2648603D02*
X13472143Y2468603D01*
X13472143Y2468603D02*
X13613572Y2468603D01*
X12841428Y3237175D02*
X12841428Y3108603D01*
X12751428Y3378603D02*
X12841428Y3237175D01*
X12841428Y3237175D02*
X12931428Y3378603D01*
X13162857Y3108603D02*
X13008571Y3108603D01*
X13085714Y3108603D02*
X13085714Y3378603D01*
X13085714Y3378603D02*
X13060000Y3340032D01*
X13060000Y3340032D02*
X13034285Y3314318D01*
X13034285Y3314318D02*
X13008571Y3301460D01*
X22868571Y13243603D02*
X22714285Y13243603D01*
X22791428Y13243603D02*
X22791428Y13513603D01*
X22791428Y13513603D02*
X22765714Y13475032D01*
X22765714Y13475032D02*
X22739999Y13449318D01*
X22739999Y13449318D02*
X22714285Y13436460D01*
X23035714Y13513603D02*
X23061428Y13513603D01*
X23061428Y13513603D02*
X23087142Y13500746D01*
X23087142Y13500746D02*
X23100000Y13487889D01*
X23100000Y13487889D02*
X23112857Y13462175D01*
X23112857Y13462175D02*
X23125714Y13410746D01*
X23125714Y13410746D02*
X23125714Y13346460D01*
X23125714Y13346460D02*
X23112857Y13295032D01*
X23112857Y13295032D02*
X23100000Y13269318D01*
X23100000Y13269318D02*
X23087142Y13256460D01*
X23087142Y13256460D02*
X23061428Y13243603D01*
X23061428Y13243603D02*
X23035714Y13243603D01*
X23035714Y13243603D02*
X23010000Y13256460D01*
X23010000Y13256460D02*
X22997142Y13269318D01*
X22997142Y13269318D02*
X22984285Y13295032D01*
X22984285Y13295032D02*
X22971428Y13346460D01*
X22971428Y13346460D02*
X22971428Y13410746D01*
X22971428Y13410746D02*
X22984285Y13462175D01*
X22984285Y13462175D02*
X22997142Y13487889D01*
X22997142Y13487889D02*
X23010000Y13500746D01*
X23010000Y13500746D02*
X23035714Y13513603D01*
X23241428Y13243603D02*
X23241428Y13513603D01*
X23395714Y13243603D02*
X23280000Y13397889D01*
X23395714Y13513603D02*
X23241428Y13359318D01*
X22366397Y13310001D02*
X22237825Y13220001D01*
X22366397Y13155715D02*
X22096397Y13155715D01*
X22096397Y13155715D02*
X22096397Y13258572D01*
X22096397Y13258572D02*
X22109254Y13284287D01*
X22109254Y13284287D02*
X22122111Y13297144D01*
X22122111Y13297144D02*
X22147825Y13310001D01*
X22147825Y13310001D02*
X22186397Y13310001D01*
X22186397Y13310001D02*
X22212111Y13297144D01*
X22212111Y13297144D02*
X22224968Y13284287D01*
X22224968Y13284287D02*
X22237825Y13258572D01*
X22237825Y13258572D02*
X22237825Y13155715D01*
X22186397Y13541429D02*
X22366397Y13541429D01*
X22083540Y13477144D02*
X22276397Y13412858D01*
X22276397Y13412858D02*
X22276397Y13580001D01*
X23301428Y1693603D02*
X23301428Y1513603D01*
X23237142Y1796460D02*
X23172856Y1603603D01*
X23172856Y1603603D02*
X23339999Y1603603D01*
X23417142Y1783603D02*
X23597142Y1783603D01*
X23597142Y1783603D02*
X23481428Y1513603D01*
X23751428Y1783603D02*
X23777142Y1783603D01*
X23777142Y1783603D02*
X23802856Y1770746D01*
X23802856Y1770746D02*
X23815714Y1757889D01*
X23815714Y1757889D02*
X23828571Y1732175D01*
X23828571Y1732175D02*
X23841428Y1680746D01*
X23841428Y1680746D02*
X23841428Y1616460D01*
X23841428Y1616460D02*
X23828571Y1565032D01*
X23828571Y1565032D02*
X23815714Y1539318D01*
X23815714Y1539318D02*
X23802856Y1526460D01*
X23802856Y1526460D02*
X23777142Y1513603D01*
X23777142Y1513603D02*
X23751428Y1513603D01*
X23751428Y1513603D02*
X23725714Y1526460D01*
X23725714Y1526460D02*
X23712856Y1539318D01*
X23712856Y1539318D02*
X23699999Y1565032D01*
X23699999Y1565032D02*
X23687142Y1616460D01*
X23687142Y1616460D02*
X23687142Y1680746D01*
X23687142Y1680746D02*
X23699999Y1732175D01*
X23699999Y1732175D02*
X23712856Y1757889D01*
X23712856Y1757889D02*
X23725714Y1770746D01*
X23725714Y1770746D02*
X23751428Y1783603D01*
X23957142Y1693603D02*
X23957142Y1423603D01*
X23957142Y1680746D02*
X23982857Y1693603D01*
X23982857Y1693603D02*
X24034285Y1693603D01*
X24034285Y1693603D02*
X24059999Y1680746D01*
X24059999Y1680746D02*
X24072857Y1667889D01*
X24072857Y1667889D02*
X24085714Y1642175D01*
X24085714Y1642175D02*
X24085714Y1565032D01*
X24085714Y1565032D02*
X24072857Y1539318D01*
X24072857Y1539318D02*
X24059999Y1526460D01*
X24059999Y1526460D02*
X24034285Y1513603D01*
X24034285Y1513603D02*
X23982857Y1513603D01*
X23982857Y1513603D02*
X23957142Y1526460D01*
X24291428Y1655032D02*
X24201428Y1655032D01*
X24201428Y1513603D02*
X24201428Y1783603D01*
X24201428Y1783603D02*
X24330000Y1783603D01*
X22430000Y1559318D02*
X22417143Y1546460D01*
X22417143Y1546460D02*
X22378571Y1533603D01*
X22378571Y1533603D02*
X22352857Y1533603D01*
X22352857Y1533603D02*
X22314286Y1546460D01*
X22314286Y1546460D02*
X22288571Y1572175D01*
X22288571Y1572175D02*
X22275714Y1597889D01*
X22275714Y1597889D02*
X22262857Y1649318D01*
X22262857Y1649318D02*
X22262857Y1687889D01*
X22262857Y1687889D02*
X22275714Y1739318D01*
X22275714Y1739318D02*
X22288571Y1765032D01*
X22288571Y1765032D02*
X22314286Y1790746D01*
X22314286Y1790746D02*
X22352857Y1803603D01*
X22352857Y1803603D02*
X22378571Y1803603D01*
X22378571Y1803603D02*
X22417143Y1790746D01*
X22417143Y1790746D02*
X22430000Y1777889D01*
X22661429Y1713603D02*
X22661429Y1533603D01*
X22597143Y1816460D02*
X22532857Y1623603D01*
X22532857Y1623603D02*
X22700000Y1623603D01*
D11*
X18780600Y12748573D02*
X18794885Y12791430D01*
X18794885Y12791430D02*
X18794885Y12862859D01*
X18794885Y12862859D02*
X18780600Y12891430D01*
X18780600Y12891430D02*
X18766314Y12905716D01*
X18766314Y12905716D02*
X18737742Y12920002D01*
X18737742Y12920002D02*
X18709171Y12920002D01*
X18709171Y12920002D02*
X18680600Y12905716D01*
X18680600Y12905716D02*
X18666314Y12891430D01*
X18666314Y12891430D02*
X18652028Y12862859D01*
X18652028Y12862859D02*
X18637742Y12805716D01*
X18637742Y12805716D02*
X18623457Y12777145D01*
X18623457Y12777145D02*
X18609171Y12762859D01*
X18609171Y12762859D02*
X18580600Y12748573D01*
X18580600Y12748573D02*
X18552028Y12748573D01*
X18552028Y12748573D02*
X18523457Y12762859D01*
X18523457Y12762859D02*
X18509171Y12777145D01*
X18509171Y12777145D02*
X18494885Y12805716D01*
X18494885Y12805716D02*
X18494885Y12877145D01*
X18494885Y12877145D02*
X18509171Y12920002D01*
X18794885Y13048573D02*
X18594885Y13048573D01*
X18494885Y13048573D02*
X18509171Y13034287D01*
X18509171Y13034287D02*
X18523457Y13048573D01*
X18523457Y13048573D02*
X18509171Y13062859D01*
X18509171Y13062859D02*
X18494885Y13048573D01*
X18494885Y13048573D02*
X18523457Y13048573D01*
X18523457Y13177144D02*
X18509171Y13191430D01*
X18509171Y13191430D02*
X18494885Y13220001D01*
X18494885Y13220001D02*
X18494885Y13291430D01*
X18494885Y13291430D02*
X18509171Y13320001D01*
X18509171Y13320001D02*
X18523457Y13334287D01*
X18523457Y13334287D02*
X18552028Y13348573D01*
X18552028Y13348573D02*
X18580600Y13348573D01*
X18580600Y13348573D02*
X18623457Y13334287D01*
X18623457Y13334287D02*
X18794885Y13162859D01*
X18794885Y13162859D02*
X18794885Y13348573D01*
X18494885Y13448573D02*
X18494885Y13634287D01*
X18494885Y13634287D02*
X18609171Y13534287D01*
X18609171Y13534287D02*
X18609171Y13577144D01*
X18609171Y13577144D02*
X18623457Y13605715D01*
X18623457Y13605715D02*
X18637742Y13620001D01*
X18637742Y13620001D02*
X18666314Y13634287D01*
X18666314Y13634287D02*
X18737742Y13634287D01*
X18737742Y13634287D02*
X18766314Y13620001D01*
X18766314Y13620001D02*
X18780600Y13605715D01*
X18780600Y13605715D02*
X18794885Y13577144D01*
X18794885Y13577144D02*
X18794885Y13491430D01*
X18794885Y13491430D02*
X18780600Y13462858D01*
X18780600Y13462858D02*
X18766314Y13448573D01*
X18494885Y13820001D02*
X18494885Y13848572D01*
X18494885Y13848572D02*
X18509171Y13877144D01*
X18509171Y13877144D02*
X18523457Y13891429D01*
X18523457Y13891429D02*
X18552028Y13905715D01*
X18552028Y13905715D02*
X18609171Y13920001D01*
X18609171Y13920001D02*
X18680600Y13920001D01*
X18680600Y13920001D02*
X18737742Y13905715D01*
X18737742Y13905715D02*
X18766314Y13891429D01*
X18766314Y13891429D02*
X18780600Y13877144D01*
X18780600Y13877144D02*
X18794885Y13848572D01*
X18794885Y13848572D02*
X18794885Y13820001D01*
X18794885Y13820001D02*
X18780600Y13791429D01*
X18780600Y13791429D02*
X18766314Y13777144D01*
X18766314Y13777144D02*
X18737742Y13762858D01*
X18737742Y13762858D02*
X18680600Y13748572D01*
X18680600Y13748572D02*
X18609171Y13748572D01*
X18609171Y13748572D02*
X18552028Y13762858D01*
X18552028Y13762858D02*
X18523457Y13777144D01*
X18523457Y13777144D02*
X18509171Y13791429D01*
X18509171Y13791429D02*
X18494885Y13820001D01*
X18523457Y14034286D02*
X18509171Y14048572D01*
X18509171Y14048572D02*
X18494885Y14077143D01*
X18494885Y14077143D02*
X18494885Y14148572D01*
X18494885Y14148572D02*
X18509171Y14177143D01*
X18509171Y14177143D02*
X18523457Y14191429D01*
X18523457Y14191429D02*
X18552028Y14205715D01*
X18552028Y14205715D02*
X18580600Y14205715D01*
X18580600Y14205715D02*
X18623457Y14191429D01*
X18623457Y14191429D02*
X18794885Y14020001D01*
X18794885Y14020001D02*
X18794885Y14205715D01*
X18766314Y14505715D02*
X18780600Y14491429D01*
X18780600Y14491429D02*
X18794885Y14448572D01*
X18794885Y14448572D02*
X18794885Y14420000D01*
X18794885Y14420000D02*
X18780600Y14377143D01*
X18780600Y14377143D02*
X18752028Y14348572D01*
X18752028Y14348572D02*
X18723457Y14334286D01*
X18723457Y14334286D02*
X18666314Y14320000D01*
X18666314Y14320000D02*
X18623457Y14320000D01*
X18623457Y14320000D02*
X18566314Y14334286D01*
X18566314Y14334286D02*
X18537742Y14348572D01*
X18537742Y14348572D02*
X18509171Y14377143D01*
X18509171Y14377143D02*
X18494885Y14420000D01*
X18494885Y14420000D02*
X18494885Y14448572D01*
X18494885Y14448572D02*
X18509171Y14491429D01*
X18509171Y14491429D02*
X18523457Y14505715D01*
X18794885Y14634286D02*
X18494885Y14634286D01*
X18494885Y14634286D02*
X18494885Y14705715D01*
X18494885Y14705715D02*
X18509171Y14748572D01*
X18509171Y14748572D02*
X18537742Y14777143D01*
X18537742Y14777143D02*
X18566314Y14791429D01*
X18566314Y14791429D02*
X18623457Y14805715D01*
X18623457Y14805715D02*
X18666314Y14805715D01*
X18666314Y14805715D02*
X18723457Y14791429D01*
X18723457Y14791429D02*
X18752028Y14777143D01*
X18752028Y14777143D02*
X18780600Y14748572D01*
X18780600Y14748572D02*
X18794885Y14705715D01*
X18794885Y14705715D02*
X18794885Y14634286D01*
X18780600Y14920000D02*
X18794885Y14962857D01*
X18794885Y14962857D02*
X18794885Y15034286D01*
X18794885Y15034286D02*
X18780600Y15062857D01*
X18780600Y15062857D02*
X18766314Y15077143D01*
X18766314Y15077143D02*
X18737742Y15091429D01*
X18737742Y15091429D02*
X18709171Y15091429D01*
X18709171Y15091429D02*
X18680600Y15077143D01*
X18680600Y15077143D02*
X18666314Y15062857D01*
X18666314Y15062857D02*
X18652028Y15034286D01*
X18652028Y15034286D02*
X18637742Y14977143D01*
X18637742Y14977143D02*
X18623457Y14948572D01*
X18623457Y14948572D02*
X18609171Y14934286D01*
X18609171Y14934286D02*
X18580600Y14920000D01*
X18580600Y14920000D02*
X18552028Y14920000D01*
X18552028Y14920000D02*
X18523457Y14934286D01*
X18523457Y14934286D02*
X18509171Y14948572D01*
X18509171Y14948572D02*
X18494885Y14977143D01*
X18494885Y14977143D02*
X18494885Y15048572D01*
X18494885Y15048572D02*
X18509171Y15091429D01*
D12*
X19641428Y13895763D02*
X19612857Y13910049D01*
X19612857Y13910049D02*
X19584285Y13938620D01*
X19584285Y13938620D02*
X19541428Y13981478D01*
X19541428Y13981478D02*
X19512857Y13995763D01*
X19512857Y13995763D02*
X19484285Y13995763D01*
X19498571Y13924335D02*
X19470000Y13938620D01*
X19470000Y13938620D02*
X19441428Y13967192D01*
X19441428Y13967192D02*
X19427142Y14024335D01*
X19427142Y14024335D02*
X19427142Y14124335D01*
X19427142Y14124335D02*
X19441428Y14181478D01*
X19441428Y14181478D02*
X19470000Y14210049D01*
X19470000Y14210049D02*
X19498571Y14224335D01*
X19498571Y14224335D02*
X19555714Y14224335D01*
X19555714Y14224335D02*
X19584285Y14210049D01*
X19584285Y14210049D02*
X19612857Y14181478D01*
X19612857Y14181478D02*
X19627142Y14124335D01*
X19627142Y14124335D02*
X19627142Y14024335D01*
X19627142Y14024335D02*
X19612857Y13967192D01*
X19612857Y13967192D02*
X19584285Y13938620D01*
X19584285Y13938620D02*
X19555714Y13924335D01*
X19555714Y13924335D02*
X19498571Y13924335D01*
X19727143Y14224335D02*
X19912857Y14224335D01*
X19912857Y14224335D02*
X19812857Y14110049D01*
X19812857Y14110049D02*
X19855714Y14110049D01*
X19855714Y14110049D02*
X19884286Y14095763D01*
X19884286Y14095763D02*
X19898571Y14081478D01*
X19898571Y14081478D02*
X19912857Y14052906D01*
X19912857Y14052906D02*
X19912857Y13981478D01*
X19912857Y13981478D02*
X19898571Y13952906D01*
X19898571Y13952906D02*
X19884286Y13938620D01*
X19884286Y13938620D02*
X19855714Y13924335D01*
X19855714Y13924335D02*
X19770000Y13924335D01*
X19770000Y13924335D02*
X19741428Y13938620D01*
X19741428Y13938620D02*
X19727143Y13952906D01*
D10*
X13541429Y17863603D02*
X13412857Y17863603D01*
X13412857Y17863603D02*
X13400000Y17735032D01*
X13400000Y17735032D02*
X13412857Y17747889D01*
X13412857Y17747889D02*
X13438572Y17760746D01*
X13438572Y17760746D02*
X13502857Y17760746D01*
X13502857Y17760746D02*
X13528572Y17747889D01*
X13528572Y17747889D02*
X13541429Y17735032D01*
X13541429Y17735032D02*
X13554286Y17709318D01*
X13554286Y17709318D02*
X13554286Y17645032D01*
X13554286Y17645032D02*
X13541429Y17619318D01*
X13541429Y17619318D02*
X13528572Y17606460D01*
X13528572Y17606460D02*
X13502857Y17593603D01*
X13502857Y17593603D02*
X13438572Y17593603D01*
X13438572Y17593603D02*
X13412857Y17606460D01*
X13412857Y17606460D02*
X13400000Y17619318D01*
X13670000Y17619318D02*
X13682857Y17606460D01*
X13682857Y17606460D02*
X13670000Y17593603D01*
X13670000Y17593603D02*
X13657143Y17606460D01*
X13657143Y17606460D02*
X13670000Y17619318D01*
X13670000Y17619318D02*
X13670000Y17593603D01*
X13940000Y17593603D02*
X13785714Y17593603D01*
X13862857Y17593603D02*
X13862857Y17863603D01*
X13862857Y17863603D02*
X13837143Y17825032D01*
X13837143Y17825032D02*
X13811428Y17799318D01*
X13811428Y17799318D02*
X13785714Y17786460D01*
X14055714Y17593603D02*
X14055714Y17863603D01*
X14210000Y17593603D02*
X14094286Y17747889D01*
X14210000Y17863603D02*
X14055714Y17709318D01*
X12630000Y17583603D02*
X12540000Y17712175D01*
X12475714Y17583603D02*
X12475714Y17853603D01*
X12475714Y17853603D02*
X12578571Y17853603D01*
X12578571Y17853603D02*
X12604286Y17840746D01*
X12604286Y17840746D02*
X12617143Y17827889D01*
X12617143Y17827889D02*
X12630000Y17802175D01*
X12630000Y17802175D02*
X12630000Y17763603D01*
X12630000Y17763603D02*
X12617143Y17737889D01*
X12617143Y17737889D02*
X12604286Y17725032D01*
X12604286Y17725032D02*
X12578571Y17712175D01*
X12578571Y17712175D02*
X12475714Y17712175D01*
X12784286Y17737889D02*
X12758571Y17750746D01*
X12758571Y17750746D02*
X12745714Y17763603D01*
X12745714Y17763603D02*
X12732857Y17789318D01*
X12732857Y17789318D02*
X12732857Y17802175D01*
X12732857Y17802175D02*
X12745714Y17827889D01*
X12745714Y17827889D02*
X12758571Y17840746D01*
X12758571Y17840746D02*
X12784286Y17853603D01*
X12784286Y17853603D02*
X12835714Y17853603D01*
X12835714Y17853603D02*
X12861429Y17840746D01*
X12861429Y17840746D02*
X12874286Y17827889D01*
X12874286Y17827889D02*
X12887143Y17802175D01*
X12887143Y17802175D02*
X12887143Y17789318D01*
X12887143Y17789318D02*
X12874286Y17763603D01*
X12874286Y17763603D02*
X12861429Y17750746D01*
X12861429Y17750746D02*
X12835714Y17737889D01*
X12835714Y17737889D02*
X12784286Y17737889D01*
X12784286Y17737889D02*
X12758571Y17725032D01*
X12758571Y17725032D02*
X12745714Y17712175D01*
X12745714Y17712175D02*
X12732857Y17686460D01*
X12732857Y17686460D02*
X12732857Y17635032D01*
X12732857Y17635032D02*
X12745714Y17609318D01*
X12745714Y17609318D02*
X12758571Y17596460D01*
X12758571Y17596460D02*
X12784286Y17583603D01*
X12784286Y17583603D02*
X12835714Y17583603D01*
X12835714Y17583603D02*
X12861429Y17596460D01*
X12861429Y17596460D02*
X12874286Y17609318D01*
X12874286Y17609318D02*
X12887143Y17635032D01*
X12887143Y17635032D02*
X12887143Y17686460D01*
X12887143Y17686460D02*
X12874286Y17712175D01*
X12874286Y17712175D02*
X12861429Y17725032D01*
X12861429Y17725032D02*
X12835714Y17737889D01*
X8971429Y15753603D02*
X8842857Y15753603D01*
X8842857Y15753603D02*
X8830000Y15625032D01*
X8830000Y15625032D02*
X8842857Y15637889D01*
X8842857Y15637889D02*
X8868572Y15650746D01*
X8868572Y15650746D02*
X8932857Y15650746D01*
X8932857Y15650746D02*
X8958572Y15637889D01*
X8958572Y15637889D02*
X8971429Y15625032D01*
X8971429Y15625032D02*
X8984286Y15599318D01*
X8984286Y15599318D02*
X8984286Y15535032D01*
X8984286Y15535032D02*
X8971429Y15509318D01*
X8971429Y15509318D02*
X8958572Y15496460D01*
X8958572Y15496460D02*
X8932857Y15483603D01*
X8932857Y15483603D02*
X8868572Y15483603D01*
X8868572Y15483603D02*
X8842857Y15496460D01*
X8842857Y15496460D02*
X8830000Y15509318D01*
X9100000Y15509318D02*
X9112857Y15496460D01*
X9112857Y15496460D02*
X9100000Y15483603D01*
X9100000Y15483603D02*
X9087143Y15496460D01*
X9087143Y15496460D02*
X9100000Y15509318D01*
X9100000Y15509318D02*
X9100000Y15483603D01*
X9370000Y15483603D02*
X9215714Y15483603D01*
X9292857Y15483603D02*
X9292857Y15753603D01*
X9292857Y15753603D02*
X9267143Y15715032D01*
X9267143Y15715032D02*
X9241428Y15689318D01*
X9241428Y15689318D02*
X9215714Y15676460D01*
X9485714Y15483603D02*
X9485714Y15753603D01*
X9640000Y15483603D02*
X9524286Y15637889D01*
X9640000Y15753603D02*
X9485714Y15599318D01*
X8406397Y15540001D02*
X8277825Y15450001D01*
X8406397Y15385715D02*
X8136397Y15385715D01*
X8136397Y15385715D02*
X8136397Y15488572D01*
X8136397Y15488572D02*
X8149254Y15514287D01*
X8149254Y15514287D02*
X8162111Y15527144D01*
X8162111Y15527144D02*
X8187825Y15540001D01*
X8187825Y15540001D02*
X8226397Y15540001D01*
X8226397Y15540001D02*
X8252111Y15527144D01*
X8252111Y15527144D02*
X8264968Y15514287D01*
X8264968Y15514287D02*
X8277825Y15488572D01*
X8277825Y15488572D02*
X8277825Y15385715D01*
X8162111Y15642858D02*
X8149254Y15655715D01*
X8149254Y15655715D02*
X8136397Y15681429D01*
X8136397Y15681429D02*
X8136397Y15745715D01*
X8136397Y15745715D02*
X8149254Y15771429D01*
X8149254Y15771429D02*
X8162111Y15784287D01*
X8162111Y15784287D02*
X8187825Y15797144D01*
X8187825Y15797144D02*
X8213540Y15797144D01*
X8213540Y15797144D02*
X8252111Y15784287D01*
X8252111Y15784287D02*
X8406397Y15630001D01*
X8406397Y15630001D02*
X8406397Y15797144D01*
X24383571Y6533032D02*
X24422143Y6520175D01*
X24422143Y6520175D02*
X24435000Y6507318D01*
X24435000Y6507318D02*
X24447857Y6481603D01*
X24447857Y6481603D02*
X24447857Y6443032D01*
X24447857Y6443032D02*
X24435000Y6417318D01*
X24435000Y6417318D02*
X24422143Y6404460D01*
X24422143Y6404460D02*
X24396428Y6391603D01*
X24396428Y6391603D02*
X24293571Y6391603D01*
X24293571Y6391603D02*
X24293571Y6661603D01*
X24293571Y6661603D02*
X24383571Y6661603D01*
X24383571Y6661603D02*
X24409286Y6648746D01*
X24409286Y6648746D02*
X24422143Y6635889D01*
X24422143Y6635889D02*
X24435000Y6610175D01*
X24435000Y6610175D02*
X24435000Y6584460D01*
X24435000Y6584460D02*
X24422143Y6558746D01*
X24422143Y6558746D02*
X24409286Y6545889D01*
X24409286Y6545889D02*
X24383571Y6533032D01*
X24383571Y6533032D02*
X24293571Y6533032D01*
X24717857Y6417318D02*
X24705000Y6404460D01*
X24705000Y6404460D02*
X24666428Y6391603D01*
X24666428Y6391603D02*
X24640714Y6391603D01*
X24640714Y6391603D02*
X24602143Y6404460D01*
X24602143Y6404460D02*
X24576428Y6430175D01*
X24576428Y6430175D02*
X24563571Y6455889D01*
X24563571Y6455889D02*
X24550714Y6507318D01*
X24550714Y6507318D02*
X24550714Y6545889D01*
X24550714Y6545889D02*
X24563571Y6597318D01*
X24563571Y6597318D02*
X24576428Y6623032D01*
X24576428Y6623032D02*
X24602143Y6648746D01*
X24602143Y6648746D02*
X24640714Y6661603D01*
X24640714Y6661603D02*
X24666428Y6661603D01*
X24666428Y6661603D02*
X24705000Y6648746D01*
X24705000Y6648746D02*
X24717857Y6635889D01*
X24872143Y6545889D02*
X24846428Y6558746D01*
X24846428Y6558746D02*
X24833571Y6571603D01*
X24833571Y6571603D02*
X24820714Y6597318D01*
X24820714Y6597318D02*
X24820714Y6610175D01*
X24820714Y6610175D02*
X24833571Y6635889D01*
X24833571Y6635889D02*
X24846428Y6648746D01*
X24846428Y6648746D02*
X24872143Y6661603D01*
X24872143Y6661603D02*
X24923571Y6661603D01*
X24923571Y6661603D02*
X24949286Y6648746D01*
X24949286Y6648746D02*
X24962143Y6635889D01*
X24962143Y6635889D02*
X24975000Y6610175D01*
X24975000Y6610175D02*
X24975000Y6597318D01*
X24975000Y6597318D02*
X24962143Y6571603D01*
X24962143Y6571603D02*
X24949286Y6558746D01*
X24949286Y6558746D02*
X24923571Y6545889D01*
X24923571Y6545889D02*
X24872143Y6545889D01*
X24872143Y6545889D02*
X24846428Y6533032D01*
X24846428Y6533032D02*
X24833571Y6520175D01*
X24833571Y6520175D02*
X24820714Y6494460D01*
X24820714Y6494460D02*
X24820714Y6443032D01*
X24820714Y6443032D02*
X24833571Y6417318D01*
X24833571Y6417318D02*
X24846428Y6404460D01*
X24846428Y6404460D02*
X24872143Y6391603D01*
X24872143Y6391603D02*
X24923571Y6391603D01*
X24923571Y6391603D02*
X24949286Y6404460D01*
X24949286Y6404460D02*
X24962143Y6417318D01*
X24962143Y6417318D02*
X24975000Y6443032D01*
X24975000Y6443032D02*
X24975000Y6494460D01*
X24975000Y6494460D02*
X24962143Y6520175D01*
X24962143Y6520175D02*
X24949286Y6533032D01*
X24949286Y6533032D02*
X24923571Y6545889D01*
X25232143Y6391603D02*
X25077857Y6391603D01*
X25155000Y6391603D02*
X25155000Y6661603D01*
X25155000Y6661603D02*
X25129286Y6623032D01*
X25129286Y6623032D02*
X25103571Y6597318D01*
X25103571Y6597318D02*
X25077857Y6584460D01*
X25322143Y6661603D02*
X25502143Y6661603D01*
X25502143Y6661603D02*
X25386429Y6391603D01*
X24849285Y8145889D02*
X24823571Y8158746D01*
X24823571Y8158746D02*
X24797857Y8184460D01*
X24797857Y8184460D02*
X24759285Y8223032D01*
X24759285Y8223032D02*
X24733571Y8235889D01*
X24733571Y8235889D02*
X24707857Y8235889D01*
X24720714Y8171603D02*
X24695000Y8184460D01*
X24695000Y8184460D02*
X24669285Y8210175D01*
X24669285Y8210175D02*
X24656428Y8261603D01*
X24656428Y8261603D02*
X24656428Y8351603D01*
X24656428Y8351603D02*
X24669285Y8403032D01*
X24669285Y8403032D02*
X24695000Y8428746D01*
X24695000Y8428746D02*
X24720714Y8441603D01*
X24720714Y8441603D02*
X24772142Y8441603D01*
X24772142Y8441603D02*
X24797857Y8428746D01*
X24797857Y8428746D02*
X24823571Y8403032D01*
X24823571Y8403032D02*
X24836428Y8351603D01*
X24836428Y8351603D02*
X24836428Y8261603D01*
X24836428Y8261603D02*
X24823571Y8210175D01*
X24823571Y8210175D02*
X24797857Y8184460D01*
X24797857Y8184460D02*
X24772142Y8171603D01*
X24772142Y8171603D02*
X24720714Y8171603D01*
X24939285Y8415889D02*
X24952142Y8428746D01*
X24952142Y8428746D02*
X24977857Y8441603D01*
X24977857Y8441603D02*
X25042142Y8441603D01*
X25042142Y8441603D02*
X25067857Y8428746D01*
X25067857Y8428746D02*
X25080714Y8415889D01*
X25080714Y8415889D02*
X25093571Y8390175D01*
X25093571Y8390175D02*
X25093571Y8364460D01*
X25093571Y8364460D02*
X25080714Y8325889D01*
X25080714Y8325889D02*
X24926428Y8171603D01*
X24926428Y8171603D02*
X25093571Y8171603D01*
X7943571Y3646460D02*
X7982143Y3633603D01*
X7982143Y3633603D02*
X8046428Y3633603D01*
X8046428Y3633603D02*
X8072143Y3646460D01*
X8072143Y3646460D02*
X8085000Y3659318D01*
X8085000Y3659318D02*
X8097857Y3685032D01*
X8097857Y3685032D02*
X8097857Y3710746D01*
X8097857Y3710746D02*
X8085000Y3736460D01*
X8085000Y3736460D02*
X8072143Y3749318D01*
X8072143Y3749318D02*
X8046428Y3762175D01*
X8046428Y3762175D02*
X7995000Y3775032D01*
X7995000Y3775032D02*
X7969285Y3787889D01*
X7969285Y3787889D02*
X7956428Y3800746D01*
X7956428Y3800746D02*
X7943571Y3826460D01*
X7943571Y3826460D02*
X7943571Y3852175D01*
X7943571Y3852175D02*
X7956428Y3877889D01*
X7956428Y3877889D02*
X7969285Y3890746D01*
X7969285Y3890746D02*
X7995000Y3903603D01*
X7995000Y3903603D02*
X8059285Y3903603D01*
X8059285Y3903603D02*
X8097857Y3890746D01*
X8213571Y3633603D02*
X8213571Y3903603D01*
X8213571Y3903603D02*
X8316428Y3903603D01*
X8316428Y3903603D02*
X8342143Y3890746D01*
X8342143Y3890746D02*
X8355000Y3877889D01*
X8355000Y3877889D02*
X8367857Y3852175D01*
X8367857Y3852175D02*
X8367857Y3813603D01*
X8367857Y3813603D02*
X8355000Y3787889D01*
X8355000Y3787889D02*
X8342143Y3775032D01*
X8342143Y3775032D02*
X8316428Y3762175D01*
X8316428Y3762175D02*
X8213571Y3762175D01*
X8535000Y3903603D02*
X8560714Y3903603D01*
X8560714Y3903603D02*
X8586428Y3890746D01*
X8586428Y3890746D02*
X8599286Y3877889D01*
X8599286Y3877889D02*
X8612143Y3852175D01*
X8612143Y3852175D02*
X8625000Y3800746D01*
X8625000Y3800746D02*
X8625000Y3736460D01*
X8625000Y3736460D02*
X8612143Y3685032D01*
X8612143Y3685032D02*
X8599286Y3659318D01*
X8599286Y3659318D02*
X8586428Y3646460D01*
X8586428Y3646460D02*
X8560714Y3633603D01*
X8560714Y3633603D02*
X8535000Y3633603D01*
X8535000Y3633603D02*
X8509286Y3646460D01*
X8509286Y3646460D02*
X8496428Y3659318D01*
X8496428Y3659318D02*
X8483571Y3685032D01*
X8483571Y3685032D02*
X8470714Y3736460D01*
X8470714Y3736460D02*
X8470714Y3800746D01*
X8470714Y3800746D02*
X8483571Y3852175D01*
X8483571Y3852175D02*
X8496428Y3877889D01*
X8496428Y3877889D02*
X8509286Y3890746D01*
X8509286Y3890746D02*
X8535000Y3903603D01*
X8869286Y3903603D02*
X8740714Y3903603D01*
X8740714Y3903603D02*
X8727857Y3775032D01*
X8727857Y3775032D02*
X8740714Y3787889D01*
X8740714Y3787889D02*
X8766429Y3800746D01*
X8766429Y3800746D02*
X8830714Y3800746D01*
X8830714Y3800746D02*
X8856429Y3787889D01*
X8856429Y3787889D02*
X8869286Y3775032D01*
X8869286Y3775032D02*
X8882143Y3749318D01*
X8882143Y3749318D02*
X8882143Y3685032D01*
X8882143Y3685032D02*
X8869286Y3659318D01*
X8869286Y3659318D02*
X8856429Y3646460D01*
X8856429Y3646460D02*
X8830714Y3633603D01*
X8830714Y3633603D02*
X8766429Y3633603D01*
X8766429Y3633603D02*
X8740714Y3646460D01*
X8740714Y3646460D02*
X8727857Y3659318D01*
X9049286Y3903603D02*
X9075000Y3903603D01*
X9075000Y3903603D02*
X9100714Y3890746D01*
X9100714Y3890746D02*
X9113572Y3877889D01*
X9113572Y3877889D02*
X9126429Y3852175D01*
X9126429Y3852175D02*
X9139286Y3800746D01*
X9139286Y3800746D02*
X9139286Y3736460D01*
X9139286Y3736460D02*
X9126429Y3685032D01*
X9126429Y3685032D02*
X9113572Y3659318D01*
X9113572Y3659318D02*
X9100714Y3646460D01*
X9100714Y3646460D02*
X9075000Y3633603D01*
X9075000Y3633603D02*
X9049286Y3633603D01*
X9049286Y3633603D02*
X9023572Y3646460D01*
X9023572Y3646460D02*
X9010714Y3659318D01*
X9010714Y3659318D02*
X8997857Y3685032D01*
X8997857Y3685032D02*
X8985000Y3736460D01*
X8985000Y3736460D02*
X8985000Y3800746D01*
X8985000Y3800746D02*
X8997857Y3852175D01*
X8997857Y3852175D02*
X9010714Y3877889D01*
X9010714Y3877889D02*
X9023572Y3890746D01*
X9023572Y3890746D02*
X9049286Y3903603D01*
X9229286Y3903603D02*
X9396429Y3903603D01*
X9396429Y3903603D02*
X9306429Y3800746D01*
X9306429Y3800746D02*
X9345000Y3800746D01*
X9345000Y3800746D02*
X9370715Y3787889D01*
X9370715Y3787889D02*
X9383572Y3775032D01*
X9383572Y3775032D02*
X9396429Y3749318D01*
X9396429Y3749318D02*
X9396429Y3685032D01*
X9396429Y3685032D02*
X9383572Y3659318D01*
X9383572Y3659318D02*
X9370715Y3646460D01*
X9370715Y3646460D02*
X9345000Y3633603D01*
X9345000Y3633603D02*
X9267857Y3633603D01*
X9267857Y3633603D02*
X9242143Y3646460D01*
X9242143Y3646460D02*
X9229286Y3659318D01*
X9602143Y3775032D02*
X9640715Y3762175D01*
X9640715Y3762175D02*
X9653572Y3749318D01*
X9653572Y3749318D02*
X9666429Y3723603D01*
X9666429Y3723603D02*
X9666429Y3685032D01*
X9666429Y3685032D02*
X9653572Y3659318D01*
X9653572Y3659318D02*
X9640715Y3646460D01*
X9640715Y3646460D02*
X9615000Y3633603D01*
X9615000Y3633603D02*
X9512143Y3633603D01*
X9512143Y3633603D02*
X9512143Y3903603D01*
X9512143Y3903603D02*
X9602143Y3903603D01*
X9602143Y3903603D02*
X9627858Y3890746D01*
X9627858Y3890746D02*
X9640715Y3877889D01*
X9640715Y3877889D02*
X9653572Y3852175D01*
X9653572Y3852175D02*
X9653572Y3826460D01*
X9653572Y3826460D02*
X9640715Y3800746D01*
X9640715Y3800746D02*
X9627858Y3787889D01*
X9627858Y3787889D02*
X9602143Y3775032D01*
X9602143Y3775032D02*
X9512143Y3775032D01*
X9769286Y3710746D02*
X9897858Y3710746D01*
X9743572Y3633603D02*
X9833572Y3903603D01*
X9833572Y3903603D02*
X9923572Y3633603D01*
X10013572Y3633603D02*
X10013572Y3903603D01*
X10013572Y3775032D02*
X10167858Y3775032D01*
X10167858Y3633603D02*
X10167858Y3903603D01*
X10257858Y3903603D02*
X10412144Y3903603D01*
X10335001Y3633603D02*
X10335001Y3903603D01*
X8975714Y2583603D02*
X8975714Y2853603D01*
X8975714Y2853603D02*
X9040000Y2853603D01*
X9040000Y2853603D02*
X9078571Y2840746D01*
X9078571Y2840746D02*
X9104286Y2815032D01*
X9104286Y2815032D02*
X9117143Y2789318D01*
X9117143Y2789318D02*
X9130000Y2737889D01*
X9130000Y2737889D02*
X9130000Y2699318D01*
X9130000Y2699318D02*
X9117143Y2647889D01*
X9117143Y2647889D02*
X9104286Y2622175D01*
X9104286Y2622175D02*
X9078571Y2596460D01*
X9078571Y2596460D02*
X9040000Y2583603D01*
X9040000Y2583603D02*
X8975714Y2583603D01*
X9220000Y2853603D02*
X9387143Y2853603D01*
X9387143Y2853603D02*
X9297143Y2750746D01*
X9297143Y2750746D02*
X9335714Y2750746D01*
X9335714Y2750746D02*
X9361429Y2737889D01*
X9361429Y2737889D02*
X9374286Y2725032D01*
X9374286Y2725032D02*
X9387143Y2699318D01*
X9387143Y2699318D02*
X9387143Y2635032D01*
X9387143Y2635032D02*
X9374286Y2609318D01*
X9374286Y2609318D02*
X9361429Y2596460D01*
X9361429Y2596460D02*
X9335714Y2583603D01*
X9335714Y2583603D02*
X9258571Y2583603D01*
X9258571Y2583603D02*
X9232857Y2596460D01*
X9232857Y2596460D02*
X9220000Y2609318D01*
X18822142Y5617889D02*
X18834999Y5630746D01*
X18834999Y5630746D02*
X18860714Y5643603D01*
X18860714Y5643603D02*
X18924999Y5643603D01*
X18924999Y5643603D02*
X18950714Y5630746D01*
X18950714Y5630746D02*
X18963571Y5617889D01*
X18963571Y5617889D02*
X18976428Y5592175D01*
X18976428Y5592175D02*
X18976428Y5566460D01*
X18976428Y5566460D02*
X18963571Y5527889D01*
X18963571Y5527889D02*
X18809285Y5373603D01*
X18809285Y5373603D02*
X18976428Y5373603D01*
X19092142Y5399318D02*
X19104999Y5386460D01*
X19104999Y5386460D02*
X19092142Y5373603D01*
X19092142Y5373603D02*
X19079285Y5386460D01*
X19079285Y5386460D02*
X19092142Y5399318D01*
X19092142Y5399318D02*
X19092142Y5373603D01*
X19207856Y5617889D02*
X19220713Y5630746D01*
X19220713Y5630746D02*
X19246428Y5643603D01*
X19246428Y5643603D02*
X19310713Y5643603D01*
X19310713Y5643603D02*
X19336428Y5630746D01*
X19336428Y5630746D02*
X19349285Y5617889D01*
X19349285Y5617889D02*
X19362142Y5592175D01*
X19362142Y5592175D02*
X19362142Y5566460D01*
X19362142Y5566460D02*
X19349285Y5527889D01*
X19349285Y5527889D02*
X19194999Y5373603D01*
X19194999Y5373603D02*
X19362142Y5373603D01*
X19593571Y5553603D02*
X19593571Y5373603D01*
X19477856Y5553603D02*
X19477856Y5412175D01*
X19477856Y5412175D02*
X19490713Y5386460D01*
X19490713Y5386460D02*
X19516428Y5373603D01*
X19516428Y5373603D02*
X19554999Y5373603D01*
X19554999Y5373603D02*
X19580713Y5386460D01*
X19580713Y5386460D02*
X19593571Y5399318D01*
X19812142Y5515032D02*
X19722142Y5515032D01*
X19722142Y5373603D02*
X19722142Y5643603D01*
X19722142Y5643603D02*
X19850714Y5643603D01*
X19270000Y5859318D02*
X19257143Y5846460D01*
X19257143Y5846460D02*
X19218571Y5833603D01*
X19218571Y5833603D02*
X19192857Y5833603D01*
X19192857Y5833603D02*
X19154286Y5846460D01*
X19154286Y5846460D02*
X19128571Y5872175D01*
X19128571Y5872175D02*
X19115714Y5897889D01*
X19115714Y5897889D02*
X19102857Y5949318D01*
X19102857Y5949318D02*
X19102857Y5987889D01*
X19102857Y5987889D02*
X19115714Y6039318D01*
X19115714Y6039318D02*
X19128571Y6065032D01*
X19128571Y6065032D02*
X19154286Y6090746D01*
X19154286Y6090746D02*
X19192857Y6103603D01*
X19192857Y6103603D02*
X19218571Y6103603D01*
X19218571Y6103603D02*
X19257143Y6090746D01*
X19257143Y6090746D02*
X19270000Y6077889D01*
X19514286Y6103603D02*
X19385714Y6103603D01*
X19385714Y6103603D02*
X19372857Y5975032D01*
X19372857Y5975032D02*
X19385714Y5987889D01*
X19385714Y5987889D02*
X19411429Y6000746D01*
X19411429Y6000746D02*
X19475714Y6000746D01*
X19475714Y6000746D02*
X19501429Y5987889D01*
X19501429Y5987889D02*
X19514286Y5975032D01*
X19514286Y5975032D02*
X19527143Y5949318D01*
X19527143Y5949318D02*
X19527143Y5885032D01*
X19527143Y5885032D02*
X19514286Y5859318D01*
X19514286Y5859318D02*
X19501429Y5846460D01*
X19501429Y5846460D02*
X19475714Y5833603D01*
X19475714Y5833603D02*
X19411429Y5833603D01*
X19411429Y5833603D02*
X19385714Y5846460D01*
X19385714Y5846460D02*
X19372857Y5859318D01*
X35015000Y3890032D02*
X35105000Y3890032D01*
X35143572Y3748603D02*
X35015000Y3748603D01*
X35015000Y3748603D02*
X35015000Y4018603D01*
X35015000Y4018603D02*
X35143572Y4018603D01*
X35246429Y3761460D02*
X35285001Y3748603D01*
X35285001Y3748603D02*
X35349286Y3748603D01*
X35349286Y3748603D02*
X35375001Y3761460D01*
X35375001Y3761460D02*
X35387858Y3774318D01*
X35387858Y3774318D02*
X35400715Y3800032D01*
X35400715Y3800032D02*
X35400715Y3825746D01*
X35400715Y3825746D02*
X35387858Y3851460D01*
X35387858Y3851460D02*
X35375001Y3864318D01*
X35375001Y3864318D02*
X35349286Y3877175D01*
X35349286Y3877175D02*
X35297858Y3890032D01*
X35297858Y3890032D02*
X35272143Y3902889D01*
X35272143Y3902889D02*
X35259286Y3915746D01*
X35259286Y3915746D02*
X35246429Y3941460D01*
X35246429Y3941460D02*
X35246429Y3967175D01*
X35246429Y3967175D02*
X35259286Y3992889D01*
X35259286Y3992889D02*
X35272143Y4005746D01*
X35272143Y4005746D02*
X35297858Y4018603D01*
X35297858Y4018603D02*
X35362143Y4018603D01*
X35362143Y4018603D02*
X35400715Y4005746D01*
X35516429Y3748603D02*
X35516429Y4018603D01*
X35516429Y4018603D02*
X35619286Y4018603D01*
X35619286Y4018603D02*
X35645001Y4005746D01*
X35645001Y4005746D02*
X35657858Y3992889D01*
X35657858Y3992889D02*
X35670715Y3967175D01*
X35670715Y3967175D02*
X35670715Y3928603D01*
X35670715Y3928603D02*
X35657858Y3902889D01*
X35657858Y3902889D02*
X35645001Y3890032D01*
X35645001Y3890032D02*
X35619286Y3877175D01*
X35619286Y3877175D02*
X35516429Y3877175D01*
X35722144Y3722889D02*
X35927858Y3722889D01*
X36082143Y3890032D02*
X36120715Y3877175D01*
X36120715Y3877175D02*
X36133572Y3864318D01*
X36133572Y3864318D02*
X36146429Y3838603D01*
X36146429Y3838603D02*
X36146429Y3800032D01*
X36146429Y3800032D02*
X36133572Y3774318D01*
X36133572Y3774318D02*
X36120715Y3761460D01*
X36120715Y3761460D02*
X36095000Y3748603D01*
X36095000Y3748603D02*
X35992143Y3748603D01*
X35992143Y3748603D02*
X35992143Y4018603D01*
X35992143Y4018603D02*
X36082143Y4018603D01*
X36082143Y4018603D02*
X36107858Y4005746D01*
X36107858Y4005746D02*
X36120715Y3992889D01*
X36120715Y3992889D02*
X36133572Y3967175D01*
X36133572Y3967175D02*
X36133572Y3941460D01*
X36133572Y3941460D02*
X36120715Y3915746D01*
X36120715Y3915746D02*
X36107858Y3902889D01*
X36107858Y3902889D02*
X36082143Y3890032D01*
X36082143Y3890032D02*
X35992143Y3890032D01*
X36313572Y4018603D02*
X36365000Y4018603D01*
X36365000Y4018603D02*
X36390715Y4005746D01*
X36390715Y4005746D02*
X36416429Y3980032D01*
X36416429Y3980032D02*
X36429286Y3928603D01*
X36429286Y3928603D02*
X36429286Y3838603D01*
X36429286Y3838603D02*
X36416429Y3787175D01*
X36416429Y3787175D02*
X36390715Y3761460D01*
X36390715Y3761460D02*
X36365000Y3748603D01*
X36365000Y3748603D02*
X36313572Y3748603D01*
X36313572Y3748603D02*
X36287858Y3761460D01*
X36287858Y3761460D02*
X36262143Y3787175D01*
X36262143Y3787175D02*
X36249286Y3838603D01*
X36249286Y3838603D02*
X36249286Y3928603D01*
X36249286Y3928603D02*
X36262143Y3980032D01*
X36262143Y3980032D02*
X36287858Y4005746D01*
X36287858Y4005746D02*
X36313572Y4018603D01*
X36596429Y4018603D02*
X36647857Y4018603D01*
X36647857Y4018603D02*
X36673572Y4005746D01*
X36673572Y4005746D02*
X36699286Y3980032D01*
X36699286Y3980032D02*
X36712143Y3928603D01*
X36712143Y3928603D02*
X36712143Y3838603D01*
X36712143Y3838603D02*
X36699286Y3787175D01*
X36699286Y3787175D02*
X36673572Y3761460D01*
X36673572Y3761460D02*
X36647857Y3748603D01*
X36647857Y3748603D02*
X36596429Y3748603D01*
X36596429Y3748603D02*
X36570715Y3761460D01*
X36570715Y3761460D02*
X36545000Y3787175D01*
X36545000Y3787175D02*
X36532143Y3838603D01*
X36532143Y3838603D02*
X36532143Y3928603D01*
X36532143Y3928603D02*
X36545000Y3980032D01*
X36545000Y3980032D02*
X36570715Y4005746D01*
X36570715Y4005746D02*
X36596429Y4018603D01*
X36789286Y4018603D02*
X36943572Y4018603D01*
X36866429Y3748603D02*
X36866429Y4018603D01*
X35575835Y1929410D02*
X35614407Y1916553D01*
X35614407Y1916553D02*
X35678692Y1916553D01*
X35678692Y1916553D02*
X35704407Y1929410D01*
X35704407Y1929410D02*
X35717264Y1942268D01*
X35717264Y1942268D02*
X35730121Y1967982D01*
X35730121Y1967982D02*
X35730121Y1993696D01*
X35730121Y1993696D02*
X35717264Y2019410D01*
X35717264Y2019410D02*
X35704407Y2032268D01*
X35704407Y2032268D02*
X35678692Y2045125D01*
X35678692Y2045125D02*
X35627264Y2057982D01*
X35627264Y2057982D02*
X35601549Y2070839D01*
X35601549Y2070839D02*
X35588692Y2083696D01*
X35588692Y2083696D02*
X35575835Y2109410D01*
X35575835Y2109410D02*
X35575835Y2135125D01*
X35575835Y2135125D02*
X35588692Y2160839D01*
X35588692Y2160839D02*
X35601549Y2173696D01*
X35601549Y2173696D02*
X35627264Y2186553D01*
X35627264Y2186553D02*
X35691549Y2186553D01*
X35691549Y2186553D02*
X35730121Y2173696D01*
X35820121Y2186553D02*
X35884407Y1916553D01*
X35884407Y1916553D02*
X35935835Y2109410D01*
X35935835Y2109410D02*
X35987264Y1916553D01*
X35987264Y1916553D02*
X36051550Y2186553D01*
X36141549Y2160839D02*
X36154406Y2173696D01*
X36154406Y2173696D02*
X36180121Y2186553D01*
X36180121Y2186553D02*
X36244406Y2186553D01*
X36244406Y2186553D02*
X36270121Y2173696D01*
X36270121Y2173696D02*
X36282978Y2160839D01*
X36282978Y2160839D02*
X36295835Y2135125D01*
X36295835Y2135125D02*
X36295835Y2109410D01*
X36295835Y2109410D02*
X36282978Y2070839D01*
X36282978Y2070839D02*
X36128692Y1916553D01*
X36128692Y1916553D02*
X36295835Y1916553D01*
X15435714Y2113603D02*
X15435714Y1933603D01*
X15371428Y2216460D02*
X15307142Y2023603D01*
X15307142Y2023603D02*
X15474285Y2023603D01*
X15577142Y1959318D02*
X15589999Y1946460D01*
X15589999Y1946460D02*
X15577142Y1933603D01*
X15577142Y1933603D02*
X15564285Y1946460D01*
X15564285Y1946460D02*
X15577142Y1959318D01*
X15577142Y1959318D02*
X15577142Y1933603D01*
X15679999Y2203603D02*
X15859999Y2203603D01*
X15859999Y2203603D02*
X15744285Y1933603D01*
X16078571Y2113603D02*
X16078571Y1933603D01*
X15962856Y2113603D02*
X15962856Y1972175D01*
X15962856Y1972175D02*
X15975713Y1946460D01*
X15975713Y1946460D02*
X16001428Y1933603D01*
X16001428Y1933603D02*
X16039999Y1933603D01*
X16039999Y1933603D02*
X16065713Y1946460D01*
X16065713Y1946460D02*
X16078571Y1959318D01*
X16297142Y2075032D02*
X16207142Y2075032D01*
X16207142Y1933603D02*
X16207142Y2203603D01*
X16207142Y2203603D02*
X16335714Y2203603D01*
X16890682Y2020001D02*
X16903540Y2007144D01*
X16903540Y2007144D02*
X16916397Y1968572D01*
X16916397Y1968572D02*
X16916397Y1942858D01*
X16916397Y1942858D02*
X16903540Y1904287D01*
X16903540Y1904287D02*
X16877825Y1878572D01*
X16877825Y1878572D02*
X16852111Y1865715D01*
X16852111Y1865715D02*
X16800682Y1852858D01*
X16800682Y1852858D02*
X16762111Y1852858D01*
X16762111Y1852858D02*
X16710682Y1865715D01*
X16710682Y1865715D02*
X16684968Y1878572D01*
X16684968Y1878572D02*
X16659254Y1904287D01*
X16659254Y1904287D02*
X16646397Y1942858D01*
X16646397Y1942858D02*
X16646397Y1968572D01*
X16646397Y1968572D02*
X16659254Y2007144D01*
X16659254Y2007144D02*
X16672111Y2020001D01*
X16646397Y2110001D02*
X16646397Y2277144D01*
X16646397Y2277144D02*
X16749254Y2187144D01*
X16749254Y2187144D02*
X16749254Y2225715D01*
X16749254Y2225715D02*
X16762111Y2251429D01*
X16762111Y2251429D02*
X16774968Y2264287D01*
X16774968Y2264287D02*
X16800682Y2277144D01*
X16800682Y2277144D02*
X16864968Y2277144D01*
X16864968Y2277144D02*
X16890682Y2264287D01*
X16890682Y2264287D02*
X16903540Y2251429D01*
X16903540Y2251429D02*
X16916397Y2225715D01*
X16916397Y2225715D02*
X16916397Y2148572D01*
X16916397Y2148572D02*
X16903540Y2122858D01*
X16903540Y2122858D02*
X16890682Y2110001D01*
X413570Y9853603D02*
X413570Y9635032D01*
X413570Y9635032D02*
X426427Y9609318D01*
X426427Y9609318D02*
X439285Y9596460D01*
X439285Y9596460D02*
X464999Y9583603D01*
X464999Y9583603D02*
X516427Y9583603D01*
X516427Y9583603D02*
X542142Y9596460D01*
X542142Y9596460D02*
X554999Y9609318D01*
X554999Y9609318D02*
X567856Y9635032D01*
X567856Y9635032D02*
X567856Y9853603D01*
X683570Y9596460D02*
X722142Y9583603D01*
X722142Y9583603D02*
X786427Y9583603D01*
X786427Y9583603D02*
X812142Y9596460D01*
X812142Y9596460D02*
X824999Y9609318D01*
X824999Y9609318D02*
X837856Y9635032D01*
X837856Y9635032D02*
X837856Y9660746D01*
X837856Y9660746D02*
X824999Y9686460D01*
X824999Y9686460D02*
X812142Y9699318D01*
X812142Y9699318D02*
X786427Y9712175D01*
X786427Y9712175D02*
X734999Y9725032D01*
X734999Y9725032D02*
X709284Y9737889D01*
X709284Y9737889D02*
X696427Y9750746D01*
X696427Y9750746D02*
X683570Y9776460D01*
X683570Y9776460D02*
X683570Y9802175D01*
X683570Y9802175D02*
X696427Y9827889D01*
X696427Y9827889D02*
X709284Y9840746D01*
X709284Y9840746D02*
X734999Y9853603D01*
X734999Y9853603D02*
X799284Y9853603D01*
X799284Y9853603D02*
X837856Y9840746D01*
X1043570Y9725032D02*
X1082142Y9712175D01*
X1082142Y9712175D02*
X1094999Y9699318D01*
X1094999Y9699318D02*
X1107856Y9673603D01*
X1107856Y9673603D02*
X1107856Y9635032D01*
X1107856Y9635032D02*
X1094999Y9609318D01*
X1094999Y9609318D02*
X1082142Y9596460D01*
X1082142Y9596460D02*
X1056427Y9583603D01*
X1056427Y9583603D02*
X953570Y9583603D01*
X953570Y9583603D02*
X953570Y9853603D01*
X953570Y9853603D02*
X1043570Y9853603D01*
X1043570Y9853603D02*
X1069285Y9840746D01*
X1069285Y9840746D02*
X1082142Y9827889D01*
X1082142Y9827889D02*
X1094999Y9802175D01*
X1094999Y9802175D02*
X1094999Y9776460D01*
X1094999Y9776460D02*
X1082142Y9750746D01*
X1082142Y9750746D02*
X1069285Y9737889D01*
X1069285Y9737889D02*
X1043570Y9725032D01*
X1043570Y9725032D02*
X953570Y9725032D01*
X1159285Y9557889D02*
X1364999Y9557889D01*
X1583570Y9609318D02*
X1570713Y9596460D01*
X1570713Y9596460D02*
X1532141Y9583603D01*
X1532141Y9583603D02*
X1506427Y9583603D01*
X1506427Y9583603D02*
X1467856Y9596460D01*
X1467856Y9596460D02*
X1442141Y9622175D01*
X1442141Y9622175D02*
X1429284Y9647889D01*
X1429284Y9647889D02*
X1416427Y9699318D01*
X1416427Y9699318D02*
X1416427Y9737889D01*
X1416427Y9737889D02*
X1429284Y9789318D01*
X1429284Y9789318D02*
X1442141Y9815032D01*
X1442141Y9815032D02*
X1467856Y9840746D01*
X1467856Y9840746D02*
X1506427Y9853603D01*
X1506427Y9853603D02*
X1532141Y9853603D01*
X1532141Y9853603D02*
X1570713Y9840746D01*
X1570713Y9840746D02*
X1583570Y9827889D01*
X1634999Y9557889D02*
X1840713Y9557889D01*
X2059284Y9583603D02*
X1969284Y9712175D01*
X1904998Y9583603D02*
X1904998Y9853603D01*
X1904998Y9853603D02*
X2007855Y9853603D01*
X2007855Y9853603D02*
X2033570Y9840746D01*
X2033570Y9840746D02*
X2046427Y9827889D01*
X2046427Y9827889D02*
X2059284Y9802175D01*
X2059284Y9802175D02*
X2059284Y9763603D01*
X2059284Y9763603D02*
X2046427Y9737889D01*
X2046427Y9737889D02*
X2033570Y9725032D01*
X2033570Y9725032D02*
X2007855Y9712175D01*
X2007855Y9712175D02*
X1904998Y9712175D01*
X2277855Y9596460D02*
X2252141Y9583603D01*
X2252141Y9583603D02*
X2200713Y9583603D01*
X2200713Y9583603D02*
X2174998Y9596460D01*
X2174998Y9596460D02*
X2162141Y9622175D01*
X2162141Y9622175D02*
X2162141Y9725032D01*
X2162141Y9725032D02*
X2174998Y9750746D01*
X2174998Y9750746D02*
X2200713Y9763603D01*
X2200713Y9763603D02*
X2252141Y9763603D01*
X2252141Y9763603D02*
X2277855Y9750746D01*
X2277855Y9750746D02*
X2290713Y9725032D01*
X2290713Y9725032D02*
X2290713Y9699318D01*
X2290713Y9699318D02*
X2162141Y9673603D01*
X2522142Y9596460D02*
X2496427Y9583603D01*
X2496427Y9583603D02*
X2444999Y9583603D01*
X2444999Y9583603D02*
X2419284Y9596460D01*
X2419284Y9596460D02*
X2406427Y9609318D01*
X2406427Y9609318D02*
X2393570Y9635032D01*
X2393570Y9635032D02*
X2393570Y9712175D01*
X2393570Y9712175D02*
X2406427Y9737889D01*
X2406427Y9737889D02*
X2419284Y9750746D01*
X2419284Y9750746D02*
X2444999Y9763603D01*
X2444999Y9763603D02*
X2496427Y9763603D01*
X2496427Y9763603D02*
X2522142Y9750746D01*
X2740713Y9596460D02*
X2714999Y9583603D01*
X2714999Y9583603D02*
X2663571Y9583603D01*
X2663571Y9583603D02*
X2637856Y9596460D01*
X2637856Y9596460D02*
X2624999Y9622175D01*
X2624999Y9622175D02*
X2624999Y9725032D01*
X2624999Y9725032D02*
X2637856Y9750746D01*
X2637856Y9750746D02*
X2663571Y9763603D01*
X2663571Y9763603D02*
X2714999Y9763603D01*
X2714999Y9763603D02*
X2740713Y9750746D01*
X2740713Y9750746D02*
X2753571Y9725032D01*
X2753571Y9725032D02*
X2753571Y9699318D01*
X2753571Y9699318D02*
X2624999Y9673603D01*
X2869285Y9763603D02*
X2869285Y9493603D01*
X2869285Y9750746D02*
X2895000Y9763603D01*
X2895000Y9763603D02*
X2946428Y9763603D01*
X2946428Y9763603D02*
X2972142Y9750746D01*
X2972142Y9750746D02*
X2985000Y9737889D01*
X2985000Y9737889D02*
X2997857Y9712175D01*
X2997857Y9712175D02*
X2997857Y9635032D01*
X2997857Y9635032D02*
X2985000Y9609318D01*
X2985000Y9609318D02*
X2972142Y9596460D01*
X2972142Y9596460D02*
X2946428Y9583603D01*
X2946428Y9583603D02*
X2895000Y9583603D01*
X2895000Y9583603D02*
X2869285Y9596460D01*
X3075000Y9763603D02*
X3177857Y9763603D01*
X3113571Y9853603D02*
X3113571Y9622175D01*
X3113571Y9622175D02*
X3126428Y9596460D01*
X3126428Y9596460D02*
X3152143Y9583603D01*
X3152143Y9583603D02*
X3177857Y9583603D01*
X3383572Y9583603D02*
X3383572Y9725032D01*
X3383572Y9725032D02*
X3370714Y9750746D01*
X3370714Y9750746D02*
X3345000Y9763603D01*
X3345000Y9763603D02*
X3293572Y9763603D01*
X3293572Y9763603D02*
X3267857Y9750746D01*
X3383572Y9596460D02*
X3357857Y9583603D01*
X3357857Y9583603D02*
X3293572Y9583603D01*
X3293572Y9583603D02*
X3267857Y9596460D01*
X3267857Y9596460D02*
X3255000Y9622175D01*
X3255000Y9622175D02*
X3255000Y9647889D01*
X3255000Y9647889D02*
X3267857Y9673603D01*
X3267857Y9673603D02*
X3293572Y9686460D01*
X3293572Y9686460D02*
X3357857Y9686460D01*
X3357857Y9686460D02*
X3383572Y9699318D01*
X3627858Y9596460D02*
X3602143Y9583603D01*
X3602143Y9583603D02*
X3550715Y9583603D01*
X3550715Y9583603D02*
X3525000Y9596460D01*
X3525000Y9596460D02*
X3512143Y9609318D01*
X3512143Y9609318D02*
X3499286Y9635032D01*
X3499286Y9635032D02*
X3499286Y9712175D01*
X3499286Y9712175D02*
X3512143Y9737889D01*
X3512143Y9737889D02*
X3525000Y9750746D01*
X3525000Y9750746D02*
X3550715Y9763603D01*
X3550715Y9763603D02*
X3602143Y9763603D01*
X3602143Y9763603D02*
X3627858Y9750746D01*
X3782144Y9583603D02*
X3756429Y9596460D01*
X3756429Y9596460D02*
X3743572Y9622175D01*
X3743572Y9622175D02*
X3743572Y9853603D01*
X3987858Y9596460D02*
X3962144Y9583603D01*
X3962144Y9583603D02*
X3910716Y9583603D01*
X3910716Y9583603D02*
X3885001Y9596460D01*
X3885001Y9596460D02*
X3872144Y9622175D01*
X3872144Y9622175D02*
X3872144Y9725032D01*
X3872144Y9725032D02*
X3885001Y9750746D01*
X3885001Y9750746D02*
X3910716Y9763603D01*
X3910716Y9763603D02*
X3962144Y9763603D01*
X3962144Y9763603D02*
X3987858Y9750746D01*
X3987858Y9750746D02*
X4000716Y9725032D01*
X4000716Y9725032D02*
X4000716Y9699318D01*
X4000716Y9699318D02*
X3872144Y9673603D01*
X4052145Y9557889D02*
X4257859Y9557889D01*
X4322144Y9853603D02*
X4322144Y9635032D01*
X4322144Y9635032D02*
X4335001Y9609318D01*
X4335001Y9609318D02*
X4347859Y9596460D01*
X4347859Y9596460D02*
X4373573Y9583603D01*
X4373573Y9583603D02*
X4425001Y9583603D01*
X4425001Y9583603D02*
X4450716Y9596460D01*
X4450716Y9596460D02*
X4463573Y9609318D01*
X4463573Y9609318D02*
X4476430Y9635032D01*
X4476430Y9635032D02*
X4476430Y9853603D01*
X4592144Y9596460D02*
X4630716Y9583603D01*
X4630716Y9583603D02*
X4695001Y9583603D01*
X4695001Y9583603D02*
X4720716Y9596460D01*
X4720716Y9596460D02*
X4733573Y9609318D01*
X4733573Y9609318D02*
X4746430Y9635032D01*
X4746430Y9635032D02*
X4746430Y9660746D01*
X4746430Y9660746D02*
X4733573Y9686460D01*
X4733573Y9686460D02*
X4720716Y9699318D01*
X4720716Y9699318D02*
X4695001Y9712175D01*
X4695001Y9712175D02*
X4643573Y9725032D01*
X4643573Y9725032D02*
X4617858Y9737889D01*
X4617858Y9737889D02*
X4605001Y9750746D01*
X4605001Y9750746D02*
X4592144Y9776460D01*
X4592144Y9776460D02*
X4592144Y9802175D01*
X4592144Y9802175D02*
X4605001Y9827889D01*
X4605001Y9827889D02*
X4617858Y9840746D01*
X4617858Y9840746D02*
X4643573Y9853603D01*
X4643573Y9853603D02*
X4707858Y9853603D01*
X4707858Y9853603D02*
X4746430Y9840746D01*
X4952144Y9725032D02*
X4990716Y9712175D01*
X4990716Y9712175D02*
X5003573Y9699318D01*
X5003573Y9699318D02*
X5016430Y9673603D01*
X5016430Y9673603D02*
X5016430Y9635032D01*
X5016430Y9635032D02*
X5003573Y9609318D01*
X5003573Y9609318D02*
X4990716Y9596460D01*
X4990716Y9596460D02*
X4965001Y9583603D01*
X4965001Y9583603D02*
X4862144Y9583603D01*
X4862144Y9583603D02*
X4862144Y9853603D01*
X4862144Y9853603D02*
X4952144Y9853603D01*
X4952144Y9853603D02*
X4977859Y9840746D01*
X4977859Y9840746D02*
X4990716Y9827889D01*
X4990716Y9827889D02*
X5003573Y9802175D01*
X5003573Y9802175D02*
X5003573Y9776460D01*
X5003573Y9776460D02*
X4990716Y9750746D01*
X4990716Y9750746D02*
X4977859Y9737889D01*
X4977859Y9737889D02*
X4952144Y9725032D01*
X4952144Y9725032D02*
X4862144Y9725032D01*
X5119287Y9827889D02*
X5132144Y9840746D01*
X5132144Y9840746D02*
X5157859Y9853603D01*
X5157859Y9853603D02*
X5222144Y9853603D01*
X5222144Y9853603D02*
X5247859Y9840746D01*
X5247859Y9840746D02*
X5260716Y9827889D01*
X5260716Y9827889D02*
X5273573Y9802175D01*
X5273573Y9802175D02*
X5273573Y9776460D01*
X5273573Y9776460D02*
X5260716Y9737889D01*
X5260716Y9737889D02*
X5106430Y9583603D01*
X5106430Y9583603D02*
X5273573Y9583603D01*
X5389287Y9609318D02*
X5402144Y9596460D01*
X5402144Y9596460D02*
X5389287Y9583603D01*
X5389287Y9583603D02*
X5376430Y9596460D01*
X5376430Y9596460D02*
X5389287Y9609318D01*
X5389287Y9609318D02*
X5389287Y9583603D01*
X5569287Y9853603D02*
X5595001Y9853603D01*
X5595001Y9853603D02*
X5620715Y9840746D01*
X5620715Y9840746D02*
X5633573Y9827889D01*
X5633573Y9827889D02*
X5646430Y9802175D01*
X5646430Y9802175D02*
X5659287Y9750746D01*
X5659287Y9750746D02*
X5659287Y9686460D01*
X5659287Y9686460D02*
X5646430Y9635032D01*
X5646430Y9635032D02*
X5633573Y9609318D01*
X5633573Y9609318D02*
X5620715Y9596460D01*
X5620715Y9596460D02*
X5595001Y9583603D01*
X5595001Y9583603D02*
X5569287Y9583603D01*
X5569287Y9583603D02*
X5543573Y9596460D01*
X5543573Y9596460D02*
X5530715Y9609318D01*
X5530715Y9609318D02*
X5517858Y9635032D01*
X5517858Y9635032D02*
X5505001Y9686460D01*
X5505001Y9686460D02*
X5505001Y9750746D01*
X5505001Y9750746D02*
X5517858Y9802175D01*
X5517858Y9802175D02*
X5530715Y9827889D01*
X5530715Y9827889D02*
X5543573Y9840746D01*
X5543573Y9840746D02*
X5569287Y9853603D01*
X3110000Y10513603D02*
X3110000Y10320746D01*
X3110000Y10320746D02*
X3097143Y10282175D01*
X3097143Y10282175D02*
X3071429Y10256460D01*
X3071429Y10256460D02*
X3032857Y10243603D01*
X3032857Y10243603D02*
X3007143Y10243603D01*
X3380000Y10243603D02*
X3225714Y10243603D01*
X3302857Y10243603D02*
X3302857Y10513603D01*
X3302857Y10513603D02*
X3277143Y10475032D01*
X3277143Y10475032D02*
X3251428Y10449318D01*
X3251428Y10449318D02*
X3225714Y10436460D01*
X29199285Y3270032D02*
X29289285Y3270032D01*
X29327857Y3128603D02*
X29199285Y3128603D01*
X29199285Y3128603D02*
X29199285Y3398603D01*
X29199285Y3398603D02*
X29327857Y3398603D01*
X29430714Y3141460D02*
X29469286Y3128603D01*
X29469286Y3128603D02*
X29533571Y3128603D01*
X29533571Y3128603D02*
X29559286Y3141460D01*
X29559286Y3141460D02*
X29572143Y3154318D01*
X29572143Y3154318D02*
X29585000Y3180032D01*
X29585000Y3180032D02*
X29585000Y3205746D01*
X29585000Y3205746D02*
X29572143Y3231460D01*
X29572143Y3231460D02*
X29559286Y3244318D01*
X29559286Y3244318D02*
X29533571Y3257175D01*
X29533571Y3257175D02*
X29482143Y3270032D01*
X29482143Y3270032D02*
X29456428Y3282889D01*
X29456428Y3282889D02*
X29443571Y3295746D01*
X29443571Y3295746D02*
X29430714Y3321460D01*
X29430714Y3321460D02*
X29430714Y3347175D01*
X29430714Y3347175D02*
X29443571Y3372889D01*
X29443571Y3372889D02*
X29456428Y3385746D01*
X29456428Y3385746D02*
X29482143Y3398603D01*
X29482143Y3398603D02*
X29546428Y3398603D01*
X29546428Y3398603D02*
X29585000Y3385746D01*
X29700714Y3128603D02*
X29700714Y3398603D01*
X29700714Y3398603D02*
X29803571Y3398603D01*
X29803571Y3398603D02*
X29829286Y3385746D01*
X29829286Y3385746D02*
X29842143Y3372889D01*
X29842143Y3372889D02*
X29855000Y3347175D01*
X29855000Y3347175D02*
X29855000Y3308603D01*
X29855000Y3308603D02*
X29842143Y3282889D01*
X29842143Y3282889D02*
X29829286Y3270032D01*
X29829286Y3270032D02*
X29803571Y3257175D01*
X29803571Y3257175D02*
X29700714Y3257175D01*
X29906429Y3102889D02*
X30112143Y3102889D01*
X30176428Y3128603D02*
X30176428Y3398603D01*
X30176428Y3398603D02*
X30279285Y3398603D01*
X30279285Y3398603D02*
X30305000Y3385746D01*
X30305000Y3385746D02*
X30317857Y3372889D01*
X30317857Y3372889D02*
X30330714Y3347175D01*
X30330714Y3347175D02*
X30330714Y3308603D01*
X30330714Y3308603D02*
X30317857Y3282889D01*
X30317857Y3282889D02*
X30305000Y3270032D01*
X30305000Y3270032D02*
X30279285Y3257175D01*
X30279285Y3257175D02*
X30176428Y3257175D01*
X30600714Y3128603D02*
X30510714Y3257175D01*
X30446428Y3128603D02*
X30446428Y3398603D01*
X30446428Y3398603D02*
X30549285Y3398603D01*
X30549285Y3398603D02*
X30575000Y3385746D01*
X30575000Y3385746D02*
X30587857Y3372889D01*
X30587857Y3372889D02*
X30600714Y3347175D01*
X30600714Y3347175D02*
X30600714Y3308603D01*
X30600714Y3308603D02*
X30587857Y3282889D01*
X30587857Y3282889D02*
X30575000Y3270032D01*
X30575000Y3270032D02*
X30549285Y3257175D01*
X30549285Y3257175D02*
X30446428Y3257175D01*
X30767857Y3398603D02*
X30819285Y3398603D01*
X30819285Y3398603D02*
X30845000Y3385746D01*
X30845000Y3385746D02*
X30870714Y3360032D01*
X30870714Y3360032D02*
X30883571Y3308603D01*
X30883571Y3308603D02*
X30883571Y3218603D01*
X30883571Y3218603D02*
X30870714Y3167175D01*
X30870714Y3167175D02*
X30845000Y3141460D01*
X30845000Y3141460D02*
X30819285Y3128603D01*
X30819285Y3128603D02*
X30767857Y3128603D01*
X30767857Y3128603D02*
X30742143Y3141460D01*
X30742143Y3141460D02*
X30716428Y3167175D01*
X30716428Y3167175D02*
X30703571Y3218603D01*
X30703571Y3218603D02*
X30703571Y3308603D01*
X30703571Y3308603D02*
X30716428Y3360032D01*
X30716428Y3360032D02*
X30742143Y3385746D01*
X30742143Y3385746D02*
X30767857Y3398603D01*
X31140714Y3385746D02*
X31115000Y3398603D01*
X31115000Y3398603D02*
X31076428Y3398603D01*
X31076428Y3398603D02*
X31037857Y3385746D01*
X31037857Y3385746D02*
X31012142Y3360032D01*
X31012142Y3360032D02*
X30999285Y3334318D01*
X30999285Y3334318D02*
X30986428Y3282889D01*
X30986428Y3282889D02*
X30986428Y3244318D01*
X30986428Y3244318D02*
X30999285Y3192889D01*
X30999285Y3192889D02*
X31012142Y3167175D01*
X31012142Y3167175D02*
X31037857Y3141460D01*
X31037857Y3141460D02*
X31076428Y3128603D01*
X31076428Y3128603D02*
X31102142Y3128603D01*
X31102142Y3128603D02*
X31140714Y3141460D01*
X31140714Y3141460D02*
X31153571Y3154318D01*
X31153571Y3154318D02*
X31153571Y3244318D01*
X31153571Y3244318D02*
X31102142Y3244318D01*
X29965000Y4038603D02*
X29965000Y3845746D01*
X29965000Y3845746D02*
X29952143Y3807175D01*
X29952143Y3807175D02*
X29926429Y3781460D01*
X29926429Y3781460D02*
X29887857Y3768603D01*
X29887857Y3768603D02*
X29862143Y3768603D01*
X30209286Y3948603D02*
X30209286Y3768603D01*
X30145000Y4051460D02*
X30080714Y3858603D01*
X30080714Y3858603D02*
X30247857Y3858603D01*
X15968572Y16158603D02*
X15968572Y16428603D01*
X15968572Y16428603D02*
X16071429Y16428603D01*
X16071429Y16428603D02*
X16097144Y16415746D01*
X16097144Y16415746D02*
X16110001Y16402889D01*
X16110001Y16402889D02*
X16122858Y16377175D01*
X16122858Y16377175D02*
X16122858Y16338603D01*
X16122858Y16338603D02*
X16110001Y16312889D01*
X16110001Y16312889D02*
X16097144Y16300032D01*
X16097144Y16300032D02*
X16071429Y16287175D01*
X16071429Y16287175D02*
X15968572Y16287175D01*
X16290001Y16428603D02*
X16341429Y16428603D01*
X16341429Y16428603D02*
X16367144Y16415746D01*
X16367144Y16415746D02*
X16392858Y16390032D01*
X16392858Y16390032D02*
X16405715Y16338603D01*
X16405715Y16338603D02*
X16405715Y16248603D01*
X16405715Y16248603D02*
X16392858Y16197175D01*
X16392858Y16197175D02*
X16367144Y16171460D01*
X16367144Y16171460D02*
X16341429Y16158603D01*
X16341429Y16158603D02*
X16290001Y16158603D01*
X16290001Y16158603D02*
X16264287Y16171460D01*
X16264287Y16171460D02*
X16238572Y16197175D01*
X16238572Y16197175D02*
X16225715Y16248603D01*
X16225715Y16248603D02*
X16225715Y16338603D01*
X16225715Y16338603D02*
X16238572Y16390032D01*
X16238572Y16390032D02*
X16264287Y16415746D01*
X16264287Y16415746D02*
X16290001Y16428603D01*
X16495715Y16428603D02*
X16560001Y16158603D01*
X16560001Y16158603D02*
X16611429Y16351460D01*
X16611429Y16351460D02*
X16662858Y16158603D01*
X16662858Y16158603D02*
X16727144Y16428603D01*
X16765715Y16132889D02*
X16971429Y16132889D01*
X17190000Y16184318D02*
X17177143Y16171460D01*
X17177143Y16171460D02*
X17138571Y16158603D01*
X17138571Y16158603D02*
X17112857Y16158603D01*
X17112857Y16158603D02*
X17074286Y16171460D01*
X17074286Y16171460D02*
X17048571Y16197175D01*
X17048571Y16197175D02*
X17035714Y16222889D01*
X17035714Y16222889D02*
X17022857Y16274318D01*
X17022857Y16274318D02*
X17022857Y16312889D01*
X17022857Y16312889D02*
X17035714Y16364318D01*
X17035714Y16364318D02*
X17048571Y16390032D01*
X17048571Y16390032D02*
X17074286Y16415746D01*
X17074286Y16415746D02*
X17112857Y16428603D01*
X17112857Y16428603D02*
X17138571Y16428603D01*
X17138571Y16428603D02*
X17177143Y16415746D01*
X17177143Y16415746D02*
X17190000Y16402889D01*
X17267143Y16428603D02*
X17421429Y16428603D01*
X17344286Y16158603D02*
X17344286Y16428603D01*
X17665714Y16158603D02*
X17575714Y16287175D01*
X17511428Y16158603D02*
X17511428Y16428603D01*
X17511428Y16428603D02*
X17614285Y16428603D01*
X17614285Y16428603D02*
X17640000Y16415746D01*
X17640000Y16415746D02*
X17652857Y16402889D01*
X17652857Y16402889D02*
X17665714Y16377175D01*
X17665714Y16377175D02*
X17665714Y16338603D01*
X17665714Y16338603D02*
X17652857Y16312889D01*
X17652857Y16312889D02*
X17640000Y16300032D01*
X17640000Y16300032D02*
X17614285Y16287175D01*
X17614285Y16287175D02*
X17511428Y16287175D01*
X17910000Y16158603D02*
X17781428Y16158603D01*
X17781428Y16158603D02*
X17781428Y16428603D01*
X16765835Y18009410D02*
X16804407Y17996553D01*
X16804407Y17996553D02*
X16868692Y17996553D01*
X16868692Y17996553D02*
X16894407Y18009410D01*
X16894407Y18009410D02*
X16907264Y18022268D01*
X16907264Y18022268D02*
X16920121Y18047982D01*
X16920121Y18047982D02*
X16920121Y18073696D01*
X16920121Y18073696D02*
X16907264Y18099410D01*
X16907264Y18099410D02*
X16894407Y18112268D01*
X16894407Y18112268D02*
X16868692Y18125125D01*
X16868692Y18125125D02*
X16817264Y18137982D01*
X16817264Y18137982D02*
X16791549Y18150839D01*
X16791549Y18150839D02*
X16778692Y18163696D01*
X16778692Y18163696D02*
X16765835Y18189410D01*
X16765835Y18189410D02*
X16765835Y18215125D01*
X16765835Y18215125D02*
X16778692Y18240839D01*
X16778692Y18240839D02*
X16791549Y18253696D01*
X16791549Y18253696D02*
X16817264Y18266553D01*
X16817264Y18266553D02*
X16881549Y18266553D01*
X16881549Y18266553D02*
X16920121Y18253696D01*
X17010121Y18266553D02*
X17074407Y17996553D01*
X17074407Y17996553D02*
X17125835Y18189410D01*
X17125835Y18189410D02*
X17177264Y17996553D01*
X17177264Y17996553D02*
X17241550Y18266553D01*
X17460121Y18176553D02*
X17460121Y17996553D01*
X17395835Y18279410D02*
X17331549Y18086553D01*
X17331549Y18086553D02*
X17498692Y18086553D01*
X24383571Y11154032D02*
X24422143Y11141175D01*
X24422143Y11141175D02*
X24435000Y11128318D01*
X24435000Y11128318D02*
X24447857Y11102603D01*
X24447857Y11102603D02*
X24447857Y11064032D01*
X24447857Y11064032D02*
X24435000Y11038318D01*
X24435000Y11038318D02*
X24422143Y11025460D01*
X24422143Y11025460D02*
X24396428Y11012603D01*
X24396428Y11012603D02*
X24293571Y11012603D01*
X24293571Y11012603D02*
X24293571Y11282603D01*
X24293571Y11282603D02*
X24383571Y11282603D01*
X24383571Y11282603D02*
X24409286Y11269746D01*
X24409286Y11269746D02*
X24422143Y11256889D01*
X24422143Y11256889D02*
X24435000Y11231175D01*
X24435000Y11231175D02*
X24435000Y11205460D01*
X24435000Y11205460D02*
X24422143Y11179746D01*
X24422143Y11179746D02*
X24409286Y11166889D01*
X24409286Y11166889D02*
X24383571Y11154032D01*
X24383571Y11154032D02*
X24293571Y11154032D01*
X24717857Y11038318D02*
X24705000Y11025460D01*
X24705000Y11025460D02*
X24666428Y11012603D01*
X24666428Y11012603D02*
X24640714Y11012603D01*
X24640714Y11012603D02*
X24602143Y11025460D01*
X24602143Y11025460D02*
X24576428Y11051175D01*
X24576428Y11051175D02*
X24563571Y11076889D01*
X24563571Y11076889D02*
X24550714Y11128318D01*
X24550714Y11128318D02*
X24550714Y11166889D01*
X24550714Y11166889D02*
X24563571Y11218318D01*
X24563571Y11218318D02*
X24576428Y11244032D01*
X24576428Y11244032D02*
X24602143Y11269746D01*
X24602143Y11269746D02*
X24640714Y11282603D01*
X24640714Y11282603D02*
X24666428Y11282603D01*
X24666428Y11282603D02*
X24705000Y11269746D01*
X24705000Y11269746D02*
X24717857Y11256889D01*
X24872143Y11166889D02*
X24846428Y11179746D01*
X24846428Y11179746D02*
X24833571Y11192603D01*
X24833571Y11192603D02*
X24820714Y11218318D01*
X24820714Y11218318D02*
X24820714Y11231175D01*
X24820714Y11231175D02*
X24833571Y11256889D01*
X24833571Y11256889D02*
X24846428Y11269746D01*
X24846428Y11269746D02*
X24872143Y11282603D01*
X24872143Y11282603D02*
X24923571Y11282603D01*
X24923571Y11282603D02*
X24949286Y11269746D01*
X24949286Y11269746D02*
X24962143Y11256889D01*
X24962143Y11256889D02*
X24975000Y11231175D01*
X24975000Y11231175D02*
X24975000Y11218318D01*
X24975000Y11218318D02*
X24962143Y11192603D01*
X24962143Y11192603D02*
X24949286Y11179746D01*
X24949286Y11179746D02*
X24923571Y11166889D01*
X24923571Y11166889D02*
X24872143Y11166889D01*
X24872143Y11166889D02*
X24846428Y11154032D01*
X24846428Y11154032D02*
X24833571Y11141175D01*
X24833571Y11141175D02*
X24820714Y11115460D01*
X24820714Y11115460D02*
X24820714Y11064032D01*
X24820714Y11064032D02*
X24833571Y11038318D01*
X24833571Y11038318D02*
X24846428Y11025460D01*
X24846428Y11025460D02*
X24872143Y11012603D01*
X24872143Y11012603D02*
X24923571Y11012603D01*
X24923571Y11012603D02*
X24949286Y11025460D01*
X24949286Y11025460D02*
X24962143Y11038318D01*
X24962143Y11038318D02*
X24975000Y11064032D01*
X24975000Y11064032D02*
X24975000Y11115460D01*
X24975000Y11115460D02*
X24962143Y11141175D01*
X24962143Y11141175D02*
X24949286Y11154032D01*
X24949286Y11154032D02*
X24923571Y11166889D01*
X25232143Y11012603D02*
X25077857Y11012603D01*
X25155000Y11012603D02*
X25155000Y11282603D01*
X25155000Y11282603D02*
X25129286Y11244032D01*
X25129286Y11244032D02*
X25103571Y11218318D01*
X25103571Y11218318D02*
X25077857Y11205460D01*
X25322143Y11282603D02*
X25502143Y11282603D01*
X25502143Y11282603D02*
X25386429Y11012603D01*
X24849285Y12776889D02*
X24823571Y12789746D01*
X24823571Y12789746D02*
X24797857Y12815460D01*
X24797857Y12815460D02*
X24759285Y12854032D01*
X24759285Y12854032D02*
X24733571Y12866889D01*
X24733571Y12866889D02*
X24707857Y12866889D01*
X24720714Y12802603D02*
X24695000Y12815460D01*
X24695000Y12815460D02*
X24669285Y12841175D01*
X24669285Y12841175D02*
X24656428Y12892603D01*
X24656428Y12892603D02*
X24656428Y12982603D01*
X24656428Y12982603D02*
X24669285Y13034032D01*
X24669285Y13034032D02*
X24695000Y13059746D01*
X24695000Y13059746D02*
X24720714Y13072603D01*
X24720714Y13072603D02*
X24772142Y13072603D01*
X24772142Y13072603D02*
X24797857Y13059746D01*
X24797857Y13059746D02*
X24823571Y13034032D01*
X24823571Y13034032D02*
X24836428Y12982603D01*
X24836428Y12982603D02*
X24836428Y12892603D01*
X24836428Y12892603D02*
X24823571Y12841175D01*
X24823571Y12841175D02*
X24797857Y12815460D01*
X24797857Y12815460D02*
X24772142Y12802603D01*
X24772142Y12802603D02*
X24720714Y12802603D01*
X25093571Y12802603D02*
X24939285Y12802603D01*
X25016428Y12802603D02*
X25016428Y13072603D01*
X25016428Y13072603D02*
X24990714Y13034032D01*
X24990714Y13034032D02*
X24964999Y13008318D01*
X24964999Y13008318D02*
X24939285Y12995460D01*
X35209285Y12240032D02*
X35299285Y12240032D01*
X35337857Y12098603D02*
X35209285Y12098603D01*
X35209285Y12098603D02*
X35209285Y12368603D01*
X35209285Y12368603D02*
X35337857Y12368603D01*
X35440714Y12111460D02*
X35479286Y12098603D01*
X35479286Y12098603D02*
X35543571Y12098603D01*
X35543571Y12098603D02*
X35569286Y12111460D01*
X35569286Y12111460D02*
X35582143Y12124318D01*
X35582143Y12124318D02*
X35595000Y12150032D01*
X35595000Y12150032D02*
X35595000Y12175746D01*
X35595000Y12175746D02*
X35582143Y12201460D01*
X35582143Y12201460D02*
X35569286Y12214318D01*
X35569286Y12214318D02*
X35543571Y12227175D01*
X35543571Y12227175D02*
X35492143Y12240032D01*
X35492143Y12240032D02*
X35466428Y12252889D01*
X35466428Y12252889D02*
X35453571Y12265746D01*
X35453571Y12265746D02*
X35440714Y12291460D01*
X35440714Y12291460D02*
X35440714Y12317175D01*
X35440714Y12317175D02*
X35453571Y12342889D01*
X35453571Y12342889D02*
X35466428Y12355746D01*
X35466428Y12355746D02*
X35492143Y12368603D01*
X35492143Y12368603D02*
X35556428Y12368603D01*
X35556428Y12368603D02*
X35595000Y12355746D01*
X35710714Y12098603D02*
X35710714Y12368603D01*
X35710714Y12368603D02*
X35813571Y12368603D01*
X35813571Y12368603D02*
X35839286Y12355746D01*
X35839286Y12355746D02*
X35852143Y12342889D01*
X35852143Y12342889D02*
X35865000Y12317175D01*
X35865000Y12317175D02*
X35865000Y12278603D01*
X35865000Y12278603D02*
X35852143Y12252889D01*
X35852143Y12252889D02*
X35839286Y12240032D01*
X35839286Y12240032D02*
X35813571Y12227175D01*
X35813571Y12227175D02*
X35710714Y12227175D01*
X35916429Y12072889D02*
X36122143Y12072889D01*
X36340714Y12098603D02*
X36250714Y12227175D01*
X36186428Y12098603D02*
X36186428Y12368603D01*
X36186428Y12368603D02*
X36289285Y12368603D01*
X36289285Y12368603D02*
X36315000Y12355746D01*
X36315000Y12355746D02*
X36327857Y12342889D01*
X36327857Y12342889D02*
X36340714Y12317175D01*
X36340714Y12317175D02*
X36340714Y12278603D01*
X36340714Y12278603D02*
X36327857Y12252889D01*
X36327857Y12252889D02*
X36315000Y12240032D01*
X36315000Y12240032D02*
X36289285Y12227175D01*
X36289285Y12227175D02*
X36186428Y12227175D01*
X36443571Y12111460D02*
X36482143Y12098603D01*
X36482143Y12098603D02*
X36546428Y12098603D01*
X36546428Y12098603D02*
X36572143Y12111460D01*
X36572143Y12111460D02*
X36585000Y12124318D01*
X36585000Y12124318D02*
X36597857Y12150032D01*
X36597857Y12150032D02*
X36597857Y12175746D01*
X36597857Y12175746D02*
X36585000Y12201460D01*
X36585000Y12201460D02*
X36572143Y12214318D01*
X36572143Y12214318D02*
X36546428Y12227175D01*
X36546428Y12227175D02*
X36495000Y12240032D01*
X36495000Y12240032D02*
X36469285Y12252889D01*
X36469285Y12252889D02*
X36456428Y12265746D01*
X36456428Y12265746D02*
X36443571Y12291460D01*
X36443571Y12291460D02*
X36443571Y12317175D01*
X36443571Y12317175D02*
X36456428Y12342889D01*
X36456428Y12342889D02*
X36469285Y12355746D01*
X36469285Y12355746D02*
X36495000Y12368603D01*
X36495000Y12368603D02*
X36559285Y12368603D01*
X36559285Y12368603D02*
X36597857Y12355746D01*
X36675000Y12368603D02*
X36829286Y12368603D01*
X36752143Y12098603D02*
X36752143Y12368603D01*
X35545835Y13909410D02*
X35584407Y13896553D01*
X35584407Y13896553D02*
X35648692Y13896553D01*
X35648692Y13896553D02*
X35674407Y13909410D01*
X35674407Y13909410D02*
X35687264Y13922268D01*
X35687264Y13922268D02*
X35700121Y13947982D01*
X35700121Y13947982D02*
X35700121Y13973696D01*
X35700121Y13973696D02*
X35687264Y13999410D01*
X35687264Y13999410D02*
X35674407Y14012268D01*
X35674407Y14012268D02*
X35648692Y14025125D01*
X35648692Y14025125D02*
X35597264Y14037982D01*
X35597264Y14037982D02*
X35571549Y14050839D01*
X35571549Y14050839D02*
X35558692Y14063696D01*
X35558692Y14063696D02*
X35545835Y14089410D01*
X35545835Y14089410D02*
X35545835Y14115125D01*
X35545835Y14115125D02*
X35558692Y14140839D01*
X35558692Y14140839D02*
X35571549Y14153696D01*
X35571549Y14153696D02*
X35597264Y14166553D01*
X35597264Y14166553D02*
X35661549Y14166553D01*
X35661549Y14166553D02*
X35700121Y14153696D01*
X35790121Y14166553D02*
X35854407Y13896553D01*
X35854407Y13896553D02*
X35905835Y14089410D01*
X35905835Y14089410D02*
X35957264Y13896553D01*
X35957264Y13896553D02*
X36021550Y14166553D01*
X36265835Y13896553D02*
X36111549Y13896553D01*
X36188692Y13896553D02*
X36188692Y14166553D01*
X36188692Y14166553D02*
X36162978Y14127982D01*
X36162978Y14127982D02*
X36137263Y14102268D01*
X36137263Y14102268D02*
X36111549Y14089410D01*
X6930714Y18593603D02*
X7020714Y18323603D01*
X7020714Y18323603D02*
X7110714Y18593603D01*
X7290714Y18465032D02*
X7329286Y18452175D01*
X7329286Y18452175D02*
X7342143Y18439318D01*
X7342143Y18439318D02*
X7355000Y18413603D01*
X7355000Y18413603D02*
X7355000Y18375032D01*
X7355000Y18375032D02*
X7342143Y18349318D01*
X7342143Y18349318D02*
X7329286Y18336460D01*
X7329286Y18336460D02*
X7303571Y18323603D01*
X7303571Y18323603D02*
X7200714Y18323603D01*
X7200714Y18323603D02*
X7200714Y18593603D01*
X7200714Y18593603D02*
X7290714Y18593603D01*
X7290714Y18593603D02*
X7316429Y18580746D01*
X7316429Y18580746D02*
X7329286Y18567889D01*
X7329286Y18567889D02*
X7342143Y18542175D01*
X7342143Y18542175D02*
X7342143Y18516460D01*
X7342143Y18516460D02*
X7329286Y18490746D01*
X7329286Y18490746D02*
X7316429Y18477889D01*
X7316429Y18477889D02*
X7290714Y18465032D01*
X7290714Y18465032D02*
X7200714Y18465032D01*
X7470714Y18593603D02*
X7470714Y18375032D01*
X7470714Y18375032D02*
X7483571Y18349318D01*
X7483571Y18349318D02*
X7496429Y18336460D01*
X7496429Y18336460D02*
X7522143Y18323603D01*
X7522143Y18323603D02*
X7573571Y18323603D01*
X7573571Y18323603D02*
X7599286Y18336460D01*
X7599286Y18336460D02*
X7612143Y18349318D01*
X7612143Y18349318D02*
X7625000Y18375032D01*
X7625000Y18375032D02*
X7625000Y18593603D01*
X7740714Y18336460D02*
X7779286Y18323603D01*
X7779286Y18323603D02*
X7843571Y18323603D01*
X7843571Y18323603D02*
X7869286Y18336460D01*
X7869286Y18336460D02*
X7882143Y18349318D01*
X7882143Y18349318D02*
X7895000Y18375032D01*
X7895000Y18375032D02*
X7895000Y18400746D01*
X7895000Y18400746D02*
X7882143Y18426460D01*
X7882143Y18426460D02*
X7869286Y18439318D01*
X7869286Y18439318D02*
X7843571Y18452175D01*
X7843571Y18452175D02*
X7792143Y18465032D01*
X7792143Y18465032D02*
X7766428Y18477889D01*
X7766428Y18477889D02*
X7753571Y18490746D01*
X7753571Y18490746D02*
X7740714Y18516460D01*
X7740714Y18516460D02*
X7740714Y18542175D01*
X7740714Y18542175D02*
X7753571Y18567889D01*
X7753571Y18567889D02*
X7766428Y18580746D01*
X7766428Y18580746D02*
X7792143Y18593603D01*
X7792143Y18593603D02*
X7856428Y18593603D01*
X7856428Y18593603D02*
X7895000Y18580746D01*
X7946429Y18297889D02*
X8152143Y18297889D01*
X8345000Y18323603D02*
X8216428Y18323603D01*
X8216428Y18323603D02*
X8216428Y18593603D01*
X8434999Y18465032D02*
X8524999Y18465032D01*
X8563571Y18323603D02*
X8434999Y18323603D01*
X8434999Y18323603D02*
X8434999Y18593603D01*
X8434999Y18593603D02*
X8563571Y18593603D01*
X8679285Y18323603D02*
X8679285Y18593603D01*
X8679285Y18593603D02*
X8743571Y18593603D01*
X8743571Y18593603D02*
X8782142Y18580746D01*
X8782142Y18580746D02*
X8807857Y18555032D01*
X8807857Y18555032D02*
X8820714Y18529318D01*
X8820714Y18529318D02*
X8833571Y18477889D01*
X8833571Y18477889D02*
X8833571Y18439318D01*
X8833571Y18439318D02*
X8820714Y18387889D01*
X8820714Y18387889D02*
X8807857Y18362175D01*
X8807857Y18362175D02*
X8782142Y18336460D01*
X8782142Y18336460D02*
X8743571Y18323603D01*
X8743571Y18323603D02*
X8679285Y18323603D01*
X7605714Y17583603D02*
X7605714Y17853603D01*
X7605714Y17853603D02*
X7670000Y17853603D01*
X7670000Y17853603D02*
X7708571Y17840746D01*
X7708571Y17840746D02*
X7734286Y17815032D01*
X7734286Y17815032D02*
X7747143Y17789318D01*
X7747143Y17789318D02*
X7760000Y17737889D01*
X7760000Y17737889D02*
X7760000Y17699318D01*
X7760000Y17699318D02*
X7747143Y17647889D01*
X7747143Y17647889D02*
X7734286Y17622175D01*
X7734286Y17622175D02*
X7708571Y17596460D01*
X7708571Y17596460D02*
X7670000Y17583603D01*
X7670000Y17583603D02*
X7605714Y17583603D01*
X7862857Y17827889D02*
X7875714Y17840746D01*
X7875714Y17840746D02*
X7901429Y17853603D01*
X7901429Y17853603D02*
X7965714Y17853603D01*
X7965714Y17853603D02*
X7991429Y17840746D01*
X7991429Y17840746D02*
X8004286Y17827889D01*
X8004286Y17827889D02*
X8017143Y17802175D01*
X8017143Y17802175D02*
X8017143Y17776460D01*
X8017143Y17776460D02*
X8004286Y17737889D01*
X8004286Y17737889D02*
X7850000Y17583603D01*
X7850000Y17583603D02*
X8017143Y17583603D01*
X41311428Y9350032D02*
X41401428Y9350032D01*
X41440000Y9208603D02*
X41311428Y9208603D01*
X41311428Y9208603D02*
X41311428Y9478603D01*
X41311428Y9478603D02*
X41440000Y9478603D01*
X41542857Y9221460D02*
X41581429Y9208603D01*
X41581429Y9208603D02*
X41645714Y9208603D01*
X41645714Y9208603D02*
X41671429Y9221460D01*
X41671429Y9221460D02*
X41684286Y9234318D01*
X41684286Y9234318D02*
X41697143Y9260032D01*
X41697143Y9260032D02*
X41697143Y9285746D01*
X41697143Y9285746D02*
X41684286Y9311460D01*
X41684286Y9311460D02*
X41671429Y9324318D01*
X41671429Y9324318D02*
X41645714Y9337175D01*
X41645714Y9337175D02*
X41594286Y9350032D01*
X41594286Y9350032D02*
X41568571Y9362889D01*
X41568571Y9362889D02*
X41555714Y9375746D01*
X41555714Y9375746D02*
X41542857Y9401460D01*
X41542857Y9401460D02*
X41542857Y9427175D01*
X41542857Y9427175D02*
X41555714Y9452889D01*
X41555714Y9452889D02*
X41568571Y9465746D01*
X41568571Y9465746D02*
X41594286Y9478603D01*
X41594286Y9478603D02*
X41658571Y9478603D01*
X41658571Y9478603D02*
X41697143Y9465746D01*
X41812857Y9208603D02*
X41812857Y9478603D01*
X41812857Y9478603D02*
X41915714Y9478603D01*
X41915714Y9478603D02*
X41941429Y9465746D01*
X41941429Y9465746D02*
X41954286Y9452889D01*
X41954286Y9452889D02*
X41967143Y9427175D01*
X41967143Y9427175D02*
X41967143Y9388603D01*
X41967143Y9388603D02*
X41954286Y9362889D01*
X41954286Y9362889D02*
X41941429Y9350032D01*
X41941429Y9350032D02*
X41915714Y9337175D01*
X41915714Y9337175D02*
X41812857Y9337175D01*
X42018572Y9182889D02*
X42224286Y9182889D01*
X42442857Y9234318D02*
X42430000Y9221460D01*
X42430000Y9221460D02*
X42391428Y9208603D01*
X42391428Y9208603D02*
X42365714Y9208603D01*
X42365714Y9208603D02*
X42327143Y9221460D01*
X42327143Y9221460D02*
X42301428Y9247175D01*
X42301428Y9247175D02*
X42288571Y9272889D01*
X42288571Y9272889D02*
X42275714Y9324318D01*
X42275714Y9324318D02*
X42275714Y9362889D01*
X42275714Y9362889D02*
X42288571Y9414318D01*
X42288571Y9414318D02*
X42301428Y9440032D01*
X42301428Y9440032D02*
X42327143Y9465746D01*
X42327143Y9465746D02*
X42365714Y9478603D01*
X42365714Y9478603D02*
X42391428Y9478603D01*
X42391428Y9478603D02*
X42430000Y9465746D01*
X42430000Y9465746D02*
X42442857Y9452889D01*
X42610000Y9478603D02*
X42661428Y9478603D01*
X42661428Y9478603D02*
X42687143Y9465746D01*
X42687143Y9465746D02*
X42712857Y9440032D01*
X42712857Y9440032D02*
X42725714Y9388603D01*
X42725714Y9388603D02*
X42725714Y9298603D01*
X42725714Y9298603D02*
X42712857Y9247175D01*
X42712857Y9247175D02*
X42687143Y9221460D01*
X42687143Y9221460D02*
X42661428Y9208603D01*
X42661428Y9208603D02*
X42610000Y9208603D01*
X42610000Y9208603D02*
X42584286Y9221460D01*
X42584286Y9221460D02*
X42558571Y9247175D01*
X42558571Y9247175D02*
X42545714Y9298603D01*
X42545714Y9298603D02*
X42545714Y9388603D01*
X42545714Y9388603D02*
X42558571Y9440032D01*
X42558571Y9440032D02*
X42584286Y9465746D01*
X42584286Y9465746D02*
X42610000Y9478603D01*
X42841428Y9208603D02*
X42841428Y9478603D01*
X42841428Y9478603D02*
X42995714Y9208603D01*
X42995714Y9208603D02*
X42995714Y9478603D01*
X43124285Y9208603D02*
X43124285Y9478603D01*
X43124285Y9478603D02*
X43278571Y9208603D01*
X43278571Y9208603D02*
X43278571Y9478603D01*
X42110000Y10083603D02*
X42110000Y9890746D01*
X42110000Y9890746D02*
X42097143Y9852175D01*
X42097143Y9852175D02*
X42071429Y9826460D01*
X42071429Y9826460D02*
X42032857Y9813603D01*
X42032857Y9813603D02*
X42007143Y9813603D01*
X42225714Y10057889D02*
X42238571Y10070746D01*
X42238571Y10070746D02*
X42264286Y10083603D01*
X42264286Y10083603D02*
X42328571Y10083603D01*
X42328571Y10083603D02*
X42354286Y10070746D01*
X42354286Y10070746D02*
X42367143Y10057889D01*
X42367143Y10057889D02*
X42380000Y10032175D01*
X42380000Y10032175D02*
X42380000Y10006460D01*
X42380000Y10006460D02*
X42367143Y9967889D01*
X42367143Y9967889D02*
X42212857Y9813603D01*
X42212857Y9813603D02*
X42380000Y9813603D01*
X25039999Y5475032D02*
X25129999Y5475032D01*
X25168571Y5333603D02*
X25039999Y5333603D01*
X25039999Y5333603D02*
X25039999Y5603603D01*
X25039999Y5603603D02*
X25168571Y5603603D01*
X25271428Y5346460D02*
X25310000Y5333603D01*
X25310000Y5333603D02*
X25374285Y5333603D01*
X25374285Y5333603D02*
X25400000Y5346460D01*
X25400000Y5346460D02*
X25412857Y5359318D01*
X25412857Y5359318D02*
X25425714Y5385032D01*
X25425714Y5385032D02*
X25425714Y5410746D01*
X25425714Y5410746D02*
X25412857Y5436460D01*
X25412857Y5436460D02*
X25400000Y5449318D01*
X25400000Y5449318D02*
X25374285Y5462175D01*
X25374285Y5462175D02*
X25322857Y5475032D01*
X25322857Y5475032D02*
X25297142Y5487889D01*
X25297142Y5487889D02*
X25284285Y5500746D01*
X25284285Y5500746D02*
X25271428Y5526460D01*
X25271428Y5526460D02*
X25271428Y5552175D01*
X25271428Y5552175D02*
X25284285Y5577889D01*
X25284285Y5577889D02*
X25297142Y5590746D01*
X25297142Y5590746D02*
X25322857Y5603603D01*
X25322857Y5603603D02*
X25387142Y5603603D01*
X25387142Y5603603D02*
X25425714Y5590746D01*
X25541428Y5333603D02*
X25541428Y5603603D01*
X25541428Y5603603D02*
X25644285Y5603603D01*
X25644285Y5603603D02*
X25670000Y5590746D01*
X25670000Y5590746D02*
X25682857Y5577889D01*
X25682857Y5577889D02*
X25695714Y5552175D01*
X25695714Y5552175D02*
X25695714Y5513603D01*
X25695714Y5513603D02*
X25682857Y5487889D01*
X25682857Y5487889D02*
X25670000Y5475032D01*
X25670000Y5475032D02*
X25644285Y5462175D01*
X25644285Y5462175D02*
X25541428Y5462175D01*
X25772857Y5603603D02*
X25862857Y5333603D01*
X25862857Y5333603D02*
X25952857Y5603603D01*
X25978572Y5307889D02*
X26184286Y5307889D01*
X26235714Y5346460D02*
X26274286Y5333603D01*
X26274286Y5333603D02*
X26338571Y5333603D01*
X26338571Y5333603D02*
X26364286Y5346460D01*
X26364286Y5346460D02*
X26377143Y5359318D01*
X26377143Y5359318D02*
X26390000Y5385032D01*
X26390000Y5385032D02*
X26390000Y5410746D01*
X26390000Y5410746D02*
X26377143Y5436460D01*
X26377143Y5436460D02*
X26364286Y5449318D01*
X26364286Y5449318D02*
X26338571Y5462175D01*
X26338571Y5462175D02*
X26287143Y5475032D01*
X26287143Y5475032D02*
X26261428Y5487889D01*
X26261428Y5487889D02*
X26248571Y5500746D01*
X26248571Y5500746D02*
X26235714Y5526460D01*
X26235714Y5526460D02*
X26235714Y5552175D01*
X26235714Y5552175D02*
X26248571Y5577889D01*
X26248571Y5577889D02*
X26261428Y5590746D01*
X26261428Y5590746D02*
X26287143Y5603603D01*
X26287143Y5603603D02*
X26351428Y5603603D01*
X26351428Y5603603D02*
X26390000Y5590746D01*
X26505714Y5475032D02*
X26595714Y5475032D01*
X26634286Y5333603D02*
X26505714Y5333603D01*
X26505714Y5333603D02*
X26505714Y5603603D01*
X26505714Y5603603D02*
X26634286Y5603603D01*
X26878572Y5333603D02*
X26750000Y5333603D01*
X26750000Y5333603D02*
X26750000Y5603603D01*
X25705835Y4391553D02*
X25705835Y4198696D01*
X25705835Y4198696D02*
X25692978Y4160125D01*
X25692978Y4160125D02*
X25667264Y4134410D01*
X25667264Y4134410D02*
X25628692Y4121553D01*
X25628692Y4121553D02*
X25602978Y4121553D01*
X25834406Y4121553D02*
X25834406Y4391553D01*
X25834406Y4391553D02*
X25937263Y4391553D01*
X25937263Y4391553D02*
X25962978Y4378696D01*
X25962978Y4378696D02*
X25975835Y4365839D01*
X25975835Y4365839D02*
X25988692Y4340125D01*
X25988692Y4340125D02*
X25988692Y4301553D01*
X25988692Y4301553D02*
X25975835Y4275839D01*
X25975835Y4275839D02*
X25962978Y4262982D01*
X25962978Y4262982D02*
X25937263Y4250125D01*
X25937263Y4250125D02*
X25834406Y4250125D01*
X26220121Y4301553D02*
X26220121Y4121553D01*
X26155835Y4404410D02*
X26091549Y4211553D01*
X26091549Y4211553D02*
X26258692Y4211553D01*
X27119999Y13823603D02*
X27029999Y13952175D01*
X26965713Y13823603D02*
X26965713Y14093603D01*
X26965713Y14093603D02*
X27068570Y14093603D01*
X27068570Y14093603D02*
X27094285Y14080746D01*
X27094285Y14080746D02*
X27107142Y14067889D01*
X27107142Y14067889D02*
X27119999Y14042175D01*
X27119999Y14042175D02*
X27119999Y14003603D01*
X27119999Y14003603D02*
X27107142Y13977889D01*
X27107142Y13977889D02*
X27094285Y13965032D01*
X27094285Y13965032D02*
X27068570Y13952175D01*
X27068570Y13952175D02*
X26965713Y13952175D01*
X27325713Y13965032D02*
X27364285Y13952175D01*
X27364285Y13952175D02*
X27377142Y13939318D01*
X27377142Y13939318D02*
X27389999Y13913603D01*
X27389999Y13913603D02*
X27389999Y13875032D01*
X27389999Y13875032D02*
X27377142Y13849318D01*
X27377142Y13849318D02*
X27364285Y13836460D01*
X27364285Y13836460D02*
X27338570Y13823603D01*
X27338570Y13823603D02*
X27235713Y13823603D01*
X27235713Y13823603D02*
X27235713Y14093603D01*
X27235713Y14093603D02*
X27325713Y14093603D01*
X27325713Y14093603D02*
X27351428Y14080746D01*
X27351428Y14080746D02*
X27364285Y14067889D01*
X27364285Y14067889D02*
X27377142Y14042175D01*
X27377142Y14042175D02*
X27377142Y14016460D01*
X27377142Y14016460D02*
X27364285Y13990746D01*
X27364285Y13990746D02*
X27351428Y13977889D01*
X27351428Y13977889D02*
X27325713Y13965032D01*
X27325713Y13965032D02*
X27235713Y13965032D01*
X27479999Y14093603D02*
X27659999Y14093603D01*
X27659999Y14093603D02*
X27544285Y13823603D01*
X27891428Y14093603D02*
X27762856Y14093603D01*
X27762856Y14093603D02*
X27749999Y13965032D01*
X27749999Y13965032D02*
X27762856Y13977889D01*
X27762856Y13977889D02*
X27788571Y13990746D01*
X27788571Y13990746D02*
X27852856Y13990746D01*
X27852856Y13990746D02*
X27878571Y13977889D01*
X27878571Y13977889D02*
X27891428Y13965032D01*
X27891428Y13965032D02*
X27904285Y13939318D01*
X27904285Y13939318D02*
X27904285Y13875032D01*
X27904285Y13875032D02*
X27891428Y13849318D01*
X27891428Y13849318D02*
X27878571Y13836460D01*
X27878571Y13836460D02*
X27852856Y13823603D01*
X27852856Y13823603D02*
X27788571Y13823603D01*
X27788571Y13823603D02*
X27762856Y13836460D01*
X27762856Y13836460D02*
X27749999Y13849318D01*
X28161428Y13823603D02*
X28007142Y13823603D01*
X28084285Y13823603D02*
X28084285Y14093603D01*
X28084285Y14093603D02*
X28058571Y14055032D01*
X28058571Y14055032D02*
X28032856Y14029318D01*
X28032856Y14029318D02*
X28007142Y14016460D01*
X28238571Y14093603D02*
X28328571Y13823603D01*
X28328571Y13823603D02*
X28418571Y14093603D01*
X28624286Y14003603D02*
X28624286Y13823603D01*
X28560000Y14106460D02*
X28495714Y13913603D01*
X28495714Y13913603D02*
X28662857Y13913603D01*
X28817143Y14093603D02*
X28842857Y14093603D01*
X28842857Y14093603D02*
X28868571Y14080746D01*
X28868571Y14080746D02*
X28881429Y14067889D01*
X28881429Y14067889D02*
X28894286Y14042175D01*
X28894286Y14042175D02*
X28907143Y13990746D01*
X28907143Y13990746D02*
X28907143Y13926460D01*
X28907143Y13926460D02*
X28894286Y13875032D01*
X28894286Y13875032D02*
X28881429Y13849318D01*
X28881429Y13849318D02*
X28868571Y13836460D01*
X28868571Y13836460D02*
X28842857Y13823603D01*
X28842857Y13823603D02*
X28817143Y13823603D01*
X28817143Y13823603D02*
X28791429Y13836460D01*
X28791429Y13836460D02*
X28778571Y13849318D01*
X28778571Y13849318D02*
X28765714Y13875032D01*
X28765714Y13875032D02*
X28752857Y13926460D01*
X28752857Y13926460D02*
X28752857Y13990746D01*
X28752857Y13990746D02*
X28765714Y14042175D01*
X28765714Y14042175D02*
X28778571Y14067889D01*
X28778571Y14067889D02*
X28791429Y14080746D01*
X28791429Y14080746D02*
X28817143Y14093603D01*
X26630714Y12653603D02*
X26630714Y12923603D01*
X26630714Y12923603D02*
X26695000Y12923603D01*
X26695000Y12923603D02*
X26733571Y12910746D01*
X26733571Y12910746D02*
X26759286Y12885032D01*
X26759286Y12885032D02*
X26772143Y12859318D01*
X26772143Y12859318D02*
X26785000Y12807889D01*
X26785000Y12807889D02*
X26785000Y12769318D01*
X26785000Y12769318D02*
X26772143Y12717889D01*
X26772143Y12717889D02*
X26759286Y12692175D01*
X26759286Y12692175D02*
X26733571Y12666460D01*
X26733571Y12666460D02*
X26695000Y12653603D01*
X26695000Y12653603D02*
X26630714Y12653603D01*
X27042143Y12653603D02*
X26887857Y12653603D01*
X26965000Y12653603D02*
X26965000Y12923603D01*
X26965000Y12923603D02*
X26939286Y12885032D01*
X26939286Y12885032D02*
X26913571Y12859318D01*
X26913571Y12859318D02*
X26887857Y12846460D01*
X5491429Y2163603D02*
X5362857Y2163603D01*
X5362857Y2163603D02*
X5350000Y2035032D01*
X5350000Y2035032D02*
X5362857Y2047889D01*
X5362857Y2047889D02*
X5388572Y2060746D01*
X5388572Y2060746D02*
X5452857Y2060746D01*
X5452857Y2060746D02*
X5478572Y2047889D01*
X5478572Y2047889D02*
X5491429Y2035032D01*
X5491429Y2035032D02*
X5504286Y2009318D01*
X5504286Y2009318D02*
X5504286Y1945032D01*
X5504286Y1945032D02*
X5491429Y1919318D01*
X5491429Y1919318D02*
X5478572Y1906460D01*
X5478572Y1906460D02*
X5452857Y1893603D01*
X5452857Y1893603D02*
X5388572Y1893603D01*
X5388572Y1893603D02*
X5362857Y1906460D01*
X5362857Y1906460D02*
X5350000Y1919318D01*
X5620000Y1919318D02*
X5632857Y1906460D01*
X5632857Y1906460D02*
X5620000Y1893603D01*
X5620000Y1893603D02*
X5607143Y1906460D01*
X5607143Y1906460D02*
X5620000Y1919318D01*
X5620000Y1919318D02*
X5620000Y1893603D01*
X5890000Y1893603D02*
X5735714Y1893603D01*
X5812857Y1893603D02*
X5812857Y2163603D01*
X5812857Y2163603D02*
X5787143Y2125032D01*
X5787143Y2125032D02*
X5761428Y2099318D01*
X5761428Y2099318D02*
X5735714Y2086460D01*
X6005714Y1893603D02*
X6005714Y2163603D01*
X6160000Y1893603D02*
X6044286Y2047889D01*
X6160000Y2163603D02*
X6005714Y2009318D01*
X6846397Y1970001D02*
X6717825Y1880001D01*
X6846397Y1815715D02*
X6576397Y1815715D01*
X6576397Y1815715D02*
X6576397Y1918572D01*
X6576397Y1918572D02*
X6589254Y1944287D01*
X6589254Y1944287D02*
X6602111Y1957144D01*
X6602111Y1957144D02*
X6627825Y1970001D01*
X6627825Y1970001D02*
X6666397Y1970001D01*
X6666397Y1970001D02*
X6692111Y1957144D01*
X6692111Y1957144D02*
X6704968Y1944287D01*
X6704968Y1944287D02*
X6717825Y1918572D01*
X6717825Y1918572D02*
X6717825Y1815715D01*
X6576397Y2060001D02*
X6576397Y2227144D01*
X6576397Y2227144D02*
X6679254Y2137144D01*
X6679254Y2137144D02*
X6679254Y2175715D01*
X6679254Y2175715D02*
X6692111Y2201429D01*
X6692111Y2201429D02*
X6704968Y2214287D01*
X6704968Y2214287D02*
X6730682Y2227144D01*
X6730682Y2227144D02*
X6794968Y2227144D01*
X6794968Y2227144D02*
X6820682Y2214287D01*
X6820682Y2214287D02*
X6833540Y2201429D01*
X6833540Y2201429D02*
X6846397Y2175715D01*
X6846397Y2175715D02*
X6846397Y2098572D01*
X6846397Y2098572D02*
X6833540Y2072858D01*
X6833540Y2072858D02*
X6820682Y2060001D01*
X21198571Y8563603D02*
X21044285Y8563603D01*
X21121428Y8563603D02*
X21121428Y8833603D01*
X21121428Y8833603D02*
X21095714Y8795032D01*
X21095714Y8795032D02*
X21069999Y8769318D01*
X21069999Y8769318D02*
X21044285Y8756460D01*
X21365714Y8833603D02*
X21391428Y8833603D01*
X21391428Y8833603D02*
X21417142Y8820746D01*
X21417142Y8820746D02*
X21430000Y8807889D01*
X21430000Y8807889D02*
X21442857Y8782175D01*
X21442857Y8782175D02*
X21455714Y8730746D01*
X21455714Y8730746D02*
X21455714Y8666460D01*
X21455714Y8666460D02*
X21442857Y8615032D01*
X21442857Y8615032D02*
X21430000Y8589318D01*
X21430000Y8589318D02*
X21417142Y8576460D01*
X21417142Y8576460D02*
X21391428Y8563603D01*
X21391428Y8563603D02*
X21365714Y8563603D01*
X21365714Y8563603D02*
X21340000Y8576460D01*
X21340000Y8576460D02*
X21327142Y8589318D01*
X21327142Y8589318D02*
X21314285Y8615032D01*
X21314285Y8615032D02*
X21301428Y8666460D01*
X21301428Y8666460D02*
X21301428Y8730746D01*
X21301428Y8730746D02*
X21314285Y8782175D01*
X21314285Y8782175D02*
X21327142Y8807889D01*
X21327142Y8807889D02*
X21340000Y8820746D01*
X21340000Y8820746D02*
X21365714Y8833603D01*
X21571428Y8563603D02*
X21571428Y8833603D01*
X21725714Y8563603D02*
X21610000Y8717889D01*
X21725714Y8833603D02*
X21571428Y8679318D01*
X22366397Y8660001D02*
X22237825Y8570001D01*
X22366397Y8505715D02*
X22096397Y8505715D01*
X22096397Y8505715D02*
X22096397Y8608572D01*
X22096397Y8608572D02*
X22109254Y8634287D01*
X22109254Y8634287D02*
X22122111Y8647144D01*
X22122111Y8647144D02*
X22147825Y8660001D01*
X22147825Y8660001D02*
X22186397Y8660001D01*
X22186397Y8660001D02*
X22212111Y8647144D01*
X22212111Y8647144D02*
X22224968Y8634287D01*
X22224968Y8634287D02*
X22237825Y8608572D01*
X22237825Y8608572D02*
X22237825Y8505715D01*
X22096397Y8750001D02*
X22096397Y8930001D01*
X22096397Y8930001D02*
X22366397Y8814287D01*
X9571428Y13793603D02*
X9597142Y13793603D01*
X9597142Y13793603D02*
X9622856Y13780746D01*
X9622856Y13780746D02*
X9635714Y13767889D01*
X9635714Y13767889D02*
X9648571Y13742175D01*
X9648571Y13742175D02*
X9661428Y13690746D01*
X9661428Y13690746D02*
X9661428Y13626460D01*
X9661428Y13626460D02*
X9648571Y13575032D01*
X9648571Y13575032D02*
X9635714Y13549318D01*
X9635714Y13549318D02*
X9622856Y13536460D01*
X9622856Y13536460D02*
X9597142Y13523603D01*
X9597142Y13523603D02*
X9571428Y13523603D01*
X9571428Y13523603D02*
X9545714Y13536460D01*
X9545714Y13536460D02*
X9532856Y13549318D01*
X9532856Y13549318D02*
X9519999Y13575032D01*
X9519999Y13575032D02*
X9507142Y13626460D01*
X9507142Y13626460D02*
X9507142Y13690746D01*
X9507142Y13690746D02*
X9519999Y13742175D01*
X9519999Y13742175D02*
X9532856Y13767889D01*
X9532856Y13767889D02*
X9545714Y13780746D01*
X9545714Y13780746D02*
X9571428Y13793603D01*
X9777142Y13549318D02*
X9789999Y13536460D01*
X9789999Y13536460D02*
X9777142Y13523603D01*
X9777142Y13523603D02*
X9764285Y13536460D01*
X9764285Y13536460D02*
X9777142Y13549318D01*
X9777142Y13549318D02*
X9777142Y13523603D01*
X10047142Y13523603D02*
X9892856Y13523603D01*
X9969999Y13523603D02*
X9969999Y13793603D01*
X9969999Y13793603D02*
X9944285Y13755032D01*
X9944285Y13755032D02*
X9918570Y13729318D01*
X9918570Y13729318D02*
X9892856Y13716460D01*
X10278571Y13703603D02*
X10278571Y13523603D01*
X10162856Y13703603D02*
X10162856Y13562175D01*
X10162856Y13562175D02*
X10175713Y13536460D01*
X10175713Y13536460D02*
X10201428Y13523603D01*
X10201428Y13523603D02*
X10239999Y13523603D01*
X10239999Y13523603D02*
X10265713Y13536460D01*
X10265713Y13536460D02*
X10278571Y13549318D01*
X10497142Y13665032D02*
X10407142Y13665032D01*
X10407142Y13523603D02*
X10407142Y13793603D01*
X10407142Y13793603D02*
X10535714Y13793603D01*
X8660000Y13579318D02*
X8647143Y13566460D01*
X8647143Y13566460D02*
X8608571Y13553603D01*
X8608571Y13553603D02*
X8582857Y13553603D01*
X8582857Y13553603D02*
X8544286Y13566460D01*
X8544286Y13566460D02*
X8518571Y13592175D01*
X8518571Y13592175D02*
X8505714Y13617889D01*
X8505714Y13617889D02*
X8492857Y13669318D01*
X8492857Y13669318D02*
X8492857Y13707889D01*
X8492857Y13707889D02*
X8505714Y13759318D01*
X8505714Y13759318D02*
X8518571Y13785032D01*
X8518571Y13785032D02*
X8544286Y13810746D01*
X8544286Y13810746D02*
X8582857Y13823603D01*
X8582857Y13823603D02*
X8608571Y13823603D01*
X8608571Y13823603D02*
X8647143Y13810746D01*
X8647143Y13810746D02*
X8660000Y13797889D01*
X8917143Y13553603D02*
X8762857Y13553603D01*
X8840000Y13553603D02*
X8840000Y13823603D01*
X8840000Y13823603D02*
X8814286Y13785032D01*
X8814286Y13785032D02*
X8788571Y13759318D01*
X8788571Y13759318D02*
X8762857Y13746460D01*
X22745714Y3723603D02*
X22745714Y3543603D01*
X22681428Y3826460D02*
X22617142Y3633603D01*
X22617142Y3633603D02*
X22784285Y3633603D01*
X22887142Y3569318D02*
X22899999Y3556460D01*
X22899999Y3556460D02*
X22887142Y3543603D01*
X22887142Y3543603D02*
X22874285Y3556460D01*
X22874285Y3556460D02*
X22887142Y3569318D01*
X22887142Y3569318D02*
X22887142Y3543603D01*
X22989999Y3813603D02*
X23169999Y3813603D01*
X23169999Y3813603D02*
X23054285Y3543603D01*
X23388571Y3723603D02*
X23388571Y3543603D01*
X23272856Y3723603D02*
X23272856Y3582175D01*
X23272856Y3582175D02*
X23285713Y3556460D01*
X23285713Y3556460D02*
X23311428Y3543603D01*
X23311428Y3543603D02*
X23349999Y3543603D01*
X23349999Y3543603D02*
X23375713Y3556460D01*
X23375713Y3556460D02*
X23388571Y3569318D01*
X23607142Y3685032D02*
X23517142Y3685032D01*
X23517142Y3543603D02*
X23517142Y3813603D01*
X23517142Y3813603D02*
X23645714Y3813603D01*
X22340682Y3630001D02*
X22353540Y3617144D01*
X22353540Y3617144D02*
X22366397Y3578572D01*
X22366397Y3578572D02*
X22366397Y3552858D01*
X22366397Y3552858D02*
X22353540Y3514287D01*
X22353540Y3514287D02*
X22327825Y3488572D01*
X22327825Y3488572D02*
X22302111Y3475715D01*
X22302111Y3475715D02*
X22250682Y3462858D01*
X22250682Y3462858D02*
X22212111Y3462858D01*
X22212111Y3462858D02*
X22160682Y3475715D01*
X22160682Y3475715D02*
X22134968Y3488572D01*
X22134968Y3488572D02*
X22109254Y3514287D01*
X22109254Y3514287D02*
X22096397Y3552858D01*
X22096397Y3552858D02*
X22096397Y3578572D01*
X22096397Y3578572D02*
X22109254Y3617144D01*
X22109254Y3617144D02*
X22122111Y3630001D01*
X22096397Y3861429D02*
X22096397Y3810001D01*
X22096397Y3810001D02*
X22109254Y3784287D01*
X22109254Y3784287D02*
X22122111Y3771429D01*
X22122111Y3771429D02*
X22160682Y3745715D01*
X22160682Y3745715D02*
X22212111Y3732858D01*
X22212111Y3732858D02*
X22314968Y3732858D01*
X22314968Y3732858D02*
X22340682Y3745715D01*
X22340682Y3745715D02*
X22353540Y3758572D01*
X22353540Y3758572D02*
X22366397Y3784287D01*
X22366397Y3784287D02*
X22366397Y3835715D01*
X22366397Y3835715D02*
X22353540Y3861429D01*
X22353540Y3861429D02*
X22340682Y3874287D01*
X22340682Y3874287D02*
X22314968Y3887144D01*
X22314968Y3887144D02*
X22250682Y3887144D01*
X22250682Y3887144D02*
X22224968Y3874287D01*
X22224968Y3874287D02*
X22212111Y3861429D01*
X22212111Y3861429D02*
X22199254Y3835715D01*
X22199254Y3835715D02*
X22199254Y3784287D01*
X22199254Y3784287D02*
X22212111Y3758572D01*
X22212111Y3758572D02*
X22224968Y3745715D01*
X22224968Y3745715D02*
X22250682Y3732858D01*
X17864285Y942603D02*
X17864285Y1212603D01*
X17864285Y1212603D02*
X17954285Y1019746D01*
X17954285Y1019746D02*
X18044285Y1212603D01*
X18044285Y1212603D02*
X18044285Y942603D01*
X18172856Y942603D02*
X18172856Y1212603D01*
X18455713Y968318D02*
X18442856Y955460D01*
X18442856Y955460D02*
X18404284Y942603D01*
X18404284Y942603D02*
X18378570Y942603D01*
X18378570Y942603D02*
X18339999Y955460D01*
X18339999Y955460D02*
X18314284Y981175D01*
X18314284Y981175D02*
X18301427Y1006889D01*
X18301427Y1006889D02*
X18288570Y1058318D01*
X18288570Y1058318D02*
X18288570Y1096889D01*
X18288570Y1096889D02*
X18301427Y1148318D01*
X18301427Y1148318D02*
X18314284Y1174032D01*
X18314284Y1174032D02*
X18339999Y1199746D01*
X18339999Y1199746D02*
X18378570Y1212603D01*
X18378570Y1212603D02*
X18404284Y1212603D01*
X18404284Y1212603D02*
X18442856Y1199746D01*
X18442856Y1199746D02*
X18455713Y1186889D01*
X18699999Y1212603D02*
X18571427Y1212603D01*
X18571427Y1212603D02*
X18558570Y1084032D01*
X18558570Y1084032D02*
X18571427Y1096889D01*
X18571427Y1096889D02*
X18597142Y1109746D01*
X18597142Y1109746D02*
X18661427Y1109746D01*
X18661427Y1109746D02*
X18687142Y1096889D01*
X18687142Y1096889D02*
X18699999Y1084032D01*
X18699999Y1084032D02*
X18712856Y1058318D01*
X18712856Y1058318D02*
X18712856Y994032D01*
X18712856Y994032D02*
X18699999Y968318D01*
X18699999Y968318D02*
X18687142Y955460D01*
X18687142Y955460D02*
X18661427Y942603D01*
X18661427Y942603D02*
X18597142Y942603D01*
X18597142Y942603D02*
X18571427Y955460D01*
X18571427Y955460D02*
X18558570Y968318D01*
X18815713Y1186889D02*
X18828570Y1199746D01*
X18828570Y1199746D02*
X18854285Y1212603D01*
X18854285Y1212603D02*
X18918570Y1212603D01*
X18918570Y1212603D02*
X18944285Y1199746D01*
X18944285Y1199746D02*
X18957142Y1186889D01*
X18957142Y1186889D02*
X18969999Y1161175D01*
X18969999Y1161175D02*
X18969999Y1135460D01*
X18969999Y1135460D02*
X18957142Y1096889D01*
X18957142Y1096889D02*
X18802856Y942603D01*
X18802856Y942603D02*
X18969999Y942603D01*
X19227142Y942603D02*
X19072856Y942603D01*
X19149999Y942603D02*
X19149999Y1212603D01*
X19149999Y1212603D02*
X19124285Y1174032D01*
X19124285Y1174032D02*
X19098570Y1148318D01*
X19098570Y1148318D02*
X19072856Y1135460D01*
X19355713Y942603D02*
X19407142Y942603D01*
X19407142Y942603D02*
X19432856Y955460D01*
X19432856Y955460D02*
X19445713Y968318D01*
X19445713Y968318D02*
X19471428Y1006889D01*
X19471428Y1006889D02*
X19484285Y1058318D01*
X19484285Y1058318D02*
X19484285Y1161175D01*
X19484285Y1161175D02*
X19471428Y1186889D01*
X19471428Y1186889D02*
X19458571Y1199746D01*
X19458571Y1199746D02*
X19432856Y1212603D01*
X19432856Y1212603D02*
X19381428Y1212603D01*
X19381428Y1212603D02*
X19355713Y1199746D01*
X19355713Y1199746D02*
X19342856Y1186889D01*
X19342856Y1186889D02*
X19329999Y1161175D01*
X19329999Y1161175D02*
X19329999Y1096889D01*
X19329999Y1096889D02*
X19342856Y1071175D01*
X19342856Y1071175D02*
X19355713Y1058318D01*
X19355713Y1058318D02*
X19381428Y1045460D01*
X19381428Y1045460D02*
X19432856Y1045460D01*
X19432856Y1045460D02*
X19458571Y1058318D01*
X19458571Y1058318D02*
X19471428Y1071175D01*
X19471428Y1071175D02*
X19484285Y1096889D01*
X19599999Y1045460D02*
X19805714Y1045460D01*
X19908571Y1212603D02*
X20075714Y1212603D01*
X20075714Y1212603D02*
X19985714Y1109746D01*
X19985714Y1109746D02*
X20024285Y1109746D01*
X20024285Y1109746D02*
X20050000Y1096889D01*
X20050000Y1096889D02*
X20062857Y1084032D01*
X20062857Y1084032D02*
X20075714Y1058318D01*
X20075714Y1058318D02*
X20075714Y994032D01*
X20075714Y994032D02*
X20062857Y968318D01*
X20062857Y968318D02*
X20050000Y955460D01*
X20050000Y955460D02*
X20024285Y942603D01*
X20024285Y942603D02*
X19947142Y942603D01*
X19947142Y942603D02*
X19921428Y955460D01*
X19921428Y955460D02*
X19908571Y968318D01*
X20191428Y968318D02*
X20204285Y955460D01*
X20204285Y955460D02*
X20191428Y942603D01*
X20191428Y942603D02*
X20178571Y955460D01*
X20178571Y955460D02*
X20191428Y968318D01*
X20191428Y968318D02*
X20191428Y942603D01*
X20294285Y1212603D02*
X20461428Y1212603D01*
X20461428Y1212603D02*
X20371428Y1109746D01*
X20371428Y1109746D02*
X20409999Y1109746D01*
X20409999Y1109746D02*
X20435714Y1096889D01*
X20435714Y1096889D02*
X20448571Y1084032D01*
X20448571Y1084032D02*
X20461428Y1058318D01*
X20461428Y1058318D02*
X20461428Y994032D01*
X20461428Y994032D02*
X20448571Y968318D01*
X20448571Y968318D02*
X20435714Y955460D01*
X20435714Y955460D02*
X20409999Y942603D01*
X20409999Y942603D02*
X20332856Y942603D01*
X20332856Y942603D02*
X20307142Y955460D01*
X20307142Y955460D02*
X20294285Y968318D01*
X20628571Y1071175D02*
X20628571Y942603D01*
X20538571Y1212603D02*
X20628571Y1071175D01*
X20628571Y1071175D02*
X20718571Y1212603D01*
X20808571Y942603D02*
X20808571Y1212603D01*
X20808571Y1212603D02*
X20898571Y1019746D01*
X20898571Y1019746D02*
X20988571Y1212603D01*
X20988571Y1212603D02*
X20988571Y942603D01*
X21245714Y1212603D02*
X21117142Y1212603D01*
X21117142Y1212603D02*
X21104285Y1084032D01*
X21104285Y1084032D02*
X21117142Y1096889D01*
X21117142Y1096889D02*
X21142857Y1109746D01*
X21142857Y1109746D02*
X21207142Y1109746D01*
X21207142Y1109746D02*
X21232857Y1096889D01*
X21232857Y1096889D02*
X21245714Y1084032D01*
X21245714Y1084032D02*
X21258571Y1058318D01*
X21258571Y1058318D02*
X21258571Y994032D01*
X21258571Y994032D02*
X21245714Y968318D01*
X21245714Y968318D02*
X21232857Y955460D01*
X21232857Y955460D02*
X21207142Y942603D01*
X21207142Y942603D02*
X21142857Y942603D01*
X21142857Y942603D02*
X21117142Y955460D01*
X21117142Y955460D02*
X21104285Y968318D01*
X19279285Y3042603D02*
X19279285Y2824032D01*
X19279285Y2824032D02*
X19292142Y2798318D01*
X19292142Y2798318D02*
X19305000Y2785460D01*
X19305000Y2785460D02*
X19330714Y2772603D01*
X19330714Y2772603D02*
X19382142Y2772603D01*
X19382142Y2772603D02*
X19407857Y2785460D01*
X19407857Y2785460D02*
X19420714Y2798318D01*
X19420714Y2798318D02*
X19433571Y2824032D01*
X19433571Y2824032D02*
X19433571Y3042603D01*
X19549285Y3016889D02*
X19562142Y3029746D01*
X19562142Y3029746D02*
X19587857Y3042603D01*
X19587857Y3042603D02*
X19652142Y3042603D01*
X19652142Y3042603D02*
X19677857Y3029746D01*
X19677857Y3029746D02*
X19690714Y3016889D01*
X19690714Y3016889D02*
X19703571Y2991175D01*
X19703571Y2991175D02*
X19703571Y2965460D01*
X19703571Y2965460D02*
X19690714Y2926889D01*
X19690714Y2926889D02*
X19536428Y2772603D01*
X19536428Y2772603D02*
X19703571Y2772603D01*
D13*
X32880000Y18995000D02*
X33930000Y18995000D01*
X32880000Y18455000D02*
X32880000Y18995000D01*
X33930000Y18995000D02*
X33930000Y18455000D01*
X33930000Y18455000D02*
X32880000Y18455000D01*
X17975000Y10655000D02*
X17975000Y11355000D01*
X18425000Y11805000D02*
X20225000Y11805000D01*
X19325000Y11805000D02*
X19325000Y10205000D01*
X20225000Y10205000D02*
X18425000Y10205000D01*
X20675000Y11355000D02*
X20675000Y10655000D01*
X17975000Y11355000D02*
G75*
G02*
X18425000Y11805000I450000J0D01*
G01*
X18425000Y10205000D02*
G75*
G02*
X17975000Y10655000I0J450000D01*
G01*
X20225000Y11805000D02*
G75*
G02*
X20675000Y11355000I0J-450000D01*
G01*
X20675000Y10655000D02*
G75*
G02*
X20225000Y10205000I-450000J0D01*
G01*
X27175000Y9430000D02*
X28575000Y9430000D01*
X27175000Y7630000D02*
X27175000Y9430000D01*
X27525000Y8330000D02*
X27875000Y8830000D01*
X27875000Y8830000D02*
X27875000Y9030000D01*
X27875000Y8830000D02*
X28225000Y8330000D01*
X27875000Y8330000D02*
X27875000Y8080000D01*
X28225000Y8830000D02*
X27525000Y8830000D01*
X28225000Y8330000D02*
X27525000Y8330000D01*
X28575000Y9430000D02*
X28575000Y7630000D01*
X28575000Y7630000D02*
X27175000Y7630000D01*
X35655000Y18765000D02*
X35655000Y18265000D01*
X35655000Y18265000D02*
X37255000Y18265000D01*
X35955000Y19065000D02*
X35655000Y18765000D01*
X37255000Y19065000D02*
X35955000Y19065000D01*
X37255000Y18265000D02*
X37255000Y19065000D01*
X15780000Y4255000D02*
X16830000Y4255000D01*
X15780000Y3715000D02*
X15780000Y4255000D01*
X16830000Y4255000D02*
X16830000Y3715000D01*
X16830000Y3715000D02*
X15780000Y3715000D01*
X11575000Y13974000D02*
X12550000Y14949000D01*
X11575000Y5049000D02*
X11575000Y13974000D01*
X12550000Y14949000D02*
X15475000Y14949000D01*
X15475000Y14949000D02*
X15475000Y5049000D01*
X15475000Y5049000D02*
X11575000Y5049000D01*
X8180000Y12655000D02*
X9230000Y12655000D01*
X9230000Y12755000D02*
G75*
G02*
X9230000Y12655000I0J-50000D01*
G01*
X9230000Y12755000D02*
X8180000Y12755000D01*
X8180000Y12755000D02*
G75*
G03*
X8180000Y12655000I0J-50000D01*
G01*
X8230000Y12165000D02*
X8230000Y12705000D01*
X8130000Y12705000D02*
G75*
G02*
X8230000Y12705000I50000J0D01*
G01*
X8130000Y12705000D02*
X8130000Y12165000D01*
X8130000Y12165000D02*
G75*
G03*
X8230000Y12165000I50000J0D01*
G01*
X9180000Y12705000D02*
X9180000Y12165000D01*
X9280000Y12165000D02*
G75*
G02*
X9180000Y12165000I-50000J0D01*
G01*
X9280000Y12165000D02*
X9280000Y12705000D01*
X9280000Y12705000D02*
G75*
G03*
X9180000Y12705000I-50000J0D01*
G01*
X9230000Y12215000D02*
X8180000Y12215000D01*
X8180000Y12115000D02*
G75*
G02*
X8180000Y12215000I0J50000D01*
G01*
X8180000Y12115000D02*
X9230000Y12115000D01*
X9230000Y12115000D02*
G75*
G03*
X9230000Y12215000I0J50000D01*
G01*
X4610000Y17925000D02*
X5660000Y17925000D01*
X4610000Y17385000D02*
X4610000Y17925000D01*
X5660000Y17925000D02*
X5660000Y17385000D01*
X5660000Y17385000D02*
X4610000Y17385000D01*
X22995000Y19525000D02*
X22995000Y16925000D01*
X22995000Y16925000D02*
X29695000Y16925000D01*
X26445000Y20825000D02*
X26445000Y19525000D01*
X26495000Y20875000D02*
X26445000Y20825000D01*
X26695000Y21075000D02*
X26495000Y20875000D01*
X27545000Y21075000D02*
X26695000Y21075000D01*
X27745000Y20875000D02*
X27545000Y21075000D01*
X27745000Y19575000D02*
X27745000Y20875000D01*
X29695000Y19525000D02*
X22995000Y19525000D01*
X29695000Y16925000D02*
X29695000Y19525000D01*
X12175000Y16255000D02*
X13175000Y16255000D01*
X12175000Y15755000D02*
X12175000Y16255000D01*
X13175000Y16255000D02*
X13175000Y15755000D01*
X13175000Y15755000D02*
X12175000Y15755000D01*
X11530000Y3840000D02*
X11530000Y2240000D01*
X11530000Y2240000D02*
X14530000Y2240000D01*
X14030000Y3840000D02*
X11530000Y3840000D01*
X14030000Y3840000D02*
X14530000Y3340000D01*
X14530000Y3340000D02*
X14530000Y2240000D01*
X21975000Y13880000D02*
X22515000Y13880000D01*
X21975000Y12830000D02*
X21975000Y13880000D01*
X22515000Y13880000D02*
X22515000Y12830000D01*
X22515000Y12830000D02*
X21975000Y12830000D01*
X21975000Y1905000D02*
X22975000Y1905000D01*
X21975000Y1405000D02*
X21975000Y1905000D01*
X22975000Y1905000D02*
X22975000Y1405000D01*
X22975000Y1405000D02*
X21975000Y1405000D01*
X19020000Y15185000D02*
X19345000Y15510000D01*
X19020000Y12610000D02*
X19020000Y15185000D01*
X19345000Y15510000D02*
X20320000Y15510000D01*
X20320000Y15510000D02*
X20320000Y12610000D01*
X20320000Y12610000D02*
X19020000Y12610000D01*
X12150000Y17975000D02*
X13200000Y17975000D01*
X12150000Y17435000D02*
X12150000Y17975000D01*
X13200000Y17975000D02*
X13200000Y17435000D01*
X13200000Y17435000D02*
X12150000Y17435000D01*
X8015000Y16110000D02*
X8555000Y16110000D01*
X8015000Y15060000D02*
X8015000Y16110000D01*
X8555000Y16110000D02*
X8555000Y15060000D01*
X8555000Y15060000D02*
X8015000Y15060000D01*
X24225000Y9418000D02*
X24550000Y9743000D01*
X24225000Y6843000D02*
X24225000Y9418000D01*
X24550000Y9743000D02*
X25525000Y9743000D01*
X25525000Y9743000D02*
X25525000Y6843000D01*
X25525000Y6843000D02*
X24225000Y6843000D01*
X7725000Y3355000D02*
X10625000Y3355000D01*
X7725000Y2555000D02*
X7725000Y3355000D01*
X8225000Y2055000D02*
X7725000Y2555000D01*
X10625000Y3355000D02*
X10625000Y2055000D01*
X10625000Y2055000D02*
X8225000Y2055000D01*
X18335000Y6350000D02*
X18335000Y5100000D01*
X18335000Y5100000D02*
X20022500Y5100000D01*
X20022500Y5100000D02*
X20335000Y5412500D01*
X20335000Y6350000D02*
X18335000Y6350000D01*
X20335000Y5412500D02*
X20335000Y6350000D01*
X33510000Y2720000D02*
X33510000Y1420000D01*
X33510000Y2720000D02*
X34010000Y2720000D01*
X33510000Y1420000D02*
X34010000Y1420000D01*
X34010000Y3520000D02*
X34010000Y620000D01*
X34010000Y620000D02*
X37910000Y620000D01*
X35960000Y3520000D02*
X34010000Y3520000D01*
X37910000Y3520000D02*
X35960000Y3520000D01*
X37910000Y620000D02*
X37910000Y3520000D01*
X38410000Y2720000D02*
X37910000Y2720000D01*
X38410000Y2720000D02*
X38410000Y1420000D01*
X38410000Y1420000D02*
X37910000Y1420000D01*
X36860000Y2070000D02*
G75*
G02*
X35060000Y2070000I-900000J0D01*
G01*
X35060000Y2070000D02*
G75*
G02*
X36860000Y2070000I900000J0D01*
G01*
X16525000Y2575000D02*
X17025000Y2575000D01*
X16525000Y1575000D02*
X16525000Y2575000D01*
X17025000Y2575000D02*
X17025000Y1575000D01*
X17025000Y1575000D02*
X16525000Y1575000D01*
X5970000Y13200000D02*
X6550000Y12700000D01*
X6550000Y13700000D02*
X5970000Y13200000D01*
X6550000Y14470000D02*
X-800000Y14470000D01*
X-800000Y5530000D01*
X6550000Y5530000D01*
X6550000Y14470000D01*
X28385000Y5810000D02*
X31795000Y5810000D01*
X28385000Y2000000D02*
X28385000Y5810000D01*
X30942500Y2000000D02*
X28385000Y2000000D01*
X31795000Y5810000D02*
X31795000Y2852500D01*
X31795000Y2852500D02*
X30942500Y2000000D01*
X14640000Y18800000D02*
X15140000Y18800000D01*
X14640000Y17500000D02*
X14640000Y18800000D01*
X14640000Y17500000D02*
X15140000Y17500000D01*
X15140000Y19600000D02*
X15140000Y16700000D01*
X15140000Y16700000D02*
X17090000Y16700000D01*
X17090000Y16700000D02*
X19040000Y16700000D01*
X19040000Y19600000D02*
X15140000Y19600000D01*
X19040000Y16700000D02*
X19040000Y19600000D01*
X19540000Y18800000D02*
X19040000Y18800000D01*
X19540000Y17500000D02*
X19040000Y17500000D01*
X19540000Y17500000D02*
X19540000Y18800000D01*
X17990000Y18150000D02*
G75*
G02*
X16190000Y18150000I-900000J0D01*
G01*
X16190000Y18150000D02*
G75*
G02*
X17990000Y18150000I900000J0D01*
G01*
X24225000Y14049000D02*
X24550000Y14374000D01*
X24225000Y11474000D02*
X24225000Y14049000D01*
X24550000Y14374000D02*
X25525000Y14374000D01*
X25525000Y14374000D02*
X25525000Y11474000D01*
X25525000Y11474000D02*
X24225000Y11474000D01*
X33510000Y14690000D02*
X33510000Y13390000D01*
X33510000Y14690000D02*
X34010000Y14690000D01*
X33510000Y13390000D02*
X34010000Y13390000D01*
X34010000Y15490000D02*
X34010000Y12590000D01*
X34010000Y12590000D02*
X37910000Y12590000D01*
X35960000Y15490000D02*
X34010000Y15490000D01*
X37910000Y15490000D02*
X35960000Y15490000D01*
X37910000Y12590000D02*
X37910000Y15490000D01*
X38410000Y14690000D02*
X37910000Y14690000D01*
X38410000Y14690000D02*
X38410000Y13390000D01*
X38410000Y13390000D02*
X37910000Y13390000D01*
X36860000Y14040000D02*
G75*
G02*
X35060000Y14040000I-900000J0D01*
G01*
X35060000Y14040000D02*
G75*
G02*
X36860000Y14040000I900000J0D01*
G01*
X7005000Y17805000D02*
X7005000Y17305000D01*
X7005000Y17305000D02*
X8605000Y17305000D01*
X7305000Y18105000D02*
X7005000Y17805000D01*
X8605000Y18105000D02*
X7305000Y18105000D01*
X8605000Y17305000D02*
X8605000Y18105000D01*
X40985000Y16985000D02*
X41620000Y17620000D01*
X40985000Y2380000D02*
X40985000Y16985000D01*
X41620000Y17620000D02*
X43525000Y17620000D01*
X43525000Y17620000D02*
X43525000Y2380000D01*
X43525000Y2380000D02*
X40985000Y2380000D01*
X24985000Y3700000D02*
X26985000Y3700000D01*
X24985000Y2500000D02*
X26985000Y2500000D01*
D14*
X24985000Y1700000D02*
X24985000Y4500000D01*
X25685000Y5150000D02*
X26285000Y5150000D01*
X26285000Y1050000D02*
X25685000Y1050000D01*
X26985000Y4500000D02*
X26985000Y1700000D01*
X24985000Y4450000D02*
G75*
G02*
X25685000Y5150000I700000J0D01*
G01*
X25685000Y1050000D02*
G75*
G02*
X24985000Y1750000I3J700003D01*
G01*
X26285000Y5150000D02*
G75*
G02*
X26985000Y4450000I0J-700000D01*
G01*
X26985000Y1750000D02*
G75*
G02*
X26285000Y1050000I-700003J3D01*
G01*
D13*
X26385000Y500000D02*
X25585000Y500000D01*
X25985000Y900000D01*
X26385000Y500000D01*
G36*
X26385000Y500000D02*
G01*
X25585000Y500000D01*
X25985000Y900000D01*
X26385000Y500000D01*
G37*
X27225000Y13630000D02*
X28625000Y13630000D01*
X27225000Y11830000D02*
X27225000Y13630000D01*
X27575000Y12530000D02*
X27925000Y13030000D01*
X27925000Y13030000D02*
X27925000Y13230000D01*
X27925000Y13030000D02*
X28275000Y12530000D01*
X27925000Y12530000D02*
X27925000Y12280000D01*
X28275000Y13030000D02*
X27575000Y13030000D01*
X28275000Y12530000D02*
X27575000Y12530000D01*
X28625000Y13630000D02*
X28625000Y11830000D01*
X28625000Y11830000D02*
X27225000Y11830000D01*
X6455000Y2540000D02*
X6995000Y2540000D01*
X6455000Y1490000D02*
X6455000Y2540000D01*
X6995000Y2540000D02*
X6995000Y1490000D01*
X6995000Y1490000D02*
X6455000Y1490000D01*
X21975000Y9230000D02*
X22515000Y9230000D01*
X21975000Y8180000D02*
X21975000Y9230000D01*
X22515000Y9230000D02*
X22515000Y8180000D01*
X22515000Y8180000D02*
X21975000Y8180000D01*
X8205000Y13925000D02*
X9205000Y13925000D01*
X8205000Y13425000D02*
X8205000Y13925000D01*
X9205000Y13925000D02*
X9205000Y13425000D01*
X9205000Y13425000D02*
X8205000Y13425000D01*
X21995000Y4175000D02*
X22495000Y4175000D01*
X21995000Y3175000D02*
X21995000Y4175000D01*
X22495000Y4175000D02*
X22495000Y3175000D01*
X22495000Y3175000D02*
X21995000Y3175000D01*
X18685000Y3944000D02*
X19085000Y4344000D01*
X18685000Y1444000D02*
X18685000Y3944000D01*
X19085000Y4344000D02*
X20285000Y4344000D01*
X20285000Y4344000D02*
X20285000Y1444000D01*
X20285000Y1444000D02*
X18685000Y1444000D01*
X7750000Y12930000D02*
X9660000Y11940000D01*
X7750000Y11940000D02*
X9660000Y12930000D01*
M02*
