%TF.GenerationSoftware,KiCad,Pcbnew,9.0.3*%
%TF.CreationDate,2025-08-02T14:53:28+05:30*%
%TF.ProjectId,ESPNut-D1,4553504e-7574-42d4-9431-2e6b69636164,0.3*%
%TF.SameCoordinates,Original*%
%TF.FileFunction,Copper,L1,Top*%
%TF.FilePolarity,Positive*%
%FSLAX46Y46*%
G04 Gerber Fmt 4.6, Leading zero omitted, Abs format (unit mm)*
G04 Created by KiCad (PCBNEW 9.0.3) date 2025-08-02 14:53:28*
%MOMM*%
%LPD*%
G01*
G04 APERTURE LIST*
G04 Aperture macros list*
%AMRoundRect*
0 Rectangle with rounded corners*
0 $1 Rounding radius*
0 $2 $3 $4 $5 $6 $7 $8 $9 X,Y pos of 4 corners*
0 Add a 4 corners polygon primitive as box body*
4,1,4,$2,$3,$4,$5,$6,$7,$8,$9,$2,$3,0*
0 Add four circle primitives for the rounded corners*
1,1,$1+$1,$2,$3*
1,1,$1+$1,$4,$5*
1,1,$1+$1,$6,$7*
1,1,$1+$1,$8,$9*
0 Add four rect primitives between the rounded corners*
20,1,$1+$1,$2,$3,$4,$5,0*
20,1,$1+$1,$4,$5,$6,$7,0*
20,1,$1+$1,$6,$7,$8,$9,0*
20,1,$1+$1,$8,$9,$2,$3,0*%
%AMFreePoly0*
4,1,15,-0.500000,0.200000,-0.480423,0.323607,-0.423607,0.435114,-0.335114,0.523607,-0.223607,0.580423,-0.100000,0.600000,0.500000,0.600000,0.500000,-0.600000,-0.100000,-0.600000,-0.223607,-0.580423,-0.335114,-0.523607,-0.423607,-0.435114,-0.480423,-0.323607,-0.500000,-0.200000,-0.500000,0.200000,-0.500000,0.200000,$1*%
%AMFreePoly1*
4,1,15,-0.500000,0.600000,0.100000,0.600000,0.223607,0.580423,0.335114,0.523607,0.423607,0.435114,0.480423,0.323607,0.500000,0.200000,0.500000,-0.200000,0.480423,-0.323607,0.423607,-0.435114,0.335114,-0.523607,0.223607,-0.580423,0.100000,-0.600000,-0.500000,-0.600000,-0.500000,0.600000,-0.500000,0.600000,$1*%
G04 Aperture macros list end*
%TA.AperFunction,SMDPad,CuDef*%
%ADD10R,1.000000X0.800000*%
%TD*%
%TA.AperFunction,SMDPad,CuDef*%
%ADD11R,0.700000X1.500000*%
%TD*%
%TA.AperFunction,SMDPad,CuDef*%
%ADD12R,0.510000X0.400000*%
%TD*%
%TA.AperFunction,SMDPad,CuDef*%
%ADD13RoundRect,0.135000X0.185000X-0.135000X0.185000X0.135000X-0.185000X0.135000X-0.185000X-0.135000X0*%
%TD*%
%TA.AperFunction,SMDPad,CuDef*%
%ADD14RoundRect,0.135000X-0.135000X-0.185000X0.135000X-0.185000X0.135000X0.185000X-0.135000X0.185000X0*%
%TD*%
%TA.AperFunction,SMDPad,CuDef*%
%ADD15RoundRect,0.135000X0.135000X0.185000X-0.135000X0.185000X-0.135000X-0.185000X0.135000X-0.185000X0*%
%TD*%
%TA.AperFunction,SMDPad,CuDef*%
%ADD16RoundRect,0.150000X-0.825000X-0.150000X0.825000X-0.150000X0.825000X0.150000X-0.825000X0.150000X0*%
%TD*%
%TA.AperFunction,SMDPad,CuDef*%
%ADD17RoundRect,0.150000X-0.512500X-0.150000X0.512500X-0.150000X0.512500X0.150000X-0.512500X0.150000X0*%
%TD*%
%TA.AperFunction,SMDPad,CuDef*%
%ADD18FreePoly0,90.000000*%
%TD*%
%TA.AperFunction,SMDPad,CuDef*%
%ADD19FreePoly1,90.000000*%
%TD*%
%TA.AperFunction,SMDPad,CuDef*%
%ADD20RoundRect,0.140000X0.140000X0.170000X-0.140000X0.170000X-0.140000X-0.170000X0.140000X-0.170000X0*%
%TD*%
%TA.AperFunction,SMDPad,CuDef*%
%ADD21R,0.400000X1.900000*%
%TD*%
%TA.AperFunction,SMDPad,CuDef*%
%ADD22RoundRect,0.135000X-0.185000X0.135000X-0.185000X-0.135000X0.185000X-0.135000X0.185000X0.135000X0*%
%TD*%
%TA.AperFunction,SMDPad,CuDef*%
%ADD23RoundRect,0.140000X-0.140000X-0.170000X0.140000X-0.170000X0.140000X0.170000X-0.140000X0.170000X0*%
%TD*%
%TA.AperFunction,SMDPad,CuDef*%
%ADD24RoundRect,0.218750X-0.218750X-0.256250X0.218750X-0.256250X0.218750X0.256250X-0.218750X0.256250X0*%
%TD*%
%TA.AperFunction,SMDPad,CuDef*%
%ADD25R,1.000000X0.700000*%
%TD*%
%TA.AperFunction,SMDPad,CuDef*%
%ADD26R,0.600000X0.700000*%
%TD*%
%TA.AperFunction,SMDPad,CuDef*%
%ADD27RoundRect,0.250000X0.400000X0.275000X-0.400000X0.275000X-0.400000X-0.275000X0.400000X-0.275000X0*%
%TD*%
%TA.AperFunction,SMDPad,CuDef*%
%ADD28R,1.150000X1.700000*%
%TD*%
%TA.AperFunction,SMDPad,CuDef*%
%ADD29RoundRect,0.140000X0.170000X-0.140000X0.170000X0.140000X-0.170000X0.140000X-0.170000X-0.140000X0*%
%TD*%
%TA.AperFunction,SMDPad,CuDef*%
%ADD30RoundRect,0.150000X-0.425000X0.150000X-0.425000X-0.150000X0.425000X-0.150000X0.425000X0.150000X0*%
%TD*%
%TA.AperFunction,SMDPad,CuDef*%
%ADD31RoundRect,0.075000X-0.500000X0.075000X-0.500000X-0.075000X0.500000X-0.075000X0.500000X0.075000X0*%
%TD*%
%TA.AperFunction,SMDPad,CuDef*%
%ADD32RoundRect,0.250000X-0.750000X0.840000X-0.750000X-0.840000X0.750000X-0.840000X0.750000X0.840000X0*%
%TD*%
%TA.AperFunction,ComponentPad*%
%ADD33R,1.000000X1.000000*%
%TD*%
%TA.AperFunction,ComponentPad*%
%ADD34O,1.000000X1.000000*%
%TD*%
%TA.AperFunction,SMDPad,CuDef*%
%ADD35FreePoly0,180.000000*%
%TD*%
%TA.AperFunction,SMDPad,CuDef*%
%ADD36FreePoly1,180.000000*%
%TD*%
%TA.AperFunction,SMDPad,CuDef*%
%ADD37C,0.750000*%
%TD*%
%TA.AperFunction,SMDPad,CuDef*%
%ADD38RoundRect,0.150000X0.625000X-0.150000X0.625000X0.150000X-0.625000X0.150000X-0.625000X-0.150000X0*%
%TD*%
%TA.AperFunction,SMDPad,CuDef*%
%ADD39RoundRect,0.250000X0.650000X-0.350000X0.650000X0.350000X-0.650000X0.350000X-0.650000X-0.350000X0*%
%TD*%
%TA.AperFunction,SMDPad,CuDef*%
%ADD40RoundRect,0.140000X-0.170000X0.140000X-0.170000X-0.140000X0.170000X-0.140000X0.170000X0.140000X0*%
%TD*%
%TA.AperFunction,ViaPad*%
%ADD41C,0.600000*%
%TD*%
%TA.AperFunction,ViaPad*%
%ADD42C,0.450000*%
%TD*%
%TA.AperFunction,ViaPad*%
%ADD43C,0.800000*%
%TD*%
%TA.AperFunction,Conductor*%
%ADD44C,0.450000*%
%TD*%
%TA.AperFunction,Conductor*%
%ADD45C,0.400000*%
%TD*%
%TA.AperFunction,Conductor*%
%ADD46C,0.300000*%
%TD*%
%TA.AperFunction,Conductor*%
%ADD47C,0.500000*%
%TD*%
%TA.AperFunction,Conductor*%
%ADD48C,0.250000*%
%TD*%
%TA.AperFunction,Conductor*%
%ADD49C,0.200000*%
%TD*%
G04 APERTURE END LIST*
D10*
X35349000Y17095000D03*
X35349000Y19305000D03*
X28049000Y17095000D03*
X28049000Y19305000D03*
D11*
X33949000Y16445000D03*
X30949000Y16445000D03*
X29449000Y16445000D03*
D12*
X21040000Y7775000D03*
X21040000Y6775000D03*
X22330000Y7275000D03*
D13*
X22214999Y12035001D03*
X22214999Y13054999D03*
X28405000Y4779002D03*
X28405000Y5799000D03*
D14*
X21245001Y11115000D03*
X22264999Y11115000D03*
X18955000Y11115000D03*
X19975000Y11115000D03*
D15*
X24220000Y8015000D03*
X23200000Y8015000D03*
D16*
X10750000Y13844000D03*
X10750000Y12574000D03*
X10750000Y11304000D03*
X10750000Y10034000D03*
X10750000Y8764000D03*
X10750000Y7494000D03*
X10750000Y6224000D03*
X10750000Y4954000D03*
X15700000Y4954000D03*
X15700000Y6224000D03*
X15700000Y7494000D03*
X15700000Y8764000D03*
X15700000Y10034000D03*
X15700000Y11304000D03*
X15700000Y12574000D03*
X15700000Y13844000D03*
D15*
X9245000Y11904000D03*
X8225000Y11904000D03*
D12*
X21040000Y10025000D03*
X21040000Y9025000D03*
X22330000Y9525000D03*
D14*
X4625000Y17655000D03*
X5645000Y17655000D03*
D13*
X27391575Y4744581D03*
X27391575Y5764579D03*
D17*
X23397500Y5269000D03*
X23397500Y4319000D03*
X23397500Y3369000D03*
X25672500Y3369000D03*
X25672500Y5269000D03*
D18*
X24750000Y17435001D03*
D19*
X24750000Y18734999D03*
D20*
X12555000Y15305000D03*
X11595000Y15305000D03*
D21*
X14230000Y2640000D03*
X13030000Y2640000D03*
X11830000Y2640000D03*
D22*
X17605000Y14684000D03*
X17605000Y13664000D03*
D23*
X21655000Y1544000D03*
X22615000Y1544000D03*
D13*
X8475000Y15075000D03*
X8475000Y16095000D03*
D12*
X18820000Y13393000D03*
X18820000Y12393000D03*
X20110000Y12893000D03*
D24*
X18227500Y8015000D03*
X19802500Y8015000D03*
D25*
X8725000Y1305000D03*
D26*
X10425000Y1305000D03*
X10425000Y3305000D03*
X8525000Y3305000D03*
D27*
X20185000Y5125000D03*
X18235000Y5125000D03*
D10*
X28049000Y2891792D03*
X28049000Y681792D03*
X35349000Y2891792D03*
X35349000Y681792D03*
D11*
X29449000Y3541792D03*
X32449000Y3541792D03*
X33949000Y3541792D03*
D28*
X42199000Y1960000D03*
X37849000Y1960000D03*
D29*
X16365000Y1524000D03*
X16365000Y2484000D03*
D30*
X6555000Y13200000D03*
X6555000Y12400000D03*
D31*
X6555000Y11250000D03*
X6555000Y10250000D03*
X6555000Y9750000D03*
X6555000Y8750000D03*
D30*
X6555000Y7600000D03*
X6555000Y6800000D03*
X6555000Y6800000D03*
X6555000Y7600000D03*
D31*
X6555000Y8250000D03*
X6555000Y9250000D03*
X6555000Y10750000D03*
X6555000Y11750000D03*
D30*
X6555000Y12400000D03*
X6555000Y13200000D03*
D32*
X5980000Y15110000D03*
X2050000Y15110000D03*
X5980000Y4890000D03*
X2050000Y4890000D03*
D33*
X25859000Y10448000D03*
D34*
X24589000Y10448000D03*
X25859000Y11718000D03*
X24589000Y11718000D03*
X25859000Y12988000D03*
X24589000Y12988000D03*
D24*
X32286500Y12659000D03*
X33861500Y12659000D03*
D14*
X23245000Y6745000D03*
X24264998Y6745000D03*
D28*
X17565000Y18150000D03*
X13215000Y18150000D03*
D35*
X30859999Y7200000D03*
D36*
X29560001Y7200000D03*
D13*
X20745000Y17575001D03*
X20745000Y18594999D03*
D12*
X18820000Y15704000D03*
X18820000Y14704000D03*
X20110000Y15204000D03*
D28*
X42199000Y18040000D03*
X37849000Y18040000D03*
D24*
X7017500Y17705000D03*
X8592500Y17705000D03*
D14*
X18955000Y6745000D03*
X19975000Y6745000D03*
D24*
X18227500Y9805000D03*
X19802500Y9805000D03*
D37*
X36200000Y14000000D03*
D38*
X38896999Y7500000D03*
X38897000Y8500000D03*
X38897000Y9500000D03*
X38897000Y10500000D03*
X38897000Y11500000D03*
X38896999Y12500000D03*
D39*
X42772000Y6200000D03*
X42772000Y13800000D03*
D14*
X29369000Y12659000D03*
X30389000Y12659000D03*
D22*
X6725000Y2514000D03*
X6725000Y1494000D03*
D18*
X22375000Y17435001D03*
D19*
X22375000Y18734999D03*
D13*
X17605000Y11065000D03*
X17605000Y12085000D03*
D20*
X9195000Y13174000D03*
X8235000Y13174000D03*
D40*
X21685000Y3464000D03*
X21685000Y2504000D03*
D17*
X18047500Y3444000D03*
X18047500Y2494000D03*
X18047500Y1544000D03*
X20322500Y1544000D03*
X20322500Y3444000D03*
D13*
X26385000Y17575001D03*
X26385000Y18594999D03*
D41*
X17400000Y6200000D03*
X40800000Y18200000D03*
X23600000Y16200000D03*
X26000000Y16200000D03*
X23800000Y1600000D03*
X23400000Y11000000D03*
X4600000Y2000000D03*
X19000000Y19000000D03*
X36600000Y12400000D03*
X38800000Y14800000D03*
X28000000Y4000000D03*
X4600000Y1000000D03*
X12400000Y10000000D03*
X12400000Y8400000D03*
X10600000Y19000000D03*
X19000000Y17000000D03*
X23600000Y19000000D03*
X16000000Y17000000D03*
X12200000Y4400000D03*
X34800000Y6000000D03*
X19200000Y4200000D03*
X39600000Y14800000D03*
X40800000Y19000000D03*
X5980000Y15110000D03*
X22200000Y4400000D03*
X4600000Y19000000D03*
X31400000Y1200000D03*
X5400000Y19000000D03*
X36800000Y5200000D03*
X10000000Y15800000D03*
X10000000Y16600000D03*
X18047500Y2494000D03*
X17400000Y6800000D03*
X40800000Y1800000D03*
X18235000Y8000000D03*
X17400000Y8800000D03*
X36600000Y16000000D03*
X32200000Y2000000D03*
X35200000Y16000000D03*
X29000000Y18200000D03*
X13030000Y2640000D03*
X24800000Y4400000D03*
X15400000Y3000000D03*
X23400000Y11800000D03*
X19600000Y13800000D03*
X31800000Y19200000D03*
X15400000Y1800000D03*
X21000000Y16200000D03*
X5980000Y4890000D03*
X35800000Y5200000D03*
X34800000Y5200000D03*
X15400000Y2400000D03*
X34800000Y6800000D03*
X36600000Y19200000D03*
X21300000Y4400000D03*
X32200000Y1200000D03*
X25400000Y4400000D03*
X16600000Y14800000D03*
X2050000Y15110000D03*
X15200000Y17000000D03*
X40800000Y1000000D03*
X31400000Y2000000D03*
X10000000Y15000000D03*
X31800000Y18200000D03*
D42*
X6600000Y7600000D03*
X8600000Y17705000D03*
D43*
X1400000Y12200000D03*
D42*
X6555000Y12400000D03*
X26400000Y17100000D03*
D43*
X34680193Y3867557D03*
D42*
X20800000Y17100000D03*
X28850000Y14600000D03*
D43*
X20300000Y2650000D03*
D42*
X7017500Y17705000D03*
X21100000Y15200000D03*
D41*
X38075001Y18055000D03*
X1400000Y10800000D03*
D42*
X5276386Y9680238D03*
D41*
X1400000Y9200000D03*
D42*
X7516200Y10300000D03*
X38300000Y1950000D03*
D41*
X41100000Y13050000D03*
D42*
X40408926Y5421287D03*
X25672500Y3369000D03*
D41*
X14750000Y18150000D03*
D43*
X40388489Y6461511D03*
X33250000Y16500000D03*
D42*
X7500000Y11262032D03*
X8400000Y14300000D03*
X15700000Y11304000D03*
X18800000Y15000000D03*
X15700000Y10034000D03*
X17600000Y13700000D03*
X27391575Y5764579D03*
X12000000Y11300000D03*
X23150000Y8525000D03*
X15700000Y12574000D03*
X15700000Y4954000D03*
X15700000Y6224000D03*
X15700000Y7494000D03*
X15700000Y8764000D03*
X32400000Y12679000D03*
D43*
X31700000Y16500000D03*
X31150000Y8250000D03*
D41*
X41350000Y10500000D03*
D42*
X23100000Y12700000D03*
D41*
X41300000Y9500000D03*
D42*
X28150000Y9850000D03*
X25300000Y7900000D03*
X21800000Y13050000D03*
X11900000Y12600000D03*
D44*
X6555000Y13200000D02*
X6555000Y14535000D01*
D45*
X18235000Y8000000D02*
X18235000Y9797500D01*
D44*
X6555000Y14535000D02*
X5980000Y15110000D01*
X6555000Y6800000D02*
X6555000Y5465000D01*
X23928744Y4319000D02*
X24486000Y3761744D01*
D46*
X22384000Y3007322D02*
X22384000Y3967999D01*
X22384000Y3967999D02*
X22735001Y4319000D01*
X22735001Y4319000D02*
X23397500Y4319000D01*
X8235000Y13222260D02*
X8856740Y13844000D01*
D44*
X24486000Y3761744D02*
X24486000Y2186000D01*
D47*
X16365000Y3278100D02*
X18211900Y5125000D01*
D44*
X23844000Y1544000D02*
X22615000Y1544000D01*
D46*
X8235000Y13174000D02*
X8235000Y13222260D01*
D44*
X2080000Y15110000D02*
X4625000Y17655000D01*
X6725000Y1494000D02*
X8536000Y1494000D01*
X6555000Y5465000D02*
X5980000Y4890000D01*
D46*
X8856740Y13844000D02*
X10750000Y13844000D01*
D47*
X16365000Y2484000D02*
X16365000Y3278100D01*
D45*
X18235000Y5125000D02*
X18235000Y8000000D01*
D44*
X24486000Y2186000D02*
X23844000Y1544000D01*
X23397500Y4319000D02*
X23928744Y4319000D01*
D46*
X21685000Y2504000D02*
X21880678Y2504000D01*
D47*
X15494000Y2494000D02*
X15400000Y2400000D01*
D44*
X2050000Y15110000D02*
X2080000Y15110000D01*
X8536000Y1494000D02*
X8725000Y1305000D01*
D45*
X18235000Y9797500D02*
X18227500Y9805000D01*
D47*
X18047500Y2494000D02*
X15494000Y2494000D01*
D46*
X21880678Y2504000D02*
X22384000Y3007322D01*
D47*
X18211900Y5125000D02*
X18235000Y5125000D01*
D48*
X10095000Y10034000D02*
X10750000Y10034000D01*
X9195000Y12874000D02*
X8225000Y11904000D01*
X8225000Y11904000D02*
X10095000Y10034000D01*
X9195000Y13174000D02*
X9195000Y12874000D01*
D45*
X2400000Y12200000D02*
X3800000Y13600000D01*
X6555000Y12400000D02*
X7113388Y12400000D01*
X6600000Y7600000D02*
X7129999Y7600000D01*
D47*
X19094000Y1544000D02*
X19161000Y1611000D01*
D45*
X7113388Y12400000D02*
X7531000Y12817612D01*
X12555000Y15614999D02*
X12555000Y15305000D01*
X6555000Y7600000D02*
X6600000Y7600000D01*
X9430000Y2300000D02*
X10425000Y1305000D01*
X4543500Y16643500D02*
X7531000Y16643500D01*
X8600000Y17705000D02*
X10464999Y17705000D01*
D47*
X26480000Y670000D02*
X27490000Y1680000D01*
X19679900Y670000D02*
X26480000Y670000D01*
D45*
X12555000Y15305000D02*
X14239000Y15305000D01*
X1400000Y12200000D02*
X2400000Y12200000D01*
D47*
X19161000Y1611000D02*
X19161000Y2992999D01*
X19161000Y1188900D02*
X19679900Y670000D01*
D45*
X7531000Y16643500D02*
X8592500Y17705000D01*
D47*
X28410000Y1680000D02*
X29449000Y2719000D01*
D45*
X8300000Y2300000D02*
X9430000Y2300000D01*
X10464999Y17705000D02*
X12555000Y15614999D01*
D47*
X19161000Y1611000D02*
X19161000Y1188900D01*
D45*
X7531000Y12817612D02*
X7531000Y16643500D01*
D47*
X19161000Y2992999D02*
X18709999Y3444000D01*
D45*
X3800000Y13600000D02*
X3800000Y15900000D01*
D47*
X29449000Y2719000D02*
X29449000Y3541792D01*
D45*
X14239000Y15305000D02*
X15700000Y13844000D01*
X10700000Y1030000D02*
X15871000Y1030000D01*
D47*
X18709999Y3444000D02*
X18047500Y3444000D01*
X18047500Y1544000D02*
X19094000Y1544000D01*
D45*
X8592500Y17705000D02*
X8600000Y17705000D01*
D47*
X27490000Y1680000D02*
X28410000Y1680000D01*
D45*
X15871000Y1030000D02*
X16365000Y1524000D01*
X7574000Y7155999D02*
X7574000Y3026000D01*
X7129999Y7600000D02*
X7574000Y7155999D01*
X3800000Y15900000D02*
X4543500Y16643500D01*
D47*
X16365000Y1524000D02*
X18027500Y1524000D01*
D45*
X7574000Y3026000D02*
X8300000Y2300000D01*
X10425000Y1305000D02*
X10700000Y1030000D01*
D47*
X18027500Y1524000D02*
X18047500Y1544000D01*
D46*
X20322500Y1544000D02*
X21655000Y1544000D01*
D47*
X20322500Y3444000D02*
X20322500Y2672500D01*
D46*
X28850000Y14650000D02*
X26400000Y17100000D01*
D47*
X21665000Y3444000D02*
X21685000Y3464000D01*
X34274765Y3867557D02*
X33949000Y3541792D01*
X34680193Y3867557D02*
X34274765Y3867557D01*
D46*
X20700000Y17530001D02*
X20745000Y17575001D01*
D47*
X20322500Y2672500D02*
X20300000Y2650000D01*
X20185000Y3581500D02*
X20322500Y3444000D01*
D46*
X20700000Y17200000D02*
X20700000Y17530001D01*
D47*
X20322500Y3444000D02*
X21665000Y3444000D01*
D46*
X28850000Y14600000D02*
X28850000Y14650000D01*
X26385000Y17115000D02*
X26400000Y17100000D01*
D47*
X20185000Y5225000D02*
X20185000Y3581500D01*
D46*
X20800000Y17100000D02*
X20700000Y17200000D01*
X26385000Y17575001D02*
X26385000Y17115000D01*
X5645000Y17655000D02*
X6967500Y17655000D01*
X6967500Y17655000D02*
X7017500Y17705000D01*
X22375000Y16475000D02*
X22375000Y17435001D01*
X21104000Y15204000D02*
X22375000Y16475000D01*
X38896999Y12500000D02*
X37849000Y13547999D01*
X20110000Y15204000D02*
X21104000Y15204000D01*
X21096000Y15204000D02*
X21100000Y15200000D01*
X20110000Y15204000D02*
X21096000Y15204000D01*
X37849000Y13547999D02*
X37849000Y18040000D01*
D49*
X9734032Y4353000D02*
X9474000Y4613032D01*
X10750000Y7494000D02*
X10081000Y8163000D01*
X5679000Y10482824D02*
X5679000Y10017176D01*
X7442501Y9775000D02*
X7417501Y9750000D01*
X9902001Y4353000D02*
X9734032Y4353000D01*
X5946176Y9750000D02*
X6555000Y9750000D01*
X6555000Y10750000D02*
X1450000Y10750000D01*
X10425000Y3830001D02*
X9902001Y4353000D01*
X9474000Y8770000D02*
X8469000Y9775000D01*
X5679000Y10017176D02*
X5946176Y9750000D01*
X5946176Y10750000D02*
X5679000Y10482824D01*
X10081000Y8163000D02*
X9734032Y8163000D01*
X7417501Y9750000D02*
X6555000Y9750000D01*
X8469000Y9775000D02*
X7442501Y9775000D01*
X10425000Y3305000D02*
X10425000Y3830001D01*
X8525000Y7393198D02*
X8525000Y8843198D01*
X7442501Y9725000D02*
X7417501Y9750000D01*
X8525000Y8843198D02*
X7643198Y9725000D01*
X6555000Y10750000D02*
X5946176Y10750000D01*
X9474000Y6444198D02*
X8525000Y7393198D01*
X1450000Y10750000D02*
X1400000Y10800000D01*
X9734032Y8163000D02*
X9474000Y8423032D01*
X9474000Y8423032D02*
X9474000Y8770000D01*
X7643198Y9725000D02*
X7442501Y9725000D01*
X9474000Y4613032D02*
X9474000Y6444198D01*
X8075000Y7206802D02*
X8075000Y8656802D01*
X10116397Y8764000D02*
X8655397Y10225000D01*
X9024020Y6257782D02*
X8075000Y7206802D01*
X8075000Y8656802D02*
X7456802Y9275000D01*
X8525000Y3305000D02*
X8525000Y3830001D01*
X5276386Y9680238D02*
X4796148Y9200000D01*
X7442501Y10225000D02*
X7417501Y10250000D01*
X7456802Y9275000D02*
X7442501Y9275000D01*
X5706624Y9250000D02*
X5276386Y9680238D01*
X9024020Y4329021D02*
X9024020Y6257782D01*
X8655397Y10225000D02*
X7442501Y10225000D01*
X7417501Y9250000D02*
X6555000Y9250000D01*
X8525000Y3830001D02*
X9024020Y4329021D01*
X10750000Y8764000D02*
X10116397Y8764000D01*
X4796148Y9200000D02*
X1400000Y9200000D01*
X7417501Y10250000D02*
X6555000Y10250000D01*
X7442501Y9275000D02*
X7417501Y9250000D01*
X6555000Y9250000D02*
X5706624Y9250000D01*
D46*
X38290000Y1960000D02*
X38300000Y1950000D01*
X26400000Y13950000D02*
X24589000Y13950000D01*
X42000000Y7750000D02*
X41200000Y6950000D01*
X41270654Y11500000D02*
X42000000Y10770654D01*
X20193000Y12893000D02*
X21250000Y13950000D01*
X42000000Y10770654D02*
X42000000Y7750000D01*
X37849000Y1960000D02*
X38290000Y1960000D01*
X21250000Y13950000D02*
X24589000Y13950000D01*
X41100000Y11500000D02*
X41270654Y11500000D01*
X28850000Y11500000D02*
X26400000Y13950000D01*
X24589000Y17274001D02*
X24750000Y17435001D01*
X41200000Y6212361D02*
X40408926Y5421287D01*
X41100000Y11500000D02*
X38897000Y11500000D01*
X41200000Y6950000D02*
X41200000Y6212361D01*
X41100000Y13050000D02*
X41100000Y11500000D01*
X24589000Y13950000D02*
X24589000Y17274001D01*
X38897000Y11500000D02*
X28850000Y11500000D01*
X24589000Y12988000D02*
X24589000Y13950000D01*
X20120000Y12893000D02*
X20193000Y12893000D01*
D45*
X27425996Y4779002D02*
X28405000Y4779002D01*
X27391575Y4744581D02*
X27425996Y4779002D01*
X25672500Y3369000D02*
X25915994Y3369000D01*
X27291575Y4744581D02*
X27391575Y4744581D01*
X14750000Y18150000D02*
X13215000Y18150000D01*
X25915994Y3369000D02*
X27291575Y4744581D01*
D47*
X40350000Y8200000D02*
X40050000Y8500000D01*
X25231000Y9174000D02*
X25102500Y9302500D01*
X33949000Y12712500D02*
X34002500Y12659000D01*
X25102500Y9302500D02*
X24589000Y9816000D01*
X40388489Y6461511D02*
X40388489Y6711511D01*
X38897000Y8500000D02*
X35400000Y8500000D01*
D46*
X22330000Y9525000D02*
X24880000Y9525000D01*
D47*
X35400000Y8500000D02*
X34726000Y9174000D01*
X24589000Y9816000D02*
X24589000Y10448000D01*
X33894000Y16500000D02*
X33949000Y16445000D01*
X33949000Y16445000D02*
X33949000Y12712500D01*
X40050000Y8500000D02*
X38897000Y8500000D01*
D46*
X24880000Y9525000D02*
X25102500Y9302500D01*
D47*
X40388489Y6711511D02*
X40350000Y6750000D01*
D46*
X22330000Y7275000D02*
X22330000Y9525000D01*
D47*
X33250000Y16500000D02*
X33894000Y16500000D01*
X40350000Y6750000D02*
X40350000Y8200000D01*
X34726000Y9174000D02*
X25231000Y9174000D01*
D48*
X4500000Y7500000D02*
X5250000Y8250000D01*
X5250000Y8250000D02*
X6555000Y8250000D01*
X4500000Y3600000D02*
X4500000Y7500000D01*
X5586000Y2514000D02*
X4500000Y3600000D01*
X6725000Y2514000D02*
X5586000Y2514000D01*
X8475000Y14375000D02*
X8400000Y14300000D01*
X8475000Y15075000D02*
X8475000Y14375000D01*
X7500000Y11262032D02*
X6567032Y11262032D01*
X6567032Y11262032D02*
X6555000Y11250000D01*
D47*
X32449000Y3851000D02*
X29560001Y6739999D01*
X25672500Y5269000D02*
X27603500Y7200000D01*
X28500000Y7200000D02*
X29560001Y7200000D01*
X27603500Y7200000D02*
X28500000Y7200000D01*
X29560001Y6739999D02*
X29560001Y7200000D01*
X32449000Y3541792D02*
X32449000Y3851000D01*
X28405000Y7105000D02*
X28500000Y7200000D01*
X28405000Y5799000D02*
X28405000Y7105000D01*
D46*
X17485000Y12085000D02*
X17605000Y12085000D01*
X16704000Y11304000D02*
X17485000Y12085000D01*
X18800000Y14724000D02*
X18820000Y14704000D01*
X15700000Y11304000D02*
X16704000Y11304000D01*
X18800000Y15000000D02*
X18800000Y14724000D01*
X17605000Y14684000D02*
X17642000Y14684000D01*
X17642000Y14684000D02*
X18662000Y15704000D01*
X18662000Y15704000D02*
X18820000Y15704000D01*
X19436000Y12787000D02*
X18830000Y13393000D01*
X17605000Y11065000D02*
X17685000Y11065000D01*
X19436000Y12036000D02*
X19436000Y12787000D01*
X17685000Y11065000D02*
X18462000Y11842000D01*
X19242000Y11842000D02*
X19436000Y12036000D01*
X18462000Y11842000D02*
X19242000Y11842000D01*
X17605000Y13664000D02*
X17605000Y13556500D01*
X17605000Y13556500D02*
X18768500Y12393000D01*
X18768500Y12393000D02*
X18830000Y12393000D01*
X23150000Y8525000D02*
X23150000Y8065000D01*
D48*
X9696000Y11304000D02*
X10750000Y11304000D01*
D46*
X23150000Y8065000D02*
X23200000Y8015000D01*
X10750000Y11304000D02*
X11996000Y11304000D01*
D48*
X9245000Y11904000D02*
X9245000Y11755000D01*
X9245000Y11755000D02*
X9696000Y11304000D01*
D46*
X23200000Y8015000D02*
X23215000Y8000000D01*
X11996000Y11304000D02*
X12000000Y11300000D01*
D49*
X11830000Y2640000D02*
X11830000Y3874000D01*
X11830000Y3874000D02*
X10750000Y4954000D01*
X11396000Y6224000D02*
X10750000Y6224000D01*
X14230000Y2640000D02*
X14230000Y3390000D01*
X14230000Y3390000D02*
X11396000Y6224000D01*
D47*
X32407500Y12679000D02*
X32427500Y12659000D01*
X30625000Y12679000D02*
X32400000Y12679000D01*
X32400000Y12679000D02*
X32407500Y12679000D01*
D46*
X20745000Y18594999D02*
X22235000Y18594999D01*
X22235000Y18594999D02*
X22375000Y18734999D01*
X24750000Y18734999D02*
X26245000Y18734999D01*
X26245000Y18734999D02*
X26385000Y18594999D01*
D47*
X30950000Y8250000D02*
X30949000Y8251000D01*
X30859999Y7959999D02*
X31150000Y8250000D01*
X24069000Y5269000D02*
X23397500Y5269000D01*
X30859999Y7200000D02*
X30859999Y7959999D01*
X27051000Y8251000D02*
X24069000Y5269000D01*
X31150000Y8250000D02*
X30950000Y8250000D01*
X30949000Y8251000D02*
X27051000Y8251000D01*
X31700000Y16500000D02*
X31004000Y16500000D01*
X31004000Y16500000D02*
X30949000Y16445000D01*
D46*
X19915000Y11115000D02*
X19950000Y11080000D01*
X19950000Y11080000D02*
X19950000Y9952500D01*
X19950000Y9952500D02*
X19802500Y9805000D01*
X19950000Y7867500D02*
X19802500Y8015000D01*
X19975000Y6745000D02*
X19950000Y6770000D01*
X19950000Y6770000D02*
X19950000Y7867500D01*
X19802500Y8015000D02*
X19692500Y8015000D01*
X26162000Y12988000D02*
X25859000Y12988000D01*
X22214999Y11165000D02*
X22264999Y11115000D01*
X41350000Y10500000D02*
X38897000Y10500000D01*
X23100000Y12700000D02*
X22435001Y12035001D01*
X22435001Y12035001D02*
X22214999Y12035001D01*
X38897000Y10500000D02*
X28650000Y10500000D01*
X22214999Y12035001D02*
X22214999Y11165000D01*
X28650000Y10500000D02*
X26162000Y12988000D01*
D45*
X24200000Y6809998D02*
X24264998Y6745000D01*
D46*
X28100000Y9850000D02*
X26232000Y11718000D01*
X24335000Y7900000D02*
X25300000Y7900000D01*
X38897000Y9500000D02*
X38547000Y9850000D01*
D45*
X24220000Y8015000D02*
X24200000Y7995000D01*
D46*
X24220000Y8015000D02*
X24335000Y7900000D01*
D45*
X24200000Y7995000D02*
X24200000Y6809998D01*
D46*
X38547000Y9850000D02*
X28100000Y9850000D01*
X26232000Y11718000D02*
X25859000Y11718000D01*
X41300000Y9500000D02*
X38897000Y9500000D01*
D48*
X20915000Y8900000D02*
X19300000Y8900000D01*
X18895000Y10975000D02*
X18895000Y11115000D01*
X19300000Y8900000D02*
X19000000Y9200000D01*
X21040000Y9025000D02*
X20915000Y8900000D01*
X19000000Y10870000D02*
X18895000Y10975000D01*
X19000000Y9200000D02*
X19000000Y10870000D01*
D46*
X21245001Y10230001D02*
X21040000Y10025000D01*
X21245001Y11115000D02*
X21245001Y10230001D01*
X18955000Y6445000D02*
X19326000Y6074000D01*
X18955000Y6745000D02*
X18955000Y6445000D01*
X19326000Y6074000D02*
X20339000Y6074000D01*
X20339000Y6074000D02*
X21040000Y6775000D01*
D48*
X21700000Y7250000D02*
X21700000Y6900000D01*
X21865000Y6735000D02*
X23235000Y6735000D01*
X21175000Y7775000D02*
X21700000Y7250000D01*
X23235000Y6735000D02*
X23245000Y6745000D01*
X21040000Y7775000D02*
X21175000Y7775000D01*
X21700000Y6900000D02*
X21865000Y6735000D01*
D46*
X11874000Y12574000D02*
X11900000Y12600000D01*
X10750000Y12574000D02*
X11874000Y12574000D01*
X21804999Y13054999D02*
X22214999Y13054999D01*
X21800000Y13050000D02*
X21804999Y13054999D01*
%TA.AperFunction,Conductor*%
G36*
X22014786Y19679815D02*
G01*
X22060541Y19627011D01*
X22070485Y19557853D01*
X22041460Y19494297D01*
X21982682Y19456523D01*
X21982342Y19456424D01*
X21914606Y19436745D01*
X21914603Y19436744D01*
X21773137Y19353082D01*
X21773129Y19353076D01*
X21656923Y19236870D01*
X21656917Y19236862D01*
X21573256Y19095399D01*
X21573254Y19095394D01*
X21570207Y19084903D01*
X21555893Y19062491D01*
X21544844Y19038296D01*
X21537376Y19033497D01*
X21532600Y19026018D01*
X21508442Y19014903D01*
X21486066Y19000522D01*
X21473155Y18998666D01*
X21469127Y18996812D01*
X21451131Y18995499D01*
X21261041Y18995499D01*
X21194002Y19015184D01*
X21173360Y19031818D01*
X21157102Y19048076D01*
X21157099Y19048078D01*
X21041521Y19104580D01*
X21041519Y19104581D01*
X21041518Y19104581D01*
X20966582Y19115499D01*
X20523418Y19115499D01*
X20448482Y19104581D01*
X20448480Y19104581D01*
X20448478Y19104580D01*
X20332900Y19048078D01*
X20332897Y19048076D01*
X20241923Y18957102D01*
X20241921Y18957099D01*
X20185419Y18841521D01*
X20185418Y18841519D01*
X20185418Y18841517D01*
X20174500Y18766581D01*
X20174500Y18423417D01*
X20185418Y18348481D01*
X20185418Y18348480D01*
X20185419Y18348478D01*
X20241921Y18232900D01*
X20241923Y18232897D01*
X20302139Y18172681D01*
X20335624Y18111358D01*
X20330640Y18041666D01*
X20302139Y17997319D01*
X20241923Y17937104D01*
X20241921Y17937101D01*
X20185419Y17821523D01*
X20185418Y17821521D01*
X20185418Y17821519D01*
X20174500Y17746583D01*
X20174500Y17403419D01*
X20185418Y17328483D01*
X20185418Y17328482D01*
X20185419Y17328480D01*
X20241921Y17212902D01*
X20241923Y17212899D01*
X20273058Y17181765D01*
X20281074Y17167880D01*
X20291260Y17158621D01*
X20305152Y17126178D01*
X20318473Y17076462D01*
X20320275Y17069739D01*
X20324500Y17037646D01*
X20324500Y17037399D01*
X20356905Y16916464D01*
X20419505Y16808036D01*
X20508036Y16719505D01*
X20616464Y16656905D01*
X20737399Y16624500D01*
X20737401Y16624500D01*
X20862599Y16624500D01*
X20862601Y16624500D01*
X20983536Y16656905D01*
X21091964Y16719505D01*
X21180495Y16808036D01*
X21243095Y16916464D01*
X21275500Y17037399D01*
X21275500Y17162601D01*
X21269101Y17186482D01*
X21269732Y17213049D01*
X21266644Y17239446D01*
X21270656Y17251891D01*
X21270762Y17256330D01*
X21277475Y17273037D01*
X21286836Y17292184D01*
X21290597Y17299878D01*
X21337724Y17351458D01*
X21405258Y17369372D01*
X21471757Y17347931D01*
X21516107Y17293941D01*
X21525614Y17255146D01*
X21527401Y17232433D01*
X21527402Y17232428D01*
X21573254Y17074608D01*
X21573255Y17074605D01*
X21573256Y17074603D01*
X21579507Y17064033D01*
X21656917Y16933139D01*
X21656923Y16933131D01*
X21773129Y16816925D01*
X21773135Y16816920D01*
X21872683Y16758048D01*
X21920365Y16706981D01*
X21932869Y16638239D01*
X21906224Y16573650D01*
X21897242Y16563636D01*
X21022244Y15688639D01*
X21014814Y15683719D01*
X21011576Y15679135D01*
X20996277Y15671442D01*
X20981077Y15661374D01*
X20974017Y15658518D01*
X20916464Y15643095D01*
X20870907Y15616793D01*
X20862903Y15613554D01*
X20842694Y15611549D01*
X20816389Y15604500D01*
X20553434Y15604500D01*
X20486395Y15624185D01*
X20484574Y15625377D01*
X20462740Y15639966D01*
X20462739Y15639967D01*
X20462738Y15639967D01*
X20389676Y15654500D01*
X20389674Y15654500D01*
X19830326Y15654500D01*
X19830323Y15654500D01*
X19757264Y15639968D01*
X19757260Y15639967D01*
X19674399Y15584601D01*
X19619033Y15501740D01*
X19619032Y15501736D01*
X19604500Y15428679D01*
X19604500Y14979322D01*
X19619032Y14906265D01*
X19619033Y14906261D01*
X19619034Y14906260D01*
X19674399Y14823399D01*
X19735456Y14782603D01*
X19757260Y14768034D01*
X19757264Y14768033D01*
X19830321Y14753501D01*
X19830324Y14753500D01*
X19830326Y14753500D01*
X20389676Y14753500D01*
X20426207Y14760767D01*
X20462740Y14768034D01*
X20484545Y14782604D01*
X20502590Y14788254D01*
X20518499Y14798477D01*
X20549461Y14802929D01*
X20551222Y14803480D01*
X20553434Y14803500D01*
X20802532Y14803500D01*
X20864531Y14786888D01*
X20916464Y14756905D01*
X21037399Y14724500D01*
X21037401Y14724500D01*
X21162599Y14724500D01*
X21162601Y14724500D01*
X21283536Y14756905D01*
X21391964Y14819505D01*
X21480495Y14908036D01*
X21543095Y15016464D01*
X21556545Y15066662D01*
X21588636Y15122245D01*
X22695480Y16229087D01*
X22726613Y16283011D01*
X22748207Y16320413D01*
X22775500Y16422273D01*
X22775500Y16627106D01*
X22795185Y16694145D01*
X22836380Y16733838D01*
X22841247Y16736716D01*
X22893965Y16767893D01*
X22976859Y16816916D01*
X22976863Y16816919D01*
X22976865Y16816920D01*
X23093081Y16933136D01*
X23176744Y17074603D01*
X23218458Y17218181D01*
X23222597Y17232428D01*
X23222598Y17232434D01*
X23222598Y17232435D01*
X23225500Y17269307D01*
X23225500Y17959675D01*
X23225500Y17959678D01*
X23225499Y17959680D01*
X23210967Y18032739D01*
X23208977Y18037543D01*
X23201505Y18107012D01*
X23208977Y18132457D01*
X23210967Y18137262D01*
X23225499Y18210321D01*
X23225500Y18210323D01*
X23225500Y18900686D01*
X23225499Y18900701D01*
X23225121Y18905500D01*
X23222598Y18937568D01*
X23220183Y18945880D01*
X23176745Y19095393D01*
X23176744Y19095396D01*
X23176744Y19095397D01*
X23093081Y19236864D01*
X23093079Y19236866D01*
X23093076Y19236870D01*
X22976870Y19353076D01*
X22976862Y19353082D01*
X22835396Y19436744D01*
X22835393Y19436745D01*
X22767658Y19456424D01*
X22708772Y19494030D01*
X22679566Y19557503D01*
X22689312Y19626689D01*
X22734916Y19679624D01*
X22801899Y19699499D01*
X22802253Y19699500D01*
X24322747Y19699500D01*
X24389786Y19679815D01*
X24435541Y19627011D01*
X24445485Y19557853D01*
X24416460Y19494297D01*
X24357682Y19456523D01*
X24357342Y19456424D01*
X24289606Y19436745D01*
X24289603Y19436744D01*
X24148137Y19353082D01*
X24148129Y19353076D01*
X24031923Y19236870D01*
X24031917Y19236862D01*
X23948255Y19095396D01*
X23948254Y19095393D01*
X23902402Y18937573D01*
X23902401Y18937567D01*
X23899500Y18900701D01*
X23899500Y18900693D01*
X23899500Y18210325D01*
X23899500Y18210323D01*
X23899499Y18210323D01*
X23914033Y18137261D01*
X23916026Y18132449D01*
X23923492Y18062979D01*
X23916026Y18037551D01*
X23914033Y18032740D01*
X23899500Y17959678D01*
X23899500Y17269300D01*
X23902401Y17232434D01*
X23902402Y17232428D01*
X23948254Y17074608D01*
X23948255Y17074605D01*
X23948256Y17074603D01*
X23954507Y17064033D01*
X24019560Y16954033D01*
X24031919Y16933136D01*
X24148135Y16816920D01*
X24148137Y16816919D01*
X24152181Y16812875D01*
X24185666Y16751552D01*
X24188500Y16725193D01*
X24188500Y14474500D01*
X24168815Y14407461D01*
X24116011Y14361706D01*
X24064500Y14350500D01*
X21302731Y14350500D01*
X21302727Y14350501D01*
X21197273Y14350501D01*
X21096130Y14323399D01*
X21095413Y14323207D01*
X21093108Y14321877D01*
X21093106Y14321876D01*
X21004085Y14270479D01*
X20113426Y13379819D01*
X20052103Y13346334D01*
X20025745Y13343500D01*
X19830323Y13343500D01*
X19757264Y13328968D01*
X19757260Y13328967D01*
X19716179Y13301517D01*
X19674399Y13273601D01*
X19674398Y13273600D01*
X19664244Y13266815D01*
X19663359Y13268139D01*
X19644539Y13261119D01*
X19621219Y13248443D01*
X19612309Y13249098D01*
X19603941Y13245976D01*
X19578008Y13251618D01*
X19551537Y13253562D01*
X19542594Y13259322D01*
X19535668Y13260828D01*
X19507414Y13281979D01*
X19361819Y13427574D01*
X19328334Y13488897D01*
X19325500Y13515255D01*
X19325500Y13617677D01*
X19325499Y13617679D01*
X19310967Y13690736D01*
X19310966Y13690740D01*
X19304568Y13700315D01*
X19255601Y13773601D01*
X19172740Y13828966D01*
X19172739Y13828967D01*
X19172735Y13828968D01*
X19099677Y13843500D01*
X19099674Y13843500D01*
X18540326Y13843500D01*
X18540323Y13843500D01*
X18467264Y13828968D01*
X18467260Y13828967D01*
X18418769Y13796566D01*
X18384399Y13773601D01*
X18384398Y13773600D01*
X18374244Y13766815D01*
X18373570Y13767824D01*
X18323371Y13740417D01*
X18253679Y13745406D01*
X18197748Y13787281D01*
X18174316Y13843705D01*
X18164582Y13910518D01*
X18162222Y13915344D01*
X18108078Y14026100D01*
X18108076Y14026103D01*
X18047860Y14086319D01*
X18047571Y14086849D01*
X18047043Y14087143D01*
X18030824Y14117518D01*
X18014375Y14147642D01*
X18014417Y14148244D01*
X18014133Y14148777D01*
X18016907Y14183056D01*
X18019359Y14217334D01*
X18019737Y14218020D01*
X18019770Y14218419D01*
X18021027Y14220356D01*
X18036974Y14249236D01*
X18042004Y14255827D01*
X18108076Y14321898D01*
X18135935Y14378886D01*
X18143379Y14388637D01*
X18162048Y14402343D01*
X18177672Y14419443D01*
X18189685Y14422630D01*
X18199702Y14429983D01*
X18222816Y14431419D01*
X18245205Y14437358D01*
X18257033Y14433545D01*
X18269437Y14434315D01*
X18289661Y14423025D01*
X18311704Y14415918D01*
X18323250Y14404274D01*
X18330444Y14400258D01*
X18334190Y14393242D01*
X18345048Y14382292D01*
X18366290Y14350501D01*
X18384399Y14323399D01*
X18425188Y14296145D01*
X18467260Y14268034D01*
X18467264Y14268033D01*
X18540321Y14253501D01*
X18540324Y14253500D01*
X18540326Y14253500D01*
X19099676Y14253500D01*
X19099677Y14253501D01*
X19172740Y14268034D01*
X19255601Y14323399D01*
X19310966Y14406260D01*
X19325500Y14479326D01*
X19325500Y14928674D01*
X19325500Y14928677D01*
X19310966Y15001740D01*
X19298160Y15020906D01*
X19290352Y15032591D01*
X19289770Y15033835D01*
X19289229Y15034302D01*
X19283552Y15047111D01*
X19274525Y15066387D01*
X19274095Y15067844D01*
X19243095Y15183536D01*
X19236680Y15194646D01*
X19232509Y15208785D01*
X19232481Y15229578D01*
X19227581Y15249780D01*
X19232436Y15263809D01*
X19232417Y15278655D01*
X19243633Y15296160D01*
X19249409Y15312847D01*
X19248815Y15313244D01*
X19250334Y15315518D01*
X19250434Y15315806D01*
X19250874Y15316326D01*
X19255599Y15323398D01*
X19255601Y15323399D01*
X19310966Y15406260D01*
X19325500Y15479326D01*
X19325500Y15928674D01*
X19325500Y15928677D01*
X19325499Y15928679D01*
X19310967Y16001736D01*
X19310966Y16001740D01*
X19255601Y16084601D01*
X19172740Y16139966D01*
X19172739Y16139967D01*
X19172735Y16139968D01*
X19099677Y16154500D01*
X19099674Y16154500D01*
X18540326Y16154500D01*
X18540323Y16154500D01*
X18467264Y16139968D01*
X18467260Y16139967D01*
X18384399Y16084601D01*
X18329033Y16001740D01*
X18329032Y16001737D01*
X18320402Y15958349D01*
X18288017Y15896438D01*
X18286466Y15894860D01*
X17632426Y15240819D01*
X17571103Y15207334D01*
X17544745Y15204500D01*
X17383418Y15204500D01*
X17308482Y15193582D01*
X17308480Y15193582D01*
X17308478Y15193581D01*
X17192900Y15137079D01*
X17192897Y15137077D01*
X17101923Y15046103D01*
X17101921Y15046100D01*
X17045419Y14930522D01*
X17045418Y14930520D01*
X17045418Y14930518D01*
X17034500Y14855582D01*
X17034500Y14512418D01*
X17045418Y14437482D01*
X17045418Y14437481D01*
X17045419Y14437479D01*
X17101921Y14321901D01*
X17101923Y14321898D01*
X17162140Y14261681D01*
X17195625Y14200358D01*
X17190641Y14130666D01*
X17162139Y14086318D01*
X17121625Y14045805D01*
X17060302Y14012320D01*
X16990610Y14017306D01*
X16934677Y14059178D01*
X16911471Y14114093D01*
X16910646Y14119303D01*
X16910646Y14119304D01*
X16853050Y14232342D01*
X16853046Y14232346D01*
X16853045Y14232348D01*
X16763347Y14322046D01*
X16763344Y14322048D01*
X16763342Y14322050D01*
X16685513Y14361706D01*
X16650301Y14379648D01*
X16556524Y14394500D01*
X16556519Y14394500D01*
X15837965Y14394500D01*
X15770926Y14414185D01*
X15750284Y14430819D01*
X14515616Y15665487D01*
X14515614Y15665489D01*
X14432636Y15713397D01*
X14412888Y15724799D01*
X14396932Y15729074D01*
X14388673Y15731287D01*
X14388670Y15731288D01*
X14319895Y15749716D01*
X14298309Y15755500D01*
X14298308Y15755500D01*
X13065666Y15755500D01*
X12998627Y15775185D01*
X12958279Y15817501D01*
X12915494Y15891607D01*
X12915488Y15891615D01*
X10741615Y18065487D01*
X10741613Y18065489D01*
X10638886Y18124799D01*
X10597056Y18136007D01*
X10597053Y18136008D01*
X10564315Y18144780D01*
X10524308Y18155500D01*
X10524307Y18155500D01*
X9314072Y18155500D01*
X9247033Y18175185D01*
X9214805Y18205189D01*
X9146472Y18296472D01*
X9038450Y18377336D01*
X9038447Y18377338D01*
X8912024Y18424491D01*
X8856144Y18430500D01*
X8856130Y18430500D01*
X8328870Y18430500D01*
X8328855Y18430500D01*
X8272975Y18424491D01*
X8146552Y18377338D01*
X8146549Y18377336D01*
X8038528Y18296472D01*
X7957664Y18188451D01*
X7957662Y18188448D01*
X7921182Y18090639D01*
X7879311Y18034705D01*
X7813846Y18010288D01*
X7745573Y18025140D01*
X7696168Y18074545D01*
X7688818Y18090639D01*
X7652337Y18188448D01*
X7652335Y18188451D01*
X7571472Y18296472D01*
X7463450Y18377336D01*
X7463447Y18377338D01*
X7337024Y18424491D01*
X7281144Y18430500D01*
X7281130Y18430500D01*
X6753870Y18430500D01*
X6753855Y18430500D01*
X6697975Y18424491D01*
X6571552Y18377338D01*
X6571549Y18377336D01*
X6463528Y18296472D01*
X6382664Y18188451D01*
X6382663Y18188450D01*
X6363163Y18136166D01*
X6349892Y18118440D01*
X6340694Y18098297D01*
X6329362Y18091015D01*
X6321291Y18080233D01*
X6300545Y18072496D01*
X6281916Y18060523D01*
X6259997Y18057372D01*
X6255827Y18055816D01*
X6246981Y18055500D01*
X6161041Y18055500D01*
X6094002Y18075185D01*
X6073360Y18091819D01*
X6007102Y18158077D01*
X6007099Y18158079D01*
X5891521Y18214581D01*
X5891519Y18214582D01*
X5891518Y18214582D01*
X5816582Y18225500D01*
X5473418Y18225500D01*
X5398482Y18214582D01*
X5398480Y18214582D01*
X5398478Y18214581D01*
X5282900Y18158079D01*
X5282899Y18158079D01*
X5259926Y18135105D01*
X5198602Y18101621D01*
X5128911Y18106607D01*
X5077920Y18144780D01*
X5077636Y18144495D01*
X5075659Y18146472D01*
X5072978Y18148479D01*
X5072478Y18149152D01*
X5071066Y18151065D01*
X4965559Y18228934D01*
X4965557Y18228935D01*
X4875000Y18260622D01*
X4875000Y17779000D01*
X4855315Y17711961D01*
X4802511Y17666206D01*
X4751000Y17655000D01*
X4625000Y17655000D01*
X4625000Y17529000D01*
X4605315Y17461961D01*
X4552511Y17416206D01*
X4501000Y17405000D01*
X4056182Y17405000D01*
X4057755Y17388215D01*
X4057755Y17388213D01*
X4101065Y17264443D01*
X4101066Y17264441D01*
X4178934Y17158935D01*
X4202753Y17141356D01*
X4245004Y17085708D01*
X4250462Y17016052D01*
X4217394Y16954503D01*
X4216800Y16953905D01*
X3439513Y16176617D01*
X3439507Y16176608D01*
X3405797Y16118222D01*
X3386092Y16092542D01*
X2226776Y14933224D01*
X1065001Y13771451D01*
X1065001Y13771450D01*
X1168555Y13730615D01*
X1256946Y13720000D01*
X2843054Y13720000D01*
X2931443Y13730614D01*
X2974140Y13747452D01*
X3043727Y13753734D01*
X3105664Y13721398D01*
X3140286Y13660710D01*
X3136601Y13590938D01*
X3107313Y13544417D01*
X2249716Y12686819D01*
X2222788Y12672116D01*
X2196970Y12655523D01*
X2190769Y12654632D01*
X2188393Y12653334D01*
X2162035Y12650500D01*
X1920808Y12650500D01*
X1853769Y12670185D01*
X1833127Y12686819D01*
X1814672Y12705274D01*
X1814668Y12705277D01*
X1708133Y12776462D01*
X1708124Y12776467D01*
X1589744Y12825501D01*
X1589738Y12825503D01*
X1464071Y12850500D01*
X1464069Y12850500D01*
X1335931Y12850500D01*
X1335929Y12850500D01*
X1210261Y12825503D01*
X1210255Y12825501D01*
X1091875Y12776467D01*
X1091866Y12776462D01*
X985331Y12705277D01*
X985327Y12705274D01*
X894726Y12614673D01*
X894723Y12614669D01*
X823538Y12508134D01*
X823533Y12508125D01*
X774499Y12389745D01*
X774497Y12389739D01*
X749500Y12264072D01*
X749500Y12264069D01*
X749500Y12135931D01*
X749500Y12135929D01*
X749499Y12135929D01*
X774497Y12010262D01*
X774499Y12010256D01*
X823533Y11891876D01*
X823538Y11891867D01*
X894723Y11785332D01*
X894726Y11785328D01*
X985327Y11694727D01*
X985331Y11694724D01*
X1091866Y11623539D01*
X1091872Y11623536D01*
X1091873Y11623535D01*
X1210256Y11574499D01*
X1235770Y11569424D01*
X1297680Y11537041D01*
X1332255Y11476326D01*
X1328516Y11406556D01*
X1287651Y11349883D01*
X1243674Y11328033D01*
X1187516Y11312985D01*
X1187511Y11312983D01*
X1061988Y11240512D01*
X1061982Y11240507D01*
X959493Y11138018D01*
X959488Y11138012D01*
X887017Y11012489D01*
X887016Y11012485D01*
X849500Y10872475D01*
X849500Y10727525D01*
X884154Y10598197D01*
X887017Y10587512D01*
X959488Y10461989D01*
X959490Y10461987D01*
X959491Y10461985D01*
X1061985Y10359491D01*
X1061986Y10359490D01*
X1061988Y10359489D01*
X1187511Y10287018D01*
X1187512Y10287018D01*
X1187515Y10287016D01*
X1327525Y10249500D01*
X1327528Y10249500D01*
X1472472Y10249500D01*
X1472475Y10249500D01*
X1612485Y10287016D01*
X1738015Y10359491D01*
X1741705Y10363181D01*
X1803028Y10396666D01*
X1829386Y10399500D01*
X5181644Y10399500D01*
X5248683Y10379815D01*
X5294438Y10327011D01*
X5304382Y10257853D01*
X5275357Y10194297D01*
X5216579Y10156523D01*
X5213769Y10155734D01*
X5140900Y10136209D01*
X5092849Y10123333D01*
X4984423Y10060734D01*
X4984420Y10060732D01*
X4895892Y9972204D01*
X4895890Y9972201D01*
X4833291Y9863775D01*
X4800884Y9742832D01*
X4799947Y9735714D01*
X4790700Y9714816D01*
X4785842Y9692480D01*
X4773557Y9676070D01*
X4771677Y9671819D01*
X4764691Y9664225D01*
X4687283Y9586818D01*
X4625963Y9553334D01*
X4599604Y9550500D01*
X1879386Y9550500D01*
X1812347Y9570185D01*
X1791705Y9586819D01*
X1738017Y9640507D01*
X1738011Y9640512D01*
X1612488Y9712983D01*
X1612489Y9712983D01*
X1601006Y9716060D01*
X1472475Y9750500D01*
X1327525Y9750500D01*
X1198993Y9716060D01*
X1187511Y9712983D01*
X1061988Y9640512D01*
X1061982Y9640507D01*
X959493Y9538018D01*
X959488Y9538012D01*
X887017Y9412489D01*
X887016Y9412485D01*
X849500Y9272475D01*
X849500Y9127525D01*
X875632Y9030000D01*
X887017Y8987512D01*
X959488Y8861989D01*
X959490Y8861987D01*
X959491Y8861985D01*
X1061985Y8759491D01*
X1061986Y8759490D01*
X1061988Y8759489D01*
X1187511Y8687018D01*
X1187512Y8687018D01*
X1187515Y8687016D01*
X1327525Y8649500D01*
X1327528Y8649500D01*
X1472472Y8649500D01*
X1472475Y8649500D01*
X1612485Y8687016D01*
X1738015Y8759491D01*
X1791705Y8813181D01*
X1853028Y8846666D01*
X1879386Y8849500D01*
X4842290Y8849500D01*
X4842292Y8849500D01*
X4931436Y8873386D01*
X5011360Y8919530D01*
X5188705Y9096877D01*
X5250028Y9130361D01*
X5319719Y9125377D01*
X5364067Y9096876D01*
X5426155Y9034788D01*
X5491412Y8969531D01*
X5491415Y8969530D01*
X5491418Y8969527D01*
X5571330Y8923389D01*
X5571331Y8923389D01*
X5571336Y8923386D01*
X5637594Y8905633D01*
X5661371Y8891140D01*
X5686700Y8879573D01*
X5690791Y8873208D01*
X5697254Y8869268D01*
X5709421Y8844220D01*
X5724476Y8820796D01*
X5726021Y8810047D01*
X5727783Y8806421D01*
X5729500Y8785861D01*
X5729500Y8759489D01*
X5729501Y8749503D01*
X5709818Y8682463D01*
X5657016Y8636707D01*
X5605501Y8625500D01*
X5200564Y8625500D01*
X5152812Y8612705D01*
X5152811Y8612706D01*
X5105063Y8599911D01*
X5105062Y8599911D01*
X5019435Y8550473D01*
X4199527Y7730565D01*
X4199525Y7730563D01*
X4199525Y7730562D01*
X4194207Y7721351D01*
X4150089Y7644938D01*
X4143832Y7621585D01*
X4128238Y7563384D01*
X4124739Y7550326D01*
X4124500Y7549435D01*
X4124500Y3649436D01*
X4124500Y3550564D01*
X4125424Y3547117D01*
X4126718Y3542289D01*
X4126719Y3542285D01*
X4150090Y3455061D01*
X4150091Y3455060D01*
X4199525Y3369438D01*
X4199526Y3369437D01*
X5285525Y2283438D01*
X5355438Y2213525D01*
X5441062Y2164090D01*
X5441066Y2164089D01*
X5486561Y2151898D01*
X5486562Y2151898D01*
X5492814Y2150223D01*
X5536564Y2138500D01*
X5536565Y2138500D01*
X6129756Y2138500D01*
X6196795Y2118815D01*
X6242550Y2066011D01*
X6252494Y1996853D01*
X6229525Y1940865D01*
X6151067Y1834561D01*
X6151065Y1834558D01*
X6119378Y1744001D01*
X6119378Y1744000D01*
X7330622Y1744000D01*
X7330621Y1744001D01*
X7298934Y1834558D01*
X7298933Y1834560D01*
X7221064Y1940067D01*
X7219149Y1941480D01*
X7217566Y1943565D01*
X7214495Y1946636D01*
X7214915Y1947057D01*
X7176901Y1997129D01*
X7171445Y2066786D01*
X7204515Y2128334D01*
X7204959Y2128781D01*
X7228076Y2151898D01*
X7228076Y2151900D01*
X7228078Y2151901D01*
X7263117Y2223575D01*
X7284582Y2267482D01*
X7295500Y2342418D01*
X7295500Y2368035D01*
X7315185Y2435074D01*
X7367989Y2480829D01*
X7437147Y2490773D01*
X7500703Y2461748D01*
X7507181Y2455716D01*
X7966635Y1996262D01*
X8000120Y1934939D01*
X7995136Y1865247D01*
X7977793Y1838264D01*
X7979705Y1836954D01*
X7973211Y1827475D01*
X7927910Y1724878D01*
X7927910Y1724876D01*
X7925000Y1699795D01*
X7925000Y1555000D01*
X9486535Y1555000D01*
X9553574Y1535315D01*
X9574216Y1518681D01*
X9838181Y1254716D01*
X9871666Y1193393D01*
X9874500Y1167035D01*
X9874500Y930322D01*
X9889032Y857265D01*
X9889033Y857261D01*
X9897258Y844952D01*
X9944399Y774399D01*
X9983243Y748445D01*
X10027260Y719034D01*
X10027264Y719033D01*
X10100321Y704501D01*
X10100324Y704500D01*
X10100326Y704500D01*
X10337034Y704500D01*
X10395535Y689833D01*
X10411726Y681170D01*
X10423386Y669510D01*
X10526113Y610201D01*
X10548853Y604108D01*
X10640691Y579500D01*
X10640693Y579500D01*
X15930307Y579500D01*
X15930309Y579500D01*
X16022147Y604108D01*
X16044887Y610201D01*
X16147614Y669511D01*
X16435285Y957184D01*
X16496606Y990667D01*
X16504057Y992051D01*
X16513455Y993501D01*
X16565734Y993501D01*
X16657175Y1007983D01*
X16678829Y1019017D01*
X16698491Y1022050D01*
X16706765Y1020948D01*
X16717399Y1023500D01*
X17350201Y1023500D01*
X17406492Y1009987D01*
X17409696Y1008354D01*
X17409697Y1008354D01*
X17409699Y1008353D01*
X17503475Y993501D01*
X17503481Y993500D01*
X18591518Y993501D01*
X18591521Y993501D01*
X18602967Y995314D01*
X18672260Y986360D01*
X18725713Y941364D01*
X18729753Y934841D01*
X18732895Y929399D01*
X18760500Y881586D01*
X18760502Y881584D01*
X19129905Y512181D01*
X19163390Y450858D01*
X19158406Y381166D01*
X19116534Y325233D01*
X19051070Y300816D01*
X19042224Y300500D01*
X2004428Y300500D01*
X1995582Y300816D01*
X1766982Y317166D01*
X1749470Y319684D01*
X1529862Y367457D01*
X1512887Y372441D01*
X1302311Y450981D01*
X1286217Y458331D01*
X1088963Y566041D01*
X1074080Y575606D01*
X894163Y710290D01*
X880792Y721876D01*
X721875Y880793D01*
X710289Y894164D01*
X687068Y925183D01*
X575605Y1074081D01*
X566040Y1088964D01*
X556483Y1106466D01*
X458327Y1286223D01*
X450983Y1302306D01*
X372437Y1512897D01*
X367458Y1529856D01*
X319683Y1749471D01*
X317165Y1766983D01*
X315792Y1786175D01*
X300816Y1995582D01*
X300500Y2004428D01*
X300500Y2106287D01*
X649500Y2106287D01*
X649500Y1893713D01*
X651640Y1880201D01*
X680213Y1699795D01*
X682754Y1683757D01*
X747164Y1485523D01*
X748444Y1481586D01*
X844951Y1292180D01*
X969890Y1120214D01*
X1120213Y969891D01*
X1292179Y844952D01*
X1292181Y844951D01*
X1292184Y844949D01*
X1481588Y748443D01*
X1683757Y682754D01*
X1893713Y649500D01*
X1893714Y649500D01*
X2106286Y649500D01*
X2106287Y649500D01*
X2316243Y682754D01*
X2518412Y748443D01*
X2707816Y844949D01*
X2747848Y874034D01*
X2797648Y910215D01*
X7925001Y910215D01*
X7925002Y910192D01*
X7927908Y885131D01*
X7927909Y885127D01*
X7973211Y782526D01*
X7973214Y782521D01*
X8052520Y703215D01*
X8052525Y703212D01*
X8155123Y657911D01*
X8180206Y655001D01*
X8474999Y655001D01*
X8975000Y655001D01*
X9269786Y655001D01*
X9269808Y655003D01*
X9294869Y657909D01*
X9294873Y657910D01*
X9397474Y703212D01*
X9397479Y703215D01*
X9476785Y782521D01*
X9476788Y782526D01*
X9522089Y885123D01*
X9522089Y885125D01*
X9524999Y910206D01*
X9525000Y910209D01*
X9525000Y1055000D01*
X8975000Y1055000D01*
X8975000Y655001D01*
X8474999Y655001D01*
X8475000Y655002D01*
X8475000Y1055000D01*
X7925001Y1055000D01*
X7925001Y910215D01*
X2797648Y910215D01*
X2879786Y969891D01*
X2879788Y969894D01*
X2879792Y969896D01*
X3030104Y1120208D01*
X3030106Y1120212D01*
X3030109Y1120214D01*
X3120043Y1244000D01*
X6119378Y1244000D01*
X6151065Y1153443D01*
X6151066Y1153441D01*
X6228934Y1047935D01*
X6334438Y970069D01*
X6458219Y926756D01*
X6474999Y925183D01*
X6975000Y925183D01*
X6991780Y926756D01*
X7115561Y970069D01*
X7221065Y1047935D01*
X7298933Y1153441D01*
X7298934Y1153443D01*
X7330621Y1244000D01*
X6975000Y1244000D01*
X6975000Y925183D01*
X6474999Y925183D01*
X6475000Y925184D01*
X6475000Y1244000D01*
X6119378Y1244000D01*
X3120043Y1244000D01*
X3142839Y1275376D01*
X3155051Y1292184D01*
X3251557Y1481588D01*
X3317246Y1683757D01*
X3350500Y1893713D01*
X3350500Y2106287D01*
X3317246Y2316243D01*
X3251557Y2518412D01*
X3155051Y2707816D01*
X3155049Y2707819D01*
X3155048Y2707821D01*
X3030109Y2879787D01*
X2879786Y3030110D01*
X2707820Y3155049D01*
X2518414Y3251556D01*
X2518413Y3251557D01*
X2518412Y3251557D01*
X2498367Y3258070D01*
X2440694Y3297506D01*
X2413495Y3361865D01*
X2425410Y3430711D01*
X2472654Y3482187D01*
X2536687Y3500000D01*
X2843054Y3500000D01*
X2931446Y3510615D01*
X3034998Y3551450D01*
X2050000Y4536448D01*
X1065001Y3551451D01*
X1065001Y3551450D01*
X1168555Y3510615D01*
X1256946Y3500000D01*
X1463313Y3500000D01*
X1530352Y3480315D01*
X1576107Y3427511D01*
X1586051Y3358353D01*
X1557026Y3294797D01*
X1501632Y3258070D01*
X1481588Y3251557D01*
X1481585Y3251556D01*
X1292179Y3155049D01*
X1120213Y3030110D01*
X969890Y2879787D01*
X844951Y2707821D01*
X748444Y2518415D01*
X748443Y2518413D01*
X748443Y2518412D01*
X731776Y2467116D01*
X682753Y2316240D01*
X655852Y2146394D01*
X649500Y2106287D01*
X300500Y2106287D01*
X300500Y5773061D01*
X750000Y5773061D01*
X750000Y4006940D01*
X756795Y3950350D01*
X756796Y3950349D01*
X1696448Y4890000D01*
X1696448Y4890001D01*
X2403552Y4890001D01*
X2403552Y4890000D01*
X3343203Y3950349D01*
X3350000Y4006940D01*
X3350000Y5773062D01*
X3343203Y5829653D01*
X2403552Y4890001D01*
X1696448Y4890001D01*
X756796Y5829653D01*
X756795Y5829652D01*
X750000Y5773061D01*
X300500Y5773061D01*
X300500Y6228552D01*
X1065000Y6228552D01*
X2050000Y5243552D01*
X2050001Y5243552D01*
X3034998Y6228551D01*
X2931443Y6269387D01*
X2843054Y6280000D01*
X1256946Y6280000D01*
X1168555Y6269386D01*
X1168554Y6269386D01*
X1065000Y6228552D01*
X300500Y6228552D01*
X300500Y15993061D01*
X750000Y15993061D01*
X750000Y14226940D01*
X756795Y14170350D01*
X756796Y14170349D01*
X1696448Y15110000D01*
X1696448Y15110001D01*
X756796Y16049653D01*
X756795Y16049652D01*
X750000Y15993061D01*
X300500Y15993061D01*
X300500Y17995573D01*
X300816Y18004419D01*
X308102Y18106287D01*
X649500Y18106287D01*
X649500Y17893714D01*
X680260Y17699500D01*
X682754Y17683757D01*
X747394Y17484815D01*
X748444Y17481586D01*
X844951Y17292180D01*
X969890Y17120214D01*
X1120213Y16969891D01*
X1292179Y16844952D01*
X1292181Y16844951D01*
X1292184Y16844949D01*
X1481588Y16748443D01*
X1501632Y16741931D01*
X1559306Y16702494D01*
X1586505Y16638135D01*
X1574590Y16569289D01*
X1527346Y16517813D01*
X1463313Y16500000D01*
X1256946Y16500000D01*
X1168555Y16489386D01*
X1168554Y16489386D01*
X1065000Y16448552D01*
X2050000Y15463552D01*
X2050001Y15463552D01*
X3034998Y16448551D01*
X2931443Y16489387D01*
X2843054Y16500000D01*
X2536687Y16500000D01*
X2469648Y16519685D01*
X2423893Y16572489D01*
X2413949Y16641647D01*
X2442974Y16705203D01*
X2498367Y16741931D01*
X2518412Y16748443D01*
X2707816Y16844949D01*
X2773829Y16892910D01*
X2879786Y16969891D01*
X2879788Y16969894D01*
X2879792Y16969896D01*
X3030104Y17120208D01*
X3030106Y17120212D01*
X3030109Y17120214D01*
X3155048Y17292180D01*
X3155047Y17292180D01*
X3155051Y17292184D01*
X3251557Y17481588D01*
X3317246Y17683757D01*
X3350500Y17893713D01*
X3350500Y17905001D01*
X4056181Y17905001D01*
X4056182Y17905000D01*
X4375000Y17905000D01*
X4375000Y18260622D01*
X4374999Y18260622D01*
X4284442Y18228935D01*
X4284440Y18228934D01*
X4178934Y18151066D01*
X4101066Y18045560D01*
X4101065Y18045558D01*
X4057755Y17921788D01*
X4057755Y17921786D01*
X4056181Y17905001D01*
X3350500Y17905001D01*
X3350500Y18106287D01*
X3317246Y18316243D01*
X3251557Y18518412D01*
X3155051Y18707816D01*
X3155049Y18707819D01*
X3155048Y18707821D01*
X3030109Y18879787D01*
X2885217Y19024679D01*
X12389500Y19024679D01*
X12389500Y17275322D01*
X12404032Y17202265D01*
X12404033Y17202261D01*
X12413297Y17188397D01*
X12459399Y17119399D01*
X12523660Y17076462D01*
X12542260Y17064034D01*
X12542264Y17064033D01*
X12615321Y17049501D01*
X12615324Y17049500D01*
X12615326Y17049500D01*
X13814676Y17049500D01*
X13814677Y17049501D01*
X13887740Y17064034D01*
X13970601Y17119399D01*
X14025966Y17202260D01*
X14036500Y17255215D01*
X16690001Y17255215D01*
X16690002Y17255192D01*
X16692908Y17230131D01*
X16692909Y17230127D01*
X16738211Y17127526D01*
X16738214Y17127521D01*
X16817520Y17048215D01*
X16817525Y17048212D01*
X16920123Y17002911D01*
X16945206Y17000001D01*
X17314999Y17000001D01*
X17815000Y17000001D01*
X18184786Y17000001D01*
X18184808Y17000003D01*
X18209869Y17002909D01*
X18209873Y17002910D01*
X18312474Y17048212D01*
X18312479Y17048215D01*
X18391785Y17127521D01*
X18391788Y17127526D01*
X18437089Y17230123D01*
X18437089Y17230125D01*
X18439999Y17255206D01*
X18440000Y17255209D01*
X18440000Y17900000D01*
X17815000Y17900000D01*
X17815000Y17000001D01*
X17314999Y17000001D01*
X17315000Y17000002D01*
X17315000Y17900000D01*
X16690001Y17900000D01*
X16690001Y17255215D01*
X14036500Y17255215D01*
X14040500Y17275326D01*
X14040500Y17575500D01*
X14043050Y17584186D01*
X14041762Y17593147D01*
X14052740Y17617188D01*
X14060185Y17642539D01*
X14067025Y17648467D01*
X14070787Y17656703D01*
X14093021Y17670993D01*
X14112989Y17688294D01*
X14123503Y17690582D01*
X14129565Y17694477D01*
X14164500Y17699500D01*
X14396064Y17699500D01*
X14458063Y17682888D01*
X14537515Y17637016D01*
X14677525Y17599500D01*
X14677528Y17599500D01*
X14822472Y17599500D01*
X14822475Y17599500D01*
X14962485Y17637016D01*
X15088015Y17709491D01*
X15190509Y17811985D01*
X15262984Y17937515D01*
X15300500Y18077525D01*
X15300500Y18222475D01*
X15262984Y18362485D01*
X15235936Y18409333D01*
X15190511Y18488012D01*
X15190506Y18488018D01*
X15088017Y18590507D01*
X15088011Y18590512D01*
X14962488Y18662983D01*
X14962489Y18662983D01*
X14925146Y18672989D01*
X14822475Y18700500D01*
X14677525Y18700500D01*
X14537515Y18662984D01*
X14458063Y18617113D01*
X14442575Y18612963D01*
X14430999Y18605523D01*
X14396064Y18600500D01*
X14164500Y18600500D01*
X14097461Y18620185D01*
X14051706Y18672989D01*
X14040500Y18724500D01*
X14040500Y19024677D01*
X14036498Y19044795D01*
X16690000Y19044795D01*
X16690000Y18400000D01*
X17315000Y18400000D01*
X17815000Y18400000D01*
X18439999Y18400000D01*
X18439999Y19044786D01*
X18439997Y19044809D01*
X18437091Y19069870D01*
X18437090Y19069874D01*
X18391788Y19172475D01*
X18391785Y19172480D01*
X18312479Y19251786D01*
X18312474Y19251789D01*
X18209876Y19297090D01*
X18184794Y19300000D01*
X17815000Y19300000D01*
X17815000Y18400000D01*
X17315000Y18400000D01*
X17315000Y19300000D01*
X16945214Y19300000D01*
X16945191Y19299998D01*
X16920130Y19297092D01*
X16920126Y19297091D01*
X16817525Y19251789D01*
X16817520Y19251786D01*
X16738214Y19172480D01*
X16738211Y19172475D01*
X16692910Y19069878D01*
X16692910Y19069876D01*
X16690000Y19044795D01*
X14036498Y19044795D01*
X14025967Y19097736D01*
X14025966Y19097740D01*
X14020556Y19105837D01*
X13970601Y19180601D01*
X13887740Y19235966D01*
X13887739Y19235967D01*
X13887735Y19235968D01*
X13814677Y19250500D01*
X13814674Y19250500D01*
X12615326Y19250500D01*
X12615323Y19250500D01*
X12542264Y19235968D01*
X12542260Y19235967D01*
X12459399Y19180601D01*
X12404033Y19097740D01*
X12404032Y19097736D01*
X12389500Y19024679D01*
X2885217Y19024679D01*
X2879786Y19030110D01*
X2707820Y19155049D01*
X2518414Y19251556D01*
X2518413Y19251557D01*
X2518412Y19251557D01*
X2316243Y19317246D01*
X2316241Y19317247D01*
X2316240Y19317247D01*
X2154957Y19342792D01*
X2106287Y19350500D01*
X1893713Y19350500D01*
X1845042Y19342792D01*
X1683760Y19317247D01*
X1481585Y19251556D01*
X1292179Y19155049D01*
X1120213Y19030110D01*
X969890Y18879787D01*
X844951Y18707821D01*
X748444Y18518415D01*
X682753Y18316240D01*
X649500Y18106287D01*
X308102Y18106287D01*
X309083Y18120005D01*
X309083Y18120006D01*
X316411Y18222475D01*
X317165Y18233021D01*
X319683Y18250530D01*
X367459Y18470149D01*
X372436Y18487100D01*
X450985Y18697701D01*
X458325Y18713773D01*
X566044Y18911044D01*
X575600Y18925914D01*
X710294Y19105844D01*
X721868Y19119201D01*
X880799Y19278132D01*
X894156Y19289706D01*
X1074086Y19424400D01*
X1088956Y19433956D01*
X1286227Y19541675D01*
X1302299Y19549015D01*
X1512900Y19627564D01*
X1529851Y19632541D01*
X1749472Y19680318D01*
X1766977Y19682835D01*
X1995582Y19699184D01*
X2004428Y19699500D01*
X2047595Y19699500D01*
X21947747Y19699500D01*
X22014786Y19679815D01*
G37*
%TD.AperFunction*%
%TA.AperFunction,Conductor*%
G36*
X34534363Y8653815D02*
G01*
X34555005Y8637181D01*
X35092686Y8099500D01*
X35206814Y8033608D01*
X35334108Y7999500D01*
X35465892Y7999500D01*
X37742779Y7999500D01*
X37809818Y7979815D01*
X37855573Y7927011D01*
X37865517Y7857853D01*
X37859821Y7834546D01*
X37830237Y7750000D01*
X38772999Y7750000D01*
X38840038Y7730315D01*
X38885793Y7677511D01*
X38896999Y7626000D01*
X38896999Y7500000D01*
X39022999Y7500000D01*
X39090038Y7480315D01*
X39135793Y7427511D01*
X39146999Y7376000D01*
X39146999Y6900001D01*
X39576195Y6900001D01*
X39606606Y6902852D01*
X39649812Y6917971D01*
X39719591Y6921534D01*
X39780218Y6886806D01*
X39812446Y6824813D01*
X39806042Y6755237D01*
X39805329Y6753478D01*
X39762989Y6651260D01*
X39762986Y6651250D01*
X39737989Y6525583D01*
X39737989Y6525580D01*
X39737989Y6397442D01*
X39737989Y6397440D01*
X39737988Y6397440D01*
X39762986Y6271773D01*
X39762988Y6271767D01*
X39812022Y6153387D01*
X39812027Y6153378D01*
X39883212Y6046843D01*
X39883215Y6046839D01*
X39973817Y5956237D01*
X39973820Y5956235D01*
X40026585Y5920979D01*
X40071389Y5867368D01*
X40080098Y5798043D01*
X40049943Y5735015D01*
X40045377Y5730198D01*
X40028433Y5713254D01*
X40028430Y5713250D01*
X39965831Y5604824D01*
X39951806Y5552482D01*
X39933426Y5483888D01*
X39933426Y5358686D01*
X39965831Y5237751D01*
X40028431Y5129323D01*
X40116962Y5040792D01*
X40225390Y4978192D01*
X40346325Y4945787D01*
X40346327Y4945787D01*
X40471525Y4945787D01*
X40471527Y4945787D01*
X40592462Y4978192D01*
X40700890Y5040792D01*
X40789421Y5129323D01*
X40852021Y5237751D01*
X40865471Y5287949D01*
X40897562Y5343532D01*
X41412478Y5858449D01*
X41473799Y5891932D01*
X41543490Y5886948D01*
X41599424Y5845077D01*
X41623447Y5784021D01*
X41627909Y5742517D01*
X41678202Y5607672D01*
X41678206Y5607665D01*
X41764452Y5492456D01*
X41764455Y5492453D01*
X41879664Y5406207D01*
X41879671Y5406203D01*
X42014517Y5355909D01*
X42014516Y5355909D01*
X42021444Y5355165D01*
X42074127Y5349500D01*
X43469872Y5349501D01*
X43529483Y5355909D01*
X43532165Y5356909D01*
X43534391Y5357069D01*
X43537031Y5357692D01*
X43537132Y5357265D01*
X43601857Y5361894D01*
X43663180Y5328410D01*
X43696666Y5267087D01*
X43699500Y5240728D01*
X43699500Y2004428D01*
X43699184Y1995582D01*
X43682834Y1766983D01*
X43680316Y1749471D01*
X43632543Y1529863D01*
X43627559Y1512888D01*
X43549019Y1302312D01*
X43541669Y1286218D01*
X43433959Y1088964D01*
X43424394Y1074081D01*
X43289710Y894164D01*
X43278124Y880793D01*
X43250476Y853145D01*
X43189153Y819660D01*
X43119461Y824644D01*
X43063528Y866516D01*
X43039111Y931980D01*
X43049361Y990912D01*
X43071088Y1040121D01*
X43071089Y1040125D01*
X43073999Y1065206D01*
X43074000Y1065209D01*
X43074000Y1710000D01*
X42449000Y1710000D01*
X42449000Y810001D01*
X42818786Y810001D01*
X42818808Y810003D01*
X42853141Y813984D01*
X42853301Y812604D01*
X42855708Y812556D01*
X42867181Y816834D01*
X42889986Y811873D01*
X42913321Y811408D01*
X42923488Y804585D01*
X42935454Y801981D01*
X42951957Y785478D01*
X42971336Y772471D01*
X42976200Y761234D01*
X42984858Y752575D01*
X42989818Y729770D01*
X42999090Y708350D01*
X42997106Y696267D01*
X42999709Y684302D01*
X42991552Y662436D01*
X42987772Y639403D01*
X42978969Y628701D01*
X42975291Y618838D01*
X42950334Y593882D01*
X42925918Y575605D01*
X42911036Y566041D01*
X42713782Y458331D01*
X42697688Y450981D01*
X42487112Y372441D01*
X42470137Y367457D01*
X42250529Y319684D01*
X42233017Y317166D01*
X42004418Y300816D01*
X41995572Y300500D01*
X36223500Y300500D01*
X36156461Y320185D01*
X36110706Y372989D01*
X36099500Y424500D01*
X36099500Y1106469D01*
X36099499Y1106471D01*
X36084967Y1179528D01*
X36084966Y1179532D01*
X36077848Y1190185D01*
X36029601Y1262393D01*
X35946740Y1317758D01*
X35946739Y1317759D01*
X35946735Y1317760D01*
X35873677Y1332292D01*
X35873674Y1332292D01*
X34824326Y1332292D01*
X34824323Y1332292D01*
X34751264Y1317760D01*
X34751260Y1317759D01*
X34668399Y1262393D01*
X34613033Y1179532D01*
X34613032Y1179528D01*
X34598500Y1106471D01*
X34598500Y424500D01*
X34578815Y357461D01*
X34526011Y311706D01*
X34474500Y300500D01*
X28923500Y300500D01*
X28856461Y320185D01*
X28810706Y372989D01*
X28799500Y424500D01*
X28799500Y1106469D01*
X28799499Y1106471D01*
X28784967Y1179528D01*
X28784966Y1179530D01*
X28784966Y1179532D01*
X28774363Y1195400D01*
X28753486Y1262077D01*
X28771971Y1329457D01*
X28789785Y1351971D01*
X29030355Y1592541D01*
X29286819Y1849007D01*
X29348142Y1882491D01*
X29417833Y1877507D01*
X29473767Y1835636D01*
X29498184Y1770171D01*
X29498500Y1761325D01*
X29498500Y1712799D01*
X29498500Y1712797D01*
X29498499Y1712797D01*
X29525418Y1577470D01*
X29525421Y1577460D01*
X29578221Y1449988D01*
X29578228Y1449975D01*
X29654885Y1335251D01*
X29654888Y1335247D01*
X29752454Y1237681D01*
X29752458Y1237678D01*
X29867182Y1161021D01*
X29867195Y1161014D01*
X29965711Y1120208D01*
X29994672Y1108212D01*
X29994676Y1108212D01*
X29994677Y1108211D01*
X30130004Y1081292D01*
X30130007Y1081292D01*
X30267995Y1081292D01*
X30394575Y1106471D01*
X30403328Y1108212D01*
X30530811Y1161017D01*
X30645542Y1237678D01*
X30743114Y1335250D01*
X30819775Y1449981D01*
X30872580Y1577464D01*
X30886055Y1645206D01*
X30899500Y1712797D01*
X30899500Y1850788D01*
X30872581Y1986115D01*
X30872580Y1986116D01*
X30872580Y1986120D01*
X30861611Y2012601D01*
X30819778Y2113597D01*
X30819771Y2113610D01*
X30743114Y2228334D01*
X30743111Y2228338D01*
X30645545Y2325904D01*
X30645541Y2325907D01*
X30530817Y2402564D01*
X30530804Y2402571D01*
X30403332Y2455371D01*
X30403322Y2455374D01*
X30267995Y2482292D01*
X30267993Y2482292D01*
X30130007Y2482292D01*
X30125460Y2482292D01*
X30058421Y2501977D01*
X30012666Y2554781D01*
X30002722Y2623939D01*
X30022358Y2675183D01*
X30034966Y2694052D01*
X30049500Y2767118D01*
X30049500Y4316466D01*
X30049500Y4316469D01*
X30049499Y4316471D01*
X30034967Y4389528D01*
X30034966Y4389532D01*
X29979601Y4472393D01*
X29911259Y4518057D01*
X29896739Y4527759D01*
X29896735Y4527760D01*
X29823677Y4542292D01*
X29823674Y4542292D01*
X29099500Y4542292D01*
X29032461Y4561977D01*
X28986706Y4614781D01*
X28975500Y4666292D01*
X28975500Y4950579D01*
X28975500Y4950584D01*
X28964582Y5025520D01*
X28955655Y5043781D01*
X28908078Y5141102D01*
X28908076Y5141105D01*
X28847861Y5201320D01*
X28814376Y5262643D01*
X28819360Y5332335D01*
X28847861Y5376682D01*
X28908076Y5436898D01*
X28908078Y5436901D01*
X28942584Y5507484D01*
X28964582Y5552482D01*
X28975500Y5627418D01*
X28975500Y5970582D01*
X28964582Y6045518D01*
X28956168Y6062730D01*
X28918099Y6140601D01*
X28915843Y6153815D01*
X28909100Y6165399D01*
X28905500Y6195061D01*
X28905500Y6354793D01*
X28925185Y6421832D01*
X28977989Y6467587D01*
X29047147Y6477531D01*
X29092619Y6461526D01*
X29143455Y6431462D01*
X29172236Y6414441D01*
X29192551Y6398683D01*
X29194366Y6397755D01*
X29194875Y6396880D01*
X29196796Y6395390D01*
X31812181Y3780005D01*
X31845666Y3718682D01*
X31848500Y3692324D01*
X31848500Y2767114D01*
X31863032Y2694057D01*
X31863033Y2694053D01*
X31863034Y2694052D01*
X31918399Y2611191D01*
X32001260Y2555826D01*
X32001264Y2555825D01*
X32074321Y2541293D01*
X32074324Y2541292D01*
X32668481Y2541292D01*
X32735520Y2521607D01*
X32781275Y2468803D01*
X32791219Y2399645D01*
X32762194Y2336089D01*
X32756162Y2329611D01*
X32654888Y2228338D01*
X32654885Y2228334D01*
X32578228Y2113610D01*
X32578221Y2113597D01*
X32525421Y1986125D01*
X32525418Y1986115D01*
X32498500Y1850788D01*
X32498500Y1850785D01*
X32498500Y1712799D01*
X32498500Y1712797D01*
X32498499Y1712797D01*
X32525418Y1577470D01*
X32525421Y1577460D01*
X32578221Y1449988D01*
X32578228Y1449975D01*
X32654885Y1335251D01*
X32654888Y1335247D01*
X32752454Y1237681D01*
X32752458Y1237678D01*
X32867182Y1161021D01*
X32867195Y1161014D01*
X32965711Y1120208D01*
X32994672Y1108212D01*
X32994676Y1108212D01*
X32994677Y1108211D01*
X33130004Y1081292D01*
X33130007Y1081292D01*
X33267995Y1081292D01*
X33394575Y1106471D01*
X33403328Y1108212D01*
X33530811Y1161017D01*
X33645542Y1237678D01*
X33743114Y1335250D01*
X33819775Y1449981D01*
X33872580Y1577464D01*
X33886055Y1645206D01*
X33899500Y1712797D01*
X33899500Y1850788D01*
X33872581Y1986115D01*
X33872580Y1986116D01*
X33872580Y1986120D01*
X33861611Y2012601D01*
X33819778Y2113597D01*
X33819771Y2113610D01*
X33743114Y2228334D01*
X33743111Y2228338D01*
X33641838Y2329611D01*
X33608353Y2390934D01*
X33613337Y2460626D01*
X33655209Y2516559D01*
X33720673Y2540976D01*
X33729519Y2541292D01*
X34323676Y2541292D01*
X34323677Y2541293D01*
X34396740Y2555826D01*
X34405828Y2561899D01*
X34472503Y2582777D01*
X34539884Y2564294D01*
X34586575Y2512316D01*
X34598122Y2470955D01*
X34598500Y2467111D01*
X34613032Y2394057D01*
X34613033Y2394053D01*
X34613034Y2394052D01*
X34668399Y2311191D01*
X34733820Y2267479D01*
X34751260Y2255826D01*
X34751264Y2255825D01*
X34824321Y2241293D01*
X34824324Y2241292D01*
X34824326Y2241292D01*
X35873676Y2241292D01*
X35873677Y2241293D01*
X35946740Y2255826D01*
X36029601Y2311191D01*
X36084966Y2394052D01*
X36099500Y2467118D01*
X36099500Y2834679D01*
X37023500Y2834679D01*
X37023500Y1085322D01*
X37038032Y1012265D01*
X37038033Y1012261D01*
X37049089Y995714D01*
X37093399Y929399D01*
X37166144Y880793D01*
X37176260Y874034D01*
X37176264Y874033D01*
X37249321Y859501D01*
X37249324Y859500D01*
X37249326Y859500D01*
X38448676Y859500D01*
X38448677Y859501D01*
X38521740Y874034D01*
X38604601Y929399D01*
X38659966Y1012260D01*
X38670500Y1065215D01*
X41324001Y1065215D01*
X41324002Y1065192D01*
X41326908Y1040131D01*
X41326909Y1040127D01*
X41372211Y937526D01*
X41372214Y937521D01*
X41451520Y858215D01*
X41451525Y858212D01*
X41554123Y812911D01*
X41579206Y810001D01*
X41948999Y810001D01*
X41949000Y810002D01*
X41949000Y1710000D01*
X41324001Y1710000D01*
X41324001Y1065215D01*
X38670500Y1065215D01*
X38674500Y1085326D01*
X38674500Y1614427D01*
X38677271Y1626441D01*
X38676242Y1635142D01*
X38684688Y1658594D01*
X38687031Y1668746D01*
X38688939Y1672663D01*
X38743095Y1766464D01*
X38775500Y1887399D01*
X38775500Y2012601D01*
X38743095Y2133536D01*
X38698949Y2210000D01*
X38691112Y2223575D01*
X38674500Y2285574D01*
X38674500Y2834677D01*
X38670498Y2854795D01*
X41324000Y2854795D01*
X41324000Y2210000D01*
X41949000Y2210000D01*
X42449000Y2210000D01*
X43073999Y2210000D01*
X43073999Y2854786D01*
X43073997Y2854809D01*
X43071091Y2879870D01*
X43071090Y2879874D01*
X43025788Y2982475D01*
X43025785Y2982480D01*
X42946479Y3061786D01*
X42946474Y3061789D01*
X42843876Y3107090D01*
X42818794Y3110000D01*
X42449000Y3110000D01*
X42449000Y2210000D01*
X41949000Y2210000D01*
X41949000Y3110000D01*
X41579214Y3110000D01*
X41579191Y3109998D01*
X41554130Y3107092D01*
X41554126Y3107091D01*
X41451525Y3061789D01*
X41451520Y3061786D01*
X41372214Y2982480D01*
X41372211Y2982475D01*
X41326910Y2879878D01*
X41326910Y2879876D01*
X41324000Y2854795D01*
X38670498Y2854795D01*
X38659967Y2907736D01*
X38659966Y2907740D01*
X38647886Y2925819D01*
X38604601Y2990601D01*
X38545471Y3030110D01*
X38521739Y3045967D01*
X38521735Y3045968D01*
X38448677Y3060500D01*
X38448674Y3060500D01*
X37249326Y3060500D01*
X37249323Y3060500D01*
X37176264Y3045968D01*
X37176260Y3045967D01*
X37093399Y2990601D01*
X37038033Y2907740D01*
X37038032Y2907736D01*
X37023500Y2834679D01*
X36099500Y2834679D01*
X36099500Y3316466D01*
X36099500Y3316469D01*
X36099499Y3316471D01*
X36084967Y3389528D01*
X36084966Y3389532D01*
X36081830Y3394225D01*
X36029601Y3472393D01*
X35962778Y3517042D01*
X35946739Y3527759D01*
X35946735Y3527760D01*
X35873677Y3542292D01*
X35873674Y3542292D01*
X35429832Y3542292D01*
X35362793Y3561977D01*
X35317038Y3614781D01*
X35307094Y3683939D01*
X35308215Y3690484D01*
X35330693Y3803486D01*
X35330693Y3931629D01*
X35305695Y4057296D01*
X35305694Y4057297D01*
X35305694Y4057301D01*
X35256658Y4175684D01*
X35256657Y4175685D01*
X35256654Y4175691D01*
X35185469Y4282226D01*
X35185466Y4282230D01*
X35094865Y4372831D01*
X35094861Y4372834D01*
X34988326Y4444019D01*
X34988317Y4444024D01*
X34869937Y4493058D01*
X34869931Y4493060D01*
X34744264Y4518057D01*
X34744262Y4518057D01*
X34616124Y4518057D01*
X34616119Y4518057D01*
X34508631Y4496676D01*
X34439040Y4502903D01*
X34415550Y4515191D01*
X34396741Y4527759D01*
X34323677Y4542292D01*
X34323674Y4542292D01*
X33574326Y4542292D01*
X33574323Y4542292D01*
X33501264Y4527760D01*
X33501260Y4527759D01*
X33418399Y4472393D01*
X33363033Y4389532D01*
X33363032Y4389528D01*
X33348500Y4316471D01*
X33348500Y2767114D01*
X33363032Y2694057D01*
X33363034Y2694052D01*
X33375642Y2675183D01*
X33378679Y2665483D01*
X33385334Y2657803D01*
X33388942Y2632706D01*
X33396520Y2608506D01*
X33393831Y2598706D01*
X33395278Y2588645D01*
X33384744Y2565580D01*
X33378036Y2541125D01*
X33370474Y2534333D01*
X33366253Y2525089D01*
X33344922Y2511381D01*
X33326057Y2494435D01*
X33314459Y2491804D01*
X33307475Y2487315D01*
X33272540Y2482292D01*
X33125460Y2482292D01*
X33058421Y2501977D01*
X33012666Y2554781D01*
X33002722Y2623939D01*
X33022358Y2675183D01*
X33034966Y2694052D01*
X33049500Y2767118D01*
X33049500Y4316466D01*
X33049500Y4316469D01*
X33049499Y4316471D01*
X33034967Y4389528D01*
X33034966Y4389532D01*
X32979601Y4472393D01*
X32911259Y4518057D01*
X32896739Y4527759D01*
X32896735Y4527760D01*
X32823677Y4542292D01*
X32823674Y4542292D01*
X32516884Y4542292D01*
X32449845Y4561977D01*
X32429203Y4578611D01*
X30869995Y6137819D01*
X30836510Y6199142D01*
X30841494Y6268834D01*
X30883366Y6324767D01*
X30948830Y6349184D01*
X30957676Y6349500D01*
X31025685Y6349500D01*
X31025693Y6349500D01*
X31062568Y6352402D01*
X31062570Y6352403D01*
X31062572Y6352403D01*
X31104190Y6364495D01*
X31220397Y6398256D01*
X31361864Y6481919D01*
X31478080Y6598135D01*
X31561743Y6739602D01*
X31607597Y6897431D01*
X31610499Y6934306D01*
X31610499Y7250000D01*
X37830237Y7250000D01*
X37869652Y7137355D01*
X37950206Y7028208D01*
X38059353Y6947654D01*
X38187396Y6902851D01*
X38217791Y6900001D01*
X38646998Y6900001D01*
X38646999Y6900002D01*
X38646999Y7250000D01*
X37830237Y7250000D01*
X31610499Y7250000D01*
X31610499Y7465694D01*
X31607597Y7502569D01*
X31563877Y7653053D01*
X31564076Y7722921D01*
X31595270Y7775326D01*
X31655276Y7835331D01*
X31726465Y7941873D01*
X31775501Y8060256D01*
X31800500Y8185931D01*
X31800500Y8314069D01*
X31800500Y8314072D01*
X31775502Y8439739D01*
X31775501Y8439740D01*
X31775501Y8439744D01*
X31749693Y8502048D01*
X31742225Y8571517D01*
X31773500Y8633996D01*
X31833589Y8669648D01*
X31864255Y8673500D01*
X34467324Y8673500D01*
X34534363Y8653815D01*
G37*
%TD.AperFunction*%
%TA.AperFunction,Conductor*%
G36*
X21639740Y6431464D02*
G01*
X21720062Y6385090D01*
X21767811Y6372295D01*
X21767812Y6372295D01*
X21777903Y6369592D01*
X21815564Y6359500D01*
X21815565Y6359500D01*
X22713959Y6359500D01*
X22780998Y6339815D01*
X22801640Y6323181D01*
X22882897Y6241924D01*
X22882900Y6241922D01*
X22974353Y6197214D01*
X22998482Y6185418D01*
X23073418Y6174500D01*
X23073423Y6174500D01*
X23416577Y6174500D01*
X23416582Y6174500D01*
X23491518Y6185418D01*
X23563111Y6220418D01*
X23607099Y6241922D01*
X23607102Y6241924D01*
X23667318Y6302139D01*
X23728641Y6335624D01*
X23798333Y6330640D01*
X23842680Y6302139D01*
X23902895Y6241924D01*
X23902898Y6241922D01*
X24018471Y6185422D01*
X24018473Y6185422D01*
X24018480Y6185418D01*
X24018487Y6185417D01*
X24019923Y6184973D01*
X24021425Y6183978D01*
X24023638Y6182896D01*
X24026653Y6182680D01*
X24051890Y6163788D01*
X24078164Y6146376D01*
X24079643Y6143013D01*
X24082587Y6140809D01*
X24093604Y6111270D01*
X24106294Y6082419D01*
X24105719Y6078789D01*
X24107004Y6075345D01*
X24100305Y6044555D01*
X24095380Y6013407D01*
X24092704Y6009611D01*
X24092152Y6007072D01*
X24071002Y5978817D01*
X23948003Y5855818D01*
X23886682Y5822334D01*
X23860323Y5819500D01*
X22853482Y5819500D01*
X22772519Y5806677D01*
X22759696Y5804646D01*
X22646658Y5747050D01*
X22646657Y5747049D01*
X22646652Y5747046D01*
X22556954Y5657348D01*
X22556951Y5657343D01*
X22556950Y5657342D01*
X22541706Y5627424D01*
X22499352Y5544302D01*
X22484500Y5450525D01*
X22484500Y5087483D01*
X22491422Y5043781D01*
X22499354Y4993696D01*
X22551397Y4891556D01*
X22551806Y4890754D01*
X22564702Y4822084D01*
X22541091Y4760825D01*
X22482653Y4681646D01*
X22443238Y4569000D01*
X24351761Y4569000D01*
X24312346Y4681646D01*
X24308005Y4689859D01*
X24311172Y4691533D01*
X24293187Y4740697D01*
X24308468Y4808875D01*
X24354922Y4856150D01*
X24376314Y4868500D01*
X24564965Y5057152D01*
X24626287Y5090636D01*
X24695978Y5085652D01*
X24751912Y5043781D01*
X24769418Y5002358D01*
X24771337Y5002981D01*
X24774352Y4993700D01*
X24774353Y4993697D01*
X24774354Y4993696D01*
X24831950Y4880658D01*
X24831952Y4880656D01*
X24831954Y4880653D01*
X24921652Y4790955D01*
X24921654Y4790954D01*
X24921658Y4790950D01*
X25016713Y4742517D01*
X25034698Y4733353D01*
X25128475Y4718501D01*
X25128481Y4718500D01*
X26216518Y4718501D01*
X26310304Y4733354D01*
X26310312Y4733359D01*
X26312260Y4733991D01*
X26314779Y4734064D01*
X26319943Y4734881D01*
X26320048Y4734215D01*
X26382101Y4735994D01*
X26441938Y4699919D01*
X26472773Y4637222D01*
X26464815Y4567807D01*
X26438272Y4528383D01*
X25865708Y3955819D01*
X25804385Y3922334D01*
X25778027Y3919500D01*
X25128482Y3919500D01*
X25047519Y3906677D01*
X25034696Y3904646D01*
X24921658Y3847050D01*
X24921657Y3847049D01*
X24921652Y3847046D01*
X24831954Y3757348D01*
X24831951Y3757343D01*
X24831950Y3757342D01*
X24826806Y3747246D01*
X24774352Y3644302D01*
X24759500Y3550525D01*
X24759500Y3187483D01*
X24770292Y3119343D01*
X24774354Y3093696D01*
X24831950Y2980658D01*
X24831952Y2980656D01*
X24831954Y2980653D01*
X24921652Y2890955D01*
X24921654Y2890954D01*
X24921658Y2890950D01*
X25032105Y2834674D01*
X25034698Y2833353D01*
X25128475Y2818501D01*
X25128481Y2818500D01*
X26216518Y2818501D01*
X26310304Y2833354D01*
X26423342Y2890950D01*
X26513050Y2980658D01*
X26570646Y3093696D01*
X26570646Y3093698D01*
X26570647Y3093699D01*
X26585499Y3187476D01*
X26585500Y3187481D01*
X26585499Y3350042D01*
X26605183Y3417081D01*
X26621813Y3437718D01*
X27371859Y4187762D01*
X27433182Y4221247D01*
X27459540Y4224081D01*
X27613152Y4224081D01*
X27613157Y4224081D01*
X27688093Y4234999D01*
X27760024Y4270164D01*
X27803674Y4291503D01*
X27803677Y4291505D01*
X27804356Y4292183D01*
X27805510Y4292814D01*
X27812038Y4297474D01*
X27812601Y4296686D01*
X27831283Y4306887D01*
X27857102Y4323479D01*
X27863302Y4324371D01*
X27865679Y4325668D01*
X27892037Y4328502D01*
X27958940Y4328502D01*
X28013400Y4315902D01*
X28104804Y4271218D01*
X28108482Y4269420D01*
X28183418Y4258502D01*
X28183423Y4258502D01*
X28626583Y4258502D01*
X28649682Y4261868D01*
X28701518Y4269420D01*
X28701518Y4269421D01*
X28706622Y4270164D01*
X28775799Y4260351D01*
X28828689Y4214696D01*
X28848500Y4147694D01*
X28848500Y3624935D01*
X28828815Y3557896D01*
X28776011Y3512141D01*
X28706853Y3502197D01*
X28655613Y3521830D01*
X28646741Y3527758D01*
X28646735Y3527760D01*
X28573677Y3542292D01*
X28573674Y3542292D01*
X27524326Y3542292D01*
X27524323Y3542292D01*
X27451264Y3527760D01*
X27451260Y3527759D01*
X27368399Y3472393D01*
X27313033Y3389532D01*
X27313032Y3389528D01*
X27298500Y3316471D01*
X27298500Y2467114D01*
X27313032Y2394057D01*
X27313035Y2394049D01*
X27355183Y2330970D01*
X27376061Y2264293D01*
X27357576Y2196913D01*
X27305597Y2150223D01*
X27299534Y2147519D01*
X27296816Y2146394D01*
X27182686Y2080500D01*
X27182683Y2080498D01*
X26309005Y1206819D01*
X26247682Y1173334D01*
X26221324Y1170500D01*
X23317062Y1170500D01*
X23250023Y1190185D01*
X23204268Y1242989D01*
X23196374Y1289711D01*
X23192469Y1294000D01*
X22739000Y1294000D01*
X22671961Y1313685D01*
X22626206Y1366489D01*
X22615000Y1418000D01*
X22615000Y1544000D01*
X22489000Y1544000D01*
X22421961Y1563685D01*
X22376206Y1616489D01*
X22365000Y1668000D01*
X22365000Y1794000D01*
X22865000Y1794000D01*
X23192467Y1794000D01*
X23192212Y1796730D01*
X23148405Y1921920D01*
X23069641Y2028642D01*
X22962920Y2107406D01*
X22865000Y2141670D01*
X22865000Y1794000D01*
X22365000Y1794000D01*
X22365000Y2141670D01*
X22343663Y2156809D01*
X22300379Y2211657D01*
X22298421Y2231800D01*
X22282669Y2254000D01*
X21809000Y2254000D01*
X21741961Y2273685D01*
X21696206Y2326489D01*
X21685000Y2378000D01*
X21685000Y2630000D01*
X21704685Y2697039D01*
X21757489Y2742794D01*
X21809000Y2754000D01*
X22282668Y2754000D01*
X22248403Y2851923D01*
X22177508Y2947982D01*
X22153537Y3013611D01*
X22162379Y3068244D01*
X22169813Y3086564D01*
X22174859Y3091609D01*
X22231017Y3201825D01*
X22240253Y3260141D01*
X22245601Y3273318D01*
X22258836Y3289986D01*
X22267954Y3309221D01*
X22280130Y3316803D01*
X22289049Y3328035D01*
X22309196Y3334903D01*
X22327265Y3346153D01*
X22341606Y3345949D01*
X22355183Y3350576D01*
X22375844Y3345461D01*
X22397128Y3345157D01*
X22409082Y3337232D01*
X22423005Y3333784D01*
X22437621Y3318310D01*
X22455361Y3306548D01*
X22461132Y3293418D01*
X22470982Y3282990D01*
X22474912Y3262071D01*
X22483477Y3242585D01*
X22484500Y3226693D01*
X22484500Y3187484D01*
X22494649Y3123404D01*
X22499354Y3093696D01*
X22556950Y2980658D01*
X22556952Y2980656D01*
X22556954Y2980653D01*
X22646652Y2890955D01*
X22646654Y2890954D01*
X22646658Y2890950D01*
X22757105Y2834674D01*
X22759698Y2833353D01*
X22853475Y2818501D01*
X22853481Y2818500D01*
X23941518Y2818501D01*
X24035304Y2833354D01*
X24148342Y2890950D01*
X24238050Y2980658D01*
X24295646Y3093696D01*
X24295646Y3093698D01*
X24295647Y3093699D01*
X24310499Y3187476D01*
X24310500Y3187481D01*
X24310499Y3550518D01*
X24295646Y3644304D01*
X24243192Y3747250D01*
X24230297Y3815915D01*
X24253908Y3877175D01*
X24312346Y3956356D01*
X24351762Y4069000D01*
X22443238Y4069000D01*
X22482653Y3956355D01*
X22541091Y3877176D01*
X22544280Y3868445D01*
X22550783Y3861801D01*
X22556076Y3836149D01*
X22565062Y3811547D01*
X22563399Y3800660D01*
X22564903Y3793373D01*
X22559241Y3773433D01*
X22557032Y3758967D01*
X22554720Y3752966D01*
X22499354Y3644304D01*
X22489922Y3584759D01*
X22485210Y3572524D01*
X22471620Y3554770D01*
X22462043Y3534566D01*
X22450795Y3527563D01*
X22442743Y3517042D01*
X22421710Y3509453D01*
X22402731Y3497635D01*
X22389484Y3497825D01*
X22377021Y3493327D01*
X22355223Y3498314D01*
X22332869Y3498633D01*
X22321827Y3505955D01*
X22308911Y3508909D01*
X22293270Y3524888D01*
X22274636Y3537243D01*
X22269305Y3549372D01*
X22260037Y3558840D01*
X22255518Y3580740D01*
X22246522Y3601207D01*
X22245499Y3617099D01*
X22245499Y3634740D01*
X22231018Y3726171D01*
X22231018Y3726172D01*
X22231017Y3726174D01*
X22231017Y3726175D01*
X22174859Y3836391D01*
X22174857Y3836393D01*
X22174854Y3836397D01*
X22087396Y3923855D01*
X22087393Y3923857D01*
X22087391Y3923859D01*
X21977175Y3980017D01*
X21977174Y3980018D01*
X21977171Y3980019D01*
X21885735Y3994500D01*
X21484260Y3994500D01*
X21484260Y3994499D01*
X21392829Y3980019D01*
X21392825Y3980017D01*
X21349643Y3958015D01*
X21336640Y3954894D01*
X21328284Y3949523D01*
X21293349Y3944500D01*
X21059052Y3944500D01*
X21002758Y3958015D01*
X20960301Y3979648D01*
X20866524Y3994500D01*
X20866519Y3994500D01*
X20809500Y3994500D01*
X20800814Y3997051D01*
X20791853Y3995762D01*
X20767812Y4006741D01*
X20742461Y4014185D01*
X20736533Y4021026D01*
X20728297Y4024787D01*
X20714007Y4047022D01*
X20696706Y4066989D01*
X20694418Y4077504D01*
X20690523Y4083565D01*
X20685500Y4118500D01*
X20685500Y4267210D01*
X20705185Y4334249D01*
X20757989Y4380004D01*
X20766146Y4383384D01*
X20827331Y4406204D01*
X20942546Y4492454D01*
X21028796Y4607669D01*
X21079091Y4742517D01*
X21085500Y4802127D01*
X21085499Y5447872D01*
X21079091Y5507483D01*
X21072001Y5526491D01*
X21028797Y5642329D01*
X21028793Y5642336D01*
X20942547Y5757545D01*
X20942544Y5757548D01*
X20854881Y5823173D01*
X20813010Y5879107D01*
X20808026Y5948798D01*
X20841511Y6010120D01*
X20942662Y6111270D01*
X21119573Y6288181D01*
X21180896Y6321666D01*
X21207254Y6324500D01*
X21319676Y6324500D01*
X21319677Y6324501D01*
X21392740Y6339034D01*
X21475601Y6394399D01*
X21475603Y6394403D01*
X21484237Y6403035D01*
X21485355Y6401917D01*
X21528243Y6437766D01*
X21597567Y6446480D01*
X21639740Y6431464D01*
G37*
%TD.AperFunction*%
%TA.AperFunction,Conductor*%
G36*
X12180701Y4943172D02*
G01*
X12187180Y4937139D01*
X13193681Y3930638D01*
X13227166Y3869315D01*
X13230000Y3842957D01*
X13230000Y2840000D01*
X13529999Y2840000D01*
X13529999Y3294958D01*
X13536237Y3316204D01*
X13537817Y3338292D01*
X13545889Y3349076D01*
X13549684Y3361997D01*
X13566417Y3376497D01*
X13579689Y3394225D01*
X13592309Y3398933D01*
X13602488Y3407752D01*
X13624405Y3410904D01*
X13645153Y3418642D01*
X13658313Y3415780D01*
X13671646Y3417696D01*
X13691789Y3408497D01*
X13713426Y3403790D01*
X13731151Y3390522D01*
X13735202Y3388671D01*
X13741680Y3382639D01*
X13743181Y3381138D01*
X13776666Y3319815D01*
X13779500Y3293457D01*
X13779500Y1665325D01*
X13786787Y1628693D01*
X13784909Y1607709D01*
X13787908Y1586853D01*
X13781857Y1573605D01*
X13780560Y1559101D01*
X13767635Y1542464D01*
X13758883Y1523297D01*
X13746631Y1515424D01*
X13737698Y1503923D01*
X13717828Y1496914D01*
X13700105Y1485523D01*
X13675524Y1481989D01*
X13671809Y1480678D01*
X13665170Y1480500D01*
X13650109Y1480500D01*
X13583070Y1500185D01*
X13537315Y1552989D01*
X13526935Y1618792D01*
X13529999Y1645206D01*
X13530000Y1645209D01*
X13530000Y2440000D01*
X12530001Y2440000D01*
X12530001Y1645215D01*
X12530002Y1645195D01*
X12533065Y1618786D01*
X12530328Y1602855D01*
X12532629Y1586853D01*
X12524533Y1569127D01*
X12521235Y1549925D01*
X12510319Y1538003D01*
X12503604Y1523297D01*
X12487211Y1512763D01*
X12474054Y1498391D01*
X12457794Y1493858D01*
X12444826Y1485523D01*
X12409891Y1480500D01*
X12394830Y1480500D01*
X12327791Y1500185D01*
X12282036Y1552989D01*
X12272092Y1622147D01*
X12273213Y1628693D01*
X12280500Y1665325D01*
X12280500Y3614677D01*
X12276498Y3634795D01*
X12530000Y3634795D01*
X12530000Y2840000D01*
X12830000Y2840000D01*
X12830000Y3890000D01*
X12785203Y3890000D01*
X12760130Y3887092D01*
X12760126Y3887091D01*
X12657525Y3841789D01*
X12657520Y3841786D01*
X12578214Y3762480D01*
X12578211Y3762475D01*
X12532910Y3659878D01*
X12532910Y3659876D01*
X12530000Y3634795D01*
X12276498Y3634795D01*
X12265967Y3687736D01*
X12265966Y3687737D01*
X12265966Y3687740D01*
X12210601Y3770601D01*
X12203816Y3780756D01*
X12206793Y3782746D01*
X12183334Y3825707D01*
X12180500Y3852065D01*
X12180500Y3920142D01*
X12180500Y3920144D01*
X12156614Y4009288D01*
X12146742Y4026386D01*
X12137560Y4042291D01*
X12137558Y4042293D01*
X12135872Y4045213D01*
X12110470Y4089212D01*
X11856218Y4343464D01*
X11822733Y4404787D01*
X11827717Y4474479D01*
X11856219Y4518827D01*
X11903046Y4565654D01*
X11903050Y4565658D01*
X11960646Y4678696D01*
X11960646Y4678698D01*
X11960647Y4678699D01*
X11975499Y4772476D01*
X11975500Y4772481D01*
X11975499Y4849459D01*
X11995183Y4916496D01*
X12047986Y4962252D01*
X12117145Y4972196D01*
X12180701Y4943172D01*
G37*
%TD.AperFunction*%
%TA.AperFunction,Conductor*%
G36*
X10294073Y17234815D02*
G01*
X10314715Y17218181D01*
X11416748Y16116147D01*
X11450233Y16054824D01*
X11445249Y15985132D01*
X11403377Y15929199D01*
X11370022Y15911425D01*
X11247080Y15868406D01*
X11140358Y15789642D01*
X11061594Y15682920D01*
X11017787Y15557728D01*
X11017786Y15557726D01*
X11017530Y15555001D01*
X11017531Y15555000D01*
X11471000Y15555000D01*
X11538039Y15535315D01*
X11583794Y15482511D01*
X11595000Y15431000D01*
X11595000Y15305000D01*
X11721000Y15305000D01*
X11788039Y15285315D01*
X11833794Y15232511D01*
X11845000Y15181000D01*
X11845000Y14707333D01*
X11942922Y14741597D01*
X12038981Y14812492D01*
X12104609Y14836463D01*
X12172780Y14821148D01*
X12180589Y14816171D01*
X12182607Y14815143D01*
X12182609Y14815141D01*
X12292825Y14758983D01*
X12292826Y14758983D01*
X12292828Y14758982D01*
X12327947Y14753421D01*
X12384265Y14744500D01*
X12725734Y14744501D01*
X12725739Y14744501D01*
X12725739Y14744502D01*
X12782561Y14753501D01*
X12817170Y14758982D01*
X12817171Y14758982D01*
X12817172Y14758983D01*
X12817175Y14758983D01*
X12927391Y14815141D01*
X12928421Y14816171D01*
X12930432Y14818181D01*
X12935033Y14820694D01*
X12935290Y14820880D01*
X12935314Y14820847D01*
X12991755Y14851666D01*
X13018113Y14854500D01*
X14001035Y14854500D01*
X14068074Y14834815D01*
X14088716Y14818181D01*
X14526317Y14380580D01*
X14559802Y14319257D01*
X14554818Y14249565D01*
X14549121Y14236605D01*
X14489353Y14119305D01*
X14489352Y14119302D01*
X14474500Y14025525D01*
X14474500Y13662483D01*
X14481597Y13617677D01*
X14489354Y13568696D01*
X14546950Y13455658D01*
X14546952Y13455656D01*
X14546954Y13455653D01*
X14636652Y13365955D01*
X14636654Y13365954D01*
X14636658Y13365950D01*
X14727851Y13319485D01*
X14778647Y13271510D01*
X14795442Y13203689D01*
X14772904Y13137554D01*
X14727852Y13098516D01*
X14636658Y13052050D01*
X14636657Y13052049D01*
X14636652Y13052046D01*
X14546954Y12962348D01*
X14546951Y12962343D01*
X14546950Y12962342D01*
X14529661Y12928410D01*
X14489352Y12849302D01*
X14474500Y12755525D01*
X14474500Y12392483D01*
X14482073Y12344668D01*
X14489354Y12298696D01*
X14546950Y12185658D01*
X14546952Y12185656D01*
X14546954Y12185653D01*
X14636652Y12095955D01*
X14636654Y12095954D01*
X14636658Y12095950D01*
X14727851Y12049485D01*
X14778647Y12001510D01*
X14795442Y11933689D01*
X14772904Y11867554D01*
X14727852Y11828516D01*
X14636658Y11782050D01*
X14636657Y11782049D01*
X14636652Y11782046D01*
X14546954Y11692348D01*
X14546951Y11692343D01*
X14546950Y11692342D01*
X14537684Y11674156D01*
X14489352Y11579302D01*
X14474500Y11485525D01*
X14474500Y11122483D01*
X14481467Y11078496D01*
X14489354Y11028696D01*
X14546950Y10915658D01*
X14546952Y10915656D01*
X14546954Y10915653D01*
X14636652Y10825955D01*
X14636654Y10825954D01*
X14636658Y10825950D01*
X14727851Y10779485D01*
X14778647Y10731510D01*
X14795442Y10663689D01*
X14772904Y10597554D01*
X14727852Y10558516D01*
X14636658Y10512050D01*
X14636657Y10512049D01*
X14636652Y10512046D01*
X14546954Y10422348D01*
X14546951Y10422343D01*
X14546950Y10422342D01*
X14533769Y10396472D01*
X14489352Y10309302D01*
X14474500Y10215525D01*
X14474500Y9852483D01*
X14485292Y9784343D01*
X14489354Y9758696D01*
X14546950Y9645658D01*
X14546952Y9645656D01*
X14546954Y9645653D01*
X14636652Y9555955D01*
X14636654Y9555954D01*
X14636658Y9555950D01*
X14727851Y9509485D01*
X14778647Y9461510D01*
X14795442Y9393689D01*
X14772904Y9327554D01*
X14727852Y9288516D01*
X14636658Y9242050D01*
X14636657Y9242049D01*
X14636652Y9242046D01*
X14546954Y9152348D01*
X14546951Y9152343D01*
X14546950Y9152342D01*
X14542903Y9144399D01*
X14489352Y9039302D01*
X14474500Y8945525D01*
X14474500Y8582483D01*
X14484701Y8518079D01*
X14489354Y8488696D01*
X14546950Y8375658D01*
X14546952Y8375656D01*
X14546954Y8375653D01*
X14636652Y8285955D01*
X14636654Y8285954D01*
X14636658Y8285950D01*
X14727851Y8239485D01*
X14778647Y8191510D01*
X14795442Y8123689D01*
X14772904Y8057554D01*
X14727852Y8018516D01*
X14636658Y7972050D01*
X14636657Y7972049D01*
X14636652Y7972046D01*
X14546954Y7882348D01*
X14546951Y7882343D01*
X14546950Y7882342D01*
X14538167Y7865104D01*
X14489352Y7769302D01*
X14474500Y7675525D01*
X14474500Y7312483D01*
X14482467Y7262181D01*
X14489354Y7218696D01*
X14546950Y7105658D01*
X14546952Y7105656D01*
X14546954Y7105653D01*
X14636652Y7015955D01*
X14636654Y7015954D01*
X14636658Y7015950D01*
X14727851Y6969485D01*
X14778647Y6921510D01*
X14795442Y6853689D01*
X14772904Y6787554D01*
X14727852Y6748516D01*
X14636658Y6702050D01*
X14636657Y6702049D01*
X14636652Y6702046D01*
X14546954Y6612348D01*
X14546951Y6612343D01*
X14546950Y6612342D01*
X14530415Y6579890D01*
X14489352Y6499302D01*
X14474500Y6405525D01*
X14474500Y6042483D01*
X14480109Y6007072D01*
X14489354Y5948696D01*
X14546950Y5835658D01*
X14546952Y5835656D01*
X14546954Y5835653D01*
X14636652Y5745955D01*
X14636654Y5745954D01*
X14636658Y5745950D01*
X14727851Y5699485D01*
X14778647Y5651510D01*
X14795442Y5583689D01*
X14772904Y5517554D01*
X14727852Y5478516D01*
X14636658Y5432050D01*
X14636657Y5432049D01*
X14636652Y5432046D01*
X14546954Y5342348D01*
X14546951Y5342343D01*
X14546950Y5342342D01*
X14535586Y5320039D01*
X14489352Y5229302D01*
X14474500Y5135525D01*
X14474500Y4772483D01*
X14480698Y4733353D01*
X14489354Y4678696D01*
X14546950Y4565658D01*
X14546952Y4565656D01*
X14546954Y4565653D01*
X14636652Y4475955D01*
X14636654Y4475954D01*
X14636658Y4475950D01*
X14749694Y4418355D01*
X14749698Y4418353D01*
X14843475Y4403501D01*
X14843481Y4403500D01*
X16556518Y4403501D01*
X16650304Y4418354D01*
X16763342Y4475950D01*
X16853050Y4565658D01*
X16910646Y4678696D01*
X16910646Y4678698D01*
X16910647Y4678699D01*
X16925500Y4772476D01*
X16925500Y4806947D01*
X17285000Y4806947D01*
X17295613Y4718557D01*
X17351079Y4577905D01*
X17442435Y4457436D01*
X17562904Y4366080D01*
X17703556Y4310614D01*
X17791946Y4300000D01*
X17985000Y4300000D01*
X17985000Y4875000D01*
X17285000Y4875000D01*
X17285000Y4806947D01*
X16925500Y4806947D01*
X16925500Y4926362D01*
X16925499Y5135518D01*
X16920529Y5166899D01*
X16910646Y5229304D01*
X16853050Y5342342D01*
X16853046Y5342346D01*
X16853045Y5342348D01*
X16763347Y5432046D01*
X16763343Y5432049D01*
X16763342Y5432050D01*
X16753827Y5436898D01*
X16741745Y5443054D01*
X17285000Y5443054D01*
X17285000Y5375000D01*
X17985000Y5375000D01*
X17985000Y5950000D01*
X17791946Y5950000D01*
X17703556Y5939387D01*
X17562904Y5883921D01*
X17442435Y5792565D01*
X17351079Y5672096D01*
X17295613Y5531444D01*
X17285000Y5443054D01*
X16741745Y5443054D01*
X16672147Y5478517D01*
X16621352Y5526491D01*
X16604557Y5594313D01*
X16627095Y5660447D01*
X16672145Y5699483D01*
X16763342Y5745950D01*
X16853050Y5835658D01*
X16910646Y5948696D01*
X16910646Y5948698D01*
X16910647Y5948699D01*
X16925499Y6042476D01*
X16925500Y6042481D01*
X16925499Y6405518D01*
X16910646Y6499304D01*
X16853050Y6612342D01*
X16853046Y6612346D01*
X16853045Y6612348D01*
X16763347Y6702046D01*
X16763343Y6702049D01*
X16763342Y6702050D01*
X16720271Y6723996D01*
X16672147Y6748517D01*
X16621352Y6796491D01*
X16604557Y6864313D01*
X16627095Y6930447D01*
X16672145Y6969483D01*
X16763342Y7015950D01*
X16853050Y7105658D01*
X16910646Y7218696D01*
X16910646Y7218698D01*
X16910647Y7218699D01*
X16922812Y7295509D01*
X16925500Y7312481D01*
X16925499Y7675518D01*
X16918748Y7718145D01*
X17490000Y7718145D01*
X17500010Y7634776D01*
X17552325Y7502114D01*
X17638489Y7388490D01*
X17752113Y7302326D01*
X17884775Y7250011D01*
X17968144Y7240000D01*
X17977500Y7240000D01*
X17977500Y7765000D01*
X17490000Y7765000D01*
X17490000Y7718145D01*
X16918748Y7718145D01*
X16910646Y7769304D01*
X16853050Y7882342D01*
X16853046Y7882346D01*
X16853045Y7882348D01*
X16763347Y7972046D01*
X16763343Y7972049D01*
X16763342Y7972050D01*
X16760599Y7973448D01*
X16672147Y8018517D01*
X16621352Y8066491D01*
X16604557Y8134313D01*
X16627095Y8200447D01*
X16672145Y8239483D01*
X16763342Y8285950D01*
X16789248Y8311856D01*
X17490000Y8311856D01*
X17490000Y8265000D01*
X17977500Y8265000D01*
X17977500Y8786000D01*
X17934832Y8786000D01*
X17884775Y8779990D01*
X17752113Y8727675D01*
X17638489Y8641511D01*
X17552325Y8527887D01*
X17500010Y8395225D01*
X17490000Y8311856D01*
X16789248Y8311856D01*
X16853050Y8375658D01*
X16910646Y8488696D01*
X16910646Y8488698D01*
X16910647Y8488699D01*
X16923065Y8567105D01*
X16925500Y8582481D01*
X16925499Y8945518D01*
X16910646Y9039304D01*
X16853050Y9152342D01*
X16853046Y9152346D01*
X16853045Y9152348D01*
X16763347Y9242046D01*
X16763343Y9242049D01*
X16763342Y9242050D01*
X16748369Y9249679D01*
X16672147Y9288517D01*
X16621352Y9336491D01*
X16604557Y9404313D01*
X16627095Y9470447D01*
X16670601Y9508145D01*
X17490000Y9508145D01*
X17500010Y9424776D01*
X17552325Y9292114D01*
X17638489Y9178490D01*
X17752113Y9092326D01*
X17884775Y9040011D01*
X17934832Y9034000D01*
X17977500Y9034000D01*
X17977500Y9555000D01*
X17490000Y9555000D01*
X17490000Y9508145D01*
X16670601Y9508145D01*
X16672145Y9509483D01*
X16763342Y9555950D01*
X16853050Y9645658D01*
X16910646Y9758696D01*
X16910646Y9758698D01*
X16910647Y9758699D01*
X16925499Y9852476D01*
X16925500Y9852481D01*
X16925499Y10215518D01*
X16910646Y10309304D01*
X16853050Y10422342D01*
X16853046Y10422346D01*
X16853045Y10422348D01*
X16763347Y10512046D01*
X16763343Y10512049D01*
X16763342Y10512050D01*
X16743969Y10521921D01*
X16672147Y10558517D01*
X16621352Y10606491D01*
X16604557Y10674313D01*
X16627095Y10740447D01*
X16655732Y10769446D01*
X16663539Y10775099D01*
X16763342Y10825950D01*
X16840826Y10903435D01*
X16848812Y10909215D01*
X16872813Y10917732D01*
X16895163Y10929936D01*
X16905187Y10929220D01*
X16914659Y10932580D01*
X16939453Y10926769D01*
X16964855Y10924952D01*
X16972900Y10918930D01*
X16982685Y10916636D01*
X17000400Y10898345D01*
X17020789Y10883082D01*
X17025000Y10872944D01*
X17031293Y10866446D01*
X17034657Y10849694D01*
X17044227Y10826654D01*
X17045418Y10818480D01*
X17101921Y10702901D01*
X17101923Y10702898D01*
X17192897Y10611924D01*
X17192900Y10611922D01*
X17278742Y10569957D01*
X17308482Y10555418D01*
X17383418Y10544500D01*
X17383423Y10544500D01*
X17474519Y10544500D01*
X17541558Y10524815D01*
X17587313Y10472011D01*
X17597257Y10402853D01*
X17573322Y10345574D01*
X17552325Y10317887D01*
X17500010Y10185225D01*
X17490000Y10101856D01*
X17490000Y10055000D01*
X17977500Y10055000D01*
X17977500Y10520959D01*
X17997185Y10587998D01*
X18013819Y10608640D01*
X18108076Y10702898D01*
X18108078Y10702901D01*
X18140076Y10768354D01*
X18164582Y10818482D01*
X18175500Y10893418D01*
X18175500Y10937745D01*
X18184144Y10967186D01*
X18190668Y10997172D01*
X18194422Y11002188D01*
X18195185Y11004784D01*
X18211819Y11025426D01*
X18222819Y11036426D01*
X18284142Y11069911D01*
X18353834Y11064927D01*
X18409767Y11023055D01*
X18434184Y10957591D01*
X18434500Y10948745D01*
X18434500Y10893418D01*
X18445418Y10818482D01*
X18445418Y10818481D01*
X18445419Y10818479D01*
X18495373Y10716296D01*
X18507133Y10647423D01*
X18479789Y10583126D01*
X18477500Y10580602D01*
X18477500Y9030000D01*
X18509819Y8997681D01*
X18543304Y8936358D01*
X18538320Y8866666D01*
X18509819Y8822319D01*
X18477500Y8790000D01*
X18477500Y7224221D01*
X18492005Y7197657D01*
X18487021Y7127965D01*
X18482240Y7116839D01*
X18445418Y7041520D01*
X18445418Y7041518D01*
X18434500Y6966582D01*
X18434500Y6523418D01*
X18445418Y6448482D01*
X18445418Y6448481D01*
X18445419Y6448479D01*
X18501921Y6332901D01*
X18501923Y6332899D01*
X18501924Y6332898D01*
X18592898Y6241924D01*
X18592904Y6241921D01*
X18599745Y6237037D01*
X18619387Y6219594D01*
X18628388Y6209707D01*
X18634520Y6199087D01*
X18673973Y6159634D01*
X18675938Y6157476D01*
X18690006Y6128568D01*
X18705410Y6100358D01*
X18705195Y6097357D01*
X18706512Y6094651D01*
X18702718Y6062730D01*
X18700426Y6030666D01*
X18698622Y6028258D01*
X18698268Y6025270D01*
X18677818Y6000467D01*
X18658554Y5974733D01*
X18655735Y5973682D01*
X18653821Y5971360D01*
X18623207Y5961550D01*
X18593090Y5950316D01*
X18587535Y5950118D01*
X18587284Y5950037D01*
X18587047Y5950101D01*
X18584244Y5950000D01*
X18485000Y5950000D01*
X18485000Y4300000D01*
X18678054Y4300000D01*
X18766443Y4310614D01*
X18907095Y4366080D01*
X19027564Y4457436D01*
X19118920Y4577905D01*
X19121805Y4585221D01*
X19164709Y4640367D01*
X19230615Y4663564D01*
X19298600Y4647446D01*
X19336429Y4614048D01*
X19341203Y4607670D01*
X19341204Y4607669D01*
X19427454Y4492454D01*
X19451834Y4474203D01*
X19542664Y4406207D01*
X19542669Y4406204D01*
X19603833Y4383392D01*
X19621558Y4370123D01*
X19641703Y4360923D01*
X19648984Y4349593D01*
X19659766Y4341522D01*
X19667504Y4320774D01*
X19679477Y4302145D01*
X19682628Y4280230D01*
X19684184Y4276058D01*
X19684500Y4267210D01*
X19684500Y4055534D01*
X19664815Y3988495D01*
X19616796Y3945050D01*
X19571656Y3922050D01*
X19481954Y3832348D01*
X19481951Y3832343D01*
X19481950Y3832342D01*
X19455666Y3780756D01*
X19424353Y3719303D01*
X19423887Y3716358D01*
X19422328Y3713070D01*
X19421337Y3710020D01*
X19420942Y3710149D01*
X19393955Y3653225D01*
X19334641Y3616296D01*
X19264779Y3617296D01*
X19213733Y3648080D01*
X19017315Y3844498D01*
X19017313Y3844500D01*
X18960249Y3877446D01*
X18903186Y3910392D01*
X18827625Y3930638D01*
X18775891Y3944500D01*
X18775890Y3944500D01*
X18775886Y3944501D01*
X18767869Y3945557D01*
X18727770Y3958009D01*
X18685300Y3979648D01*
X18591524Y3994500D01*
X17503482Y3994500D01*
X17422519Y3981677D01*
X17409696Y3979646D01*
X17296658Y3922050D01*
X17296657Y3922049D01*
X17296652Y3922046D01*
X17206954Y3832348D01*
X17206951Y3832343D01*
X17206950Y3832342D01*
X17193436Y3805820D01*
X17149352Y3719302D01*
X17134500Y3625525D01*
X17134500Y3262483D01*
X17144107Y3201825D01*
X17149354Y3168696D01*
X17180744Y3107090D01*
X17201806Y3065754D01*
X17204548Y3051153D01*
X17211930Y3038260D01*
X17210866Y3017507D01*
X17214702Y2997084D01*
X17209054Y2982134D01*
X17208355Y2968482D01*
X17192740Y2938946D01*
X17192070Y2937170D01*
X17123140Y2841103D01*
X17101993Y2824597D01*
X17083282Y2805372D01*
X17074869Y2803423D01*
X17068064Y2798110D01*
X17041350Y2795656D01*
X17015216Y2789600D01*
X17007085Y2792508D01*
X16998487Y2791718D01*
X16974689Y2804095D01*
X16949428Y2813130D01*
X16940757Y2821743D01*
X16936500Y2823957D01*
X16933824Y2828629D01*
X16922621Y2839758D01*
X16849641Y2938642D01*
X16742919Y3017406D01*
X16617727Y3061213D01*
X16617725Y3061214D01*
X16615000Y3061470D01*
X16615000Y2734000D01*
X16967647Y2734000D01*
X16967767Y2734081D01*
X16977608Y2738273D01*
X16978885Y2738424D01*
X16979896Y2739221D01*
X17013482Y2742494D01*
X17016362Y2742832D01*
X17016362Y2744000D01*
X17023230Y2744000D01*
X17023230Y2743640D01*
X17046999Y2746436D01*
X17048155Y2745872D01*
X17049436Y2745996D01*
X17053326Y2744000D01*
X17923500Y2744000D01*
X17990539Y2724315D01*
X18036294Y2671511D01*
X18047500Y2620000D01*
X18047500Y2368000D01*
X18027815Y2300961D01*
X17975011Y2255206D01*
X17923500Y2244000D01*
X17087290Y2244000D01*
X17079351Y2239254D01*
X17065416Y2235063D01*
X17043638Y2234921D01*
X17043638Y2234000D01*
X17032677Y2234000D01*
X17032677Y2234561D01*
X17006437Y2232011D01*
X17002563Y2234000D01*
X15767332Y2234000D01*
X15801596Y2136078D01*
X15872491Y2040019D01*
X15896462Y1974390D01*
X15881147Y1906220D01*
X15876170Y1898411D01*
X15818981Y1786173D01*
X15818981Y1786172D01*
X15804500Y1694736D01*
X15804500Y1651967D01*
X15795856Y1622531D01*
X15789333Y1592541D01*
X15785577Y1587525D01*
X15784815Y1584928D01*
X15768182Y1564287D01*
X15720716Y1516820D01*
X15659393Y1483334D01*
X15633034Y1480500D01*
X14794830Y1480500D01*
X14727791Y1500185D01*
X14682036Y1552989D01*
X14672092Y1622147D01*
X14673213Y1628693D01*
X14680500Y1665325D01*
X14680500Y2734000D01*
X15767332Y2734000D01*
X16115000Y2734000D01*
X16115000Y3061469D01*
X16114999Y3061470D01*
X16112274Y3061214D01*
X16112272Y3061213D01*
X15987080Y3017406D01*
X15880358Y2938642D01*
X15801596Y2831923D01*
X15767332Y2734000D01*
X14680500Y2734000D01*
X14680500Y3614677D01*
X14680499Y3614679D01*
X14665967Y3687736D01*
X14665966Y3687740D01*
X14658429Y3699020D01*
X14610601Y3770601D01*
X14527740Y3825966D01*
X14527739Y3825967D01*
X14527735Y3825968D01*
X14454677Y3840500D01*
X14454674Y3840500D01*
X14326543Y3840500D01*
X14259504Y3860185D01*
X14238862Y3876819D01*
X12011818Y6103864D01*
X11978333Y6165187D01*
X11975499Y6191545D01*
X11975499Y6405518D01*
X11970905Y6434525D01*
X11960646Y6499304D01*
X11903050Y6612342D01*
X11903046Y6612346D01*
X11903045Y6612348D01*
X11813347Y6702046D01*
X11813343Y6702049D01*
X11813342Y6702050D01*
X11770271Y6723996D01*
X11722147Y6748517D01*
X11671352Y6796491D01*
X11654557Y6864313D01*
X11677095Y6930447D01*
X11722145Y6969483D01*
X11813342Y7015950D01*
X11903050Y7105658D01*
X11960646Y7218696D01*
X11960646Y7218698D01*
X11960647Y7218699D01*
X11972812Y7295509D01*
X11975500Y7312481D01*
X11975499Y7675518D01*
X11960646Y7769304D01*
X11903050Y7882342D01*
X11903046Y7882346D01*
X11903045Y7882348D01*
X11813347Y7972046D01*
X11813343Y7972049D01*
X11813342Y7972050D01*
X11810599Y7973448D01*
X11722147Y8018517D01*
X11671352Y8066491D01*
X11654557Y8134313D01*
X11677095Y8200447D01*
X11722145Y8239483D01*
X11813342Y8285950D01*
X11903050Y8375658D01*
X11960646Y8488696D01*
X11960646Y8488698D01*
X11960647Y8488699D01*
X11973065Y8567105D01*
X11975500Y8582481D01*
X11975499Y8945518D01*
X11960646Y9039304D01*
X11903050Y9152342D01*
X11903046Y9152346D01*
X11903045Y9152348D01*
X11813347Y9242046D01*
X11813343Y9242049D01*
X11813342Y9242050D01*
X11798369Y9249679D01*
X11722147Y9288517D01*
X11671352Y9336491D01*
X11654557Y9404313D01*
X11677095Y9470447D01*
X11722145Y9509483D01*
X11813342Y9555950D01*
X11903050Y9645658D01*
X11960646Y9758696D01*
X11960646Y9758698D01*
X11960647Y9758699D01*
X11975499Y9852476D01*
X11975500Y9852481D01*
X11975499Y10215518D01*
X11960646Y10309304D01*
X11903050Y10422342D01*
X11903046Y10422346D01*
X11903045Y10422348D01*
X11813347Y10512046D01*
X11813343Y10512049D01*
X11813342Y10512050D01*
X11793969Y10521921D01*
X11722147Y10558517D01*
X11712993Y10567163D01*
X11701328Y10571897D01*
X11688075Y10590696D01*
X11671352Y10606491D01*
X11668325Y10618714D01*
X11661071Y10629004D01*
X11660085Y10651986D01*
X11654557Y10674313D01*
X11658618Y10686230D01*
X11658079Y10698809D01*
X11669675Y10718676D01*
X11677095Y10740447D01*
X11687797Y10749721D01*
X11693302Y10759151D01*
X11722142Y10779482D01*
X11811823Y10825177D01*
X11880491Y10838072D01*
X11900208Y10834466D01*
X11937399Y10824500D01*
X11937400Y10824500D01*
X12062599Y10824500D01*
X12062601Y10824500D01*
X12183536Y10856905D01*
X12291964Y10919505D01*
X12380495Y11008036D01*
X12443095Y11116464D01*
X12475500Y11237399D01*
X12475500Y11362601D01*
X12443095Y11483536D01*
X12380495Y11591964D01*
X12291964Y11680495D01*
X12183536Y11743095D01*
X12183537Y11743095D01*
X12143224Y11753897D01*
X12062601Y11775500D01*
X11937399Y11775500D01*
X11937394Y11775500D01*
X11910480Y11768288D01*
X11840630Y11769952D01*
X11822083Y11777584D01*
X11813364Y11782028D01*
X11813342Y11782050D01*
X11724835Y11827147D01*
X11722137Y11828522D01*
X11699049Y11850332D01*
X11671352Y11876491D01*
X11671350Y11876498D01*
X11671346Y11876502D01*
X11661958Y11914425D01*
X11654557Y11944313D01*
X11654558Y11944318D01*
X11654557Y11944324D01*
X11666750Y11980090D01*
X11677095Y12010447D01*
X11677100Y12010452D01*
X11677102Y12010457D01*
X11677156Y12010501D01*
X11722145Y12049483D01*
X11813342Y12095950D01*
X11813348Y12095957D01*
X11820045Y12100820D01*
X11885852Y12124298D01*
X11892928Y12124500D01*
X11962599Y12124500D01*
X11962601Y12124500D01*
X12083536Y12156905D01*
X12191964Y12219505D01*
X12280495Y12308036D01*
X12343095Y12416464D01*
X12375500Y12537399D01*
X12375500Y12662601D01*
X12343095Y12783536D01*
X12280495Y12891964D01*
X12191964Y12980495D01*
X12083536Y13043095D01*
X12083537Y13043095D01*
X12028067Y13057958D01*
X11962601Y13075500D01*
X11871599Y13075500D01*
X11804560Y13095185D01*
X11758805Y13147989D01*
X11748861Y13217147D01*
X11777886Y13280703D01*
X11797965Y13299270D01*
X11896792Y13372208D01*
X11977346Y13481355D01*
X12016762Y13594000D01*
X9688612Y13594000D01*
X9621573Y13613685D01*
X9600930Y13630320D01*
X9567395Y13663856D01*
X9567393Y13663857D01*
X9567391Y13663859D01*
X9457175Y13720017D01*
X9457174Y13720018D01*
X9457171Y13720019D01*
X9365735Y13734500D01*
X9024260Y13734500D01*
X9024260Y13734499D01*
X8932829Y13720019D01*
X8932828Y13720019D01*
X8894158Y13700315D01*
X8822609Y13663859D01*
X8822607Y13663858D01*
X8813914Y13659428D01*
X8812881Y13661454D01*
X8801785Y13657498D01*
X8779796Y13645295D01*
X8769441Y13645965D01*
X8759668Y13642480D01*
X8735172Y13648182D01*
X8710072Y13649805D01*
X8696218Y13657249D01*
X8691617Y13658319D01*
X8678981Y13666509D01*
X8644724Y13691792D01*
X8602473Y13747440D01*
X8597015Y13817096D01*
X8630083Y13878645D01*
X8656355Y13898947D01*
X8691964Y13919505D01*
X8780495Y14008036D01*
X8830126Y14094000D01*
X9483238Y14094000D01*
X10500000Y14094000D01*
X11000000Y14094000D01*
X12016761Y14094000D01*
X11977346Y14206646D01*
X11896792Y14315793D01*
X11787645Y14396347D01*
X11659602Y14441150D01*
X11629207Y14444000D01*
X11000000Y14444000D01*
X11000000Y14094000D01*
X10500000Y14094000D01*
X10500000Y14444000D01*
X9870803Y14444000D01*
X9840393Y14441149D01*
X9712354Y14396347D01*
X9603207Y14315793D01*
X9522653Y14206646D01*
X9483238Y14094000D01*
X8830126Y14094000D01*
X8843095Y14116464D01*
X8875500Y14237399D01*
X8875500Y14362601D01*
X8855436Y14437479D01*
X8854725Y14440134D01*
X8850500Y14472227D01*
X8850500Y14533960D01*
X8870185Y14600999D01*
X8886819Y14621642D01*
X8887100Y14621924D01*
X8887102Y14621924D01*
X8978076Y14712898D01*
X8978076Y14712900D01*
X8978078Y14712901D01*
X9012609Y14783536D01*
X9034582Y14828482D01*
X9045500Y14903418D01*
X9045500Y15055000D01*
X11017532Y15055000D01*
X11017787Y15052271D01*
X11061594Y14927081D01*
X11140358Y14820359D01*
X11247077Y14741597D01*
X11345000Y14707332D01*
X11345000Y15055000D01*
X11017532Y15055000D01*
X9045500Y15055000D01*
X9045500Y15246582D01*
X9034582Y15321518D01*
X9032222Y15326344D01*
X8978078Y15437100D01*
X8978076Y15437103D01*
X8955106Y15460073D01*
X8921621Y15521396D01*
X8926605Y15591088D01*
X8964778Y15642081D01*
X8964495Y15642364D01*
X8966466Y15644336D01*
X8968477Y15647021D01*
X8969156Y15647526D01*
X8971065Y15648936D01*
X9048933Y15754441D01*
X9048934Y15754443D01*
X9080621Y15845000D01*
X8599000Y15845000D01*
X8531961Y15864685D01*
X8486206Y15917489D01*
X8475000Y15969000D01*
X8475000Y16095000D01*
X8349000Y16095000D01*
X8281961Y16114685D01*
X8236206Y16167489D01*
X8225000Y16219000D01*
X8225000Y16345000D01*
X8725000Y16345000D01*
X9080622Y16345000D01*
X9080621Y16345001D01*
X9048934Y16435558D01*
X9048933Y16435560D01*
X8971065Y16541066D01*
X8865559Y16618934D01*
X8865557Y16618935D01*
X8741786Y16662245D01*
X8725000Y16663819D01*
X8725000Y16345000D01*
X8225000Y16345000D01*
X8225000Y16649035D01*
X8233644Y16678476D01*
X8240168Y16708462D01*
X8243922Y16713478D01*
X8244685Y16716074D01*
X8261316Y16736714D01*
X8467787Y16943184D01*
X8529108Y16976666D01*
X8555466Y16979500D01*
X8856130Y16979500D01*
X8856144Y16979501D01*
X8878023Y16981854D01*
X8912022Y16985509D01*
X9038450Y17032664D01*
X9146472Y17113528D01*
X9214805Y17204812D01*
X9270739Y17246682D01*
X9314072Y17254500D01*
X10227034Y17254500D01*
X10294073Y17234815D01*
G37*
%TD.AperFunction*%
%TA.AperFunction,Conductor*%
G36*
X6572177Y7029816D02*
G01*
X6617932Y6977012D01*
X6627876Y6907854D01*
X6598851Y6844298D01*
X6592820Y6837820D01*
X6555000Y6800000D01*
X6644095Y6710905D01*
X6677580Y6649582D01*
X6672596Y6579890D01*
X6644095Y6535543D01*
X6089457Y5980905D01*
X6028134Y5947420D01*
X5958442Y5952404D01*
X5914095Y5980905D01*
X5735905Y6159095D01*
X5731573Y6167028D01*
X5724337Y6172442D01*
X5715090Y6197214D01*
X5702420Y6220418D01*
X5703064Y6229433D01*
X5699904Y6237900D01*
X5704970Y6261220D01*
X5704431Y6264218D01*
X5705785Y6267485D01*
X5707404Y6290110D01*
X5713212Y6299150D01*
X5714739Y6306177D01*
X5730650Y6327435D01*
X5731199Y6328757D01*
X5733840Y6331698D01*
X5735841Y6334370D01*
X5735884Y6334436D01*
X5735912Y6334465D01*
X5735915Y6334468D01*
X5737270Y6335824D01*
X5740015Y6338569D01*
X5740034Y6338589D01*
X6201447Y6800001D01*
X6163628Y6837820D01*
X6130143Y6899143D01*
X6135127Y6968835D01*
X6176999Y7024768D01*
X6242463Y7049185D01*
X6251285Y7049501D01*
X6505139Y7049501D01*
X6572177Y7029816D01*
G37*
%TD.AperFunction*%
%TA.AperFunction,Conductor*%
G36*
X41816356Y13049233D02*
G01*
X41841854Y13034512D01*
X41851890Y13026999D01*
X41879668Y13006205D01*
X41879671Y13006203D01*
X42014517Y12955909D01*
X42014516Y12955909D01*
X42021444Y12955165D01*
X42074127Y12949500D01*
X43469872Y12949501D01*
X43529483Y12955909D01*
X43532165Y12956909D01*
X43534391Y12957069D01*
X43537031Y12957692D01*
X43537132Y12957265D01*
X43601857Y12961894D01*
X43663180Y12928410D01*
X43696666Y12867087D01*
X43699500Y12840728D01*
X43699500Y7159273D01*
X43679815Y7092234D01*
X43627011Y7046479D01*
X43557853Y7036535D01*
X43532176Y7043088D01*
X43529489Y7044090D01*
X43529483Y7044092D01*
X43469883Y7050499D01*
X43469881Y7050500D01*
X43469873Y7050500D01*
X43469865Y7050500D01*
X42166254Y7050500D01*
X42099215Y7070185D01*
X42053460Y7122989D01*
X42043516Y7192147D01*
X42072541Y7255703D01*
X42078559Y7262167D01*
X42320480Y7504087D01*
X42373207Y7595412D01*
X42400500Y7697273D01*
X42400500Y7802727D01*
X42400500Y10823381D01*
X42394401Y10846144D01*
X42373207Y10925242D01*
X42320480Y11016567D01*
X41536819Y11800228D01*
X41503334Y11861551D01*
X41500500Y11887909D01*
X41500500Y12620614D01*
X41520185Y12687653D01*
X41536819Y12708295D01*
X41540509Y12711985D01*
X41612984Y12837515D01*
X41647771Y12967343D01*
X41684134Y13026999D01*
X41746981Y13057528D01*
X41816356Y13049233D01*
G37*
%TD.AperFunction*%
%TA.AperFunction,Conductor*%
G36*
X23896615Y13529815D02*
G01*
X23942370Y13477011D01*
X23952314Y13407853D01*
X23932678Y13356609D01*
X23923919Y13343501D01*
X23923912Y13343489D01*
X23867343Y13206918D01*
X23867340Y13206908D01*
X23838500Y13061921D01*
X23838500Y13061918D01*
X23838500Y12914082D01*
X23838500Y12914080D01*
X23838499Y12914080D01*
X23867340Y12769093D01*
X23867343Y12769083D01*
X23923912Y12632512D01*
X23923919Y12632499D01*
X24006048Y12509585D01*
X24006051Y12509581D01*
X24039949Y12475683D01*
X24073434Y12414360D01*
X24068450Y12344668D01*
X24039949Y12300321D01*
X23967601Y12227974D01*
X23967598Y12227970D01*
X23880052Y12096949D01*
X23880047Y12096939D01*
X23826639Y11968001D01*
X23826639Y11968000D01*
X24379382Y11968000D01*
X24328936Y11917554D01*
X24286149Y11843445D01*
X24264000Y11760787D01*
X24264000Y11675213D01*
X24286149Y11592555D01*
X24328936Y11518446D01*
X24379382Y11468000D01*
X23826639Y11468000D01*
X23880047Y11339062D01*
X23880052Y11339052D01*
X23967598Y11208031D01*
X23967601Y11208027D01*
X24039949Y11135679D01*
X24073434Y11074356D01*
X24068450Y11004664D01*
X24039949Y10960317D01*
X24006051Y10926420D01*
X24006048Y10926416D01*
X23923919Y10803502D01*
X23923912Y10803489D01*
X23867343Y10666918D01*
X23867340Y10666908D01*
X23838500Y10521921D01*
X23838500Y10521918D01*
X23838500Y10374082D01*
X23838500Y10374080D01*
X23838499Y10374080D01*
X23867340Y10229093D01*
X23867343Y10229083D01*
X23922073Y10096952D01*
X23929542Y10027483D01*
X23898266Y9965004D01*
X23838177Y9929352D01*
X23807512Y9925500D01*
X22773434Y9925500D01*
X22706395Y9945185D01*
X22704574Y9946377D01*
X22682740Y9960966D01*
X22682739Y9960967D01*
X22682738Y9960967D01*
X22609676Y9975500D01*
X22609674Y9975500D01*
X22050326Y9975500D01*
X22050323Y9975500D01*
X21977264Y9960968D01*
X21977260Y9960967D01*
X21894399Y9905601D01*
X21839033Y9822740D01*
X21839032Y9822736D01*
X21824500Y9749679D01*
X21824500Y9300322D01*
X21839032Y9227265D01*
X21839033Y9227261D01*
X21839034Y9227260D01*
X21894399Y9144399D01*
X21894400Y9144399D01*
X21901185Y9134244D01*
X21899870Y9133366D01*
X21926666Y9084294D01*
X21929500Y9057936D01*
X21929500Y7850899D01*
X21923261Y7829654D01*
X21921682Y7807565D01*
X21913609Y7796782D01*
X21909815Y7783860D01*
X21893081Y7769361D01*
X21879810Y7751632D01*
X21867189Y7746925D01*
X21857011Y7738105D01*
X21835093Y7734954D01*
X21814346Y7727215D01*
X21801185Y7730078D01*
X21787853Y7728161D01*
X21767709Y7737361D01*
X21746073Y7742067D01*
X21728347Y7755336D01*
X21724297Y7757186D01*
X21717819Y7763218D01*
X21581819Y7899218D01*
X21548334Y7960541D01*
X21545500Y7986899D01*
X21545500Y7999677D01*
X21545499Y7999679D01*
X21530967Y8072736D01*
X21530966Y8072740D01*
X21522686Y8085132D01*
X21475601Y8155601D01*
X21402166Y8204668D01*
X21392739Y8210967D01*
X21392735Y8210968D01*
X21319677Y8225500D01*
X21319674Y8225500D01*
X20760326Y8225500D01*
X20760323Y8225500D01*
X20687264Y8210968D01*
X20687260Y8210967D01*
X20683390Y8208380D01*
X20679945Y8207302D01*
X20677480Y8204668D01*
X20646857Y8196942D01*
X20616712Y8187503D01*
X20613232Y8188458D01*
X20609734Y8187575D01*
X20579799Y8197630D01*
X20549332Y8205988D01*
X20546920Y8208674D01*
X20543500Y8209822D01*
X20523750Y8234469D01*
X20502642Y8257968D01*
X20501402Y8262357D01*
X20499809Y8264345D01*
X20497410Y8276490D01*
X20491175Y8298567D01*
X20490500Y8305012D01*
X20490500Y8316130D01*
X20484491Y8372022D01*
X20483087Y8375785D01*
X20481852Y8387584D01*
X20486778Y8414468D01*
X20488245Y8441766D01*
X20492985Y8448339D01*
X20494446Y8456309D01*
X20513126Y8476264D01*
X20529118Y8498434D01*
X20536659Y8501401D01*
X20542197Y8507315D01*
X20568697Y8514002D01*
X20594139Y8524008D01*
X20605177Y8524500D01*
X20964435Y8524500D01*
X20964436Y8524500D01*
X21012186Y8537295D01*
X21059938Y8550090D01*
X21082946Y8563375D01*
X21093260Y8567105D01*
X21112198Y8568272D01*
X21135443Y8574500D01*
X21319676Y8574500D01*
X21319677Y8574501D01*
X21392740Y8589034D01*
X21475601Y8644399D01*
X21530966Y8727260D01*
X21545500Y8800326D01*
X21545500Y9249674D01*
X21545500Y9249677D01*
X21545499Y9249679D01*
X21530967Y9322736D01*
X21530966Y9322740D01*
X21505779Y9360435D01*
X21475601Y9405601D01*
X21451209Y9421899D01*
X21406405Y9475509D01*
X21397698Y9544834D01*
X21427852Y9607862D01*
X21451207Y9628101D01*
X21475601Y9644399D01*
X21530966Y9727260D01*
X21545500Y9800326D01*
X21545500Y9916255D01*
X21562113Y9978256D01*
X21565479Y9984087D01*
X21565481Y9984088D01*
X21618208Y10075413D01*
X21645501Y10177274D01*
X21645501Y10282728D01*
X21645501Y10569957D01*
X21665186Y10636996D01*
X21717990Y10682751D01*
X21787148Y10692695D01*
X21850704Y10663670D01*
X21857182Y10657638D01*
X21902896Y10611924D01*
X21902899Y10611922D01*
X21988741Y10569957D01*
X22018481Y10555418D01*
X22093417Y10544500D01*
X22093422Y10544500D01*
X22436576Y10544500D01*
X22436581Y10544500D01*
X22511517Y10555418D01*
X22583679Y10590696D01*
X22627098Y10611922D01*
X22627101Y10611924D01*
X22718075Y10702898D01*
X22718077Y10702901D01*
X22750075Y10768354D01*
X22774581Y10818482D01*
X22785499Y10893418D01*
X22785499Y11336582D01*
X22774581Y11411518D01*
X22766892Y11427246D01*
X22718079Y11527097D01*
X22717473Y11527945D01*
X22717003Y11529298D01*
X22713563Y11536334D01*
X22714413Y11536750D01*
X22694537Y11593943D01*
X22707154Y11654798D01*
X22714125Y11668950D01*
X22718075Y11672899D01*
X22774581Y11788483D01*
X22775240Y11793010D01*
X22781561Y11805840D01*
X22792398Y11817630D01*
X22805113Y11838722D01*
X23177754Y12211364D01*
X23233339Y12243455D01*
X23283536Y12256905D01*
X23391964Y12319505D01*
X23480495Y12408036D01*
X23543095Y12516464D01*
X23575500Y12637399D01*
X23575500Y12762601D01*
X23543095Y12883536D01*
X23480495Y12991964D01*
X23391964Y13080495D01*
X23283536Y13143095D01*
X23283537Y13143095D01*
X23236483Y13155703D01*
X23162601Y13175500D01*
X23037399Y13175500D01*
X22936818Y13148550D01*
X22866970Y13150212D01*
X22809108Y13189374D01*
X22787166Y13228883D01*
X22783626Y13239434D01*
X22774581Y13301517D01*
X22737022Y13378344D01*
X22734434Y13386059D01*
X22733400Y13413168D01*
X22728834Y13439913D01*
X22732089Y13447569D01*
X22731773Y13455878D01*
X22745559Y13479242D01*
X22756178Y13504210D01*
X22763054Y13508890D01*
X22767281Y13516052D01*
X22791512Y13528255D01*
X22813942Y13543517D01*
X22825398Y13545319D01*
X22829685Y13547477D01*
X22835344Y13546883D01*
X22851994Y13549500D01*
X23829576Y13549500D01*
X23896615Y13529815D01*
G37*
%TD.AperFunction*%
%TA.AperFunction,Conductor*%
G36*
X4599334Y15959717D02*
G01*
X4655267Y15917845D01*
X4679684Y15852381D01*
X4680000Y15843535D01*
X4680000Y14226940D01*
X4686795Y14170350D01*
X4686796Y14170349D01*
X5715543Y15199095D01*
X5776866Y15232580D01*
X5846558Y15227596D01*
X5890905Y15199095D01*
X6069094Y15020906D01*
X6102579Y14959583D01*
X6097595Y14889891D01*
X6069094Y14845544D01*
X4995001Y13771451D01*
X4995001Y13771450D01*
X5098555Y13730615D01*
X5186946Y13720000D01*
X5607953Y13720000D01*
X5674992Y13700315D01*
X5720747Y13647511D01*
X5730691Y13578353D01*
X5724993Y13555042D01*
X5719839Y13540314D01*
X5679116Y13483539D01*
X5614163Y13457794D01*
X5570709Y13461496D01*
X5555766Y13465500D01*
X5404234Y13465500D01*
X5257863Y13426281D01*
X5126635Y13350515D01*
X5126632Y13350513D01*
X5019487Y13243368D01*
X5019485Y13243365D01*
X4943719Y13112137D01*
X4907791Y12978050D01*
X4904500Y12965766D01*
X4904500Y12814234D01*
X4920233Y12755518D01*
X4943719Y12667864D01*
X4974432Y12614669D01*
X5019485Y12536635D01*
X5126635Y12429485D01*
X5230499Y12369519D01*
X5250699Y12357856D01*
X5257865Y12353719D01*
X5404234Y12314500D01*
X5404236Y12314500D01*
X5555763Y12314500D01*
X5555766Y12314500D01*
X5574818Y12319605D01*
X5583419Y12319401D01*
X5591307Y12322845D01*
X5617820Y12318582D01*
X5644665Y12317942D01*
X5651792Y12313118D01*
X5660291Y12311751D01*
X5680290Y12293831D01*
X5702527Y12278780D01*
X5707275Y12269650D01*
X5712326Y12265124D01*
X5719077Y12246959D01*
X5726451Y12232780D01*
X5729500Y12221715D01*
X5729501Y12218482D01*
X5744354Y12124696D01*
X5770253Y12073866D01*
X5773598Y12061731D01*
X5773217Y12038875D01*
X5777437Y12016406D01*
X5772547Y11998609D01*
X5772435Y11991871D01*
X5769476Y11987432D01*
X5766438Y11976377D01*
X5736283Y11911706D01*
X5735740Y11910542D01*
X5729500Y11863141D01*
X5729500Y11636869D01*
X5729501Y11636862D01*
X5735741Y11589455D01*
X5753018Y11552404D01*
X5763509Y11483327D01*
X5753018Y11447598D01*
X5735742Y11410549D01*
X5735740Y11410542D01*
X5729500Y11363141D01*
X5729500Y11363139D01*
X5729500Y11251188D01*
X5729501Y11224501D01*
X5709817Y11157461D01*
X5657013Y11111706D01*
X5605501Y11100500D01*
X1929386Y11100500D01*
X1862347Y11120185D01*
X1841705Y11136819D01*
X1738017Y11240507D01*
X1738011Y11240512D01*
X1612488Y11312983D01*
X1612483Y11312985D01*
X1556325Y11328033D01*
X1496665Y11364398D01*
X1466137Y11427246D01*
X1474432Y11496621D01*
X1518918Y11550498D01*
X1564228Y11569424D01*
X1589744Y11574499D01*
X1708127Y11623535D01*
X1814669Y11694724D01*
X1814672Y11694727D01*
X1833127Y11713181D01*
X1894450Y11746666D01*
X1920808Y11749500D01*
X2459308Y11749500D01*
X2459309Y11749500D01*
X2549673Y11773714D01*
X2573887Y11780201D01*
X2676614Y11839511D01*
X4160489Y13323386D01*
X4219799Y13426113D01*
X4227715Y13455658D01*
X4250500Y13540691D01*
X4250500Y15662035D01*
X4270185Y15729074D01*
X4286819Y15749716D01*
X4468319Y15931216D01*
X4529642Y15964701D01*
X4599334Y15959717D01*
G37*
%TD.AperFunction*%
%TA.AperFunction,Conductor*%
G36*
X27241539Y19679815D02*
G01*
X27287294Y19627011D01*
X27298500Y19575500D01*
X27298500Y18880322D01*
X27313032Y18807265D01*
X27313033Y18807261D01*
X27313034Y18807260D01*
X27368399Y18724399D01*
X27445341Y18672989D01*
X27451260Y18669034D01*
X27451264Y18669033D01*
X27524321Y18654501D01*
X27524324Y18654500D01*
X27524326Y18654500D01*
X28573676Y18654500D01*
X28573677Y18654501D01*
X28646740Y18669034D01*
X28729601Y18724399D01*
X28784966Y18807260D01*
X28799500Y18880326D01*
X28799500Y19575500D01*
X28819185Y19642539D01*
X28871989Y19688294D01*
X28923500Y19699500D01*
X34474500Y19699500D01*
X34541539Y19679815D01*
X34587294Y19627011D01*
X34598500Y19575500D01*
X34598500Y18880322D01*
X34613032Y18807265D01*
X34613033Y18807261D01*
X34613034Y18807260D01*
X34668399Y18724399D01*
X34745341Y18672989D01*
X34751260Y18669034D01*
X34751264Y18669033D01*
X34824321Y18654501D01*
X34824324Y18654500D01*
X34824326Y18654500D01*
X35873676Y18654500D01*
X35873677Y18654501D01*
X35946740Y18669034D01*
X36029601Y18724399D01*
X36084966Y18807260D01*
X36099500Y18880326D01*
X36099500Y19575500D01*
X36119185Y19642539D01*
X36171989Y19688294D01*
X36223500Y19699500D01*
X41952405Y19699500D01*
X41995572Y19699500D01*
X42004418Y19699184D01*
X42233020Y19682835D01*
X42250529Y19680317D01*
X42470144Y19632542D01*
X42487103Y19627563D01*
X42697694Y19549017D01*
X42713777Y19541673D01*
X42905939Y19436743D01*
X42911036Y19433960D01*
X42925913Y19424400D01*
X42950335Y19406117D01*
X42992206Y19350184D01*
X42997190Y19280492D01*
X42963705Y19219169D01*
X42902382Y19185685D01*
X42853246Y19186949D01*
X42853138Y19186015D01*
X42818794Y19190000D01*
X42449000Y19190000D01*
X42449000Y18290000D01*
X43073999Y18290000D01*
X43073999Y18934786D01*
X43073997Y18934809D01*
X43071091Y18959870D01*
X43071090Y18959873D01*
X43049359Y19009091D01*
X43047710Y19021679D01*
X43041628Y19032818D01*
X43043261Y19055660D01*
X43040288Y19078369D01*
X43045706Y19089849D01*
X43046612Y19102510D01*
X43060336Y19120843D01*
X43070112Y19141554D01*
X43080877Y19148283D01*
X43088484Y19158443D01*
X43109940Y19166446D01*
X43129362Y19178584D01*
X43142054Y19178424D01*
X43153948Y19182860D01*
X43176326Y19177992D01*
X43199226Y19177703D01*
X43211435Y19170355D01*
X43222221Y19168008D01*
X43250475Y19146857D01*
X43278124Y19119208D01*
X43289710Y19105837D01*
X43424394Y18925920D01*
X43433959Y18911037D01*
X43541669Y18713783D01*
X43549019Y18697689D01*
X43627559Y18487113D01*
X43632543Y18470138D01*
X43680316Y18250530D01*
X43682834Y18233018D01*
X43699184Y18004419D01*
X43699500Y17995573D01*
X43699500Y14759273D01*
X43679815Y14692234D01*
X43627011Y14646479D01*
X43557853Y14636535D01*
X43532176Y14643088D01*
X43529489Y14644090D01*
X43529483Y14644092D01*
X43469883Y14650499D01*
X43469881Y14650500D01*
X43469873Y14650500D01*
X43469864Y14650500D01*
X42074129Y14650500D01*
X42074123Y14650499D01*
X42014516Y14644092D01*
X41879671Y14593798D01*
X41879664Y14593794D01*
X41764455Y14507548D01*
X41764452Y14507545D01*
X41678206Y14392336D01*
X41678202Y14392329D01*
X41627908Y14257483D01*
X41621501Y14197884D01*
X41621500Y14197865D01*
X41621500Y13599348D01*
X41601815Y13532309D01*
X41549011Y13486554D01*
X41479853Y13476610D01*
X41435501Y13491961D01*
X41312485Y13562984D01*
X41172475Y13600500D01*
X41027525Y13600500D01*
X40908840Y13568698D01*
X40887511Y13562983D01*
X40761988Y13490512D01*
X40761982Y13490507D01*
X40659493Y13388018D01*
X40659488Y13388012D01*
X40587017Y13262489D01*
X40587016Y13262485D01*
X40549500Y13122475D01*
X40549500Y12977525D01*
X40583858Y12849302D01*
X40587017Y12837512D01*
X40659488Y12711989D01*
X40659493Y12711983D01*
X40663181Y12708295D01*
X40696666Y12646972D01*
X40699500Y12620614D01*
X40699500Y12024500D01*
X40679815Y11957461D01*
X40627011Y11911706D01*
X40575500Y11900500D01*
X39938254Y11900500D01*
X39871215Y11920185D01*
X39825460Y11972989D01*
X39815516Y12042147D01*
X39844541Y12105703D01*
X39849915Y12111475D01*
X39850041Y12111651D01*
X39850049Y12111658D01*
X39907645Y12224696D01*
X39907645Y12224698D01*
X39907646Y12224699D01*
X39919623Y12300321D01*
X39922499Y12318481D01*
X39922498Y12681518D01*
X39907645Y12775304D01*
X39850049Y12888342D01*
X39850045Y12888346D01*
X39850044Y12888348D01*
X39760346Y12978046D01*
X39760343Y12978048D01*
X39760341Y12978050D01*
X39664274Y13026999D01*
X39647300Y13035648D01*
X39553523Y13050500D01*
X39553518Y13050500D01*
X38964254Y13050500D01*
X38897215Y13070185D01*
X38876573Y13086819D01*
X38285819Y13677573D01*
X38252334Y13738896D01*
X38249500Y13765254D01*
X38249500Y16815500D01*
X38269185Y16882539D01*
X38321989Y16928294D01*
X38373500Y16939500D01*
X38448676Y16939500D01*
X38448677Y16939501D01*
X38519847Y16953658D01*
X38521735Y16954033D01*
X38521735Y16954034D01*
X38521740Y16954034D01*
X38604601Y17009399D01*
X38659966Y17092260D01*
X38670500Y17145215D01*
X41324001Y17145215D01*
X41324002Y17145192D01*
X41326908Y17120131D01*
X41326909Y17120127D01*
X41372211Y17017526D01*
X41372214Y17017521D01*
X41451520Y16938215D01*
X41451525Y16938212D01*
X41554123Y16892911D01*
X41579206Y16890001D01*
X41948999Y16890001D01*
X42449000Y16890001D01*
X42818786Y16890001D01*
X42818808Y16890003D01*
X42843869Y16892909D01*
X42843873Y16892910D01*
X42946474Y16938212D01*
X42946479Y16938215D01*
X43025785Y17017521D01*
X43025788Y17017526D01*
X43071089Y17120123D01*
X43071089Y17120125D01*
X43073999Y17145206D01*
X43074000Y17145209D01*
X43074000Y17790000D01*
X42449000Y17790000D01*
X42449000Y16890001D01*
X41948999Y16890001D01*
X41949000Y16890002D01*
X41949000Y17790000D01*
X41324001Y17790000D01*
X41324001Y17145215D01*
X38670500Y17145215D01*
X38674500Y17165326D01*
X38674500Y18914674D01*
X38674500Y18914677D01*
X38670498Y18934795D01*
X41324000Y18934795D01*
X41324000Y18290000D01*
X41949000Y18290000D01*
X41949000Y19190000D01*
X41579214Y19190000D01*
X41579191Y19189998D01*
X41554130Y19187092D01*
X41554126Y19187091D01*
X41451525Y19141789D01*
X41451520Y19141786D01*
X41372214Y19062480D01*
X41372211Y19062475D01*
X41326910Y18959878D01*
X41326910Y18959876D01*
X41324000Y18934795D01*
X38670498Y18934795D01*
X38659967Y18987736D01*
X38659966Y18987740D01*
X38653904Y18996812D01*
X38604601Y19070601D01*
X38537405Y19115499D01*
X38521739Y19125967D01*
X38521735Y19125968D01*
X38448677Y19140500D01*
X38448674Y19140500D01*
X37249326Y19140500D01*
X37249323Y19140500D01*
X37176264Y19125968D01*
X37176260Y19125967D01*
X37093399Y19070601D01*
X37038033Y18987740D01*
X37038032Y18987736D01*
X37023500Y18914679D01*
X37023500Y17165322D01*
X37038032Y17092265D01*
X37038033Y17092261D01*
X37056405Y17064765D01*
X37093399Y17009399D01*
X37152528Y16969891D01*
X37176260Y16954034D01*
X37176264Y16954033D01*
X37249321Y16939501D01*
X37249324Y16939500D01*
X37249326Y16939500D01*
X37324500Y16939500D01*
X37391539Y16919815D01*
X37437294Y16867011D01*
X37448500Y16815500D01*
X37448500Y13600726D01*
X37448500Y13495272D01*
X37456232Y13466416D01*
X37475793Y13393410D01*
X37491648Y13365950D01*
X37528520Y13302086D01*
X37528522Y13302084D01*
X37879675Y12950931D01*
X37913160Y12889608D01*
X37908176Y12819916D01*
X37902481Y12806959D01*
X37886351Y12775301D01*
X37871499Y12681525D01*
X37871499Y12318483D01*
X37879757Y12266342D01*
X37886353Y12224696D01*
X37943949Y12111658D01*
X37943952Y12111655D01*
X37949688Y12103759D01*
X37948496Y12102894D01*
X37976910Y12050858D01*
X37971926Y11981166D01*
X37930054Y11925233D01*
X37864590Y11900816D01*
X37855744Y11900500D01*
X34538157Y11900500D01*
X34471118Y11920185D01*
X34425363Y11972989D01*
X34415419Y12042147D01*
X34438890Y12098810D01*
X34481644Y12155924D01*
X34496336Y12175550D01*
X34543491Y12301978D01*
X34548081Y12344668D01*
X34549499Y12357856D01*
X34549500Y12357871D01*
X34549500Y12960130D01*
X34549499Y12960145D01*
X34546428Y12988705D01*
X34543491Y13016022D01*
X34543490Y13016025D01*
X34496337Y13142448D01*
X34496336Y13142450D01*
X34474232Y13171978D01*
X34449816Y13237442D01*
X34449500Y13246287D01*
X34449500Y13926080D01*
X35449499Y13926080D01*
X35478340Y13781093D01*
X35478343Y13781083D01*
X35534912Y13644512D01*
X35534919Y13644499D01*
X35617048Y13521585D01*
X35617051Y13521581D01*
X35721580Y13417052D01*
X35721584Y13417049D01*
X35844498Y13334920D01*
X35844511Y13334913D01*
X35972306Y13281979D01*
X35981087Y13278342D01*
X35981091Y13278342D01*
X35981092Y13278341D01*
X36126079Y13249500D01*
X36126082Y13249500D01*
X36273920Y13249500D01*
X36384567Y13271510D01*
X36418913Y13278342D01*
X36527669Y13323390D01*
X36555488Y13334913D01*
X36555488Y13334914D01*
X36555495Y13334916D01*
X36678416Y13417049D01*
X36782951Y13521584D01*
X36865084Y13644505D01*
X36872105Y13661454D01*
X36899203Y13726876D01*
X36921658Y13781087D01*
X36950500Y13926082D01*
X36950500Y14073918D01*
X36950500Y14073921D01*
X36921659Y14218908D01*
X36921658Y14218909D01*
X36921658Y14218913D01*
X36901312Y14268033D01*
X36865087Y14355489D01*
X36865080Y14355502D01*
X36782951Y14478416D01*
X36782948Y14478420D01*
X36678419Y14582949D01*
X36678415Y14582952D01*
X36555501Y14665081D01*
X36555488Y14665088D01*
X36418917Y14721657D01*
X36418907Y14721660D01*
X36273920Y14750500D01*
X36273918Y14750500D01*
X36126082Y14750500D01*
X36126080Y14750500D01*
X35981092Y14721660D01*
X35981082Y14721657D01*
X35844511Y14665088D01*
X35844498Y14665081D01*
X35721584Y14582952D01*
X35721580Y14582949D01*
X35617051Y14478420D01*
X35617048Y14478416D01*
X35534919Y14355502D01*
X35534912Y14355489D01*
X35478343Y14218918D01*
X35478340Y14218908D01*
X35449500Y14073921D01*
X35449500Y14073918D01*
X35449500Y13926082D01*
X35449500Y13926080D01*
X35449499Y13926080D01*
X34449500Y13926080D01*
X34449500Y15432936D01*
X34469185Y15499975D01*
X34473736Y15505624D01*
X34479597Y15514397D01*
X34479601Y15514399D01*
X34534966Y15597260D01*
X34549500Y15670326D01*
X34549500Y16361858D01*
X34569185Y16428897D01*
X34621989Y16474652D01*
X34691147Y16484596D01*
X34742390Y16464960D01*
X34751256Y16459036D01*
X34751258Y16459036D01*
X34751260Y16459034D01*
X34751262Y16459034D01*
X34751264Y16459033D01*
X34824321Y16444501D01*
X34824324Y16444500D01*
X34824326Y16444500D01*
X35873676Y16444500D01*
X35873677Y16444501D01*
X35946740Y16459034D01*
X36029601Y16514399D01*
X36084966Y16597260D01*
X36099500Y16670326D01*
X36099500Y17519674D01*
X36099500Y17519677D01*
X36099499Y17519679D01*
X36084967Y17592736D01*
X36084966Y17592740D01*
X36080449Y17599500D01*
X36029601Y17675601D01*
X35946740Y17730966D01*
X35946739Y17730967D01*
X35946735Y17730968D01*
X35873677Y17745500D01*
X35873674Y17745500D01*
X34824326Y17745500D01*
X34824323Y17745500D01*
X34751264Y17730968D01*
X34751260Y17730967D01*
X34668399Y17675601D01*
X34613033Y17592740D01*
X34613032Y17592736D01*
X34598498Y17519672D01*
X34598121Y17515837D01*
X34597362Y17513959D01*
X34597311Y17513700D01*
X34597261Y17513710D01*
X34571958Y17451050D01*
X34514922Y17410694D01*
X34445121Y17407580D01*
X34405830Y17424893D01*
X34396742Y17430965D01*
X34396735Y17430968D01*
X34323677Y17445500D01*
X34323674Y17445500D01*
X33729519Y17445500D01*
X33662480Y17465185D01*
X33616725Y17517989D01*
X33606781Y17587147D01*
X33635806Y17650703D01*
X33641838Y17657181D01*
X33743111Y17758455D01*
X33743114Y17758458D01*
X33819775Y17873189D01*
X33821181Y17876582D01*
X33831740Y17902076D01*
X33872580Y18000672D01*
X33899500Y18136007D01*
X33899500Y18273993D01*
X33899500Y18273996D01*
X33872581Y18409323D01*
X33872580Y18409324D01*
X33872580Y18409328D01*
X33847392Y18470138D01*
X33819778Y18536805D01*
X33819771Y18536818D01*
X33743114Y18651542D01*
X33743111Y18651546D01*
X33645545Y18749112D01*
X33645541Y18749115D01*
X33530817Y18825772D01*
X33530804Y18825779D01*
X33403332Y18878579D01*
X33403322Y18878582D01*
X33267995Y18905500D01*
X33267993Y18905500D01*
X33130007Y18905500D01*
X33130005Y18905500D01*
X32994677Y18878582D01*
X32994667Y18878579D01*
X32867195Y18825779D01*
X32867182Y18825772D01*
X32752458Y18749115D01*
X32752454Y18749112D01*
X32654888Y18651546D01*
X32654885Y18651542D01*
X32578228Y18536818D01*
X32578221Y18536805D01*
X32525421Y18409333D01*
X32525418Y18409323D01*
X32498500Y18273996D01*
X32498500Y18136007D01*
X32525418Y18000678D01*
X32525421Y18000668D01*
X32578221Y17873196D01*
X32578228Y17873183D01*
X32654885Y17758459D01*
X32654888Y17758455D01*
X32752454Y17660889D01*
X32752458Y17660886D01*
X32867182Y17584229D01*
X32867195Y17584222D01*
X32994667Y17531422D01*
X32994672Y17531420D01*
X32994676Y17531420D01*
X32994677Y17531419D01*
X33130004Y17504500D01*
X33272540Y17504500D01*
X33339579Y17484815D01*
X33385334Y17432011D01*
X33395278Y17362853D01*
X33388712Y17337139D01*
X33383664Y17323617D01*
X33363034Y17292740D01*
X33352643Y17240504D01*
X33349148Y17231139D01*
X33333955Y17210855D01*
X33322208Y17188397D01*
X33313362Y17183361D01*
X33307263Y17175216D01*
X33283519Y17166367D01*
X33261492Y17153823D01*
X33244577Y17151852D01*
X33241793Y17150814D01*
X33239658Y17151279D01*
X33232976Y17150500D01*
X33185929Y17150500D01*
X33060261Y17125503D01*
X33060255Y17125501D01*
X32941875Y17076467D01*
X32941866Y17076462D01*
X32835331Y17005277D01*
X32835327Y17005274D01*
X32744726Y16914673D01*
X32744723Y16914669D01*
X32673538Y16808134D01*
X32673533Y16808125D01*
X32624499Y16689745D01*
X32624497Y16689739D01*
X32599500Y16564072D01*
X32599500Y16564069D01*
X32599500Y16435931D01*
X32599500Y16435929D01*
X32599499Y16435929D01*
X32624497Y16310262D01*
X32624499Y16310256D01*
X32673533Y16191876D01*
X32673538Y16191867D01*
X32744723Y16085332D01*
X32744726Y16085328D01*
X32835327Y15994727D01*
X32835331Y15994724D01*
X32941866Y15923539D01*
X32941872Y15923536D01*
X32941873Y15923535D01*
X33060256Y15874499D01*
X33060260Y15874499D01*
X33060261Y15874498D01*
X33185928Y15849500D01*
X33224500Y15849500D01*
X33291539Y15829815D01*
X33337294Y15777011D01*
X33348500Y15725500D01*
X33348500Y15670322D01*
X33363032Y15597265D01*
X33363033Y15597261D01*
X33363034Y15597260D01*
X33418399Y15514399D01*
X33418400Y15514399D01*
X33425185Y15504244D01*
X33422207Y15502255D01*
X33445666Y15459294D01*
X33448500Y15432936D01*
X33448500Y13418073D01*
X33428815Y13351034D01*
X33398811Y13318806D01*
X33307528Y13250472D01*
X33226664Y13142451D01*
X33226662Y13142448D01*
X33190182Y13044639D01*
X33148311Y12988705D01*
X33082846Y12964288D01*
X33014573Y12979140D01*
X32965168Y13028545D01*
X32957818Y13044639D01*
X32921337Y13142448D01*
X32921335Y13142451D01*
X32918311Y13146491D01*
X32840472Y13250472D01*
X32732450Y13331336D01*
X32732447Y13331338D01*
X32606024Y13378491D01*
X32550144Y13384500D01*
X32550130Y13384500D01*
X32022870Y13384500D01*
X32022855Y13384500D01*
X31966975Y13378491D01*
X31840552Y13331338D01*
X31840549Y13331336D01*
X31732527Y13250471D01*
X31716595Y13229188D01*
X31660661Y13187318D01*
X31617329Y13179500D01*
X30744149Y13179500D01*
X30689688Y13192100D01*
X30635520Y13218582D01*
X30614107Y13221702D01*
X30560582Y13229500D01*
X30217418Y13229500D01*
X30142482Y13218582D01*
X30142480Y13218582D01*
X30142478Y13218581D01*
X30026900Y13162079D01*
X30026899Y13162079D01*
X30003926Y13139105D01*
X29942602Y13105621D01*
X29872911Y13110607D01*
X29821920Y13148780D01*
X29821636Y13148495D01*
X29819659Y13150472D01*
X29816978Y13152479D01*
X29816478Y13153152D01*
X29815066Y13155065D01*
X29709559Y13232934D01*
X29709557Y13232935D01*
X29619000Y13264622D01*
X29619000Y12783000D01*
X29599315Y12715961D01*
X29546511Y12670206D01*
X29495000Y12659000D01*
X29369000Y12659000D01*
X29369000Y12533000D01*
X29349315Y12465961D01*
X29296511Y12420206D01*
X29245000Y12409000D01*
X28800182Y12409000D01*
X28793059Y12401178D01*
X28785019Y12359845D01*
X28736717Y12309361D01*
X28668789Y12293005D01*
X28602801Y12315970D01*
X28587220Y12329173D01*
X28007392Y12909001D01*
X28800181Y12909001D01*
X28800182Y12909000D01*
X29119000Y12909000D01*
X29119000Y13264622D01*
X29118999Y13264622D01*
X29028442Y13232935D01*
X29028440Y13232934D01*
X28922934Y13155066D01*
X28845066Y13049560D01*
X28845065Y13049558D01*
X28801755Y12925788D01*
X28801755Y12925786D01*
X28800181Y12909001D01*
X28007392Y12909001D01*
X26645915Y14270478D01*
X26645913Y14270480D01*
X26600250Y14296844D01*
X26554589Y14323207D01*
X26503657Y14336854D01*
X26452727Y14350500D01*
X26452726Y14350500D01*
X25113500Y14350500D01*
X25046461Y14370185D01*
X25000706Y14422989D01*
X24989500Y14474500D01*
X24989500Y16575978D01*
X25009185Y16643017D01*
X25061989Y16688772D01*
X25078905Y16695054D01*
X25151254Y16716074D01*
X25210398Y16733257D01*
X25351865Y16816920D01*
X25468081Y16933136D01*
X25551744Y17074603D01*
X25593458Y17218181D01*
X25597597Y17232428D01*
X25597598Y17232435D01*
X25600078Y17263952D01*
X25612017Y17295279D01*
X25623208Y17326875D01*
X25624415Y17327811D01*
X25624960Y17329239D01*
X25651927Y17349129D01*
X25678438Y17369670D01*
X25679961Y17369805D01*
X25681191Y17370711D01*
X25714650Y17372866D01*
X25748037Y17375811D01*
X25749388Y17375102D01*
X25750916Y17375200D01*
X25780243Y17358914D01*
X25809908Y17343350D01*
X25811016Y17341825D01*
X25811999Y17341279D01*
X25831526Y17315451D01*
X25833417Y17312120D01*
X25881924Y17212899D01*
X25900046Y17194777D01*
X25908330Y17180188D01*
X25912638Y17161853D01*
X25921665Y17145324D01*
X25924500Y17118961D01*
X25924500Y17037399D01*
X25956905Y16916464D01*
X26019505Y16808036D01*
X26108036Y16719505D01*
X26216464Y16656905D01*
X26266659Y16643455D01*
X26322245Y16611362D01*
X28343059Y14590548D01*
X28375152Y14534962D01*
X28406903Y14416469D01*
X28406905Y14416464D01*
X28469505Y14308036D01*
X28558036Y14219505D01*
X28666464Y14156905D01*
X28787399Y14124500D01*
X28787401Y14124500D01*
X28912599Y14124500D01*
X28912601Y14124500D01*
X29033536Y14156905D01*
X29141964Y14219505D01*
X29230495Y14308036D01*
X29293095Y14416464D01*
X29325500Y14537399D01*
X29325500Y14662601D01*
X29293095Y14783536D01*
X29230495Y14891964D01*
X29141964Y14980495D01*
X29141963Y14980496D01*
X29141960Y14980498D01*
X29026498Y15047159D01*
X29027325Y15048592D01*
X28998616Y15067777D01*
X27833574Y16232819D01*
X27800089Y16294142D01*
X27805073Y16363834D01*
X27846945Y16419767D01*
X27912409Y16444184D01*
X27921255Y16444500D01*
X28573676Y16444500D01*
X28573677Y16444501D01*
X28646740Y16459034D01*
X28646743Y16459036D01*
X28655610Y16464960D01*
X28722287Y16485838D01*
X28789667Y16467353D01*
X28836357Y16415374D01*
X28848500Y16361858D01*
X28848500Y15670322D01*
X28863032Y15597265D01*
X28863033Y15597261D01*
X28863034Y15597260D01*
X28918399Y15514399D01*
X28994498Y15463552D01*
X29001260Y15459034D01*
X29001264Y15459033D01*
X29074321Y15444501D01*
X29074324Y15444500D01*
X29074326Y15444500D01*
X29823676Y15444500D01*
X29823677Y15444501D01*
X29896740Y15459034D01*
X29979601Y15514399D01*
X30034966Y15597260D01*
X30049500Y15670326D01*
X30049500Y17219674D01*
X30049500Y17219677D01*
X30049499Y17219679D01*
X30034967Y17292736D01*
X30034966Y17292738D01*
X30034966Y17292740D01*
X30022357Y17311610D01*
X30019320Y17321310D01*
X30012666Y17328989D01*
X30009057Y17354087D01*
X30001480Y17378286D01*
X30004168Y17388087D01*
X30002722Y17398147D01*
X30013255Y17421213D01*
X30019964Y17445667D01*
X30027525Y17452460D01*
X30031747Y17461703D01*
X30053077Y17475412D01*
X30071943Y17492357D01*
X30083540Y17494989D01*
X30090525Y17499477D01*
X30125460Y17504500D01*
X30272540Y17504500D01*
X30339579Y17484815D01*
X30385334Y17432011D01*
X30395278Y17362853D01*
X30375642Y17311609D01*
X30363034Y17292741D01*
X30363032Y17292736D01*
X30348500Y17219679D01*
X30348500Y15670322D01*
X30363032Y15597265D01*
X30363033Y15597261D01*
X30363034Y15597260D01*
X30418399Y15514399D01*
X30494498Y15463552D01*
X30501260Y15459034D01*
X30501264Y15459033D01*
X30574321Y15444501D01*
X30574324Y15444500D01*
X30574326Y15444500D01*
X31323676Y15444500D01*
X31323677Y15444501D01*
X31396740Y15459034D01*
X31479601Y15514399D01*
X31534966Y15597260D01*
X31549500Y15670326D01*
X31549500Y15725500D01*
X31569185Y15792539D01*
X31621989Y15838294D01*
X31673500Y15849500D01*
X31764071Y15849500D01*
X31859113Y15868406D01*
X31889744Y15874499D01*
X32008127Y15923535D01*
X32114669Y15994724D01*
X32205276Y16085331D01*
X32276465Y16191873D01*
X32325501Y16310256D01*
X32347285Y16419767D01*
X32350500Y16435929D01*
X32350500Y16564072D01*
X32325502Y16689739D01*
X32325501Y16689740D01*
X32325501Y16689744D01*
X32276465Y16808127D01*
X32276464Y16808128D01*
X32276461Y16808134D01*
X32205276Y16914669D01*
X32205273Y16914673D01*
X32114672Y17005274D01*
X32114668Y17005277D01*
X32008133Y17076462D01*
X32008124Y17076467D01*
X31889744Y17125501D01*
X31889738Y17125503D01*
X31764071Y17150500D01*
X31764069Y17150500D01*
X31665024Y17150500D01*
X31597985Y17170185D01*
X31552230Y17222989D01*
X31543407Y17250308D01*
X31534967Y17292737D01*
X31534966Y17292740D01*
X31534164Y17293941D01*
X31479601Y17375601D01*
X31405829Y17424893D01*
X31396739Y17430967D01*
X31396735Y17430968D01*
X31323677Y17445500D01*
X31323674Y17445500D01*
X30729519Y17445500D01*
X30662480Y17465185D01*
X30616725Y17517989D01*
X30606781Y17587147D01*
X30635806Y17650703D01*
X30641838Y17657181D01*
X30743111Y17758455D01*
X30743114Y17758458D01*
X30819775Y17873189D01*
X30821181Y17876582D01*
X30831740Y17902076D01*
X30872580Y18000672D01*
X30899500Y18136007D01*
X30899500Y18273993D01*
X30899500Y18273996D01*
X30872581Y18409323D01*
X30872580Y18409324D01*
X30872580Y18409328D01*
X30847392Y18470138D01*
X30819778Y18536805D01*
X30819771Y18536818D01*
X30743114Y18651542D01*
X30743111Y18651546D01*
X30645545Y18749112D01*
X30645541Y18749115D01*
X30530817Y18825772D01*
X30530804Y18825779D01*
X30403332Y18878579D01*
X30403322Y18878582D01*
X30267995Y18905500D01*
X30267993Y18905500D01*
X30130007Y18905500D01*
X30130005Y18905500D01*
X29994677Y18878582D01*
X29994667Y18878579D01*
X29867195Y18825779D01*
X29867182Y18825772D01*
X29752458Y18749115D01*
X29752454Y18749112D01*
X29654888Y18651546D01*
X29654885Y18651542D01*
X29578228Y18536818D01*
X29578221Y18536805D01*
X29525421Y18409333D01*
X29525418Y18409323D01*
X29498500Y18273996D01*
X29498500Y18136007D01*
X29525418Y18000678D01*
X29525421Y18000668D01*
X29578221Y17873196D01*
X29578228Y17873183D01*
X29654885Y17758459D01*
X29654888Y17758455D01*
X29756162Y17657181D01*
X29789647Y17595858D01*
X29784663Y17526166D01*
X29742791Y17470233D01*
X29677327Y17445816D01*
X29668481Y17445500D01*
X29074323Y17445500D01*
X29001264Y17430968D01*
X29001258Y17430966D01*
X28992167Y17424891D01*
X28925488Y17404016D01*
X28858109Y17422503D01*
X28811421Y17474484D01*
X28799876Y17515849D01*
X28799500Y17519666D01*
X28799500Y17519674D01*
X28788395Y17575500D01*
X28784967Y17592736D01*
X28784966Y17592740D01*
X28780449Y17599500D01*
X28729601Y17675601D01*
X28646740Y17730966D01*
X28646739Y17730967D01*
X28646735Y17730968D01*
X28573677Y17745500D01*
X28573674Y17745500D01*
X27524326Y17745500D01*
X27524323Y17745500D01*
X27451264Y17730968D01*
X27451260Y17730967D01*
X27368399Y17675601D01*
X27313033Y17592740D01*
X27313032Y17592736D01*
X27298500Y17519679D01*
X27298500Y17067255D01*
X27278815Y17000216D01*
X27226011Y16954461D01*
X27156853Y16944517D01*
X27093297Y16973542D01*
X27086819Y16979574D01*
X26939324Y17127069D01*
X26905839Y17188392D01*
X26910823Y17258084D01*
X26915598Y17269196D01*
X26944582Y17328483D01*
X26955500Y17403419D01*
X26955500Y17746583D01*
X26944582Y17821519D01*
X26919322Y17873189D01*
X26888078Y17937101D01*
X26888076Y17937104D01*
X26827861Y17997319D01*
X26794376Y18058642D01*
X26799360Y18128334D01*
X26827861Y18172681D01*
X26888076Y18232897D01*
X26888078Y18232900D01*
X26928820Y18316240D01*
X26944582Y18348481D01*
X26955500Y18423417D01*
X26955500Y18766581D01*
X26944582Y18841517D01*
X26942222Y18846343D01*
X26888078Y18957099D01*
X26888076Y18957102D01*
X26797102Y19048076D01*
X26797099Y19048078D01*
X26681521Y19104580D01*
X26681519Y19104581D01*
X26681518Y19104581D01*
X26606582Y19115499D01*
X26606577Y19115499D01*
X26388694Y19115499D01*
X26356602Y19119724D01*
X26297728Y19135499D01*
X26297727Y19135499D01*
X25598756Y19135499D01*
X25531717Y19155184D01*
X25492024Y19196378D01*
X25468081Y19236864D01*
X25468076Y19236870D01*
X25351870Y19353076D01*
X25351862Y19353082D01*
X25210396Y19436744D01*
X25210393Y19436745D01*
X25142658Y19456424D01*
X25083772Y19494030D01*
X25054566Y19557503D01*
X25064312Y19626689D01*
X25109916Y19679624D01*
X25176899Y19699499D01*
X25177253Y19699500D01*
X27174500Y19699500D01*
X27241539Y19679815D01*
G37*
%TD.AperFunction*%
%TA.AperFunction,Conductor*%
G36*
X6045110Y14047596D02*
G01*
X6089457Y14019095D01*
X6644095Y13464457D01*
X6677580Y13403134D01*
X6672596Y13333442D01*
X6644095Y13289095D01*
X6555000Y13200000D01*
X6592819Y13162181D01*
X6626304Y13100858D01*
X6621320Y13031166D01*
X6579448Y12975233D01*
X6513984Y12950816D01*
X6505138Y12950500D01*
X6251309Y12950500D01*
X6184270Y12970185D01*
X6138515Y13022989D01*
X6128571Y13092147D01*
X6157596Y13155703D01*
X6163629Y13162182D01*
X6201448Y13200000D01*
X5740034Y13661414D01*
X5740023Y13661424D01*
X5735894Y13665554D01*
X5716919Y13700315D01*
X5702420Y13726867D01*
X5702420Y13726876D01*
X5702417Y13726882D01*
X5705145Y13764965D01*
X5707404Y13796559D01*
X5707408Y13796566D01*
X5707409Y13796573D01*
X5707437Y13796611D01*
X5735905Y13840907D01*
X5914095Y14019095D01*
X5975418Y14052580D01*
X6045110Y14047596D01*
G37*
%TD.AperFunction*%
M02*
