%TF.GenerationSoftware,KiCad,Pcbnew,9.0.3*%
%TF.CreationDate,2025-08-02T15:12:25+05:30*%
%TF.ProjectId,ESPNut-D1,4553504e-7574-42d4-9431-2e6b69636164,0.3*%
%TF.SameCoordinates,Original*%
%TF.FileFunction,Soldermask,Bot*%
%TF.FilePolarity,Negative*%
%FSLAX46Y46*%
G04 Gerber Fmt 4.6, Leading zero omitted, Abs format (unit mm)*
G04 Created by KiCad (PCBNEW 9.0.3) date 2025-08-02 15:12:25*
%MOMM*%
%LPD*%
G01*
G04 APERTURE LIST*
G04 Aperture macros list*
%AMRoundRect*
0 Rectangle with rounded corners*
0 $1 Rounding radius*
0 $2 $3 $4 $5 $6 $7 $8 $9 X,Y pos of 4 corners*
0 Add a 4 corners polygon primitive as box body*
4,1,4,$2,$3,$4,$5,$6,$7,$8,$9,$2,$3,0*
0 Add four circle primitives for the rounded corners*
1,1,$1+$1,$2,$3*
1,1,$1+$1,$4,$5*
1,1,$1+$1,$6,$7*
1,1,$1+$1,$8,$9*
0 Add four rect primitives between the rounded corners*
20,1,$1+$1,$2,$3,$4,$5,0*
20,1,$1+$1,$4,$5,$6,$7,0*
20,1,$1+$1,$6,$7,$8,$9,0*
20,1,$1+$1,$8,$9,$2,$3,0*%
%AMOutline5P*
0 Free polygon, 5 corners , with rotation*
0 The origin of the aperture is its center*
0 number of corners: always 5*
0 $1 to $10 corner X, Y*
0 $11 Rotation angle, in degrees counterclockwise*
0 create outline with 5 corners*
4,1,5,$1,$2,$3,$4,$5,$6,$7,$8,$9,$10,$1,$2,$11*%
%AMOutline6P*
0 Free polygon, 6 corners , with rotation*
0 The origin of the aperture is its center*
0 number of corners: always 6*
0 $1 to $12 corner X, Y*
0 $13 Rotation angle, in degrees counterclockwise*
0 create outline with 6 corners*
4,1,6,$1,$2,$3,$4,$5,$6,$7,$8,$9,$10,$11,$12,$1,$2,$13*%
%AMOutline7P*
0 Free polygon, 7 corners , with rotation*
0 The origin of the aperture is its center*
0 number of corners: always 7*
0 $1 to $14 corner X, Y*
0 $15 Rotation angle, in degrees counterclockwise*
0 create outline with 7 corners*
4,1,7,$1,$2,$3,$4,$5,$6,$7,$8,$9,$10,$11,$12,$13,$14,$1,$2,$15*%
%AMOutline8P*
0 Free polygon, 8 corners , with rotation*
0 The origin of the aperture is its center*
0 number of corners: always 8*
0 $1 to $16 corner X, Y*
0 $17 Rotation angle, in degrees counterclockwise*
0 create outline with 8 corners*
4,1,8,$1,$2,$3,$4,$5,$6,$7,$8,$9,$10,$11,$12,$13,$14,$15,$16,$1,$2,$17*%
%AMFreePoly0*
4,1,15,-0.500000,0.200000,-0.480423,0.323607,-0.423607,0.435114,-0.335114,0.523607,-0.223607,0.580423,-0.100000,0.600000,0.500000,0.600000,0.500000,-0.600000,-0.100000,-0.600000,-0.223607,-0.580423,-0.335114,-0.523607,-0.423607,-0.435114,-0.480423,-0.323607,-0.500000,-0.200000,-0.500000,0.200000,-0.500000,0.200000,$1*%
%AMFreePoly1*
4,1,15,-0.500000,0.600000,0.100000,0.600000,0.223607,0.580423,0.335114,0.523607,0.423607,0.435114,0.480423,0.323607,0.500000,0.200000,0.500000,-0.200000,0.480423,-0.323607,0.423607,-0.435114,0.335114,-0.523607,0.223607,-0.580423,0.100000,-0.600000,-0.500000,-0.600000,-0.500000,0.600000,-0.500000,0.600000,$1*%
G04 Aperture macros list end*
%ADD10C,0.120000*%
%ADD11C,0.000000*%
%ADD12C,0.900000*%
%ADD13C,2.200000*%
%ADD14C,0.650000*%
%ADD15R,1.000000X1.000000*%
%ADD16O,1.000000X1.000000*%
%ADD17RoundRect,0.476600X0.000010X0.000010X-0.000010X0.000010X-0.000010X-0.000010X0.000010X-0.000010X0*%
%ADD18FreePoly0,180.000000*%
%ADD19FreePoly1,180.000000*%
%ADD20RoundRect,0.476600X-0.000010X-0.000010X0.000010X-0.000010X0.000010X0.000010X-0.000010X0.000010X0*%
%ADD21Outline5P,-0.600000X0.500000X0.600000X0.500000X0.600000X-0.500000X-0.200000X-0.500000X-0.600000X-0.100000X0.000000*%
%ADD22RoundRect,0.250000X-0.350000X-0.250000X0.350000X-0.250000X0.350000X0.250000X-0.350000X0.250000X0*%
%ADD23R,2.500000X1.700000*%
%ADD24RoundRect,0.400000X-0.850000X-0.450000X0.850000X-0.450000X0.850000X0.450000X-0.850000X0.450000X0*%
G04 APERTURE END LIST*
D10*
G36*
X10562368Y3723059D02*
G01*
X10626523Y3700685D01*
X10684958Y3664164D01*
X10734624Y3614956D01*
X10755159Y3586384D01*
X10772475Y3555507D01*
X10786131Y3523083D01*
X10796164Y3488904D01*
X10802218Y3454135D01*
X10804365Y3418148D01*
X10804367Y3417118D01*
X10804367Y2990365D01*
X10796832Y2922995D01*
X10774473Y2858736D01*
X10737966Y2800114D01*
X10688820Y2750282D01*
X10660344Y2729716D01*
X10629626Y2712414D01*
X10597480Y2698835D01*
X10563673Y2688923D01*
X10529861Y2683088D01*
X10494972Y2681093D01*
X10426563Y2688628D01*
X10361634Y2710932D01*
X10302636Y2747268D01*
X10252597Y2796121D01*
X10231945Y2824431D01*
X10214560Y2854969D01*
X10200880Y2886967D01*
X10190860Y2920622D01*
X10184852Y2954746D01*
X10182769Y2989975D01*
X10182769Y2990365D01*
X10182769Y3417118D01*
X10363386Y3417118D01*
X10363386Y2990365D01*
X10370762Y2949257D01*
X10392656Y2911391D01*
X10427570Y2881321D01*
X10448527Y2870957D01*
X10471247Y2864255D01*
X10494972Y2861649D01*
X10518914Y2863587D01*
X10541550Y2869334D01*
X10561949Y2878536D01*
X10580197Y2891191D01*
X10595269Y2906495D01*
X10607555Y2924812D01*
X10616398Y2945270D01*
X10621922Y2968387D01*
X10623749Y2990365D01*
X10623749Y3417118D01*
X10616378Y3459519D01*
X10594556Y3498474D01*
X10578613Y3515232D01*
X10560070Y3529079D01*
X10539603Y3539471D01*
X10517441Y3546142D01*
X10494972Y3548643D01*
X10452983Y3541269D01*
X10414287Y3519402D01*
X10383605Y3484666D01*
X10373039Y3463920D01*
X10366160Y3441441D01*
X10363386Y3417118D01*
X10182769Y3417118D01*
X10190311Y3485970D01*
X10212603Y3551089D01*
X10248877Y3610097D01*
X10297655Y3660098D01*
X10325966Y3680763D01*
X10356546Y3698192D01*
X10388683Y3711972D01*
X10422542Y3722125D01*
X10457022Y3728311D01*
X10492690Y3730596D01*
X10494972Y3730604D01*
X10562368Y3723059D01*
G37*
G36*
X9754550Y2863054D02*
G01*
X9729382Y2864962D01*
X9706394Y2870502D01*
X9686131Y2879294D01*
X9668700Y2891110D01*
X9654821Y2905210D01*
X9644251Y2921660D01*
X9637476Y2939560D01*
X9634372Y2959206D01*
X9634199Y2965269D01*
X9641594Y2998196D01*
X9663758Y3028112D01*
X9705454Y3059023D01*
X9799697Y3105923D01*
X9902989Y3157061D01*
X9934290Y3176898D01*
X9964253Y3200900D01*
X9990022Y3226790D01*
X10013101Y3256113D01*
X10031110Y3285666D01*
X10045731Y3317942D01*
X10055700Y3349939D01*
X10061913Y3384147D01*
X10063945Y3418828D01*
X10056409Y3486618D01*
X10034336Y3549357D01*
X9998539Y3605424D01*
X9950195Y3652661D01*
X9891191Y3688627D01*
X9858550Y3701644D01*
X9824173Y3711084D01*
X9754550Y3718453D01*
X9686155Y3710911D01*
X9621326Y3688595D01*
X9562478Y3652246D01*
X9512564Y3603342D01*
X9491936Y3574959D01*
X9474543Y3544303D01*
X9460809Y3512104D01*
X9450704Y3478182D01*
X9444574Y3443665D01*
X9442351Y3407963D01*
X9442347Y3406250D01*
X9622964Y3406250D01*
X9633097Y3451597D01*
X9657234Y3491272D01*
X9673763Y3507378D01*
X9692789Y3520358D01*
X9713302Y3529554D01*
X9735535Y3535014D01*
X9754550Y3536431D01*
X9782399Y3534477D01*
X9807219Y3528615D01*
X9826744Y3519957D01*
X9843235Y3508107D01*
X9855542Y3494327D01*
X9864823Y3477823D01*
X9873438Y3437466D01*
X9873557Y3431468D01*
X9866174Y3400309D01*
X9843516Y3370575D01*
X9799989Y3338376D01*
X9706941Y3290410D01*
X9635604Y3255063D01*
X9590648Y3227691D01*
X9547407Y3194771D01*
X9518630Y3167134D01*
X9493066Y3136037D01*
X9474812Y3107115D01*
X9460077Y3075457D01*
X9450322Y3044607D01*
X9444276Y3011343D01*
X9442347Y2977848D01*
X9449889Y2911094D01*
X9472025Y2849098D01*
X9508001Y2793527D01*
X9556691Y2746597D01*
X9585303Y2727126D01*
X9616239Y2710803D01*
X9649233Y2697837D01*
X9684031Y2688430D01*
X9754550Y2681093D01*
X9821978Y2688631D01*
X9886230Y2710993D01*
X9944797Y2747495D01*
X9994571Y2796645D01*
X10015123Y2825144D01*
X10032428Y2855906D01*
X10046032Y2888140D01*
X10055985Y2922067D01*
X10061917Y2956381D01*
X10063945Y2991831D01*
X9883388Y2991831D01*
X9874193Y2947684D01*
X9850830Y2908464D01*
X9834541Y2892336D01*
X9815739Y2879300D01*
X9795408Y2870019D01*
X9773390Y2864494D01*
X9754550Y2863054D01*
G37*
G36*
X8674630Y3716682D02*
G01*
X8855248Y3716682D01*
X8855248Y3290723D01*
X9115672Y3290723D01*
X9115672Y3716682D01*
X9296228Y3716682D01*
X9296228Y2681093D01*
X9115672Y2681093D01*
X9115672Y3110105D01*
X8855248Y3110105D01*
X8855248Y2681093D01*
X8674630Y2681093D01*
X8674630Y3716682D01*
G37*
G36*
X7573400Y3716682D02*
G01*
X7755361Y3716682D01*
X7868751Y3064004D01*
X7975180Y3716682D01*
X8157202Y3716682D01*
X8263570Y3064004D01*
X8376959Y3716682D01*
X8558981Y3716682D01*
X8364381Y2681093D01*
X8169780Y2681093D01*
X8066160Y3270817D01*
X7962601Y2681093D01*
X7768001Y2681093D01*
X7573400Y3716682D01*
G37*
D11*
G36*
X9268110Y6918025D02*
G01*
X9308672Y6917517D01*
X9345646Y6916722D01*
X9377560Y6915640D01*
X9402942Y6914269D01*
X9420319Y6912607D01*
X9428217Y6910652D01*
X9430585Y6906918D01*
X9434582Y6895317D01*
X9439679Y6875606D01*
X9446001Y6847220D01*
X9453672Y6809591D01*
X9462818Y6762153D01*
X9473562Y6704340D01*
X9478758Y6676028D01*
X9488468Y6623412D01*
X9496543Y6580288D01*
X9503199Y6545695D01*
X9508651Y6518674D01*
X9513116Y6498264D01*
X9516811Y6483506D01*
X9519952Y6473438D01*
X9522755Y6467102D01*
X9525436Y6463536D01*
X9528212Y6461781D01*
X9528531Y6461652D01*
X9536484Y6458395D01*
X9553129Y6451563D01*
X9577089Y6441723D01*
X9606987Y6429438D01*
X9641446Y6415277D01*
X9679088Y6399803D01*
X9699391Y6391476D01*
X9738814Y6375490D01*
X9769724Y6363315D01*
X9793273Y6354557D01*
X9810615Y6348819D01*
X9822904Y6345707D01*
X9831294Y6344827D01*
X9836938Y6345783D01*
X9837178Y6345880D01*
X9845354Y6350526D01*
X9861455Y6360704D01*
X9884378Y6375681D01*
X9913022Y6394726D01*
X9946283Y6417104D01*
X9983060Y6442084D01*
X10022250Y6468934D01*
X10025876Y6471427D01*
X10064606Y6497960D01*
X10100592Y6522428D01*
X10132774Y6544125D01*
X10160091Y6562343D01*
X10181484Y6576374D01*
X10195892Y6585511D01*
X10202254Y6589047D01*
X10204995Y6588035D01*
X10215493Y6580153D01*
X10233000Y6564831D01*
X10257123Y6542437D01*
X10287467Y6513338D01*
X10323640Y6477905D01*
X10365248Y6436505D01*
X10366617Y6435134D01*
X10405988Y6395597D01*
X10438133Y6363047D01*
X10463723Y6336746D01*
X10483426Y6315954D01*
X10497912Y6299933D01*
X10507848Y6287942D01*
X10513903Y6279243D01*
X10516748Y6273097D01*
X10517050Y6268765D01*
X10517007Y6268586D01*
X10513021Y6260708D01*
X10503464Y6244895D01*
X10489053Y6222245D01*
X10470505Y6193855D01*
X10448538Y6160824D01*
X10423868Y6124249D01*
X10397212Y6085229D01*
X10371150Y6047026D01*
X10346019Y6009574D01*
X10323996Y5976110D01*
X10305733Y5947651D01*
X10291881Y5925212D01*
X10283091Y5909808D01*
X10280014Y5902455D01*
X10280689Y5898821D01*
X10285089Y5885285D01*
X10292995Y5864172D01*
X10303714Y5837097D01*
X10316557Y5805678D01*
X10330832Y5771532D01*
X10345847Y5736276D01*
X10360911Y5701527D01*
X10375332Y5668901D01*
X10388420Y5640016D01*
X10399482Y5616488D01*
X10407829Y5599936D01*
X10412767Y5591974D01*
X10416036Y5589687D01*
X10424893Y5586069D01*
X10439542Y5581770D01*
X10460838Y5576596D01*
X10489637Y5570357D01*
X10526794Y5562859D01*
X10573164Y5553912D01*
X10629603Y5543323D01*
X10651095Y5539316D01*
X10704753Y5529144D01*
X10748472Y5520556D01*
X10782984Y5513389D01*
X10809018Y5507481D01*
X10827308Y5502668D01*
X10838584Y5498789D01*
X10843578Y5495679D01*
X10844589Y5493650D01*
X10846318Y5485614D01*
X10847704Y5471542D01*
X10848774Y5450595D01*
X10849554Y5421931D01*
X10850071Y5384712D01*
X10850353Y5338097D01*
X10850426Y5281247D01*
X10850425Y5280020D01*
X10850316Y5233005D01*
X10850046Y5189158D01*
X10849638Y5149796D01*
X10849110Y5116238D01*
X10848485Y5089803D01*
X10847781Y5071809D01*
X10847021Y5063573D01*
X10846750Y5062557D01*
X10845539Y5058861D01*
X10843398Y5055630D01*
X10839331Y5052617D01*
X10832340Y5049572D01*
X10821430Y5046249D01*
X10805605Y5042400D01*
X10783868Y5037776D01*
X10755224Y5032131D01*
X10718675Y5025216D01*
X10673226Y5016785D01*
X10617880Y5006588D01*
X10599693Y5003224D01*
X10546233Y4993104D01*
X10503073Y4984518D01*
X10469711Y4977355D01*
X10445647Y4971502D01*
X10430383Y4966849D01*
X10423417Y4963285D01*
X10423383Y4963249D01*
X10418976Y4955636D01*
X10411291Y4939264D01*
X10400959Y4915710D01*
X10388613Y4886555D01*
X10374883Y4853377D01*
X10360402Y4817755D01*
X10345803Y4781269D01*
X10331716Y4745497D01*
X10318774Y4712019D01*
X10307609Y4682414D01*
X10298852Y4658261D01*
X10293136Y4641138D01*
X10291092Y4632626D01*
X10293899Y4626032D01*
X10302353Y4611300D01*
X10315752Y4589639D01*
X10333389Y4562149D01*
X10354555Y4529934D01*
X10378542Y4494096D01*
X10404644Y4455737D01*
X10429698Y4418930D01*
X10453787Y4382962D01*
X10475083Y4350571D01*
X10492879Y4322858D01*
X10506466Y4300926D01*
X10515138Y4285878D01*
X10518185Y4278818D01*
X10518084Y4278144D01*
X10512763Y4269540D01*
X10499417Y4253490D01*
X10478121Y4230076D01*
X10448951Y4199380D01*
X10411984Y4161483D01*
X10367296Y4116468D01*
X10354128Y4103315D01*
X10311142Y4060757D01*
X10275545Y4026178D01*
X10247222Y3999472D01*
X10226057Y3980529D01*
X10211932Y3969242D01*
X10204733Y3965504D01*
X10198798Y3967922D01*
X10184518Y3976007D01*
X10163266Y3989083D01*
X10136160Y4006433D01*
X10104315Y4027342D01*
X10068849Y4051092D01*
X10030880Y4076968D01*
X9997054Y4100040D01*
X9961249Y4124059D01*
X9928938Y4145314D01*
X9901237Y4163087D01*
X9879264Y4176664D01*
X9864138Y4185329D01*
X9856974Y4188366D01*
X9854053Y4187817D01*
X9841507Y4183113D01*
X9822241Y4174376D01*
X9798285Y4162553D01*
X9771669Y4148591D01*
X9766589Y4145864D01*
X9737587Y4130926D01*
X9714017Y4119898D01*
X9697233Y4113378D01*
X9688590Y4111961D01*
X9684980Y4116359D01*
X9677577Y4130067D01*
X9666550Y4153203D01*
X9651835Y4185915D01*
X9633366Y4228352D01*
X9611077Y4280665D01*
X9584902Y4343002D01*
X9554775Y4415512D01*
X9529544Y4476498D01*
X9501792Y4543595D01*
X9477795Y4601660D01*
X9457289Y4651360D01*
X9440009Y4693364D01*
X9425691Y4728339D01*
X9414071Y4756952D01*
X9404882Y4779871D01*
X9397862Y4797763D01*
X9392745Y4811297D01*
X9389268Y4821140D01*
X9387164Y4827959D01*
X9386170Y4832422D01*
X9386022Y4835196D01*
X9386454Y4836950D01*
X9387201Y4838350D01*
X9387456Y4838729D01*
X9394230Y4845055D01*
X9408026Y4856069D01*
X9426982Y4870330D01*
X9449236Y4886396D01*
X9500051Y4925959D01*
X9551264Y4976114D01*
X9592473Y5030007D01*
X9624111Y5088322D01*
X9646608Y5151743D01*
X9660396Y5220953D01*
X9664061Y5275925D01*
X9659012Y5342110D01*
X9644095Y5406224D01*
X9619974Y5467303D01*
X9587311Y5524386D01*
X9546770Y5576512D01*
X9499013Y5622717D01*
X9444703Y5662041D01*
X9384505Y5693520D01*
X9319079Y5716194D01*
X9291112Y5722108D01*
X9242841Y5727407D01*
X9191605Y5728212D01*
X9141728Y5724519D01*
X9097536Y5716327D01*
X9037571Y5696326D01*
X8974701Y5664861D01*
X8917983Y5624736D01*
X8868131Y5576654D01*
X8825861Y5521318D01*
X8791887Y5459430D01*
X8766926Y5391692D01*
X8762534Y5375277D01*
X8758394Y5354850D01*
X8755896Y5333092D01*
X8754702Y5306761D01*
X8754472Y5272613D01*
X8754887Y5244504D01*
X8757205Y5206136D01*
X8762292Y5172846D01*
X8770989Y5141059D01*
X8784135Y5107198D01*
X8802570Y5067685D01*
X8805058Y5062637D01*
X8817903Y5037867D01*
X8829972Y5017943D01*
X8843513Y4999798D01*
X8860776Y4980362D01*
X8884010Y4956568D01*
X8906595Y4935087D01*
X8933716Y4911366D01*
X8960200Y4890035D01*
X8982610Y4873971D01*
X8994486Y4866098D01*
X9013939Y4851815D01*
X9024878Y4841072D01*
X9028303Y4832976D01*
X9026384Y4826302D01*
X9020564Y4810325D01*
X9011262Y4786153D01*
X8998903Y4754811D01*
X8983910Y4717324D01*
X8966708Y4674720D01*
X8947721Y4628021D01*
X8927373Y4578256D01*
X8906088Y4526447D01*
X8884290Y4473622D01*
X8862403Y4420806D01*
X8840852Y4369024D01*
X8820060Y4319301D01*
X8800451Y4272663D01*
X8782450Y4230136D01*
X8766481Y4192744D01*
X8752967Y4161514D01*
X8742333Y4137471D01*
X8735003Y4121639D01*
X8731400Y4115046D01*
X8730507Y4114210D01*
X8726203Y4112177D01*
X8719557Y4112601D01*
X8709092Y4116052D01*
X8693333Y4123099D01*
X8670802Y4134310D01*
X8640022Y4150256D01*
X8556768Y4193774D01*
X8503144Y4157955D01*
X8494219Y4151968D01*
X8470219Y4135735D01*
X8440273Y4115356D01*
X8406502Y4092278D01*
X8371029Y4067953D01*
X8335979Y4043828D01*
X8311816Y4027335D01*
X8281849Y4007381D01*
X8255443Y3990359D01*
X8233972Y3977131D01*
X8218807Y3968561D01*
X8211323Y3965512D01*
X8210459Y3965705D01*
X8202284Y3971119D01*
X8187842Y3983208D01*
X8168156Y4000950D01*
X8144246Y4023324D01*
X8117133Y4049307D01*
X8087838Y4077877D01*
X8057382Y4108012D01*
X8026786Y4138689D01*
X7997070Y4168888D01*
X7969255Y4197585D01*
X7944363Y4223759D01*
X7923414Y4246387D01*
X7907429Y4264448D01*
X7897430Y4276919D01*
X7894435Y4282778D01*
X7898037Y4288839D01*
X7907235Y4303015D01*
X7921288Y4324180D01*
X7939470Y4351256D01*
X7961057Y4383163D01*
X7985325Y4418822D01*
X8011548Y4457155D01*
X8037157Y4494725D01*
X8061222Y4530483D01*
X8082489Y4562550D01*
X8100256Y4589842D01*
X8113818Y4611279D01*
X8122471Y4625779D01*
X8125512Y4632260D01*
X8125170Y4634253D01*
X8121606Y4645622D01*
X8114663Y4664952D01*
X8104953Y4690718D01*
X8093090Y4721396D01*
X8079690Y4755461D01*
X8065364Y4791388D01*
X8050729Y4827652D01*
X8036396Y4862730D01*
X8022980Y4895096D01*
X8011095Y4923226D01*
X8001355Y4945594D01*
X7994373Y4960677D01*
X7990764Y4966949D01*
X7990673Y4967013D01*
X7983394Y4969245D01*
X7966527Y4973173D01*
X7941322Y4978544D01*
X7909028Y4985103D01*
X7870896Y4992597D01*
X7828177Y5000770D01*
X7782119Y5009369D01*
X7734227Y5018296D01*
X7684441Y5027862D01*
X7644574Y5035914D01*
X7614065Y5042576D01*
X7592348Y5047971D01*
X7578860Y5052225D01*
X7573037Y5055461D01*
X7571167Y5062792D01*
X7569494Y5079775D01*
X7568111Y5104829D01*
X7567016Y5136481D01*
X7566208Y5173259D01*
X7565686Y5213690D01*
X7565446Y5256302D01*
X7565489Y5299621D01*
X7565811Y5342174D01*
X7566412Y5382490D01*
X7567290Y5419096D01*
X7568443Y5450519D01*
X7569869Y5475285D01*
X7571568Y5491923D01*
X7573536Y5498960D01*
X7573841Y5499156D01*
X7582094Y5501758D01*
X7599848Y5506043D01*
X7625860Y5511751D01*
X7658888Y5518623D01*
X7697689Y5526400D01*
X7741022Y5534823D01*
X7787644Y5543632D01*
X7834636Y5552533D01*
X7879536Y5561338D01*
X7919109Y5569412D01*
X7952238Y5576518D01*
X7977808Y5582413D01*
X7994702Y5586860D01*
X8001804Y5589618D01*
X8005225Y5595192D01*
X8012518Y5609827D01*
X8022737Y5631735D01*
X8035205Y5659337D01*
X8049242Y5691052D01*
X8064170Y5725300D01*
X8079311Y5760503D01*
X8093984Y5795080D01*
X8107512Y5827452D01*
X8119215Y5856039D01*
X8128415Y5879260D01*
X8134432Y5895537D01*
X8136589Y5903289D01*
X8136456Y5903930D01*
X8132190Y5912231D01*
X8122419Y5928361D01*
X8107828Y5951274D01*
X8089098Y5979924D01*
X8066914Y6013262D01*
X8041958Y6050242D01*
X8014912Y6089818D01*
X8009099Y6098282D01*
X7982444Y6137326D01*
X7958011Y6173492D01*
X7936482Y6205743D01*
X7918540Y6233043D01*
X7904868Y6254355D01*
X7896148Y6268642D01*
X7893063Y6274866D01*
X7896811Y6280472D01*
X7907461Y6292771D01*
X7923981Y6310722D01*
X7945340Y6333284D01*
X7970505Y6359417D01*
X7998443Y6388083D01*
X8028123Y6418241D01*
X8058512Y6448852D01*
X8088578Y6478875D01*
X8117288Y6507271D01*
X8143611Y6533000D01*
X8166513Y6555022D01*
X8184964Y6572298D01*
X8197930Y6583787D01*
X8204379Y6588450D01*
X8207829Y6587945D01*
X8219306Y6582578D01*
X8238432Y6571484D01*
X8265466Y6554499D01*
X8300663Y6531460D01*
X8344283Y6502203D01*
X8396583Y6466566D01*
X8409566Y6457681D01*
X8448946Y6430893D01*
X8485325Y6406388D01*
X8517686Y6384837D01*
X8545010Y6366909D01*
X8566279Y6353274D01*
X8580475Y6344601D01*
X8586580Y6341562D01*
X8590093Y6342286D01*
X8603243Y6346653D01*
X8623976Y6354388D01*
X8650664Y6364812D01*
X8681683Y6377250D01*
X8715407Y6391026D01*
X8750210Y6405462D01*
X8784466Y6419883D01*
X8816550Y6433612D01*
X8844837Y6445973D01*
X8867700Y6456289D01*
X8883513Y6463884D01*
X8890652Y6468081D01*
X8893049Y6472376D01*
X8897302Y6485401D01*
X8902796Y6507125D01*
X8909631Y6537996D01*
X8917903Y6578462D01*
X8927712Y6628972D01*
X8939155Y6689974D01*
X8941218Y6701083D01*
X8950031Y6747750D01*
X8958399Y6790854D01*
X8966069Y6829174D01*
X8972789Y6861485D01*
X8978305Y6886564D01*
X8982364Y6903188D01*
X8984713Y6910133D01*
X8991216Y6912022D01*
X9007455Y6913736D01*
X9031888Y6915179D01*
X9063044Y6916347D01*
X9099449Y6917240D01*
X9139631Y6917856D01*
X9182117Y6918193D01*
X9225435Y6918250D01*
X9268110Y6918025D01*
G37*
D12*
X33199000Y18205000D03*
X30199000Y18205000D03*
D13*
X2000000Y2000000D03*
X2000000Y18000000D03*
D12*
X30199000Y1781792D03*
X33199000Y1781792D03*
D14*
X5480000Y12890000D03*
X5480000Y7110000D03*
D15*
X25859000Y10448000D03*
D16*
X24589000Y10448000D03*
X25859000Y11718000D03*
X24589000Y11718000D03*
X25859000Y12988000D03*
X24589000Y12988000D03*
D17*
X15700000Y12574000D03*
X15700000Y6224000D03*
D18*
X33100000Y15100000D03*
D19*
X31800002Y15100000D03*
D20*
X8599264Y17699264D03*
D17*
X15700000Y7494000D03*
X15700000Y8764000D03*
X15700000Y10034000D03*
D18*
X39374999Y1945000D03*
D19*
X38075001Y1945000D03*
D18*
X39374999Y18055000D03*
D19*
X38075001Y18055000D03*
D18*
X16025000Y18295000D03*
D19*
X14725000Y18295000D03*
D21*
X1375000Y7750000D03*
D22*
X1375000Y9250000D03*
X1375000Y10750000D03*
X1375000Y12250000D03*
D20*
X6999264Y17702208D03*
D23*
X42073000Y3716000D03*
D24*
X42073000Y6256000D03*
X42073000Y8795999D03*
X42073000Y11336001D03*
X42073000Y13876000D03*
X42073000Y16416000D03*
D20*
X32359264Y12662208D03*
D17*
X15700000Y4954000D03*
X15700000Y11304000D03*
D20*
X33959264Y12662208D03*
M02*
