%TF.GenerationSoftware,KiCad,Pcbnew,9.0.6*%
%TF.CreationDate,2025-11-05T22:41:54+05:30*%
%TF.ProjectId,ESPNut-D1,4553504e-7574-42d4-9431-2e6b69636164,0.4*%
%TF.SameCoordinates,Original*%
%TF.FileFunction,Legend,Top*%
%TF.FilePolarity,Positive*%
%FSLAX46Y46*%
G04 Gerber Fmt 4.6, Leading zero omitted, Abs format (unit mm)*
G04 Created by KiCad (PCBNEW 9.0.6) date 2025-11-05 22:41:54*
%MOMM*%
%LPD*%
G01*
G04 APERTURE LIST*
%ADD10C,0.000000*%
%ADD11C,0.300000*%
%ADD12C,0.120000*%
%ADD13C,0.100000*%
G04 APERTURE END LIST*
D10*
G36*
X27093607Y5978079D02*
G01*
X27093120Y5958432D01*
X27085442Y5919895D01*
X27070395Y5883598D01*
X27048558Y5850932D01*
X27020768Y5823149D01*
X26988097Y5801325D01*
X26951793Y5786290D01*
X26913254Y5778625D01*
X26893604Y5778078D01*
X26700479Y5778328D01*
X26700479Y6077191D01*
X27093607Y6078078D01*
X27093607Y5978079D01*
G37*
G36*
X31831420Y4586872D02*
G01*
X31731421Y4586872D01*
X31711774Y4587362D01*
X31673238Y4595039D01*
X31636939Y4610086D01*
X31604274Y4631923D01*
X31576491Y4659711D01*
X31554666Y4692385D01*
X31539633Y4728689D01*
X31531967Y4767226D01*
X31531420Y4786875D01*
X31531670Y4980002D01*
X31830533Y4980002D01*
X31831420Y4586872D01*
G37*
G36*
X26310001Y5779214D02*
G01*
X26106397Y5778078D01*
X26086748Y5778624D01*
X26048209Y5786290D01*
X26011906Y5801321D01*
X25979234Y5823148D01*
X25951443Y5850932D01*
X25929606Y5883598D01*
X25914562Y5919895D01*
X25906884Y5958432D01*
X25906394Y5978079D01*
X25906394Y6078078D01*
X26310002Y6078078D01*
X26310001Y5779214D01*
G37*
G36*
X24570959Y14925300D02*
G01*
X24367355Y14924163D01*
X24347706Y14924709D01*
X24309167Y14932375D01*
X24272864Y14947407D01*
X24240191Y14969234D01*
X24212402Y14997017D01*
X24190564Y15029683D01*
X24175520Y15065980D01*
X24167841Y15104517D01*
X24167353Y15124164D01*
X24167352Y15224163D01*
X24570959Y15224163D01*
X24570959Y14925300D01*
G37*
G36*
X9397911Y19573118D02*
G01*
X9436447Y19565440D01*
X9472744Y19550394D01*
X9505411Y19528556D01*
X9533194Y19500768D01*
X9555019Y19468095D01*
X9570053Y19431790D01*
X9577718Y19393254D01*
X9578265Y19373605D01*
X9578015Y19180478D01*
X9279152Y19180478D01*
X9278265Y19573607D01*
X9378264Y19573607D01*
X9397911Y19573118D01*
G37*
G36*
X26690000Y9752785D02*
G01*
X26690000Y9453922D01*
X26290480Y9454856D01*
X26290480Y9753719D01*
X26690000Y9752785D01*
G37*
G36*
X26913254Y9753376D02*
G01*
X26951792Y9745710D01*
X26988095Y9730678D01*
X27020767Y9708851D01*
X27048557Y9681069D01*
X27070395Y9648402D01*
X27085439Y9612105D01*
X27093118Y9573568D01*
X27093607Y9553921D01*
X27093607Y9453922D01*
X26690000Y9453922D01*
X26690000Y9752785D01*
X26893604Y9753922D01*
X26913254Y9753376D01*
G37*
G36*
X24950479Y15223276D02*
G01*
X24950479Y14924413D01*
X24570959Y14925300D01*
X24570959Y15224163D01*
X24950479Y15223276D01*
G37*
G36*
X28389520Y13898704D02*
G01*
X28389520Y13599841D01*
X27910000Y13600962D01*
X27910000Y13899825D01*
X28389520Y13898704D01*
G37*
G36*
X29385804Y14256391D02*
G01*
X29285805Y14256392D01*
G75*
G02*
X29085804Y14456394I-105J199908D01*
G01*
X29085804Y15243604D01*
G75*
G02*
X29285805Y15443606I199996J-4D01*
G01*
X29385804Y15443607D01*
X29385804Y14256391D01*
G37*
G36*
X27910000Y13600962D02*
G01*
X27706396Y13599825D01*
X27686747Y13600371D01*
X27648208Y13608037D01*
X27611905Y13623069D01*
X27579232Y13644896D01*
X27551443Y13672679D01*
X27529605Y13705345D01*
X27514561Y13741642D01*
X27506882Y13780179D01*
X27506394Y13799826D01*
X27506393Y13899825D01*
X27910000Y13899825D01*
X27910000Y13600962D01*
G37*
G36*
X24575989Y1181393D02*
G01*
X24475990Y1181393D01*
X24456343Y1181882D01*
X24417807Y1189560D01*
X24381509Y1204606D01*
X24348843Y1226444D01*
X24321060Y1254232D01*
X24299235Y1286905D01*
X24284201Y1323209D01*
X24276536Y1361746D01*
X24275989Y1381395D01*
X24276239Y1574522D01*
X24575102Y1574522D01*
X24575989Y1181393D01*
G37*
G36*
X34325443Y4990480D02*
G01*
X34026580Y4990480D01*
X34027467Y5370000D01*
X34326330Y5370000D01*
X34325443Y4990480D01*
G37*
G36*
X29365393Y5359521D02*
G01*
X29066530Y5359521D01*
X29065393Y5563125D01*
X29065939Y5582774D01*
X29073605Y5621312D01*
X29088638Y5657616D01*
X29110464Y5690289D01*
X29138246Y5718078D01*
X29170913Y5739915D01*
X29207210Y5754962D01*
X29245747Y5762639D01*
X29265394Y5763127D01*
X29365393Y5763128D01*
X29365393Y5359521D01*
G37*
G36*
X31830533Y4980002D02*
G01*
X31531670Y4980002D01*
X31532557Y5359522D01*
X31831420Y5359522D01*
X31830533Y4980002D01*
G37*
G36*
X17542961Y15710000D02*
G01*
X17244098Y15710000D01*
X17246177Y16599520D01*
X17545040Y16599520D01*
X17542961Y15710000D01*
G37*
G36*
X34004178Y6742355D02*
G01*
X34003632Y6722706D01*
X33995966Y6684167D01*
X33980934Y6647864D01*
X33959107Y6615191D01*
X33931324Y6587402D01*
X33898658Y6565564D01*
X33862361Y6550519D01*
X33823824Y6542841D01*
X33804177Y6542353D01*
X33704178Y6542352D01*
X33704178Y6945959D01*
X34003041Y6945959D01*
X34004178Y6742355D01*
G37*
G36*
X31232607Y4786875D02*
G01*
X31232061Y4767226D01*
X31224395Y4728687D01*
X31209363Y4692384D01*
X31187536Y4659711D01*
X31159753Y4631922D01*
X31127087Y4610084D01*
X31090790Y4595039D01*
X31052253Y4587361D01*
X31032606Y4586873D01*
X30932607Y4586872D01*
X30932607Y4990479D01*
X31231470Y4990479D01*
X31232607Y4786875D01*
G37*
G36*
X31052253Y5762639D02*
G01*
X31090789Y5754962D01*
X31127087Y5739915D01*
X31159753Y5718078D01*
X31187536Y5690289D01*
X31209361Y5657616D01*
X31224394Y5621312D01*
X31232060Y5582775D01*
X31232607Y5563126D01*
X31232357Y5369999D01*
X30933494Y5369999D01*
X30932607Y5763128D01*
X31032606Y5763128D01*
X31052253Y5762639D01*
G37*
G36*
X22170959Y14925300D02*
G01*
X21967355Y14924163D01*
X21947706Y14924709D01*
X21909167Y14932375D01*
X21872864Y14947407D01*
X21840191Y14969234D01*
X21812402Y14997017D01*
X21790564Y15029683D01*
X21775520Y15065980D01*
X21767841Y15104517D01*
X21767353Y15124164D01*
X21767352Y15224163D01*
X22170959Y15224163D01*
X22170959Y14925300D01*
G37*
G36*
X24575054Y1565480D02*
G01*
X24276191Y1565480D01*
X24277125Y1965000D01*
X24575988Y1965000D01*
X24575054Y1565480D01*
G37*
G36*
X28693649Y13799826D02*
G01*
X28693160Y13780179D01*
X28685483Y13741643D01*
X28670436Y13705345D01*
X28648599Y13672679D01*
X28620810Y13644896D01*
X28588137Y13623072D01*
X28551833Y13608038D01*
X28513295Y13600372D01*
X28493647Y13599825D01*
X28300520Y13600075D01*
X28300520Y13898938D01*
X28693649Y13899825D01*
X28693649Y13799826D01*
G37*
G36*
X32514506Y14256391D02*
G01*
X32414507Y14256392D01*
G75*
G02*
X32214506Y14456394I-7J199908D01*
G01*
X32214506Y15243604D01*
G75*
G02*
X32414507Y15443606I199994J-4D01*
G01*
X32514506Y15443607D01*
X32514506Y14256391D01*
G37*
G36*
X26709521Y6077144D02*
G01*
X26709521Y5778281D01*
X26310001Y5779214D01*
X26310002Y6078078D01*
X26709521Y6077144D01*
G37*
G36*
X38165902Y15196393D02*
G01*
X38065902Y15196394D01*
X38046256Y15196882D01*
X38007719Y15204560D01*
X37971422Y15219605D01*
X37938755Y15241443D01*
X37910973Y15269232D01*
X37889146Y15301905D01*
X37874114Y15338208D01*
X37866448Y15376747D01*
X37865902Y15396396D01*
X37867039Y15600000D01*
X38165902Y15600000D01*
X38165902Y15196393D01*
G37*
G36*
X42179098Y15396396D02*
G01*
X42178552Y15376747D01*
X42170886Y15338208D01*
X42155854Y15301905D01*
X42134027Y15269232D01*
X42106245Y15241443D01*
X42073578Y15219605D01*
X42037281Y15204560D01*
X41998744Y15196882D01*
X41979098Y15196394D01*
X41879098Y15196393D01*
X41879098Y15600000D01*
X42177961Y15600000D01*
X42179098Y15396396D01*
G37*
G36*
X31231470Y4990479D02*
G01*
X30932607Y4990479D01*
X30933494Y5369999D01*
X31232357Y5369999D01*
X31231470Y4990479D01*
G37*
G36*
X38165902Y15600000D02*
G01*
X37867039Y15600000D01*
X37864960Y16489520D01*
X38163823Y16489520D01*
X38165902Y15600000D01*
G37*
G36*
X34146226Y5762640D02*
G01*
X34184762Y5754963D01*
X34221061Y5739916D01*
X34253726Y5718078D01*
X34281509Y5690291D01*
X34303334Y5657617D01*
X34318368Y5621313D01*
X34326033Y5582776D01*
X34326580Y5563127D01*
X34326330Y5370000D01*
X34027467Y5370000D01*
X34026580Y5763130D01*
X34126579Y5763130D01*
X34146226Y5762640D01*
G37*
G36*
X38161841Y3500480D02*
G01*
X37862978Y3500480D01*
X37865057Y4390000D01*
X38163920Y4390000D01*
X38161841Y3500480D01*
G37*
G36*
X6560029Y18440480D02*
G01*
X6261166Y18440480D01*
X6262871Y19170000D01*
X6561734Y19170000D01*
X6560029Y18440480D01*
G37*
G36*
X17544098Y15506396D02*
G01*
X17543552Y15486747D01*
X17535886Y15448208D01*
X17520854Y15411905D01*
X17499027Y15379232D01*
X17471245Y15351443D01*
X17438578Y15329605D01*
X17402281Y15314560D01*
X17363744Y15306882D01*
X17344098Y15306394D01*
X17244098Y15306393D01*
X17244098Y15710000D01*
X17542961Y15710000D01*
X17544098Y15506396D01*
G37*
G36*
X25333608Y15124164D02*
G01*
X25333119Y15104517D01*
X25325442Y15065981D01*
X25310395Y15029683D01*
X25288558Y14997017D01*
X25260769Y14969234D01*
X25228096Y14947410D01*
X25191792Y14932376D01*
X25153254Y14924710D01*
X25133606Y14924163D01*
X24940479Y14924413D01*
X24940479Y15223276D01*
X25333608Y15224163D01*
X25333608Y15124164D01*
G37*
G36*
X26299522Y9753672D02*
G01*
X26299522Y9454809D01*
X25906393Y9453922D01*
X25906393Y9553921D01*
X25906882Y9573569D01*
X25914559Y9612105D01*
X25929606Y9648402D01*
X25951442Y9681068D01*
X25979232Y9708851D01*
X26011904Y9730675D01*
X26048208Y9745709D01*
X26086747Y9753375D01*
X26106396Y9753922D01*
X26299522Y9753672D01*
G37*
G36*
X33823824Y7707159D02*
G01*
X33862360Y7699482D01*
X33898658Y7684435D01*
X33931324Y7662598D01*
X33959107Y7634809D01*
X33980932Y7602136D01*
X33995965Y7565832D01*
X34003631Y7527295D01*
X34004178Y7507646D01*
X34003928Y7314519D01*
X33705065Y7314519D01*
X33704178Y7707648D01*
X33804177Y7707648D01*
X33823824Y7707159D01*
G37*
G36*
X13530902Y15710000D02*
G01*
X13232039Y15710000D01*
X13229960Y16599520D01*
X13528823Y16599520D01*
X13530902Y15710000D01*
G37*
G36*
X13530902Y15306393D02*
G01*
X13430902Y15306394D01*
X13411256Y15306882D01*
X13372719Y15314560D01*
X13336422Y15329605D01*
X13303755Y15351443D01*
X13275973Y15379232D01*
X13254146Y15411905D01*
X13239114Y15448208D01*
X13231448Y15486747D01*
X13230902Y15506396D01*
X13232039Y15710000D01*
X13530902Y15710000D01*
X13530902Y15306393D01*
G37*
G36*
X34326580Y4786875D02*
G01*
X34326033Y4767227D01*
X34318368Y4728688D01*
X34303336Y4692385D01*
X34281509Y4659711D01*
X34253726Y4631924D01*
X34221060Y4610085D01*
X34184763Y4595040D01*
X34146226Y4587362D01*
X34126579Y4586874D01*
X34026580Y4586872D01*
X34026580Y4990480D01*
X34325443Y4990480D01*
X34326580Y4786875D01*
G37*
G36*
X29364506Y4980000D02*
G01*
X29065643Y4980000D01*
X29066530Y5359521D01*
X29365393Y5359521D01*
X29364506Y4980000D01*
G37*
G36*
X9577129Y18790000D02*
G01*
X9278266Y18790000D01*
X9279200Y19189520D01*
X9578063Y19189520D01*
X9577129Y18790000D01*
G37*
G36*
X38163920Y4390000D02*
G01*
X37865057Y4390000D01*
X37863920Y4593604D01*
X37864466Y4613253D01*
X37872132Y4651792D01*
X37887164Y4688095D01*
X37908991Y4720768D01*
X37936774Y4748557D01*
X37969440Y4770395D01*
X38005737Y4785440D01*
X38044274Y4793118D01*
X38063921Y4793606D01*
X38163920Y4793607D01*
X38163920Y4390000D01*
G37*
G36*
X6561734Y19170000D02*
G01*
X6262871Y19170000D01*
X6261734Y19373604D01*
X6262280Y19393253D01*
X6269946Y19431792D01*
X6284978Y19468095D01*
X6306805Y19500769D01*
X6334588Y19528557D01*
X6367254Y19550395D01*
X6403551Y19565440D01*
X6442088Y19573118D01*
X6461735Y19573606D01*
X6561735Y19573607D01*
X6561734Y19170000D01*
G37*
G36*
X31831420Y5359522D02*
G01*
X31532557Y5359522D01*
X31531420Y5563127D01*
X31531967Y5582775D01*
X31539632Y5621314D01*
X31554664Y5657617D01*
X31576491Y5690290D01*
X31604274Y5718078D01*
X31636940Y5739917D01*
X31673237Y5754962D01*
X31711774Y5762640D01*
X31731421Y5763128D01*
X31831420Y5763129D01*
X31831420Y5359522D01*
G37*
G36*
X31692195Y15443607D02*
G01*
X31692195Y15443607D01*
G75*
G02*
X31892196Y15243606I5J-199907D01*
G01*
X31892196Y14456394D01*
G75*
G02*
X31692195Y14256393I-199996J6D01*
G01*
X31592196Y14256391D01*
X31592196Y15443607D01*
X31692195Y15443607D01*
G37*
G36*
X41979079Y4793606D02*
G01*
X41998726Y4793118D01*
X42037263Y4785440D01*
X42073560Y4770395D01*
X42106226Y4748557D01*
X42134009Y4720768D01*
X42155836Y4688095D01*
X42170868Y4651792D01*
X42178534Y4613253D01*
X42179080Y4593604D01*
X42177943Y4390000D01*
X41879080Y4390000D01*
X41879080Y4793607D01*
X41979079Y4793606D01*
G37*
G36*
X22933608Y15124164D02*
G01*
X22933119Y15104517D01*
X22925442Y15065981D01*
X22910395Y15029683D01*
X22888558Y14997017D01*
X22860769Y14969234D01*
X22828096Y14947410D01*
X22791792Y14932376D01*
X22753254Y14924710D01*
X22733606Y14924163D01*
X22540479Y14924413D01*
X22540479Y15223276D01*
X22933608Y15224163D01*
X22933608Y15124164D01*
G37*
G36*
X9578266Y18586395D02*
G01*
X9577719Y18566747D01*
X9570054Y18528208D01*
X9555022Y18491905D01*
X9533195Y18459231D01*
X9505412Y18431444D01*
X9472746Y18409605D01*
X9436449Y18394560D01*
X9397912Y18386882D01*
X9378265Y18386395D01*
X9278265Y18386393D01*
X9278266Y18790000D01*
X9577129Y18790000D01*
X9578266Y18586395D01*
G37*
G36*
X29365393Y4586872D02*
G01*
X29265394Y4586872D01*
X29245747Y4587361D01*
X29207211Y4595038D01*
X29170913Y4610085D01*
X29138247Y4631922D01*
X29110464Y4659711D01*
X29088639Y4692384D01*
X29073606Y4728688D01*
X29065940Y4767225D01*
X29065393Y4786874D01*
X29065643Y4980000D01*
X29364506Y4980000D01*
X29365393Y4586872D01*
G37*
G36*
X22550479Y15223276D02*
G01*
X22550479Y14924413D01*
X22170959Y14925300D01*
X22170959Y15224163D01*
X22550479Y15223276D01*
G37*
G36*
X42177961Y15600000D02*
G01*
X41879098Y15600000D01*
X41881177Y16489520D01*
X42180040Y16489520D01*
X42177961Y15600000D01*
G37*
G36*
X42180022Y3500480D02*
G01*
X41881159Y3500480D01*
X41879080Y4390000D01*
X42177943Y4390000D01*
X42180022Y3500480D01*
G37*
G36*
X34163428Y15443607D02*
G01*
X34163428Y15443607D01*
G75*
G02*
X34363429Y15243606I72J-199907D01*
G01*
X34363429Y14456394D01*
G75*
G02*
X34163428Y14256393I-200029J6D01*
G01*
X34063429Y14256391D01*
X34063429Y15443607D01*
X34163428Y15443607D01*
G37*
G36*
X24575988Y1965000D02*
G01*
X24277125Y1965000D01*
X24275988Y2168604D01*
X24276534Y2188253D01*
X24284200Y2226792D01*
X24299232Y2263095D01*
X24321059Y2295769D01*
X24348842Y2323557D01*
X24381508Y2345395D01*
X24417805Y2360440D01*
X24456342Y2368118D01*
X24475989Y2368606D01*
X24575989Y2368607D01*
X24575988Y1965000D01*
G37*
G36*
X34003041Y6934999D02*
G01*
X33704178Y6934999D01*
X33705065Y7314519D01*
X34003928Y7314519D01*
X34003041Y6934999D01*
G37*
D11*
G36*
X28122898Y11406831D02*
G01*
X28682898Y11406831D01*
X28682898Y11697968D01*
X27834007Y11697968D01*
X27834007Y10037508D01*
X28682898Y10037508D01*
X28682898Y10328645D01*
X28122898Y10328645D01*
X28122898Y10723928D01*
X28682898Y10723928D01*
X28682898Y11012916D01*
X28122898Y11012916D01*
X28122898Y11406831D01*
G37*
G36*
X29378208Y10328645D02*
G01*
X29418477Y10331698D01*
X29455258Y10340562D01*
X29487679Y10354631D01*
X29515569Y10373535D01*
X29537775Y10396096D01*
X29554687Y10422415D01*
X29565527Y10451056D01*
X29570493Y10482490D01*
X29570769Y10492190D01*
X29558939Y10544874D01*
X29523476Y10592738D01*
X29456762Y10642196D01*
X29305973Y10717237D01*
X29140706Y10799057D01*
X29090625Y10830797D01*
X29042683Y10869199D01*
X29001453Y10910624D01*
X28964527Y10957541D01*
X28935713Y11004826D01*
X28912318Y11056468D01*
X28896369Y11107661D01*
X28886428Y11162395D01*
X28883177Y11217885D01*
X28895233Y11326348D01*
X28930552Y11426731D01*
X28987826Y11516438D01*
X29065177Y11592018D01*
X29159582Y11649563D01*
X29211808Y11670390D01*
X29266811Y11685494D01*
X29378208Y11697285D01*
X29487640Y11685217D01*
X29591367Y11649512D01*
X29685524Y11591354D01*
X29765385Y11513107D01*
X29798390Y11467695D01*
X29826220Y11418645D01*
X29848195Y11367127D01*
X29864363Y11312851D01*
X29874169Y11257624D01*
X29877726Y11200500D01*
X29877734Y11197759D01*
X29588746Y11197759D01*
X29572533Y11270315D01*
X29533915Y11333795D01*
X29507468Y11359564D01*
X29477026Y11380333D01*
X29444206Y11395045D01*
X29408632Y11403783D01*
X29378208Y11406049D01*
X29333651Y11402923D01*
X29293937Y11393544D01*
X29262698Y11379691D01*
X29236312Y11360732D01*
X29216621Y11338683D01*
X29201771Y11312277D01*
X29187988Y11247706D01*
X29187796Y11238108D01*
X29199611Y11188254D01*
X29235863Y11140680D01*
X29305505Y11089161D01*
X29454383Y11012415D01*
X29568522Y10955861D01*
X29640451Y10912065D01*
X29709637Y10859393D01*
X29755681Y10815175D01*
X29796583Y10765419D01*
X29825789Y10719144D01*
X29849365Y10668491D01*
X29864973Y10619130D01*
X29874646Y10565909D01*
X29877734Y10512316D01*
X29865666Y10405510D01*
X29830248Y10306316D01*
X29772687Y10217404D01*
X29694783Y10142314D01*
X29649004Y10111161D01*
X29599506Y10085045D01*
X29546716Y10064300D01*
X29491038Y10049247D01*
X29378208Y10037508D01*
X29270323Y10049570D01*
X29167521Y10085348D01*
X29073812Y10143752D01*
X28994175Y10222392D01*
X28961291Y10267990D01*
X28933604Y10317210D01*
X28911837Y10368783D01*
X28895912Y10423067D01*
X28886422Y10477969D01*
X28883177Y10534689D01*
X29172067Y10534689D01*
X29186779Y10464055D01*
X29224161Y10401302D01*
X29250223Y10375497D01*
X29280306Y10354639D01*
X29312835Y10339790D01*
X29348064Y10330949D01*
X29378208Y10328645D01*
G37*
G36*
X30612107Y11697958D02*
G01*
X30669197Y11694340D01*
X30724387Y11684476D01*
X30778601Y11668260D01*
X30830057Y11646241D01*
X30879031Y11618376D01*
X30924372Y11585334D01*
X31002494Y11505386D01*
X31060578Y11411071D01*
X31096260Y11307057D01*
X31108327Y11197173D01*
X31108327Y11134061D01*
X31108325Y11132779D01*
X31104922Y11076171D01*
X31095249Y11021373D01*
X31079175Y10967389D01*
X31057261Y10916092D01*
X31029443Y10867173D01*
X30996414Y10821842D01*
X30916418Y10743655D01*
X30822096Y10685511D01*
X30718257Y10649819D01*
X30608801Y10637759D01*
X30402660Y10637759D01*
X30402660Y10037508D01*
X30111523Y10037508D01*
X30111523Y10926650D01*
X30402660Y10926650D01*
X30608801Y10926650D01*
X30645725Y10930657D01*
X30681726Y10941226D01*
X30714869Y10957655D01*
X30744711Y10979451D01*
X30770313Y11005813D01*
X30805276Y11067104D01*
X30817092Y11134061D01*
X30817092Y11197173D01*
X30812843Y11236639D01*
X30802357Y11272751D01*
X30786195Y11305786D01*
X30739054Y11360387D01*
X30677894Y11394973D01*
X30608801Y11406831D01*
X30402660Y11406831D01*
X30402660Y10926650D01*
X30111523Y10926650D01*
X30111523Y11697968D01*
X30608801Y11697968D01*
X30612107Y11697958D01*
G37*
G36*
X32314398Y11694451D02*
G01*
X32025410Y11694451D01*
X32025410Y10714940D01*
X31610979Y11694451D01*
X31319841Y11694451D01*
X31319841Y10037508D01*
X31608732Y10037508D01*
X31608732Y11016824D01*
X32023163Y10037508D01*
X32314398Y10037508D01*
X32314398Y11694451D01*
G37*
G36*
X33462632Y11291841D02*
G01*
X33173644Y11291841D01*
X33173644Y10463077D01*
X33162057Y10409635D01*
X33127820Y10362107D01*
X33073941Y10328239D01*
X33016938Y10317410D01*
X32956102Y10329115D01*
X32904741Y10362804D01*
X32885397Y10386403D01*
X32871455Y10413508D01*
X32862284Y10463077D01*
X32862284Y11291841D01*
X32571146Y11291841D01*
X32571146Y10463077D01*
X32573222Y10406850D01*
X32581189Y10353824D01*
X32613808Y10256745D01*
X32666790Y10173849D01*
X32737535Y10107908D01*
X32822439Y10062174D01*
X32868673Y10047858D01*
X32916701Y10039595D01*
X32956366Y10037508D01*
X33000040Y10040609D01*
X33042392Y10049809D01*
X33121890Y10086130D01*
X33173644Y10127096D01*
X33173644Y10037508D01*
X33462632Y10037508D01*
X33462632Y11291841D01*
G37*
G36*
X34323540Y10328645D02*
G01*
X34177971Y10328645D01*
X34122381Y10340350D01*
X34072860Y10374968D01*
X34053913Y10399416D01*
X34040373Y10427508D01*
X34032305Y10474312D01*
X34032305Y11032162D01*
X34280944Y11032162D01*
X34280944Y11294284D01*
X34032305Y11294284D01*
X34032305Y11616782D01*
X33741167Y11616782D01*
X33741167Y11294284D01*
X33617971Y11294284D01*
X33617971Y11032162D01*
X33741167Y11032162D01*
X33741167Y10411590D01*
X33744255Y10354679D01*
X33753365Y10302129D01*
X33767706Y10255492D01*
X33787267Y10213121D01*
X33811346Y10175757D01*
X33840056Y10142671D01*
X33910798Y10089538D01*
X34000139Y10053976D01*
X34109337Y10038049D01*
X34135375Y10037508D01*
X34323540Y10037508D01*
X34323540Y10328645D01*
G37*
G36*
X34468815Y10851618D02*
G01*
X34468815Y10562728D01*
X35270713Y10562728D01*
X35270713Y10851618D01*
X34468815Y10851618D01*
G37*
G36*
X36025668Y11697961D02*
G01*
X36082790Y11694399D01*
X36138013Y11684588D01*
X36192284Y11668416D01*
X36243798Y11646438D01*
X36292842Y11618606D01*
X36338248Y11585598D01*
X36416486Y11505730D01*
X36474639Y11411561D01*
X36510342Y11307812D01*
X36522409Y11198345D01*
X36522409Y10534884D01*
X36522406Y10533119D01*
X36518952Y10476334D01*
X36509234Y10421389D01*
X36493130Y10367307D01*
X36471198Y10315937D01*
X36443378Y10266975D01*
X36410359Y10221619D01*
X36330411Y10143414D01*
X36236145Y10085267D01*
X36132339Y10049570D01*
X36022884Y10037508D01*
X35527852Y10037508D01*
X35527852Y10328645D01*
X35818990Y10328645D01*
X36022884Y10328645D01*
X36061804Y10332943D01*
X36098072Y10343652D01*
X36131511Y10360156D01*
X36186861Y10407789D01*
X36221622Y10468191D01*
X36233421Y10534884D01*
X36233421Y11198345D01*
X36229197Y11237052D01*
X36218629Y11272880D01*
X36202321Y11305682D01*
X36180684Y11335114D01*
X36154460Y11360295D01*
X36092411Y11394976D01*
X36022884Y11406831D01*
X35818990Y11406831D01*
X35818990Y10328645D01*
X35527852Y10328645D01*
X35527852Y11697968D01*
X36022884Y11697968D01*
X36025668Y11697961D01*
G37*
G36*
X36733826Y10037508D02*
G01*
X37728383Y10037508D01*
X37728383Y10328645D01*
X37376673Y10328645D01*
X37376673Y11697968D01*
X36733826Y11697968D01*
X36733826Y11406831D01*
X37085535Y11406831D01*
X37085535Y10328645D01*
X36733826Y10328645D01*
X36733826Y10037508D01*
G37*
D12*
X28249000Y18594999D02*
X28249000Y17805000D01*
X30299000Y16755000D02*
X30099000Y16755000D01*
X31799000Y20895000D02*
X31799000Y19605000D01*
X31799000Y20895000D02*
X31999000Y21105000D01*
X32899000Y21105000D02*
X31999000Y21105000D01*
X33099000Y20895000D02*
X32899000Y21105000D01*
X33099000Y19605000D02*
X33099000Y20895000D01*
X33299000Y16755000D02*
X31599000Y16755000D01*
X34549000Y19605000D02*
X28849000Y19605000D01*
X35149000Y17805000D02*
X35149000Y18594999D01*
D10*
G36*
X22281507Y16323202D02*
G01*
X22303288Y16286627D01*
X22310548Y16239366D01*
X22310548Y16130873D01*
X22097945Y16130873D01*
X22097945Y16239366D01*
X22105205Y16286627D01*
X22126986Y16323202D01*
X22204247Y16354435D01*
X22281507Y16323202D01*
G37*
G36*
X22277671Y15650325D02*
G01*
X22298219Y15614024D01*
X22305068Y15565394D01*
X22305068Y15471147D01*
X22092466Y15471147D01*
X22092466Y15565394D01*
X22099589Y15614024D01*
X22120959Y15650325D01*
X22155205Y15672928D01*
X22200959Y15680462D01*
X22277671Y15650325D01*
G37*
G36*
X22932648Y15307859D02*
G01*
X22932648Y15125211D01*
X21767352Y15125211D01*
X21767352Y15307859D01*
X21767352Y15565394D01*
X21950000Y15565394D01*
X21950000Y15307859D01*
X22750000Y15307859D01*
X22750000Y15471147D01*
X22447534Y15471147D01*
X22447534Y15547859D01*
X22750000Y15677175D01*
X22750000Y15855805D01*
X22421233Y15704572D01*
X22385342Y15762517D01*
X22332466Y15807038D01*
X22266986Y15835394D01*
X22193288Y15844846D01*
X22123699Y15836216D01*
X22063973Y15810325D01*
X22015479Y15768818D01*
X21979589Y15713339D01*
X21957397Y15645120D01*
X21950000Y15565394D01*
X21767352Y15565394D01*
X21767352Y16239366D01*
X21950000Y16239366D01*
X21950000Y15966490D01*
X22750000Y15966490D01*
X22750000Y16130873D01*
X22458493Y16130873D01*
X22458493Y16239366D01*
X22450548Y16318270D01*
X22426712Y16386216D01*
X22388493Y16441832D01*
X22337397Y16483750D01*
X22275342Y16510051D01*
X22204247Y16518818D01*
X22132466Y16510188D01*
X22070548Y16484298D01*
X22019863Y16442654D01*
X21981781Y16386764D01*
X21957945Y16318407D01*
X21950000Y16239366D01*
X21767352Y16239366D01*
X21767352Y16518818D01*
X21767352Y16792791D01*
X22932648Y16792791D01*
X22932648Y16518818D01*
X22932648Y15966490D01*
X22932648Y15307859D01*
G37*
G36*
X33034753Y15093288D02*
G01*
X33058863Y15019863D01*
X33058863Y14680137D01*
X33034205Y14607260D01*
X32960233Y14581507D01*
X32886260Y14607260D01*
X32861603Y14680137D01*
X32861603Y15019863D01*
X32885712Y15093288D01*
X32960233Y15118493D01*
X33034753Y15093288D01*
G37*
G36*
X34063429Y14256393D02*
G01*
X33880781Y14256393D01*
X33354753Y14256393D01*
X32960233Y14256393D01*
X32697219Y14256393D01*
X32514571Y14256393D01*
X32514571Y15019863D01*
X32697219Y15019863D01*
X32697219Y14680137D01*
X32705301Y14612329D01*
X32729548Y14553562D01*
X32768589Y14505342D01*
X32821055Y14469178D01*
X32885438Y14446575D01*
X32960233Y14439041D01*
X33035712Y14446575D01*
X33045447Y14450000D01*
X33354753Y14450000D01*
X33499411Y14450000D01*
X33499411Y14800685D01*
X33496671Y14888356D01*
X33493795Y14937397D01*
X33490644Y14985890D01*
X33484068Y15069178D01*
X33689000Y14450000D01*
X33880781Y14450000D01*
X33880781Y15250000D01*
X33736123Y15250000D01*
X33736123Y14921233D01*
X33738863Y14830822D01*
X33742014Y14777671D01*
X33745986Y14724521D01*
X33750096Y14674521D01*
X33753658Y14630822D01*
X33546534Y15250000D01*
X33354753Y15250000D01*
X33354753Y14450000D01*
X33045447Y14450000D01*
X33099959Y14469178D01*
X33152014Y14505342D01*
X33190918Y14553562D01*
X33215164Y14612329D01*
X33223247Y14680137D01*
X33223247Y15019863D01*
X33215164Y15087671D01*
X33190918Y15146438D01*
X33152014Y15194658D01*
X33099959Y15230822D01*
X33035712Y15253425D01*
X32960233Y15260959D01*
X32885438Y15253425D01*
X32821055Y15230822D01*
X32768589Y15194658D01*
X32729548Y15146438D01*
X32705301Y15087671D01*
X32697219Y15019863D01*
X32514571Y15019863D01*
X32514571Y15443607D01*
X32697219Y15443607D01*
X33880781Y15443607D01*
X34063429Y15443607D01*
X34063429Y14256393D01*
G37*
D12*
X28025000Y5135360D02*
X28025000Y5442642D01*
X28785000Y5135360D02*
X28785000Y5442642D01*
X21601359Y11495000D02*
X21908641Y11495000D01*
X21601359Y10735000D02*
X21908641Y10735000D01*
D10*
G36*
X32340129Y5292629D02*
G01*
X32271466Y5231986D01*
X32271466Y5298836D01*
X32340129Y5292629D01*
G37*
G36*
X33655197Y5292629D02*
G01*
X33586534Y5231986D01*
X33586534Y5298836D01*
X33655197Y5292629D01*
G37*
G36*
X34036580Y4586872D02*
G01*
X33853932Y4586872D01*
X33586534Y4586872D01*
X32830370Y4586872D01*
X32271466Y4586872D01*
X32004068Y4586872D01*
X31821420Y4586872D01*
X31821420Y4999658D01*
X32004068Y4999658D01*
X32012288Y4934041D01*
X32036945Y4877466D01*
X32076534Y4831438D01*
X32129548Y4797466D01*
X32194890Y4776507D01*
X32271466Y4769521D01*
X32348178Y4776507D01*
X32413932Y4797466D01*
X32467219Y4831438D01*
X32506534Y4877466D01*
X32530781Y4934041D01*
X32538863Y4999658D01*
X32538863Y5066507D01*
X32530887Y5133113D01*
X32506960Y5189734D01*
X32467082Y5236370D01*
X32413444Y5271073D01*
X32348239Y5291895D01*
X32340129Y5292629D01*
X32505986Y5439110D01*
X32505986Y5580479D01*
X32632014Y5580479D01*
X32830370Y4780479D01*
X33038589Y4780479D01*
X33092333Y4999658D01*
X33319137Y4999658D01*
X33327356Y4934041D01*
X33352014Y4877466D01*
X33391603Y4831438D01*
X33444616Y4797466D01*
X33509959Y4776507D01*
X33586534Y4769521D01*
X33663247Y4776507D01*
X33729000Y4797466D01*
X33782288Y4831438D01*
X33821603Y4877466D01*
X33845849Y4934041D01*
X33853932Y4999658D01*
X33853932Y5066507D01*
X33845956Y5133113D01*
X33822029Y5189734D01*
X33782151Y5236370D01*
X33728513Y5271073D01*
X33663307Y5291895D01*
X33655197Y5292629D01*
X33821055Y5439110D01*
X33821055Y5580479D01*
X33357493Y5580479D01*
X33357493Y5443493D01*
X33653384Y5443493D01*
X33492288Y5301027D01*
X33492288Y5159658D01*
X33586534Y5159658D01*
X33662699Y5135000D01*
X33689548Y5065411D01*
X33689548Y4999658D01*
X33663247Y4930616D01*
X33586534Y4906507D01*
X33510370Y4931164D01*
X33483521Y4999658D01*
X33319137Y4999658D01*
X33092333Y4999658D01*
X33234753Y5580479D01*
X33069274Y5580479D01*
X32961877Y5076370D01*
X32949822Y5008425D01*
X32938863Y4939384D01*
X32926260Y5008425D01*
X32912562Y5075274D01*
X32801877Y5580479D01*
X32632014Y5580479D01*
X32505986Y5580479D01*
X32042425Y5580479D01*
X32042425Y5443493D01*
X32338315Y5443493D01*
X32177219Y5301027D01*
X32177219Y5159658D01*
X32271466Y5159658D01*
X32347630Y5135000D01*
X32374479Y5065411D01*
X32374479Y4999658D01*
X32348178Y4930616D01*
X32271466Y4906507D01*
X32195301Y4931164D01*
X32168452Y4999658D01*
X32004068Y4999658D01*
X31821420Y4999658D01*
X31821420Y5763128D01*
X32004068Y5763128D01*
X33853932Y5763128D01*
X34036580Y5763128D01*
X34036580Y4586872D01*
G37*
G36*
X29905986Y15093288D02*
G01*
X29930096Y15019863D01*
X29930096Y14680137D01*
X29905438Y14607260D01*
X29831466Y14581507D01*
X29757493Y14607260D01*
X29732836Y14680137D01*
X29732836Y15019863D01*
X29756945Y15093288D01*
X29831466Y15118493D01*
X29905986Y15093288D01*
G37*
G36*
X31592196Y14256393D02*
G01*
X31409548Y14256393D01*
X30894479Y14256393D01*
X30236945Y14256393D01*
X29831466Y14256393D01*
X29568452Y14256393D01*
X29385804Y14256393D01*
X29385804Y15019863D01*
X29568452Y15019863D01*
X29568452Y14680137D01*
X29576534Y14612329D01*
X29600781Y14553562D01*
X29639822Y14505342D01*
X29692288Y14469178D01*
X29756671Y14446575D01*
X29831466Y14439041D01*
X29906945Y14446575D01*
X29916680Y14450000D01*
X30236945Y14450000D01*
X30401329Y14450000D01*
X30894479Y14450000D01*
X31058863Y14450000D01*
X31058863Y14765616D01*
X31381055Y14765616D01*
X31381055Y14919041D01*
X31056671Y14919041D01*
X31056671Y15096575D01*
X31409548Y15096575D01*
X31409548Y15250000D01*
X30894479Y15250000D01*
X30894479Y14450000D01*
X30401329Y14450000D01*
X30401329Y14765616D01*
X30723521Y14765616D01*
X30723521Y14919041D01*
X30399137Y14919041D01*
X30399137Y15096575D01*
X30752014Y15096575D01*
X30752014Y15250000D01*
X30236945Y15250000D01*
X30236945Y14450000D01*
X29916680Y14450000D01*
X29971192Y14469178D01*
X30023247Y14505342D01*
X30062151Y14553562D01*
X30086397Y14612329D01*
X30094479Y14680137D01*
X30094479Y15019863D01*
X30086397Y15087671D01*
X30062151Y15146438D01*
X30023247Y15194658D01*
X29971192Y15230822D01*
X29906945Y15253425D01*
X29831466Y15260959D01*
X29756671Y15253425D01*
X29692288Y15230822D01*
X29639822Y15194658D01*
X29600781Y15146438D01*
X29576534Y15087671D01*
X29568452Y15019863D01*
X29385804Y15019863D01*
X29385804Y15443607D01*
X29568452Y15443607D01*
X31409548Y15443607D01*
X31592196Y15443607D01*
X31592196Y14256393D01*
G37*
G36*
X32049429Y7367740D02*
G01*
X32076826Y7298151D01*
X32049429Y7228562D01*
X31973813Y7202808D01*
X31877374Y7202808D01*
X31877374Y7392397D01*
X31973813Y7392397D01*
X32049429Y7367740D01*
G37*
G36*
X33353676Y7369795D02*
G01*
X33390251Y7348014D01*
X33421484Y7270753D01*
X33390251Y7193493D01*
X33353676Y7171712D01*
X33306416Y7164452D01*
X33197922Y7164452D01*
X33197922Y7377055D01*
X33306416Y7377055D01*
X33353676Y7369795D01*
G37*
G36*
X32027237Y7066233D02*
G01*
X32063676Y7044452D01*
X32086689Y7010068D01*
X32094361Y6965000D01*
X32086689Y6920068D01*
X32063676Y6886096D01*
X32027237Y6864726D01*
X31979292Y6857603D01*
X31877374Y6857603D01*
X31877374Y7073493D01*
X31979292Y7073493D01*
X32027237Y7066233D01*
G37*
G36*
X33814178Y6542352D02*
G01*
X33585868Y6542352D01*
X33033539Y6542352D01*
X32550251Y6542352D01*
X31718470Y6542352D01*
X31535822Y6542352D01*
X31535822Y6725000D01*
X31718470Y6725000D01*
X31985868Y6725000D01*
X32064498Y6732123D01*
X32131621Y6753493D01*
X32186005Y6787877D01*
X32226416Y6834041D01*
X32251484Y6890616D01*
X32259840Y6956233D01*
X32252991Y7012671D01*
X32232443Y7059247D01*
X32200799Y7095685D01*
X32160662Y7121712D01*
X32113950Y7137055D01*
X32062580Y7141438D01*
X32062580Y7144726D01*
X32109018Y7150205D01*
X32151895Y7166644D01*
X32188881Y7192945D01*
X32217648Y7228014D01*
X32236142Y7270753D01*
X32242306Y7320068D01*
X32234269Y7378577D01*
X32210160Y7428440D01*
X32169977Y7469658D01*
X32116279Y7500403D01*
X32051621Y7518851D01*
X31976005Y7525000D01*
X32320114Y7525000D01*
X32550251Y7009932D01*
X32550251Y6725000D01*
X32714635Y6725000D01*
X33033539Y6725000D01*
X33197922Y6725000D01*
X33197922Y7016507D01*
X33306416Y7016507D01*
X33385320Y7024452D01*
X33453265Y7048288D01*
X33508881Y7086507D01*
X33550799Y7137603D01*
X33577100Y7199658D01*
X33585868Y7270753D01*
X33577237Y7342534D01*
X33551347Y7404452D01*
X33509703Y7455137D01*
X33453813Y7493219D01*
X33385457Y7517055D01*
X33306416Y7525000D01*
X33033539Y7525000D01*
X33033539Y6725000D01*
X32714635Y6725000D01*
X32714635Y7009932D01*
X32944772Y7525000D01*
X32773813Y7525000D01*
X32676279Y7283904D01*
X32651621Y7207192D01*
X32635731Y7141438D01*
X32619840Y7207192D01*
X32592991Y7283904D01*
X32492169Y7525000D01*
X32320114Y7525000D01*
X31976005Y7525000D01*
X31718470Y7525000D01*
X31718470Y6725000D01*
X31535822Y6725000D01*
X31535822Y7707648D01*
X31718470Y7707648D01*
X33585868Y7707648D01*
X33814178Y7707648D01*
X33814178Y6542352D01*
G37*
G36*
X26752055Y8427438D02*
G01*
X26744795Y8380178D01*
X26723014Y8343603D01*
X26645753Y8312369D01*
X26568492Y8343603D01*
X26546711Y8380178D01*
X26539452Y8427438D01*
X26539452Y8535932D01*
X26752055Y8535932D01*
X26752055Y8427438D01*
G37*
G36*
X26743289Y7203329D02*
G01*
X26768493Y7128808D01*
X26743289Y7054288D01*
X26669863Y7030178D01*
X26330137Y7030178D01*
X26257259Y7054836D01*
X26231507Y7128808D01*
X26257259Y7202781D01*
X26330137Y7227438D01*
X26669863Y7227438D01*
X26743289Y7203329D01*
G37*
G36*
X26757534Y7786341D02*
G01*
X26750411Y7737712D01*
X26729041Y7701412D01*
X26694794Y7678808D01*
X26649041Y7671274D01*
X26572329Y7701411D01*
X26551781Y7737712D01*
X26544932Y7786342D01*
X26544932Y7880589D01*
X26757534Y7880589D01*
X26757534Y7786341D01*
G37*
G36*
X27093607Y9342507D02*
G01*
X27093607Y6199493D01*
X27093607Y6016846D01*
X25906393Y6016846D01*
X25906393Y6199493D01*
X25906393Y6465795D01*
X26089041Y6465795D01*
X26096575Y6390863D01*
X26119178Y6326068D01*
X26155342Y6272918D01*
X26203562Y6232918D01*
X26262329Y6207849D01*
X26330137Y6199493D01*
X26538356Y6199493D01*
X26538356Y6482233D01*
X26399178Y6482233D01*
X26399178Y6363877D01*
X26330137Y6363877D01*
X26257260Y6390726D01*
X26231507Y6466890D01*
X26257260Y6543055D01*
X26330137Y6569904D01*
X26669863Y6569904D01*
X26743288Y6543055D01*
X26768493Y6466890D01*
X26743288Y6390725D01*
X26669863Y6363877D01*
X26669863Y6199493D01*
X26738356Y6207849D01*
X26796986Y6232918D01*
X26844795Y6272918D01*
X26880822Y6326068D01*
X26903425Y6390863D01*
X26910959Y6465795D01*
X26903426Y6541685D01*
X26880822Y6607164D01*
X26844795Y6660726D01*
X26796986Y6700863D01*
X26738356Y6725932D01*
X26669863Y6734288D01*
X26330137Y6734288D01*
X26262329Y6725932D01*
X26203562Y6700863D01*
X26155342Y6660726D01*
X26119178Y6607164D01*
X26096574Y6541685D01*
X26089041Y6465795D01*
X25906393Y6465795D01*
X25906393Y7128808D01*
X26089041Y7128808D01*
X26096574Y7053329D01*
X26119178Y6989082D01*
X26155342Y6937027D01*
X26203562Y6898123D01*
X26262329Y6873877D01*
X26330137Y6865795D01*
X26669863Y6865795D01*
X26737671Y6873877D01*
X26796438Y6898123D01*
X26844658Y6937027D01*
X26880822Y6989082D01*
X26903426Y7053329D01*
X26910959Y7128808D01*
X26903425Y7203603D01*
X26880822Y7267986D01*
X26844658Y7320451D01*
X26796438Y7359493D01*
X26737671Y7383740D01*
X26669863Y7391822D01*
X26330137Y7391822D01*
X26262329Y7383740D01*
X26203562Y7359493D01*
X26155342Y7320451D01*
X26119178Y7267986D01*
X26096575Y7203603D01*
X26089041Y7128808D01*
X25906393Y7128808D01*
X25906393Y7880589D01*
X26100000Y7880589D01*
X26402466Y7880589D01*
X26402466Y7803878D01*
X26100000Y7674562D01*
X26100000Y7495932D01*
X26428767Y7647164D01*
X26464658Y7589219D01*
X26517533Y7544699D01*
X26583014Y7516342D01*
X26656712Y7506890D01*
X26726301Y7515521D01*
X26786028Y7541411D01*
X26834521Y7582918D01*
X26870412Y7638397D01*
X26892603Y7706616D01*
X26900000Y7786342D01*
X26900000Y8043877D01*
X26100000Y8043877D01*
X26100000Y7880589D01*
X25906393Y7880589D01*
X25906393Y8043877D01*
X25906393Y8535932D01*
X26100000Y8535932D01*
X26391506Y8535932D01*
X26391507Y8427438D01*
X26399452Y8348534D01*
X26423288Y8280589D01*
X26461507Y8224973D01*
X26512603Y8183055D01*
X26574658Y8156753D01*
X26645753Y8147985D01*
X26717534Y8156616D01*
X26779452Y8182507D01*
X26830137Y8224151D01*
X26868219Y8280041D01*
X26892055Y8348397D01*
X26900000Y8427438D01*
X26900000Y8700315D01*
X26100000Y8700315D01*
X26100000Y8535932D01*
X25906393Y8535932D01*
X25906393Y8700314D01*
X25906393Y8849356D01*
X26100000Y8849356D01*
X26240274Y8849356D01*
X26240274Y9181411D01*
X26439726Y9181411D01*
X26439726Y8887712D01*
X26580000Y8887712D01*
X26580000Y9181411D01*
X26759726Y9181411D01*
X26759726Y8849356D01*
X26900000Y8849356D01*
X26900000Y9342507D01*
X26100000Y9342507D01*
X26100000Y8849356D01*
X25906393Y8849356D01*
X25906393Y9342507D01*
X25906393Y9525154D01*
X27093607Y9525154D01*
X27093607Y9342507D01*
G37*
G36*
X7677808Y19222740D02*
G01*
X7705205Y19153151D01*
X7677808Y19083562D01*
X7602192Y19057808D01*
X7505753Y19057808D01*
X7505753Y19247397D01*
X7602192Y19247397D01*
X7677808Y19222740D01*
G37*
G36*
X7655616Y18921233D02*
G01*
X7692055Y18899452D01*
X7715068Y18865068D01*
X7722740Y18820000D01*
X7715068Y18775068D01*
X7692055Y18741096D01*
X7655616Y18719726D01*
X7607671Y18712603D01*
X7505753Y18712603D01*
X7505753Y18928493D01*
X7607671Y18928493D01*
X7655616Y18921233D01*
G37*
G36*
X9378265Y18386393D02*
G01*
X9195616Y18386393D01*
X8918356Y18386393D01*
X8260822Y18386393D01*
X7346849Y18386393D01*
X6842740Y18386393D01*
X6644384Y18386393D01*
X6461735Y18386393D01*
X6461735Y19380000D01*
X6644384Y19380000D01*
X6842740Y18580000D01*
X7050959Y18580000D01*
X7346849Y18580000D01*
X7614247Y18580000D01*
X7692877Y18587123D01*
X7760000Y18608493D01*
X7814384Y18642877D01*
X7854795Y18689041D01*
X7879863Y18745616D01*
X7888219Y18811233D01*
X7887820Y18814521D01*
X7997808Y18814521D01*
X8005662Y18743896D01*
X8029224Y18683988D01*
X8068493Y18634795D01*
X8121279Y18598265D01*
X8185388Y18576347D01*
X8260822Y18569041D01*
X8336256Y18576408D01*
X8400365Y18598508D01*
X8453151Y18635342D01*
X8492420Y18684718D01*
X8515982Y18744444D01*
X8522116Y18799178D01*
X8641096Y18799178D01*
X8649589Y18733699D01*
X8675068Y18677534D01*
X8716164Y18631781D01*
X8771507Y18597534D01*
X8839452Y18576164D01*
X8918356Y18569041D01*
X8997123Y18576438D01*
X9064658Y18598630D01*
X9119726Y18634247D01*
X9161096Y18681918D01*
X9186986Y18739726D01*
X9195616Y18805753D01*
X9181918Y18894658D01*
X9140822Y18966301D01*
X9098569Y19003988D01*
X9044871Y19033029D01*
X8979726Y19053425D01*
X8894247Y19073151D01*
X8836712Y19106575D01*
X8816438Y19166301D01*
X8841644Y19227123D01*
X8913973Y19248493D01*
X8991233Y19226575D01*
X9018082Y19166301D01*
X9182466Y19166301D01*
X9174490Y19230289D01*
X9150563Y19284901D01*
X9110685Y19330137D01*
X9057169Y19363927D01*
X8992329Y19384201D01*
X8916164Y19390959D01*
X8840548Y19383836D01*
X8775890Y19362466D01*
X8723425Y19328082D01*
X8684384Y19281918D01*
X8660137Y19225342D01*
X8652055Y19159726D01*
X8666164Y19072740D01*
X8708493Y19000274D01*
X8751172Y18961370D01*
X8803957Y18931598D01*
X8866849Y18910959D01*
X8947945Y18892329D01*
X9009315Y18858356D01*
X9031233Y18798082D01*
X9002192Y18734521D01*
X8921644Y18711507D01*
X8873562Y18717397D01*
X8836712Y18735068D01*
X8805479Y18799178D01*
X8641096Y18799178D01*
X8522116Y18799178D01*
X8523836Y18814521D01*
X8523836Y19380000D01*
X8359452Y19380000D01*
X8359452Y18815616D01*
X8333151Y18738356D01*
X8260822Y18711507D01*
X8187945Y18738356D01*
X8162192Y18815616D01*
X8162192Y19380000D01*
X7997808Y19380000D01*
X7997808Y18814521D01*
X7887820Y18814521D01*
X7881370Y18867671D01*
X7860822Y18914247D01*
X7829178Y18950685D01*
X7789041Y18976712D01*
X7742329Y18992055D01*
X7690959Y18996438D01*
X7690959Y18999726D01*
X7737397Y19005205D01*
X7780274Y19021644D01*
X7817260Y19047945D01*
X7846027Y19083014D01*
X7864521Y19125753D01*
X7870685Y19175068D01*
X7862648Y19233577D01*
X7838539Y19283440D01*
X7798356Y19324658D01*
X7744658Y19355403D01*
X7680000Y19373851D01*
X7604384Y19380000D01*
X7346849Y19380000D01*
X7346849Y18580000D01*
X7050959Y18580000D01*
X7247123Y19380000D01*
X7081644Y19380000D01*
X6974247Y18875890D01*
X6962192Y18807945D01*
X6951233Y18738904D01*
X6938630Y18807945D01*
X6924932Y18874795D01*
X6814247Y19380000D01*
X6644384Y19380000D01*
X6461735Y19380000D01*
X6461735Y19573607D01*
X6644384Y19573607D01*
X9195616Y19573607D01*
X9378265Y19573607D01*
X9378265Y18386393D01*
G37*
D12*
X13225000Y14459000D02*
X11275000Y14459000D01*
X13225000Y14459000D02*
X15175000Y14459000D01*
X13225000Y4339000D02*
X11275000Y4339000D01*
X13225000Y4339000D02*
X15175000Y4339000D01*
X10525000Y14404000D02*
X10285000Y14740000D01*
X10765000Y14740000D01*
X10525000Y14404000D01*
G36*
X10525000Y14404000D02*
G01*
X10285000Y14740000D01*
X10765000Y14740000D01*
X10525000Y14404000D01*
G37*
X4981359Y18035000D02*
X5288641Y18035000D01*
X4981359Y17275000D02*
X5288641Y17275000D01*
X18660000Y7160000D02*
X18660000Y6200000D01*
X18660000Y7160000D02*
X20860000Y7160000D01*
X18660000Y6200000D02*
X20860000Y6200000D01*
X20860000Y7160000D02*
X20860000Y6200000D01*
X27011575Y5100939D02*
X27011575Y5408221D01*
X27771575Y5100939D02*
X27771575Y5408221D01*
D10*
G36*
X38737363Y16040411D02*
G01*
X38773664Y16019041D01*
X38796267Y15984795D01*
X38803801Y15939041D01*
X38773664Y15862329D01*
X38737363Y15841781D01*
X38688733Y15834932D01*
X38594486Y15834932D01*
X38594486Y16047534D01*
X38688733Y16047534D01*
X38737363Y16040411D01*
G37*
G36*
X41969098Y15196393D02*
G01*
X41603801Y15196393D01*
X41236678Y15196393D01*
X40420240Y15196393D01*
X40003801Y15196393D01*
X39105171Y15196393D01*
X38431199Y15196393D01*
X38065902Y15196393D01*
X38065902Y15390000D01*
X38431199Y15390000D01*
X38594486Y15390000D01*
X38594486Y15692466D01*
X38671199Y15692466D01*
X38800514Y15390000D01*
X38979144Y15390000D01*
X39105171Y15390000D01*
X39598322Y15390000D01*
X39598322Y15530274D01*
X39266267Y15530274D01*
X39266267Y15609178D01*
X39726541Y15609178D01*
X39735034Y15543699D01*
X39760514Y15487534D01*
X39801610Y15441781D01*
X39856952Y15407534D01*
X39924897Y15386164D01*
X40003801Y15379041D01*
X40082568Y15386438D01*
X40093408Y15390000D01*
X40420240Y15390000D01*
X40913390Y15390000D01*
X40913390Y15530274D01*
X40581336Y15530274D01*
X40581336Y15729726D01*
X40875034Y15729726D01*
X40875034Y15870000D01*
X40581336Y15870000D01*
X40581336Y16036575D01*
X41033938Y16036575D01*
X41236678Y16036575D01*
X41236678Y15390000D01*
X41401062Y15390000D01*
X41401062Y16036575D01*
X41603801Y16036575D01*
X41603801Y16190000D01*
X41033938Y16190000D01*
X41033938Y16036575D01*
X40581336Y16036575D01*
X40581336Y16049726D01*
X40913390Y16049726D01*
X40913390Y16190000D01*
X40420240Y16190000D01*
X40420240Y15390000D01*
X40093408Y15390000D01*
X40150103Y15408630D01*
X40205171Y15444247D01*
X40246541Y15491918D01*
X40272432Y15549726D01*
X40281062Y15615753D01*
X40267363Y15704658D01*
X40226267Y15776301D01*
X40184014Y15813988D01*
X40130316Y15843029D01*
X40065171Y15863425D01*
X39979692Y15883151D01*
X39922158Y15916575D01*
X39901884Y15976301D01*
X39927089Y16037123D01*
X39999418Y16058493D01*
X40076678Y16036575D01*
X40103527Y15976301D01*
X40267911Y15976301D01*
X40259935Y16040289D01*
X40236008Y16094901D01*
X40196130Y16140137D01*
X40142614Y16173927D01*
X40077774Y16194201D01*
X40001610Y16200959D01*
X39925993Y16193836D01*
X39861336Y16172466D01*
X39808870Y16138082D01*
X39769829Y16091918D01*
X39745582Y16035342D01*
X39737500Y15969726D01*
X39751610Y15882740D01*
X39793938Y15810274D01*
X39836617Y15771370D01*
X39889403Y15741598D01*
X39952295Y15720959D01*
X40033390Y15702329D01*
X40094760Y15668356D01*
X40116678Y15608082D01*
X40087637Y15544521D01*
X40007089Y15521507D01*
X39959007Y15527397D01*
X39922158Y15545068D01*
X39890925Y15609178D01*
X39726541Y15609178D01*
X39266267Y15609178D01*
X39266267Y15729726D01*
X39559966Y15729726D01*
X39559966Y15870000D01*
X39266267Y15870000D01*
X39266267Y16049726D01*
X39598322Y16049726D01*
X39598322Y16190000D01*
X39105171Y16190000D01*
X39105171Y15390000D01*
X38979144Y15390000D01*
X38827911Y15718767D01*
X38885856Y15754658D01*
X38930377Y15807534D01*
X38958733Y15873014D01*
X38968185Y15946712D01*
X38959555Y16016301D01*
X38933664Y16076027D01*
X38892158Y16124521D01*
X38836678Y16160411D01*
X38768459Y16182603D01*
X38688733Y16190000D01*
X38431199Y16190000D01*
X38431199Y15390000D01*
X38065902Y15390000D01*
X38065902Y16383607D01*
X38431199Y16383607D01*
X41603801Y16383607D01*
X41969098Y16383607D01*
X41969098Y15196393D01*
G37*
D12*
X24535000Y5879000D02*
X23735000Y5879000D01*
X24535000Y5879000D02*
X25335000Y5879000D01*
X24535000Y2759000D02*
X23735000Y2759000D01*
X24535000Y2759000D02*
X25335000Y2759000D01*
X23235000Y5829000D02*
X22995000Y6165000D01*
X23475000Y6165000D01*
X23235000Y5829000D01*
G36*
X23235000Y5829000D02*
G01*
X22995000Y6165000D01*
X23475000Y6165000D01*
X23235000Y5829000D01*
G37*
X23950000Y17184999D02*
X23950000Y18985001D01*
X24400000Y19435000D02*
X25100000Y19435000D01*
X25100000Y16735000D02*
X24400000Y16735000D01*
X25550000Y18985001D02*
X25550000Y17184999D01*
X23950000Y18985001D02*
G75*
G02*
X24400000Y19435000I450000J-1D01*
G01*
X24400000Y16735000D02*
G75*
G02*
X23950000Y17184999I0J450000D01*
G01*
X25100000Y19435000D02*
G75*
G02*
X25550000Y18985001I0J-450000D01*
G01*
X25550000Y17184999D02*
G75*
G02*
X25100000Y16735000I-450000J1D01*
G01*
D10*
G36*
X27774011Y1775000D02*
G01*
X27378272Y1181393D01*
X27195624Y1181393D01*
X26707953Y1181393D01*
X26033980Y1181393D01*
X25617542Y1181393D01*
X24856994Y1181393D01*
X24658638Y1181393D01*
X24475989Y1181393D01*
X24475989Y2175000D01*
X24658638Y2175000D01*
X24856994Y1375000D01*
X25065213Y1375000D01*
X25118957Y1594178D01*
X25340282Y1594178D01*
X25348775Y1528699D01*
X25374254Y1472534D01*
X25415350Y1426781D01*
X25470693Y1392534D01*
X25538638Y1371164D01*
X25617542Y1364041D01*
X25696309Y1371438D01*
X25707149Y1375000D01*
X26033980Y1375000D01*
X26527131Y1375000D01*
X26707953Y1375000D01*
X27195624Y1375000D01*
X27195624Y1528425D01*
X26872336Y1528425D01*
X26872336Y2175000D01*
X26707953Y2175000D01*
X26707953Y1375000D01*
X26527131Y1375000D01*
X26527131Y1515274D01*
X26195076Y1515274D01*
X26195076Y1714726D01*
X26488775Y1714726D01*
X26488775Y1855000D01*
X26195076Y1855000D01*
X26195076Y2034726D01*
X26527131Y2034726D01*
X26527131Y2175000D01*
X26033980Y2175000D01*
X26033980Y1375000D01*
X25707149Y1375000D01*
X25763843Y1393630D01*
X25818912Y1429247D01*
X25860282Y1476918D01*
X25886172Y1534726D01*
X25894802Y1600753D01*
X25881104Y1689658D01*
X25840008Y1761301D01*
X25797755Y1798988D01*
X25744056Y1828029D01*
X25678912Y1848425D01*
X25593432Y1868151D01*
X25535898Y1901575D01*
X25515624Y1961301D01*
X25540830Y2022123D01*
X25613158Y2043493D01*
X25690419Y2021575D01*
X25717268Y1961301D01*
X25881651Y1961301D01*
X25873676Y2025289D01*
X25849749Y2079901D01*
X25809871Y2125137D01*
X25756355Y2158927D01*
X25691514Y2179201D01*
X25615350Y2185959D01*
X25539734Y2178836D01*
X25475076Y2157466D01*
X25422610Y2123082D01*
X25383569Y2076918D01*
X25359323Y2020342D01*
X25351240Y1954726D01*
X25365350Y1867740D01*
X25407679Y1795274D01*
X25450358Y1756370D01*
X25503143Y1726598D01*
X25566035Y1705959D01*
X25647131Y1687329D01*
X25708501Y1653356D01*
X25730419Y1593082D01*
X25701377Y1529521D01*
X25620830Y1506507D01*
X25572747Y1512397D01*
X25535898Y1530068D01*
X25504665Y1594178D01*
X25340282Y1594178D01*
X25118957Y1594178D01*
X25261377Y2175000D01*
X25095898Y2175000D01*
X24988501Y1670890D01*
X24976446Y1602945D01*
X24965487Y1533904D01*
X24952884Y1602945D01*
X24939186Y1669795D01*
X24828501Y2175000D01*
X24658638Y2175000D01*
X24475989Y2175000D01*
X24475989Y2368607D01*
X24658638Y2368607D01*
X27195624Y2368607D01*
X27378272Y2368607D01*
X27774011Y1775000D01*
G37*
D12*
X35763748Y6320000D02*
X36286252Y6320000D01*
X35763748Y4850000D02*
X36286252Y4850000D01*
X10582836Y17665000D02*
X10367164Y17665000D01*
X10582836Y16945000D02*
X10367164Y16945000D01*
X11230000Y3840000D02*
X12030000Y3840000D01*
X11230000Y3440000D02*
X11230000Y3840000D01*
X11230000Y1440000D02*
X11230000Y3440000D01*
X12030000Y1440000D02*
X11230000Y1440000D01*
X13830000Y3840000D02*
X13830000Y4240000D01*
X13830000Y3840000D02*
X14830000Y3840000D01*
X14830000Y3440000D02*
X14830000Y3840000D01*
X14830000Y3440000D02*
X14830000Y1440000D01*
X14830000Y1440000D02*
X13830000Y1440000D01*
X15030000Y3440000D02*
X15030000Y3840000D01*
X15030000Y1440000D02*
X15030000Y3440000D01*
X17225000Y14327641D02*
X17225000Y14020359D01*
X17985000Y14327641D02*
X17985000Y14020359D01*
X22990000Y9160001D02*
X24290000Y9160001D01*
X24640000Y7360000D02*
X22990000Y7359999D01*
X36178641Y7780000D02*
X35871359Y7780000D01*
X36178641Y7020000D02*
X35871359Y7020000D01*
X10963748Y16430000D02*
X11486252Y16430000D01*
X10963748Y14960000D02*
X11486252Y14960000D01*
D10*
G36*
X39105473Y4442740D02*
G01*
X39132870Y4373151D01*
X39105473Y4303562D01*
X39029856Y4277808D01*
X38933418Y4277808D01*
X38933418Y4467397D01*
X39029856Y4467397D01*
X39105473Y4442740D01*
G37*
G36*
X39763007Y4443288D02*
G01*
X39787116Y4369863D01*
X39787116Y4030137D01*
X39762459Y3957260D01*
X39688486Y3931507D01*
X39614514Y3957260D01*
X39589856Y4030137D01*
X39589856Y4369863D01*
X39613966Y4443288D01*
X39688486Y4468493D01*
X39763007Y4443288D01*
G37*
G36*
X40420541Y4443288D02*
G01*
X40444651Y4369863D01*
X40444651Y4030137D01*
X40419993Y3957260D01*
X40346021Y3931507D01*
X40272048Y3957260D01*
X40247390Y4030137D01*
X40247390Y4369863D01*
X40271500Y4443288D01*
X40346021Y4468493D01*
X40420541Y4443288D01*
G37*
G36*
X39083281Y4141233D02*
G01*
X39119719Y4119452D01*
X39142733Y4085068D01*
X39150404Y4040000D01*
X39142733Y3995068D01*
X39119719Y3961096D01*
X39083281Y3939726D01*
X39035336Y3932603D01*
X38933418Y3932603D01*
X38933418Y4148493D01*
X39035336Y4148493D01*
X39083281Y4141233D01*
G37*
G36*
X42019080Y3606393D02*
G01*
X41288486Y3606393D01*
X40921363Y3606393D01*
X40346021Y3606393D01*
X39688486Y3606393D01*
X38774514Y3606393D01*
X38043920Y3606393D01*
X38043920Y3800000D01*
X38774514Y3800000D01*
X39041911Y3800000D01*
X39120541Y3807123D01*
X39187664Y3828493D01*
X39242048Y3862877D01*
X39282459Y3909041D01*
X39307527Y3965616D01*
X39315884Y4031233D01*
X39309034Y4087671D01*
X39288486Y4134247D01*
X39256842Y4170685D01*
X39216705Y4196712D01*
X39169993Y4212055D01*
X39118623Y4216438D01*
X39118623Y4219726D01*
X39165062Y4225205D01*
X39207938Y4241644D01*
X39244925Y4267945D01*
X39273692Y4303014D01*
X39292185Y4345753D01*
X39295199Y4369863D01*
X39425473Y4369863D01*
X39425473Y4030137D01*
X39433555Y3962329D01*
X39457801Y3903562D01*
X39496842Y3855342D01*
X39549308Y3819178D01*
X39613692Y3796575D01*
X39688486Y3789041D01*
X39763966Y3796575D01*
X39828212Y3819178D01*
X39880267Y3855342D01*
X39919171Y3903562D01*
X39943418Y3962329D01*
X39951500Y4030137D01*
X39951500Y4369863D01*
X40083007Y4369863D01*
X40083007Y4030137D01*
X40091089Y3962329D01*
X40115336Y3903562D01*
X40154377Y3855342D01*
X40206842Y3819178D01*
X40271226Y3796575D01*
X40346021Y3789041D01*
X40421500Y3796575D01*
X40485747Y3819178D01*
X40537801Y3855342D01*
X40576705Y3903562D01*
X40600952Y3962329D01*
X40609034Y4030137D01*
X40609034Y4369863D01*
X40600952Y4437671D01*
X40597278Y4446575D01*
X40718623Y4446575D01*
X40921363Y4446575D01*
X40921363Y3800000D01*
X41085747Y3800000D01*
X41085747Y4446575D01*
X41288486Y4446575D01*
X41288486Y4600000D01*
X40718623Y4600000D01*
X40718623Y4446575D01*
X40597278Y4446575D01*
X40576705Y4496438D01*
X40537801Y4544658D01*
X40485747Y4580822D01*
X40421500Y4603425D01*
X40346021Y4610959D01*
X40271226Y4603425D01*
X40206842Y4580822D01*
X40154377Y4544658D01*
X40115336Y4496438D01*
X40091089Y4437671D01*
X40083007Y4369863D01*
X39951500Y4369863D01*
X39943418Y4437671D01*
X39919171Y4496438D01*
X39880267Y4544658D01*
X39828212Y4580822D01*
X39763966Y4603425D01*
X39688486Y4610959D01*
X39613692Y4603425D01*
X39549308Y4580822D01*
X39496842Y4544658D01*
X39457801Y4496438D01*
X39433555Y4437671D01*
X39425473Y4369863D01*
X39295199Y4369863D01*
X39298349Y4395068D01*
X39290313Y4453577D01*
X39266203Y4503440D01*
X39226021Y4544658D01*
X39172322Y4575403D01*
X39107664Y4593851D01*
X39032048Y4600000D01*
X38774514Y4600000D01*
X38774514Y3800000D01*
X38043920Y3800000D01*
X38043920Y4793607D01*
X38774514Y4793607D01*
X41288486Y4793607D01*
X42019080Y4793607D01*
X42019080Y3606393D01*
G37*
D12*
X22027164Y1904000D02*
X22242836Y1904000D01*
X22027164Y1184000D02*
X22242836Y1184000D01*
D10*
G36*
X14147842Y16144795D02*
G01*
X14184418Y16123014D01*
X14215651Y16045753D01*
X14184418Y15968493D01*
X14147842Y15946712D01*
X14100582Y15939452D01*
X13992089Y15939452D01*
X13992089Y16152055D01*
X14100582Y16152055D01*
X14147842Y16144795D01*
G37*
G36*
X16105377Y16150411D02*
G01*
X16141678Y16129041D01*
X16164281Y16094795D01*
X16171815Y16049041D01*
X16141678Y15972329D01*
X16105377Y15951781D01*
X16056747Y15944932D01*
X15962500Y15944932D01*
X15962500Y16157534D01*
X16056747Y16157534D01*
X16105377Y16150411D01*
G37*
G36*
X17342591Y15306393D02*
G01*
X16977295Y15306393D01*
X16489623Y15306393D01*
X15799212Y15306393D01*
X15317021Y15306393D01*
X14747158Y15306393D01*
X13827705Y15306393D01*
X13462409Y15306393D01*
X13462409Y15500000D01*
X13827705Y15500000D01*
X13992089Y15500000D01*
X13992089Y15791507D01*
X14100582Y15791507D01*
X14179486Y15799452D01*
X14247432Y15823288D01*
X14303048Y15861507D01*
X14344966Y15912603D01*
X14371267Y15974658D01*
X14380034Y16045753D01*
X14377135Y16069863D01*
X14478664Y16069863D01*
X14478664Y15730137D01*
X14487021Y15662329D01*
X14512089Y15603562D01*
X14552226Y15555342D01*
X14605788Y15519178D01*
X14671267Y15496575D01*
X14747158Y15489041D01*
X14822089Y15496575D01*
X14886884Y15519178D01*
X14940034Y15555342D01*
X14980034Y15603562D01*
X15005103Y15662329D01*
X15013459Y15730137D01*
X14849075Y15730137D01*
X14822226Y15657260D01*
X14746062Y15631507D01*
X14669897Y15657260D01*
X14643048Y15730137D01*
X14643048Y16069863D01*
X14669897Y16143288D01*
X14746062Y16168493D01*
X14822226Y16143288D01*
X14849075Y16069863D01*
X15013459Y16069863D01*
X15005103Y16138356D01*
X15001589Y16146575D01*
X15114281Y16146575D01*
X15317021Y16146575D01*
X15317021Y15500000D01*
X15481404Y15500000D01*
X15799212Y15500000D01*
X15962500Y15500000D01*
X15962500Y15802466D01*
X16039212Y15802466D01*
X16168527Y15500000D01*
X16347158Y15500000D01*
X16489623Y15500000D01*
X16977295Y15500000D01*
X16977295Y15653425D01*
X16654007Y15653425D01*
X16654007Y16300000D01*
X16489623Y16300000D01*
X16489623Y15500000D01*
X16347158Y15500000D01*
X16195925Y15828767D01*
X16253870Y15864658D01*
X16298390Y15917534D01*
X16326747Y15983014D01*
X16336199Y16056712D01*
X16327568Y16126301D01*
X16301678Y16186027D01*
X16260171Y16234521D01*
X16204692Y16270411D01*
X16136473Y16292603D01*
X16056747Y16300000D01*
X15799212Y16300000D01*
X15799212Y15500000D01*
X15481404Y15500000D01*
X15481404Y16146575D01*
X15684144Y16146575D01*
X15684144Y16300000D01*
X15114281Y16300000D01*
X15114281Y16146575D01*
X15001589Y16146575D01*
X14980034Y16196986D01*
X14940034Y16244795D01*
X14886884Y16280822D01*
X14822089Y16303425D01*
X14747158Y16310959D01*
X14671267Y16303425D01*
X14605788Y16280822D01*
X14552226Y16244795D01*
X14512089Y16196986D01*
X14487021Y16138356D01*
X14478664Y16069863D01*
X14377135Y16069863D01*
X14371404Y16117534D01*
X14345514Y16179452D01*
X14303870Y16230137D01*
X14247979Y16268219D01*
X14179623Y16292055D01*
X14100582Y16300000D01*
X13827705Y16300000D01*
X13827705Y15500000D01*
X13462409Y15500000D01*
X13462409Y16493607D01*
X13827705Y16493607D01*
X16977295Y16493607D01*
X17342591Y16493607D01*
X17342591Y15306393D01*
G37*
D12*
X8095000Y15431359D02*
X8095000Y15738641D01*
X8855000Y15431359D02*
X8855000Y15738641D01*
X18465000Y13793000D02*
X20115000Y13793000D01*
X20115000Y11993000D02*
X18815000Y11993000D01*
X17530000Y9150000D02*
X17530000Y7680000D01*
X17530000Y7680000D02*
X19815000Y7680000D01*
X19815000Y9150000D02*
X17530000Y9150000D01*
D10*
G36*
X35015627Y9185712D02*
G01*
X35056466Y9161671D01*
X35081894Y9123144D01*
X35090370Y9071671D01*
X35056466Y8985370D01*
X35015627Y8962253D01*
X34960918Y8954548D01*
X34854890Y8954548D01*
X34854890Y9193726D01*
X34960918Y9193726D01*
X35015627Y9185712D01*
G37*
G36*
X35791260Y9176466D02*
G01*
X35823932Y9095096D01*
X35823932Y8712904D01*
X35791260Y8631534D01*
X35701877Y8601945D01*
X35700644Y8602345D01*
X35610644Y8631534D01*
X35577356Y8712904D01*
X35577356Y8907699D01*
X35614342Y8907699D01*
X35638384Y8843589D01*
X35700644Y8818932D01*
X35763521Y8843589D01*
X35786945Y8907699D01*
X35763521Y8970575D01*
X35700644Y8994000D01*
X35638384Y8970575D01*
X35614342Y8907699D01*
X35577356Y8907699D01*
X35577356Y9095096D01*
X35610027Y9176466D01*
X35700644Y9206055D01*
X35791260Y9176466D01*
G37*
G36*
X37662973Y8236192D02*
G01*
X37457493Y8236192D01*
X37272562Y8236192D01*
X36440370Y8236192D01*
X35701877Y8236192D01*
X34671192Y8236192D01*
X34465712Y8236192D01*
X34400370Y8454000D01*
X34671192Y8454000D01*
X34854890Y8454000D01*
X34854890Y8794274D01*
X34941192Y8794274D01*
X35086671Y8454000D01*
X35287630Y8454000D01*
X35117493Y8823863D01*
X35182682Y8864240D01*
X35232767Y8923726D01*
X35264668Y8997390D01*
X35275301Y9080301D01*
X35273466Y9095096D01*
X35404753Y9095096D01*
X35404753Y8712904D01*
X35413846Y8636620D01*
X35441123Y8570507D01*
X35485045Y8516260D01*
X35544068Y8475575D01*
X35616808Y8450147D01*
X35701877Y8441671D01*
X35785866Y8450147D01*
X35857836Y8475575D01*
X35916397Y8516260D01*
X35956683Y8566192D01*
X36315849Y8566192D01*
X36324325Y8515182D01*
X36349753Y8475575D01*
X36389360Y8450147D01*
X36440370Y8441671D01*
X36492151Y8450147D01*
X36531603Y8475575D01*
X36556568Y8515182D01*
X36564890Y8566192D01*
X36556568Y8617973D01*
X36531603Y8657425D01*
X36492151Y8682390D01*
X36440370Y8690712D01*
X36389360Y8682390D01*
X36349753Y8657425D01*
X36324325Y8617973D01*
X36315849Y8566192D01*
X35956683Y8566192D01*
X35960164Y8570507D01*
X35987442Y8636620D01*
X35996534Y8712904D01*
X35996534Y8876877D01*
X36878041Y8876877D01*
X36878041Y8619205D01*
X37272562Y8619205D01*
X37272562Y8454000D01*
X37457493Y8454000D01*
X37457493Y8971808D01*
X37272562Y8971808D01*
X37272562Y8779479D01*
X37050644Y8779479D01*
X37050644Y8825096D01*
X37425438Y9354000D01*
X37215849Y9354000D01*
X36878041Y8876877D01*
X35996534Y8876877D01*
X35996534Y9095096D01*
X35987442Y9171380D01*
X35960164Y9237493D01*
X35916397Y9291740D01*
X35857836Y9332425D01*
X35785558Y9357853D01*
X35700644Y9366329D01*
X35616500Y9357853D01*
X35544068Y9332425D01*
X35485045Y9291740D01*
X35441123Y9237493D01*
X35413846Y9171380D01*
X35404753Y9095096D01*
X35273466Y9095096D01*
X35265592Y9158589D01*
X35236466Y9225781D01*
X35189771Y9280336D01*
X35127356Y9320712D01*
X35050610Y9345678D01*
X34960918Y9354000D01*
X34671192Y9354000D01*
X34671192Y8454000D01*
X34400370Y8454000D01*
X34065027Y9571808D01*
X34465712Y9571808D01*
X34671192Y9571808D01*
X37457493Y9571808D01*
X37662973Y9571808D01*
X37662973Y8236192D01*
G37*
D12*
X7915000Y2955000D02*
X7915000Y955000D01*
X11035000Y1655000D02*
X11035000Y2955000D01*
X18210000Y4340000D02*
X21095000Y4340000D01*
X21095000Y5910000D02*
X18210000Y5910000D01*
X21095000Y4340000D02*
X21095000Y5910000D01*
X28249000Y2181792D02*
X28249000Y1391793D01*
X28849000Y381792D02*
X34549000Y381792D01*
X30099000Y3231792D02*
X31799000Y3231792D01*
X30299000Y381792D02*
X30299000Y-908208D01*
X30299000Y-908208D02*
X30499000Y-1118208D01*
X30499000Y-1118208D02*
X31399000Y-1118208D01*
X31599000Y-908208D02*
X31399000Y-1118208D01*
X31599000Y-908208D02*
X31599000Y381792D01*
X33099000Y3231792D02*
X33299000Y3231792D01*
X35149000Y1391793D02*
X35149000Y2181792D01*
X37924000Y3560000D02*
X37924000Y3010000D01*
X37924000Y360000D02*
X37924000Y910000D01*
X42124000Y3560000D02*
X37924000Y3560000D01*
X42124000Y3010000D02*
X42124000Y3560000D01*
X42124000Y910000D02*
X42124000Y360000D01*
X42124000Y360000D02*
X37924000Y360000D01*
X42974000Y1360000D02*
X42974000Y2560000D01*
D10*
G36*
X24646438Y15639365D02*
G01*
X24672192Y15563749D01*
X24672192Y15467311D01*
X24482603Y15467311D01*
X24482603Y15563749D01*
X24507260Y15639365D01*
X24576849Y15666763D01*
X24646438Y15639365D01*
G37*
G36*
X24681507Y16322653D02*
G01*
X24703288Y16286078D01*
X24710548Y16238817D01*
X24710548Y16130324D01*
X24497945Y16130324D01*
X24497945Y16238817D01*
X24505205Y16286078D01*
X24526986Y16322653D01*
X24604247Y16353886D01*
X24681507Y16322653D01*
G37*
G36*
X24954932Y15676626D02*
G01*
X24988904Y15653612D01*
X25010274Y15617174D01*
X25017397Y15569228D01*
X25017397Y15467311D01*
X24801507Y15467311D01*
X24801507Y15569228D01*
X24808767Y15617174D01*
X24830548Y15653612D01*
X24864932Y15676626D01*
X24910000Y15684297D01*
X24954932Y15676626D01*
G37*
G36*
X25332648Y15308406D02*
G01*
X25332648Y15125758D01*
X24167352Y15125758D01*
X24167352Y15308406D01*
X24167352Y15565941D01*
X24350000Y15565941D01*
X24350000Y15308406D01*
X25150000Y15308406D01*
X25150000Y15575804D01*
X25142877Y15654434D01*
X25121507Y15721557D01*
X25087123Y15775941D01*
X25040959Y15816352D01*
X24984384Y15841420D01*
X24918767Y15849776D01*
X24862329Y15842927D01*
X24815753Y15822379D01*
X24779315Y15790735D01*
X24753288Y15750598D01*
X24737945Y15703886D01*
X24733562Y15652516D01*
X24730274Y15652516D01*
X24724795Y15698954D01*
X24708356Y15741831D01*
X24682055Y15778817D01*
X24646986Y15807584D01*
X24604247Y15826078D01*
X24554932Y15832242D01*
X24496423Y15824205D01*
X24446560Y15800096D01*
X24405342Y15759913D01*
X24374597Y15706215D01*
X24356149Y15641557D01*
X24350000Y15565941D01*
X24167352Y15565941D01*
X24167352Y16238817D01*
X24350000Y16238817D01*
X24350000Y15965941D01*
X25150000Y15965941D01*
X25150000Y16130324D01*
X24858493Y16130324D01*
X24858493Y16238817D01*
X24850548Y16317721D01*
X24826712Y16385667D01*
X24788493Y16441283D01*
X24737397Y16483201D01*
X24675342Y16509502D01*
X24604247Y16518269D01*
X24532466Y16509639D01*
X24470548Y16483749D01*
X24419863Y16442105D01*
X24381781Y16386215D01*
X24357945Y16317858D01*
X24350000Y16238817D01*
X24167352Y16238817D01*
X24167352Y16518269D01*
X24167352Y16792242D01*
X25332648Y16792242D01*
X25332648Y16518269D01*
X25332648Y15965941D01*
X25332648Y15308406D01*
G37*
G36*
X28031507Y14339186D02*
G01*
X28053288Y14302610D01*
X28060548Y14255350D01*
X28060548Y14146857D01*
X27847945Y14146857D01*
X27847945Y14255350D01*
X27855205Y14302610D01*
X27876986Y14339186D01*
X27954247Y14370419D01*
X28031507Y14339186D01*
G37*
G36*
X28693607Y14896446D02*
G01*
X28693607Y13982473D01*
X28693607Y13799825D01*
X27506393Y13799825D01*
X27506393Y13982473D01*
X27506393Y14255350D01*
X27700000Y14255350D01*
X27700000Y13982473D01*
X28500000Y13982473D01*
X28500000Y14146857D01*
X28208493Y14146857D01*
X28208493Y14255350D01*
X28200548Y14334254D01*
X28176712Y14402199D01*
X28138493Y14457816D01*
X28087397Y14499734D01*
X28025342Y14526035D01*
X27954247Y14534802D01*
X27882466Y14526172D01*
X27820548Y14500282D01*
X27769863Y14458638D01*
X27731781Y14402747D01*
X27707945Y14334391D01*
X27700000Y14255350D01*
X27506393Y14255350D01*
X27506393Y14894254D01*
X27689041Y14894254D01*
X27696164Y14818638D01*
X27717534Y14753980D01*
X27751918Y14701514D01*
X27798082Y14662473D01*
X27854658Y14638227D01*
X27920274Y14630145D01*
X28007260Y14644254D01*
X28079726Y14686583D01*
X28118630Y14729262D01*
X28148402Y14782047D01*
X28169041Y14844939D01*
X28187671Y14926035D01*
X28221644Y14987405D01*
X28281918Y15009323D01*
X28345479Y14980282D01*
X28368493Y14899734D01*
X28362603Y14851651D01*
X28344932Y14814802D01*
X28280822Y14783569D01*
X28280822Y14619186D01*
X28346301Y14627679D01*
X28402466Y14653158D01*
X28448219Y14694254D01*
X28482466Y14749597D01*
X28503836Y14817542D01*
X28510959Y14896446D01*
X28503562Y14975213D01*
X28481370Y15042747D01*
X28445753Y15097816D01*
X28398082Y15139186D01*
X28340274Y15165076D01*
X28274247Y15173706D01*
X28185342Y15160008D01*
X28113699Y15118912D01*
X28076012Y15076659D01*
X28046971Y15022960D01*
X28026575Y14957816D01*
X28006849Y14872336D01*
X27973425Y14814802D01*
X27913699Y14794528D01*
X27852877Y14819734D01*
X27831507Y14892062D01*
X27853425Y14969323D01*
X27913699Y14996172D01*
X27913699Y15160556D01*
X27849711Y15152580D01*
X27795099Y15128653D01*
X27749863Y15088775D01*
X27716073Y15035259D01*
X27695799Y14970419D01*
X27689041Y14894254D01*
X27506393Y14894254D01*
X27506393Y15871788D01*
X27700000Y15871788D01*
X27700000Y15735898D01*
X28234795Y15698638D01*
X28278082Y15696446D01*
X28336164Y15694254D01*
X28390411Y15692062D01*
X28336164Y15686035D01*
X28278082Y15679460D01*
X28234795Y15674528D01*
X27700000Y15617542D01*
X27700000Y15492610D01*
X28234795Y15433432D01*
X28278082Y15429049D01*
X28336164Y15423021D01*
X28390411Y15418090D01*
X28336164Y15416446D01*
X28278082Y15413706D01*
X28234795Y15411514D01*
X27700000Y15370967D01*
X27700000Y15236172D01*
X28500000Y15310693D01*
X28500000Y15482747D01*
X27968493Y15541925D01*
X27919726Y15546309D01*
X27856712Y15550693D01*
X27798630Y15553980D01*
X27856712Y15558364D01*
X27919726Y15562747D01*
X27968493Y15567131D01*
X28500000Y15620830D01*
X28500000Y15791788D01*
X27700000Y15871788D01*
X27506393Y15871788D01*
X27506393Y16054437D01*
X28100000Y16450175D01*
X28693607Y16054437D01*
X28693607Y15871788D01*
X28693607Y15310693D01*
X28693607Y14896446D01*
G37*
D12*
X16005000Y1896164D02*
X16005000Y2111836D01*
X16725000Y1896164D02*
X16725000Y2111836D01*
X3310000Y14580000D02*
X4720000Y14580000D01*
X3310000Y5420000D02*
X4720000Y5420000D01*
X7390000Y13760000D02*
X7240000Y13760000D01*
X7390000Y12960000D02*
X7390000Y13760000D01*
X23459000Y9753000D02*
X23459000Y13683000D01*
X24281470Y13683000D02*
X23459000Y13683000D01*
X24281470Y9753000D02*
X23459000Y9753000D01*
X25099000Y11154529D02*
X25099000Y11011471D01*
X25099000Y9884529D02*
X25099000Y9753000D01*
X25099000Y9753000D02*
X24896530Y9753000D01*
X25295529Y11208000D02*
X25152471Y11208000D01*
X25551470Y13683000D02*
X24896530Y13683000D01*
X26989000Y13683000D02*
X26166530Y13683000D01*
X26989000Y11208000D02*
X26422471Y11208000D01*
X26989000Y11208000D02*
X26989000Y13683000D01*
X26989000Y10448000D02*
X26989000Y9688000D01*
X26989000Y9688000D02*
X25859000Y9688000D01*
X31589000Y13394000D02*
X31589000Y11924000D01*
X31589000Y11924000D02*
X33874000Y11924000D01*
X33874000Y13394000D02*
X31589000Y13394000D01*
X23601358Y7125000D02*
X23908640Y7125000D01*
X23601358Y6365000D02*
X23908640Y6365000D01*
X13290000Y19750000D02*
X13290000Y19200000D01*
X13290000Y16550000D02*
X13290000Y17100000D01*
X17490000Y19750000D02*
X13290000Y19750000D01*
X17490000Y19200000D02*
X17490000Y19750000D01*
X17490000Y17100000D02*
X17490000Y16550000D01*
X17490000Y16550000D02*
X13290000Y16550000D01*
X18340000Y17550000D02*
X18340000Y18750000D01*
D10*
G36*
X29748452Y5224315D02*
G01*
X29713384Y5196918D01*
X29719296Y5224315D01*
X29748452Y5224315D01*
G37*
G36*
X30942607Y4586872D02*
G01*
X30759959Y4586872D01*
X30355575Y4586872D01*
X29799959Y4586872D01*
X29538041Y4586872D01*
X29355393Y4586872D01*
X29355393Y4988699D01*
X29538041Y4988699D01*
X29547052Y4926111D01*
X29571161Y4872778D01*
X29610370Y4828699D01*
X29662607Y4795822D01*
X29725804Y4776096D01*
X29799959Y4769521D01*
X29876549Y4776522D01*
X29941207Y4797527D01*
X29993932Y4832534D01*
X30032896Y4879718D01*
X30056275Y4937253D01*
X30064068Y5005137D01*
X30064068Y5082945D01*
X30058041Y5147907D01*
X30039959Y5202519D01*
X30009822Y5246781D01*
X29944753Y5290753D01*
X29858041Y5305411D01*
X29798178Y5298151D01*
X29752288Y5276370D01*
X29723110Y5241986D01*
X29719296Y5224315D01*
X29714479Y5224315D01*
X29716671Y5432534D01*
X30034479Y5432534D01*
X30034479Y5580479D01*
X30157219Y5580479D01*
X30355575Y4780479D01*
X30563795Y4780479D01*
X30759959Y5580479D01*
X30594479Y5580479D01*
X30487082Y5076370D01*
X30475027Y5008425D01*
X30464068Y4939384D01*
X30451466Y5008425D01*
X30437767Y5075274D01*
X30327082Y5580479D01*
X30157219Y5580479D01*
X30034479Y5580479D01*
X29562151Y5580479D01*
X29556671Y5142123D01*
X29715575Y5142123D01*
X29749000Y5166781D01*
X29799959Y5175000D01*
X29874479Y5151438D01*
X29899685Y5082945D01*
X29899685Y5005137D01*
X29873932Y4936644D01*
X29799959Y4911986D01*
X29729822Y4932260D01*
X29702425Y4988699D01*
X29538041Y4988699D01*
X29355393Y4988699D01*
X29355393Y5763128D01*
X29538041Y5763128D01*
X30759959Y5763128D01*
X30942607Y5763128D01*
X30942607Y4586872D01*
G37*
D12*
X28860000Y6850000D02*
X28860000Y7550000D01*
X29309999Y8000000D02*
X31110001Y8000000D01*
X31110001Y6400000D02*
X29309999Y6400000D01*
X31560000Y7550000D02*
X31560000Y6850000D01*
X28860000Y7550000D02*
G75*
G02*
X29309999Y8000000I450000J0D01*
G01*
X29309999Y6400000D02*
G75*
G02*
X28860000Y6850000I1J450000D01*
G01*
X31110001Y8000000D02*
G75*
G02*
X31560000Y7550000I-1J-450000D01*
G01*
X31560000Y6850000D02*
G75*
G02*
X31110001Y6400000I-450000J0D01*
G01*
X20365000Y17931359D02*
X20365000Y18238641D01*
X21125000Y17931359D02*
X21125000Y18238641D01*
X18465000Y16104000D02*
X20115000Y16104000D01*
X20115000Y14304000D02*
X18815000Y14304000D01*
X37924000Y19640000D02*
X37924000Y19090000D01*
X37924000Y16440000D02*
X37924000Y16990000D01*
X42124000Y19640000D02*
X37924000Y19640000D01*
X42124000Y19090000D02*
X42124000Y19640000D01*
X42124000Y16990000D02*
X42124000Y16440000D01*
X42124000Y16440000D02*
X37924000Y16440000D01*
X42974000Y17440000D02*
X42974000Y18640000D01*
X6320000Y18440000D02*
X6320000Y16970000D01*
X6320000Y16970000D02*
X8605000Y16970000D01*
X8605000Y18440000D02*
X6320000Y18440000D01*
X17530000Y10940000D02*
X17530000Y9470000D01*
X17530000Y9470000D02*
X19815000Y9470000D01*
X19815000Y10940000D02*
X17530000Y10940000D01*
X39112000Y14109999D02*
X39112000Y13060000D01*
X39112000Y6940000D02*
X38122000Y6940000D01*
X39112000Y5890001D02*
X39112000Y6940000D01*
X41612000Y14110000D02*
X39112000Y14109999D01*
X41612000Y5890000D02*
X39112000Y5890001D01*
X43582000Y7060000D02*
X43582000Y12940000D01*
X29725359Y13039000D02*
X30032641Y13039000D01*
X29725359Y12279000D02*
X30032641Y12279000D01*
X6345000Y2157641D02*
X6345000Y1850359D01*
X7105000Y2157641D02*
X7105000Y1850359D01*
X21239998Y8940000D02*
X21239998Y6740000D01*
X22199998Y8940000D02*
X21239998Y8940000D01*
X22199998Y8940000D02*
X22199998Y6740000D01*
X22199998Y6740000D02*
X21239998Y6740000D01*
X21575000Y17184999D02*
X21575000Y18985001D01*
X22025000Y19435000D02*
X22725000Y19435000D01*
X22725000Y16735000D02*
X22025000Y16735000D01*
X23175000Y18985001D02*
X23175000Y17184999D01*
X21575000Y18985001D02*
G75*
G02*
X22025000Y19435000I450000J-1D01*
G01*
X22025000Y16735000D02*
G75*
G02*
X21575000Y17184999I0J450000D01*
G01*
X22725000Y19435000D02*
G75*
G02*
X23175000Y18985001I0J-450000D01*
G01*
X23175000Y17184999D02*
G75*
G02*
X22725000Y16735000I-450000J1D01*
G01*
X17225000Y11821359D02*
X17225000Y12128641D01*
X17985000Y11821359D02*
X17985000Y12128641D01*
X8822836Y13534000D02*
X8607164Y13534000D01*
X8822836Y12814000D02*
X8607164Y12814000D01*
X20860000Y13730000D02*
X20860000Y12130000D01*
X20860000Y12130000D02*
X23460000Y12130000D01*
X23460000Y13730000D02*
X20860000Y13730000D01*
X23460000Y12130000D02*
X23460000Y13730000D01*
D13*
X21960000Y13730000D02*
X21460000Y13730000D01*
X21460000Y14030000D01*
X21960000Y14030000D01*
X21960000Y13730000D01*
G36*
X21960000Y13730000D02*
G01*
X21460000Y13730000D01*
X21460000Y14030000D01*
X21960000Y14030000D01*
X21960000Y13730000D01*
G37*
X21960000Y11830000D02*
X21460000Y11830000D01*
X21460000Y12130000D01*
X21960000Y12130000D01*
X21960000Y11830000D01*
G36*
X21960000Y11830000D02*
G01*
X21460000Y11830000D01*
X21460000Y12130000D01*
X21960000Y12130000D01*
X21960000Y11830000D01*
G37*
D12*
X21325000Y3091836D02*
X21325000Y2876164D01*
X22045000Y3091836D02*
X22045000Y2876164D01*
X19185000Y4054000D02*
X18385000Y4054000D01*
X19185000Y4054000D02*
X19985000Y4054000D01*
X19185000Y934000D02*
X18385000Y934000D01*
X19185000Y934000D02*
X19985000Y934000D01*
X17885000Y4004000D02*
X17645000Y4340000D01*
X18125000Y4340000D01*
X17885000Y4004000D01*
G36*
X17885000Y4004000D02*
G01*
X17645000Y4340000D01*
X18125000Y4340000D01*
X17885000Y4004000D01*
G37*
X26005000Y17931359D02*
X26005000Y18238641D01*
X26765000Y17931359D02*
X26765000Y18238641D01*
M02*
