%TF.GenerationSoftware,KiCad,Pcbnew,9.0.6*%
%TF.CreationDate,2025-11-05T22:41:54+05:30*%
%TF.ProjectId,ESPNut-D1,4553504e-7574-42d4-9431-2e6b69636164,0.4*%
%TF.SameCoordinates,Original*%
%TF.FileFunction,Soldermask,Top*%
%TF.FilePolarity,Negative*%
%FSLAX46Y46*%
G04 Gerber Fmt 4.6, Leading zero omitted, Abs format (unit mm)*
G04 Created by KiCad (PCBNEW 9.0.6) date 2025-11-05 22:41:54*
%MOMM*%
%LPD*%
G01*
G04 APERTURE LIST*
G04 Aperture macros list*
%AMRoundRect*
0 Rectangle with rounded corners*
0 $1 Rounding radius*
0 $2 $3 $4 $5 $6 $7 $8 $9 X,Y pos of 4 corners*
0 Add a 4 corners polygon primitive as box body*
4,1,4,$2,$3,$4,$5,$6,$7,$8,$9,$2,$3,0*
0 Add four circle primitives for the rounded corners*
1,1,$1+$1,$2,$3*
1,1,$1+$1,$4,$5*
1,1,$1+$1,$6,$7*
1,1,$1+$1,$8,$9*
0 Add four rect primitives between the rounded corners*
20,1,$1+$1,$2,$3,$4,$5,0*
20,1,$1+$1,$4,$5,$6,$7,0*
20,1,$1+$1,$6,$7,$8,$9,0*
20,1,$1+$1,$8,$9,$2,$3,0*%
%AMOutline5P*
0 Free polygon, 5 corners , with rotation*
0 The origin of the aperture is its center*
0 number of corners: always 5*
0 $1 to $10 corner X, Y*
0 $11 Rotation angle, in degrees counterclockwise*
0 create outline with 5 corners*
4,1,5,$1,$2,$3,$4,$5,$6,$7,$8,$9,$10,$1,$2,$11*%
%AMOutline6P*
0 Free polygon, 6 corners , with rotation*
0 The origin of the aperture is its center*
0 number of corners: always 6*
0 $1 to $12 corner X, Y*
0 $13 Rotation angle, in degrees counterclockwise*
0 create outline with 6 corners*
4,1,6,$1,$2,$3,$4,$5,$6,$7,$8,$9,$10,$11,$12,$1,$2,$13*%
%AMOutline7P*
0 Free polygon, 7 corners , with rotation*
0 The origin of the aperture is its center*
0 number of corners: always 7*
0 $1 to $14 corner X, Y*
0 $15 Rotation angle, in degrees counterclockwise*
0 create outline with 7 corners*
4,1,7,$1,$2,$3,$4,$5,$6,$7,$8,$9,$10,$11,$12,$13,$14,$1,$2,$15*%
%AMOutline8P*
0 Free polygon, 8 corners , with rotation*
0 The origin of the aperture is its center*
0 number of corners: always 8*
0 $1 to $16 corner X, Y*
0 $17 Rotation angle, in degrees counterclockwise*
0 create outline with 8 corners*
4,1,8,$1,$2,$3,$4,$5,$6,$7,$8,$9,$10,$11,$12,$13,$14,$15,$16,$1,$2,$17*%
%AMFreePoly0*
4,1,15,-0.500000,0.200000,-0.480423,0.323607,-0.423607,0.435114,-0.335114,0.523607,-0.223607,0.580423,-0.100000,0.600000,0.500000,0.600000,0.500000,-0.600000,-0.100000,-0.600000,-0.223607,-0.580423,-0.335114,-0.523607,-0.423607,-0.435114,-0.480423,-0.323607,-0.500000,-0.200000,-0.500000,0.200000,-0.500000,0.200000,$1*%
%AMFreePoly1*
4,1,15,-0.500000,0.600000,0.100000,0.600000,0.223607,0.580423,0.335114,0.523607,0.423607,0.435114,0.480423,0.323607,0.500000,0.200000,0.500000,-0.200000,0.480423,-0.323607,0.423607,-0.435114,0.335114,-0.523607,0.223607,-0.580423,0.100000,-0.600000,-0.500000,-0.600000,-0.500000,0.600000,-0.500000,0.600000,$1*%
G04 Aperture macros list end*
%ADD10R,1.000000X0.800000*%
%ADD11C,0.900000*%
%ADD12R,0.700000X1.500000*%
%ADD13RoundRect,0.135000X0.185000X-0.135000X0.185000X0.135000X-0.185000X0.135000X-0.185000X-0.135000X0*%
%ADD14RoundRect,0.135000X-0.135000X-0.185000X0.135000X-0.185000X0.135000X0.185000X-0.135000X0.185000X0*%
%ADD15RoundRect,0.150000X-0.825000X-0.150000X0.825000X-0.150000X0.825000X0.150000X-0.825000X0.150000X0*%
%ADD16Outline6P,-0.290000X0.117000X-0.087000X0.320000X0.290000X0.320000X0.290000X-0.320000X-0.087000X-0.320000X-0.290000X-0.117000X0.000000*%
%ADD17R,0.500000X0.640000*%
%ADD18R,0.580000X0.640000*%
%ADD19C,2.200000*%
%ADD20RoundRect,0.150000X-0.512500X-0.150000X0.512500X-0.150000X0.512500X0.150000X-0.512500X0.150000X0*%
%ADD21FreePoly0,90.000000*%
%ADD22FreePoly1,90.000000*%
%ADD23RoundRect,0.250000X-0.250000X-0.475000X0.250000X-0.475000X0.250000X0.475000X-0.250000X0.475000X0*%
%ADD24RoundRect,0.140000X0.140000X0.170000X-0.140000X0.170000X-0.140000X-0.170000X0.140000X-0.170000X0*%
%ADD25R,0.400000X1.900000*%
%ADD26RoundRect,0.135000X-0.185000X0.135000X-0.185000X-0.135000X0.185000X-0.135000X0.185000X0.135000X0*%
%ADD27R,0.510000X0.400000*%
%ADD28RoundRect,0.135000X0.135000X0.185000X-0.135000X0.185000X-0.135000X-0.185000X0.135000X-0.185000X0*%
%ADD29RoundRect,0.140000X-0.140000X-0.170000X0.140000X-0.170000X0.140000X0.170000X-0.140000X0.170000X0*%
%ADD30RoundRect,0.218750X-0.218750X-0.256250X0.218750X-0.256250X0.218750X0.256250X-0.218750X0.256250X0*%
%ADD31R,1.000000X0.700000*%
%ADD32R,0.600000X0.700000*%
%ADD33RoundRect,0.250000X0.400000X0.275000X-0.400000X0.275000X-0.400000X-0.275000X0.400000X-0.275000X0*%
%ADD34R,1.150000X1.700000*%
%ADD35RoundRect,0.140000X0.170000X-0.140000X0.170000X0.140000X-0.170000X0.140000X-0.170000X-0.140000X0*%
%ADD36C,0.650000*%
%ADD37RoundRect,0.150000X-0.425000X0.150000X-0.425000X-0.150000X0.425000X-0.150000X0.425000X0.150000X0*%
%ADD38RoundRect,0.075000X-0.500000X0.075000X-0.500000X-0.075000X0.500000X-0.075000X0.500000X0.075000X0*%
%ADD39RoundRect,0.250000X-0.750000X0.840000X-0.750000X-0.840000X0.750000X-0.840000X0.750000X0.840000X0*%
%ADD40R,1.000000X1.000000*%
%ADD41O,1.000000X1.000000*%
%ADD42FreePoly0,180.000000*%
%ADD43FreePoly1,180.000000*%
%ADD44C,1.500000*%
%ADD45RoundRect,0.150000X0.625000X-0.150000X0.625000X0.150000X-0.625000X0.150000X-0.625000X-0.150000X0*%
%ADD46RoundRect,0.250000X0.650000X-0.350000X0.650000X0.350000X-0.650000X0.350000X-0.650000X-0.350000X0*%
%ADD47Outline6P,-0.290000X0.117000X-0.087000X0.320000X0.290000X0.320000X0.290000X-0.320000X-0.087000X-0.320000X-0.290000X-0.117000X270.000000*%
%ADD48R,0.640000X0.500000*%
%ADD49R,0.640000X0.580000*%
%ADD50RoundRect,0.150000X0.150000X0.200000X-0.150000X0.200000X-0.150000X-0.200000X0.150000X-0.200000X0*%
%ADD51RoundRect,0.140000X-0.170000X0.140000X-0.170000X-0.140000X0.170000X-0.140000X0.170000X0.140000X0*%
G04 APERTURE END LIST*
D10*
X35349000Y17095000D03*
X35349000Y19305000D03*
D11*
X33199000Y18205000D03*
X30199000Y18205000D03*
D10*
X28049000Y17095000D03*
X28049000Y19305000D03*
D12*
X33949000Y16445000D03*
X30949000Y16445000D03*
X29449000Y16445000D03*
D13*
X28405000Y4779002D03*
X28405000Y5799000D03*
D14*
X21245001Y11115000D03*
X22264999Y11115000D03*
D15*
X10750000Y13844000D03*
X10750000Y12574000D03*
X10750000Y11304000D03*
X10750000Y10034000D03*
X10750000Y8764000D03*
X10750000Y7494000D03*
X10750000Y6224000D03*
X10750000Y4954000D03*
X15700000Y4954000D03*
X15700000Y6224000D03*
X15700000Y7494000D03*
X15700000Y8764000D03*
X15700000Y10034000D03*
X15700000Y11304000D03*
X15700000Y12574000D03*
X15700000Y13844000D03*
D14*
X4625000Y17655000D03*
X5645000Y17655000D03*
D16*
X19070000Y6680000D03*
D17*
X19760000Y6680000D03*
D18*
X20450000Y6680000D03*
D13*
X27391575Y4744581D03*
X27391575Y5764579D03*
D19*
X2000000Y2000000D03*
D20*
X23397500Y5269000D03*
X23397500Y4319000D03*
X23397500Y3369000D03*
X25672500Y3369000D03*
X25672500Y5269000D03*
D21*
X24750000Y17435001D03*
D22*
X24750000Y18734999D03*
D19*
X2000000Y18000000D03*
D23*
X35075000Y5585000D03*
X36975000Y5585000D03*
D24*
X10955000Y17305000D03*
X9995000Y17305000D03*
D25*
X14230000Y2640000D03*
X13030000Y2640000D03*
X11830000Y2640000D03*
D26*
X17605000Y14684000D03*
X17605000Y13664000D03*
D27*
X24284999Y7760000D03*
X24284999Y8760000D03*
X22995000Y8260000D03*
D28*
X36534999Y7400000D03*
X35515001Y7400000D03*
D23*
X10275000Y15695000D03*
X12175000Y15695000D03*
D29*
X21655000Y1544000D03*
X22615000Y1544000D03*
D13*
X8475000Y15075000D03*
X8475000Y16095000D03*
D27*
X18820000Y13393000D03*
X18820000Y12393000D03*
X20110000Y12893000D03*
D30*
X18227500Y8415000D03*
X19802500Y8415000D03*
D31*
X8725000Y1305000D03*
D32*
X10425000Y1305000D03*
X10425000Y3305000D03*
X8525000Y3305000D03*
D33*
X20185000Y5125000D03*
X18235000Y5125000D03*
D10*
X28049000Y2891792D03*
X28049000Y681792D03*
D11*
X30199000Y1781792D03*
X33199000Y1781792D03*
D10*
X35349000Y2891792D03*
X35349000Y681792D03*
D12*
X29449000Y3541792D03*
X32449000Y3541792D03*
X33949000Y3541792D03*
D34*
X42199000Y1960000D03*
X37849000Y1960000D03*
D35*
X16365000Y1524000D03*
X16365000Y2484000D03*
D36*
X5480000Y12890000D03*
X5480000Y7110000D03*
D37*
X6555000Y13200000D03*
X6555000Y12400000D03*
D38*
X6555000Y11250000D03*
X6555000Y10250000D03*
X6555000Y9750000D03*
X6555000Y8750000D03*
D37*
X6555000Y7600000D03*
X6555000Y6800000D03*
X6555000Y6800000D03*
X6555000Y7600000D03*
D38*
X6555000Y8250000D03*
X6555000Y9250000D03*
X6555000Y10750000D03*
X6555000Y11750000D03*
D37*
X6555000Y12400000D03*
X6555000Y13200000D03*
D39*
X5980000Y15110000D03*
X2050000Y15110000D03*
X5980000Y4890000D03*
X2050000Y4890000D03*
D40*
X25859000Y10448000D03*
D41*
X24589000Y10448000D03*
X25859000Y11718000D03*
X24589000Y11718000D03*
X25859000Y12988000D03*
X24589000Y12988000D03*
D30*
X32286500Y12659000D03*
X33861500Y12659000D03*
D14*
X23245000Y6745000D03*
X24264998Y6745000D03*
D34*
X17565000Y18150000D03*
X13215000Y18150000D03*
D42*
X30859999Y7200000D03*
D43*
X29560001Y7200000D03*
D13*
X20745000Y17575001D03*
X20745000Y18594999D03*
D27*
X18820000Y15704000D03*
X18820000Y14704000D03*
X20110000Y15204000D03*
D34*
X42199000Y18040000D03*
X37849000Y18040000D03*
D30*
X7017500Y17705000D03*
X8592500Y17705000D03*
X18227500Y10205000D03*
X19802500Y10205000D03*
D44*
X36200000Y14000000D03*
D45*
X38896999Y7500000D03*
X38897000Y8500000D03*
X38897000Y9500000D03*
X38897000Y10500000D03*
X38897000Y11500000D03*
X38896999Y12500000D03*
D46*
X42772000Y6200000D03*
X42772000Y13800000D03*
D14*
X29369000Y12659000D03*
X30389000Y12659000D03*
D26*
X6725000Y2514000D03*
X6725000Y1494000D03*
D47*
X21719998Y8530000D03*
D48*
X21719998Y7840000D03*
D49*
X21719998Y7150000D03*
D21*
X22375000Y17435001D03*
D22*
X22375000Y18734999D03*
D13*
X17605000Y11465000D03*
X17605000Y12485000D03*
D24*
X9195000Y13174000D03*
X8235000Y13174000D03*
D50*
X21460000Y12930000D03*
X22860000Y12930000D03*
D51*
X21685000Y3464000D03*
X21685000Y2504000D03*
D20*
X18047500Y3444000D03*
X18047500Y2494000D03*
X18047500Y1544000D03*
X20322500Y1544000D03*
X20322500Y3444000D03*
D13*
X26385000Y17575001D03*
X26385000Y18594999D03*
M02*
