%TF.GenerationSoftware,KiCad,Pcbnew,9.0.6*%
%TF.CreationDate,2025-11-05T22:41:54+05:30*%
%TF.ProjectId,ESPNut-D1,4553504e-7574-42d4-9431-2e6b69636164,0.4*%
%TF.SameCoordinates,Original*%
%TF.FileFunction,Copper,L2,Bot*%
%TF.FilePolarity,Positive*%
%FSLAX46Y46*%
G04 Gerber Fmt 4.6, Leading zero omitted, Abs format (unit mm)*
G04 Created by KiCad (PCBNEW 9.0.6) date 2025-11-05 22:41:54*
%MOMM*%
%LPD*%
G01*
G04 APERTURE LIST*
G04 Aperture macros list*
%AMRoundRect*
0 Rectangle with rounded corners*
0 $1 Rounding radius*
0 $2 $3 $4 $5 $6 $7 $8 $9 X,Y pos of 4 corners*
0 Add a 4 corners polygon primitive as box body*
4,1,4,$2,$3,$4,$5,$6,$7,$8,$9,$2,$3,0*
0 Add four circle primitives for the rounded corners*
1,1,$1+$1,$2,$3*
1,1,$1+$1,$4,$5*
1,1,$1+$1,$6,$7*
1,1,$1+$1,$8,$9*
0 Add four rect primitives between the rounded corners*
20,1,$1+$1,$2,$3,$4,$5,0*
20,1,$1+$1,$4,$5,$6,$7,0*
20,1,$1+$1,$6,$7,$8,$9,0*
20,1,$1+$1,$8,$9,$2,$3,0*%
%AMOutline5P*
0 Free polygon, 5 corners , with rotation*
0 The origin of the aperture is its center*
0 number of corners: always 5*
0 $1 to $10 corner X, Y*
0 $11 Rotation angle, in degrees counterclockwise*
0 create outline with 5 corners*
4,1,5,$1,$2,$3,$4,$5,$6,$7,$8,$9,$10,$1,$2,$11*%
%AMOutline6P*
0 Free polygon, 6 corners , with rotation*
0 The origin of the aperture is its center*
0 number of corners: always 6*
0 $1 to $12 corner X, Y*
0 $13 Rotation angle, in degrees counterclockwise*
0 create outline with 6 corners*
4,1,6,$1,$2,$3,$4,$5,$6,$7,$8,$9,$10,$11,$12,$1,$2,$13*%
%AMOutline7P*
0 Free polygon, 7 corners , with rotation*
0 The origin of the aperture is its center*
0 number of corners: always 7*
0 $1 to $14 corner X, Y*
0 $15 Rotation angle, in degrees counterclockwise*
0 create outline with 7 corners*
4,1,7,$1,$2,$3,$4,$5,$6,$7,$8,$9,$10,$11,$12,$13,$14,$1,$2,$15*%
%AMOutline8P*
0 Free polygon, 8 corners , with rotation*
0 The origin of the aperture is its center*
0 number of corners: always 8*
0 $1 to $16 corner X, Y*
0 $17 Rotation angle, in degrees counterclockwise*
0 create outline with 8 corners*
4,1,8,$1,$2,$3,$4,$5,$6,$7,$8,$9,$10,$11,$12,$13,$14,$15,$16,$1,$2,$17*%
%AMFreePoly0*
4,1,15,-0.500000,0.200000,-0.480423,0.323607,-0.423607,0.435114,-0.335114,0.523607,-0.223607,0.580423,-0.100000,0.600000,0.500000,0.600000,0.500000,-0.600000,-0.100000,-0.600000,-0.223607,-0.580423,-0.335114,-0.523607,-0.423607,-0.435114,-0.480423,-0.323607,-0.500000,-0.200000,-0.500000,0.200000,-0.500000,0.200000,$1*%
%AMFreePoly1*
4,1,15,-0.500000,0.600000,0.100000,0.600000,0.223607,0.580423,0.335114,0.523607,0.423607,0.435114,0.480423,0.323607,0.500000,0.200000,0.500000,-0.200000,0.480423,-0.323607,0.423607,-0.435114,0.335114,-0.523607,0.223607,-0.580423,0.100000,-0.600000,-0.500000,-0.600000,-0.500000,0.600000,-0.500000,0.600000,$1*%
G04 Aperture macros list end*
%TA.AperFunction,ComponentPad*%
%ADD10R,1.000000X1.000000*%
%TD*%
%TA.AperFunction,ComponentPad*%
%ADD11O,1.000000X1.000000*%
%TD*%
%TA.AperFunction,SMDPad,CuDef*%
%ADD12RoundRect,0.375000X0.000010X0.000010X-0.000010X0.000010X-0.000010X-0.000010X0.000010X-0.000010X0*%
%TD*%
%TA.AperFunction,SMDPad,CuDef*%
%ADD13FreePoly0,180.000000*%
%TD*%
%TA.AperFunction,SMDPad,CuDef*%
%ADD14FreePoly1,180.000000*%
%TD*%
%TA.AperFunction,SMDPad,CuDef*%
%ADD15RoundRect,0.375000X-0.000010X-0.000010X0.000010X-0.000010X0.000010X0.000010X-0.000010X0.000010X0*%
%TD*%
%TA.AperFunction,SMDPad,CuDef*%
%ADD16Outline5P,-0.600000X0.500000X0.600000X0.500000X0.600000X-0.500000X-0.200000X-0.500000X-0.600000X-0.100000X0.000000*%
%TD*%
%TA.AperFunction,SMDPad,CuDef*%
%ADD17RoundRect,0.250000X-0.350000X-0.250000X0.350000X-0.250000X0.350000X0.250000X-0.350000X0.250000X0*%
%TD*%
%TA.AperFunction,SMDPad,CuDef*%
%ADD18R,2.500000X1.700000*%
%TD*%
%TA.AperFunction,SMDPad,CuDef*%
%ADD19RoundRect,0.400000X-0.850000X-0.450000X0.850000X-0.450000X0.850000X0.450000X-0.850000X0.450000X0*%
%TD*%
%TA.AperFunction,ViaPad*%
%ADD20C,0.600000*%
%TD*%
%TA.AperFunction,ViaPad*%
%ADD21C,0.450000*%
%TD*%
%TA.AperFunction,ViaPad*%
%ADD22C,0.800000*%
%TD*%
%TA.AperFunction,Conductor*%
%ADD23C,0.400000*%
%TD*%
%TA.AperFunction,Conductor*%
%ADD24C,0.500000*%
%TD*%
%TA.AperFunction,Conductor*%
%ADD25C,0.300000*%
%TD*%
%TA.AperFunction,Conductor*%
%ADD26C,0.200000*%
%TD*%
%TA.AperFunction,Conductor*%
%ADD27C,0.250000*%
%TD*%
G04 APERTURE END LIST*
D10*
X25859000Y10448000D03*
D11*
X24589000Y10448000D03*
X25859000Y11718000D03*
X24589000Y11718000D03*
X25859000Y12988000D03*
X24589000Y12988000D03*
D12*
X15700000Y12574000D03*
X15700000Y6224000D03*
D13*
X33100000Y15100000D03*
D14*
X31800002Y15100000D03*
D15*
X8599264Y17699264D03*
D12*
X15700000Y7494000D03*
X15700000Y8764000D03*
X15700000Y10034000D03*
D13*
X39374999Y1945000D03*
D14*
X38075001Y1945000D03*
D13*
X39374999Y18055000D03*
D14*
X38075001Y18055000D03*
D13*
X16025000Y18295000D03*
D14*
X14725000Y18295000D03*
D16*
X1375000Y7750000D03*
D17*
X1375000Y9250000D03*
X1375000Y10750000D03*
X1375000Y12250000D03*
D15*
X6999264Y17702208D03*
D18*
X42073000Y3716000D03*
D19*
X42073000Y6256000D03*
X42073000Y8795999D03*
X42073000Y11336001D03*
X42073000Y13876000D03*
X42073000Y16416000D03*
D15*
X32359264Y12662208D03*
D12*
X15700000Y4954000D03*
X15700000Y11304000D03*
D15*
X33959264Y12662208D03*
D20*
X10000000Y16700000D03*
X17400000Y6200000D03*
X40800000Y18200000D03*
X23600000Y16200000D03*
X26000000Y16200000D03*
X23800000Y1600000D03*
X23400000Y11000000D03*
X9700000Y15000000D03*
X4600000Y2000000D03*
X19000000Y19000000D03*
X36600000Y12400000D03*
X38800000Y14800000D03*
X28000000Y4000000D03*
X4600000Y1000000D03*
X12400000Y10000000D03*
X12400000Y8400000D03*
X9700000Y15600000D03*
X10600000Y19000000D03*
X19000000Y17000000D03*
X23600000Y19000000D03*
X16000000Y17000000D03*
X12200000Y4400000D03*
X19200000Y4200000D03*
X39600000Y14800000D03*
X40800000Y19000000D03*
X5980000Y15110000D03*
X22200000Y4400000D03*
X4600000Y19000000D03*
X31400000Y1200000D03*
X5400000Y19000000D03*
X18047500Y2494000D03*
X17400000Y6800000D03*
X40800000Y1800000D03*
X36600000Y16000000D03*
X32200000Y2000000D03*
X35200000Y16000000D03*
X13030000Y2640000D03*
X24800000Y4400000D03*
X15400000Y3000000D03*
X23400000Y11800000D03*
X19600000Y13800000D03*
X15400000Y1800000D03*
X21000000Y16200000D03*
X5980000Y4890000D03*
X15400000Y2400000D03*
X11000000Y15300000D03*
X36600000Y19200000D03*
X21300000Y4400000D03*
X32200000Y1200000D03*
X25400000Y4400000D03*
X16600000Y14800000D03*
X2050000Y15110000D03*
X15200000Y17000000D03*
X40800000Y1000000D03*
X9700000Y16200000D03*
X11000000Y15900000D03*
X31400000Y2000000D03*
X31800000Y18200000D03*
D21*
X6600000Y7600000D03*
X8600000Y17705000D03*
D22*
X1799002Y12200000D03*
D21*
X6555000Y12400000D03*
X26400000Y17100000D03*
D22*
X34680193Y3867557D03*
D21*
X20800000Y17100000D03*
X29325000Y14125000D03*
D22*
X20300000Y2650000D03*
D21*
X7017500Y17705000D03*
X21100000Y15200000D03*
D20*
X38075001Y18055000D03*
X1400000Y10800000D03*
D21*
X5276386Y9680238D03*
D20*
X1400000Y9200000D03*
D21*
X7516200Y10300000D03*
X38300000Y1950000D03*
D20*
X41100000Y13050000D03*
D21*
X40408926Y5421287D03*
D22*
X40388489Y6461511D03*
X33250000Y16500000D03*
D21*
X7500000Y11262032D03*
X8400000Y14300000D03*
D20*
X21249998Y6680000D03*
X27000000Y6600000D03*
D21*
X15700000Y11304000D03*
X18800000Y15000000D03*
X21660000Y13030000D03*
X11900000Y12600000D03*
X15700000Y10034000D03*
X17600000Y13700000D03*
X27391575Y5764579D03*
X32400000Y12679000D03*
X15700000Y12574000D03*
X15700000Y4954000D03*
X15700000Y6224000D03*
X15700000Y7494000D03*
X15700000Y8764000D03*
X12000000Y11300000D03*
X23000000Y8600000D03*
D20*
X41350000Y10500000D03*
D21*
X22615000Y12585000D03*
D20*
X35000000Y10500000D03*
X35100000Y7400000D03*
X41300000Y9500000D03*
D21*
X28150000Y9850000D03*
X25800000Y8100000D03*
X19000000Y9200000D03*
X22540000Y7000000D03*
D22*
X31700000Y16500000D03*
X31150000Y8250000D03*
D21*
X25672500Y3369000D03*
D20*
X14750000Y18150000D03*
D23*
X4400000Y9671326D02*
X4400000Y11900000D01*
X6155000Y12000000D02*
X6555000Y12400000D01*
X6600000Y7600000D02*
X6471326Y7600000D01*
X4300000Y12000000D02*
X4400000Y11900000D01*
X1799002Y12200000D02*
X1999002Y12000000D01*
X4500000Y12000000D02*
X6155000Y12000000D01*
X6471326Y7600000D02*
X4400000Y9671326D01*
X1999002Y12000000D02*
X4300000Y12000000D01*
X4400000Y11900000D02*
X4500000Y12000000D01*
D24*
X29167557Y3867557D02*
X29550000Y3867557D01*
D25*
X29550000Y13900000D02*
X29550000Y3867557D01*
D24*
X29550000Y3867557D02*
X34680193Y3867557D01*
X20300000Y2650000D02*
X27950000Y2650000D01*
X27950000Y2650000D02*
X29167557Y3867557D01*
D25*
X29325000Y14125000D02*
X29550000Y13900000D01*
X20800000Y17100000D02*
X26400000Y17100000D01*
X27500000Y15100000D02*
X27700000Y15300000D01*
X38075001Y18055000D02*
X38075001Y17274999D01*
X27700000Y15300000D02*
X28400000Y16000000D01*
X28400000Y16000000D02*
X28400000Y17609496D01*
X27500000Y11900000D02*
X27500000Y15100000D01*
X38075001Y17250000D02*
X38075001Y18055000D01*
X38934000Y16416000D02*
X42073000Y16416000D01*
X38075001Y17274999D02*
X38934000Y16416000D01*
X26048000Y10448000D02*
X27500000Y11900000D01*
X36650000Y17250000D02*
X38075001Y17250000D01*
X21100000Y15200000D02*
X27600000Y15200000D01*
X34700000Y19200000D02*
X36650000Y17250000D01*
X28400000Y17609496D02*
X29990504Y19200000D01*
X27600000Y15200000D02*
X27700000Y15300000D01*
X25859000Y10448000D02*
X26048000Y10448000D01*
X29990504Y19200000D02*
X34700000Y19200000D01*
D26*
X5896148Y10300000D02*
X7516200Y10300000D01*
X5276386Y9680238D02*
X5896148Y10300000D01*
D25*
X41897000Y13700000D02*
X42073000Y13876000D01*
X38300000Y3312362D02*
X38300000Y1950000D01*
X41100000Y13050000D02*
X41750000Y13700000D01*
X41750000Y13700000D02*
X41897000Y13700000D01*
X40408926Y5421287D02*
X38300000Y3312362D01*
D24*
X40138489Y6461511D02*
X33959264Y12640736D01*
X33959264Y14240736D02*
X33100000Y15100000D01*
D23*
X33250000Y16500000D02*
X32449000Y17301000D01*
D24*
X40388489Y6461511D02*
X40138489Y6461511D01*
X33250000Y15535000D02*
X33100000Y15385000D01*
D23*
X24589000Y10011000D02*
X24589000Y10448000D01*
X28699000Y11486000D02*
X26760000Y9547000D01*
X26760000Y9547000D02*
X25053000Y9547000D01*
X25053000Y9547000D02*
X24589000Y10011000D01*
D24*
X33959264Y12662208D02*
X33959264Y14240736D01*
X33100000Y15385000D02*
X33100000Y15100000D01*
X33250000Y16500000D02*
X33250000Y15535000D01*
D23*
X30701000Y17301000D02*
X28699000Y15299000D01*
D24*
X41829000Y6500000D02*
X42073000Y6256000D01*
D23*
X28699000Y15299000D02*
X28699000Y11486000D01*
D24*
X40388489Y6461511D02*
X40426978Y6500000D01*
D23*
X32449000Y17301000D02*
X30701000Y17301000D01*
D24*
X33959264Y12640736D02*
X33959264Y12662208D01*
X40426978Y6500000D02*
X41829000Y6500000D01*
D27*
X7500000Y11262032D02*
X7500000Y11300000D01*
X8400000Y12200000D02*
X8400000Y14300000D01*
X7500000Y11300000D02*
X8400000Y12200000D01*
D25*
X27000000Y6600000D02*
X26700000Y6300000D01*
X26700000Y6300000D02*
X21629998Y6300000D01*
X21629998Y6300000D02*
X21249998Y6680000D01*
X16750000Y12150000D02*
X16750000Y13664588D01*
X15904000Y11304000D02*
X16750000Y12150000D01*
X15700000Y11304000D02*
X15904000Y11304000D01*
X18085412Y15000000D02*
X18800000Y15000000D01*
X16750000Y13664588D02*
X18085412Y15000000D01*
X21660000Y13030000D02*
X21660000Y13740000D01*
X15377000Y16077000D02*
X11900000Y12600000D01*
X21660000Y13740000D02*
X19323000Y16077000D01*
X19323000Y16077000D02*
X15377000Y16077000D01*
X18500000Y7400000D02*
X18500000Y8620654D01*
X27391575Y5764579D02*
X20135421Y5764579D01*
X17600000Y10034000D02*
X17600000Y13700000D01*
X18500000Y8620654D02*
X17600000Y9520654D01*
X17600000Y9520654D02*
X17600000Y10034000D01*
X20135421Y5764579D02*
X18500000Y7400000D01*
X15700000Y10034000D02*
X17600000Y10034000D01*
X19038588Y15576000D02*
X16276000Y15576000D01*
X23000000Y8700000D02*
X20400000Y11300000D01*
X16276000Y15576000D02*
X12000000Y11300000D01*
X20400000Y11300000D02*
X20400000Y14214588D01*
X20400000Y14214588D02*
X19038588Y15576000D01*
X23000000Y8600000D02*
X23000000Y8700000D01*
X23900000Y13900000D02*
X25600000Y13900000D01*
X25600000Y13900000D02*
X25859000Y13641000D01*
X35100000Y10400000D02*
X35000000Y10500000D01*
X22615000Y12615000D02*
X23900000Y13900000D01*
X22615000Y12585000D02*
X22615000Y12615000D01*
X25859000Y13641000D02*
X25859000Y12988000D01*
X35100000Y7400000D02*
X35100000Y10400000D01*
X25800000Y8100000D02*
X26400000Y8100000D01*
X26400000Y8100000D02*
X28150000Y9850000D01*
X19000000Y9200000D02*
X19313416Y8886584D01*
X19313416Y8886584D02*
X20653416Y8886584D01*
X20653416Y8886584D02*
X22540000Y7000000D01*
D24*
X31150000Y14734998D02*
X31515002Y15100000D01*
X31700000Y15284998D02*
X31800002Y15184996D01*
X31800002Y15184996D02*
X31800002Y15100000D01*
X31515002Y15100000D02*
X31800002Y15100000D01*
X31700000Y16500000D02*
X31700000Y15284998D01*
X31150000Y8250000D02*
X31150000Y14734998D01*
D25*
X11324000Y14624000D02*
X14750000Y18050000D01*
X16227280Y3400000D02*
X11324000Y8303280D01*
X25641500Y3400000D02*
X16227280Y3400000D01*
X14750000Y18050000D02*
X14750000Y18150000D01*
X25672500Y3369000D02*
X25641500Y3400000D01*
X11324000Y8303280D02*
X11324000Y14624000D01*
%TA.AperFunction,Conductor*%
G36*
X29691288Y19679815D02*
G01*
X29737043Y19627011D01*
X29746987Y19557853D01*
X29717962Y19494297D01*
X29711930Y19487819D01*
X28079522Y17855412D01*
X28079518Y17855406D01*
X28026792Y17764084D01*
X28018872Y17734522D01*
X28018872Y17734521D01*
X27999500Y17662223D01*
X27999500Y16217255D01*
X27979815Y16150216D01*
X27963181Y16129574D01*
X27470426Y15636819D01*
X27409103Y15603334D01*
X27382745Y15600500D01*
X21390539Y15600500D01*
X21328541Y15617112D01*
X21283536Y15643095D01*
X21283537Y15643095D01*
X21225541Y15658635D01*
X21162601Y15675500D01*
X21037399Y15675500D01*
X20974459Y15658635D01*
X20916463Y15643095D01*
X20808037Y15580496D01*
X20808034Y15580494D01*
X20719504Y15491964D01*
X20710599Y15476539D01*
X20660030Y15428325D01*
X20591423Y15415104D01*
X20526559Y15441073D01*
X20515532Y15450861D01*
X19568915Y16397478D01*
X19568913Y16397480D01*
X19502315Y16435931D01*
X19477589Y16450207D01*
X19426657Y16463854D01*
X19375727Y16477500D01*
X19375726Y16477500D01*
X15437339Y16477500D01*
X15437323Y16477501D01*
X15429727Y16477501D01*
X15324273Y16477501D01*
X15270287Y16463035D01*
X15222412Y16450207D01*
X15131084Y16397478D01*
X15056518Y16322911D01*
X11936181Y13202575D01*
X11874858Y13169090D01*
X11805166Y13174074D01*
X11749233Y13215946D01*
X11724816Y13281410D01*
X11724500Y13290256D01*
X11724500Y14406746D01*
X11744185Y14473785D01*
X11760819Y14494427D01*
X14428993Y17162601D01*
X20324500Y17162601D01*
X20324500Y17037399D01*
X20356905Y16916464D01*
X20419505Y16808036D01*
X20508036Y16719505D01*
X20616464Y16656905D01*
X20737399Y16624500D01*
X20737401Y16624500D01*
X20862599Y16624500D01*
X20862601Y16624500D01*
X20983536Y16656905D01*
X21028541Y16682889D01*
X21090539Y16699500D01*
X26109461Y16699500D01*
X26171458Y16682889D01*
X26216464Y16656905D01*
X26337399Y16624500D01*
X26337401Y16624500D01*
X26462599Y16624500D01*
X26462601Y16624500D01*
X26583536Y16656905D01*
X26691964Y16719505D01*
X26780495Y16808036D01*
X26843095Y16916464D01*
X26875500Y17037399D01*
X26875500Y17162601D01*
X26843095Y17283536D01*
X26780495Y17391964D01*
X26691964Y17480495D01*
X26583536Y17543095D01*
X26583537Y17543095D01*
X26543224Y17553897D01*
X26462601Y17575500D01*
X26337399Y17575500D01*
X26256775Y17553897D01*
X26216463Y17543095D01*
X26210978Y17539928D01*
X26171458Y17517112D01*
X26109461Y17500500D01*
X21090539Y17500500D01*
X21028541Y17517112D01*
X20983536Y17543095D01*
X20983537Y17543095D01*
X20943224Y17553897D01*
X20862601Y17575500D01*
X20737399Y17575500D01*
X20656775Y17553897D01*
X20616463Y17543095D01*
X20508037Y17480496D01*
X20508034Y17480494D01*
X20419506Y17391966D01*
X20419504Y17391963D01*
X20356905Y17283537D01*
X20352706Y17267865D01*
X20324500Y17162601D01*
X14428993Y17162601D01*
X14674573Y17408181D01*
X14735896Y17441666D01*
X14762254Y17444500D01*
X15249673Y17444500D01*
X15249674Y17444500D01*
X15280137Y17450560D01*
X15349726Y17444334D01*
X15354415Y17442377D01*
X15455119Y17397912D01*
X15455124Y17397911D01*
X15480206Y17395001D01*
X15774999Y17395001D01*
X15775000Y17395002D01*
X15775000Y17408544D01*
X16275000Y17408544D01*
X16414395Y17451981D01*
X16559877Y17539928D01*
X16680072Y17660123D01*
X16768019Y17805605D01*
X16818590Y17967894D01*
X16825000Y18038428D01*
X16825000Y18045000D01*
X16275000Y18045000D01*
X16275000Y17408544D01*
X15775000Y17408544D01*
X15775000Y18545000D01*
X16275000Y18545000D01*
X16824999Y18545000D01*
X16824999Y18551583D01*
X16818591Y18622103D01*
X16818590Y18622108D01*
X16768018Y18784397D01*
X16680072Y18929878D01*
X16559877Y19050073D01*
X16414396Y19138019D01*
X16414395Y19138020D01*
X16275000Y19181458D01*
X16275000Y18545000D01*
X15775000Y18545000D01*
X15775000Y19195000D01*
X15480214Y19195000D01*
X15480191Y19194998D01*
X15455130Y19192092D01*
X15455126Y19192091D01*
X15354414Y19147623D01*
X15285135Y19138553D01*
X15280138Y19139441D01*
X15249677Y19145500D01*
X15249674Y19145500D01*
X14559306Y19145500D01*
X14559298Y19145500D01*
X14522432Y19142599D01*
X14522426Y19142598D01*
X14364606Y19096746D01*
X14364603Y19096745D01*
X14223137Y19013083D01*
X14223129Y19013077D01*
X14106923Y18896871D01*
X14106917Y18896863D01*
X14023255Y18755397D01*
X14023254Y18755394D01*
X13977402Y18597574D01*
X13977401Y18597568D01*
X13974500Y18560702D01*
X13974500Y18029299D01*
X13977401Y17992437D01*
X13977403Y17992428D01*
X13990404Y17947676D01*
X13990203Y17877807D01*
X13959008Y17825402D01*
X11003522Y14869916D01*
X11003520Y14869913D01*
X10950793Y14778588D01*
X10934969Y14719531D01*
X10934969Y14719530D01*
X10934968Y14719531D01*
X10923500Y14676729D01*
X10923500Y8250554D01*
X10950793Y8148691D01*
X10973269Y8109763D01*
X11003520Y8057367D01*
X15981367Y3079520D01*
X16072692Y3026793D01*
X16174553Y2999500D01*
X19555766Y2999500D01*
X19622805Y2979815D01*
X19668560Y2927011D01*
X19678504Y2857853D01*
X19674662Y2840568D01*
X19649500Y2714072D01*
X19649500Y2714069D01*
X19649500Y2585931D01*
X19649500Y2585929D01*
X19649499Y2585929D01*
X19674497Y2460262D01*
X19674499Y2460256D01*
X19723533Y2341876D01*
X19723538Y2341867D01*
X19794723Y2235332D01*
X19794726Y2235328D01*
X19885327Y2144727D01*
X19885331Y2144724D01*
X19991866Y2073539D01*
X19991872Y2073536D01*
X19991873Y2073535D01*
X20110256Y2024499D01*
X20110260Y2024499D01*
X20110261Y2024498D01*
X20235928Y1999500D01*
X20235931Y1999500D01*
X20364071Y1999500D01*
X20448615Y2016318D01*
X20489744Y2024499D01*
X20608127Y2073535D01*
X20690541Y2128602D01*
X20757218Y2149480D01*
X20759432Y2149500D01*
X28015890Y2149500D01*
X28015892Y2149500D01*
X28143186Y2183608D01*
X28257314Y2249500D01*
X29338552Y3330738D01*
X29399875Y3364223D01*
X29426233Y3367057D01*
X29484108Y3367057D01*
X34220761Y3367057D01*
X34287800Y3347372D01*
X34289652Y3346159D01*
X34372059Y3291096D01*
X34372065Y3291093D01*
X34372066Y3291092D01*
X34490449Y3242056D01*
X34490453Y3242056D01*
X34490454Y3242055D01*
X34616121Y3217057D01*
X34616124Y3217057D01*
X34744264Y3217057D01*
X34828808Y3233875D01*
X34869937Y3242056D01*
X34988320Y3291092D01*
X35094862Y3362281D01*
X35185469Y3452888D01*
X35256658Y3559430D01*
X35305694Y3677813D01*
X35330693Y3803488D01*
X35330693Y3931626D01*
X35330693Y3931629D01*
X35305695Y4057296D01*
X35305694Y4057297D01*
X35305694Y4057301D01*
X35256658Y4175684D01*
X35256657Y4175685D01*
X35256654Y4175691D01*
X35185469Y4282226D01*
X35185466Y4282230D01*
X35094865Y4372831D01*
X35094861Y4372834D01*
X34988326Y4444019D01*
X34988317Y4444024D01*
X34869937Y4493058D01*
X34869931Y4493060D01*
X34744264Y4518057D01*
X34744262Y4518057D01*
X34616124Y4518057D01*
X34616122Y4518057D01*
X34490454Y4493060D01*
X34490448Y4493058D01*
X34372068Y4444024D01*
X34372059Y4444019D01*
X34289652Y4388955D01*
X34222975Y4368077D01*
X34220761Y4368057D01*
X30074500Y4368057D01*
X30007461Y4387742D01*
X29961706Y4440546D01*
X29950500Y4492057D01*
X29950500Y13952728D01*
X29945761Y13970412D01*
X29945760Y13970416D01*
X29923208Y14054587D01*
X29905640Y14085014D01*
X29870480Y14145913D01*
X29813638Y14202755D01*
X29781545Y14258341D01*
X29768095Y14308536D01*
X29705495Y14416964D01*
X29616964Y14505495D01*
X29508536Y14568095D01*
X29508537Y14568095D01*
X29468224Y14578897D01*
X29387601Y14600500D01*
X29273500Y14600500D01*
X29206461Y14620185D01*
X29160706Y14672989D01*
X29149500Y14724500D01*
X29149500Y15061035D01*
X29169185Y15128074D01*
X29185819Y15148716D01*
X30851284Y16814181D01*
X30878211Y16828885D01*
X30904030Y16845477D01*
X30910230Y16846369D01*
X30912607Y16847666D01*
X30938965Y16850500D01*
X30956069Y16850500D01*
X31023108Y16830815D01*
X31068863Y16778011D01*
X31078807Y16708853D01*
X31074730Y16690506D01*
X31074498Y16689743D01*
X31049500Y16564072D01*
X31049500Y16564069D01*
X31049500Y16435931D01*
X31049500Y16435929D01*
X31049499Y16435929D01*
X31074497Y16310262D01*
X31074499Y16310256D01*
X31123533Y16191876D01*
X31123538Y16191867D01*
X31178602Y16109459D01*
X31199480Y16042782D01*
X31199500Y16040568D01*
X31199500Y15765513D01*
X31182232Y15702393D01*
X31098259Y15560401D01*
X31098256Y15560394D01*
X31052404Y15402574D01*
X31052402Y15402560D01*
X31051092Y15385917D01*
X31041833Y15361626D01*
X31036307Y15336223D01*
X31027838Y15324911D01*
X31026207Y15320630D01*
X31015156Y15307969D01*
X30842686Y15135498D01*
X30749502Y15042315D01*
X30749500Y15042312D01*
X30683608Y14928186D01*
X30649500Y14800890D01*
X30649500Y8709433D01*
X30629815Y8642394D01*
X30628602Y8640543D01*
X30573541Y8558139D01*
X30573533Y8558125D01*
X30524499Y8439745D01*
X30524497Y8439739D01*
X30499500Y8314072D01*
X30499500Y8314069D01*
X30499500Y8185931D01*
X30499500Y8185929D01*
X30499499Y8185929D01*
X30524497Y8060262D01*
X30524499Y8060256D01*
X30573533Y7941876D01*
X30573538Y7941867D01*
X30644723Y7835332D01*
X30644726Y7835328D01*
X30735327Y7744727D01*
X30735331Y7744724D01*
X30841866Y7673539D01*
X30841872Y7673536D01*
X30841873Y7673535D01*
X30960256Y7624499D01*
X30960260Y7624499D01*
X30960261Y7624498D01*
X31085928Y7599500D01*
X31085931Y7599500D01*
X31214071Y7599500D01*
X31303327Y7617255D01*
X31339744Y7624499D01*
X31458127Y7673535D01*
X31564669Y7744724D01*
X31655276Y7835331D01*
X31726465Y7941873D01*
X31775501Y8060256D01*
X31786731Y8116709D01*
X31800500Y8185929D01*
X31800500Y8314072D01*
X31775502Y8439739D01*
X31775501Y8439740D01*
X31775501Y8439744D01*
X31735050Y8537401D01*
X31726466Y8558125D01*
X31726458Y8558139D01*
X31671398Y8640543D01*
X31650520Y8707220D01*
X31650500Y8709433D01*
X31650500Y12187019D01*
X31670185Y12254058D01*
X31722989Y12299813D01*
X31792147Y12309757D01*
X31855703Y12280732D01*
X31862181Y12274700D01*
X31972838Y12164043D01*
X31972847Y12164036D01*
X32021262Y12135404D01*
X32108874Y12083590D01*
X32260637Y12039499D01*
X32296101Y12036708D01*
X32422426Y12036709D01*
X32422437Y12036710D01*
X32422440Y12036710D01*
X32425702Y12036967D01*
X32457891Y12039499D01*
X32609654Y12083590D01*
X32745684Y12164038D01*
X32857434Y12275788D01*
X32937882Y12411818D01*
X32981973Y12563581D01*
X32984764Y12599045D01*
X32984763Y12725370D01*
X32981973Y12760835D01*
X32937882Y12912598D01*
X32862198Y13040572D01*
X32857436Y13048625D01*
X32857429Y13048634D01*
X32745689Y13160374D01*
X32745680Y13160381D01*
X32609654Y13240826D01*
X32609649Y13240828D01*
X32457897Y13284916D01*
X32457884Y13284918D01*
X32422427Y13287708D01*
X32296113Y13287708D01*
X32296087Y13287707D01*
X32260636Y13284917D01*
X32108878Y13240828D01*
X32108873Y13240826D01*
X31972847Y13160381D01*
X31972838Y13160374D01*
X31862181Y13049716D01*
X31800858Y13016231D01*
X31731166Y13021215D01*
X31675233Y13063087D01*
X31650816Y13128551D01*
X31650500Y13137397D01*
X31650500Y14125500D01*
X31670185Y14192539D01*
X31722989Y14238294D01*
X31774500Y14249500D01*
X32324678Y14249500D01*
X32324679Y14249501D01*
X32349250Y14254389D01*
X32397739Y14264033D01*
X32397740Y14264034D01*
X32397742Y14264034D01*
X32397742Y14264035D01*
X32402544Y14266023D01*
X32472013Y14273495D01*
X32497458Y14266023D01*
X32502262Y14264033D01*
X32575321Y14249501D01*
X32575324Y14249500D01*
X32575326Y14249500D01*
X33191324Y14249500D01*
X33220764Y14240856D01*
X33250751Y14234332D01*
X33255766Y14230578D01*
X33258363Y14229815D01*
X33279005Y14213181D01*
X33422445Y14069741D01*
X33455930Y14008418D01*
X33458764Y13982060D01*
X33458764Y13078612D01*
X33441496Y13015492D01*
X33380648Y12912603D01*
X33380644Y12912594D01*
X33336556Y12760842D01*
X33336554Y12760829D01*
X33333764Y12725379D01*
X33333764Y12599058D01*
X33333765Y12599032D01*
X33336555Y12563581D01*
X33380644Y12411823D01*
X33380646Y12411818D01*
X33461091Y12275792D01*
X33461098Y12275783D01*
X33572838Y12164043D01*
X33572847Y12164036D01*
X33621262Y12135404D01*
X33708874Y12083590D01*
X33818858Y12051637D01*
X33871944Y12020242D01*
X34731373Y11160813D01*
X34764858Y11099490D01*
X34759874Y11029798D01*
X34718002Y10973865D01*
X34705695Y10965746D01*
X34661985Y10940509D01*
X34661982Y10940507D01*
X34559493Y10838018D01*
X34559488Y10838012D01*
X34487017Y10712489D01*
X34487016Y10712485D01*
X34449500Y10572475D01*
X34449500Y10427525D01*
X34487016Y10287515D01*
X34487017Y10287512D01*
X34559488Y10161989D01*
X34559493Y10161983D01*
X34663181Y10058295D01*
X34696666Y9996972D01*
X34699500Y9970614D01*
X34699500Y7829386D01*
X34679815Y7762347D01*
X34663181Y7741705D01*
X34659493Y7738018D01*
X34659488Y7738012D01*
X34587017Y7612489D01*
X34587016Y7612485D01*
X34549500Y7472475D01*
X34549500Y7327525D01*
X34578873Y7217906D01*
X34587017Y7187512D01*
X34659488Y7061989D01*
X34659490Y7061987D01*
X34659491Y7061985D01*
X34761985Y6959491D01*
X34761986Y6959490D01*
X34761988Y6959489D01*
X34887511Y6887018D01*
X34887512Y6887018D01*
X34887515Y6887016D01*
X35027525Y6849500D01*
X35027528Y6849500D01*
X35172472Y6849500D01*
X35172475Y6849500D01*
X35312485Y6887016D01*
X35438015Y6959491D01*
X35540509Y7061985D01*
X35612984Y7187515D01*
X35650500Y7327525D01*
X35650500Y7472475D01*
X35612984Y7612485D01*
X35606048Y7624498D01*
X35540511Y7738012D01*
X35540506Y7738018D01*
X35536819Y7741705D01*
X35503334Y7803028D01*
X35500500Y7829386D01*
X35500500Y10092324D01*
X35520185Y10159363D01*
X35572989Y10205118D01*
X35642147Y10215062D01*
X35705703Y10186037D01*
X35712181Y10180005D01*
X39737989Y6154197D01*
X39831175Y6061011D01*
X39906639Y6017442D01*
X39922993Y6006162D01*
X39927866Y6002189D01*
X39973820Y5956235D01*
X40031486Y5917704D01*
X40036051Y5913982D01*
X40052613Y5889835D01*
X40071389Y5867368D01*
X40072143Y5861359D01*
X40075571Y5856362D01*
X40076448Y5827093D01*
X40080098Y5798043D01*
X40077483Y5792579D01*
X40077665Y5786524D01*
X40062580Y5761429D01*
X40049943Y5735015D01*
X40045377Y5730198D01*
X40028433Y5713254D01*
X40028430Y5713250D01*
X39965831Y5604824D01*
X39965829Y5604819D01*
X39952380Y5554628D01*
X39920287Y5499043D01*
X37979522Y3558278D01*
X37979520Y3558275D01*
X37926793Y3466951D01*
X37912912Y3415144D01*
X37899500Y3365091D01*
X37899500Y2893564D01*
X37879815Y2826525D01*
X37827011Y2780770D01*
X37810095Y2774488D01*
X37714607Y2746747D01*
X37714604Y2746745D01*
X37573138Y2663083D01*
X37573130Y2663077D01*
X37456924Y2546871D01*
X37456918Y2546863D01*
X37373256Y2405397D01*
X37373255Y2405394D01*
X37327403Y2247574D01*
X37327402Y2247568D01*
X37324501Y2210702D01*
X37324501Y1679299D01*
X37327402Y1642433D01*
X37327403Y1642427D01*
X37373255Y1484607D01*
X37373256Y1484604D01*
X37373257Y1484602D01*
X37375041Y1481586D01*
X37456918Y1343138D01*
X37456924Y1343130D01*
X37573130Y1226924D01*
X37573134Y1226921D01*
X37573136Y1226919D01*
X37714603Y1143256D01*
X37756225Y1131164D01*
X37872427Y1097403D01*
X37872430Y1097403D01*
X37872432Y1097402D01*
X37909307Y1094500D01*
X37909315Y1094500D01*
X38599676Y1094500D01*
X38630135Y1100559D01*
X38699727Y1094332D01*
X38704413Y1092377D01*
X38805122Y1047911D01*
X38830205Y1045001D01*
X39124998Y1045001D01*
X39124999Y1045002D01*
X39124999Y1058544D01*
X39624999Y1058544D01*
X39764394Y1101981D01*
X39909876Y1189928D01*
X40030071Y1310123D01*
X40118018Y1455605D01*
X40168589Y1617894D01*
X40174999Y1688428D01*
X40174999Y1695000D01*
X39624999Y1695000D01*
X39624999Y1058544D01*
X39124999Y1058544D01*
X39124999Y2195000D01*
X39624999Y2195000D01*
X40174998Y2195000D01*
X40174998Y2201583D01*
X40168590Y2272103D01*
X40168589Y2272108D01*
X40118017Y2434397D01*
X40030071Y2579878D01*
X39909876Y2700073D01*
X39764395Y2788019D01*
X39764394Y2788020D01*
X39657869Y2821215D01*
X40523001Y2821215D01*
X40523002Y2821192D01*
X40525908Y2796131D01*
X40525909Y2796127D01*
X40571211Y2693526D01*
X40571214Y2693521D01*
X40650520Y2614215D01*
X40650525Y2614212D01*
X40753123Y2568911D01*
X40778206Y2566001D01*
X41822999Y2566001D01*
X41823000Y2566002D01*
X41823000Y3466000D01*
X40523001Y3466000D01*
X40523001Y2821215D01*
X39657869Y2821215D01*
X39624999Y2831458D01*
X39624999Y2195000D01*
X39124999Y2195000D01*
X39124999Y2845000D01*
X39124998Y2845000D01*
X38826626Y2844999D01*
X38826626Y2846238D01*
X38819328Y2847933D01*
X38806853Y2846139D01*
X38785939Y2855690D01*
X38763547Y2860892D01*
X38754761Y2869929D01*
X38743297Y2875164D01*
X38730867Y2894505D01*
X38714842Y2910988D01*
X38711433Y2924745D01*
X38705523Y2933942D01*
X38700500Y2968877D01*
X38700500Y3095107D01*
X38720185Y3162146D01*
X38736819Y3182788D01*
X39159074Y3605043D01*
X39729722Y4175691D01*
X40322520Y4768490D01*
X40383841Y4801973D01*
X40453533Y4796989D01*
X40509466Y4755117D01*
X40533883Y4689653D01*
X40526200Y4645464D01*
X40528359Y4644876D01*
X40525910Y4635876D01*
X40523000Y4610795D01*
X40523000Y3966000D01*
X41823000Y3966000D01*
X41823000Y4866000D01*
X40825459Y4866000D01*
X40758420Y4885685D01*
X40712665Y4938489D01*
X40702721Y5007647D01*
X40731746Y5071203D01*
X40737765Y5077668D01*
X40789421Y5129323D01*
X40803413Y5153558D01*
X40853979Y5201775D01*
X40922586Y5214999D01*
X40960051Y5205360D01*
X40962597Y5204259D01*
X40962602Y5204256D01*
X40971142Y5201775D01*
X41120426Y5158403D01*
X41120429Y5158403D01*
X41120431Y5158402D01*
X41157306Y5155500D01*
X41157314Y5155500D01*
X42988686Y5155500D01*
X42988694Y5155500D01*
X43025569Y5158402D01*
X43025571Y5158403D01*
X43025573Y5158403D01*
X43067191Y5170495D01*
X43183398Y5204256D01*
X43324865Y5287919D01*
X43441081Y5404135D01*
X43468768Y5450953D01*
X43519836Y5498635D01*
X43588578Y5511139D01*
X43653167Y5484494D01*
X43693098Y5427159D01*
X43699500Y5387831D01*
X43699500Y4913127D01*
X43679815Y4846088D01*
X43627011Y4800333D01*
X43557853Y4790389D01*
X43506650Y4813773D01*
X43504954Y4811295D01*
X43495474Y4817789D01*
X43392876Y4863090D01*
X43367794Y4866000D01*
X42323000Y4866000D01*
X42323000Y2566001D01*
X43367786Y2566001D01*
X43367808Y2566003D01*
X43392869Y2568909D01*
X43392873Y2568910D01*
X43495474Y2614212D01*
X43504954Y2620705D01*
X43507344Y2617216D01*
X43549142Y2640039D01*
X43618834Y2635055D01*
X43674767Y2593183D01*
X43699184Y2527719D01*
X43699500Y2518873D01*
X43699500Y2004428D01*
X43699184Y1995582D01*
X43682834Y1766983D01*
X43680316Y1749471D01*
X43632543Y1529863D01*
X43627559Y1512888D01*
X43549019Y1302312D01*
X43541669Y1286218D01*
X43433959Y1088964D01*
X43424394Y1074081D01*
X43289710Y894164D01*
X43278124Y880793D01*
X43119207Y721876D01*
X43105836Y710290D01*
X42925919Y575606D01*
X42911036Y566041D01*
X42713782Y458331D01*
X42697688Y450981D01*
X42487112Y372441D01*
X42470137Y367457D01*
X42250529Y319684D01*
X42233017Y317166D01*
X42004418Y300816D01*
X41995572Y300500D01*
X2004428Y300500D01*
X1995582Y300816D01*
X1766982Y317166D01*
X1749470Y319684D01*
X1529862Y367457D01*
X1512887Y372441D01*
X1302311Y450981D01*
X1286217Y458331D01*
X1088963Y566041D01*
X1074080Y575606D01*
X894163Y710290D01*
X880792Y721876D01*
X721875Y880793D01*
X710289Y894164D01*
X575605Y1074081D01*
X566040Y1088964D01*
X563017Y1094501D01*
X458327Y1286223D01*
X450983Y1302306D01*
X372437Y1512897D01*
X367458Y1529856D01*
X319683Y1749471D01*
X317165Y1766983D01*
X311171Y1850788D01*
X300816Y1995582D01*
X300500Y2004428D01*
X300500Y2106287D01*
X649500Y2106287D01*
X649500Y1893713D01*
X682754Y1683757D01*
X732757Y1529863D01*
X748444Y1481586D01*
X844951Y1292180D01*
X969890Y1120214D01*
X1120213Y969891D01*
X1292179Y844952D01*
X1292181Y844951D01*
X1292184Y844949D01*
X1481588Y748443D01*
X1683757Y682754D01*
X1893713Y649500D01*
X1893714Y649500D01*
X2106286Y649500D01*
X2106287Y649500D01*
X2316243Y682754D01*
X2518412Y748443D01*
X2707816Y844949D01*
X2729789Y860914D01*
X2879786Y969891D01*
X2879788Y969894D01*
X2879792Y969896D01*
X3030104Y1120208D01*
X3030106Y1120212D01*
X3030109Y1120214D01*
X3155048Y1292180D01*
X3155047Y1292180D01*
X3155051Y1292184D01*
X3251557Y1481588D01*
X3317246Y1683757D01*
X3321846Y1712797D01*
X29498499Y1712797D01*
X29525418Y1577470D01*
X29525421Y1577460D01*
X29578221Y1449988D01*
X29578228Y1449975D01*
X29654885Y1335251D01*
X29654888Y1335247D01*
X29752454Y1237681D01*
X29752458Y1237678D01*
X29867182Y1161021D01*
X29867195Y1161014D01*
X29994667Y1108214D01*
X29994672Y1108212D01*
X29994676Y1108212D01*
X29994677Y1108211D01*
X30130004Y1081292D01*
X30130007Y1081292D01*
X30267995Y1081292D01*
X30372003Y1101981D01*
X30403328Y1108212D01*
X30530811Y1161017D01*
X30645542Y1237678D01*
X30743114Y1335250D01*
X30819775Y1449981D01*
X30872580Y1577464D01*
X30885503Y1642433D01*
X30899500Y1712797D01*
X32498499Y1712797D01*
X32525418Y1577470D01*
X32525421Y1577460D01*
X32578221Y1449988D01*
X32578228Y1449975D01*
X32654885Y1335251D01*
X32654888Y1335247D01*
X32752454Y1237681D01*
X32752458Y1237678D01*
X32867182Y1161021D01*
X32867195Y1161014D01*
X32994667Y1108214D01*
X32994672Y1108212D01*
X32994676Y1108212D01*
X32994677Y1108211D01*
X33130004Y1081292D01*
X33130007Y1081292D01*
X33267995Y1081292D01*
X33372003Y1101981D01*
X33403328Y1108212D01*
X33530811Y1161017D01*
X33645542Y1237678D01*
X33743114Y1335250D01*
X33819775Y1449981D01*
X33872580Y1577464D01*
X33885503Y1642433D01*
X33899500Y1712797D01*
X33899500Y1850788D01*
X33872581Y1986115D01*
X33872580Y1986116D01*
X33872580Y1986120D01*
X33864997Y2004428D01*
X33819778Y2113597D01*
X33819771Y2113610D01*
X33743114Y2228334D01*
X33743111Y2228338D01*
X33645545Y2325904D01*
X33645541Y2325907D01*
X33530817Y2402564D01*
X33530804Y2402571D01*
X33403332Y2455371D01*
X33403322Y2455374D01*
X33267995Y2482292D01*
X33267993Y2482292D01*
X33130007Y2482292D01*
X33130005Y2482292D01*
X32994677Y2455374D01*
X32994667Y2455371D01*
X32867195Y2402571D01*
X32867182Y2402564D01*
X32752458Y2325907D01*
X32752454Y2325904D01*
X32654888Y2228338D01*
X32654885Y2228334D01*
X32578228Y2113610D01*
X32578221Y2113597D01*
X32525421Y1986125D01*
X32525418Y1986115D01*
X32498500Y1850788D01*
X32498500Y1850785D01*
X32498500Y1712799D01*
X32498500Y1712797D01*
X32498499Y1712797D01*
X30899500Y1712797D01*
X30899500Y1850788D01*
X30872581Y1986115D01*
X30872580Y1986116D01*
X30872580Y1986120D01*
X30864997Y2004428D01*
X30819778Y2113597D01*
X30819771Y2113610D01*
X30743114Y2228334D01*
X30743111Y2228338D01*
X30645545Y2325904D01*
X30645541Y2325907D01*
X30530817Y2402564D01*
X30530804Y2402571D01*
X30403332Y2455371D01*
X30403322Y2455374D01*
X30267995Y2482292D01*
X30267993Y2482292D01*
X30130007Y2482292D01*
X30130005Y2482292D01*
X29994677Y2455374D01*
X29994667Y2455371D01*
X29867195Y2402571D01*
X29867182Y2402564D01*
X29752458Y2325907D01*
X29752454Y2325904D01*
X29654888Y2228338D01*
X29654885Y2228334D01*
X29578228Y2113610D01*
X29578221Y2113597D01*
X29525421Y1986125D01*
X29525418Y1986115D01*
X29498500Y1850788D01*
X29498500Y1850785D01*
X29498500Y1712799D01*
X29498500Y1712797D01*
X29498499Y1712797D01*
X3321846Y1712797D01*
X3350500Y1893713D01*
X3350500Y2106287D01*
X3317246Y2316243D01*
X3251557Y2518412D01*
X3155051Y2707816D01*
X3155049Y2707819D01*
X3155048Y2707821D01*
X3030109Y2879787D01*
X2879786Y3030110D01*
X2707820Y3155049D01*
X2518414Y3251556D01*
X2518413Y3251557D01*
X2518412Y3251557D01*
X2316243Y3317246D01*
X2316241Y3317247D01*
X2316240Y3317247D01*
X2154957Y3342792D01*
X2106287Y3350500D01*
X1893713Y3350500D01*
X1845042Y3342792D01*
X1683760Y3317247D01*
X1481585Y3251556D01*
X1292179Y3155049D01*
X1120213Y3030110D01*
X969890Y2879787D01*
X844951Y2707821D01*
X748444Y2518415D01*
X682753Y2316240D01*
X656344Y2149501D01*
X649500Y2106287D01*
X300500Y2106287D01*
X300500Y6950001D01*
X1625000Y6950001D01*
X2019786Y6950001D01*
X2019808Y6950003D01*
X2044869Y6952909D01*
X2044873Y6952910D01*
X2147474Y6998212D01*
X2147479Y6998215D01*
X2226785Y7077521D01*
X2226788Y7077526D01*
X2272089Y7180123D01*
X2272089Y7180125D01*
X2274999Y7205206D01*
X2275000Y7205209D01*
X2275000Y7500000D01*
X1625000Y7500000D01*
X1625000Y6950001D01*
X300500Y6950001D01*
X300500Y7403413D01*
X320185Y7470452D01*
X372989Y7516207D01*
X442147Y7526151D01*
X505703Y7497126D01*
X520809Y7481519D01*
X527640Y7473096D01*
X998083Y7002654D01*
X998090Y7002648D01*
X1008384Y6994296D01*
X1112004Y6951376D01*
X1112007Y6951375D01*
X1124999Y6950020D01*
X1125000Y6950020D01*
X1125000Y7626000D01*
X1144685Y7693039D01*
X1197489Y7738794D01*
X1249000Y7750000D01*
X1375000Y7750000D01*
X1375000Y7876000D01*
X1394685Y7943039D01*
X1447489Y7988794D01*
X1499000Y8000000D01*
X2274999Y8000000D01*
X2274999Y8294786D01*
X2274997Y8294809D01*
X2272091Y8319870D01*
X2272090Y8319874D01*
X2226788Y8422475D01*
X2226785Y8422480D01*
X2147477Y8501788D01*
X2141635Y8505790D01*
X2097453Y8559917D01*
X2089548Y8629338D01*
X2112445Y8682395D01*
X2168796Y8757669D01*
X2219091Y8892517D01*
X2225500Y8952127D01*
X2225499Y9547872D01*
X2219091Y9607483D01*
X2216729Y9613815D01*
X2168797Y9742329D01*
X2168793Y9742336D01*
X2117123Y9811357D01*
X2082546Y9857546D01*
X2024854Y9900735D01*
X1982984Y9956667D01*
X1978000Y10026359D01*
X2011485Y10087682D01*
X2024854Y10099266D01*
X2082546Y10142454D01*
X2168796Y10257669D01*
X2219091Y10392517D01*
X2225500Y10452127D01*
X2225499Y11047872D01*
X2219091Y11107483D01*
X2215833Y11116217D01*
X2168797Y11242329D01*
X2168793Y11242336D01*
X2087305Y11351189D01*
X2062887Y11416653D01*
X2077738Y11484926D01*
X2127143Y11534332D01*
X2186571Y11549500D01*
X3825500Y11549500D01*
X3892539Y11529815D01*
X3938294Y11477011D01*
X3949500Y11425500D01*
X3949500Y9612018D01*
X3972384Y9526613D01*
X3972384Y9526612D01*
X3980199Y9497443D01*
X3980200Y9497441D01*
X3980201Y9497439D01*
X4039511Y9394712D01*
X4039513Y9394710D01*
X5537042Y7897181D01*
X5570527Y7835858D01*
X5565543Y7766166D01*
X5523671Y7710233D01*
X5458207Y7685816D01*
X5449361Y7685500D01*
X5404234Y7685500D01*
X5257863Y7646281D01*
X5126635Y7570515D01*
X5126632Y7570513D01*
X5019487Y7463368D01*
X5019485Y7463365D01*
X4943719Y7332137D01*
X4911663Y7212498D01*
X4904500Y7185766D01*
X4904500Y7034234D01*
X4915201Y6994296D01*
X4943719Y6887864D01*
X4967935Y6845921D01*
X5019485Y6756635D01*
X5126635Y6649485D01*
X5257865Y6573719D01*
X5404234Y6534500D01*
X5404236Y6534500D01*
X5555764Y6534500D01*
X5555766Y6534500D01*
X5702135Y6573719D01*
X5833365Y6649485D01*
X5940515Y6756635D01*
X6016281Y6887865D01*
X6055500Y7034234D01*
X6055500Y7105112D01*
X6075185Y7172151D01*
X6127989Y7217906D01*
X6197147Y7227850D01*
X6241497Y7212500D01*
X6297440Y7180201D01*
X6412017Y7149500D01*
X6427773Y7149500D01*
X6459866Y7145275D01*
X6472111Y7141994D01*
X6537399Y7124500D01*
X6537401Y7124500D01*
X6662599Y7124500D01*
X6662601Y7124500D01*
X6783536Y7156905D01*
X6891964Y7219505D01*
X6980495Y7308036D01*
X7043095Y7416464D01*
X7075500Y7537399D01*
X7075500Y7662601D01*
X7043095Y7783536D01*
X6980495Y7891964D01*
X6891964Y7980495D01*
X6783536Y8043095D01*
X6783537Y8043095D01*
X6734640Y8056197D01*
X6662601Y8075500D01*
X6662600Y8075500D01*
X6654751Y8077603D01*
X6655637Y8080913D01*
X6606184Y8102841D01*
X6598666Y8109763D01*
X5576199Y9132230D01*
X5542714Y9193553D01*
X5547698Y9263245D01*
X5576199Y9307592D01*
X5611944Y9343337D01*
X5656881Y9388274D01*
X5719481Y9496702D01*
X5751886Y9617637D01*
X5751886Y9617642D01*
X5752823Y9624754D01*
X5781088Y9688651D01*
X5788069Y9696240D01*
X6005011Y9913181D01*
X6066334Y9946666D01*
X6092692Y9949500D01*
X7143054Y9949500D01*
X7210093Y9929815D01*
X7218543Y9923874D01*
X7224232Y9919509D01*
X7224236Y9919505D01*
X7332664Y9856905D01*
X7453599Y9824500D01*
X7453601Y9824500D01*
X7578799Y9824500D01*
X7578801Y9824500D01*
X7699736Y9856905D01*
X7808164Y9919505D01*
X7896695Y10008036D01*
X7959295Y10116464D01*
X7991700Y10237399D01*
X7991700Y10362601D01*
X7959295Y10483536D01*
X7896695Y10591964D01*
X7808164Y10680495D01*
X7808162Y10680496D01*
X7801713Y10685445D01*
X7802877Y10686963D01*
X7761907Y10729936D01*
X7748688Y10798544D01*
X7774660Y10863407D01*
X7786702Y10875305D01*
X7786217Y10875790D01*
X7829934Y10919507D01*
X7880495Y10970068D01*
X7943095Y11078496D01*
X7975500Y11199431D01*
X7975500Y11199434D01*
X7976561Y11207490D01*
X7979607Y11207089D01*
X7995185Y11260140D01*
X8011819Y11280782D01*
X8330303Y11599266D01*
X8700474Y11969437D01*
X8700475Y11969438D01*
X8749910Y12055062D01*
X8755476Y12075835D01*
X8764498Y12109501D01*
X8771901Y12137132D01*
X8775500Y12150564D01*
X8775500Y12249436D01*
X8775500Y13966159D01*
X8792112Y14028158D01*
X8843095Y14116464D01*
X8875500Y14237399D01*
X8875500Y14362601D01*
X8843095Y14483536D01*
X8780495Y14591964D01*
X8691964Y14680495D01*
X8583536Y14743095D01*
X8583537Y14743095D01*
X8531997Y14756905D01*
X8462601Y14775500D01*
X8337399Y14775500D01*
X8268003Y14756905D01*
X8216463Y14743095D01*
X8108037Y14680496D01*
X8108034Y14680494D01*
X8019506Y14591966D01*
X8019504Y14591963D01*
X7956905Y14483537D01*
X7956905Y14483536D01*
X7924500Y14362601D01*
X7924500Y14237399D01*
X7956905Y14116464D01*
X8005030Y14033107D01*
X8007888Y14028158D01*
X8024500Y13966159D01*
X8024500Y12406900D01*
X8004815Y12339861D01*
X7988181Y12319219D01*
X7418676Y11749715D01*
X7363091Y11717622D01*
X7316468Y11705129D01*
X7316463Y11705127D01*
X7208037Y11642528D01*
X7208034Y11642526D01*
X7119506Y11553998D01*
X7119504Y11553995D01*
X7056905Y11445569D01*
X7042819Y11393000D01*
X7024500Y11324633D01*
X7024500Y11199431D01*
X7056905Y11078496D01*
X7119505Y10970068D01*
X7208036Y10881537D01*
X7208038Y10881536D01*
X7214487Y10876587D01*
X7213321Y10875069D01*
X7228684Y10858956D01*
X7252149Y10836074D01*
X7252674Y10833797D01*
X7254288Y10832104D01*
X7260490Y10799927D01*
X7267859Y10767993D01*
X7267069Y10765793D01*
X7267512Y10763497D01*
X7255333Y10733078D01*
X7244267Y10702227D01*
X7242089Y10699994D01*
X7241544Y10698632D01*
X7219626Y10676958D01*
X7218607Y10676175D01*
X7153455Y10650937D01*
X7143054Y10650500D01*
X5850004Y10650500D01*
X5760860Y10626614D01*
X5760857Y10626613D01*
X5680939Y10580473D01*
X5680934Y10580469D01*
X5292399Y10191934D01*
X5246066Y10162712D01*
X5226348Y10155738D01*
X5213785Y10155738D01*
X5092850Y10123333D01*
X5026617Y10085094D01*
X5015848Y10081285D01*
X4991899Y10079982D01*
X4968597Y10074329D01*
X4957651Y10078118D01*
X4946082Y10077488D01*
X4925231Y10089339D01*
X4902571Y10097182D01*
X4895409Y10106289D01*
X4885338Y10112013D01*
X4874205Y10133253D01*
X4859381Y10152104D01*
X4856506Y10167022D01*
X4852902Y10173898D01*
X4853620Y10181998D01*
X4850500Y10198188D01*
X4850500Y11425500D01*
X4870185Y11492539D01*
X4922989Y11538294D01*
X4974500Y11549500D01*
X6214307Y11549500D01*
X6214309Y11549500D01*
X6291330Y11570138D01*
X6307607Y11574499D01*
X6307609Y11574500D01*
X6317357Y11577112D01*
X6328885Y11580200D01*
X6349323Y11592000D01*
X6431614Y11639511D01*
X6751773Y11959672D01*
X6777449Y11979372D01*
X6805180Y11995382D01*
X6846964Y12019505D01*
X6935495Y12108036D01*
X6998095Y12216464D01*
X7030500Y12337399D01*
X7030500Y12462601D01*
X6998095Y12583536D01*
X6935495Y12691964D01*
X6846964Y12780495D01*
X6738536Y12843095D01*
X6738537Y12843095D01*
X6698224Y12853897D01*
X6617601Y12875500D01*
X6492399Y12875500D01*
X6411775Y12853897D01*
X6371463Y12843095D01*
X6263037Y12780496D01*
X6256591Y12775549D01*
X6254801Y12777881D01*
X6205858Y12751155D01*
X6136166Y12756139D01*
X6080233Y12798011D01*
X6055816Y12863475D01*
X6055500Y12872321D01*
X6055500Y12965764D01*
X6055500Y12965766D01*
X6016281Y13112135D01*
X5940515Y13243365D01*
X5833365Y13350515D01*
X5767540Y13388519D01*
X5702136Y13426281D01*
X5628950Y13445891D01*
X5555766Y13465500D01*
X5404234Y13465500D01*
X5257863Y13426281D01*
X5126635Y13350515D01*
X5126632Y13350513D01*
X5019487Y13243368D01*
X5019485Y13243365D01*
X4943719Y13112137D01*
X4906370Y12972746D01*
X4904500Y12965766D01*
X4904500Y12814234D01*
X4942441Y12672634D01*
X4943720Y12667863D01*
X4943720Y12667862D01*
X4961827Y12636500D01*
X4978300Y12568600D01*
X4955447Y12502573D01*
X4900526Y12459382D01*
X4854440Y12450500D01*
X4440689Y12450500D01*
X4432092Y12448196D01*
X4367908Y12448196D01*
X4359310Y12450500D01*
X4359309Y12450500D01*
X2480252Y12450500D01*
X2413213Y12470185D01*
X2377150Y12505609D01*
X2304278Y12614669D01*
X2304275Y12614673D01*
X2213674Y12705274D01*
X2213670Y12705277D01*
X2197037Y12716391D01*
X2166663Y12745180D01*
X2082546Y12857546D01*
X2015258Y12907918D01*
X1967335Y12943794D01*
X1967328Y12943798D01*
X1832482Y12994092D01*
X1832483Y12994092D01*
X1772883Y13000499D01*
X1772881Y13000500D01*
X1772873Y13000500D01*
X1772864Y13000500D01*
X977129Y13000500D01*
X977123Y13000499D01*
X917516Y12994092D01*
X782671Y12943798D01*
X782664Y12943794D01*
X667455Y12857548D01*
X667452Y12857545D01*
X581206Y12742336D01*
X581202Y12742329D01*
X540682Y12633687D01*
X498811Y12577753D01*
X433347Y12553336D01*
X365074Y12568188D01*
X315668Y12617593D01*
X300500Y12677020D01*
X300500Y17995573D01*
X300816Y18004419D01*
X308102Y18106287D01*
X649500Y18106287D01*
X649500Y17893714D01*
X674713Y17734521D01*
X682754Y17683757D01*
X740998Y17504500D01*
X748444Y17481586D01*
X844951Y17292180D01*
X969890Y17120214D01*
X1120213Y16969891D01*
X1292179Y16844952D01*
X1292181Y16844951D01*
X1292184Y16844949D01*
X1481588Y16748443D01*
X1683757Y16682754D01*
X1893713Y16649500D01*
X1893714Y16649500D01*
X2106286Y16649500D01*
X2106287Y16649500D01*
X2316243Y16682754D01*
X2518412Y16748443D01*
X2707816Y16844949D01*
X2825941Y16930771D01*
X2879786Y16969891D01*
X2879788Y16969894D01*
X2879792Y16969896D01*
X3030104Y17120208D01*
X3030106Y17120212D01*
X3030109Y17120214D01*
X3148769Y17283537D01*
X3155051Y17292184D01*
X3251557Y17481588D01*
X3317246Y17683757D01*
X3330174Y17765379D01*
X6373764Y17765379D01*
X6373764Y17639058D01*
X6373765Y17639032D01*
X6376555Y17603581D01*
X6420644Y17451823D01*
X6420646Y17451818D01*
X6501091Y17315792D01*
X6501098Y17315783D01*
X6612838Y17204043D01*
X6612847Y17204036D01*
X6617822Y17201094D01*
X6748874Y17123590D01*
X6900637Y17079499D01*
X6936101Y17076708D01*
X7062426Y17076709D01*
X7062437Y17076710D01*
X7062440Y17076710D01*
X7065702Y17076967D01*
X7097891Y17079499D01*
X7249654Y17123590D01*
X7385684Y17204038D01*
X7497434Y17315788D01*
X7577882Y17451818D01*
X7621973Y17603581D01*
X7624764Y17639045D01*
X7624763Y17762435D01*
X7973764Y17762435D01*
X7973764Y17636114D01*
X7973765Y17636088D01*
X7976555Y17600637D01*
X8020644Y17448879D01*
X8020646Y17448874D01*
X8101091Y17312848D01*
X8101098Y17312839D01*
X8212838Y17201099D01*
X8212847Y17201092D01*
X8261262Y17172460D01*
X8348874Y17120646D01*
X8500637Y17076555D01*
X8536101Y17073764D01*
X8662426Y17073765D01*
X8662437Y17073766D01*
X8662440Y17073766D01*
X8665702Y17074023D01*
X8697891Y17076555D01*
X8849654Y17120646D01*
X8985684Y17201094D01*
X9097434Y17312844D01*
X9177882Y17448874D01*
X9221973Y17600637D01*
X9224764Y17636101D01*
X9224763Y17762426D01*
X9221973Y17797891D01*
X9177882Y17949654D01*
X9124711Y18039562D01*
X9097436Y18085681D01*
X9097429Y18085690D01*
X8985689Y18197430D01*
X8985680Y18197437D01*
X8849654Y18277882D01*
X8849649Y18277884D01*
X8697897Y18321972D01*
X8697884Y18321974D01*
X8662427Y18324764D01*
X8536113Y18324764D01*
X8536087Y18324763D01*
X8500636Y18321973D01*
X8348878Y18277884D01*
X8348873Y18277882D01*
X8212847Y18197437D01*
X8212838Y18197430D01*
X8101098Y18085690D01*
X8101091Y18085681D01*
X8020646Y17949655D01*
X8020644Y17949650D01*
X7976556Y17797898D01*
X7976554Y17797885D01*
X7973764Y17762435D01*
X7624763Y17762435D01*
X7624763Y17765370D01*
X7621973Y17800835D01*
X7577882Y17952598D01*
X7497434Y18088628D01*
X7497432Y18088630D01*
X7497429Y18088634D01*
X7385689Y18200374D01*
X7385680Y18200381D01*
X7249654Y18280826D01*
X7249649Y18280828D01*
X7097897Y18324916D01*
X7097884Y18324918D01*
X7062427Y18327708D01*
X6936113Y18327708D01*
X6936087Y18327707D01*
X6900636Y18324917D01*
X6748878Y18280828D01*
X6748873Y18280826D01*
X6612847Y18200381D01*
X6612838Y18200374D01*
X6501098Y18088634D01*
X6501091Y18088625D01*
X6420646Y17952599D01*
X6420644Y17952594D01*
X6376556Y17800842D01*
X6376554Y17800829D01*
X6373764Y17765379D01*
X3330174Y17765379D01*
X3350500Y17893713D01*
X3350500Y18106287D01*
X3317246Y18316243D01*
X3251557Y18518412D01*
X3155051Y18707816D01*
X3155049Y18707819D01*
X3155048Y18707821D01*
X3030109Y18879787D01*
X2879786Y19030110D01*
X2707820Y19155049D01*
X2518414Y19251556D01*
X2518413Y19251557D01*
X2518412Y19251557D01*
X2316243Y19317246D01*
X2316241Y19317247D01*
X2316240Y19317247D01*
X2154957Y19342792D01*
X2106287Y19350500D01*
X1893713Y19350500D01*
X1845042Y19342792D01*
X1683760Y19317247D01*
X1481585Y19251556D01*
X1292179Y19155049D01*
X1120213Y19030110D01*
X969890Y18879787D01*
X844951Y18707821D01*
X748444Y18518415D01*
X682753Y18316240D01*
X649500Y18106287D01*
X308102Y18106287D01*
X309083Y18120005D01*
X309083Y18120006D01*
X314620Y18197434D01*
X317165Y18233021D01*
X319683Y18250530D01*
X326274Y18280828D01*
X367459Y18470149D01*
X372436Y18487100D01*
X450985Y18697701D01*
X458325Y18713773D01*
X566044Y18911044D01*
X575600Y18925914D01*
X710294Y19105844D01*
X721868Y19119201D01*
X880799Y19278132D01*
X894156Y19289706D01*
X1074086Y19424400D01*
X1088956Y19433956D01*
X1286227Y19541675D01*
X1302299Y19549015D01*
X1512900Y19627564D01*
X1529851Y19632541D01*
X1749472Y19680318D01*
X1766977Y19682835D01*
X1995582Y19699184D01*
X2004428Y19699500D01*
X2047595Y19699500D01*
X29624249Y19699500D01*
X29691288Y19679815D01*
G37*
%TD.AperFunction*%
%TA.AperFunction,Conductor*%
G36*
X19303661Y14728688D02*
G01*
X19348008Y14700187D01*
X19963181Y14085014D01*
X19996666Y14023691D01*
X19999500Y13997333D01*
X19999500Y11247274D01*
X20026793Y11145411D01*
X20053156Y11099750D01*
X20079520Y11054087D01*
X20079522Y11054085D01*
X22488181Y8645426D01*
X22521666Y8584103D01*
X22524500Y8557745D01*
X22524500Y8537399D01*
X22556905Y8416464D01*
X22619505Y8308036D01*
X22708036Y8219505D01*
X22816464Y8156905D01*
X22937399Y8124500D01*
X22937401Y8124500D01*
X23062599Y8124500D01*
X23062601Y8124500D01*
X23183536Y8156905D01*
X23291964Y8219505D01*
X23380495Y8308036D01*
X23443095Y8416464D01*
X23475500Y8537399D01*
X23475500Y8662601D01*
X23443095Y8783536D01*
X23397436Y8862621D01*
X23380496Y8891963D01*
X23291963Y8980496D01*
X23291961Y8980497D01*
X23291745Y8980622D01*
X23266066Y9000327D01*
X20836819Y11429574D01*
X20803334Y11490897D01*
X20800500Y11517255D01*
X20800500Y13733745D01*
X20820185Y13800784D01*
X20872989Y13846539D01*
X20942147Y13856483D01*
X21005703Y13827458D01*
X21012181Y13821426D01*
X21223181Y13610426D01*
X21237884Y13583499D01*
X21254477Y13557680D01*
X21255368Y13551480D01*
X21256666Y13549103D01*
X21259500Y13522745D01*
X21259500Y13320540D01*
X21242888Y13258542D01*
X21216907Y13213541D01*
X21216905Y13213538D01*
X21204061Y13165602D01*
X21184500Y13092601D01*
X21184500Y12967399D01*
X21216905Y12846464D01*
X21279505Y12738036D01*
X21368036Y12649505D01*
X21476464Y12586905D01*
X21597399Y12554500D01*
X21597401Y12554500D01*
X21722599Y12554500D01*
X21722601Y12554500D01*
X21843536Y12586905D01*
X21951964Y12649505D01*
X21951964Y12649506D01*
X21953500Y12650392D01*
X22021401Y12666865D01*
X22087428Y12644012D01*
X22130618Y12589091D01*
X22139500Y12543005D01*
X22139500Y12522399D01*
X22171905Y12401464D01*
X22234505Y12293036D01*
X22323036Y12204505D01*
X22431464Y12141905D01*
X22552399Y12109500D01*
X22552401Y12109500D01*
X22677599Y12109500D01*
X22677601Y12109500D01*
X22798536Y12141905D01*
X22906964Y12204505D01*
X22995495Y12293036D01*
X23058095Y12401464D01*
X23082526Y12492644D01*
X23114617Y12548225D01*
X23626819Y13060428D01*
X23688142Y13093912D01*
X23757834Y13088928D01*
X23813767Y13047056D01*
X23838184Y12981592D01*
X23838500Y12972746D01*
X23838500Y12914082D01*
X23838500Y12914080D01*
X23838499Y12914080D01*
X23867340Y12769093D01*
X23867343Y12769083D01*
X23923912Y12632512D01*
X23923919Y12632499D01*
X24006048Y12509585D01*
X24006051Y12509581D01*
X24039949Y12475683D01*
X24073434Y12414360D01*
X24068450Y12344668D01*
X24039949Y12300321D01*
X23967601Y12227974D01*
X23967598Y12227970D01*
X23880052Y12096949D01*
X23880047Y12096939D01*
X23826639Y11968001D01*
X23826639Y11968000D01*
X24379382Y11968000D01*
X24328936Y11917554D01*
X24286149Y11843445D01*
X24264000Y11760787D01*
X24264000Y11675213D01*
X24286149Y11592555D01*
X24328936Y11518446D01*
X24379382Y11468000D01*
X23826639Y11468000D01*
X23880047Y11339062D01*
X23880052Y11339052D01*
X23967598Y11208031D01*
X23967601Y11208027D01*
X24039949Y11135679D01*
X24073434Y11074356D01*
X24068450Y11004664D01*
X24039949Y10960317D01*
X24006051Y10926420D01*
X24006048Y10926416D01*
X23923919Y10803502D01*
X23923912Y10803489D01*
X23867343Y10666918D01*
X23867340Y10666908D01*
X23838500Y10521921D01*
X23838500Y10521918D01*
X23838500Y10374082D01*
X23838500Y10374080D01*
X23838499Y10374080D01*
X23867340Y10229093D01*
X23867343Y10229083D01*
X23923912Y10092512D01*
X23923919Y10092499D01*
X24006048Y9969585D01*
X24006051Y9969581D01*
X24110580Y9865052D01*
X24110588Y9865046D01*
X24155716Y9834892D01*
X24194212Y9793791D01*
X24228506Y9734393D01*
X24228509Y9734389D01*
X24228511Y9734386D01*
X24776386Y9186511D01*
X24879113Y9127201D01*
X24903321Y9120716D01*
X24903324Y9120714D01*
X24903325Y9120714D01*
X24933447Y9112643D01*
X24993691Y9096500D01*
X24993693Y9096500D01*
X26530744Y9096500D01*
X26597783Y9076815D01*
X26643538Y9024011D01*
X26653482Y8954853D01*
X26624457Y8891297D01*
X26618425Y8884819D01*
X26270426Y8536819D01*
X26243498Y8522116D01*
X26217680Y8505523D01*
X26211479Y8504632D01*
X26209103Y8503334D01*
X26182745Y8500500D01*
X26090539Y8500500D01*
X26028541Y8517112D01*
X25983536Y8543095D01*
X25983537Y8543095D01*
X25927444Y8558125D01*
X25862601Y8575500D01*
X25737399Y8575500D01*
X25672556Y8558125D01*
X25616463Y8543095D01*
X25508037Y8480496D01*
X25508034Y8480494D01*
X25419506Y8391966D01*
X25419504Y8391963D01*
X25356905Y8283537D01*
X25352160Y8265829D01*
X25324500Y8162601D01*
X25324500Y8037399D01*
X25356905Y7916464D01*
X25419505Y7808036D01*
X25508036Y7719505D01*
X25616464Y7656905D01*
X25737399Y7624500D01*
X25737401Y7624500D01*
X25862599Y7624500D01*
X25862601Y7624500D01*
X25983536Y7656905D01*
X26028541Y7682889D01*
X26090539Y7699500D01*
X26452725Y7699500D01*
X26452727Y7699500D01*
X26554588Y7726793D01*
X26645913Y7779520D01*
X28227754Y9361364D01*
X28283339Y9393455D01*
X28333536Y9406905D01*
X28441964Y9469505D01*
X28530495Y9558036D01*
X28593095Y9666464D01*
X28625500Y9787399D01*
X28625500Y9912601D01*
X28593095Y10033536D01*
X28530495Y10141964D01*
X28441964Y10230495D01*
X28441963Y10230496D01*
X28394903Y10257665D01*
X28352814Y10281965D01*
X28304600Y10332530D01*
X28291376Y10401136D01*
X28317343Y10466002D01*
X28327126Y10477024D01*
X28937819Y11087716D01*
X28999142Y11121201D01*
X29068834Y11116217D01*
X29124767Y11074345D01*
X29149184Y11008881D01*
X29149500Y11000035D01*
X29149500Y4476023D01*
X29129815Y4408984D01*
X29077011Y4363229D01*
X29057597Y4356250D01*
X28974371Y4333949D01*
X28974369Y4333949D01*
X28974369Y4333948D01*
X28860243Y4268057D01*
X28860240Y4268055D01*
X27779005Y3186819D01*
X27717682Y3153334D01*
X27691324Y3150500D01*
X26267827Y3150500D01*
X26200788Y3170185D01*
X26155033Y3222989D01*
X26145089Y3292147D01*
X26147977Y3306226D01*
X26148000Y3306400D01*
X26148000Y3431600D01*
X26142296Y3452888D01*
X26115595Y3552536D01*
X26052995Y3660964D01*
X25964464Y3749495D01*
X25856036Y3812095D01*
X25856037Y3812095D01*
X25815724Y3822897D01*
X25735101Y3844500D01*
X25609899Y3844500D01*
X25519156Y3820185D01*
X25488956Y3812093D01*
X25483752Y3809937D01*
X25436305Y3800500D01*
X16444535Y3800500D01*
X16377496Y3820185D01*
X16356854Y3836819D01*
X15980419Y4213254D01*
X15946934Y4274577D01*
X15951918Y4344269D01*
X15993790Y4400202D01*
X16004959Y4407655D01*
X16086420Y4455830D01*
X16198170Y4567580D01*
X16278618Y4703610D01*
X16322709Y4855373D01*
X16325500Y4890837D01*
X16325499Y5017162D01*
X16322709Y5052627D01*
X16278618Y5204390D01*
X16198170Y5340420D01*
X16198168Y5340422D01*
X16198165Y5340426D01*
X16086425Y5452166D01*
X16086417Y5452172D01*
X16035527Y5482268D01*
X15987844Y5533337D01*
X15975340Y5602078D01*
X16001985Y5666668D01*
X16035527Y5695732D01*
X16086420Y5725830D01*
X16198170Y5837580D01*
X16278618Y5973610D01*
X16322709Y6125373D01*
X16325500Y6160837D01*
X16325499Y6287162D01*
X16322709Y6322627D01*
X16278618Y6474390D01*
X16199882Y6607525D01*
X16198172Y6610417D01*
X16198165Y6610426D01*
X16086425Y6722166D01*
X16086417Y6722172D01*
X16035527Y6752268D01*
X15987844Y6803337D01*
X15975340Y6872078D01*
X16001985Y6936668D01*
X16035527Y6965732D01*
X16036653Y6966398D01*
X16086420Y6995830D01*
X16198170Y7107580D01*
X16278618Y7243610D01*
X16322709Y7395373D01*
X16325500Y7430837D01*
X16325499Y7557162D01*
X16322709Y7592627D01*
X16278618Y7744390D01*
X16198170Y7880420D01*
X16198168Y7880422D01*
X16198165Y7880426D01*
X16086425Y7992166D01*
X16086417Y7992172D01*
X16035527Y8022268D01*
X15987844Y8073337D01*
X15975340Y8142078D01*
X16001985Y8206668D01*
X16035527Y8235732D01*
X16048537Y8243426D01*
X16086420Y8265830D01*
X16198170Y8377580D01*
X16278618Y8513610D01*
X16322709Y8665373D01*
X16325500Y8700837D01*
X16325499Y8827162D01*
X16322709Y8862627D01*
X16278618Y9014390D01*
X16198170Y9150420D01*
X16198168Y9150422D01*
X16198165Y9150426D01*
X16086425Y9262166D01*
X16086417Y9262172D01*
X16035527Y9292268D01*
X15987844Y9343337D01*
X15975340Y9412078D01*
X16001985Y9476668D01*
X16020732Y9495463D01*
X16027754Y9501136D01*
X16086420Y9535830D01*
X16152423Y9601834D01*
X16157536Y9605963D01*
X16183966Y9616947D01*
X16209093Y9630666D01*
X16219738Y9631811D01*
X16222057Y9632774D01*
X16224547Y9632328D01*
X16235452Y9633500D01*
X17075500Y9633500D01*
X17142539Y9613815D01*
X17188294Y9561011D01*
X17199500Y9509500D01*
X17199500Y9467927D01*
X17203054Y9454662D01*
X17226793Y9366065D01*
X17240331Y9342618D01*
X17279520Y9274741D01*
X17279522Y9274739D01*
X18063181Y8491080D01*
X18096666Y8429757D01*
X18099500Y8403399D01*
X18099500Y7452727D01*
X18099500Y7347273D01*
X18110013Y7308038D01*
X18126793Y7245411D01*
X18145796Y7212498D01*
X18179520Y7154087D01*
X18179521Y7154086D01*
X18179522Y7154085D01*
X19810600Y5523008D01*
X19810610Y5522997D01*
X19814940Y5518667D01*
X19814941Y5518666D01*
X19889508Y5444099D01*
X19980834Y5391372D01*
X20082694Y5364078D01*
X20082696Y5364078D01*
X20195744Y5364078D01*
X20195760Y5364079D01*
X27101036Y5364079D01*
X27163033Y5347468D01*
X27208039Y5321484D01*
X27328974Y5289079D01*
X27328976Y5289079D01*
X27454174Y5289079D01*
X27454176Y5289079D01*
X27575111Y5321484D01*
X27683539Y5384084D01*
X27772070Y5472615D01*
X27834670Y5581043D01*
X27867075Y5701978D01*
X27867075Y5827180D01*
X27834670Y5948115D01*
X27772070Y6056543D01*
X27683539Y6145074D01*
X27575111Y6207674D01*
X27575110Y6207675D01*
X27575109Y6207675D01*
X27571813Y6209040D01*
X27569459Y6210937D01*
X27568073Y6211737D01*
X27568197Y6211954D01*
X27517410Y6252881D01*
X27495345Y6319175D01*
X27510429Y6379771D01*
X27509872Y6380001D01*
X27511412Y6383722D01*
X27511882Y6385606D01*
X27512061Y6385918D01*
X27512984Y6387515D01*
X27550500Y6527525D01*
X27550500Y6672475D01*
X27512984Y6812485D01*
X27491613Y6849500D01*
X27440511Y6938012D01*
X27440506Y6938018D01*
X27338017Y7040507D01*
X27338011Y7040512D01*
X27212488Y7112983D01*
X27212489Y7112983D01*
X27184409Y7120507D01*
X27072475Y7150500D01*
X26927525Y7150500D01*
X26815591Y7120507D01*
X26787511Y7112983D01*
X26661988Y7040512D01*
X26661982Y7040507D01*
X26559493Y6938018D01*
X26559488Y6938012D01*
X26487017Y6812489D01*
X26487016Y6812488D01*
X26481636Y6792406D01*
X26445270Y6732746D01*
X26382423Y6702217D01*
X26361861Y6700500D01*
X23113622Y6700500D01*
X23046583Y6720185D01*
X23000828Y6772989D01*
X22990884Y6842147D01*
X22993848Y6856595D01*
X22997038Y6868500D01*
X23015500Y6937399D01*
X23015500Y7062601D01*
X22983095Y7183536D01*
X22920495Y7291964D01*
X22831964Y7380495D01*
X22723536Y7443095D01*
X22723531Y7443097D01*
X22673337Y7456547D01*
X22617752Y7488640D01*
X20899331Y9207062D01*
X20899330Y9207063D01*
X20899329Y9207064D01*
X20840026Y9241303D01*
X20808005Y9259791D01*
X20752205Y9274742D01*
X20706143Y9287084D01*
X20706142Y9287084D01*
X19564088Y9287084D01*
X19497049Y9306769D01*
X19451294Y9359573D01*
X19444314Y9378986D01*
X19443095Y9383536D01*
X19380495Y9491964D01*
X19291964Y9580495D01*
X19183536Y9643095D01*
X19183537Y9643095D01*
X19143224Y9653897D01*
X19062601Y9675500D01*
X18937399Y9675500D01*
X18856775Y9653897D01*
X18816463Y9643095D01*
X18708037Y9580496D01*
X18708034Y9580494D01*
X18619506Y9491966D01*
X18619504Y9491963D01*
X18556905Y9383537D01*
X18553796Y9376029D01*
X18550596Y9377355D01*
X18522332Y9331262D01*
X18459403Y9300902D01*
X18390050Y9309383D01*
X18351488Y9335559D01*
X18036819Y9650228D01*
X18003334Y9711551D01*
X18000500Y9737909D01*
X18000500Y13409462D01*
X18017113Y13471462D01*
X18043095Y13516464D01*
X18075500Y13637399D01*
X18075500Y13762601D01*
X18043095Y13883536D01*
X17980495Y13991964D01*
X17899812Y14072647D01*
X17866327Y14133970D01*
X17871311Y14203662D01*
X17899810Y14248007D01*
X18214985Y14563181D01*
X18241912Y14577885D01*
X18267731Y14594477D01*
X18273931Y14595369D01*
X18276308Y14596666D01*
X18302666Y14599500D01*
X18509461Y14599500D01*
X18571458Y14582889D01*
X18616464Y14556905D01*
X18737399Y14524500D01*
X18737401Y14524500D01*
X18862599Y14524500D01*
X18862601Y14524500D01*
X18983536Y14556905D01*
X19091964Y14619505D01*
X19172646Y14700187D01*
X19233969Y14733672D01*
X19303661Y14728688D01*
G37*
%TD.AperFunction*%
%TA.AperFunction,Conductor*%
G36*
X17462197Y15155815D02*
G01*
X17507952Y15103011D01*
X17517896Y15033853D01*
X17488871Y14970297D01*
X17482839Y14963819D01*
X16429522Y13910504D01*
X16429520Y13910501D01*
X16376791Y13819174D01*
X16357226Y13746148D01*
X16357225Y13746144D01*
X16349500Y13717318D01*
X16349500Y13108453D01*
X16329815Y13041414D01*
X16277011Y12995659D01*
X16207853Y12985715D01*
X16144297Y13014740D01*
X16137819Y13020772D01*
X16086425Y13072166D01*
X16086416Y13072173D01*
X15950390Y13152618D01*
X15950385Y13152620D01*
X15798633Y13196708D01*
X15798620Y13196710D01*
X15763163Y13199500D01*
X15636849Y13199500D01*
X15636823Y13199499D01*
X15601372Y13196709D01*
X15449614Y13152620D01*
X15449609Y13152618D01*
X15313583Y13072173D01*
X15313574Y13072166D01*
X15201834Y12960426D01*
X15201827Y12960417D01*
X15121382Y12824391D01*
X15121380Y12824386D01*
X15077292Y12672634D01*
X15077290Y12672621D01*
X15074500Y12637171D01*
X15074500Y12510850D01*
X15074501Y12510824D01*
X15077291Y12475373D01*
X15121380Y12323615D01*
X15121382Y12323610D01*
X15201827Y12187584D01*
X15201834Y12187575D01*
X15313574Y12075835D01*
X15313577Y12075833D01*
X15313580Y12075830D01*
X15363345Y12046399D01*
X15364473Y12045732D01*
X15412156Y11994662D01*
X15424659Y11925921D01*
X15398013Y11861331D01*
X15364473Y11832269D01*
X15346245Y11821488D01*
X15313580Y11802170D01*
X15313574Y11802166D01*
X15201834Y11690426D01*
X15201827Y11690417D01*
X15121382Y11554391D01*
X15121380Y11554386D01*
X15077292Y11402634D01*
X15077290Y11402621D01*
X15074500Y11367171D01*
X15074500Y11240850D01*
X15074501Y11240824D01*
X15077291Y11205373D01*
X15121380Y11053615D01*
X15121382Y11053610D01*
X15201827Y10917584D01*
X15201834Y10917575D01*
X15313574Y10805835D01*
X15313577Y10805833D01*
X15313580Y10805830D01*
X15351450Y10783434D01*
X15364473Y10775732D01*
X15412156Y10724662D01*
X15424659Y10655921D01*
X15398013Y10591331D01*
X15364473Y10562268D01*
X15313580Y10532170D01*
X15313574Y10532166D01*
X15201834Y10420426D01*
X15201827Y10420417D01*
X15121382Y10284391D01*
X15121380Y10284386D01*
X15077292Y10132634D01*
X15077290Y10132621D01*
X15074501Y10097182D01*
X15074500Y10097157D01*
X15074500Y9970850D01*
X15074501Y9970824D01*
X15077291Y9935373D01*
X15121380Y9783615D01*
X15121382Y9783610D01*
X15201827Y9647584D01*
X15201834Y9647575D01*
X15313574Y9535835D01*
X15313577Y9535833D01*
X15313580Y9535830D01*
X15363350Y9506396D01*
X15364473Y9505732D01*
X15412156Y9454662D01*
X15424659Y9385921D01*
X15398013Y9321331D01*
X15364473Y9292268D01*
X15313580Y9262170D01*
X15313574Y9262166D01*
X15201834Y9150426D01*
X15201827Y9150417D01*
X15121382Y9014391D01*
X15121380Y9014386D01*
X15077292Y8862634D01*
X15077290Y8862621D01*
X15074500Y8827171D01*
X15074500Y8700850D01*
X15074501Y8700824D01*
X15077291Y8665373D01*
X15121380Y8513615D01*
X15121382Y8513610D01*
X15201827Y8377584D01*
X15201834Y8377575D01*
X15313574Y8265835D01*
X15313577Y8265833D01*
X15313580Y8265830D01*
X15364473Y8235732D01*
X15412156Y8184662D01*
X15424659Y8115921D01*
X15398013Y8051331D01*
X15364473Y8022268D01*
X15313580Y7992170D01*
X15313574Y7992166D01*
X15201834Y7880426D01*
X15201827Y7880417D01*
X15121382Y7744391D01*
X15121380Y7744386D01*
X15077292Y7592634D01*
X15077290Y7592621D01*
X15074500Y7557171D01*
X15074500Y7430850D01*
X15074501Y7430824D01*
X15077291Y7395373D01*
X15121380Y7243615D01*
X15121382Y7243610D01*
X15201827Y7107584D01*
X15201834Y7107575D01*
X15313574Y6995835D01*
X15313577Y6995833D01*
X15313580Y6995830D01*
X15363347Y6966398D01*
X15364473Y6965732D01*
X15412156Y6914662D01*
X15424659Y6845921D01*
X15398013Y6781331D01*
X15364473Y6752268D01*
X15313580Y6722170D01*
X15313574Y6722166D01*
X15201834Y6610426D01*
X15201827Y6610417D01*
X15121382Y6474391D01*
X15121380Y6474386D01*
X15077292Y6322634D01*
X15077290Y6322621D01*
X15074500Y6287171D01*
X15074500Y6160850D01*
X15074501Y6160824D01*
X15077291Y6125373D01*
X15121380Y5973615D01*
X15121382Y5973610D01*
X15201827Y5837584D01*
X15201834Y5837575D01*
X15313574Y5725835D01*
X15313577Y5725833D01*
X15313580Y5725830D01*
X15364473Y5695732D01*
X15412156Y5644662D01*
X15424659Y5575921D01*
X15398013Y5511331D01*
X15364473Y5482268D01*
X15313580Y5452170D01*
X15313574Y5452166D01*
X15201834Y5340426D01*
X15201827Y5340417D01*
X15153666Y5258980D01*
X15102597Y5211296D01*
X15033855Y5198793D01*
X14969266Y5225439D01*
X14959253Y5234420D01*
X11760819Y8432854D01*
X11727334Y8494177D01*
X11724500Y8520535D01*
X11724500Y10719947D01*
X11744185Y10786986D01*
X11796989Y10832741D01*
X11866147Y10842685D01*
X11880592Y10839722D01*
X11937399Y10824500D01*
X11937400Y10824500D01*
X12062599Y10824500D01*
X12062601Y10824500D01*
X12183536Y10856905D01*
X12291964Y10919505D01*
X12380495Y11008036D01*
X12443095Y11116464D01*
X12456545Y11166662D01*
X12488636Y11222245D01*
X16405574Y15139181D01*
X16466897Y15172666D01*
X16493255Y15175500D01*
X17395158Y15175500D01*
X17462197Y15155815D01*
G37*
%TD.AperFunction*%
%TA.AperFunction,Conductor*%
G36*
X34549784Y18779815D02*
G01*
X34570426Y18763181D01*
X36329519Y17004088D01*
X36329520Y17004087D01*
X36404087Y16929520D01*
X36495413Y16876793D01*
X36597273Y16849500D01*
X37882745Y16849500D01*
X37949784Y16829815D01*
X37970426Y16813181D01*
X38688087Y16095520D01*
X38779412Y16042793D01*
X38881273Y16015500D01*
X38986727Y16015500D01*
X40448809Y16015500D01*
X40515848Y15995815D01*
X40561603Y15943011D01*
X40572427Y15901229D01*
X40575401Y15863433D01*
X40575402Y15863427D01*
X40621254Y15705607D01*
X40621255Y15705604D01*
X40621256Y15705602D01*
X40704918Y15564136D01*
X40704923Y15564130D01*
X40821129Y15447924D01*
X40821133Y15447921D01*
X40821135Y15447919D01*
X40962602Y15364256D01*
X41004224Y15352164D01*
X41120426Y15318403D01*
X41120429Y15318403D01*
X41120431Y15318402D01*
X41157306Y15315500D01*
X41157314Y15315500D01*
X42988686Y15315500D01*
X42988694Y15315500D01*
X43025569Y15318402D01*
X43025571Y15318403D01*
X43025573Y15318403D01*
X43067191Y15330495D01*
X43183398Y15364256D01*
X43324865Y15447919D01*
X43441081Y15564135D01*
X43468768Y15610953D01*
X43519836Y15658635D01*
X43588578Y15671139D01*
X43653167Y15644494D01*
X43693098Y15587159D01*
X43699500Y15547831D01*
X43699500Y14744170D01*
X43679815Y14677131D01*
X43627011Y14631376D01*
X43557853Y14621432D01*
X43494297Y14650457D01*
X43468768Y14681049D01*
X43441083Y14727862D01*
X43441076Y14727871D01*
X43324870Y14844077D01*
X43324862Y14844083D01*
X43183396Y14927745D01*
X43183393Y14927746D01*
X43025573Y14973598D01*
X43025567Y14973599D01*
X42988701Y14976500D01*
X42988694Y14976500D01*
X41157306Y14976500D01*
X41157298Y14976500D01*
X41120432Y14973599D01*
X41120426Y14973598D01*
X40962606Y14927746D01*
X40962603Y14927745D01*
X40821137Y14844083D01*
X40821129Y14844077D01*
X40704923Y14727871D01*
X40704917Y14727863D01*
X40621255Y14586397D01*
X40621254Y14586394D01*
X40575402Y14428574D01*
X40575401Y14428568D01*
X40572500Y14391702D01*
X40572500Y13360299D01*
X40575401Y13323433D01*
X40580280Y13306641D01*
X40580978Y13239954D01*
X40551128Y13128551D01*
X40549500Y13122475D01*
X40549500Y12977525D01*
X40576446Y12876964D01*
X40587017Y12837512D01*
X40659488Y12711989D01*
X40659490Y12711987D01*
X40659491Y12711985D01*
X40761985Y12609491D01*
X40761986Y12609490D01*
X40761988Y12609489D01*
X40869456Y12547442D01*
X40917672Y12496875D01*
X40930894Y12428268D01*
X40904926Y12363403D01*
X40870578Y12333324D01*
X40821140Y12304087D01*
X40821129Y12304078D01*
X40704923Y12187872D01*
X40704917Y12187864D01*
X40621255Y12046398D01*
X40621254Y12046395D01*
X40575402Y11888575D01*
X40575401Y11888569D01*
X40572500Y11851703D01*
X40572500Y10820300D01*
X40575401Y10783434D01*
X40575402Y10783428D01*
X40621254Y10625608D01*
X40621255Y10625605D01*
X40621256Y10625603D01*
X40704919Y10484136D01*
X40789904Y10399151D01*
X40821996Y10343566D01*
X40837015Y10287517D01*
X40837017Y10287512D01*
X40909488Y10161989D01*
X40909493Y10161983D01*
X40958794Y10112682D01*
X40992279Y10051359D01*
X40987295Y9981667D01*
X40958795Y9937320D01*
X40859491Y9838016D01*
X40819049Y9767971D01*
X40799346Y9742293D01*
X40704919Y9647864D01*
X40704915Y9647859D01*
X40621255Y9506396D01*
X40621254Y9506393D01*
X40575402Y9348573D01*
X40575401Y9348567D01*
X40572500Y9311701D01*
X40572500Y8280298D01*
X40575401Y8243432D01*
X40575402Y8243426D01*
X40621254Y8085606D01*
X40621255Y8085603D01*
X40621256Y8085601D01*
X40657395Y8024493D01*
X40676509Y7992172D01*
X40704918Y7944135D01*
X40704923Y7944129D01*
X40821129Y7827923D01*
X40821133Y7827920D01*
X40821135Y7827918D01*
X40962602Y7744255D01*
X41004224Y7732163D01*
X41120426Y7698402D01*
X41120429Y7698402D01*
X41120431Y7698401D01*
X41157306Y7695499D01*
X41157314Y7695499D01*
X42988686Y7695499D01*
X42988694Y7695499D01*
X43025569Y7698401D01*
X43025571Y7698402D01*
X43025573Y7698402D01*
X43067191Y7710494D01*
X43183398Y7744255D01*
X43324865Y7827918D01*
X43441081Y7944134D01*
X43468768Y7990952D01*
X43519836Y8038634D01*
X43588578Y8051138D01*
X43653167Y8024493D01*
X43693098Y7967158D01*
X43699500Y7927830D01*
X43699500Y7124170D01*
X43679815Y7057131D01*
X43627011Y7011376D01*
X43557853Y7001432D01*
X43494297Y7030457D01*
X43468768Y7061049D01*
X43441083Y7107862D01*
X43441076Y7107871D01*
X43324870Y7224077D01*
X43324862Y7224083D01*
X43210082Y7291963D01*
X43183398Y7307744D01*
X43183397Y7307745D01*
X43183396Y7307745D01*
X43183393Y7307746D01*
X43025573Y7353598D01*
X43025567Y7353599D01*
X42988701Y7356500D01*
X42988694Y7356500D01*
X41157306Y7356500D01*
X41157298Y7356500D01*
X41120432Y7353599D01*
X41120426Y7353598D01*
X40962606Y7307746D01*
X40962603Y7307745D01*
X40821137Y7224083D01*
X40821129Y7224077D01*
X40711654Y7114601D01*
X40650331Y7081116D01*
X40584241Y7085843D01*
X40584060Y7085244D01*
X40581423Y7086044D01*
X40580639Y7086100D01*
X40578624Y7086893D01*
X40578227Y7087014D01*
X40452560Y7112011D01*
X40452558Y7112011D01*
X40324420Y7112011D01*
X40324417Y7112011D01*
X40282147Y7103603D01*
X40212556Y7109830D01*
X40170275Y7137539D01*
X34617143Y12690671D01*
X34583658Y12751994D01*
X34582840Y12756081D01*
X34581973Y12760829D01*
X34581973Y12760835D01*
X34577712Y12775500D01*
X34537883Y12912594D01*
X34537882Y12912598D01*
X34519432Y12943796D01*
X34477032Y13015492D01*
X34459764Y13078612D01*
X34459764Y14306626D01*
X34459764Y14306628D01*
X34425656Y14433922D01*
X34359764Y14548050D01*
X34266578Y14641236D01*
X33886819Y15020995D01*
X33853334Y15082318D01*
X33850500Y15108676D01*
X33850500Y15365687D01*
X33850499Y15365702D01*
X33847598Y15402568D01*
X33847597Y15402574D01*
X33801745Y15560394D01*
X33801744Y15560398D01*
X33776352Y15603334D01*
X33767768Y15617850D01*
X33750500Y15680970D01*
X33750500Y16040568D01*
X33770185Y16107607D01*
X33771398Y16109459D01*
X33826461Y16191867D01*
X33826461Y16191868D01*
X33826465Y16191873D01*
X33875501Y16310256D01*
X33892851Y16397478D01*
X33900500Y16435929D01*
X33900500Y16564072D01*
X33875502Y16689739D01*
X33875501Y16689743D01*
X33875501Y16689744D01*
X33826465Y16808127D01*
X33826464Y16808128D01*
X33826461Y16808134D01*
X33755276Y16914669D01*
X33755273Y16914673D01*
X33664672Y17005274D01*
X33664668Y17005277D01*
X33558133Y17076462D01*
X33558124Y17076467D01*
X33439744Y17125501D01*
X33439738Y17125503D01*
X33314071Y17150500D01*
X33314069Y17150500D01*
X33287965Y17150500D01*
X33258524Y17159145D01*
X33228538Y17165668D01*
X33223522Y17169423D01*
X33220926Y17170185D01*
X33200284Y17186819D01*
X33094284Y17292819D01*
X33060799Y17354142D01*
X33065783Y17423834D01*
X33107655Y17479767D01*
X33173119Y17504184D01*
X33181965Y17504500D01*
X33267995Y17504500D01*
X33380926Y17526964D01*
X33403328Y17531420D01*
X33530811Y17584225D01*
X33645542Y17660886D01*
X33743114Y17758458D01*
X33819775Y17873189D01*
X33872580Y18000672D01*
X33881397Y18045000D01*
X33899500Y18136005D01*
X33899500Y18273996D01*
X33872581Y18409323D01*
X33872580Y18409324D01*
X33872580Y18409328D01*
X33847392Y18470138D01*
X33819778Y18536805D01*
X33819771Y18536818D01*
X33773138Y18606609D01*
X33752260Y18673287D01*
X33770745Y18740667D01*
X33822723Y18787357D01*
X33876240Y18799500D01*
X34482745Y18799500D01*
X34549784Y18779815D01*
G37*
%TD.AperFunction*%
%TA.AperFunction,Conductor*%
G36*
X27042539Y14779815D02*
G01*
X27088294Y14727011D01*
X27099500Y14675500D01*
X27099500Y12117256D01*
X27079815Y12050217D01*
X27063181Y12029575D01*
X26809380Y11775775D01*
X26748057Y11742290D01*
X26678365Y11747274D01*
X26622432Y11789146D01*
X26600082Y11839265D01*
X26589489Y11892517D01*
X26580658Y11936913D01*
X26580656Y11936918D01*
X26524087Y12073489D01*
X26524080Y12073502D01*
X26441951Y12196416D01*
X26441948Y12196420D01*
X26373049Y12265319D01*
X26339564Y12326642D01*
X26344548Y12396334D01*
X26373049Y12440681D01*
X26441948Y12509581D01*
X26441951Y12509584D01*
X26524084Y12632505D01*
X26580658Y12769087D01*
X26594270Y12837515D01*
X26609500Y12914080D01*
X26609500Y13061921D01*
X26580659Y13206908D01*
X26580658Y13206909D01*
X26580658Y13206913D01*
X26577913Y13213541D01*
X26524087Y13343489D01*
X26524080Y13343502D01*
X26441951Y13466416D01*
X26441948Y13466420D01*
X26337419Y13570949D01*
X26337413Y13570954D01*
X26314608Y13586192D01*
X26269804Y13639804D01*
X26259500Y13689293D01*
X26259500Y13693725D01*
X26259500Y13693727D01*
X26232207Y13795587D01*
X26179480Y13886913D01*
X26104913Y13961480D01*
X25845913Y14220480D01*
X25770478Y14264033D01*
X25754589Y14273207D01*
X25703657Y14286854D01*
X25652727Y14300500D01*
X23847273Y14300500D01*
X23745413Y14273207D01*
X23745412Y14273207D01*
X23745410Y14273206D01*
X23745407Y14273205D01*
X23703845Y14249208D01*
X23703844Y14249207D01*
X23689380Y14240856D01*
X23654088Y14220481D01*
X23654085Y14220479D01*
X22496263Y13062658D01*
X22466265Y13040572D01*
X22454028Y13034142D01*
X22431464Y13028095D01*
X22323036Y12965495D01*
X22322635Y12965095D01*
X22317183Y12962229D01*
X22285258Y12955817D01*
X22253599Y12948136D01*
X22251184Y12948972D01*
X22248681Y12948469D01*
X22218354Y12960335D01*
X22187572Y12970989D01*
X22185993Y12972997D01*
X22183615Y12973927D01*
X22164517Y13000307D01*
X22144382Y13025911D01*
X22143802Y13028920D01*
X22142642Y13030522D01*
X22142297Y13036726D01*
X22135500Y13071996D01*
X22135500Y13092600D01*
X22135500Y13092601D01*
X22103095Y13213536D01*
X22087843Y13239954D01*
X22077112Y13258542D01*
X22060500Y13320540D01*
X22060500Y13792725D01*
X22060500Y13792727D01*
X22035263Y13886913D01*
X22035262Y13886918D01*
X22033207Y13894587D01*
X22033207Y13894588D01*
X21980480Y13985913D01*
X21378574Y14587819D01*
X21345089Y14649142D01*
X21350073Y14718834D01*
X21391945Y14774767D01*
X21457409Y14799184D01*
X21466255Y14799500D01*
X26975500Y14799500D01*
X27042539Y14779815D01*
G37*
%TD.AperFunction*%
%TA.AperFunction,Conductor*%
G36*
X42004418Y19699184D02*
G01*
X42233020Y19682835D01*
X42250529Y19680317D01*
X42470144Y19632542D01*
X42487103Y19627563D01*
X42697694Y19549017D01*
X42713777Y19541673D01*
X42911036Y19433960D01*
X42925919Y19424395D01*
X43105836Y19289711D01*
X43119207Y19278125D01*
X43278124Y19119208D01*
X43289710Y19105837D01*
X43424394Y18925920D01*
X43433959Y18911037D01*
X43541669Y18713783D01*
X43549019Y18697689D01*
X43627559Y18487113D01*
X43632543Y18470138D01*
X43680316Y18250530D01*
X43682834Y18233018D01*
X43699184Y18004419D01*
X43699500Y17995573D01*
X43699500Y17284170D01*
X43679815Y17217131D01*
X43627011Y17171376D01*
X43557853Y17161432D01*
X43494297Y17190457D01*
X43468768Y17221049D01*
X43441083Y17267862D01*
X43441076Y17267871D01*
X43324870Y17384077D01*
X43324862Y17384083D01*
X43222702Y17444500D01*
X43183398Y17467744D01*
X43183397Y17467745D01*
X43183396Y17467745D01*
X43183393Y17467746D01*
X43025573Y17513598D01*
X43025567Y17513599D01*
X42988701Y17516500D01*
X42988694Y17516500D01*
X41157306Y17516500D01*
X41157298Y17516500D01*
X41120432Y17513599D01*
X41120426Y17513598D01*
X40962606Y17467746D01*
X40962603Y17467745D01*
X40821137Y17384083D01*
X40821129Y17384077D01*
X40704923Y17267871D01*
X40704917Y17267863D01*
X40621255Y17126397D01*
X40621254Y17126394D01*
X40575402Y16968574D01*
X40575401Y16968568D01*
X40572427Y16930771D01*
X40547543Y16865482D01*
X40491312Y16824012D01*
X40448809Y16816500D01*
X39151255Y16816500D01*
X39121814Y16825145D01*
X39091828Y16831668D01*
X39086812Y16835423D01*
X39084216Y16836185D01*
X39063574Y16852819D01*
X38973073Y16943320D01*
X38939588Y17004643D01*
X38944572Y17074335D01*
X38986444Y17130268D01*
X39051908Y17154685D01*
X39060754Y17155001D01*
X39124998Y17155001D01*
X39124999Y17155002D01*
X39124999Y17168544D01*
X39624999Y17168544D01*
X39764394Y17211981D01*
X39909876Y17299928D01*
X40030071Y17420123D01*
X40118018Y17565605D01*
X40168589Y17727894D01*
X40174999Y17798428D01*
X40174999Y17805000D01*
X39624999Y17805000D01*
X39624999Y17168544D01*
X39124999Y17168544D01*
X39124999Y18305000D01*
X39624999Y18305000D01*
X40174998Y18305000D01*
X40174998Y18311583D01*
X40168590Y18382103D01*
X40168589Y18382108D01*
X40118017Y18544397D01*
X40030071Y18689878D01*
X39909876Y18810073D01*
X39764395Y18898019D01*
X39764394Y18898020D01*
X39624999Y18941458D01*
X39624999Y18305000D01*
X39124999Y18305000D01*
X39124999Y18955000D01*
X38830213Y18955000D01*
X38830190Y18954998D01*
X38805129Y18952092D01*
X38805126Y18952091D01*
X38704414Y18907623D01*
X38635135Y18898552D01*
X38630137Y18899441D01*
X38599677Y18905500D01*
X38599675Y18905500D01*
X37909307Y18905500D01*
X37909299Y18905500D01*
X37872433Y18902599D01*
X37872427Y18902598D01*
X37714607Y18856746D01*
X37714604Y18856745D01*
X37573138Y18773083D01*
X37573130Y18773077D01*
X37456924Y18656871D01*
X37456918Y18656863D01*
X37373256Y18515397D01*
X37373255Y18515394D01*
X37327403Y18357574D01*
X37327402Y18357568D01*
X37324501Y18320702D01*
X37324501Y17789290D01*
X37324900Y17784235D01*
X37310539Y17715857D01*
X37261490Y17666098D01*
X37201283Y17650500D01*
X36867255Y17650500D01*
X36800216Y17670185D01*
X36779574Y17686819D01*
X34978574Y19487819D01*
X34945089Y19549142D01*
X34950073Y19618834D01*
X34991945Y19674767D01*
X35057409Y19699184D01*
X35066255Y19699500D01*
X41952405Y19699500D01*
X41995572Y19699500D01*
X42004418Y19699184D01*
G37*
%TD.AperFunction*%
%TA.AperFunction,Conductor*%
G36*
X32588799Y18779815D02*
G01*
X32634554Y18727011D01*
X32644498Y18657853D01*
X32624862Y18606609D01*
X32578228Y18536818D01*
X32578221Y18536805D01*
X32525421Y18409333D01*
X32525418Y18409323D01*
X32498500Y18273996D01*
X32498500Y18273993D01*
X32498500Y18136007D01*
X32498500Y18136005D01*
X32498499Y18136005D01*
X32525418Y18000678D01*
X32525421Y18000668D01*
X32557612Y17922952D01*
X32565081Y17853483D01*
X32533806Y17791004D01*
X32473716Y17755352D01*
X32443051Y17751500D01*
X30954949Y17751500D01*
X30887910Y17771185D01*
X30842155Y17823989D01*
X30832211Y17893147D01*
X30840388Y17922952D01*
X30870468Y17995573D01*
X30872580Y18000672D01*
X30881397Y18045000D01*
X30899500Y18136005D01*
X30899500Y18273996D01*
X30872581Y18409323D01*
X30872580Y18409324D01*
X30872580Y18409328D01*
X30847392Y18470138D01*
X30819778Y18536805D01*
X30819771Y18536818D01*
X30773138Y18606609D01*
X30752260Y18673287D01*
X30770745Y18740667D01*
X30822723Y18787357D01*
X30876240Y18799500D01*
X32521760Y18799500D01*
X32588799Y18779815D01*
G37*
%TD.AperFunction*%
M02*
